<?xml version="1.0" encoding="iso-8859-1"?>
<!-- Generator: Adobe Illustrator 19.0.0, SVG Export Plug-In . SVG Version: 6.00 Build 0)  -->
<svg version="1.1" id="Layer_1" xmlns="http://www.w3.org/2000/svg" xmlns:xlink="http://www.w3.org/1999/xlink" x="0px" y="0px"
	 viewBox="0 0 512.001 512.001" style="enable-background:new 0 0 512.001 512.001;" xml:space="preserve">
<path style="fill:#46C79C;" d="M230.728,67.217c21.859,21.859,26.004,55.305,26.683,71.205c0.294,6.878-2.124,9.236-8.945,8.945
	c-15.899-0.679-49.346-4.824-71.205-26.684c-21.86-21.859-26.005-55.306-26.683-71.205c-0.291-6.821,2.068-9.238,8.945-8.945
	C175.42,41.212,208.868,45.359,230.728,67.217z"/>
<path style="fill:#866539;" d="M256.001,160.527c-12.209,0-22.105-9.897-22.105-22.106V40.51c0-12.209,9.896-22.106,22.105-22.106
	c12.21,0,22.106,9.896,22.106,22.106v97.912C278.107,150.63,268.21,160.527,256.001,160.527z"/>
<path style="fill:#6CF5C5;" d="M289.307,41.279c-27.257,27.255-32.423,68.956-33.27,88.779c-0.366,8.575,2.648,11.516,11.153,11.152
	c19.822-0.847,61.525-6.013,88.779-33.27c27.255-27.255,32.423-68.958,33.27-88.779c0.364-8.505-2.578-11.519-11.153-11.153
	C358.264,8.854,316.562,14.024,289.307,41.279z"/>
<path style="fill:#FF6376;" d="M36.128,217.658c0-63.195,51.231-114.426,114.426-114.426c41.767,0,76.179,21.755,105.44,21.755
	s63.672-21.755,105.439-21.755h0.007c63.195,0,114.426,51.231,114.426,114.426c0,70.693-35.353,286.362-156.811,286.362h-0.006
	c-31.528,0-40.333-15.559-63.054-15.559c-22.722,0-31.528,15.559-63.055,15.559C71.481,504.02,36.128,288.351,36.128,217.658z"/>
<g>
	<circle style="fill:#3F4963;" cx="140.175" cy="234.598" r="15.008"/>
	<circle style="fill:#3F4963;" cx="371.827" cy="234.598" r="15.008"/>
</g>
<g>
	<path style="fill:#FF9596;" d="M156.227,286.748h-32.113c-4.406,0-7.977-3.572-7.977-7.977c0-4.406,3.572-7.977,7.977-7.977h32.113
		c4.406,0,7.977,3.572,7.977,7.977C164.204,283.177,160.632,286.748,156.227,286.748z"/>
	<path style="fill:#FF9596;" d="M387.889,286.748h-32.113c-4.406,0-7.977-3.572-7.977-7.977c0-4.406,3.572-7.977,7.977-7.977h32.113
		c4.406,0,7.977,3.572,7.977,7.977C395.866,283.177,392.294,286.748,387.889,286.748z"/>
</g>
<g>
	<path style="fill:#3F4963;" d="M237.207,276.376c-14.761,0-26.771-12.009-26.771-26.769c0-4.406,3.572-7.977,7.977-7.977
		c4.406,0,7.977,3.572,7.977,7.977c0,5.964,4.852,10.814,10.816,10.814s10.816-4.851,10.816-10.814c0-4.406,3.572-7.977,7.977-7.977
		c4.406,0,7.977,3.572,7.977,7.977C263.978,264.368,251.97,276.376,237.207,276.376z"/>
	<path style="fill:#3F4963;" d="M274.793,276.376c-14.76,0-26.77-12.009-26.77-26.769c0-4.406,3.572-7.977,7.977-7.977
		c4.406,0,7.977,3.572,7.977,7.977c0,5.964,4.851,10.814,10.815,10.814s10.816-4.851,10.816-10.814c0-4.406,3.572-7.977,7.977-7.977
		s7.977,3.572,7.977,7.977C301.564,264.368,289.556,276.376,274.793,276.376z"/>
</g>
<path d="M140.171,219.595c-8.29,0-15.01,6.719-15.01,15.009c0,8.29,6.72,15.01,15.01,15.01c8.289,0,15.009-6.72,15.009-15.01
	C155.18,226.314,148.46,219.595,140.171,219.595z M375.521,96.073c16.942-26.775,20.92-58.528,21.691-76.569
	c0.181-4.252-0.094-10.424-4.564-14.894c-4.474-4.474-10.645-4.751-14.9-4.57c-50.858,2.171-79.233,21.495-92.382,33.954
	c-2.988-13.463-15.014-23.564-29.363-23.564c-16.588,0-30.082,13.496-30.082,30.083v12.327
	c-12.845-9.077-33.953-18.902-66.058-20.273c-2.135-0.088-8.639-0.367-13.133,4.128c-4.492,4.492-4.213,10.993-4.122,13.128
	c0.432,10.121,2.264,27.823,9.22,45.459c-0.425-0.004-0.846-0.022-1.273-0.022c-67.493,0-122.402,54.91-122.402,122.402
	c0,41.094,10.447,112.617,33.387,172.544c30.499,79.68,75.937,121.797,131.402,121.797c18.721,0,30.137-4.994,40.209-9.399
	c7.868-3.441,14.083-6.16,22.846-6.16c8.763,0,14.977,2.718,22.846,6.16c10.073,4.406,21.489,9.399,40.209,9.399h0.007
	c55.465,0,100.903-42.117,131.402-121.797c22.939-59.927,33.387-131.45,33.387-172.544
	C483.844,154.93,436.409,103.08,375.521,96.073z M294.948,46.92c25.814-25.812,66.979-30.237,83.478-30.941
	c1.385-0.06,2.25,0.012,2.757,0.088c0.077,0.507,0.146,1.372,0.087,2.756c-1.735,40.613-15.395,64.659-24.771,76.535
	c-21.983,0.834-41.829,7.051-59.479,12.586c-11.241,3.524-22.008,6.898-31.826,8.337C267.694,96.201,274.837,67.03,294.948,46.92z
	 M241.874,40.511c0-7.79,6.337-14.128,14.127-14.128c7.79,0,14.128,6.338,14.128,14.128v12.084
	c-13.771,21.555-19.052,46.422-21.036,63.989c-2.35-0.273-4.76-0.67-7.22-1.164L241.874,40.511L241.874,40.511z M159.182,48.504
	c39.172,1.672,59.139,17.59,65.905,24.354c0.28,0.281,0.554,0.573,0.832,0.862v37.599c-3.589-1.067-7.245-2.212-10.952-3.376
	c-13.713-4.299-28.752-9.001-45.086-11.282c-8.8-17.569-10.887-37.071-11.334-47.522c-0.011-0.241-0.015-0.457-0.016-0.65
	C158.725,48.489,158.941,48.493,159.182,48.504z M435.558,384.499c-12.942,33.81-28.596,60.459-46.526,79.207
	c-20.523,21.459-44.068,32.339-69.976,32.339h-0.007c-15.384,0-24.753-4.098-33.815-8.061c-8.426-3.686-17.139-7.497-29.239-7.497
	c-12.101,0-20.813,3.811-29.24,7.497c-9.061,3.964-18.432,8.061-33.815,8.061c-25.908,0-49.453-10.88-69.976-32.339
	c-17.93-18.747-33.584-45.396-46.526-79.207C50.864,317.686,44.106,246.151,44.106,217.66c0-58.696,47.751-106.448,106.448-106.448
	c21.516,0,40.896,6.078,59.64,11.955c16.068,5.038,31.248,9.798,45.802,9.798s29.731-4.76,45.8-9.798
	c18.743-5.878,38.124-11.955,59.647-11.955c58.696,0,106.448,47.752,106.448,106.448
	C467.889,246.15,461.131,317.685,435.558,384.499z M293.587,241.63c-4.406,0-7.977,3.572-7.977,7.977
	c0,5.963-4.851,10.815-10.816,10.815c-5.963,0-10.815-4.852-10.815-10.815c0-4.406-3.571-7.977-7.977-7.977
	c-4.407,0-7.977,3.572-7.977,7.977c0,5.963-4.852,10.815-10.816,10.815c-5.964,0-10.816-4.852-10.816-10.815
	c0-4.406-3.571-7.977-7.977-7.977c-4.406,0-7.977,3.572-7.977,7.977c0,14.761,12.01,26.77,26.771,26.77
	c7.318,0,13.956-2.954,18.794-7.727c4.837,4.774,11.476,7.727,18.793,7.727c14.762,0,26.771-12.009,26.771-26.77
	C301.564,245.203,297.993,241.63,293.587,241.63z M371.833,219.595c-8.29,0-15.009,6.719-15.009,15.009
	c0,8.29,6.719,15.01,15.009,15.01c8.289,0,15.009-6.72,15.009-15.01C386.842,226.314,380.122,219.595,371.833,219.595z"/>
<g>
</g>
<g>
</g>
<g>
</g>
<g>
</g>
<g>
</g>
<g>
</g>
<g>
</g>
<g>
</g>
<g>
</g>
<g>
</g>
<g>
</g>
<g>
</g>
<g>
</g>
<g>
</g>
<g>
</g>
</svg>
