<?xml version="1.0" encoding="iso-8859-1"?>
<!-- Generator: Adobe Illustrator 19.0.0, SVG Export Plug-In . SVG Version: 6.00 Build 0)  -->
<svg version="1.1" id="Layer_1" xmlns="http://www.w3.org/2000/svg" xmlns:xlink="http://www.w3.org/1999/xlink" x="0px" y="0px"
	 viewBox="0 0 512.001 512.001" style="enable-background:new 0 0 512.001 512.001;" xml:space="preserve">
<rect x="139.643" y="8.062" style="fill:#FF6376;" width="225.953" height="495.874"/>
<g>
	<path style="fill:#FF9596;" d="M414.931,206.412c23.706-27.272,23.706-71.901,0-99.176c-18.655-21.458-22.634-53.666-11.927-79.708
		c7.927-19.291-6.384-19.466-16.603-19.466h-58.977c-23.71,27.273-23.71,71.904,0,99.174c23.707,27.275,23.707,71.904,0,99.176
		c-23.71,27.273-23.71,71.904,0,99.177c23.707,27.272,23.707,71.903,0,99.176c-23.71,27.272-23.71,71.901,0,99.174h69.654
		c6.842,0,14.864-1.944,9.066-12.796c-14.429-27.005-11.498-63.044,8.788-86.378c23.706-27.273,23.706-71.904,0-99.176
		C391.221,278.315,391.221,233.685,414.931,206.412z"/>
	<path style="fill:#FF9596;" d="M184.582,206.412c23.706-27.272,23.706-71.901,0-99.176c-23.71-27.269-23.71-71.901,0-99.174
		h-73.569c-10.402,0-16.345,1.273-22.188,11.808c-15.035,27.106-12.286,63.747,8.248,87.366c23.707,27.275,23.707,71.904,0,99.176
		c-23.709,27.273-23.709,71.904,0,99.177c23.707,27.272,23.707,71.903,0,99.176c-20.547,23.637-23.288,60.312-8.219,87.424
		c5.981,10.761,13.673,11.75,23.072,11.75h72.656c-23.71-27.273-23.71-71.902,0-99.174c23.706-27.273,23.706-71.904,0-99.176
		C160.872,278.315,160.872,233.685,184.582,206.412z"/>
</g>
<g>
	<circle style="fill:#3F4963;" cx="150.994" cy="136.804" r="15.168"/>
	<circle style="fill:#3F4963;" cx="385.129" cy="136.804" r="15.168"/>
</g>
<g>
	<path style="fill:#FF6376;" d="M167.219,189.503h-32.455c-4.454,0-8.062-3.609-8.062-8.062c0-4.454,3.609-8.062,8.062-8.062h32.455
		c4.454,0,8.062,3.609,8.062,8.062C175.282,185.895,171.673,189.503,167.219,189.503z"/>
	<path style="fill:#FF6376;" d="M401.355,189.503h-32.455c-4.454,0-8.062-3.609-8.062-8.062c0-4.454,3.609-8.062,8.062-8.062h32.455
		c4.454,0,8.062,3.609,8.062,8.062C409.417,185.895,405.808,189.503,401.355,189.503z"/>
</g>
<g>
	<path style="fill:#3F4963;" d="M249.065,179.021c-14.919,0-27.057-12.137-27.057-27.055c0-4.454,3.609-8.062,8.062-8.062
		c4.454,0,8.062,3.609,8.062,8.062c0,6.027,4.903,10.931,10.932,10.931c6.027,0,10.932-4.903,10.932-10.931
		c0-4.454,3.609-8.062,8.062-8.062s8.062,3.609,8.062,8.062C276.122,166.884,263.984,179.021,249.065,179.021z"/>
	<path style="fill:#3F4963;" d="M287.052,179.021c-14.919,0-27.056-12.137-27.056-27.055c0-4.454,3.609-8.062,8.062-8.062
		s8.062,3.609,8.062,8.062c0,6.027,4.903,10.931,10.931,10.931s10.932-4.903,10.932-10.931c0-4.454,3.609-8.062,8.062-8.062
		c4.454,0,8.062,3.609,8.062,8.062C314.109,166.884,301.971,179.021,287.052,179.021z"/>
</g>
<path d="M150.993,121.631c-8.379,0-15.17,6.792-15.17,15.169c0,8.38,6.792,15.171,15.17,15.171c8.377,0,15.169-6.792,15.169-15.171
	C166.163,128.424,159.371,121.631,150.993,121.631z M306.046,143.904c-4.454,0-8.062,3.609-8.062,8.062
	c0,6.025-4.904,10.931-10.932,10.931c-6.026,0-10.931-4.905-10.931-10.931c0-4.454-3.609-8.062-8.062-8.062
	s-8.062,3.609-8.062,8.062c0,6.025-4.903,10.931-10.932,10.931c-6.027,0-10.932-4.905-10.932-10.931
	c0-4.454-3.609-8.062-8.062-8.062c-4.454,0-8.062,3.609-8.062,8.062c0,14.918,12.138,27.055,27.057,27.055
	c7.395,0,14.105-2.985,18.994-7.811c4.889,4.825,11.597,7.811,18.993,7.811c14.919,0,27.057-12.138,27.057-27.055
	C314.109,147.514,310.5,143.904,306.046,143.904z M400.297,136.802c0-8.377-6.792-15.169-15.169-15.169
	c-8.379,0-15.169,6.792-15.169,15.169c0,8.38,6.791,15.171,15.169,15.171C393.504,151.973,400.297,145.181,400.297,136.802z
	 M421.015,300.3c-10.191-11.724-15.805-27.456-15.805-44.299s5.614-32.576,15.805-44.299c26.302-30.257,26.302-79.493,0-109.755
	c-16.199-18.632-20.441-47.306-10.553-71.353c3.845-9.358,3.893-16.627,0.143-22.22C404.994,0,393.805,0,386.4,0H111.012
	c-10.745,0-21.066,1.222-29.238,15.962c-16.868,30.411-12.993,71.021,9.214,96.565c10.19,11.724,15.802,27.456,15.802,44.299
	s-5.613,32.576-15.802,44.297c-26.306,30.259-26.306,79.495,0,109.755c10.19,11.724,15.802,27.456,15.802,44.299
	c-0.001,16.843-5.613,32.576-15.802,44.297c-22.229,25.571-26.089,66.211-9.182,96.632c8.154,14.666,19.821,15.894,30.119,15.894
	h285.151c8.465,0,14.267-2.52,17.249-7.492c2.841-4.741,2.481-10.515-1.072-17.167c-13.108-24.534-9.844-57.038,7.761-77.288
	C447.318,379.795,447.318,330.559,421.015,300.3z M399.031,494.941c0.159,0.298,0.293,0.569,0.409,0.813
	c-0.606,0.071-1.383,0.121-2.363,0.121H111.926c-8.383,0-12.18-0.687-16.024-7.602c-13.727-24.696-10.675-57.592,7.256-78.219
	c26.304-30.259,26.304-79.495,0-109.755c-10.192-11.724-15.804-27.456-15.804-44.299s5.613-32.576,15.804-44.299
	c26.303-30.257,26.303-79.493,0-109.755c-17.914-20.603-20.976-53.477-7.282-78.166c3.853-6.949,6.308-7.654,15.136-7.654H386.4
	c2.287,0,9.147,0,10.784,1.232c0.085,0.434,0.288,2.419-1.637,7.105c-12.15,29.549-6.805,64.94,13.298,88.064
	c10.19,11.724,15.802,27.456,15.802,44.299s-5.613,32.576-15.801,44.297c-26.307,30.259-26.307,79.495,0,109.755
	c10.189,11.724,15.801,27.456,15.801,44.299c0,16.843-5.613,32.576-15.801,44.297C386.666,424.987,382.63,464.244,399.031,494.941z"
	/>
<g>
</g>
<g>
</g>
<g>
</g>
<g>
</g>
<g>
</g>
<g>
</g>
<g>
</g>
<g>
</g>
<g>
</g>
<g>
</g>
<g>
</g>
<g>
</g>
<g>
</g>
<g>
</g>
<g>
</g>
</svg>
