<?xml version="1.0" encoding="iso-8859-1"?>
<!-- Generator: Adobe Illustrator 19.0.0, SVG Export Plug-In . SVG Version: 6.00 Build 0)  -->
<svg version="1.1" id="Layer_1" xmlns="http://www.w3.org/2000/svg" xmlns:xlink="http://www.w3.org/1999/xlink" x="0px" y="0px"
	 viewBox="0 0 512.002 512.002" style="enable-background:new 0 0 512.002 512.002;" xml:space="preserve">
<path style="fill:#FFD553;" d="M446.861,197.099c-45.22,18.769-91.042,34.235-140.636,32.466
	c-49.903-1.778-99.158-19.207-138.036-50.743c-31.703-25.716-54.509-60.847-72.495-97.079c-3.704-7.458-7.482-16.829-12.735-24.504
	c-7.083-10.354-53.629-2.292-54.896,11.659c-2.711,29.879,4.775,73.501,10.016,93.864c8.963,34.836,26.209,67.465,49.497,94.838
	c12.991,15.289,28.41,29.597,45.75,41.923c17.349,12.299,36.534,22.719,56.762,30.471c57.472,22.021,123.107,22.729,180.312-0.538
	c24.041-9.806,46.774-23.497,66.089-40.897c9.859-8.881,18.818-18.767,26.492-29.593c2.4-3.399,18.974-25.823,16.488-29.764
	c5.098-12.71-1.073-27.15-13.778-32.251C459.424,194.437,452.67,194.689,446.861,197.099z"/>
<path style="opacity:0.2;fill:#2F3953;enable-background:new    ;" d="M285.343,288.97c-31.381,0-61.593-6.908-90.192-20.663
	c-53.137-25.556-87.891-68.14-107.69-99.364c-23.132-36.481-37.645-76.558-37.875-104.59c-0.036-4.425,3.521-8.041,7.945-8.078
	c0.022,0,0.045,0,0.067,0c4.394,0,7.973,3.543,8.01,7.945c0.204,24.823,14.094,62.562,35.386,96.141
	c18.678,29.456,51.38,69.589,101.102,93.504c36.332,17.473,75.536,22.976,116.52,16.356c48.11-7.769,98.728-32.317,150.449-72.957
	c3.479-2.733,8.517-2.129,11.249,1.35c2.734,3.479,2.129,8.516-1.35,11.249c-53.881,42.339-106.972,67.968-157.794,76.176
	C309.082,287.996,297.128,288.97,285.343,288.97z"/>
<path style="fill:#866539;" d="M82.959,57.239c-7.083-10.354-12.668-18.731-32.711-12.996C30.202,49.976,29.33,54.946,28.063,68.897
	c-0.361,3.964-0.535,8.174-0.567,12.535l60.546-15.557C86.486,62.893,84.82,59.955,82.959,57.239z"/>
<path style="fill:#FDBA55;" d="M446.053,203.925c-39.613,28.78-80.575,54.484-129.222,64.308
	c-48.941,9.885-100.902,4.4-146.051-17.221c-36.818-17.63-67.175-46.49-93.101-77.538c-5.339-6.394-11.195-14.627-18.089-20.87
	c-9.301-8.421-52.691,10.251-50.674,24.116c4.319,29.687,21.754,70.371,31.589,88.954c16.825,31.795,41.192,59.51,70.213,80.714
	c16.19,11.847,34.517,22.17,54.25,30.121c19.734,7.926,40.82,13.593,62.298,16.424c61.018,8.038,125.013-6.549,175.232-42.491
	c21.101-15.13,40.019-33.739,54.757-55.158c7.517-10.932,13.931-22.631,18.873-34.949c1.548-3.862,12.442-29.525,9.107-32.783
	c2.004-13.547-7.357-26.152-20.905-28.157C457.65,198.413,451.138,200.23,446.053,203.925z"/>
<path style="opacity:0.2;fill:#2F3953;enable-background:new    ;" d="M261.728,338.064c-14.204,0-28.465-1.481-42.747-4.448
	c-57.731-11.994-101.725-44.945-128.465-70.477c-31.244-29.831-54.99-65.229-61.971-92.379c-1.101-4.286,1.478-8.653,5.764-9.754
	c4.284-1.103,8.653,1.478,9.754,5.764c6.182,24.044,28.758,57.32,57.516,84.777c25.228,24.086,66.64,55.154,120.66,66.378
	c39.471,8.203,78.844,4.095,117.026-12.211c44.818-19.137,88.027-55.162,128.427-107.07c2.718-3.492,7.752-4.12,11.243-1.403
	c3.491,2.718,4.119,7.752,1.403,11.243c-42.087,54.078-87.434,91.749-134.78,111.965
	C318.093,332.181,290.03,338.064,261.728,338.064z"/>
<path style="fill:#866539;" d="M59.591,152.604c-9.301-8.421-16.678-15.268-34.837-5.026C6.594,157.823,6.9,162.855,8.916,176.72
	c0.575,3.94,1.383,8.073,2.367,12.324l55.259-29.221C64.338,157.282,62.032,154.814,59.591,152.604z"/>
<path style="fill:#FFD553;" d="M447.694,213.613c-27.88,40.251-58.054,78.043-100.722,103.386
	c-42.931,25.497-93.784,37.484-143.545,31.992c-40.574-4.481-78.759-21.692-113.486-42.433c-7.151-4.269-15.398-10.104-23.97-13.725
	c-11.558-4.872-46.346,27.085-39.863,39.507c13.884,26.593,43.779,59.234,59.201,73.526c26.385,24.448,58.54,42.56,92.934,52.989
	c19.194,5.829,39.903,9.52,61.154,10.507c21.247,0.959,43.017-0.655,64.225-5.08c60.249-12.569,115.836-47.477,151.36-97.99
	c14.916-21.252,26.627-45.062,33.459-70.146c3.487-12.804,5.677-25.965,6.272-39.224c0.184-4.156,1.992-31.981-2.23-33.951
	c-2.589-13.451-15.586-22.255-29.036-19.67C456.815,204.579,451.275,208.442,447.694,213.613z"/>
<circle style="fill:#3F4963;" cx="180.489" cy="382.747" r="15.135"/>
<path style="fill:#FF6376;" d="M196.678,430.837h-32.381c-4.425,0-8.012-3.586-8.012-8.012c0-4.426,3.587-8.012,8.012-8.012h32.381
	c4.425,0,8.012,3.586,8.012,8.012C204.689,427.251,201.102,430.837,196.678,430.837z"/>
<circle style="fill:#3F4963;" cx="329.378" cy="382.747" r="15.135"/>
<path style="fill:#FF6376;" d="M345.57,430.837h-32.381c-4.426,0-8.012-3.586-8.012-8.012c0-4.426,3.586-8.012,8.012-8.012h32.381
	c4.426,0,8.012,3.586,8.012,8.012C353.581,427.251,349.995,430.837,345.57,430.837z"/>
<g>
	<path style="fill:#3F4963;" d="M239.889,417.962c-12.714,0-23.059-10.344-23.059-23.056c0-4.426,3.587-8.012,8.012-8.012
		s8.012,3.586,8.012,8.012c0,3.879,3.157,7.033,7.035,7.033c3.878,0,7.033-3.154,7.033-7.033c0-4.426,3.587-8.012,8.012-8.012
		c4.426,0,8.012,3.586,8.012,8.012C262.946,407.619,252.602,417.962,239.889,417.962z"/>
	<path style="fill:#3F4963;" d="M269.979,417.962c-12.713,0-23.057-10.344-23.057-23.056c0-4.426,3.587-8.012,8.012-8.012
		c4.426,0,8.012,3.586,8.012,8.012c0,3.879,3.154,7.033,7.033,7.033c3.879,0,7.033-3.154,7.033-7.033
		c0-4.426,3.586-8.012,8.012-8.012c4.425,0,8.012,3.586,8.012,8.012C293.036,407.619,282.692,417.962,269.979,417.962z"/>
</g>
<g>
	<path style="fill:#866539;" d="M65.973,292.834c-11.558-4.872-20.785-8.898-34.541,6.766c-13.758,15.669-11.805,20.32-5.322,32.741
		c1.842,3.526,3.973,7.162,6.306,10.849l42.505-45.84C72,295.684,69.008,294.115,65.973,292.834z"/>
	<path style="fill:#866539;" d="M458.135,248.792c1.203,0.559,2.462,1.024,3.78,1.388c13.006,3.616,26.477-3.999,30.094-17.002
		l11.111-39.99c3.616-13.011-3.999-26.489-17.006-30.094c-13.009-3.614-26.483,4.004-30.092,17.006l-11.114,39.99
		C441.66,231.779,447.482,243.848,458.135,248.792z"/>
</g>
<path d="M507.789,170.672c-4.266-7.55-11.217-12.983-19.567-15.299c-2.844-0.788-5.771-1.189-8.702-1.189
	c-14.518,0-27.371,9.774-31.255,23.77l-3.114,11.204c-0.47,0.171-0.938,0.348-1.399,0.541
	c-42.354,17.58-88.291,33.612-137.28,31.859c-49.18-1.753-96.51-19.14-133.272-48.959c-26.468-21.471-49.485-52.356-70.366-94.421
	c-0.941-1.892-1.895-3.935-2.907-6.098c-1.508-3.226-3.067-6.562-4.819-9.925L95.1,62.158c-1.959-3.76-3.729-6.76-5.567-9.445
	l-0.129-0.188c-5.823-8.513-12.424-18.162-27.682-18.162c-4.115,0-8.601,0.711-13.716,2.174
	c-23.428,6.701-26.395,14.39-27.96,31.631c-0.363,3.986-0.565,8.427-0.601,13.202v0.004h-0.002
	c-0.142,20.747,2.912,42.831,5.368,57.141c-1.319,0.628-2.656,1.304-4.033,2.082c-21.225,11.972-22.322,20.14-19.83,37.277
	c0.582,3.983,1.42,8.347,2.491,12.975c0,0.002,0.001,0.002,0.002,0.004l-0.004,0.002c7.19,30.968,22.733,64.93,29.948,78.565
	c2.316,4.375,4.803,8.706,7.418,12.974c-5.227,2.128-10.275,6.046-15.429,11.917c-16.079,18.313-14.415,26.384-6.403,41.735
	c1.863,3.568,4.097,7.411,6.638,11.425l0.001,0.002l-0.004,0.002c17.025,26.864,42.913,53.783,54.222,64.264
	c26.923,24.947,60.139,43.889,96.052,54.78c20.409,6.199,41.643,9.846,63.12,10.842c4.097,0.186,8.187,0.278,12.27,0.278
	c18.266,0,36.362-1.848,53.951-5.518c63.372-13.219,120.333-50.115,156.282-101.231c16.097-22.936,27.749-47.376,34.632-72.643
	c3.74-13.734,5.943-27.52,6.545-40.974l0.067-1.329c0.526-10.159,0.911-22.4-0.456-29.983l8.512-30.632
	C513.124,186.978,512.053,178.219,507.789,170.672z M36.005,69.619c0.521-5.731,0.941-9.345,2.394-11.212
	c1.676-2.154,6.131-4.208,14.016-6.464c3.611-1.033,6.743-1.556,9.308-1.556c6.323,0,8.842,3.012,13.914,10.393L35.89,70.993
	C35.926,70.529,35.966,70.07,36.005,69.619z M83.706,75.25c0.576,1.21,1.148,2.423,1.705,3.614c1.053,2.251,2.047,4.378,3.071,6.44
	c21.923,44.165,46.334,76.789,74.624,99.739c39.448,31.996,90.161,50.651,142.796,52.527c2.675,0.096,5.333,0.142,7.986,0.142
	c32.861,0,64.053-7.156,93.64-17.098c-27.998,17.788-58.389,32.913-92.321,39.765c-48.236,9.743-98.312,3.851-141.003-16.593
	c-30.732-14.715-60.304-39.395-90.411-75.445c-1.349-1.617-2.746-3.373-4.227-5.234c-2.189-2.75-4.452-5.595-6.903-8.425
	l-0.014,0.013c-0.032-0.04-0.059-0.081-0.092-0.119c-2.728-3.146-5.223-5.733-7.628-7.909l-0.172-0.156
	c-6.256-5.665-13.345-12.084-24.11-12.084c-0.091,0-0.184,0.011-0.275,0.013c-2.802-16.669-4.504-33.113-4.843-46.807L83.706,75.25z
	 M16.806,175.568c-0.828-5.696-1.261-9.31-0.282-11.462c1.131-2.485,4.984-5.518,12.128-9.549c4.832-2.725,8.868-4.108,11.996-4.108
	c4.201,0,7.324,2.5,12.647,7.298l-36.281,19.184C16.941,176.471,16.872,176.015,16.806,175.568z M20.534,193.194l43.974-23.253
	c0.848,1.049,1.694,2.105,2.518,3.142c1.54,1.937,2.996,3.763,4.466,5.527c31.611,37.854,62.944,63.899,95.791,79.628
	c31.406,15.038,66.501,22.748,102.102,22.748c16.327,0,32.762-1.622,48.993-4.901c41.894-8.46,78.178-28.398,111.157-50.759
	c-23.256,31.953-50.266,63.146-86.693,84.784c-42.312,25.128-91.524,36.111-138.572,30.915
	c-33.871-3.741-69.938-17.265-110.26-41.348c-1.825-1.09-3.743-2.297-5.774-3.576c-2.999-1.889-6.098-3.839-9.374-5.713
	l-0.003,0.006c-0.002-0.002-0.003-0.002-0.005-0.004c-3.684-2.103-6.799-3.673-9.807-4.941l-0.218-0.092
	c-3.025-1.277-6.11-2.564-9.323-3.501c-4.335-6.455-8.363-13.14-11.958-19.931C40.133,247.912,27.387,219.043,20.534,193.194z
	 M33.176,328.635c-2.663-5.103-4.264-8.373-4.053-10.728c0.245-2.721,2.88-6.858,8.293-13.021
	c6.607-7.523,10.698-8.393,13.201-8.393c3.159,0,6.86,1.475,11.112,3.263l-27.907,30.096
	C33.601,329.441,33.385,329.035,33.176,328.635z M486.745,255.118c-0.032,0.617-0.058,1.11-0.072,1.444
	c-0.551,12.272-2.568,24.882-5.998,37.478c-6.393,23.474-17.257,46.234-32.283,67.642c-33.631,47.822-87.007,82.36-146.444,94.757
	c-20.209,4.216-41.145,5.873-62.216,4.919c-20.14-0.935-40.056-4.356-59.199-10.171c-33.607-10.19-64.664-27.892-89.815-51.198
	c-11.627-10.774-33.189-33.809-48.202-55.952l33.823-36.477c1.129,0.701,2.256,1.405,3.36,2.099
	c2.116,1.331,4.113,2.589,6.097,3.774c42.334,25.285,80.512,39.518,116.715,43.517c8.206,0.906,16.472,1.353,24.755,1.353
	c42.679,0,85.835-11.899,123.759-34.421c36.852-21.888,64.263-52.454,87.716-84.033c3.087,6.941,8.613,12.783,15.977,16.203
	c1.616,0.751,3.309,1.373,5.012,1.843c2.845,0.79,5.773,1.191,8.704,1.191c6.739,0,13.107-2.128,18.4-5.79
	C486.807,253.892,486.778,254.497,486.745,255.118z M495.363,191.042l-11.109,39.988c-1.972,7.088-8.476,12.037-15.817,12.037
	c-1.482,0-2.965-0.204-4.432-0.611c-0.867-0.238-1.718-0.551-2.533-0.93c-7.31-3.393-11.044-11.505-8.88-19.289l11.114-39.993
	c1.967-7.086,8.471-12.035,15.816-12.035c1.482,0,2.964,0.204,4.417,0.607c4.226,1.171,7.742,3.92,9.901,7.74
	C495.998,182.378,496.538,186.811,495.363,191.042z M180.45,367.61c-8.358,0-15.135,6.777-15.135,15.135
	c0,8.36,6.777,15.137,15.135,15.137s15.135-6.777,15.135-15.137C195.585,374.386,188.809,367.61,180.45,367.61z M284.985,386.892
	c-4.426,0-8.012,3.586-8.012,8.012c0,3.879-3.154,7.033-7.033,7.033c-3.879,0-7.033-3.154-7.033-7.033
	c0-4.426-3.586-8.012-8.011-8.012c-4.426,0-8.012,3.586-8.012,8.012c0,3.879-3.154,7.033-7.033,7.033
	c-3.879,0-7.035-3.154-7.035-7.033c0-4.426-3.586-8.012-8.012-8.012c-4.426,0-8.012,3.586-8.012,8.012
	c0,12.714,10.345,23.056,23.059,23.056c5.75,0,11.002-2.13,15.045-5.623c4.042,3.493,9.295,5.623,15.044,5.623
	c12.713,0,23.057-10.343,23.057-23.056C292.997,390.478,289.411,386.892,284.985,386.892z M329.342,367.61
	c-8.36,0-15.135,6.777-15.135,15.135c0,8.36,6.775,15.137,15.135,15.137c8.358,0,15.135-6.777,15.135-15.137
	C344.477,374.386,337.7,367.61,329.342,367.61z"/>
<g>
</g>
<g>
</g>
<g>
</g>
<g>
</g>
<g>
</g>
<g>
</g>
<g>
</g>
<g>
</g>
<g>
</g>
<g>
</g>
<g>
</g>
<g>
</g>
<g>
</g>
<g>
</g>
<g>
</g>
</svg>
