<?xml version="1.0" encoding="iso-8859-1"?>
<!-- Generator: Adobe Illustrator 19.0.0, SVG Export Plug-In . SVG Version: 6.00 Build 0)  -->
<svg version="1.1" id="Layer_1" xmlns="http://www.w3.org/2000/svg" xmlns:xlink="http://www.w3.org/1999/xlink" x="0px" y="0px"
	 viewBox="0 0 512.001 512.001" style="enable-background:new 0 0 512.001 512.001;" xml:space="preserve">
<path style="fill:#28785C;" d="M257.083,114.22c-10.466,0-18.952-8.486-18.952-18.952c0-48.126,39.153-87.277,87.277-87.277
	c10.468,0,18.952,8.486,18.952,18.952s-8.485,18.951-18.952,18.951c-27.225,0-49.373,22.15-49.373,49.374
	C276.036,105.734,267.551,114.22,257.083,114.22z"/>
<g>
	<path style="fill:#46C79C;" d="M154.512,503.689c-59.638,0-111.097-44.739-118.083-105.413L13.59,199.889
		C6.072,134.591,52.912,75.563,118.21,68.045c65.313-7.507,124.325,39.324,131.842,104.621l22.84,198.388
		c7.517,65.297-39.323,124.324-104.62,131.844C163.649,503.427,159.056,503.689,154.512,503.689z"/>
	<path style="fill:#46C79C;" d="M357.489,503.689c-4.544,0-9.136-0.261-13.759-0.792c-65.297-7.52-112.137-66.547-104.621-131.844
		l22.839-198.388c7.517-65.297,66.55-112.125,131.843-104.621c65.298,7.519,112.137,66.546,104.62,131.844l-22.839,198.388
		C468.588,458.949,417.127,503.689,357.489,503.689z"/>
</g>
<path style="fill:#6CF5C5;" d="M256.001,61.411c103.966,0,145.617,75.196,138.281,151.567l-17.468,181.826
	c-5.41,56.732-40.64,109.207-120.814,109.207s-115.404-52.475-120.814-109.207l-17.468-181.826
	C110.383,136.606,152.035,61.411,256.001,61.411z"/>
<circle style="fill:#3F4963;" cx="181.747" cy="347.351" r="15.095"/>
<path style="fill:#FF6376;" d="M197.899,395.315h-32.295c-4.413,0-7.99-3.577-7.99-7.99c0-4.414,3.578-7.99,7.99-7.99h32.295
	c4.413,0,7.99,3.577,7.99,7.99C205.89,391.737,202.312,395.315,197.899,395.315z"/>
<circle style="fill:#3F4963;" cx="330.252" cy="347.351" r="15.095"/>
<path style="fill:#FF6376;" d="M346.397,395.315h-32.295c-4.413,0-7.99-3.577-7.99-7.99c0-4.414,3.578-7.99,7.99-7.99h32.295
	c4.413,0,7.99,3.577,7.99,7.99C354.388,391.737,350.81,395.315,346.397,395.315z"/>
<g>
	<path style="fill:#3F4963;" d="M240.995,382.473c-12.68,0-22.998-10.316-22.998-22.996c0-4.414,3.578-7.99,7.99-7.99
		s7.99,3.577,7.99,7.99c0,3.868,3.148,7.015,7.017,7.015c3.867,0,7.015-3.146,7.015-7.015c0-4.414,3.578-7.99,7.99-7.99
		c4.413,0,7.99,3.577,7.99,7.99C263.991,372.158,253.676,382.473,240.995,382.473z"/>
	<path style="fill:#3F4963;" d="M271.006,382.473c-12.679,0-22.996-10.316-22.996-22.996c0-4.414,3.578-7.99,7.99-7.99
		c4.413,0,7.99,3.577,7.99,7.99c0,3.868,3.147,7.015,7.015,7.015s7.015-3.146,7.015-7.015c0-4.414,3.578-7.99,7.99-7.99
		s7.99,3.577,7.99,7.99C294.001,372.158,283.686,382.473,271.006,382.473z"/>
</g>
<path d="M181.752,332.256c-8.336,0-15.095,6.759-15.095,15.095c0,8.338,6.759,15.097,15.095,15.097
	c8.336,0,15.095-6.759,15.095-15.097C196.846,339.015,190.088,332.256,181.752,332.256z M286.011,351.487
	c-4.414,0-7.99,3.577-7.99,7.99c0,3.868-3.146,7.015-7.015,7.015c-3.868,0-7.015-3.146-7.015-7.015c0-4.414-3.577-7.99-7.99-7.99
	c-4.414,0-7.99,3.577-7.99,7.99c0,3.868-3.146,7.015-7.015,7.015s-7.017-3.146-7.017-7.015c0-4.414-3.577-7.99-7.99-7.99
	s-7.99,3.577-7.99,7.99c0,12.68,10.317,22.996,22.998,22.996c5.735,0,10.973-2.124,15.005-5.608
	c4.033,3.484,9.27,5.608,15.005,5.608c12.679,0,22.996-10.315,22.996-22.996C294.001,355.065,290.425,351.487,286.011,351.487z
	 M394.705,60.105c-21.908-2.522-44.002,0.687-64.158,9.259c-8.118-4.017-16.808-7.289-26.016-9.803
	c6.26-3.675,13.431-5.676,20.88-5.676c14.855,0,26.942-12.086,26.942-26.943C352.352,12.088,340.265,0,325.41,0
	c-36.815,0-70.035,21.081-85.883,54.071c-21.553,1.723-41.064,6.879-58.072,15.294c-20.156-8.573-42.25-11.774-64.16-9.259
	C47.726,68.117-2.357,131.233,5.651,200.803L28.49,399.189c7.383,64.129,61.56,112.491,126.022,112.491
	c4.856,0,9.791-0.286,14.672-0.845c11.215-1.29,22.137-4.054,32.524-8.188c15.966,6.216,34.099,9.353,54.292,9.353
	s38.326-3.138,54.292-9.353c10.388,4.135,21.309,6.898,32.528,8.188c4.877,0.559,9.813,0.845,14.669,0.845
	c64.462,0,118.638-48.362,126.022-112.491l22.84-198.387C514.358,131.233,464.275,68.117,394.705,60.105z M325.41,15.981
	c6.044,0,10.961,4.917,10.961,10.962s-4.917,10.962-10.961,10.962c-15.627,0-30.381,6.327-41.17,17.479
	c-8.387-1.205-17.121-1.856-26.171-1.943C272.402,30.353,297.683,15.981,325.41,15.981z M167.358,494.958
	c-4.275,0.491-8.597,0.74-12.847,0.74c-56.339,0-103.692-42.277-110.147-98.337L21.528,198.976
	c-7.002-60.817,36.781-115.991,97.595-122.994c15.086-1.736,30.27-0.364,44.644,3.954c-7.125,5.083-13.663,10.868-19.552,17.35
	c-26.615,29.294-38.85,70.651-34.451,116.455l17.468,181.821c3.105,32.553,15.06,60.448,34.575,80.669
	c5.969,6.185,12.541,11.567,19.689,16.158C176.86,493.537,172.142,494.409,167.358,494.958z M256.001,496.019
	c-35.092,0-62.913-10.392-82.694-30.886c-16.977-17.592-27.408-42.173-30.165-71.094l-17.468-181.825
	c-3.964-41.263,6.822-78.263,30.37-104.182c22.963-25.272,57.526-38.631,99.958-38.631s76.995,13.359,99.958,38.631
	c23.547,25.919,34.333,62.919,30.37,104.182L368.86,394.046c-2.757,28.916-13.189,53.497-30.165,71.089
	C318.913,485.627,291.093,496.019,256.001,496.019z M490.473,198.976l-22.838,198.387c-6.455,56.06-53.808,98.337-110.147,98.337
	c-4.249,0-8.571-0.249-12.844-0.74c-4.785-0.55-9.503-1.421-14.14-2.57c7.147-4.591,13.719-9.973,19.687-16.158
	c19.515-20.22,31.471-48.115,34.574-80.664l17.469-181.825c4.399-45.804-7.836-87.16-34.451-116.455
	c-5.888-6.482-12.426-12.267-19.551-17.35c14.373-4.316,29.556-5.687,44.641-3.954C453.693,82.985,497.475,138.159,490.473,198.976z
	 M345.345,347.35c0-8.336-6.759-15.095-15.095-15.095c-8.338,0-15.095,6.759-15.095,15.095c0,8.338,6.757,15.097,15.095,15.097
	C338.586,362.447,345.345,355.688,345.345,347.35z"/>
<g>
</g>
<g>
</g>
<g>
</g>
<g>
</g>
<g>
</g>
<g>
</g>
<g>
</g>
<g>
</g>
<g>
</g>
<g>
</g>
<g>
</g>
<g>
</g>
<g>
</g>
<g>
</g>
<g>
</g>
</svg>
