<?xml version="1.0" encoding="iso-8859-1"?>
<!-- Generator: Adobe Illustrator 19.0.0, SVG Export Plug-In . SVG Version: 6.00 Build 0)  -->
<svg version="1.1" id="Layer_1" xmlns="http://www.w3.org/2000/svg" xmlns:xlink="http://www.w3.org/1999/xlink" x="0px" y="0px"
	 viewBox="0 0 512 512" style="enable-background:new 0 0 512 512;" xml:space="preserve">
<path style="fill:#6CF5C5;" d="M420.97,251.801h-56.926l-8.171-72.438c-0.506-4.492-2.359-8.677-5.111-12.163l-13.783,52.485
	c0,0-11.268,73.234-29.403,73.234c-18.134,0-29.989-78.044-29.989-78.044v-57.416h-43.179v57.416c0,0-11.855,78.044-29.989,78.044
	c-18.135,0-29.403-73.234-29.403-73.234l-13.781-52.479c-2.75,3.485-4.602,7.668-5.108,12.157l-8.172,72.438H91.028
	c22.414,14.709,50.02,61.206,47.133,86.878l-16.173,143.396c-1.359,12.047,7.449,21.905,19.574,21.905h228.883
	c12.125,0,20.932-9.859,19.573-21.905l-16.19-143.543C371.059,312.829,398.597,266.483,420.97,251.801z"/>
<path style="fill:#46C79C;" d="M380.441,39.328c-12.886,0-25.302,2.006-36.961,5.712C321.328,22.209,290.324,8.017,256,8.017
	s-65.328,14.193-87.48,37.023c-11.659-3.706-24.076-5.712-36.961-5.712c-67.32,0-121.893,54.573-121.893,121.892
	c0,67.319,54.572,121.892,121.893,121.892c34.324,0,65.328-14.193,87.481-37.022c11.658,3.705,24.075,5.712,36.96,5.712
	c12.886,0,25.302-2.007,36.962-5.712c22.151,22.829,53.156,37.022,87.479,37.022c67.32,0,121.893-54.573,121.893-121.892
	C502.334,93.901,447.762,39.328,380.441,39.328z"/>
<circle style="fill:#3F4963;" cx="181.501" cy="369.555" r="15.146"/>
<path style="fill:#FF6376;" d="M197.703,417.678h-32.406c-4.429,0-8.018-3.589-8.018-8.018s3.589-8.018,8.018-8.018h32.406
	c4.429,0,8.018,3.589,8.018,8.018S202.131,417.678,197.703,417.678z"/>
<circle style="fill:#3F4963;" cx="330.503" cy="369.555" r="15.146"/>
<path style="fill:#FF6376;" d="M346.708,417.678h-32.406c-4.429,0-8.018-3.589-8.018-8.018s3.589-8.018,8.018-8.018h32.406
	c4.429,0,8.018,3.589,8.018,8.018S351.137,417.678,346.708,417.678z"/>
<g>
	<path style="fill:#3F4963;" d="M240.947,404.793c-12.724,0-23.076-10.351-23.076-23.074c0-4.429,3.589-8.018,8.018-8.018
		c4.429,0,8.018,3.589,8.018,8.018c0,3.882,3.158,7.039,7.041,7.039c3.882,0,7.039-3.157,7.039-7.039
		c0-4.429,3.589-8.018,8.018-8.018c4.429,0,8.018,3.589,8.018,8.018C264.021,394.442,253.669,404.793,240.947,404.793z"/>
	<path style="fill:#3F4963;" d="M271.06,404.793c-12.723,0-23.074-10.351-23.074-23.074c0-4.429,3.589-8.018,8.018-8.018
		c4.429,0,8.018,3.589,8.018,8.018c0,3.882,3.157,7.039,7.039,7.039s7.039-3.157,7.039-7.039c0-4.429,3.589-8.018,8.018-8.018
		c4.428,0,8.018,3.589,8.018,8.018C294.134,394.442,283.782,404.793,271.06,404.793z"/>
</g>
<g>
	<circle style="fill:#28785C;" cx="129.321" cy="145.036" r="15.146"/>
	<circle style="fill:#28785C;" cx="188.76" cy="82.278" r="15.146"/>
	<circle style="fill:#28785C;" cx="62.303" cy="127.718" r="15.146"/>
	<circle style="fill:#28785C;" cx="273.737" cy="50.715" r="15.146"/>
	<circle style="fill:#28785C;" cx="253.404" cy="127.718" r="15.146"/>
	<circle style="fill:#28785C;" cx="234.033" cy="196.254" r="15.146"/>
	<circle style="fill:#28785C;" cx="314.307" cy="160.184" r="15.146"/>
	<circle style="fill:#28785C;" cx="399.884" cy="241.698" r="15.146"/>
	<circle style="fill:#28785C;" cx="173.611" cy="214.16" r="15.146"/>
	<circle style="fill:#28785C;" cx="458.232" cy="155.748" r="15.146"/>
	<circle style="fill:#28785C;" cx="392.486" cy="145.036" r="15.146"/>
	<circle style="fill:#28785C;" cx="427.946" cy="196.254" r="15.146"/>
	<circle style="fill:#28785C;" cx="114.173" cy="231.906" r="15.146"/>
	<circle style="fill:#28785C;" cx="188.76" cy="150.82" r="15.146"/>
	<circle style="fill:#28785C;" cx="114.173" cy="88.367" r="15.146"/>
	<circle style="fill:#28785C;" cx="301.265" cy="97.421" r="15.146"/>
	<circle style="fill:#28785C;" cx="392.486" cy="82.278" r="15.146"/>
	<circle style="fill:#28785C;" cx="346.71" cy="115.541" r="15.146"/>
	<circle style="fill:#28785C;" cx="434.178" cy="112.57" r="15.146"/>
	<circle style="fill:#28785C;" cx="352.568" cy="211.402" r="15.146"/>
	<circle style="fill:#28785C;" cx="69.968" cy="187.456" r="15.146"/>
</g>
<path style="fill:#46C79C;" d="M168.419,473.619c-4.381-0.564-8.405,2.552-8.963,6.946l-2.968,23.415h16.164l2.712-21.399
	C175.922,478.19,172.812,474.176,168.419,473.619z M167.412,332.443c0.922,0,1.859-0.159,2.775-0.498
	c4.154-1.534,6.28-6.144,4.745-10.298l-8.942-24.232c-1.533-4.153-6.142-6.282-10.298-4.745c-4.154,1.534-6.28,6.144-4.745,10.298
	l8.942,24.232C161.085,330.437,164.149,332.443,167.412,332.443z M209.386,452.239c-4.381-0.562-8.405,2.552-8.963,6.946
	l-5.679,44.796h16.164l5.422-42.78C216.888,456.809,213.779,452.796,209.386,452.239z M325.026,452.239
	c-4.393,0.556-7.503,4.569-6.946,8.963l5.422,42.78h16.165l-5.68-44.796C333.43,454.792,329.424,451.672,325.026,452.239z
	 M350.495,287.171c-3.53-2.675-8.558-1.983-11.233,1.545l-19.618,25.873c-2.675,3.529-1.983,8.558,1.545,11.233
	c1.449,1.098,3.149,1.628,4.837,1.628c2.423,0,4.818-1.094,6.395-3.174l19.618-25.873
	C354.716,294.876,354.024,289.847,350.495,287.171z M240.602,290.89c-4.428,0.067-7.961,3.713-7.894,8.14l0.289,18.74
	c0.068,4.386,3.643,7.895,8.015,7.895c0.042,0,0.083,0,0.125-0.001c4.428-0.067,7.961-3.713,7.894-8.14l-0.289-18.74
	C248.673,294.357,244.996,290.808,240.602,290.89z M265.981,263.498c-4.429,0-8.018,3.589-8.018,8.018v28.674
	c0,4.429,3.589,8.018,8.018,8.018s8.018-3.589,8.018-8.018v-28.674C273.998,267.088,270.408,263.498,265.981,263.498z"/>
<path d="M286.116,373.701c-4.429,0-8.018,3.589-8.018,8.018c0,3.882-3.157,7.039-7.039,7.039c-3.882,0-7.039-3.157-7.039-7.039
	c0-4.429-3.589-8.018-8.018-8.018c-4.429,0-8.018,3.589-8.018,8.018c0,3.882-3.157,7.039-7.039,7.039
	c-3.883,0-7.041-3.157-7.041-7.039c0-4.429-3.589-8.018-8.018-8.018c-4.429,0-8.018,3.589-8.018,8.018
	c0,12.724,10.353,23.074,23.076,23.074c5.755,0,11.011-2.132,15.056-5.627c4.045,3.496,9.302,5.627,15.056,5.627
	c12.723,0,23.074-10.35,23.074-23.074C294.134,377.291,290.544,373.701,286.116,373.701z M181.5,354.405
	c-8.364,0-15.146,6.782-15.146,15.146c0,8.366,6.782,15.148,15.146,15.148c8.364,0,15.146-6.782,15.146-15.148
	C196.646,361.186,189.865,354.405,181.5,354.405z M510.352,161.22c0-71.632-58.277-129.908-129.91-129.908
	c-11.779,0-23.424,1.577-34.685,4.69C321.478,12.745,289.797,0,256,0s-65.478,12.745-89.756,36.001
	c-11.261-3.113-22.906-4.69-34.685-4.69c-71.633,0-129.91,58.277-129.91,129.908c0,65.71,49.042,120.175,112.447,128.731
	c11.09,18.097,17.364,36.586,16.1,47.829l-16.173,143.399c-0.915,8.125,1.471,15.836,6.72,21.711
	c5.249,5.873,12.644,9.11,20.822,9.11h228.883c8.177,0,15.572-3.236,20.821-9.111c5.249-5.873,7.636-13.584,6.719-21.711
	L381.8,337.677c-1.212-11.252,5.063-29.701,16.104-47.725C461.308,281.395,510.352,226.93,510.352,161.22z M382.049,482.975
	c0.399,3.529-0.575,6.804-2.742,9.229c-2.165,2.425-5.314,3.761-8.863,3.761H141.562c-3.549,0-6.699-1.336-8.863-3.761
	c-2.166-2.425-3.141-5.702-2.742-9.229l16.173-143.399c1.439-12.795-3.31-30.266-12.914-48.466
	c17.374-0.215,34.166-3.794,49.649-10.448c4.555,10.233,11.298,20.276,21.557,20.276c11.798,0,20.861-13.372,29.028-43.085
	c7.419,1.301,14.955,1.967,22.55,1.967c7.594,0,15.131-0.666,22.55-1.967c8.165,29.714,17.228,43.085,29.028,43.085
	c10.257,0,17.001-10.041,21.557-20.276c15.483,6.655,32.276,10.233,49.652,10.448c-9.554,18.111-14.306,35.521-12.928,48.322
	L382.049,482.975z M197.202,273.391c6.676-3.926,13.03-8.473,18.993-13.615c-5.883,19.19-10.514,23.926-11.843,24.943
	C203.409,284.059,200.776,281.608,197.202,273.391z M295.805,259.776c5.963,5.143,12.317,9.69,18.992,13.615
	c-3.573,8.219-6.208,10.668-7.149,11.328C306.32,283.702,301.687,278.968,295.805,259.776z M380.441,275.093
	c-31.06,0-60.083-12.283-81.725-34.588c-1.535-1.581-3.621-2.434-5.756-2.434c-0.811,0-1.629,0.123-2.427,0.378
	c-11.141,3.54-22.76,5.334-34.534,5.334s-23.393-1.796-34.532-5.334c-2.896-0.923-6.066-0.123-8.181,2.057
	c-21.645,22.303-50.669,34.588-81.728,34.588c-62.79,0-113.875-51.084-113.875-113.874c0-62.791,51.084-113.873,113.875-113.873
	c11.778,0,23.396,1.794,34.532,5.334c2.9,0.92,6.067,0.123,8.183-2.059C195.917,28.319,224.94,16.036,256,16.036
	s60.083,12.283,81.726,34.588c2.118,2.182,5.282,2.979,8.183,2.059c11.136-3.542,22.754-5.334,34.532-5.334
	c62.79,0,113.875,51.082,113.875,113.873C494.316,224.009,443.231,275.093,380.441,275.093z M330.505,354.405
	c-8.366,0-15.146,6.782-15.146,15.146c0,8.366,6.78,15.148,15.146,15.148c8.364,0,15.146-6.782,15.146-15.148
	C345.652,361.186,338.87,354.405,330.505,354.405z"/>
<g>
</g>
<g>
</g>
<g>
</g>
<g>
</g>
<g>
</g>
<g>
</g>
<g>
</g>
<g>
</g>
<g>
</g>
<g>
</g>
<g>
</g>
<g>
</g>
<g>
</g>
<g>
</g>
<g>
</g>
</svg>
