<?xml version="1.0" encoding="iso-8859-1"?>
<!-- Generator: Adobe Illustrator 19.0.0, SVG Export Plug-In . SVG Version: 6.00 Build 0)  -->
<svg version="1.1" id="Layer_1" xmlns="http://www.w3.org/2000/svg" xmlns:xlink="http://www.w3.org/1999/xlink" x="0px" y="0px"
	 viewBox="0 0 511.999 511.999" style="enable-background:new 0 0 511.999 511.999;" xml:space="preserve">
<path style="fill:#6CF5C5;" d="M273.43,125.231c4.648-29.861,25.313-45.228,54.7-45.228c19.897,0,36.028-16.131,36.028-36.028
	c0-19.898-16.131-36.028-36.028-36.028c-44.929,0-72.13,41.521-72.13,115.776v10.322h16.693L273.43,125.231z"/>
<path style="fill:#46C79C;" d="M238.569,125.231c-4.648-29.861-25.313-45.228-54.7-45.228c-19.897,0-36.028-16.131-36.028-36.028
	c0-19.898,16.131-36.028,36.028-36.028c44.929,0,72.13,41.521,72.13,115.776v10.322h-16.693L238.569,125.231z"/>
<path style="fill:#FFB446;" d="M255.999,123.723c-67.06,0-121.424,54.365-121.424,121.425c0,60.227,45.662,206.185,81.996,242.558
	c10.086,10.098,24.027,16.346,39.427,16.346c15.388,0,29.321-6.238,39.405-16.323h0.001
	c36.337-36.337,82.017-182.342,82.017-242.582C377.423,178.087,323.06,123.723,255.999,123.723z"/>
<circle style="fill:#3F4963;" cx="185.215" cy="226.966" r="14.39"/>
<path style="fill:#FF6376;" d="M200.613,273.022h-30.788c-4.389,0-7.947-3.558-7.947-7.947s3.558-7.947,7.947-7.947h30.788
	c4.389,0,7.947,3.558,7.947,7.947C208.56,269.464,205.002,273.022,200.613,273.022z"/>
<circle style="fill:#3F4963;" cx="326.784" cy="226.966" r="14.39"/>
<path style="fill:#FF6376;" d="M342.179,273.022h-30.788c-4.39,0-7.947-3.558-7.947-7.947s3.557-7.947,7.947-7.947h30.788
	c4.39,0,7.947,3.558,7.947,7.947S346.569,273.022,342.179,273.022z"/>
<g>
	<path style="fill:#3F4963;" d="M241.697,260.78c-12.271,0-22.253-9.982-22.253-22.252c0-4.389,3.558-7.947,7.947-7.947
		s7.947,3.558,7.947,7.947c0,3.505,2.852,6.357,6.358,6.357s6.358-2.852,6.358-6.357c0-4.389,3.558-7.947,7.947-7.947
		c4.39,0,7.947,3.558,7.947,7.947C263.95,250.799,253.967,260.78,241.697,260.78z"/>
	<path style="fill:#3F4963;" d="M270.308,260.78c-12.27,0-22.253-9.982-22.253-22.252c0-4.389,3.558-7.947,7.947-7.947
		c4.39,0,7.947,3.558,7.947,7.947c0,3.505,2.852,6.357,6.358,6.357s6.358-2.852,6.358-6.357c0-4.389,3.557-7.947,7.947-7.947
		c4.39,0,7.947,3.558,7.947,7.947C292.56,250.799,282.578,260.78,270.308,260.78z"/>
</g>
<path style="fill:#CF9945;" d="M281.988,150.583h50.171c-7.82-6.306-16.436-11.665-25.676-15.895h-24.494
	c-4.39,0-7.947,3.558-7.947,7.947C274.041,147.025,277.599,150.583,281.988,150.583z M211.258,352.332
	c0-4.389-3.558-7.947-7.947-7.947H152.5c1.489,5.283,3.048,10.591,4.668,15.895h46.143
	C207.7,360.28,211.258,356.721,211.258,352.332z M201.381,169.014c0-4.389-3.558-7.947-7.947-7.947h-25.03
	c-4.724,4.92-9.037,10.236-12.884,15.895h37.914C197.823,176.961,201.381,173.403,201.381,169.014z M299.743,401.076
	c0,4.389,3.557,7.947,7.947,7.947h30.356c2.012-5.199,3.99-10.505,5.916-15.895H307.69
	C303.301,393.129,299.743,396.687,299.743,401.076z M239.339,450.35h-47.272c2.888,5.718,5.79,11.046,8.683,15.895h38.589
	c4.389,0,7.947-3.558,7.947-7.947C247.286,453.908,243.728,450.35,239.339,450.35z M345.226,313.126
	c0-4.389-3.557-7.947-7.947-7.947h-66.971c-4.39,0-7.947,3.558-7.947,7.947c0,4.389,3.557,7.947,7.947,7.947h66.971
	C341.668,321.073,345.226,317.515,345.226,313.126z"/>
<path d="M283.041,118.627c5.918-19.856,21.661-30.677,45.089-30.677c24.248,0,43.975-19.727,43.975-43.975S352.377,0,328.13,0
	c-25.071,0-45.692,11.67-59.633,33.747c-5.124,8.115-9.292,17.488-12.497,28.066c-3.205-10.578-7.372-19.951-12.496-28.066
	C229.561,11.67,208.941,0,183.868,0c-24.248,0-43.975,19.727-43.975,43.975s19.727,43.975,43.975,43.975
	c23.428,0,39.171,10.821,45.089,30.677c-58.396,12.469-102.329,64.457-102.329,126.521c0,29.724,10.641,80.574,27.77,132.705
	c26.01,79.162,48.213,107.123,56.55,115.47c12.029,12.044,28.028,18.676,45.051,18.676c17.008,0,33-6.624,45.026-18.651
	c8.338-8.339,30.544-36.284,56.565-115.465c17.136-52.142,27.78-103.003,27.78-132.736
	C385.371,183.084,341.439,131.096,283.041,118.627z M328.13,15.895c15.484,0,28.081,12.597,28.081,28.081
	s-12.597,28.081-28.081,28.081c-16.504,0-30.891,4.554-41.608,13.169c-9.339,7.508-15.922,18.144-19.321,31.04
	c-1.043-0.09-2.091-0.167-3.142-0.232C265.766,52.274,288.895,15.895,328.13,15.895z M225.476,85.225
	c-10.716-8.615-25.103-13.169-41.608-13.169c-15.484,0-28.081-12.597-28.081-28.081s12.597-28.081,28.081-28.081
	c39.236,0,62.364,36.38,64.069,100.14c-1.05,0.065-2.097,0.142-3.142,0.232C241.399,103.371,234.815,92.734,225.476,85.225z
	 M289.785,482.109c-9.024,9.025-21.022,13.996-33.786,13.996c-12.773,0-24.778-4.977-33.805-14.015
	c-34.389-34.427-79.672-178.627-79.672-236.942c0-62.571,50.905-113.478,113.476-113.478s113.476,50.906,113.476,113.478
	C369.476,303.497,324.183,447.712,289.785,482.109z M326.786,212.578c-7.947,0-14.39,6.443-14.39,14.39
	c0,7.948,6.443,14.391,14.39,14.391s14.39-6.443,14.39-14.391C341.176,219.02,334.733,212.578,326.786,212.578z M185.219,212.578
	c-7.947,0-14.39,6.443-14.39,14.39c0,7.948,6.443,14.391,14.39,14.391c7.947,0,14.39-6.443,14.39-14.391
	C199.609,219.02,193.167,212.578,185.219,212.578z M284.613,230.581c-4.39,0-7.947,3.558-7.947,7.947
	c0,3.505-2.852,6.357-6.358,6.357c-3.506,0-6.358-2.852-6.358-6.357c0-4.389-3.557-7.947-7.947-7.947
	c-4.389,0-7.947,3.558-7.947,7.947c0,3.505-2.852,6.357-6.358,6.357s-6.358-2.852-6.358-6.357c0-4.389-3.558-7.947-7.947-7.947
	s-7.947,3.558-7.947,7.947c0,12.27,9.983,22.252,22.253,22.252c5.446,0,10.434-1.972,14.305-5.231
	c3.871,3.259,8.86,5.231,14.305,5.231c12.27,0,22.253-9.982,22.253-22.251C292.56,234.139,289.002,230.581,284.613,230.581z"/>
<g>
</g>
<g>
</g>
<g>
</g>
<g>
</g>
<g>
</g>
<g>
</g>
<g>
</g>
<g>
</g>
<g>
</g>
<g>
</g>
<g>
</g>
<g>
</g>
<g>
</g>
<g>
</g>
<g>
</g>
</svg>
