<?xml version="1.0" encoding="iso-8859-1"?>
<!-- Generator: Adobe Illustrator 19.0.0, SVG Export Plug-In . SVG Version: 6.00 Build 0)  -->
<svg version="1.1" id="Layer_1" xmlns="http://www.w3.org/2000/svg" xmlns:xlink="http://www.w3.org/1999/xlink" x="0px" y="0px"
	 viewBox="0 0 512 512" style="enable-background:new 0 0 512 512;" xml:space="preserve">
<path style="fill:#FFD553;" d="M493.732,184.903c-5.724-19.088-17.534-20.08-24.939-16.69l-182.85,75.739
	c-8.012,3.317-13.752,2.929-17.037-0.354c-3.283-3.285-3.671-9.024-0.353-17.038l75.741-182.85
	c3.386-7.405,2.396-19.212-16.691-24.939C243.076-6.549,147.706,14.167,80.94,80.934c-96.824,96.824-96.824,253.805,0,350.629
	c96.824,96.823,253.805,96.824,350.63,0C498.337,364.797,519.051,269.426,493.732,184.903z"/>
<g>
	<circle style="fill:#3F4963;" cx="139.09" cy="267.884" r="15.148"/>
	<circle style="fill:#3F4963;" cx="372.911" cy="267.884" r="15.148"/>
</g>
<g>
	<path style="fill:#FF6376;" d="M155.295,320.517h-32.412c-4.448,0-8.052-3.604-8.052-8.052s3.604-8.052,8.052-8.052h32.412
		c4.448,0,8.052,3.604,8.052,8.052S159.743,320.517,155.295,320.517z"/>
	<path style="fill:#FF6376;" d="M389.117,320.517h-32.412c-4.448,0-8.052-3.604-8.052-8.052s3.604-8.052,8.052-8.052h32.412
		c4.448,0,8.052,3.604,8.052,8.052S393.565,320.517,389.117,320.517z"/>
</g>
<g>
	<path style="fill:#3F4963;" d="M237.032,310.049c-14.899,0-27.02-12.12-27.02-27.019c0-4.447,3.604-8.052,8.052-8.052
		s8.052,3.605,8.052,8.052c0,6.019,4.896,10.916,10.917,10.916c6.019,0,10.917-4.896,10.917-10.916c0-4.447,3.604-8.052,8.052-8.052
		c4.448,0,8.052,3.605,8.052,8.052C264.052,297.929,251.931,310.049,237.032,310.049z"/>
	<path style="fill:#3F4963;" d="M274.968,310.049c-14.899,0-27.019-12.12-27.019-27.019c0-4.447,3.604-8.052,8.052-8.052
		c4.448,0,8.052,3.605,8.052,8.052c0,6.019,4.897,10.916,10.916,10.916c6.019,0,10.917-4.896,10.917-10.916
		c0-4.447,3.604-8.052,8.052-8.052s8.052,3.605,8.052,8.052C301.988,297.929,289.867,310.049,274.968,310.049z"/>
	<path style="opacity:0.2;fill:#3F4963;enable-background:new    ;" d="M19.056,181.808C7.54,218.786,4.877,257.923,11.078,295.9
		c15.509,0.715,31.254-4.849,43.098-16.691c22.34-22.34,22.34-58.561,0.002-80.897C44.365,188.5,31.872,183.001,19.056,181.808z
		 M114.399,79.588c-6.106-6.106-13.819-9.623-21.776-10.566c-4.159,3.639-8.228,7.437-12.192,11.401
		c-10.564,10.563-19.974,21.845-28.232,33.684c1.506,6.524,4.795,12.721,9.877,17.804c14.449,14.449,37.875,14.449,52.322,0
		C128.847,117.464,128.847,94.036,114.399,79.588z M181.176,359.113c-40.663,0-73.628,32.965-73.628,73.626
		c0,8.834,1.56,17.303,4.411,25.151c30.151,21.629,64.055,35.678,99.088,42.141c25.772-11.459,43.754-37.267,43.754-67.293
		C254.801,392.078,221.837,359.113,181.176,359.113z M247.236,74.232c17.972-17.97,21.473-44.922,10.531-66.405
		c-36.982-0.302-74.014,7.62-108.129,23.764c-0.584,15.363,4.976,30.915,16.705,42.642
		C188.679,96.572,224.898,96.572,247.236,74.232z M424.743,298.585c-22.339,22.336-22.339,58.557,0.002,80.896
		c9.905,9.904,22.537,15.409,35.481,16.528c21.375-31.085,34.867-65.957,40.463-101.823
		C478.234,276.369,445.501,277.826,424.743,298.585z M441.075,178.973l-82.469,34.158c2.176,5.625,5.523,10.902,10.062,15.443
		c17.432,17.431,45.699,17.431,63.135,0C445.215,215.163,448.299,195.343,441.075,178.973z M232.693,116.985
		c-22.338,22.34-22.338,58.559,0.002,80.897c11.075,11.076,25.565,16.653,40.078,16.746l40.549-97.897
		C290.962,94.656,254.946,94.735,232.693,116.985z M334.503,450.762c-11.461,11.461-13.821,28.571-7.096,42.368
		c23.401-7.045,45.962-17.622,66.855-31.727c-1.779-3.853-4.257-7.464-7.432-10.641
		C372.378,436.314,348.953,436.314,334.503,450.762z"/>
</g>
<path d="M293.667,274.723c-4.447,0-8.052,3.604-8.052,8.052c0,6.019-4.896,10.916-10.917,10.916
	c-6.019,0-10.916-4.896-10.916-10.916c0-4.448-3.604-8.052-8.052-8.052c-4.448,0-8.052,3.604-8.052,8.052
	c0,6.019-4.897,10.916-10.917,10.916s-10.917-4.896-10.917-10.916c0-4.448-3.604-8.052-8.052-8.052
	c-4.447,0-8.052,3.604-8.052,8.052c0,14.9,12.122,27.019,27.02,27.019c7.386,0,14.086-2.981,18.969-7.8
	c4.881,4.818,11.583,7.8,18.968,7.8c14.899,0,27.02-12.119,27.02-27.019C301.719,278.327,298.115,274.723,293.667,274.723z
	 M138.822,252.48c-8.367,0-15.15,6.783-15.15,15.149c0,8.368,6.783,15.151,15.15,15.151c8.366,0,15.149-6.783,15.149-15.151
	C153.971,259.264,147.188,252.48,138.822,252.48z M372.641,252.48c-8.367,0-15.149,6.783-15.149,15.149
	c0,8.368,6.782,15.151,15.149,15.151c8.366,0,15.149-6.783,15.149-15.151C387.792,259.264,381.008,252.48,372.641,252.48z
	 M501.175,182.334c-6.481-21.612-20.24-23.946-25.856-23.946c-3.373,0-6.827,0.753-10,2.18l-182.727,75.689
	c-3.38,1.401-5.523,1.694-6.727,1.694c-0.854,0-1.388-0.154-1.536-0.3c-0.284-0.286-0.933-2.653,1.39-8.265l75.691-182.731
	c2.825-6.282,2.889-13.312,0.173-19.311c-3.463-7.647-10.845-13.212-21.942-16.541c-23.886-7.154-48.674-10.782-73.679-10.782
	c-68.368,0-132.644,26.623-180.988,74.964C26.627,123.334,0,187.618,0,255.995c0,68.375,26.627,132.657,74.976,181.007
	c48.35,48.348,112.633,74.975,181.009,74.977c0.004,0-0.003,0,0.001,0c68.371,0,132.661-26.632,181.007-74.977
	C503.665,370.331,528.259,272.748,501.175,182.334z M425.607,425.615c-45.307,45.309-105.547,70.261-169.621,70.261
	c-64.075-0.002-124.315-24.954-169.622-70.261c-45.308-45.307-70.26-105.547-70.26-169.62S41.055,131.68,86.363,86.373
	c45.301-45.301,105.533-70.249,169.6-70.249c23.439,0,46.674,3.399,69.054,10.102c6.256,1.877,10.481,4.633,11.897,7.761
	c1.118,2.47,0.345,4.894-0.215,6.118c-0.041,0.088-0.079,0.178-0.116,0.268l-75.742,182.853
	c-6.039,14.587-1.278,22.431,2.101,25.812c3.285,3.284,7.753,5.018,12.922,5.018c3.874,0,8.21-0.981,12.888-2.919l182.85-75.741
	c0.091-0.038,0.181-0.075,0.271-0.117c0.784-0.359,2.018-0.786,3.444-0.786c5.823,0,9.035,7.81,10.431,12.465
	C511.13,271.689,488.086,363.136,425.607,425.615z"/>
<g>
</g>
<g>
</g>
<g>
</g>
<g>
</g>
<g>
</g>
<g>
</g>
<g>
</g>
<g>
</g>
<g>
</g>
<g>
</g>
<g>
</g>
<g>
</g>
<g>
</g>
<g>
</g>
<g>
</g>
</svg>
