<?xml version="1.0" encoding="iso-8859-1"?>
<!-- Generator: Adobe Illustrator 19.0.0, SVG Export Plug-In . SVG Version: 6.00 Build 0)  -->
<svg version="1.1" id="Layer_1" xmlns="http://www.w3.org/2000/svg" xmlns:xlink="http://www.w3.org/1999/xlink" x="0px" y="0px"
	 viewBox="0 0 511.999 511.999" style="enable-background:new 0 0 511.999 511.999;" xml:space="preserve">
<path style="fill:#46C79C;" d="M132.452,296.998c-0.791,0-1.592-0.05-2.4-0.155c-10.158-1.312-17.331-10.611-16.018-20.771
	c8.114-62.82,38.822-120.654,86.464-162.847c48.065-42.567,109.931-66.01,174.197-66.01c13.327,0,26.716,1.008,39.799,2.995
	c10.127,1.54,17.088,10.994,15.553,21.119l-0.263,1.735c-0.298,1.968-0.913,3.877-1.818,5.651
	c-22.021,43.142-33.188,89.761-33.188,138.563c0,3.59,0.063,7.235,0.189,10.833c0.356,10.238-7.655,18.825-17.892,19.182
	c-0.219,0.008-0.439,0.013-0.656,0.013c-9.947,0-18.177-7.884-18.525-17.904c-0.141-4.026-0.211-8.104-0.211-12.123
	c0-46.285,8.963-90.83,26.681-132.764c-3.221-0.137-6.448-0.205-9.669-0.205c-55.198,0-108.328,20.131-149.603,56.686
	c-40.927,36.244-67.304,85.906-74.269,139.829C149.617,290.177,141.639,296.998,132.452,296.998z"/>
<circle style="fill:#FF6376;" cx="130.405" cy="387.001" r="117.052"/>
<circle style="fill:#3F4963;" cx="56.543" cy="367.51" r="15.016"/>
<path style="fill:#FF9596;" d="M72.604,415.229H40.476c-4.39,0-7.949-3.558-7.949-7.949c0-4.391,3.559-7.949,7.949-7.949h32.128
	c4.391,0,7.949,3.558,7.949,7.949C80.553,411.671,76.994,415.229,72.604,415.229z"/>
<circle style="fill:#3F4963;" cx="204.268" cy="367.51" r="15.016"/>
<path style="fill:#FF9596;" d="M220.332,415.229h-32.128c-4.391,0-7.949-3.558-7.949-7.949c0-4.391,3.558-7.949,7.949-7.949h32.128
	c4.391,0,7.949,3.558,7.949,7.949C228.281,411.671,224.722,415.229,220.332,415.229z"/>
<g>
	<path style="fill:#3F4963;" d="M115.477,402.455c-12.615,0-22.878-10.263-22.878-22.876c0-4.391,3.558-7.949,7.949-7.949
		c4.391,0,7.949,3.558,7.949,7.949c0,3.848,3.131,6.978,6.98,6.978c3.848,0,6.978-3.13,6.978-6.978c0-4.391,3.558-7.949,7.949-7.949
		c4.391,0,7.949,3.558,7.949,7.949C138.353,392.192,128.091,402.455,115.477,402.455z"/>
	<path style="fill:#3F4963;" d="M145.332,402.455c-12.614,0-22.876-10.263-22.876-22.876c0-4.391,3.558-7.949,7.949-7.949
		c4.391,0,7.949,3.558,7.949,7.949c0,3.848,3.13,6.978,6.978,6.978c3.848,0,6.978-3.13,6.978-6.978c0-4.391,3.558-7.949,7.949-7.949
		c4.39,0,7.949,3.558,7.949,7.949C168.208,392.192,157.946,402.455,145.332,402.455z"/>
</g>
<circle style="fill:#FF6376;" cx="381.595" cy="337.208" r="117.052"/>
<g>
	<path style="fill:#3F4963;" d="M366.666,352.668c-12.615,0-22.878-10.262-22.878-22.874c0-4.391,3.558-7.949,7.949-7.949
		s7.949,3.558,7.949,7.949c0,3.846,3.131,6.976,6.98,6.976c3.848,0,6.978-3.13,6.978-6.976c0-4.391,3.558-7.949,7.949-7.949
		c4.391,0,7.949,3.558,7.949,7.949C389.543,342.407,379.281,352.668,366.666,352.668z"/>
	<path style="fill:#3F4963;" d="M396.521,352.668c-12.614,0-22.876-10.262-22.876-22.874c0-4.391,3.558-7.949,7.949-7.949
		c4.391,0,7.949,3.558,7.949,7.949c0,3.846,3.13,6.976,6.978,6.976s6.978-3.13,6.978-6.976c0-4.391,3.558-7.949,7.949-7.949
		s7.949,3.558,7.949,7.949C419.397,342.407,409.135,352.668,396.521,352.668z"/>
</g>
<path style="fill:#FF9596;" d="M471.521,365.442h-32.119c-4.391,0-7.949-3.558-7.949-7.949s3.558-7.949,7.949-7.949h32.119
	c4.39,0,7.949,3.558,7.949,7.949C479.47,361.883,475.911,365.442,471.521,365.442z"/>
<path style="fill:#3F4963;" d="M470.473,329.059c-4.391,0-7.949-3.558-7.949-7.949c0-3.895-3.168-7.063-7.063-7.063
	s-7.063,3.168-7.063,7.063c0,4.391-3.559,7.949-7.949,7.949c-4.391,0-7.949-3.558-7.949-7.949c0-12.66,10.301-22.961,22.961-22.961
	s22.961,10.301,22.961,22.961C478.422,325.5,474.864,329.059,470.473,329.059z"/>
<path style="fill:#FF9596;" d="M323.785,365.442h-32.119c-4.391,0-7.949-3.558-7.949-7.949s3.558-7.949,7.949-7.949h32.119
	c4.391,0,7.949,3.558,7.949,7.949C331.734,361.883,328.176,365.442,323.785,365.442z"/>
<path style="fill:#3F4963;" d="M322.738,329.059c-4.391,0-7.949-3.558-7.949-7.949c0-3.895-3.168-7.063-7.063-7.063
	s-7.063,3.168-7.063,7.063c0,4.391-3.558,7.949-7.949,7.949c-4.391,0-7.949-3.558-7.949-7.949c0-12.66,10.301-22.961,22.961-22.961
	s22.961,10.301,22.961,22.961C330.687,325.5,327.128,329.059,322.738,329.059z"/>
<g>
	<path style="fill:#6CF5C5;" d="M415.843,145.32c17.26,17.26,43.672,20.533,56.225,21.069c5.43,0.232,7.291-1.679,7.061-7.061
		c-0.534-12.555-3.807-38.967-21.067-56.227c-17.26-17.26-43.672-20.535-56.223-21.067c-5.388-0.232-7.297,1.633-7.067,7.061
		C395.309,101.648,398.584,128.06,415.843,145.32z"/>
	<path style="fill:#6CF5C5;" d="M457.958,71.254c17.26-17.26,20.533-43.672,21.069-56.225c0.232-5.43-1.679-7.291-7.061-7.061
		c-12.555,0.534-38.967,3.807-56.227,21.067c-17.26,17.26-20.535,43.672-21.067,56.222c-0.232,5.388,1.633,7.297,7.061,7.067
		C414.286,91.787,440.698,88.512,457.958,71.254z"/>
</g>
<path d="M307.726,298.149c-12.66,0-22.961,10.301-22.961,22.961c0,4.391,3.558,7.949,7.949,7.949c4.391,0,7.949-3.558,7.949-7.949
	c0-3.894,3.168-7.063,7.063-7.063s7.063,3.169,7.063,7.063c0,4.391,3.558,7.949,7.949,7.949c4.39,0,7.949-3.558,7.949-7.949
	C330.687,308.449,320.386,298.149,307.726,298.149z M56.541,352.498c-8.292,0-15.016,6.724-15.016,15.016
	c0,8.295,6.724,15.018,15.016,15.018s15.016-6.724,15.016-15.018C71.557,359.222,64.833,352.498,56.541,352.498z M402.757,214.011
	c0.228-21.464,2.696-42.635,7.368-63.168c0.033,0.031,0.065,0.067,0.096,0.1c18.872,18.871,46.636,22.754,61.506,23.389
	c0.327,0.013,0.771,0.033,1.3,0.033c2.503,0,6.956-0.422,10.306-3.772c4.058-4.059,3.817-9.738,3.736-11.602
	c-0.633-14.869-4.512-42.635-23.387-61.51c-3.901-3.902-8.385-7.351-13.413-10.327c4.706-2.803,9.218-6.188,13.31-10.278
	c18.871-18.873,22.754-46.636,23.389-61.507c0.077-1.826,0.315-7.378-3.563-11.426C479.628,0,474.493,0,472.807,0
	c-0.378,0-0.773,0.008-1.177,0.026c-14.87,0.632-42.634,4.511-61.511,23.387c-5.11,5.109-9.113,10.87-12.257,16.848
	c-7.707-0.652-15.473-0.997-23.165-0.997c-66.211,0-129.948,24.153-179.468,68.01c-46.162,40.881-77.056,96.368-87.422,156.772
	C49.631,274.712,5.403,325.787,5.403,386.999c0,68.927,56.076,125,125.002,125S255.406,455.927,255.406,387
	c0-58.235-40.028-107.293-94.014-121.115c9.455-45.742,33.748-87.746,68.97-118.938c39.314-34.819,89.783-54.192,142.311-54.679
	c-15.115,39.424-22.815,81.097-22.928,124.059c-53.55,14.12-93.155,62.961-93.155,120.886c0,68.927,56.076,125.002,125.002,125.002
	s125.003-56.077,125.003-125.003C506.596,275.498,461.639,224.095,402.757,214.011z M452.441,108.724
	c15.004,15.001,18.081,38.833,18.683,49.66c-10.829-0.604-34.66-3.685-49.66-18.684c-11.275-11.276-15.814-27.542-17.632-39.521
	c7.191-0.412,16.873-1.588,27.005-4.626C439.609,98.748,446.88,103.161,452.441,108.724z M421.361,34.657
	c15.002-15.004,38.834-18.082,49.662-18.684c-0.604,10.829-3.685,34.661-18.684,49.66c-15.001,14.999-38.838,18.082-49.661,18.687
	C403.276,73.5,406.349,49.669,421.361,34.657z M239.508,387c0,60.16-48.945,109.102-109.104,109.102S21.3,447.159,21.3,387
	s48.945-109.106,109.104-109.106S239.508,326.84,239.508,387z M219.822,135.047c-37.855,33.525-63.946,78.697-74.053,127.895
	c-5.036-0.621-10.163-0.946-15.365-0.946c-2.042,0-4.072,0.054-6.09,0.152c10.504-55.066,39.172-105.524,81.455-142.971
	c46.611-41.279,106.603-64.012,168.927-64.012c5.598,0,11.239,0.209,16.865,0.576c-2.337,7.669-3.597,15.097-4.257,21.4
	c-0.82-0.327-1.697-0.528-2.602-0.565c-3.317-0.141-6.685-0.213-10.005-0.213C317.554,76.36,262.552,97.202,219.822,135.047z
	 M387.501,98.069c1.166,10.406,3.972,23.667,10.456,36.003c-6.95,25.257-10.675,51.543-11.084,78.259
	c-1.752-0.072-3.509-0.12-5.279-0.12c-5.389,0-10.7,0.343-15.911,1.008C366.149,173.351,373.477,134.688,387.501,98.069z
	 M381.594,446.317c-60.16,0-109.104-48.945-109.104-109.104s48.945-109.104,109.104-109.104s109.104,48.945,109.104,109.104
	S441.754,446.317,381.594,446.317z M204.268,382.533c8.292,0,15.016-6.724,15.016-15.018c0-8.292-6.724-15.016-15.016-15.016
	c-8.295,0-15.016,6.724-15.016,15.016C189.253,375.809,195.973,382.533,204.268,382.533z M411.448,321.844
	c-4.391,0-7.949,3.558-7.949,7.949c0,3.846-3.13,6.976-6.978,6.976c-3.848,0-6.978-3.13-6.978-6.976
	c0-4.391-3.558-7.949-7.949-7.949c-4.391,0-7.949,3.558-7.949,7.949c0,3.846-3.13,6.976-6.978,6.976c-3.849,0-6.98-3.13-6.98-6.976
	c0-4.391-3.558-7.949-7.949-7.949s-7.949,3.558-7.949,7.949c0,12.612,10.264,22.874,22.878,22.874
	c5.705,0,10.917-2.111,14.927-5.579c4.011,3.467,9.222,5.579,14.927,5.579c12.613,0,22.876-10.262,22.876-22.874
	C419.397,325.403,415.839,321.844,411.448,321.844z M122.455,379.579c0,3.848-3.13,6.978-6.978,6.978c-3.849,0-6.98-3.13-6.98-6.978
	c0-4.391-3.558-7.949-7.949-7.949c-4.391,0-7.949,3.558-7.949,7.949c0,12.615,10.264,22.876,22.878,22.876
	c5.705,0,10.917-2.113,14.927-5.579c4.011,3.466,9.222,5.579,14.927,5.579c12.614,0,22.876-10.262,22.876-22.876
	c0-4.391-3.559-7.949-7.949-7.949c-4.391,0-7.949,3.558-7.949,7.949c0,3.848-3.13,6.978-6.978,6.978
	c-3.848,0-6.978-3.13-6.978-6.978c0-4.391-3.558-7.949-7.949-7.949C126.013,371.63,122.455,375.188,122.455,379.579z
	 M455.461,298.149c-12.66,0-22.961,10.301-22.961,22.961c0,4.391,3.558,7.949,7.949,7.949c4.39,0,7.949-3.558,7.949-7.949
	c0-3.894,3.168-7.063,7.063-7.063s7.063,3.169,7.063,7.063c0,4.391,3.558,7.949,7.949,7.949c4.391,0,7.949-3.558,7.949-7.949
	C478.422,308.449,468.122,298.149,455.461,298.149z"/>
<g>
</g>
<g>
</g>
<g>
</g>
<g>
</g>
<g>
</g>
<g>
</g>
<g>
</g>
<g>
</g>
<g>
</g>
<g>
</g>
<g>
</g>
<g>
</g>
<g>
</g>
<g>
</g>
<g>
</g>
</svg>
