<?xml version="1.0" encoding="iso-8859-1"?>
<!-- Generator: Adobe Illustrator 19.0.0, SVG Export Plug-In . SVG Version: 6.00 Build 0)  -->
<svg version="1.1" id="Layer_1" xmlns="http://www.w3.org/2000/svg" xmlns:xlink="http://www.w3.org/1999/xlink" x="0px" y="0px"
	 viewBox="0 0 511.999 511.999" style="enable-background:new 0 0 511.999 511.999;" xml:space="preserve">
<path style="fill:#C3DDF7;" d="M227.15,89.363v123.836h57.698V89.363c22.096-0.456,39.87-18.498,39.87-40.702
	c0-22.492-18.233-40.725-40.724-40.725c-10.847,0-20.696,4.251-27.995,11.165c-7.299-6.914-17.147-11.165-27.995-11.165
	c-22.491,0-40.724,18.233-40.724,40.725C187.28,70.867,205.054,88.908,227.15,89.363z"/>
<path style="fill:#FDBA55;" d="M312.928,199.387c0-31.442-25.488-56.929-56.928-56.929s-56.929,25.488-56.929,56.929
	c0,74.685-66.886,79.344-66.886,180.861c0,68.38,55.433,123.814,123.814,123.814s123.814-55.434,123.814-123.814
	C379.812,278.73,312.928,274.072,312.928,199.387z"/>
<circle style="fill:#3F4963;" cx="186.193" cy="353.445" r="14.192"/>
<path style="fill:#FF6376;" d="M201.376,398.964h-30.363c-4.383,0-7.937-3.553-7.937-7.937c0-4.384,3.554-7.937,7.937-7.937h30.363
	c4.383,0,7.937,3.553,7.937,7.937C209.313,395.411,205.76,398.964,201.376,398.964z"/>
<circle style="fill:#3F4963;" cx="325.812" cy="353.445" r="14.192"/>
<path style="fill:#FF6376;" d="M340.992,398.964h-30.363c-4.383,0-7.937-3.553-7.937-7.937c0-4.384,3.554-7.937,7.937-7.937h30.363
	c4.383,0,7.937,3.553,7.937,7.937C348.929,395.411,345.376,398.964,340.992,398.964z"/>
<g>
	<path style="fill:#3F4963;" d="M241.895,386.891c-12.155,0-22.045-9.89-22.045-22.044c0-4.384,3.554-7.937,7.937-7.937
		c4.383,0,7.937,3.553,7.937,7.937c0,3.402,2.768,6.17,6.171,6.17s6.171-2.767,6.171-6.17c0-4.384,3.554-7.937,7.937-7.937
		c4.383,0,7.937,3.553,7.937,7.937C263.94,377.001,254.05,386.891,241.895,386.891z"/>
	<path style="fill:#3F4963;" d="M270.111,386.891c-12.155,0-22.045-9.89-22.045-22.044c0-4.384,3.554-7.937,7.937-7.937
		c4.383,0,7.937,3.553,7.937,7.937c0,3.402,2.768,6.17,6.171,6.17s6.171-2.767,6.171-6.17c0-4.384,3.554-7.937,7.937-7.937
		c4.383,0,7.937,3.553,7.937,7.937C292.156,377.001,282.266,386.891,270.111,386.891z"/>
</g>
<g>
	<path style="opacity:0.2;fill:#2F3953;enable-background:new    ;" d="M271.253,264.848c-3.021,0-5.908-1.735-7.235-4.666
		l-12.389-27.366c-1.808-3.993-0.036-8.696,3.957-10.503c3.994-1.812,8.697-0.037,10.505,3.957l12.389,27.366
		c1.808,3.993,0.036,8.696-3.957,10.503C273.46,264.62,272.348,264.848,271.253,264.848z"/>
	<path style="opacity:0.2;fill:#2F3953;enable-background:new    ;" d="M309.582,292.272c-3.021,0-5.908-1.735-7.235-4.665
		l-19.478-43.021c-1.808-3.993-0.036-8.697,3.957-10.505c3.993-1.811,8.696-0.037,10.505,3.956l19.478,43.021
		c1.808,3.993,0.036,8.697-3.957,10.504C311.79,292.045,310.677,292.272,309.582,292.272z"/>
</g>
<path d="M186.194,339.253c-7.838,0-14.192,6.354-14.192,14.192c0,7.84,6.354,14.194,14.192,14.194
	c7.838,0,14.192-6.354,14.192-14.194C200.387,345.607,194.033,339.253,186.194,339.253z M348.948,269.802
	c-15.069-20.669-28.085-38.517-28.085-70.415c0-22.114-11.132-41.672-28.079-53.385V96.506c22.586-4.19,39.87-24.215,39.87-47.844
	C332.654,21.831,310.825,0,283.993,0c-10.12,0-19.841,3.111-27.995,8.865C247.844,3.111,238.124,0,228.004,0
	c-26.832,0-48.66,21.831-48.66,48.662c0,23.629,17.284,43.654,39.87,47.844v49.496c-16.948,11.713-28.079,31.271-28.079,53.385
	c0,31.898-13.016,49.746-28.085,70.415c-18.187,24.942-38.801,53.214-38.801,110.448c0,72.648,59.104,131.75,131.751,131.75
	s131.751-59.103,131.751-131.75C387.749,323.016,367.136,294.744,348.948,269.802z M195.218,48.662
	c0-18.08,14.707-32.788,32.786-32.788c8.412,0,16.416,3.194,22.536,8.991c3.062,2.9,7.857,2.9,10.917,0
	c6.121-5.797,14.124-8.991,22.536-8.991c18.079,0,32.786,14.709,32.786,32.788c0,17.704-14.398,32.401-32.096,32.768
	c-4.319,0.089-7.774,3.615-7.774,7.935V138c-6.566-2.245-13.595-3.479-20.912-3.479c-7.317,0-14.346,1.234-20.912,3.479V89.365
	c0-4.32-3.455-7.846-7.774-7.935C209.616,81.064,195.218,66.366,195.218,48.662z M255.998,496.126
	c-63.895,0-115.877-51.982-115.877-115.876c0-52.06,18.176-76.99,35.753-101.097c15.306-20.99,31.133-42.697,31.133-79.766
	c0-27.013,21.977-48.991,48.991-48.991c27.014,0,48.991,21.978,48.991,48.991c0,37.068,15.827,58.776,31.133,79.766
	c17.577,24.107,35.753,49.037,35.753,101.097C371.875,444.144,319.893,496.126,255.998,496.126z M325.81,339.253
	c-7.838,0-14.192,6.354-14.192,14.192c0,7.84,6.354,14.194,14.192,14.194s14.192-6.354,14.192-14.194
	C340.002,345.607,333.648,339.253,325.81,339.253z M284.219,356.91c-4.384,0-7.937,3.553-7.937,7.937c0,3.402-2.768,6.17-6.172,6.17
	c-3.402,0-6.17-2.767-6.17-6.17c0-4.384-3.554-7.937-7.937-7.937c-4.384,0-7.937,3.553-7.937,7.937c0,3.402-2.768,6.17-6.172,6.17
	c-3.402,0-6.17-2.767-6.17-6.17c0-4.384-3.554-7.937-7.937-7.937c-4.384,0-7.937,3.553-7.937,7.937
	c0,12.155,9.889,22.044,22.044,22.044c5.363,0,10.282-1.928,14.109-5.124c3.826,3.196,8.745,5.124,14.107,5.124
	c12.155,0,22.046-9.889,22.046-22.044C292.156,360.462,288.602,356.91,284.219,356.91z"/>
<g>
</g>
<g>
</g>
<g>
</g>
<g>
</g>
<g>
</g>
<g>
</g>
<g>
</g>
<g>
</g>
<g>
</g>
<g>
</g>
<g>
</g>
<g>
</g>
<g>
</g>
<g>
</g>
<g>
</g>
</svg>
