<?xml version="1.0" encoding="iso-8859-1"?>
<!-- Generator: Adobe Illustrator 19.0.0, SVG Export Plug-In . SVG Version: 6.00 Build 0)  -->
<svg version="1.1" id="Layer_1" xmlns="http://www.w3.org/2000/svg" xmlns:xlink="http://www.w3.org/1999/xlink" x="0px" y="0px"
	 viewBox="0 0 512 512" style="enable-background:new 0 0 512 512;" xml:space="preserve">
<path style="fill:#46C79C;" d="M417.268,202.354c-5.04,0-10.08-1.924-13.927-5.77c-7.691-7.692-7.691-20.161,0-27.851l45.235-45.237
	c10.341-10.341,16.035-24.088,16.035-38.713s-5.695-28.373-16.035-38.715c-7.691-7.692-7.691-20.161,0-27.853s20.161-7.692,27.853,0
	c17.781,17.781,27.572,41.423,27.572,66.568c0,25.147-9.793,48.786-27.573,66.568l-45.233,45.233
	C427.349,200.431,422.309,202.354,417.268,202.354z"/>
<g>
	<path style="fill:#6CF5C5;" d="M420.351,119.378c-12.745-12.746-29.442-17.971-37.255-19.824c-3.379-0.802-4.295,0.151-3.501,3.502
		c1.853,7.812,7.077,24.508,19.823,37.254c12.747,12.746,29.443,17.971,37.252,19.823c3.354,0.798,4.304-0.123,3.506-3.501
		C438.321,148.818,433.097,132.123,420.351,119.378z"/>
	<path style="fill:#6CF5C5;" d="M480.55,179.575c12.746,12.745,17.97,29.442,19.824,37.254c0.802,3.38-0.151,4.296-3.502,3.501
		c-7.812-1.852-24.508-7.077-37.254-19.822c-12.746-12.747-17.97-29.443-19.823-37.253c-0.798-3.354,0.123-4.304,3.501-3.506
		C451.108,161.606,467.804,166.83,480.55,179.575z"/>
</g>
<path style="fill:#FF6376;" d="M439.981,159.948c-51.974-51.974-136.241-51.974-188.213-0.002
	C152.132,259.582,140.284,372.695,60.94,372.721c-13.551-0.007-27.105,5.159-37.446,15.499c-20.664,20.664-20.662,54.169,0,74.831
	c61.944,61.942,243.543,58.057,416.488-114.888C491.955,296.188,491.955,211.921,439.981,159.948z"/>
<circle style="fill:#3F4963;" cx="255.998" cy="243.543" r="15.107"/>
<path style="fill:#FF9596;" d="M272.16,291.552h-32.321c-4.416,0-7.997-3.58-7.997-7.997c0-4.418,3.58-7.997,7.997-7.997h32.321
	c4.416,0,7.997,3.579,7.997,7.997C280.157,287.971,276.577,291.552,272.16,291.552z"/>
<g>
	<path style="fill:#3F4963;" d="M315.291,278.7c-12.691,0-23.016-10.325-23.016-23.014c0-4.418,3.581-7.997,7.997-7.997
		c4.416,0,7.997,3.579,7.997,7.997c0,3.872,3.151,7.02,7.022,7.02c3.871,0,7.02-3.149,7.02-7.02c0-4.418,3.581-7.997,7.997-7.997
		c4.416,0,7.997,3.579,7.997,7.997C338.306,268.376,327.982,278.7,315.291,278.7z"/>
	<path style="fill:#3F4963;" d="M345.326,278.7c-12.69,0-23.014-10.325-23.014-23.014c0-4.418,3.581-7.997,7.997-7.997
		c4.416,0,7.997,3.579,7.997,7.997c0,3.872,3.15,7.02,7.02,7.02s7.02-3.149,7.02-7.02c0-4.418,3.58-7.997,7.997-7.997
		s7.997,3.579,7.997,7.997C368.34,268.376,358.016,278.7,345.326,278.7z"/>
</g>
<path style="fill:#FF9596;" d="M420.77,291.552h-32.313c-4.416,0-7.997-3.58-7.997-7.997c0-4.418,3.581-7.997,7.997-7.997h32.313
	c4.416,0,7.997,3.579,7.997,7.997C428.767,287.971,425.186,291.552,420.77,291.552z"/>
<path style="fill:#3F4963;" d="M419.716,254.948c-4.416,0-7.997-3.579-7.997-7.997c0-3.919-3.187-7.106-7.106-7.106
	s-7.106,3.187-7.106,7.106c0,4.418-3.58,7.997-7.997,7.997s-7.997-3.579-7.997-7.997c0-12.736,10.362-23.099,23.099-23.099
	c12.738,0,23.099,10.363,23.099,23.099C427.713,251.369,424.133,254.948,419.716,254.948z"/>
<path d="M256,228.442c-8.342,0-15.107,6.764-15.107,15.107c0,8.345,6.764,15.109,15.107,15.109s15.107-6.764,15.107-15.109
	C271.107,235.206,264.342,228.442,256,228.442z M486.203,173.921c-3.68-3.68-7.63-6.778-11.624-9.409l7.505-7.505
	C501.376,137.714,512,112.065,512,84.785c0-27.281-10.624-52.93-29.916-72.222c-5.229-5.229-12.184-8.11-19.58-8.11
	c-7.398,0-14.351,2.88-19.581,8.11c-10.797,10.798-10.797,28.367-0.001,39.164c8.83,8.83,13.694,20.569,13.694,33.058
	c0,12.487-4.864,24.229-13.694,33.058l-7.505,7.508c-2.63-3.994-5.729-7.945-9.411-11.626c-13.924-13.926-31.704-19.73-41.064-21.95
	c-4.556-1.083-8.194-0.302-10.812,2.316c-2.618,2.618-3.397,6.254-2.317,10.813c0.635,2.676,1.71,6.583,3.382,11.113
	c-9.537-2.006-19.349-3.044-29.324-3.044c-37.684,0-73.111,14.676-99.759,41.322c-18.731,18.732-36.038,39.541-52.908,63.617
	c-14.65,20.906-27.05,41.534-37.99,59.736c-30.386,50.545-52.339,87.066-94.303,87.079c-16.271,0-31.568,6.337-43.073,17.841
	C6.335,394.07,0,409.367,0,425.636c0,16.271,6.335,31.567,17.838,43.071c25.043,25.04,65.999,38.835,115.325,38.84
	c0.012,0,0.01,0,0.022,0c100.868,0,214.757-56.037,312.45-153.729c26.647-26.648,41.323-62.076,41.323-99.762
	c0-9.975-1.039-19.789-3.044-29.324c4.527,1.672,8.434,2.747,11.109,3.38c1.327,0.317,2.577,0.472,3.746,0.472
	c2.845,0,5.213-0.931,7.068-2.786c2.618-2.618,3.397-6.256,2.316-10.813C505.933,205.626,500.129,187.845,486.203,173.921z
	 M454.232,129.153c11.85-11.851,18.377-27.609,18.377-44.368c0-16.761-6.527-32.517-18.377-44.368c-4.56-4.56-4.56-11.983,0-16.544
	c2.209-2.209,5.147-3.426,8.272-3.426c3.124,0,6.062,1.217,8.272,3.426c16.269,16.271,25.23,37.902,25.23,60.912
	s-8.961,44.641-25.231,60.912l-11.016,11.017c-4.642-1.918-8.908-3.262-12.371-4.175c-0.912-3.461-2.256-7.726-4.173-12.369
	L454.232,129.153z M414.697,125.034c3.418,3.417,6.222,7.197,8.53,10.988c-8.726-5.744-18.021-10.464-27.739-14.109
	c-2.382-4.18-4.171-8.316-5.484-11.941C397.362,112.643,406.958,117.293,414.697,125.034z M434.327,342.507
	c-50.753,50.754-104.842,89.522-160.766,115.228c-48.129,22.123-96.666,33.816-140.375,33.816h-0.02
	c-44.402-0.004-82.314-12.454-104.017-34.155c-8.483-8.482-13.156-19.762-13.156-31.761c0-11.998,4.672-23.276,13.155-31.761
	c8.484-8.484,19.763-13.158,31.794-13.158c50.981-0.015,76.134-41.859,107.98-94.835c22.452-37.348,47.9-79.681,88.499-120.281
	c23.625-23.626,55.037-36.638,88.449-36.638c33.414,0,64.827,13.012,88.454,36.64c23.627,23.626,36.64,55.039,36.64,88.451
	C470.965,287.468,457.954,318.88,434.327,342.507z M478.017,204.438c-3.643-9.717-8.367-19.011-14.11-27.738
	c3.789,2.31,7.572,5.113,10.989,8.53c7.739,7.737,12.39,17.333,15.061,24.69C486.33,208.61,482.196,206.822,478.017,204.438z
	 M360.343,247.689c-4.418,0-7.997,3.579-7.997,7.997c0,3.872-3.149,7.02-7.02,7.02c-3.872,0-7.02-3.149-7.02-7.02
	c0-4.418-3.579-7.997-7.997-7.997s-7.997,3.579-7.997,7.997c0,3.872-3.149,7.02-7.02,7.02s-7.022-3.149-7.022-7.02
	c0-4.418-3.579-7.997-7.997-7.997s-7.997,3.579-7.997,7.997c0,12.691,10.326,23.014,23.016,23.014c5.74,0,10.981-2.126,15.017-5.613
	c4.036,3.487,9.277,5.613,15.017,5.613c12.69,0,23.014-10.324,23.014-23.014C368.34,251.268,364.76,247.689,360.343,247.689z
	 M404.614,223.852c-12.736,0-23.099,10.363-23.099,23.099c0,4.418,3.579,7.997,7.997,7.997s7.997-3.579,7.997-7.997
	c0-3.917,3.187-7.106,7.106-7.106s7.106,3.188,7.106,7.106c0,4.418,3.579,7.997,7.997,7.997s7.997-3.579,7.997-7.997
	C427.713,234.215,417.35,223.852,404.614,223.852z"/>
<g>
</g>
<g>
</g>
<g>
</g>
<g>
</g>
<g>
</g>
<g>
</g>
<g>
</g>
<g>
</g>
<g>
</g>
<g>
</g>
<g>
</g>
<g>
</g>
<g>
</g>
<g>
</g>
<g>
</g>
</svg>
