<?xml version="1.0" encoding="iso-8859-1"?>
<!-- Generator: Adobe Illustrator 19.0.0, SVG Export Plug-In . SVG Version: 6.00 Build 0)  -->
<svg version="1.1" id="Layer_1" xmlns="http://www.w3.org/2000/svg" xmlns:xlink="http://www.w3.org/1999/xlink" x="0px" y="0px"
	 viewBox="0 0 512.001 512.001" style="enable-background:new 0 0 512.001 512.001;" xml:space="preserve">
<path style="fill:#9090B5;" d="M390.301,492.839c0,6.117-5.004,11.12-11.12,11.12H132.821c-6.115,0-11.12-5.003-11.12-11.12v-42.194
	c0-6.115,5.005-11.12,11.12-11.12h246.361c6.116,0,11.12,5.005,11.12,11.12V492.839z"/>
<g style="opacity:0.2;">
	<rect x="247.964" y="466.217" style="fill:#2F3953;" width="16.083" height="37.741"/>
	<rect x="197.175" y="466.217" style="fill:#2F3953;" width="16.083" height="37.741"/>
	<rect x="146.396" y="466.217" style="fill:#2F3953;" width="16.083" height="37.741"/>
	<rect x="298.743" y="466.217" style="fill:#2F3953;" width="16.083" height="37.741"/>
	<rect x="349.521" y="466.217" style="fill:#2F3953;" width="16.083" height="37.741"/>
</g>
<path style="fill:#866539;" d="M403.053,177.976V20.794c0-7.015-5.738-12.754-12.751-12.754H121.701
	c-7.013,0-12.753,5.737-12.753,12.754v283.995L403.053,177.976z"/>
<path style="fill:#FF6376;" d="M108.948,304.789V453.46c0,7.013,5.739,12.754,12.753,12.754h268.601
	c7.014,0,12.751-5.74,12.751-12.754V177.976L108.948,304.789z"/>
<circle style="fill:#3F4963;" cx="181.275" cy="365.71" r="15.191"/>
<path style="fill:#FF9596;" d="M197.529,413.976h-32.501c-4.441,0-8.041-3.599-8.041-8.041s3.6-8.041,8.041-8.041h32.501
	c4.442,0,8.041,3.599,8.041,8.041S201.971,413.976,197.529,413.976z"/>
<circle style="fill:#3F4963;" cx="330.726" cy="365.71" r="15.191"/>
<path style="fill:#FF9596;" d="M346.973,413.976h-32.501c-4.442,0-8.041-3.599-8.041-8.041s3.599-8.041,8.041-8.041h32.501
	c4.441,0,8.041,3.599,8.041,8.041S351.415,413.976,346.973,413.976z"/>
<g>
	<path style="fill:#3F4963;" d="M240.901,401.054c-12.761,0-23.144-10.382-23.144-23.142c0-4.442,3.599-8.041,8.041-8.041
		c4.442,0,8.041,3.599,8.041,8.041c0,3.893,3.167,7.059,7.061,7.059c3.893,0,7.059-3.166,7.059-7.059
		c0-4.442,3.599-8.041,8.041-8.041c4.442,0,8.041,3.599,8.041,8.041C264.043,390.672,253.661,401.054,240.901,401.054z"/>
	<path style="fill:#3F4963;" d="M271.102,401.054c-12.76,0-23.142-10.382-23.142-23.142c0-4.442,3.599-8.041,8.041-8.041
		c4.442,0,8.041,3.599,8.041,8.041c0,3.893,3.166,7.059,7.059,7.059s7.059-3.166,7.059-7.059c0-4.442,3.599-8.041,8.041-8.041
		s8.041,3.599,8.041,8.041C294.244,390.672,283.862,401.054,271.102,401.054z"/>
</g>
<path style="fill:#FFD553;" d="M186.726,271.251v21.039c0,8.766,7.174,15.938,15.941,15.938h106.672
	c8.766,0,15.94-7.172,15.94-15.938v-80.781L186.726,271.251z"/>
<path style="fill:#6CF5C5;" d="M357.158,300.332c-4.442,0-8.041-3.6-8.041-8.041v-80.781c0-4.442,3.599-8.041,8.041-8.041
	c4.441,0,8.041,3.599,8.041,8.041v80.782C365.2,296.733,361.601,300.332,357.158,300.332z"/>
<g style="opacity:0.3;">
	<path style="fill:#3F4963;" d="M368.256,53.523c0-7.015-5.739-12.754-12.754-12.754h-66.83c-7.012,0-12.753,5.738-12.753,12.754
		v55.211c0,7.011,5.74,12.751,12.753,12.751h66.83c7.014,0,12.754-5.74,12.754-12.751V53.523z"/>
	<path style="fill:#3F4963;" d="M143.746,53.523c0-7.015,5.739-12.754,12.754-12.754h66.83c7.012,0,12.753,5.738,12.753,12.754
		v55.211c0,7.011-5.74,12.751-12.753,12.751H156.5c-7.014,0-12.754-5.74-12.754-12.751L143.746,53.523L143.746,53.523z"/>
	<path style="fill:#3F4963;" d="M355.502,153.027h-66.83c-7.012,0-12.753,5.74-12.753,12.754v55.211
		c0,3.931,1.807,7.461,4.628,9.805l87.708-37.817v-27.198C368.256,158.767,362.516,153.027,355.502,153.027z"/>
	<path style="fill:#3F4963;" d="M143.746,165.78c0-7.013,5.739-12.754,12.754-12.754h66.83c7.012,0,12.753,5.74,12.753,12.754
		v55.211c0,7.013-5.74,12.754-12.753,12.754H156.5c-7.014,0-12.754-5.74-12.754-12.754L143.746,165.78L143.746,165.78z"/>
</g>
<path style="fill:#C3DDF7;" d="M94.833,327.567c-7.265,0-14.168-4.284-17.155-11.405c-3.976-9.472,0.478-20.371,9.949-24.346
	l322.35-135.306c9.476-3.979,20.37,0.479,24.345,9.949c3.976,9.47-0.478,20.369-9.949,24.344l-322.35,135.308
	C99.672,327.097,97.233,327.567,94.833,327.567z"/>
<path d="M156.5,129.527h66.83c11.465,0,20.794-9.327,20.794-20.793V53.523c0-11.465-9.328-20.794-20.794-20.794H156.5
	c-11.466,0-20.795,9.329-20.795,20.794v55.211C135.705,120.199,145.033,129.527,156.5,129.527z M151.787,53.523
	c0-2.553,2.158-4.712,4.712-4.712h66.83c2.554,0,4.711,2.159,4.711,4.712v55.211c0,2.553-2.157,4.71-4.711,4.71H156.5
	c-2.554,0-4.712-2.157-4.712-4.71L151.787,53.523L151.787,53.523z M288.672,129.527h66.83c11.466,0,20.795-9.327,20.795-20.793
	V53.523c0-11.465-9.328-20.794-20.795-20.794h-66.83c-11.465,0-20.794,9.329-20.794,20.794v55.211
	C267.879,120.199,277.207,129.527,288.672,129.527z M283.962,53.523c0-2.553,2.157-4.712,4.711-4.712h66.83
	c2.554,0,4.712,2.159,4.712,4.712v55.211c0,2.553-2.158,4.71-4.712,4.71h-66.83c-2.554,0-4.711-2.157-4.711-4.71V53.523z
	 M181.279,350.518c-8.389,0-15.191,6.802-15.191,15.191c0,8.391,6.802,15.193,15.191,15.193c8.389,0,15.191-6.802,15.191-15.193
	C196.47,357.32,189.668,350.518,181.279,350.518z M286.203,369.872c-4.442,0-8.041,3.599-8.041,8.041
	c0,3.893-3.166,7.059-7.059,7.059s-7.059-3.166-7.059-7.059c0-4.442-3.599-8.041-8.041-8.041c-4.442,0-8.041,3.599-8.041,8.041
	c0,3.893-3.166,7.059-7.059,7.059c-3.894,0-7.061-3.166-7.061-7.059c0-4.442-3.599-8.041-8.041-8.041
	c-4.442,0-8.041,3.599-8.041,8.041c0,12.759,10.383,23.142,23.144,23.142c5.772,0,11.043-2.138,15.101-5.646
	c4.057,3.507,9.329,5.646,15.101,5.646c12.76,0,23.142-10.383,23.142-23.142C294.244,373.471,290.644,369.872,286.203,369.872z
	 M441.739,163.347c-4.165-9.922-13.809-16.334-24.567-16.334c-2.06,0-4.09,0.243-6.077,0.712V20.795
	C411.095,9.33,401.767,0,390.302,0H121.701c-11.465,0-20.794,9.329-20.794,20.795v256.726L84.516,284.4
	c-6.561,2.753-11.657,7.899-14.349,14.485c-2.692,6.586-2.658,13.827,0.096,20.389c4.163,9.922,13.808,16.334,24.57,16.334
	c2.058,0,4.087-0.243,6.074-0.712V453.46c0,8.617,5.269,16.024,12.753,19.174v20.206c0,10.566,8.596,19.161,19.161,19.161h246.361
	c10.566,0,19.161-8.595,19.161-19.161v-20.206c7.483-3.15,12.751-10.557,12.751-19.174V205.099l16.392-6.881
	c6.561-2.753,11.657-7.897,14.349-14.485C444.527,177.147,444.492,169.908,441.739,163.347z M116.99,20.795
	c0-2.553,2.157-4.712,4.711-4.712h268.601c2.554,0,4.71,2.159,4.71,4.712v133.278l-19.064,8.002
	c-1.755-9.7-10.246-17.088-20.444-17.088h-66.83c-11.465,0-20.794,9.329-20.794,20.795v41.656l-23.755,9.97v-51.626
	c0-11.465-9.328-20.795-20.794-20.795H156.5c-11.466,0-20.795,9.329-20.795,20.795v55.211c0,11.467,9.328,20.795,20.795,20.795
	h29.542l-69.051,28.984V20.795H116.99z M360.214,165.78v2.898l-76.253,32.007V165.78c0-2.553,2.157-4.712,4.711-4.712h66.83
	C358.056,161.068,360.214,163.227,360.214,165.78z M228.041,165.78v55.211c0,2.555-2.157,4.712-4.711,4.712H156.5
	c-2.554,0-4.712-2.157-4.712-4.712V165.78c0-2.553,2.158-4.712,4.712-4.712h66.83C225.884,161.068,228.041,163.227,228.041,165.78z
	 M382.259,492.839c0,1.669-1.41,3.078-3.078,3.078H132.821c-1.669,0-3.078-1.409-3.078-3.078v-18.585H382.26v18.585H382.259z
	 M395.012,453.46c0,2.555-2.157,4.712-4.71,4.712H121.701c-2.554,0-4.711-2.157-4.711-4.712V328.549l63.676-26.727
	c3.694,8.494,12.164,14.45,22.001,14.45h106.672c13.223,0,23.981-10.757,23.981-23.979v-54.547l61.69-25.893V453.46H395.012z
	 M195.501,295.593l121.738-51.098v47.796c0,4.356-3.544,7.897-7.899,7.897H202.668C199.492,300.187,196.755,298.301,195.501,295.593
	z M426.948,177.649c-1.067,2.61-3.086,4.647-5.687,5.739L98.914,318.695c-1.313,0.551-2.686,0.829-4.081,0.829
	c-4.266,0-8.09-2.54-9.741-6.475c-1.091-2.601-1.104-5.47-0.038-8.081c1.066-2.61,3.085-4.647,5.685-5.738l322.351-135.306
	c1.31-0.551,2.683-0.829,4.081-0.829c4.264,0,8.086,2.542,9.738,6.477C428,172.171,428.014,175.04,426.948,177.649z
	 M315.532,365.708c0,8.391,6.8,15.193,15.191,15.193c8.389,0,15.191-6.802,15.191-15.193c0-8.389-6.802-15.191-15.191-15.191
	C322.332,350.518,315.532,357.32,315.532,365.708z"/>
<g>
</g>
<g>
</g>
<g>
</g>
<g>
</g>
<g>
</g>
<g>
</g>
<g>
</g>
<g>
</g>
<g>
</g>
<g>
</g>
<g>
</g>
<g>
</g>
<g>
</g>
<g>
</g>
<g>
</g>
</svg>
