<?xml version="1.0" encoding="iso-8859-1"?>
<!-- Generator: Adobe Illustrator 19.0.0, SVG Export Plug-In . SVG Version: 6.00 Build 0)  -->
<svg version="1.1" id="Layer_1" xmlns="http://www.w3.org/2000/svg" xmlns:xlink="http://www.w3.org/1999/xlink" x="0px" y="0px"
	 viewBox="0 0 511.999 511.999" style="enable-background:new 0 0 511.999 511.999;" xml:space="preserve">
<path style="fill:#46C79C;" d="M315.03,193.199c-0.839,0-1.688-0.061-2.542-0.186c-9.501-1.391-16.074-10.223-14.682-19.725
	L319.85,22.863c1.392-9.5,10.224-16.068,19.724-14.684c9.501,1.394,16.074,10.225,14.683,19.725l-22.045,150.428
	C330.945,186.977,323.517,193.199,315.03,193.199z"/>
<path style="fill:#C3DDF7;" d="M418.827,176.85c1.001-7.584-4.439-13.79-12.089-13.79H105.26c-7.65,0-13.091,6.205-12.089,13.79
	l41.36,313.366c1,7.584,8.08,13.788,15.73,13.788h211.478c7.65,0,14.728-6.203,15.729-13.788L418.827,176.85z"/>
<g>
	<path style="fill:#3F4963;" d="M424.638,142.78h-31.7c0-17.924-14.53-32.455-32.454-32.455H151.515
		c-17.925,0-32.454,14.531-32.454,32.455H87.359c-7.65,0-13.91,6.26-13.91,13.911v38.243c0,7.649,6.26,13.909,13.91,13.909h337.279
		c7.65,0,13.91-6.26,13.91-13.909V156.69C438.548,149.039,432.288,142.78,424.638,142.78z"/>
	<path style="fill:#3F4963;" d="M241.605,284.484c-12.347,0-22.39-10.045-22.39-22.39c0-4.417,3.58-7.996,7.996-7.996
		c4.416,0,7.996,3.579,7.996,7.996c0,3.528,2.869,6.397,6.397,6.397s6.397-2.869,6.397-6.397c0-4.417,3.58-7.996,7.996-7.996
		s7.996,3.579,7.996,7.996C263.995,274.439,253.952,284.484,241.605,284.484z"/>
	<path style="fill:#3F4963;" d="M270.392,284.484c-12.347,0-22.39-10.045-22.39-22.39c0-4.417,3.58-7.996,7.996-7.996
		s7.996,3.579,7.996,7.996c0,3.528,2.869,6.397,6.397,6.397c3.528,0,6.397-2.869,6.397-6.397c0-4.417,3.58-7.996,7.996-7.996
		s7.996,3.579,7.996,7.996C292.783,274.439,282.739,284.484,270.392,284.484z"/>
</g>
<path style="fill:#FF9596;" d="M342.708,296.801H311.73c-4.416,0-7.996-3.579-7.996-7.996s3.58-7.996,7.996-7.996h30.978
	c4.416,0,7.996,3.579,7.996,7.996C350.705,293.221,347.126,296.801,342.708,296.801z"/>
<path style="fill:#3F4963;" d="M341.699,261.711c-4.416,0-7.996-3.579-7.996-7.996c0-3.575-2.909-6.482-6.482-6.482
	s-6.482,2.908-6.482,6.482c0,4.417-3.58,7.996-7.996,7.996s-7.996-3.579-7.996-7.996c0-12.393,10.083-22.475,22.475-22.475
	c12.393,0,22.475,10.082,22.475,22.475C349.695,258.13,346.115,261.711,341.699,261.711z"/>
<path style="fill:#FF9596;" d="M200.268,296.801h-30.978c-4.416,0-7.996-3.579-7.996-7.996s3.58-7.996,7.996-7.996h30.978
	c4.416,0,7.996,3.579,7.996,7.996C208.264,293.221,204.684,296.801,200.268,296.801z"/>
<path style="fill:#3F4963;" d="M199.258,261.711c-4.416,0-7.996-3.579-7.996-7.996c0-3.575-2.909-6.482-6.482-6.482
	c-3.575,0-6.482,2.908-6.482,6.482c0,4.417-3.58,7.996-7.996,7.996c-4.416,0-7.996-3.579-7.996-7.996
	c0-12.393,10.083-22.475,22.475-22.475c12.392,0,22.475,10.082,22.475,22.475C207.254,258.13,203.674,261.711,199.258,261.711z"/>
<path style="fill:#866539;" d="M109.768,319.618c-5.864,0-10.034,4.756-9.266,10.57l14.753,111.778
	c0.768,5.814,6.194,10.57,12.058,10.57h257.371c5.864,0,11.29-4.756,12.058-10.57l14.753-111.778
	c0.768-5.814-3.402-10.57-9.266-10.57H109.768z"/>
<circle style="fill:#FFFFFF;" cx="255.993" cy="386.081" r="54.243"/>
<path style="fill:#866539;" d="M263.192,358.355c-3.975,0-7.197,3.223-7.197,7.197c0-3.974-3.222-7.197-7.197-7.197
	c-6.127,0-16.256,13.861-16.256,30.387s7.189,22.923,16.256,22.923c3.975,0,7.197-3.222,7.197-7.197
	c0,3.975,3.222,7.197,7.197,7.197c9.066,0,16.256-6.397,16.256-22.923S269.319,358.355,263.192,358.355z"/>
<path d="M312.741,261.71c4.416,0,7.996-3.579,7.996-7.997c0-3.574,2.909-6.482,6.482-6.482c3.575,0,6.482,2.91,6.482,6.482
	c0,4.417,3.579,7.997,7.996,7.997c4.417,0,7.996-3.579,7.996-7.997c0-12.392-10.083-22.475-22.475-22.475
	s-22.475,10.083-22.475,22.475C304.744,258.129,308.324,261.71,312.741,261.71z M424.638,134.782h-24.5
	c-3.723-18.488-20.087-32.454-39.654-32.454h-9.051l10.736-73.264c2.029-13.848-7.586-26.766-21.44-28.798
	c-13.841-2.012-26.762,7.599-28.789,21.436l-11.816,80.625H151.515c-19.568,0-35.931,13.967-39.654,32.454H87.359
	c-12.079,0-21.906,9.829-21.906,21.907v38.243c0,12.078,9.827,21.905,21.906,21.905h3.023l12.683,96.095
	c-2.462,0.994-4.676,2.515-6.432,4.519c-3.248,3.705-4.728,8.73-4.061,13.784l14.753,111.778c1.08,8.18,7.351,14.866,15.138,16.882
	l4.14,31.368c1.533,11.628,11.924,20.736,23.657,20.736h211.479c11.73,0,22.121-9.109,23.658-20.736l4.14-31.37
	c7.784-2.018,14.05-8.704,15.129-16.88l14.753-111.778c0.666-5.054-0.814-10.079-4.061-13.784c-1.755-2.001-3.967-3.524-6.426-4.516
	l12.685-96.097h3.023c12.079,0,21.906-9.827,21.906-21.905v-38.243C446.544,144.61,436.717,134.782,424.638,134.782z
	 M327.762,24.022c0.75-5.121,5.524-8.682,10.651-7.929c5.124,0.75,8.681,5.529,7.93,10.651l-11.076,75.584h-18.982L327.762,24.022z
	 M151.515,118.32h208.968c10.685,0,19.788,6.893,23.109,16.461H128.406C131.728,125.213,140.829,118.32,151.515,118.32z
	 M127.311,444.539c-1.843,0-3.888-1.793-4.129-3.62l-14.753-111.778c-0.046-0.35-0.044-0.835,0.231-1.147
	c0.276-0.315,0.755-0.381,1.108-0.381h124.866c-23.83,8.733-40.878,31.645-40.878,58.462c0,26.819,17.049,49.731,40.878,58.464
	L127.311,444.539L127.311,444.539z M255.995,339.829c25.501,0,46.247,20.747,46.247,46.246c0,25.501-20.746,46.248-46.247,46.248
	c-25.5,0-46.246-20.747-46.246-46.248C209.748,360.576,230.494,339.829,255.995,339.829z M369.54,489.169
	c-0.472,3.577-4.192,6.836-7.801,6.836H150.26c-3.611,0-7.329-3.259-7.8-6.836l-3.78-28.637h234.64L369.54,489.169z
	 M403.564,329.142L388.811,440.92c-0.241,1.826-2.287,3.62-4.129,3.62H277.358c23.828-8.733,40.878-31.645,40.878-58.464
	c0-26.817-17.048-49.729-40.877-58.462h124.866c0.353,0,0.832,0.067,1.108,0.381C403.608,328.307,403.61,328.793,403.564,329.142z
	 M392.974,311.621H119.025l-12.51-94.783h298.968L392.974,311.621z M430.551,194.933c0,3.262-2.653,5.912-5.913,5.912H87.359
	c-3.26,0-5.913-2.651-5.913-5.912v-38.243c0-3.262,2.653-5.914,5.913-5.914h337.279c3.26,0,5.913,2.653,5.913,5.914V194.933z
	 M241.605,284.483c5.479,0,10.498-1.984,14.394-5.265c3.896,3.28,8.914,5.265,14.394,5.265c12.347,0,22.39-10.044,22.39-22.39
	c0-4.417-3.579-7.996-7.996-7.996s-7.996,3.579-7.996,7.996c0,3.528-2.869,6.397-6.397,6.397s-6.397-2.869-6.397-6.397
	c0-4.417-3.579-7.996-7.996-7.996c-4.417,0-7.996,3.579-7.996,7.996c0,3.528-2.869,6.397-6.397,6.397s-6.397-2.869-6.397-6.397
	c0-4.417-3.579-7.996-7.996-7.996s-7.996,3.579-7.996,7.996C219.215,274.439,229.259,284.483,241.605,284.483z M170.299,261.71
	c4.417,0,7.996-3.579,7.996-7.997c0-3.574,2.909-6.482,6.482-6.482s6.482,2.91,6.482,6.482c0,4.417,3.579,7.997,7.996,7.997
	s7.996-3.579,7.996-7.997c0-12.392-10.083-22.475-22.475-22.475c-12.392,0-22.475,10.083-22.475,22.475
	C162.302,258.129,165.883,261.71,170.299,261.71z"/>
<g>
</g>
<g>
</g>
<g>
</g>
<g>
</g>
<g>
</g>
<g>
</g>
<g>
</g>
<g>
</g>
<g>
</g>
<g>
</g>
<g>
</g>
<g>
</g>
<g>
</g>
<g>
</g>
<g>
</g>
</svg>
