<?xml version="1.0" encoding="iso-8859-1"?>
<!-- Generator: Adobe Illustrator 19.0.0, SVG Export Plug-In . SVG Version: 6.00 Build 0)  -->
<svg version="1.1" id="Layer_1" xmlns="http://www.w3.org/2000/svg" xmlns:xlink="http://www.w3.org/1999/xlink" x="0px" y="0px"
	 viewBox="0 0 512 512" style="enable-background:new 0 0 512 512;" xml:space="preserve">
<path style="fill:#FDBA55;" d="M494.064,212.468c-3.864,0.538-7.805,0.827-11.816,0.827c-47.511,0-86.024-38.514-86.024-86.023
	c0-4.326,0.321-8.576,0.939-12.73c1.163-7.835,1.675-8.107-4.836-13.327c-19.592-15.707-32.316-39.627-32.929-66.546
	c-0.061-2.62,0.385-3.7-2.394-4.959C326.196,15.777,292.007,8.005,255.997,8.005c-135.513,0-245.368,109.857-245.368,245.371
	s109.855,245.37,245.368,245.37c135.518,0,245.372-109.856,245.372-245.37c0-13.133-1.046-26.022-3.034-38.596
	C497.968,212.452,496.443,212.137,494.064,212.468z"/>
<circle style="fill:#3F4963;" cx="185.047" cy="224.164" r="14.494"/>
<path style="fill:#FF6376;" d="M200.557,270.55h-31.01c-4.422,0-8.005-3.584-8.005-8.005c0-4.421,3.583-8.005,8.005-8.005h31.01
	c4.422,0,8.005,3.584,8.005,8.005C208.562,266.966,204.979,270.55,200.557,270.55z"/>
<circle style="fill:#3F4963;" cx="327.638" cy="224.164" r="14.494"/>
<path style="fill:#FF6376;" d="M343.146,270.55h-31.01c-4.422,0-8.005-3.584-8.005-8.005c0-4.421,3.583-8.005,8.005-8.005h31.01
	c4.422,0,8.005,3.584,8.005,8.005C351.15,266.966,347.566,270.55,343.146,270.55z"/>
<g>
	<path style="fill:#3F4963;" d="M241.938,258.22c-12.358,0-22.413-10.054-22.413-22.412c0-4.421,3.583-8.005,8.005-8.005
		s8.005,3.584,8.005,8.005c0,3.531,2.872,6.403,6.404,6.403c3.532,0,6.404-2.872,6.404-6.403c0-4.421,3.583-8.005,8.005-8.005
		s8.005,3.584,8.005,8.005C264.352,248.167,254.297,258.22,241.938,258.22z"/>
	<path style="fill:#3F4963;" d="M270.755,258.22c-12.358,0-22.413-10.054-22.413-22.412c0-4.421,3.583-8.005,8.005-8.005
		s8.005,3.584,8.005,8.005c0,3.531,2.872,6.403,6.404,6.403c3.532,0,6.404-2.872,6.404-6.403c0-4.421,3.583-8.005,8.005-8.005
		s8.005,3.584,8.005,8.005C293.169,248.167,283.114,258.22,270.755,258.22z"/>
</g>
<g>
	<path style="fill:#866539;" d="M164.24,154.014c23.964-23.961,23.964-62.813,0-86.773c-23.962-23.963-58.565-18.852-82.525,5.111
		c-23.965,23.962-28.21,57.701-4.248,81.663C101.428,177.977,140.281,177.977,164.24,154.014z"/>
	<path style="fill:#866539;" d="M131.682,389.707c23.964-23.964,23.964-62.814,0-86.775c-23.961-23.964-62.811-23.963-86.774,0
		c-23.961,23.962-20.868,59.717,3.095,83.681C71.965,410.573,107.722,413.668,131.682,389.707z"/>
	<circle style="fill:#866539;" cx="362.997" cy="332.623" r="24.901"/>
	<circle style="fill:#866539;" cx="241.934" cy="130.786" r="24.902"/>
	<circle style="fill:#866539;" cx="295.064" cy="34.463" r="24.902"/>
	<circle style="fill:#866539;" cx="399.168" cy="424.73" r="24.9"/>
	<circle style="fill:#866539;" cx="200.715" cy="361.013" r="24.9"/>
	<circle style="fill:#866539;" cx="149.656" cy="449.63" r="24.902"/>
	<path style="fill:#866539;" d="M111.624,224.5c0-13.752-11.148-24.9-24.899-24.9c-13.756,0-24.904,11.147-24.904,24.9
		c0,13.753,11.148,24.902,24.904,24.902C100.476,249.403,111.624,238.254,111.624,224.5z"/>
	<path style="fill:#866539;" d="M350.495,436.713c-5.885-33.372-37.708-55.655-71.084-49.771
		c-33.373,5.884-55.655,37.709-49.77,71.081c5.883,33.374,36.838,50.723,70.212,44.839
		C333.225,496.978,356.379,470.086,350.495,436.713z"/>
	<path style="fill:#866539;" d="M498.336,214.781c-0.368-2.329-1.893-2.644-4.272-2.313c-3.864,0.538-7.805,0.827-11.816,0.827
		c-21.639,0-41.396-8.008-56.514-21.199c-19.212,10.365-32.274,30.669-32.274,54.031c0,33.888,27.47,61.359,61.359,61.359
		c22.533,0,37.733-12.153,45.395-30.255c0.757-7.851,1.157-15.807,1.157-23.856C501.37,240.243,500.324,227.354,498.336,214.781z"/>
	<path style="fill:#866539;" d="M396.223,127.272c0-4.326,0.321-8.576,0.939-12.73c1.163-7.835,1.675-8.107-4.836-13.327
		c-15.21-12.194-26.276-29.339-30.753-48.992c-8.491,2.757-16.572,7.601-23.631,14.66c-23.962,23.963-23.962,62.813,0,86.775
		c18.33,18.33,45.36,22.614,67.786,12.903C399.667,154.78,396.223,141.433,396.223,127.272z"/>
</g>
<path d="M506.242,213.532c-0.774-4.894-4.715-10.187-13.283-8.992c-3.579,0.497-7.182,0.75-10.712,0.75
	c-43.021,0-78.019-34.999-78.019-78.018c0-3.866,0.287-7.752,0.853-11.553l0.199-1.312c1.475-9.686,0.139-12.955-7.945-19.437
	c-18.484-14.819-29.395-36.865-29.933-60.485c-0.006-0.282-0.005-0.541-0.004-0.78c0.01-2.412,0.03-8.062-7.094-11.288
	c-15.492-7.006-31.752-12.439-48.351-16.188c-4.939-2.965-10.715-4.675-16.882-4.675c-2.094,0-4.141,0.205-6.127,0.582
	C278.079,0.724,267.004,0,255.997,0C203.48,0,153.172,15.909,110.391,46.006c-12.333,3.432-24.14,10.487-34.337,20.684
	c-8.896,8.895-15.395,19.166-19.079,29.901C21.419,141.654,2.624,195.83,2.624,253.376c0,32.475,6.081,64.105,18.058,94.039
	c1.338,15.892,8.587,31.783,21.662,44.857c1.474,1.474,2.998,2.863,4.55,4.197c19.965,29.116,46.308,54.208,76.322,72.72
	c5.629,7.588,14.443,12.675,24.447,13.277c33.984,16.103,70.419,24.284,108.335,24.284c1.194,0,2.382-0.025,3.572-0.045
	c8.304,3.426,17.587,5.292,27.515,5.294h0.005c4.671,0,9.433-0.423,14.154-1.254c14.529-2.563,27.515-8.793,37.539-17.842
	c24.542-8.48,47.569-20.678,68.502-36.285c9.726-2.475,17.729-9.297,21.826-18.266c24.833-23.241,44.448-50.691,58.29-81.634
	c14.58-32.591,21.974-67.36,21.974-103.342C509.375,240.078,508.322,226.671,506.242,213.532z M387.319,107.461
	c0.486,0.39,1.713,1.374,2.484,2.077c-0.08,0.677-0.221,1.604-0.351,2.458l-0.206,1.368c-0.682,4.578-1.027,9.256-1.027,13.908
	c0,12.219,2.345,23.902,6.605,34.621c-18.19,4.805-37.599-0.27-51.222-13.894c-20.803-20.804-20.803-54.653,0-75.456
	c3.872-3.872,8.136-7.02,12.729-9.436C362.107,80.352,372.749,95.78,387.319,107.461z M295.069,17.566
	c9.316,0,16.896,7.58,16.896,16.896s-7.58,16.896-16.896,16.896c-9.318,0-16.897-7.58-16.897-16.896
	C278.172,25.144,285.752,17.566,295.069,17.566z M69.601,113.771c0.921-12.52,7.233-25.22,17.774-35.759
	c11.683-11.685,26.346-18.386,40.231-18.386c11.579,0,22.289,4.59,30.974,13.276c10.077,10.076,15.628,23.474,15.628,37.726
	s-5.55,27.649-15.629,37.727c-10.076,10.078-23.472,15.628-37.721,15.628h-0.004c-14.253-0.002-27.652-5.551-37.728-15.627
	C73.333,138.562,68.656,126.603,69.601,113.771z M53.664,380.953c-21.86-21.861-23.162-52.293-3.095-72.361
	c10.077-10.077,23.476-15.627,37.728-15.627s27.648,5.55,37.727,15.628c10.077,10.076,15.628,23.475,15.628,37.727
	c0,14.252-5.55,27.649-15.628,37.728c-9.26,9.26-20.772,14.153-33.295,14.153h-0.003C78.656,398.2,64.785,392.074,53.664,380.953z
	 M149.657,466.523c-9.317,0-16.898-7.58-16.898-16.895c0-9.316,7.581-16.897,16.898-16.897c9.316,0,16.895,7.58,16.895,16.897
	C166.552,458.944,158.972,466.523,149.657,466.523z M298.464,494.979c-3.806,0.671-7.632,1.012-11.374,1.012h-0.003
	c-25.895-0.002-45.348-15.451-49.562-39.358c-2.474-14.035,0.664-28.194,8.837-39.867c8.174-11.674,20.405-19.466,34.441-21.94
	c3.09-0.545,6.231-0.822,9.338-0.822c25.899,0,47.966,18.546,52.473,44.099C347.476,465.69,328.909,489.61,298.464,494.979z
	 M399.173,441.622c-9.318,0-16.896-7.58-16.896-16.897c0-9.316,7.58-16.895,16.896-16.895c9.314,0,16.893,7.58,16.893,16.895
	C416.067,434.043,408.488,441.622,399.173,441.622z M472.788,350.18c-10.607,23.707-24.831,45.229-42.388,64.199
	c-4.347-13.088-16.698-22.558-31.227-22.558c-18.144,0-32.906,14.761-32.906,32.905c0,12.461,6.963,23.326,17.202,28.91
	c-9.039,5.771-18.436,10.899-28.14,15.378c4.015-10.455,5.115-21.975,3.048-33.69c-5.857-33.219-34.556-57.329-68.238-57.329
	c-4.037,0-8.114,0.358-12.118,1.064c-18.247,3.218-34.147,13.348-44.773,28.525c-10.626,15.177-14.706,33.584-11.489,51.829
	c2.083,11.821,7.093,22.183,14.315,30.514c-22.539-1.852-44.426-6.87-65.419-14.986c7.269-6.041,11.907-15.145,11.907-25.313
	c0-18.144-14.761-32.907-32.905-32.907c-16.842,0-30.761,12.72-32.675,29.056c-13.25-9.613-25.54-20.638-36.587-32.766
	c4.062,0.779,8.182,1.2,12.328,1.2c0.002,0,0.002,0,0.004,0c16.62,0,32.466-6.692,44.617-18.843
	c13.101-13.101,20.317-30.52,20.317-49.049s-7.216-35.947-20.317-49.048c-13.1-13.101-30.519-20.317-49.047-20.317
	s-35.947,7.215-49.049,20.317c-5.332,5.333-9.504,11.279-12.563,17.593c-5.346-19.946-8.051-40.527-8.051-61.489
	c0-45.124,12.341-88.034,35.891-125.577c2.255,11.752,8.142,22.737,17.281,31.876c13.099,13.099,30.518,20.315,49.048,20.316h0.006
	c18.525,0,35.941-7.216,49.04-20.317c13.102-13.1,20.318-30.519,20.318-49.047c0-18.528-7.216-35.947-20.317-49.047
	c-8.199-8.199-17.799-13.692-28.259-16.27c34.872-19.236,73.913-29.299,114.353-29.299c3.88,0,7.768,0.098,11.652,0.287
	c-3.463,5.209-5.487,11.454-5.487,18.165c0,18.144,14.762,32.906,32.907,32.906c18.144,0,32.906-14.762,32.906-32.906
	c0-2.611-0.315-5.149-0.892-7.585c8.26,2.592,16.395,5.624,24.345,9.116c0.13,3.772,0.489,7.507,1.051,11.193
	c-7.407,3.331-14.182,8.024-20.198,14.039c-27.044,27.044-27.044,71.05,0,98.096c13.336,13.336,30.928,20.373,48.9,20.371
	c7.001-0.001,14.062-1.069,20.949-3.25c3.162,5.135,6.804,9.943,10.863,14.363c-17.199,12.999-27.54,33.37-27.54,55.324
	c0,38.247,31.116,69.364,69.364,69.364c12.574,0,23.634-3.313,32.721-9.608C484.115,321.037,479.205,335.837,472.788,350.18z
	 M492.363,275.205c-5.096,11.331-15.703,24.276-37.546,24.276c-29.419,0-53.354-23.934-53.354-53.354
	c0-17.887,8.92-34.413,23.59-44.277c15.858,12.19,35.692,19.449,57.194,19.449c2.94,0,5.919-0.144,8.896-0.43
	c1.476,10.759,2.222,21.671,2.222,32.507C493.366,260.712,493.018,267.988,492.363,275.205z M342.135,224.163
	c0-8.005-6.489-14.494-14.494-14.494c-8.005,0-14.494,6.489-14.494,14.494c0,8.006,6.489,14.495,14.494,14.495
	C335.646,238.658,342.135,232.169,342.135,224.163z M285.164,227.803c-4.422,0-8.005,3.584-8.005,8.005
	c0,3.531-2.872,6.403-6.404,6.403s-6.404-2.872-6.404-6.403c0-4.421-3.583-8.005-8.005-8.005c-4.422,0-8.005,3.584-8.005,8.005
	c0,3.531-2.872,6.403-6.404,6.403c-3.532,0-6.404-2.872-6.404-6.403c0-4.421-3.583-8.005-8.005-8.005
	c-4.422,0-8.005,3.584-8.005,8.005c0,12.358,10.055,22.412,22.413,22.412c5.485,0,10.51-1.986,14.408-5.27
	c3.899,3.283,8.924,5.27,14.409,5.27c12.358,0,22.413-10.054,22.413-22.412C293.169,231.387,289.585,227.803,285.164,227.803z
	 M362.996,299.717c-18.145,0-32.908,14.762-32.908,32.906c0,18.144,14.763,32.906,32.908,32.906
	c18.144,0,32.905-14.762,32.905-32.906C395.901,314.478,381.14,299.717,362.996,299.717z M362.996,349.518
	c-9.318,0-16.898-7.58-16.898-16.896c0-9.316,7.581-16.896,16.898-16.896c9.315,0,16.895,7.58,16.895,16.896
	C379.892,341.939,372.313,349.518,362.996,349.518z M86.725,191.597c-18.146,0-32.909,14.761-32.909,32.905
	c0,18.145,14.763,32.907,32.909,32.907c18.143,0,32.904-14.762,32.904-32.907C119.628,206.357,104.868,191.597,86.725,191.597z
	 M86.725,241.398c-9.317,0-16.9-7.58-16.9-16.897c0-9.316,7.582-16.895,16.9-16.895c9.316,0,16.894,7.579,16.894,16.895
	C103.619,233.818,96.04,241.398,86.725,241.398z M241.938,163.694c18.144,0,32.906-14.762,32.906-32.907
	c0-18.144-14.762-32.906-32.906-32.906c-18.145,0-32.907,14.762-32.907,32.906C209.031,148.933,223.793,163.694,241.938,163.694z
	 M241.938,113.892c9.317,0,16.896,7.58,16.896,16.896s-7.58,16.897-16.896,16.897c-9.316,0-16.897-7.58-16.897-16.897
	C225.041,121.472,232.621,113.892,241.938,113.892z M200.71,328.101c-18.144,0-32.905,14.762-32.905,32.907
	c0,18.143,14.761,32.904,32.905,32.904s32.905-14.761,32.905-32.904C233.615,342.862,218.854,328.101,200.71,328.101z
	 M200.71,377.902c-9.316,0-16.895-7.579-16.895-16.894c0-9.318,7.58-16.897,16.895-16.897s16.895,7.58,16.895,16.897
	C217.605,370.323,210.025,377.902,200.71,377.902z M185.053,238.658c8.005,0,14.494-6.489,14.494-14.495
	c0-8.005-6.489-14.494-14.494-14.494s-14.494,6.489-14.494,14.494C170.559,232.169,177.048,238.658,185.053,238.658z"/>
<g>
</g>
<g>
</g>
<g>
</g>
<g>
</g>
<g>
</g>
<g>
</g>
<g>
</g>
<g>
</g>
<g>
</g>
<g>
</g>
<g>
</g>
<g>
</g>
<g>
</g>
<g>
</g>
<g>
</g>
</svg>
