<?xml version="1.0" encoding="iso-8859-1"?>
<!-- Generator: Adobe Illustrator 19.0.0, SVG Export Plug-In . SVG Version: 6.00 Build 0)  -->
<svg version="1.1" id="Layer_1" xmlns="http://www.w3.org/2000/svg" xmlns:xlink="http://www.w3.org/1999/xlink" x="0px" y="0px"
	 viewBox="0 0 511.997 511.997" style="enable-background:new 0 0 511.997 511.997;" xml:space="preserve">
<path style="fill:#FDBA55;" d="M125.459,299.48c-18.797,16.907-36.375,33.45-49.315,55.452c-3.596,6.116-6.849,12.435-9.787,18.893
	c-2.266,4.978-4.424,10.005-6.544,15.049c-5.577,13.277-20.863,19.517-34.14,13.94c-9.885-4.155-15.863-13.708-15.975-23.785
	c-0.214-19.118,0.762-38.474,4.032-57.335c5.103-29.424,17.074-56.887,29.844-83.676c12.414-26.036,43.581-37.077,69.615-24.666
	c26.035,12.411,37.077,43.58,24.666,69.614C134.808,289.359,130.418,295.02,125.459,299.48z"/>
<path style="fill:#CF9945;" d="M199.001,259.339c-0.564-1.159-22.225,9.294-24.195,10.218c-2.166,1.019-4.415,1.987-6.478,3.203
	c-0.762,0.447-1.532,0.901-2.312,1.357c-11.11,6.522-21.416,13.872-30.943,22.572c-8.242,7.526-15.56,16.031-22.141,25.042
	c-3.637,4.98-6.861,10.215-10.28,15.338c-2.443,3.643-4.923,3.742-8.3,2.26c-16.181-7.116-66.49-29.237-82.971-36.48
	c-3.313-1.458-4.305-5.229-2.647-9.184c2.467-5.887,5.832-13.574,6.271-14.531c4.069-8.852,8.566-17.508,13.548-25.884
	c11.228-18.878,24.833-36.664,40.015-52.525c11.372-11.883,23.669-22.913,36.928-32.652c12.278-9.019,25.356-16.773,38.568-24.322
	C144.064,143.752,198.873,259.071,199.001,259.339z"/>
<path style="fill:#FDBA55;" d="M386.535,299.48c18.797,16.907,36.375,33.45,49.315,55.452c3.596,6.116,6.849,12.435,9.787,18.893
	c2.266,4.978,4.424,10.005,6.544,15.049c5.577,13.277,20.863,19.517,34.14,13.94c9.885-4.155,15.863-13.708,15.975-23.785
	c0.214-19.118-0.762-38.474-4.033-57.335c-5.103-29.424-17.074-56.887-29.844-83.676c-12.413-26.036-43.58-37.077-69.615-24.666
	c-26.035,12.411-37.077,43.58-24.665,69.614C377.186,289.359,381.577,295.02,386.535,299.48z"/>
<path style="fill:#CF9945;" d="M312.993,259.339c0.564-1.159,22.225,9.294,24.195,10.218c2.166,1.019,4.415,1.987,6.478,3.203
	c0.762,0.447,1.532,0.901,2.312,1.357c11.11,6.522,21.417,13.872,30.943,22.572c8.242,7.526,15.56,16.031,22.141,25.042
	c3.637,4.98,6.861,10.215,10.28,15.338c2.443,3.643,4.923,3.742,8.3,2.26c16.181-7.116,66.49-29.237,82.971-36.48
	c3.313-1.458,4.305-5.229,2.647-9.184c-2.467-5.887-5.831-13.574-6.271-14.531c-4.07-8.852-8.566-17.508-13.548-25.884
	c-11.228-18.878-24.834-36.664-40.015-52.525c-11.372-11.883-23.669-22.913-36.928-32.652
	c-12.278-9.019-25.356-16.773-38.569-24.322C367.928,143.752,313.121,259.071,312.993,259.339z"/>
<path style="fill:#FDBA55;" d="M255.997,274.783c7.946,0.021,15.843,0.679,23.744,1.588c17.939,2.066,35.574,6.849,52.125,14.061
	c0.804,0.349,4.584,2.249,8.788,4.353c6.966,3.485,15.473,3.448,20.803-3.269c18.453-23.257,65.183-82.152,81.381-102.567
	c3.549-4.472,0.06-12.068-2.783-14.477c-6.956-5.896-14.144-11.489-21.594-16.796c-5.924-4.216-12.252-8.061-18.53-11.72
	c-23.548-13.728-49.384-24.095-75.813-30.719c-21.51-5.388-48.474-8.096-68.121-8.096c-19.646,0-46.611,2.709-68.121,8.096
	c-26.429,6.624-52.264,16.993-75.813,30.719c-6.278,3.659-12.606,7.503-18.53,11.72c-7.451,5.307-14.638,10.9-21.594,16.796
	c-2.844,2.408-6.33,10.005-2.783,14.477c16.198,20.415,62.929,79.31,81.381,102.567c5.329,6.717,13.837,6.754,20.803,3.269
	c4.204-2.103,7.984-4.004,8.788-4.353c16.552-7.212,34.187-11.995,52.125-14.061C240.155,275.462,248.051,274.804,255.997,274.783z"
	/>
<g>
	<path style="fill:#3F4963;" d="M241.096,221.557c-12.592,0-22.838-10.244-22.838-22.834c0-4.383,3.553-7.935,7.935-7.935
		s7.935,3.552,7.935,7.935c0,3.84,3.126,6.964,6.968,6.964c3.841,0,6.966-3.124,6.966-6.964c0-4.383,3.553-7.935,7.935-7.935
		c4.382,0,7.935,3.552,7.935,7.935C263.932,211.314,253.688,221.557,241.096,221.557z"/>
	<path style="fill:#3F4963;" d="M270.898,221.557c-12.591,0-22.836-10.244-22.836-22.834c0-4.383,3.553-7.935,7.935-7.935
		s7.935,3.552,7.935,7.935c0,3.84,3.125,6.964,6.966,6.964s6.966-3.124,6.966-6.964c0-4.383,3.553-7.935,7.935-7.935
		s7.935,3.552,7.935,7.935C293.734,211.314,283.49,221.557,270.898,221.557z"/>
</g>
<path style="fill:#FF6376;" d="M345.767,234.309h-32.063c-4.382,0-7.935-3.552-7.935-7.935s3.553-7.935,7.935-7.935h32.063
	c4.382,0,7.935,3.552,7.935,7.935S350.149,234.309,345.767,234.309z"/>
<path style="fill:#3F4963;" d="M344.722,197.99c-4.382,0-7.935-3.552-7.935-7.935c0-3.888-3.162-7.051-7.051-7.051
	s-7.051,3.162-7.051,7.051c0,4.383-3.553,7.935-7.935,7.935c-4.382,0-7.935-3.552-7.935-7.935c0-12.638,10.282-22.921,22.921-22.921
	s22.921,10.283,22.921,22.921C352.657,194.438,349.104,197.99,344.722,197.99z"/>
<path style="fill:#FF6376;" d="M198.289,234.309h-32.063c-4.382,0-7.935-3.552-7.935-7.935s3.553-7.935,7.935-7.935h32.063
	c4.382,0,7.935,3.552,7.935,7.935S202.672,234.309,198.289,234.309z"/>
<g>
	<path style="fill:#3F4963;" d="M197.244,197.99c-4.382,0-7.935-3.552-7.935-7.935c0-3.888-3.162-7.051-7.051-7.051
		s-7.051,3.162-7.051,7.051c0,4.383-3.553,7.935-7.935,7.935c-4.382,0-7.935-3.552-7.935-7.935
		c0-12.638,10.282-22.921,22.921-22.921s22.921,10.283,22.921,22.921C205.179,194.438,201.626,197.99,197.244,197.99z"/>
	<circle style="opacity:0.2;fill:#3F4963;enable-background:new    ;" cx="470.095" cy="355.216" r="14.99"/>
	<circle style="opacity:0.2;fill:#3F4963;enable-background:new    ;" cx="419.786" cy="282.975" r="14.99"/>
	<circle style="opacity:0.2;fill:#3F4963;enable-background:new    ;" cx="67.655" cy="270.988" r="14.99"/>
</g>
<path d="M182.258,167.138c-12.638,0-22.921,10.283-22.921,22.921c0,4.383,3.552,7.935,7.935,7.935s7.935-3.552,7.935-7.935
	c0-3.889,3.162-7.051,7.051-7.051s7.051,3.161,7.051,7.051c0,4.383,3.552,7.935,7.935,7.935s7.935-3.552,7.935-7.935
	C205.179,177.421,194.896,167.138,182.258,167.138z M504.001,310.02c7.166-3.278,9.938-11.402,6.578-19.417
	c-2.482-5.923-5.86-13.648-6.379-14.779c-4.288-9.325-8.976-18.284-13.938-26.626c-11.482-19.305-25.31-37.456-41.101-53.952
	c-0.215-0.225-0.436-0.449-0.652-0.674l0.546-0.688c3.189-4.019,4.049-9.386,2.423-15.112c-1.177-4.141-3.528-8.009-6.29-10.348
	c-7.106-6.023-14.548-11.812-22.123-17.21c-6.548-4.66-13.348-8.737-19.136-12.109c-24.046-14.017-50.247-24.636-77.88-31.563
	c-20.211-5.063-47.707-8.334-70.049-8.334s-49.839,3.271-70.05,8.334c-27.631,6.927-53.835,17.544-77.878,31.563
	c-5.788,3.373-12.587,7.447-19.138,12.111c-7.575,5.396-15.017,11.183-22.12,17.205c-2.764,2.341-5.117,6.209-6.292,10.351
	c-1.626,5.726-0.766,11.092,2.423,15.112l0.546,0.688c-0.215,0.223-0.436,0.446-0.65,0.672
	c-15.793,16.499-29.621,34.65-41.103,53.955c-4.961,8.342-9.65,17.301-13.94,26.63c-0.516,1.126-3.896,8.852-6.377,14.775
	c-3.36,8.011-0.589,16.137,6.578,19.417c-0.789,3.48-1.493,6.935-2.081,10.322c-3.037,17.515-4.393,36.742-4.147,58.778
	c0.151,13.585,8.329,25.758,20.835,31.015c4.29,1.802,8.742,2.654,13.128,2.654c13.29,0,25.939-7.838,31.4-20.836
	c2.522-6.001,4.511-10.576,6.452-14.837c2.887-6.344,6.051-12.455,9.405-18.156c2.472-4.206,5.175-8.286,8.177-12.362
	c0,0,0.001,0.002,0.002,0.002c2.513,1.104,4.757,1.556,6.747,1.556c5.809,0,9.455-3.862,11.343-6.677
	c1.099-1.647,2.178-3.304,3.257-4.963c2.3-3.532,4.471-6.869,6.832-10.099c6.802-9.314,13.698-17.121,21.084-23.864
	c1.693-1.546,3.444-3.07,5.235-4.569c4.289,4.546,10.073,7.033,16.506,7.033c0.001,0,0.001,0,0.001,0
	c4.228,0,8.627-1.082,12.724-3.133l1.506-0.754c2.937-1.47,6.269-3.137,6.9-3.419c15.955-6.953,32.731-11.479,49.862-13.453
	c8.957-1.032,16.22-1.519,22.816-1.535c6.637,0.017,13.901,0.505,22.857,1.535c17.132,1.973,33.908,6.498,49.855,13.448
	c0.64,0.287,3.972,1.955,6.909,3.424l1.508,0.754c4.095,2.05,8.494,3.133,12.723,3.133c6.432,0,12.217-2.486,16.506-7.033
	c1.791,1.498,3.543,3.023,5.235,4.569c7.385,6.743,14.282,14.55,21.084,23.861c2.359,3.232,4.531,6.569,6.832,10.101
	c1.079,1.659,2.157,3.317,3.266,4.978c1.879,2.802,5.523,6.662,11.332,6.662c1.991,0,4.235-0.455,6.75-1.558
	c3.003,4.075,5.705,8.156,8.177,12.36c3.354,5.704,6.517,11.814,9.407,18.16c1.938,4.258,3.927,8.834,6.45,14.833
	c5.46,13.002,18.108,20.838,31.4,20.838c4.385,0,8.84-0.854,13.13-2.656c12.505-5.255,20.683-17.429,20.833-31.012
	c0.245-22.038-1.111-41.265-4.147-58.78C505.494,316.955,504.79,313.5,504.001,310.02z M69.304,350.914
	c-3.632,6.179-7.054,12.781-10.168,19.627c-2.007,4.406-4.053,9.113-6.637,15.263c-3.874,9.223-14.525,13.572-23.749,9.698
	c-6.672-2.804-11.035-9.303-11.116-16.558c-0.235-21.059,1.046-39.341,3.916-55.891c0.372-2.14,0.8-4.317,1.26-6.507
	c15.777,6.935,37.714,16.581,53.499,23.523C73.797,343.634,71.472,347.226,69.304,350.914z M129.724,290.835
	c-8.062,7.361-15.868,16.184-23.198,26.221c-2.612,3.577-5.003,7.251-7.316,10.803c-0.835,1.283-1.671,2.567-2.511,3.837
	c-16.479-7.247-62.827-27.626-80.469-35.379c2.456-5.843,5.647-13.126,5.985-13.864c4.054-8.82,8.482-17.28,13.16-25.143
	c10.657-17.921,23.472-34.791,38.076-50.182l62.268,78.479C133.665,287.318,131.662,289.064,129.724,290.835z M355.24,286.588
	c-1.385,1.746-3.105,2.558-5.412,2.558c-1.777,0-3.721-0.503-5.622-1.455l-1.502-0.752c-4.914-2.459-6.849-3.424-7.666-3.779
	c-17.395-7.58-35.693-12.514-54.387-14.669c-9.56-1.099-17.388-1.62-24.672-1.639c-7.243,0.019-15.07,0.54-24.632,1.639
	c-18.693,2.155-36.991,7.09-54.378,14.667c-0.826,0.358-2.76,1.323-7.675,3.781l-1.502,0.752c-1.902,0.952-3.846,1.455-5.621,1.455
	h-0.001c-2.309,0-4.029-0.813-5.413-2.558L75.584,184.285c-0.036-0.95,0.802-3.061,1.487-3.757
	c6.767-5.737,13.855-11.248,21.064-16.384c6.031-4.292,12.445-8.135,17.926-11.328c22.754-13.264,47.565-23.318,73.744-29.878
	c19.058-4.774,45.04-7.859,66.194-7.859s47.136,3.085,66.192,7.859c26.181,6.561,50.992,16.614,73.747,29.878
	c5.479,3.193,11.894,7.036,17.922,11.326c7.211,5.137,14.3,10.65,20.999,16.327c0.747,0.752,1.589,2.866,1.554,3.816L355.24,286.588
	z M494.36,378.943c-0.08,7.255-4.444,13.754-11.113,16.558c-9.224,3.874-19.878-0.477-23.751-9.698
	c-2.584-6.15-4.631-10.857-6.635-15.263c-3.116-6.846-6.537-13.448-10.171-19.629c-2.168-3.686-4.492-7.28-7.004-10.845
	c15.782-6.942,37.719-16.585,53.499-23.523c0.46,2.19,0.889,4.364,1.26,6.507C493.314,339.603,494.595,357.885,494.36,378.943z
	 M415.296,331.697c-0.844-1.275-1.677-2.556-2.511-3.837c-2.313-3.552-4.704-7.226-7.316-10.803
	c-7.33-10.036-15.136-18.86-23.198-26.221c-1.938-1.771-3.941-3.517-5.995-5.227l62.267-78.477
	c14.604,15.387,27.418,32.257,38.077,50.18c4.676,7.863,9.104,16.323,13.156,25.138c0.341,0.742,3.532,8.022,5.987,13.867
	C478.115,304.075,431.764,324.453,415.296,331.697z M329.736,167.138c-12.638,0-22.921,10.283-22.921,22.921
	c0,4.383,3.552,7.935,7.935,7.935c4.382,0,7.935-3.552,7.935-7.935c0-3.889,3.162-7.051,7.051-7.051s7.051,3.161,7.051,7.051
	c0,4.383,3.552,7.935,7.935,7.935s7.935-3.552,7.935-7.935C352.657,177.421,342.374,167.138,329.736,167.138z M285.799,190.792
	c-4.383,0-7.935,3.552-7.935,7.935c0,3.84-3.124,6.964-6.966,6.964c-3.842,0-6.966-3.124-6.966-6.964
	c0-4.383-3.552-7.935-7.935-7.935s-7.935,3.552-7.935,7.935c0,3.84-3.124,6.964-6.966,6.964s-6.968-3.124-6.968-6.964
	c0-4.383-3.552-7.935-7.935-7.935s-7.935,3.552-7.935,7.935c0,12.59,10.246,22.834,22.838,22.834c5.695,0,10.896-2.11,14.901-5.569
	c4.005,3.46,9.206,5.569,14.901,5.569c12.591,0,22.836-10.244,22.836-22.834C293.734,194.345,290.182,190.792,285.799,190.792z"/>
<g>
</g>
<g>
</g>
<g>
</g>
<g>
</g>
<g>
</g>
<g>
</g>
<g>
</g>
<g>
</g>
<g>
</g>
<g>
</g>
<g>
</g>
<g>
</g>
<g>
</g>
<g>
</g>
<g>
</g>
</svg>
