<?xml version="1.0" encoding="iso-8859-1"?>
<!-- Generator: Adobe Illustrator 19.0.0, SVG Export Plug-In . SVG Version: 6.00 Build 0)  -->
<svg version="1.1" id="Layer_1" xmlns="http://www.w3.org/2000/svg" xmlns:xlink="http://www.w3.org/1999/xlink" x="0px" y="0px"
	 viewBox="0 0 512 512" style="enable-background:new 0 0 512 512;" xml:space="preserve">
<path style="fill:#866539;" d="M450.043,298.161c0-107.166-86.876-136.575-194.043-136.575S61.958,190.995,61.958,298.161
	c0,107.167,86.875,194.042,194.042,194.042S450.043,405.329,450.043,298.161z"/>
<path style="fill:#FDBA55;" d="M459.842,308.72c1.122-5.807-2.799-10.559-8.715-10.559H60.874c-5.915,0-9.837,4.753-8.715,10.559
	l35.691,184.759c1.122,5.807,6.878,10.559,12.794,10.559h310.716c5.915,0,11.672-4.753,12.794-10.559L459.842,308.72z"/>
<circle style="fill:#3F4963;" cx="144.741" cy="370.706" r="14.417"/>
<g>
	<path style="fill:#FF6376;" d="M160.167,421.089h-30.844c-4.397,0-7.962-3.565-7.962-7.962s3.565-7.962,7.962-7.962h30.844
		c4.397,0,7.962,3.565,7.962,7.962C168.129,417.526,164.564,421.089,160.167,421.089z"/>
	<path style="fill:#FF6376;" d="M382.679,421.089h-30.844c-4.397,0-7.962-3.565-7.962-7.962s3.565-7.962,7.962-7.962h30.844
		c4.397,0,7.962,3.565,7.962,7.962C390.641,417.526,387.076,421.089,382.679,421.089z"/>
</g>
<g>
	<path style="fill:#3F4963;" d="M237.95,411.128c-14.344,0-26.013-11.669-26.013-26.013c0-4.397,3.565-7.962,7.962-7.962
		s7.962,3.565,7.962,7.962c0,5.563,4.526,10.089,10.089,10.089s10.089-4.526,10.089-10.089c0-4.397,3.565-7.962,7.962-7.962
		c4.397,0,7.962,3.565,7.962,7.962C263.963,399.458,252.293,411.128,237.95,411.128z"/>
	<path style="fill:#3F4963;" d="M274.052,411.128c-14.344,0-26.013-11.669-26.013-26.013c0-4.397,3.565-7.962,7.962-7.962
		c4.397,0,7.962,3.565,7.962,7.962c0,5.563,4.526,10.089,10.089,10.089s10.089-4.526,10.089-10.089c0-4.397,3.565-7.962,7.962-7.962
		s7.962,3.565,7.962,7.962C300.065,399.458,288.395,411.128,274.052,411.128z"/>
	<path style="fill:#3F4963;" d="M381.674,386.15c-4.397,0-7.962-3.565-7.962-7.962c0-3.56-2.896-6.455-6.455-6.455
		c-3.56,0-6.456,2.896-6.456,6.455c0,4.397-3.565,7.962-7.962,7.962s-7.962-3.565-7.962-7.962c0-12.34,10.04-22.379,22.38-22.379
		s22.379,10.04,22.379,22.379C389.636,382.585,386.071,386.15,381.674,386.15z"/>
</g>
<g>
	<path style="fill:#FFD553;" d="M79.114,433.064c-0.982,0-1.949,0.055-2.911,0.135l11.645,60.28
		c0.617,3.191,2.636,6.058,5.309,7.997c12.704-5.45,21.605-18.064,21.605-32.764C114.763,449.024,98.802,433.064,79.114,433.064z"/>
	<path style="fill:#FFD553;" d="M90.685,351.147c0-19.688-15.96-35.647-35.648-35.647c-0.523,0-1.044,0.018-1.562,0.039
		l13.376,69.243C80.731,379.905,90.685,366.693,90.685,351.147z"/>
	<path style="fill:#FFD553;" d="M404.351,450.566c-19.688,0-35.648,15.959-35.648,35.647c0,6.495,1.745,12.58,4.78,17.825h37.874
		c5.915,0,11.672-4.753,12.794-10.559l6.127-31.716C423.779,454.873,414.572,450.566,404.351,450.566z"/>
	<path style="fill:#FFD553;" d="M450.043,326.895c-19.688,0-35.648,15.959-35.648,35.647c0,17.173,12.143,31.506,28.31,34.888
		l13.52-69.989C454.217,327.089,452.154,326.895,450.043,326.895z"/>
	<path style="fill:#FFD553;" d="M220.353,298.161c0,19.689,15.96,35.647,35.648,35.647s35.648-15.958,35.648-35.647H220.353z"/>
	<path style="fill:#FFD553;" d="M291.648,504.038c0-19.689-15.96-35.648-35.648-35.648c-19.688,0-35.648,15.959-35.648,35.648
		H291.648z"/>
</g>
<path style="fill:#FF9596;" d="M420.862,151.595h-1.558c1.302-4.566,2.014-9.38,2.014-14.364c0-23.403-15.37-43.212-36.564-49.896
	c0.451-28.58-22.182-65.084-30.534-73.435c-7.916-7.916-20.751-7.916-28.668,0c-3.958,3.959-5.938,9.146-5.938,14.334
	c0,7.891-14.68,56.685-76.517,56.685H142.998c-28.891,0-52.312,23.42-52.312,52.312c0,4.983,0.711,9.799,2.013,14.364H91.14
	c-28.891,0-52.312,23.421-52.312,52.312s23.421,52.311,52.312,52.311h329.721c28.891,0,52.312-23.421,52.312-52.311
	C473.174,175.015,449.752,151.595,420.862,151.595z"/>
<g>
	<path style="fill:#FFFFFF;" d="M97.338,231.525c-2.037,0-4.074-0.777-5.63-2.331c-3.109-3.109-3.109-8.151-0.001-11.261
		l22.093-22.095c3.111-3.109,8.15-3.109,11.261-0.001c3.109,3.109,3.109,8.151,0.001,11.261l-22.093,22.095
		C101.414,230.748,99.375,231.525,97.338,231.525z"/>
	<path style="fill:#FFFFFF;" d="M314.239,103.928c-2.037,0-4.076-0.777-5.63-2.332c-3.109-3.109-3.109-8.15,0-11.26l22.093-22.094
		c3.109-3.109,8.151-3.109,11.261,0c3.109,3.109,3.109,8.15,0,11.26l-22.093,22.094C318.314,103.15,316.277,103.928,314.239,103.928
		z"/>
</g>
<g>
	<path style="fill:#FF6376;" d="M405.402,231.524c-2.037,0-4.076-0.777-5.63-2.332l-22.094-22.094c-3.109-3.109-3.109-8.151,0-11.26
		c3.109-3.109,8.151-3.109,11.261,0l22.094,22.093c3.109,3.109,3.109,8.151,0,11.261
		C409.478,230.747,407.441,231.524,405.402,231.524z"/>
	<path style="fill:#FF6376;" d="M157.902,170.604c-2.037,0-4.076-0.777-5.63-2.332l-22.093-22.094c-3.109-3.109-3.109-8.151,0-11.26
		c3.109-3.109,8.151-3.109,11.26,0l22.094,22.093c3.109,3.109,3.109,8.151,0,11.261C161.978,169.827,159.94,170.604,157.902,170.604
		z"/>
</g>
<path style="fill:#866539;" d="M199.274,215.992c-2.037,0-4.076-0.777-5.63-2.332c-3.109-3.109-3.109-8.15,0-11.26l22.093-22.094
	c3.109-3.109,8.151-3.109,11.261,0c3.109,3.109,3.109,8.15,0,11.261l-22.093,22.093
	C203.349,215.215,201.311,215.992,199.274,215.992z"/>
<path style="fill:#FFD553;" d="M201.548,145.194c-2.037,0-4.074-0.777-5.63-2.331c-3.109-3.109-3.109-8.151-0.001-11.261
	l22.093-22.095c3.111-3.109,8.15-3.109,11.261-0.001c3.109,3.109,3.109,8.151,0.001,11.261l-22.093,22.094
	C205.623,144.416,203.586,145.194,201.548,145.194z"/>
<path style="fill:#FF6376;" d="M291.648,167.286c-2.037,0-4.076-0.777-5.63-2.332l-22.093-22.093c-3.109-3.109-3.109-8.151,0-11.26
	c3.109-3.109,8.151-3.109,11.26,0l22.093,22.092c3.109,3.109,3.109,8.151,0,11.261C295.724,166.509,293.686,167.286,291.648,167.286
	z"/>
<path style="fill:#FFFFFF;" d="M379.751,156.24c-2.038,0-4.076-0.777-5.63-2.332l-22.093-22.094c-3.109-3.109-3.109-8.151,0-11.26
	c3.109-3.109,8.151-3.111,11.259,0l22.093,22.094c3.109,3.109,3.109,8.151,0,11.26C383.826,155.462,381.788,156.24,379.751,156.24z"
	/>
<path style="fill:#FFD553;" d="M284.397,231.524c-2.037,0-4.076-0.777-5.63-2.332c-3.109-3.109-3.109-8.151,0-11.261l22.094-22.093
	c3.109-3.109,8.151-3.109,11.261,0c3.109,3.109,3.109,8.151,0,11.26l-22.094,22.094
	C288.473,230.747,286.434,231.524,284.397,231.524z"/>
<path d="M292.101,377.153c-4.397,0-7.962,3.565-7.962,7.962c0,5.563-4.526,10.089-10.088,10.089c-5.563,0-10.09-4.526-10.09-10.089
	c0-4.397-3.564-7.962-7.962-7.962s-7.962,3.565-7.962,7.962c0,5.563-4.527,10.089-10.089,10.089
	c-5.563,0-10.089-4.526-10.089-10.089c0-4.397-3.565-7.962-7.962-7.962c-4.398,0-7.962,3.565-7.962,7.962
	c0,14.344,11.669,26.013,26.013,26.013c7.006,0,13.369-2.789,18.051-7.309c4.682,4.52,11.045,7.309,18.052,7.309
	c14.342,0,26.012-11.669,26.012-26.013C300.064,380.718,296.5,377.153,292.101,377.153z M144.745,356.286
	c-7.962,0-14.417,6.455-14.417,14.417c0,7.963,6.455,14.418,14.417,14.418s14.417-6.455,14.417-14.418
	C159.161,362.742,152.707,356.286,144.745,356.286z M367.256,355.809c-12.34,0-22.379,10.04-22.379,22.379
	c0,4.397,3.565,7.962,7.962,7.962s7.962-3.565,7.962-7.962c0-3.56,2.895-6.455,6.455-6.455s6.455,2.896,6.455,6.455
	c0,4.397,3.564,7.962,7.962,7.962s7.962-3.565,7.962-7.962C389.636,365.848,379.597,355.809,367.256,355.809z M457.894,291.543
	c-0.44-13.037-2.196-25.251-5.225-36.471c17.075-10.653,28.466-29.599,28.466-51.165c0-30.519-22.798-55.813-52.26-59.744
	c0.268-2.301,0.402-4.616,0.402-6.932c0-24.502-14.543-46.14-36.732-55.505c-2.167-30.333-24.002-64.76-32.699-73.458
	C354.516,2.936,347.426,0,339.884,0c-7.542,0-14.631,2.936-19.965,8.27c-5.334,5.333-8.269,12.423-8.269,19.94
	c-0.05,1.786-2.733,14.242-13.38,26.405c-12.978,14.824-31.542,22.342-55.175,22.342H142.998c-33.236,0-60.275,27.039-60.275,60.274
	c0,2.318,0.135,4.632,0.402,6.932c-29.462,3.93-52.26,29.224-52.26,59.744c0,21.566,11.393,40.512,28.467,51.165
	c-3.028,11.22-4.786,23.433-5.224,36.471c-2.473,1.021-4.667,2.588-6.371,4.652c-3.146,3.81-4.382,8.926-3.395,14.036
	l35.689,184.759C81.875,504.527,90.928,512,100.643,512h310.716c9.715,0,18.768-7.473,20.611-17.011L467.66,310.23
	c0.987-5.11-0.249-10.224-3.395-14.036C462.561,294.132,460.367,292.565,457.894,291.543z M452.024,307.21l-35.689,184.759
	c-0.401,2.072-2.865,4.107-4.977,4.107H100.643c-2.11,0-4.576-2.035-4.977-4.107L59.977,307.21
	c-0.096-0.493-0.027-0.795,0.041-0.879c0.069-0.084,0.355-0.208,0.857-0.208h390.253c0.502,0,0.787,0.124,0.857,0.208
	C452.052,306.415,452.12,306.717,452.024,307.21z M70.117,290.198c0.452-10.145,1.779-19.674,3.961-28.493
	c5.414,1.601,11.136,2.475,17.061,2.475h329.721c5.925,0,11.648-0.874,17.061-2.475c2.184,8.819,3.511,18.349,3.962,28.493H70.117z
	 M420.862,248.257H91.14c-24.454,0-44.35-19.895-44.35-44.349c0-24.455,19.896-44.35,44.35-44.35h1.558
	c0.166,0,0.329-0.019,0.493-0.029c0.189,0.014,0.377,0.029,0.569,0.029h14.625c4.397,0,7.962-3.565,7.962-7.962
	s-3.565-7.962-7.962-7.962h-9.263c-0.31-2.121-0.476-4.26-0.476-6.402c0-24.455,19.896-44.35,44.351-44.35h100.097
	c35.658,0,56.372-15.302,67.471-28.138c12.851-14.864,17.008-31.015,17.008-36.509c0-3.288,1.28-6.379,3.606-8.704
	c2.324-2.324,5.416-3.605,8.703-3.605c3.288,0,6.379,1.28,8.703,3.604c6.67,6.671,24.524,35.543,27.712,59.844h-5.111
	c-4.397,0-7.962,3.565-7.962,7.962s3.565,7.962,7.962,7.962h12.261c17.934,6.162,29.906,22.864,29.906,41.934
	c0,2.142-0.166,4.28-0.476,6.402h-8.531c-4.397,0-7.962,3.565-7.962,7.962s3.565,7.962,7.962,7.962h13.562
	c0.253,0,0.502-0.015,0.747-0.038c0.214,0.018,0.428,0.038,0.645,0.038h1.558c24.454,0,44.35,19.896,44.35,44.35
	C465.212,228.361,445.316,248.257,420.862,248.257z"/>
<g>
</g>
<g>
</g>
<g>
</g>
<g>
</g>
<g>
</g>
<g>
</g>
<g>
</g>
<g>
</g>
<g>
</g>
<g>
</g>
<g>
</g>
<g>
</g>
<g>
</g>
<g>
</g>
<g>
</g>
</svg>
