<?xml version="1.0" encoding="iso-8859-1"?>
<!-- Generator: Adobe Illustrator 19.0.0, SVG Export Plug-In . SVG Version: 6.00 Build 0)  -->
<svg version="1.1" id="Layer_1" xmlns="http://www.w3.org/2000/svg" xmlns:xlink="http://www.w3.org/1999/xlink" x="0px" y="0px"
	 viewBox="0 0 512 512" style="enable-background:new 0 0 512 512;" xml:space="preserve">
<path style="fill:#FDBA55;" d="M256,8.011C119.04,8.011,8.011,119.04,8.011,256S119.04,503.989,256,503.989
	S503.989,392.96,503.989,256S392.96,8.011,256,8.011z M256,344.63c-48.949,0-88.63-39.681-88.63-88.63
	c0-48.948,39.681-88.63,88.63-88.63s88.63,39.681,88.63,88.63C344.63,304.949,304.949,344.63,256,344.63z"/>
<path style="fill:#866539;" d="M256,8.011C119.04,8.011,8.011,119.04,8.011,256c0,10.22,0.631,20.292,1.834,30.189
	c19.112,21.39,46.904,34.861,77.846,34.861c33.843,0,63.916-16.112,82.987-41.08c-2.14-7.627-3.308-15.659-3.308-23.969
	c0-48.948,39.681-88.63,88.63-88.63s88.63,39.681,88.63,88.63c0,8.309-1.169,16.342-3.308,23.969
	c19.07,24.968,49.145,41.08,82.987,41.08c30.943,0,58.735-13.47,77.846-34.861c1.203-9.897,1.834-19.968,1.834-30.189
	C503.989,119.04,392.96,8.011,256,8.011z"/>
<path style="fill:#FF9596;" d="M390.08,219.592c-2.05,0-4.101-0.782-5.665-2.346l-23.054-23.052c-3.13-3.129-3.13-8.201-0.001-11.33
	c3.13-3.129,8.203-3.129,11.329,0l23.054,23.053c3.13,3.129,3.13,8.201,0.001,11.33C394.18,218.81,392.129,219.592,390.08,219.592z"
	/>
<path style="fill:#FF6376;" d="M456.103,208.066c-2.05,0-4.101-0.782-5.665-2.346l-23.054-23.052
	c-3.13-3.129-3.13-8.201-0.001-11.33c3.13-3.129,8.202-3.129,11.329,0l23.054,23.052c3.13,3.129,3.13,8.201,0.001,11.33
	C460.204,207.284,458.153,208.066,456.103,208.066z"/>
<path style="fill:#FFD553;" d="M404.811,283.861c-2.05,0-4.101-0.782-5.665-2.346l-23.054-23.052
	c-3.13-3.129-3.13-8.201-0.001-11.33c3.13-3.129,8.202-3.129,11.329,0l23.054,23.052c3.13,3.129,3.13,8.201,0.001,11.33
	C408.911,283.079,406.859,283.861,404.811,283.861z"/>
<path style="fill:#FF9596;" d="M269.381,138.663c-2.051,0-4.101-0.782-5.665-2.347l-23.054-23.053
	c-3.13-3.129-3.13-8.2-0.001-11.329c3.13-3.129,8.203-3.13,11.33,0l23.054,23.053c3.13,3.129,3.13,8.2,0.001,11.329
	C273.482,137.881,271.431,138.663,269.381,138.663z"/>
<path style="fill:#FFFFFF;" d="M86.56,208.066c-2.05,0-4.101-0.782-5.665-2.347l-23.053-23.052c-3.13-3.129-3.13-8.2-0.001-11.33
	c3.13-3.129,8.203-3.13,11.329,0l23.053,23.052c3.13,3.129,3.13,8.2,0.001,11.329C90.66,207.284,88.609,208.066,86.56,208.066z"/>
<path style="fill:#FF9596;" d="M75.033,283.861c-2.05,0-4.101-0.782-5.666-2.347l-23.053-23.053c-3.129-3.129-3.129-8.201,0-11.329
	c3.13-3.129,8.201-3.129,11.33,0l23.053,23.053c3.129,3.129,3.129,8.201,0,11.329C79.134,283.078,77.083,283.861,75.033,283.861z"/>
<path style="fill:#FFD553;" d="M157.743,170.898c-2.051,0-4.101-0.782-5.666-2.347c-3.129-3.129-3.129-8.201,0-11.329l23.054-23.054
	c3.13-3.13,8.201-3.129,11.33,0c3.129,3.129,3.129,8.201,0,11.329l-23.054,23.054C161.844,170.117,159.793,170.898,157.743,170.898z
	"/>
<path style="fill:#FBD151;" d="M209.985,69.502c-2.051,0-4.101-0.782-5.666-2.347c-3.129-3.129-3.129-8.201,0-11.329l23.054-23.054
	c3.131-3.129,8.203-3.129,11.33,0c3.129,3.129,3.129,8.201,0,11.33L215.65,67.155C214.086,68.72,212.035,69.502,209.985,69.502z"/>
<path style="fill:#6CF5C5;" d="M115.318,244.783c-2.051,0-4.101-0.782-5.666-2.347c-3.129-3.129-3.129-8.201,0-11.33l23.054-23.054
	c3.131-3.13,8.203-3.129,11.33,0c3.129,3.129,3.129,8.201,0,11.329l-23.054,23.054C119.419,244,117.368,244.783,115.318,244.783z"/>
<path style="fill:#FFD553;" d="M328.233,126.572c-2.05,0-4.101-0.782-5.666-2.347c-3.129-3.129-3.129-8.201,0-11.329l23.054-23.054
	c3.13-3.129,8.201-3.129,11.331,0c3.129,3.129,3.129,8.201,0,11.329l-23.054,23.054C332.334,125.79,330.283,126.572,328.233,126.572
	z"/>
<g>
	<path style="fill:#FFFFFF;" d="M387.943,147.845c-2.051,0-4.101-0.782-5.666-2.347c-3.129-3.129-3.129-8.201,0-11.329
		l23.054-23.054c3.131-3.13,8.202-3.129,11.33,0c3.129,3.129,3.129,8.201,0,11.329l-23.054,23.054
		C392.044,147.063,389.993,147.845,387.943,147.845z"/>
	<path style="fill:#FFFFFF;" d="M288.76,81.029c-2.05,0-4.101-0.782-5.665-2.347c-3.13-3.129-3.13-8.2-0.001-11.329l23.053-23.054
		c3.13-3.129,8.203-3.13,11.329,0c3.13,3.129,3.13,8.2,0.001,11.329l-23.053,23.054C292.861,80.247,290.81,81.029,288.76,81.029z"/>
</g>
<g>
	<path style="fill:#6CF5C5;" d="M450.923,272.335c-2.05,0-4.101-0.782-5.666-2.347c-3.129-3.129-3.129-8.201,0-11.329l23.054-23.054
		c3.13-3.128,8.201-3.128,11.33,0c3.129,3.129,3.129,8.201,0,11.329l-23.054,23.054
		C455.023,271.553,452.974,272.335,450.923,272.335z"/>
	<path style="fill:#6CF5C5;" d="M170.121,104.083c-2.05,0-4.101-0.782-5.666-2.347l-23.054-23.054
		c-3.129-3.129-3.129-8.201,0-11.329c3.13-3.129,8.201-3.129,11.33,0l23.054,23.054c3.129,3.129,3.129,8.201,0,11.329
		C174.222,103.301,172.171,104.083,170.121,104.083z"/>
</g>
<path style="fill:#FF6376;" d="M121.001,148.054c-2.05,0-4.101-0.782-5.666-2.347l-23.054-23.054c-3.129-3.129-3.129-8.201,0-11.33
	c3.13-3.129,8.201-3.129,11.33,0l23.054,23.054c3.129,3.129,3.129,8.201,0,11.33C125.102,147.271,123.051,148.054,121.001,148.054z"
	/>
<g>
	<circle style="fill:#3F4963;" cx="144.054" cy="381.755" r="14.507"/>
	<circle style="fill:#3F4963;" cx="367.944" cy="381.755" r="14.506"/>
</g>
<g>
	<path style="fill:#FF6376;" d="M159.575,432.456H128.54c-4.425,0-8.011-3.587-8.011-8.011s3.586-8.011,8.011-8.011h31.035
		c4.425,0,8.011,3.587,8.011,8.011S163.999,432.456,159.575,432.456z"/>
	<path style="fill:#FF6376;" d="M383.461,432.456h-31.036c-4.425,0-8.011-3.587-8.011-8.011s3.586-8.011,8.011-8.011h31.036
		c4.425,0,8.011,3.587,8.011,8.011S387.887,432.456,383.461,432.456z"/>
</g>
<g>
	<path style="fill:#3F4963;" d="M234.959,422.432c-14.432,0-26.174-11.741-26.174-26.173c0-4.424,3.586-8.011,8.011-8.011
		s8.011,3.587,8.011,8.011c0,5.597,4.554,10.151,10.151,10.151s10.152-4.554,10.152-10.151c0-4.424,3.586-8.011,8.011-8.011
		s8.011,3.587,8.011,8.011C261.134,410.691,249.392,422.432,234.959,422.432z"/>
	<path style="fill:#3F4963;" d="M271.285,422.432c-14.432,0-26.174-11.741-26.174-26.173c0-4.424,3.586-8.011,8.011-8.011
		s8.011,3.587,8.011,8.011c0,5.597,4.554,10.151,10.151,10.151s10.151-4.554,10.151-10.151c0-4.424,3.586-8.011,8.011-8.011
		c4.425,0,8.011,3.587,8.011,8.011C297.458,410.691,285.716,422.432,271.285,422.432z"/>
</g>
<path d="M289.447,388.249c-4.425,0-8.011,3.587-8.011,8.011c0,5.597-4.554,10.151-10.151,10.151
	c-5.597,0-10.151-4.554-10.151-10.151c0-4.424-3.586-8.011-8.011-8.011c-4.425,0-8.011,3.587-8.011,8.011
	c0,5.597-4.555,10.151-10.152,10.151c-5.597,0-10.151-4.554-10.151-10.151c0-4.424-3.586-8.011-8.011-8.011
	s-8.011,3.587-8.011,8.011c0,14.432,11.741,26.173,26.174,26.173c7.05,0,13.453-2.806,18.163-7.354
	c4.711,4.548,11.112,7.354,18.162,7.354c14.432,0,26.173-11.741,26.173-26.173C297.458,391.836,293.871,388.249,289.447,388.249z
	 M144.056,367.253c-8.011,0-14.506,6.494-14.506,14.506c0,8.012,6.495,14.507,14.506,14.507c8.012,0,14.507-6.495,14.507-14.507
	C158.563,373.747,152.069,367.253,144.056,367.253z M367.944,367.253c-8.011,0-14.506,6.494-14.506,14.506
	c0,8.012,6.494,14.507,14.506,14.507s14.506-6.495,14.506-14.507C382.45,373.747,375.955,367.253,367.944,367.253z M437.019,74.981
	C388.667,26.629,324.38,0,256,0S123.333,26.629,74.981,74.981S0,187.62,0,256s26.629,132.667,74.981,181.019S187.62,512,256,512
	s132.667-26.629,181.019-74.981C485.373,388.667,512,324.38,512,256C512,187.62,485.371,123.333,437.019,74.981z M425.69,425.69
	c-45.326,45.326-105.59,70.288-169.689,70.288S131.637,471.016,86.312,425.69c-32.927-32.927-55.094-73.74-64.766-118.179
	c19.067,13.873,42.212,21.549,66.147,21.549c30.571,0,59.078-12.087,80.113-33.565c15.13,33.653,48.969,57.146,88.195,57.146
	s73.065-23.493,88.195-57.146c21.036,21.478,49.542,33.565,80.113,33.565c23.935,0,47.08-7.676,66.147-21.549
	C480.785,351.949,458.617,392.763,425.69,425.69z M175.382,256c0-44.453,36.165-80.618,80.618-80.618s80.618,36.165,80.618,80.618
	S300.454,336.618,256,336.618S175.382,300.453,175.382,256z M424.309,313.038c-28.998,0-55.831-12.686-74.222-34.929
	c1.668-7.102,2.555-14.504,2.555-22.108c0-53.288-43.353-96.641-96.641-96.641s-96.641,43.353-96.641,96.641
	c0,7.604,0.887,15.006,2.555,22.108c-18.392,22.244-45.225,34.929-74.222,34.929c-26.573,0-52.012-11.034-70.194-30.359
	c-0.968-8.8-1.476-17.7-1.476-26.68c0-64.1,24.962-124.363,70.288-169.689C131.636,40.985,191.9,16.023,256,16.023
	s124.364,24.962,169.689,70.288c45.326,45.326,70.288,105.59,70.288,169.689c0,8.98-0.508,17.88-1.475,26.68
	C476.321,302.003,450.881,313.038,424.309,313.038z"/>
<g>
</g>
<g>
</g>
<g>
</g>
<g>
</g>
<g>
</g>
<g>
</g>
<g>
</g>
<g>
</g>
<g>
</g>
<g>
</g>
<g>
</g>
<g>
</g>
<g>
</g>
<g>
</g>
<g>
</g>
</svg>
