<?xml version="1.0" encoding="iso-8859-1"?>
<!-- Generator: Adobe Illustrator 19.0.0, SVG Export Plug-In . SVG Version: 6.00 Build 0)  -->
<svg version="1.1" id="Layer_1" xmlns="http://www.w3.org/2000/svg" xmlns:xlink="http://www.w3.org/1999/xlink" x="0px" y="0px"
	 viewBox="0 0 511.999 511.999" style="enable-background:new 0 0 511.999 511.999;" xml:space="preserve">
<path style="fill:#8162D7;" d="M120.65,216.327C267.545,141.874,288.431,51.162,352.364,51.162
	c35.309,0,63.932,28.623,63.932,63.932c0,98.95-16.734,388.908-225.992,388.908c-84.088,0-152.254-68.166-152.254-152.254
	c0-59.22,33.81-110.543,83.179-135.719L120.65,216.327z"/>
<circle style="fill:#3F4963;" cx="138.766" cy="321.448" r="15.109"/>
<path style="fill:#FF9596;" d="M154.926,369.456h-32.327c-4.417,0-7.998-3.581-7.998-7.998c0-4.417,3.581-7.998,7.998-7.998h32.327
	c4.417,0,7.998,3.581,7.998,7.998C162.925,365.874,159.344,369.456,154.926,369.456z"/>
<circle style="fill:#3F4963;" cx="287.407" cy="321.448" r="15.109"/>
<path style="fill:#FF9596;" d="M303.571,369.456h-32.327c-4.418,0-7.998-3.581-7.998-7.998c0-4.417,3.58-7.998,7.998-7.998h32.327
	c4.418,0,7.998,3.581,7.998,7.998C311.569,365.874,307.988,369.456,303.571,369.456z"/>
<g>
	<path style="fill:#3F4963;" d="M198.064,356.602c-12.693,0-23.019-10.325-23.019-23.017c0-4.417,3.581-7.998,7.998-7.998
		s7.998,3.581,7.998,7.998c0,3.871,3.15,7.02,7.023,7.02c3.872,0,7.023-3.149,7.023-7.02c0-4.417,3.581-7.998,7.998-7.998
		s7.998,3.581,7.998,7.998C221.084,346.276,210.757,356.602,198.064,356.602z"/>
	<path style="fill:#3F4963;" d="M228.106,356.602c-12.693,0-23.019-10.325-23.019-23.017c0-4.417,3.581-7.998,7.998-7.998
		s7.998,3.581,7.998,7.998c0,3.871,3.15,7.02,7.023,7.02c3.871,0,7.021-3.149,7.021-7.02c0-4.417,3.581-7.998,7.998-7.998
		s7.998,3.581,7.998,7.998C251.124,346.276,240.798,356.602,228.106,356.602z"/>
</g>
<path style="fill:#6CF5C5;" d="M473.929,141.816c-0.566-13.273-4.027-41.191-22.274-59.436
	c-18.246-18.248-46.165-21.709-59.436-22.274c-2.717-0.116-6.713-2.153-8.927-4.187c-9.785-8.983-31.974-26.277-57.78-26.279
	c-25.805,0.001-47.993,17.297-57.779,26.28c-4.233,3.886-4.199,6.706,0,10.559c8.185,7.514,25.047,20.835,45.442,24.995
	c-11.588,17.398-14.107,38.858-14.583,49.997c-0.244,5.741,1.773,7.71,7.467,7.467c11.101-0.475,32.444-2.979,49.806-14.46
	c4.109,20.496,17.501,37.453,25.043,45.665c3.885,4.233,6.706,4.198,10.56,0c7.513-8.185,20.833-25.047,24.993-45.442
	c17.398,11.587,38.856,14.106,49.998,14.583C472.203,149.529,474.173,147.511,473.929,141.816z"/>
<path style="fill:#46C79C;" d="M386.189,83.026c-5.677,0-11.356-2.166-15.687-6.499c-8.665-8.665-8.667-22.713-0.002-31.378
	l30.653-30.653c8.665-8.665,22.712-8.665,31.377,0s8.667,22.713,0.002,31.378l-30.653,30.653
	C397.547,80.86,391.867,83.026,386.189,83.026z"/>
<path d="M138.759,306.336c-8.344,0-15.109,6.764-15.109,15.109c0,8.346,6.766,15.11,15.109,15.11c8.345,0,15.109-6.764,15.109-15.11
	C153.869,313.1,147.104,306.336,138.759,306.336z M481.917,141.476c-0.669-15.661-4.754-44.897-24.608-64.751
	c-7.258-7.258-16.37-12.991-27.175-17.142l8.052-8.052c5.701-5.701,8.841-13.283,8.84-21.346
	c-0.001-8.062-3.141-15.643-8.842-21.344C432.481,3.14,424.901,0,416.838,0c-8.063,0-15.643,3.14-21.345,8.841l-26.38,26.38
	c-14.562-8.898-29.521-13.578-43.605-13.58c-28.077,0.001-51.641,17.786-63.188,28.387c-1.423,1.306-5.751,5.28-5.75,11.174
	c0,5.891,4.329,9.865,5.75,11.169c3.633,3.336,8.852,7.717,15.275,12.034c-4.013,3.977-8.139,8.16-12.412,12.494
	c-30.821,31.262-72.992,74.035-147.307,111.863c-0.096,0.045-0.191,0.091-0.286,0.139c-53.998,27.539-87.542,82.274-87.542,142.846
	c0,88.364,71.889,160.253,160.254,160.253c47.503,0,88.767-14.574,122.643-43.318c28.566-24.238,52.124-58.804,70.019-102.734
	c29.457-72.32,38.549-156.638,40.74-218.179c16.036,7.231,32.758,9.095,42.416,9.507c1.935,0.084,7.801,0.332,11.967-3.836
	C482.25,149.274,481.999,143.403,481.917,141.476z M376.152,50.806l30.653-30.653c2.68-2.68,6.242-4.156,10.032-4.156
	c3.79,0,7.353,1.476,10.033,4.156c2.68,2.68,4.156,6.243,4.156,10.033s-1.476,7.353-4.155,10.033l-30.653,30.653
	c-2.68,2.68-6.242,4.155-10.033,4.155c-3.79,0-7.352-1.476-10.032-4.156c-2.68-2.68-4.156-6.243-4.156-10.034
	C371.997,57.048,373.472,53.484,376.152,50.806z M368.148,359.912c-36.784,90.303-96.62,136.09-177.847,136.09
	c-79.544,0-144.257-64.713-144.257-144.256c0-54.249,29.888-103.296,78.066-128.21c0.05-0.025,0.102-0.049,0.152-0.075
	c77.171-39.114,120.601-83.166,152.313-115.331c5.378-5.455,10.518-10.667,15.444-15.473c2.922,1.384,5.974,2.662,9.144,3.769
	c-8.121,16.714-10.131,34.587-10.563,44.704c-0.082,1.929-0.332,7.799,3.836,11.967c4.164,4.167,10.038,3.915,11.964,3.832
	c10.056-0.43,27.818-2.421,44.474-10.455c6.077,17.564,17.295,31.622,24.142,39.079c1.305,1.423,5.278,5.751,11.173,5.751
	c0.001,0,0,0,0.001,0c5.89,0,9.865-4.329,11.172-5.751c2.548-2.776,5.706-6.471,8.979-10.925
	C400.509,263.59,382.874,323.758,368.148,359.912z M420.895,128.045c-2.214-1.476-5.02-1.751-7.482-0.738
	c-2.461,1.015-4.256,3.188-4.788,5.796c-3.663,17.956-15.364,33.128-22.437,40.96c-7.11-7.869-18.865-23.116-22.482-41.156
	c-0.523-2.611-2.311-4.789-4.769-5.812c-2.459-1.023-5.265-0.755-7.485,0.712c-15.285,10.108-34.287,12.561-44.828,13.097
	c0.539-10.594,3.009-29.69,13.206-44.997c1.476-2.216,1.753-5.021,0.737-7.482c-1.014-2.461-3.187-4.256-5.795-4.788
	c-17.958-3.663-33.128-15.364-40.96-22.438c23.483-21.247,43.943-23.561,51.697-23.561c12.587,0.001,24.359,4.867,33.444,10.152
	c-1.93,4.022-2.952,8.457-2.952,13.05c0.001,8.062,3.141,15.643,8.842,21.343c5.7,5.702,13.28,8.842,21.344,8.842
	c8.066,0,15.646-3.14,21.346-8.841l9.98-9.98c11.825,3.433,21.396,8.744,28.485,15.832c5.485,5.485,18.317,21.587,19.897,53.215
	C455.298,140.711,436.202,138.239,420.895,128.045z M243.122,325.586c-4.417,0-7.998,3.581-7.998,7.998
	c0,3.871-3.15,7.02-7.021,7.02c-3.872,0-7.023-3.149-7.023-7.02c0-4.417-3.58-7.998-7.998-7.998c-4.418,0-7.998,3.581-7.998,7.998
	c0,3.871-3.149,7.02-7.021,7.02c-3.872,0-7.023-3.149-7.023-7.02c0-4.417-3.581-7.998-7.998-7.998c-4.417,0-7.998,3.581-7.998,7.998
	c0,12.692,10.326,23.017,23.019,23.017c5.741,0,10.984-2.126,15.02-5.615c4.036,3.488,9.28,5.615,15.021,5.615
	c12.692,0,23.018-10.325,23.018-23.017C251.12,329.167,247.539,325.586,243.122,325.586z M287.404,306.336
	c-8.346,0-15.109,6.764-15.109,15.109c0,8.346,6.763,15.11,15.109,15.11c8.344,0,15.109-6.764,15.109-15.11
	C302.513,313.1,295.749,306.336,287.404,306.336z"/>
<g>
</g>
<g>
</g>
<g>
</g>
<g>
</g>
<g>
</g>
<g>
</g>
<g>
</g>
<g>
</g>
<g>
</g>
<g>
</g>
<g>
</g>
<g>
</g>
<g>
</g>
<g>
</g>
<g>
</g>
</svg>
