<?xml version="1.0" encoding="iso-8859-1"?>
<!-- Generator: Adobe Illustrator 19.0.0, SVG Export Plug-In . SVG Version: 6.00 Build 0)  -->
<svg version="1.1" id="Layer_1" xmlns="http://www.w3.org/2000/svg" xmlns:xlink="http://www.w3.org/1999/xlink" x="0px" y="0px"
	 viewBox="0 0 512 512" style="enable-background:new 0 0 512 512;" xml:space="preserve">
<path style="fill:#C3DDF7;" d="M364.241,230.962c-4.246,4.248-11.198,4.248-15.446,0.001L197.441,79.606
	c-4.249-4.246-4.246-11.198,0-15.446l52.975-52.975c4.246-4.246,11.198-4.248,15.444,0l151.357,151.357
	c4.248,4.246,4.248,11.197-0.002,15.444L364.241,230.962z"/>
<g>
	<path style="fill:#3F4963;" d="M368.688,168.436c-2.047,0-4.095-0.781-5.658-2.342L262.308,65.373
		c-3.124-3.125-3.124-8.19,0-11.315c3.125-3.123,8.19-3.123,11.314,0l100.722,100.721c3.124,3.125,3.124,8.19,0,11.314
		C372.782,167.655,370.735,168.436,368.688,168.436z"/>
	<path style="fill:#3F4963;" d="M329.612,173.355c-2.048,0-4.095-0.781-5.658-2.344l-66.562-66.563
		c-3.124-3.125-3.124-8.19,0-11.314c3.125-3.123,8.19-3.123,11.314,0l66.562,66.564c3.124,3.125,3.124,8.19,0,11.314
		C333.707,172.573,331.659,173.355,329.612,173.355z"/>
</g>
<path style="fill:#FFD553;" d="M412.814,129.048c-4.732-5.017-6.907-6.038-14.505-5.327
	c-62.224,5.813-114.414,48.855-136.812,108.073v-0.007c-2.432,6.098-3.818,7.517-5.497,7.517c-1.679,0-3.062-1.419-5.497-7.517
	l-0.002,0.004c-22.4-59.217-74.589-102.256-136.81-108.071c-7.598-0.711-9.773,0.31-14.505,5.327
	c-40.365,42.822-65.345,102.067-65.345,167.524c0,130.616,99.464,207.428,222.155,207.428h0.004
	c122.692,0,222.156-76.812,222.156-207.428C478.159,231.115,453.179,171.87,412.814,129.048z"/>
<path style="fill:#FF6376;" d="M383.283,344.756H352.29c-4.419,0-8-3.581-8-8c0-4.419,3.581-8,8-8h30.992c4.419,0,8,3.581,8,8
	C391.283,341.175,387.702,344.756,383.283,344.756z"/>
<g>
	<path style="fill:#3F4963;" d="M237.864,334.748c-14.413,0-26.138-11.725-26.138-26.138c0-4.419,3.581-8,8-8s8,3.581,8,8
		c0,5.589,4.548,10.138,10.138,10.138c5.588,0,10.136-4.548,10.136-10.138c0-4.419,3.581-8,8-8c4.419,0,8,3.581,8,8
		C264,323.023,252.276,334.748,237.864,334.748z"/>
	<path style="fill:#3F4963;" d="M274.138,334.748c-14.413,0-26.138-11.725-26.138-26.138c0-4.419,3.581-8,8-8c4.419,0,8,3.581,8,8
		c0,5.589,4.548,10.138,10.138,10.138c5.588,0,10.136-4.548,10.136-10.138c0-4.419,3.581-8,8-8s8,3.581,8,8
		C300.274,323.023,288.55,334.748,274.138,334.748z"/>
	<path style="fill:#3F4963;" d="M382.273,309.65c-4.419,0-8-3.581-8-8c0-3.577-2.91-6.485-6.485-6.485
		c-3.577,0-6.485,2.91-6.485,6.485c0,4.419-3.582,8-8,8c-4.419,0-8-3.581-8-8c0-12.399,10.087-22.486,22.486-22.486
		s22.486,10.087,22.486,22.486C390.273,306.069,386.692,309.65,382.273,309.65z"/>
</g>
<path style="fill:#FF6376;" d="M159.71,344.756h-30.992c-4.419,0-8-3.581-8-8c0-4.419,3.581-8,8-8h30.992c4.419,0,8,3.581,8,8
	C167.71,341.175,164.128,344.756,159.71,344.756z"/>
<g>
	<path style="fill:#3F4963;" d="M158.698,309.65c-4.419,0-8-3.581-8-8c0-3.577-2.91-6.485-6.485-6.485
		c-3.577,0-6.485,2.91-6.485,6.485c0,4.419-3.581,8-8,8c-4.419,0-8-3.581-8-8c0-12.399,10.087-22.486,22.486-22.486
		c12.399,0,22.486,10.087,22.486,22.486C166.699,306.069,163.118,309.65,158.698,309.65z"/>
	<circle style="opacity:0.2;fill:#3F4963;enable-background:new    ;" cx="127.756" cy="191.576" r="14.304"/>
	<circle style="opacity:0.2;fill:#3F4963;enable-background:new    ;" cx="364.751" cy="199.565" r="14.304"/>
	<circle style="opacity:0.2;fill:#3F4963;enable-background:new    ;" cx="416.581" cy="248.963" r="14.304"/>
	<circle style="opacity:0.2;fill:#3F4963;enable-background:new    ;" cx="142.06" cy="425.552" r="14.304"/>
	<circle style="opacity:0.2;fill:#3F4963;enable-background:new    ;" cx="350.447" cy="397.328" r="14.304"/>
	<circle style="opacity:0.2;fill:#3F4963;enable-background:new    ;" cx="187.352" cy="397.701" r="14.304"/>
	<circle style="opacity:0.2;fill:#3F4963;enable-background:new    ;" cx="292.27" cy="446.203" r="14.304"/>
	<circle style="opacity:0.2;fill:#3F4963;enable-background:new    ;" cx="187.352" cy="234.659" r="14.304"/>
	<circle style="opacity:0.2;fill:#3F4963;enable-background:new    ;" cx="74.664" cy="313.764" r="14.304"/>
</g>
<path d="M144.213,279.164c-12.399,0-22.486,10.085-22.486,22.486c0,4.419,3.581,8,8,8c4.419,0,8-3.581,8-8
	c0-3.577,2.91-6.485,6.485-6.485c3.576,0,6.485,2.909,6.485,6.485c0,4.419,3.581,8,8,8c4.419,0,8-3.581,8-8
	C166.699,289.25,156.612,279.164,144.213,279.164z M418.633,123.56c-4.917-5.217-9.027-8.042-16.643-8.042
	c-1.291,0-2.697,0.075-4.425,0.238c-4.666,0.435-9.294,1.098-13.885,1.934L271.518,5.53C267.953,1.963,263.201,0,258.138,0
	c-5.062,0-9.813,1.963-13.379,5.528l-52.975,52.976c-3.565,3.567-5.529,8.317-5.53,13.379c0,5.065,1.965,9.817,5.53,13.382
	l92.062,92.062c-11.434,13.917-20.85,29.615-27.846,46.611c-11.773-28.602-30.353-53.57-53.975-72.455
	c-25.518-20.402-55.806-32.757-87.587-35.725c-1.73-0.162-3.136-0.238-4.427-0.238c-7.616,0-11.725,2.825-16.644,8.042
	c-43.543,46.193-67.524,107.637-67.524,173.012c0,64.632,23.435,119.506,67.77,158.69C135.014,491.85,192.683,512,255.998,512h0.004
	c63.315,0,120.985-20.151,162.385-56.738c44.337-39.183,67.77-94.058,67.77-158.69C486.159,231.197,462.178,169.753,418.633,123.56z
	 M203.096,73.947c-0.733-0.732-0.842-1.606-0.842-2.063c0.001-0.459,0.111-1.333,0.844-2.067l52.975-52.976
	c0.732-0.734,1.609-0.842,2.065-0.842s1.332,0.109,2.065,0.842l105.271,105.27c-5.905,1.801-11.71,3.935-17.393,6.402
	l-74.457-74.457c-3.125-3.123-8.19-3.123-11.314,0c-3.124,3.125-3.124,8.19,0,11.314l70.645,70.645
	c-4.493,2.521-8.898,5.235-13.179,8.186l-51.068-51.069c-3.125-3.123-8.19-3.123-11.314,0c-3.124,3.125-3.124,8.19,0,11.314
	l49.544,49.544c-4.306,3.606-8.433,7.417-12.376,11.421L203.096,73.947z M407.792,443.273
	c-38.473,34.003-92.379,52.728-151.79,52.728h-0.004c-59.41,0-113.316-18.726-151.79-52.728
	c-40.801-36.059-62.367-86.786-62.367-146.699c0-61.28,22.432-118.824,63.165-162.035c2.847-3.019,3.092-3.019,5.003-3.019
	c0.77,0,1.73,0.054,2.938,0.169c28.666,2.677,56.014,13.843,79.087,32.292c22.754,18.192,40.385,42.619,50.985,70.643
	c0.045,0.121,0.094,0.24,0.145,0.356c1.885,4.715,5.044,12.326,12.836,12.326c7.807,0,10.964-7.633,12.846-12.348
	c0.047-0.109,0.092-0.219,0.133-0.331c10.599-28.022,28.23-52.451,50.985-70.645c23.073-18.448,50.422-29.615,79.091-32.292
	c1.205-0.114,2.165-0.169,2.936-0.169c1.91,0,2.156,0,5.001,3.017c40.734,43.213,63.167,100.758,63.167,162.037
	C470.158,356.486,448.592,407.214,407.792,443.273z M367.787,279.164c-12.399,0-22.486,10.085-22.486,22.486c0,4.419,3.581,8,8,8
	c4.418,0,8-3.581,8-8c0-3.577,2.909-6.485,6.485-6.485c3.577,0,6.485,2.909,6.485,6.485c0,4.419,3.581,8,8,8c4.419,0,8-3.581,8-8
	C390.273,289.25,380.186,279.164,367.787,279.164z M292.273,300.61c-4.419,0-8,3.581-8,8c0,5.589-4.547,10.138-10.136,10.138
	c-5.589,0-10.138-4.548-10.138-10.138c0-4.419-3.581-8-8-8c-4.419,0-8,3.581-8,8c0,5.589-4.547,10.138-10.136,10.138
	c-5.589,0-10.138-4.548-10.138-10.138c0-4.419-3.581-8-8-8s-8,3.581-8,8c0,14.413,11.725,26.138,26.138,26.138
	c7.04,0,13.433-2.802,18.136-7.344c4.704,4.542,11.098,7.344,18.138,7.344c14.412,0,26.136-11.725,26.136-26.138
	C300.274,304.192,296.693,300.61,292.273,300.61z"/>
<g>
</g>
<g>
</g>
<g>
</g>
<g>
</g>
<g>
</g>
<g>
</g>
<g>
</g>
<g>
</g>
<g>
</g>
<g>
</g>
<g>
</g>
<g>
</g>
<g>
</g>
<g>
</g>
<g>
</g>
</svg>
