<?xml version="1.0" encoding="iso-8859-1"?>
<!-- Generator: Adobe Illustrator 19.0.0, SVG Export Plug-In . SVG Version: 6.00 Build 0)  -->
<svg version="1.1" id="Layer_1" xmlns="http://www.w3.org/2000/svg" xmlns:xlink="http://www.w3.org/1999/xlink" x="0px" y="0px"
	 viewBox="0 0 511.999 511.999" style="enable-background:new 0 0 511.999 511.999;" xml:space="preserve">
<g>
	<path style="fill:#FFD553;" d="M344.855,305.434c0,11.685-9.559,21.245-21.244,21.245H251.38c-11.685,0-21.244-9.561-21.244-21.245
		V29.257c0-11.686,9.56-21.244,21.244-21.244h72.231c11.686,0,21.244,9.56,21.244,21.244V305.434z"/>
	<path style="fill:#FFD553;" d="M438.487,316.296c-1.619,11.571-12.408,19.715-23.98,18.098l-71.537-10
		c-11.572-1.619-19.715-12.41-18.098-23.98l38.241-273.517c1.62-11.571,12.409-19.717,23.981-18.098l71.534,10
		c11.571,1.619,19.715,12.41,18.098,23.981L438.487,316.296z"/>
</g>
<g>
	<path style="fill:#FDBA55;" d="M270.943,331.774c0.952,11.645-7.799,21.952-19.444,22.903l-71.99,5.883
		c-11.645,0.952-21.953-7.798-22.903-19.443L134.11,65.858c-0.952-11.646,7.798-21.953,19.444-22.903l71.991-5.882
		c11.645-0.952,21.953,7.797,22.905,19.443L270.943,331.774z"/>
	<path style="fill:#FDBA55;" d="M406.461,359.896c-0.714,11.663-10.838,20.621-22.501,19.908l-72.095-4.411
		c-11.663-0.714-20.621-10.838-19.908-22.503l16.863-275.661c0.714-11.662,10.841-20.621,22.503-19.908l72.097,4.41
		c11.664,0.714,20.621,10.84,19.908,22.503L406.461,359.896z"/>
</g>
<path style="fill:#FFD553;" d="M204.773,299.032c2.41,11.434-4.971,22.76-16.404,25.172l-70.677,14.906
	c-11.433,2.411-22.76-4.969-25.171-16.404L35.529,52.475c-2.411-11.434,4.97-22.761,16.403-25.173l70.676-14.905
	c11.433-2.412,22.76,4.969,25.171,16.403L204.773,299.032z"/>
<path style="fill:#FF6376;" d="M358.877,175.753c-11.685,0-23.239,9.349-25.675,20.777L322.71,245.71
	c-2.437,11.427-13.992,20.776-25.676,20.776H226.17c-11.685,0-23.239-9.349-25.677-20.776l-10.489-49.179
	c-2.437-11.427-13.992-20.777-25.677-20.777H66.165c-11.685,0-19.741,9.441-17.904,20.98l45.588,286.274
	c1.838,11.539,12.901,20.98,24.585,20.98h286.335c11.685,0,22.747-9.441,24.587-20.98l45.587-286.274
	c1.839-11.539-6.219-20.98-17.904-20.98H358.877z"/>
<polygon style="fill:#FFD553;" points="85.43,430.142 91,465.116 432.205,465.116 437.775,430.142 "/>
<g>
	<circle style="fill:#3F4963;" cx="149.634" cy="327.933" r="14.508"/>
	<circle style="fill:#3F4963;" cx="373.562" cy="327.933" r="14.508"/>
</g>
<g>
	<path style="fill:#FF9596;" d="M165.16,378.634h-31.041c-4.425,0-8.013-3.588-8.013-8.013c0-4.425,3.588-8.013,8.013-8.013h31.041
		c4.425,0,8.013,3.588,8.013,8.013C173.172,375.046,169.585,378.634,165.16,378.634z"/>
	<path style="fill:#FF9596;" d="M389.084,378.634h-31.041c-4.426,0-8.013-3.588-8.013-8.013c0-4.425,3.586-8.013,8.013-8.013h31.041
		c4.425,0,8.013,3.588,8.013,8.013C397.097,375.046,393.511,378.634,389.084,378.634z"/>
</g>
<g>
	<path style="fill:#3F4963;" d="M243.436,368.608c-14.435,0-26.178-11.743-26.178-26.177c0-4.425,3.588-8.013,8.013-8.013
		s8.013,3.588,8.013,8.013c0,5.598,4.554,10.152,10.153,10.152s10.154-4.554,10.154-10.152c0-4.425,3.586-8.013,8.013-8.013
		s8.013,3.588,8.013,8.013C269.615,356.866,257.872,368.608,243.436,368.608z"/>
	<path style="fill:#3F4963;" d="M279.768,368.608c-14.435,0-26.178-11.743-26.178-26.177c0-4.425,3.586-8.013,8.013-8.013
		s8.013,3.588,8.013,8.013c0,5.598,4.554,10.152,10.153,10.152c5.597,0,10.152-4.554,10.152-10.152c0-4.425,3.586-8.013,8.013-8.013
		c4.426,0,8.013,3.588,8.013,8.013C305.945,356.866,294.202,368.608,279.768,368.608z"/>
</g>
<path d="M459.737,10.861l-71.534-10c-15.971-2.236-30.79,8.948-33.026,24.925l-2.308,16.508V29.257
	C352.869,13.125,339.744,0,323.612,0h-72.23c-16.133,0-29.258,13.125-29.258,29.257v0.054l-64.928,5.305l-1.576-7.471
	c-1.607-7.624-6.106-14.177-12.668-18.453c-6.561-4.277-14.373-5.745-21.996-4.137L50.279,19.462
	c-7.624,1.608-14.177,6.107-18.454,12.668c-4.276,6.562-5.745,14.375-4.136,21.998l24.731,117.267
	c-2.403,1.406-4.561,3.193-6.375,5.32c-4.867,5.703-6.943,13.459-5.699,21.279l45.588,286.273
	c2.476,15.551,16.752,27.732,32.498,27.732h286.335c15.745,0,30.021-12.181,32.499-27.732l45.587-286.273
	c1.246-7.819-0.83-15.576-5.698-21.278c-2.704-3.169-6.17-5.583-10.074-7.107l17.577-125.72
	C486.895,27.912,475.714,13.096,459.737,10.861z M402.932,69.73c3.504,0.215,6.731,1.797,9.083,4.457
	c2.353,2.659,3.531,6.053,3.316,9.559l-5.14,83.995h-51.314c-15.55,0-30.27,11.912-33.511,27.118l-10.491,49.18
	c-1.007,4.725-4.548,9.085-8.948,11.752l10.893-178.072c0.214-3.504,1.797-6.73,4.456-9.082c2.66-2.354,6.057-3.528,9.559-3.316
	L402.932,69.73z M238.15,29.257c0-7.297,5.936-13.232,13.233-13.232h72.23c7.296,0,13.232,5.936,13.232,13.232v20.375l-5.03-0.308
	c-7.785-0.479-15.289,2.12-21.156,7.309c-5.865,5.189-9.359,12.33-9.834,20.107l-11.117,181.734h-16.711L256.437,55.862
	c-0.635-7.766-4.272-14.833-10.242-19.901c-2.445-2.075-5.16-3.702-8.045-4.866V29.257z M226.198,45.057
	c3.494-0.288,6.918,0.822,9.626,3.12c2.706,2.298,4.355,5.49,4.641,8.99l16.451,201.306h-30.746
	c-7.862,0-16.198-6.746-17.839-14.435l-10.489-49.18c-1.483-6.954-5.372-13.215-10.637-17.967L160.53,50.423L226.198,45.057z
	 M43.37,50.821c-0.724-3.436-0.056-6.967,1.885-9.942c1.939-2.974,4.897-5.012,8.333-5.736l70.676-14.906
	c3.436-0.725,6.966-0.056,9.94,1.882c2.975,1.938,5.012,4.897,5.737,8.333l29.031,137.643c-1.533-0.231-3.083-0.356-4.643-0.356
	H68.03L43.37,50.821z M467.031,195.474l-45.587,286.272c-1.23,7.712-8.865,14.228-16.674,14.228H118.435
	c-7.809,0-15.444-6.516-16.672-14.227L56.175,195.473c-0.514-3.226,0.219-6.194,2.064-8.356c1.844-2.161,4.659-3.351,7.927-3.351
	h98.162c7.862,0,16.2,6.746,17.839,14.436l10.489,49.18c3.244,15.206,17.964,27.117,33.512,27.117h70.865
	c15.549,0,30.269-11.911,33.512-27.117l10.491-49.181c1.639-7.69,9.975-14.436,17.838-14.436h98.163c3.268,0,6.083,1.19,7.928,3.353
	C466.812,189.279,467.545,192.247,467.031,195.474z M468.79,41.669l-17.625,126.072h-24.916l5.079-83.017
	c0.475-7.777-2.12-15.289-7.309-21.156c-5.189-5.865-12.33-9.358-20.108-9.834l-36.151-2.212l3.287-23.518
	c1.011-7.226,7.707-12.286,14.937-11.272l71.533,9.999C464.744,27.743,469.8,34.443,468.79,41.669z M149.64,313.42
	c-8.013,0-14.508,6.497-14.508,14.509c0,8.014,6.496,14.509,14.508,14.509c8.013,0,14.508-6.496,14.508-14.509
	C164.148,319.916,157.652,313.42,149.64,313.42z M373.565,313.42c-8.013,0-14.508,6.497-14.508,14.509
	c0,8.014,6.496,14.509,14.508,14.509c8.013,0,14.508-6.496,14.508-14.509C388.074,319.916,381.578,313.42,373.565,313.42z
	 M297.933,334.42c-4.426,0-8.013,3.588-8.013,8.013c0,5.597-4.554,10.152-10.152,10.152c-5.598,0-10.153-4.554-10.153-10.152
	c0-4.425-3.586-8.013-8.013-8.013s-8.013,3.588-8.013,8.013c0,5.597-4.555,10.152-10.154,10.152
	c-5.597,0-10.153-4.554-10.153-10.152c0-4.425-3.586-8.013-8.013-8.013c-4.426,0-8.013,3.588-8.013,8.013
	c0,14.434,11.743,26.177,26.178,26.177c7.051,0,13.455-2.807,18.166-7.355c4.711,4.548,11.114,7.355,18.165,7.355
	c14.435,0,26.177-11.743,26.177-26.177C305.946,338.006,302.359,334.42,297.933,334.42z"/>
<g>
</g>
<g>
</g>
<g>
</g>
<g>
</g>
<g>
</g>
<g>
</g>
<g>
</g>
<g>
</g>
<g>
</g>
<g>
</g>
<g>
</g>
<g>
</g>
<g>
</g>
<g>
</g>
<g>
</g>
</svg>
