<?xml version="1.0" encoding="iso-8859-1"?>
<!-- Generator: Adobe Illustrator 19.0.0, SVG Export Plug-In . SVG Version: 6.00 Build 0)  -->
<svg version="1.1" id="Layer_1" xmlns="http://www.w3.org/2000/svg" xmlns:xlink="http://www.w3.org/1999/xlink" x="0px" y="0px"
	 viewBox="0 0 512.003 512.003" style="enable-background:new 0 0 512.003 512.003;" xml:space="preserve">
<path style="fill:#F0F8C6;" d="M316.382,496.277c-33.209-10.788-87.552-10.788-120.762,0c-33.209,10.792-70.419-7.128-82.687-39.821
	s-46.15-75.179-75.292-94.415C8.5,342.804-0.69,302.539,17.22,272.564c17.909-29.975,30.002-82.955,26.872-117.733
	c-3.129-34.779,22.62-67.067,57.223-71.753c34.6-4.686,83.56-28.265,108.799-52.395c25.239-24.131,66.538-24.131,91.777,0
	c25.239,24.131,74.2,47.71,108.802,52.395c34.601,4.687,60.352,36.975,57.222,71.753c-3.129,34.776,8.962,87.758,26.87,117.733
	c17.91,29.976,8.719,70.241-20.421,89.478c-29.141,19.236-63.022,61.722-75.293,94.415
	C386.803,489.15,349.593,507.069,316.382,496.277z"/>
<circle style="fill:#FFD553;" cx="256.006" cy="256.004" r="148.559"/>
<g>
	<path style="fill:#3F4963;" d="M240.884,262.247c-12.777,0-23.172-10.393-23.172-23.168c0-4.447,3.605-8.051,8.051-8.051
		s8.051,3.604,8.051,8.051c0,3.896,3.172,7.066,7.07,7.066c3.897,0,7.068-3.17,7.068-7.066c0-4.447,3.605-8.051,8.051-8.051
		c4.447,0,8.051,3.604,8.051,8.051C264.054,251.854,253.659,262.247,240.884,262.247z"/>
	<path style="fill:#3F4963;" d="M271.121,262.247c-12.775,0-23.17-10.393-23.17-23.168c0-4.447,3.605-8.051,8.051-8.051
		c4.447,0,8.051,3.604,8.051,8.051c0,3.896,3.17,7.066,7.068,7.066c3.898,0,7.068-3.17,7.068-7.066c0-4.447,3.604-8.051,8.051-8.051
		c4.446,0,8.051,3.604,8.051,8.051C294.291,251.854,283.897,262.247,271.121,262.247z"/>
</g>
<path style="fill:#FF6376;" d="M347.085,275.185h-32.532c-4.447,0-8.051-3.604-8.051-8.051c0-4.447,3.604-8.051,8.051-8.051h32.532
	c4.447,0,8.051,3.604,8.051,8.051C355.136,271.582,351.531,275.185,347.085,275.185z"/>
<path style="fill:#3F4963;" d="M346.024,238.335c-4.447,0-8.051-3.605-8.051-8.051c0-3.945-3.209-7.154-7.154-7.154
	c-3.945,0-7.154,3.209-7.154,7.154c0,4.446-3.605,8.051-8.051,8.051c-4.447,0-8.051-3.605-8.051-8.051
	c0-12.823,10.433-23.256,23.256-23.256c12.823,0,23.256,10.433,23.256,23.256C354.075,234.731,350.471,238.335,346.024,238.335z"/>
<path style="fill:#FF6376;" d="M197.452,275.185H164.92c-4.446,0-8.051-3.604-8.051-8.051c0-4.447,3.605-8.051,8.051-8.051h32.532
	c4.446,0,8.051,3.604,8.051,8.051C205.503,271.582,201.898,275.185,197.452,275.185z"/>
<g>
	<path style="fill:#3F4963;" d="M196.391,238.335c-4.446,0-8.051-3.605-8.051-8.051c0-3.945-3.209-7.154-7.154-7.154
		s-7.154,3.209-7.154,7.154c0,4.446-3.605,8.051-8.051,8.051c-4.446,0-8.051-3.605-8.051-8.051
		c0-12.823,10.432-23.256,23.256-23.256s23.256,10.433,23.256,23.256C204.442,234.731,200.837,238.335,196.391,238.335z"/>
	<circle style="opacity:0.2;fill:#3F4963;enable-background:new    ;" cx="334.327" cy="441.523" r="14.395"/>
	<circle style="opacity:0.2;fill:#3F4963;enable-background:new    ;" cx="375.774" cy="398.777" r="14.395"/>
	<circle style="opacity:0.2;fill:#3F4963;enable-background:new    ;" cx="404.564" cy="132.554" r="14.395"/>
	<circle style="opacity:0.2;fill:#3F4963;enable-background:new    ;" cx="265.023" cy="441.523" r="14.395"/>
	<circle style="opacity:0.2;fill:#3F4963;enable-background:new    ;" cx="265.023" cy="62.929" r="14.395"/>
	<circle style="opacity:0.2;fill:#3F4963;enable-background:new    ;" cx="67.814" cy="314.133" r="14.395"/>
</g>
<path d="M330.819,207.027c-12.823,0-23.256,10.433-23.256,23.256c0,4.447,3.604,8.051,8.051,8.051c4.446,0,8.051-3.604,8.051-8.051
	c0-3.944,3.209-7.154,7.154-7.154c3.945,0,7.154,3.21,7.154,7.154c0,4.447,3.604,8.051,8.051,8.051c4.447,0,8.051-3.604,8.051-8.051
	C354.075,217.46,343.642,207.027,330.819,207.027z M181.186,207.027c-12.823,0-23.256,10.433-23.256,23.256
	c0,4.447,3.604,8.051,8.051,8.051c4.447,0,8.051-3.604,8.051-8.051c0-3.944,3.209-7.154,7.154-7.154s7.154,3.21,7.154,7.154
	c0,4.447,3.604,8.051,8.051,8.051s8.051-3.604,8.051-8.051C204.442,217.46,194.009,207.027,181.186,207.027z M286.24,231.027
	c-4.447,0-8.051,3.604-8.051,8.051c0,3.896-3.17,7.066-7.068,7.066s-7.068-3.17-7.068-7.066c0-4.447-3.604-8.051-8.051-8.051
	c-4.447,0-8.051,3.604-8.051,8.051c0,3.896-3.17,7.066-7.068,7.066c-3.898,0-7.07-3.17-7.07-7.066c0-4.447-3.604-8.051-8.051-8.051
	c-4.447,0-8.051,3.604-8.051,8.051c0,12.774,10.396,23.168,23.172,23.168c5.779,0,11.056-2.138,15.119-5.651
	c4.062,3.511,9.34,5.651,15.119,5.651c12.775,0,23.17-10.393,23.17-23.168C294.291,234.632,290.688,231.027,286.24,231.027z
	 M256.004,99.391c-86.355,0-156.611,70.254-156.611,156.609c0,86.354,70.255,156.611,156.611,156.611
	c86.354,0,156.61-70.256,156.61-156.611C412.613,169.646,342.357,99.391,256.004,99.391z M256.004,396.509
	c-77.476,0-140.509-63.031-140.509-140.509c0-77.475,63.033-140.507,140.509-140.507S396.511,178.525,396.511,256
	C396.511,333.477,333.48,396.509,256.004,396.509z M501.697,268.433c-16.922-28.324-28.721-80.016-25.763-112.881
	c3.519-39.094-25.263-75.185-64.16-80.454c-32.696-4.426-80.469-27.433-104.321-50.236c-13.712-13.11-31.984-20.33-51.452-20.33
	s-37.74,7.219-51.454,20.33c-23.851,22.803-71.621,45.81-104.315,50.236c-38.893,5.269-67.676,41.36-64.161,80.454
	c2.956,32.862-8.841,84.556-25.766,112.881c-20.132,33.695-9.861,78.701,22.899,100.328c27.537,18.176,60.596,59.631,72.189,90.522
	c10.814,28.823,39.071,48.185,70.314,48.185c7.643,0,15.179-1.188,22.398-3.535c15.279-4.965,35.84-7.697,57.894-7.697
	s42.613,2.732,57.893,7.697c7.22,2.347,14.756,3.535,22.398,3.535c31.243,0,59.501-19.362,70.316-48.183
	c11.596-30.894,44.655-72.349,72.19-90.526C511.557,347.135,521.829,302.129,501.697,268.433z M469.929,355.323
	c-30.418,20.079-65.586,64.178-78.394,98.305c-8.473,22.572-30.671,37.739-55.241,37.739c-5.95,0-11.813-0.924-17.423-2.747
	c-16.844-5.473-39.17-8.485-62.868-8.485c-23.698,0-46.025,3.013-62.869,8.485c-5.61,1.822-11.472,2.747-17.423,2.747
	c-24.569,0-46.766-15.165-55.238-37.739c-12.807-34.127-47.973-78.225-78.394-98.305c-25.674-16.947-33.724-52.222-17.946-78.63
	c18.695-31.29,31.246-86.281,27.979-122.582c-2.756-30.64,19.801-58.926,50.284-63.054c36.117-4.892,86.935-29.364,113.283-54.554
	c10.702-10.231,25.022-15.865,40.325-15.865c15.302,0,29.624,5.634,40.324,15.865c26.347,25.191,77.167,49.663,113.285,54.554
	c30.484,4.129,53.041,32.414,50.284,63.054c-3.267,36.303,9.283,91.294,27.978,122.582
	C503.652,303.101,495.601,338.372,469.929,355.323z"/>
<g>
</g>
<g>
</g>
<g>
</g>
<g>
</g>
<g>
</g>
<g>
</g>
<g>
</g>
<g>
</g>
<g>
</g>
<g>
</g>
<g>
</g>
<g>
</g>
<g>
</g>
<g>
</g>
<g>
</g>
</svg>
