<?xml version="1.0" encoding="iso-8859-1"?>
<!-- Generator: Adobe Illustrator 19.0.0, SVG Export Plug-In . SVG Version: 6.00 Build 0)  -->
<svg version="1.1" id="Layer_1" xmlns="http://www.w3.org/2000/svg" xmlns:xlink="http://www.w3.org/1999/xlink" x="0px" y="0px"
	 viewBox="0 0 512 512" style="enable-background:new 0 0 512 512;" xml:space="preserve">
<path style="fill:#46C79C;" d="M377.139,109.565c-7.215-4.567-20.288-11.683-35.454-14.633c6.222-14.142,7.831-28.938,8.195-37.469
	c0.237-5.547-1.715-7.448-7.213-7.213c-8.533,0.363-23.33,1.971-37.473,8.193c-2.95-15.167-10.066-28.24-14.632-35.455
	c-2.967-4.691-5.654-5.142-10.038-1.811c-10.225,7.759-30.485,25.89-34.917,50.428c-4.433,24.54,8.205,48.613,15.067,59.455
	c1.475,2.333,6.058,6.917,8.391,8.391c10.842,6.862,34.914,19.5,59.455,15.067c24.538-4.433,42.669-24.691,50.429-34.917
	C382.28,115.217,381.83,112.53,377.139,109.565z"/>
<circle style="fill:#593EAA;" cx="277.891" cy="292.919" r="119.576"/>
<circle style="fill:#8162D7;" cx="127.696" cy="328.161" r="119.576"/>
<circle style="fill:#3F4963;" cx="52.241" cy="308.261" r="15.34"/>
<path style="fill:#FF9596;" d="M68.651,357.004H35.832c-4.485,0-8.12-3.635-8.12-8.12s3.636-8.12,8.12-8.12h32.82
	c4.485,0,8.12,3.635,8.12,8.12S73.136,357.004,68.651,357.004z"/>
<circle style="fill:#3F4963;" cx="203.151" cy="308.261" r="15.34"/>
<path style="fill:#FF9596;" d="M219.564,357.004h-32.821c-4.485,0-8.12-3.635-8.12-8.12s3.636-8.12,8.12-8.12h32.821
	c4.485,0,8.12,3.635,8.12,8.12S224.048,357.004,219.564,357.004z"/>
<g>
	<path style="fill:#3F4963;" d="M112.448,343.954c-12.887,0-23.372-10.484-23.372-23.369c0-4.486,3.636-8.12,8.12-8.12
		s8.12,3.635,8.12,8.12c0,3.931,3.199,7.129,7.131,7.129c3.93,0,7.129-3.197,7.129-7.129c0-4.486,3.636-8.12,8.12-8.12
		c4.485,0,8.12,3.635,8.12,8.12C135.818,333.47,125.335,343.954,112.448,343.954z"/>
	<path style="fill:#3F4963;" d="M142.946,343.954c-12.885,0-23.369-10.484-23.369-23.369c0-4.486,3.636-8.12,8.12-8.12
		s8.12,3.635,8.12,8.12c0,3.931,3.198,7.129,7.129,7.129s7.129-3.197,7.129-7.129c0-4.486,3.636-8.12,8.12-8.12
		c4.485,0,8.12,3.635,8.12,8.12C166.316,333.47,155.833,343.954,142.946,343.954z"/>
</g>
<circle style="fill:#8162D7;" cx="384.301" cy="373.408" r="119.576"/>
<circle style="fill:#3F4963;" cx="308.846" cy="353.508" r="15.34"/>
<path style="fill:#FF9596;" d="M325.256,402.247h-32.82c-4.485,0-8.12-3.635-8.12-8.12s3.636-8.12,8.12-8.12h32.82
	c4.485,0,8.12,3.635,8.12,8.12C333.376,398.612,329.74,402.247,325.256,402.247z"/>
<circle style="fill:#3F4963;" cx="459.756" cy="353.508" r="15.34"/>
<path style="fill:#FF9596;" d="M476.168,402.247h-32.82c-4.485,0-8.12-3.635-8.12-8.12s3.636-8.12,8.12-8.12h32.82
	c4.485,0,8.12,3.635,8.12,8.12C484.289,398.612,480.653,402.247,476.168,402.247z"/>
<g>
	<path style="fill:#3F4963;" d="M369.053,389.197c-12.887,0-23.372-10.484-23.372-23.369c0-4.486,3.636-8.12,8.12-8.12
		c4.485,0,8.12,3.635,8.12,8.12c0,3.931,3.199,7.129,7.131,7.129c3.93,0,7.129-3.197,7.129-7.129c0-4.486,3.636-8.12,8.12-8.12
		c4.485,0,8.12,3.635,8.12,8.12C392.422,378.714,381.939,389.197,369.053,389.197z"/>
	<path style="fill:#3F4963;" d="M399.551,389.197c-12.885,0-23.369-10.484-23.369-23.369c0-4.486,3.636-8.12,8.12-8.12
		s8.12,3.635,8.12,8.12c0,3.931,3.198,7.129,7.129,7.129s7.129-3.197,7.129-7.129c0-4.486,3.636-8.12,8.12-8.12
		s8.12,3.635,8.12,8.12C422.92,378.714,412.437,389.197,399.551,389.197z"/>
</g>
<g>
	<path style="fill:#6CF5C5;" d="M384.302,283.604c-10.464,0-18.948-8.483-18.948-18.948c0-54.737,44.531-99.269,99.269-99.269
		c10.464,0,18.948,8.483,18.948,18.948c0,10.464-8.483,18.948-18.948,18.948c-33.842,0-61.374,27.533-61.374,61.374
		C403.249,275.121,394.766,283.604,384.302,283.604z"/>
	<path style="fill:#6CF5C5;" d="M127.697,238.362c-10.464,0-18.948-8.483-18.948-18.948c0-33.842-27.532-61.374-61.374-61.374
		c-10.464,0-18.948-8.483-18.948-18.948s8.483-18.948,18.948-18.948c54.737,0,99.269,44.532,99.269,99.269
		C146.645,229.879,138.162,238.362,127.697,238.362z"/>
	<path style="fill:#6CF5C5;" d="M277.891,203.118c-10.464,0-18.948-8.483-18.948-18.948c0-33.842-27.533-61.374-61.374-61.374
		c-10.464,0-18.948-8.483-18.948-18.948s8.483-18.948,18.948-18.948c54.737,0,99.269,44.532,99.269,99.269
		C296.839,194.635,288.355,203.118,277.891,203.118z"/>
</g>
<path d="M459.759,338.164c-8.473,0-15.34,6.869-15.34,15.34c0,8.473,6.867,15.342,15.34,15.342c8.471,0,15.34-6.869,15.34-15.342
	C475.099,345.031,468.23,338.164,459.759,338.164z M481.342,290.398c-17.675-20.645-41.461-35.07-67.66-41.257
	c6.659-21.817,26.973-37.737,50.942-37.737c14.925,0,27.068-12.143,27.068-27.068c0-14.925-12.143-27.068-27.068-27.068
	c-38.486,0-72.302,20.354-91.267,50.861c-18.242-20.463-42.854-34.744-69.636-40.285c-0.302-1.968-0.662-3.918-1.07-5.851
	c5.232,1.038,10.35,1.573,15.329,1.573c4.089,0,8.089-0.353,11.986-1.056c26.838-4.85,46.262-25.89,55.452-37.997
	c1.154-1.52,4.667-6.146,3.625-11.916c-1.043-5.775-5.951-8.877-7.56-9.895c-6.911-4.373-17.028-9.838-28.967-13.437
	c3.849-11.859,5.13-23.285,5.48-31.456c0.081-1.908,0.33-7.708-3.819-11.857c-4.147-4.145-9.946-3.902-11.85-3.817
	c-8.173,0.346-19.599,1.628-31.463,5.48c-3.599-11.941-9.062-22.058-13.434-28.967c-1.02-1.613-4.124-6.521-9.899-7.564
	c-5.771-1.036-10.395,2.472-11.911,3.625c-12.112,9.188-33.153,28.612-37.999,55.452c-0.814,4.506-1.141,9.176-1.008,13.969
	c-12.107-4.741-25.275-7.348-39.042-7.348c-14.925,0-27.068,12.143-27.068,27.068s12.143,27.068,27.068,27.068
	c23.957,0,44.265,15.904,50.932,37.707c-27.058,6.35-51.114,21.28-68.948,42.829c-8.317-3.703-17.041-6.516-26.028-8.366
	c-7.887-51.495-52.485-91.062-106.15-91.062c-14.925,0-27.068,12.143-27.068,27.068c0,14.925,12.143,27.068,27.068,27.068
	c23.969,0,44.282,15.919,50.942,37.738c-26.2,6.186-49.985,20.61-67.659,41.256C10.889,268.245,0,297.726,0,328.167
	c0,70.41,57.285,127.696,127.697,127.696c39.478,0,74.826-18.011,98.269-46.242c12.52,5.589,25.743,9.063,39.445,10.388
	c18.656,47.435,64.917,81.096,118.892,81.096C454.715,501.104,512,443.82,512,373.407C512,342.97,501.111,313.49,481.342,290.398z
	 M464.623,173.509c5.971,0,10.827,4.857,10.827,10.827s-4.856,10.827-10.827,10.827c-38.32,0-69.494,31.175-69.494,69.493
	c0,5.97-4.857,10.827-10.827,10.827s-10.827-4.857-10.827-10.827C373.475,214.397,414.365,173.509,464.623,173.509z M253.6,73.049
	c3.853-21.333,22.056-37.791,30.796-44.605c3.949,6.423,10.226,18.176,12.828,31.552c0.472,2.421,2.019,4.498,4.206,5.644
	c2.187,1.144,4.777,1.231,7.035,0.237c12.473-5.487,25.708-7.031,33.237-7.448c-0.418,7.528-1.965,20.767-7.451,33.234
	c-0.994,2.259-0.906,4.847,0.238,7.036c1.146,2.187,3.221,3.734,5.645,4.206c13.372,2.601,25.123,8.875,31.548,12.828
	c-6.81,8.735-23.27,26.943-44.604,30.796c-9.134,1.649-19.216,0.719-30.01-2.743c-8.664-21.27-23.955-39.155-43.298-51.085
	C252.564,85.757,252.496,79.159,253.6,73.049z M197.569,114.676c-5.97,0-10.827-4.857-10.827-10.827
	c0-5.97,4.857-10.827,10.827-10.827c50.26,0,91.15,40.89,91.15,91.15c0,5.97-4.857,10.827-10.827,10.827
	c-5.971,0-10.827-4.857-10.827-10.827C267.064,145.851,235.889,114.676,197.569,114.676z M47.377,149.92
	c-5.971,0-10.827-4.857-10.827-10.827c0-5.97,4.856-10.827,10.827-10.827c50.259,0,91.149,40.89,91.149,91.149
	c0,5.97-4.857,10.827-10.827,10.827c-5.97,0-10.827-4.857-10.827-10.827C116.87,181.095,85.695,149.92,47.377,149.92z
	 M127.697,439.622c-61.456,0-111.456-50-111.456-111.455c0-26.569,9.501-52.299,26.755-72.451
	c15.118-17.658,35.343-30.112,57.649-35.685c0.329,14.639,12.333,26.453,27.052,26.453c14.723,0,26.73-11.817,27.053-26.463
	c22.138,5.532,42.217,17.84,57.313,35.306c17.471,20.217,27.091,46.086,27.091,72.84
	C239.154,389.622,189.154,439.622,127.697,439.622z M260.065,402.966c-8.359-1.336-16.486-3.623-24.314-6.829
	c12.435-19.696,19.644-43.007,19.644-67.97c0-30.655-11.024-60.293-31.044-83.458c-8.71-10.081-18.874-18.66-30.058-25.506
	c15-17.046,34.609-28.988,56.545-34.434c0.32,14.648,12.329,26.469,27.053,26.469c14.719,0,26.723-11.81,27.051-26.453
	c23.667,5.948,45.103,19.753,60.375,39.011c-3.206,7.765-5.534,15.983-6.843,24.532c-27.437,5.649-52.427,20.301-70.884,41.687
	c-19.98,23.156-30.985,52.77-30.985,83.39C256.605,383.578,257.808,393.476,260.065,402.966z M384.302,484.864
	c-61.456,0-111.456-50-111.456-111.457c0-26.726,9.603-52.574,27.041-72.779c15.099-17.495,35.197-29.83,57.363-35.368
	c0.323,14.646,12.33,26.465,27.053,26.465c14.719,0,26.724-11.81,27.052-26.453c22.308,5.576,42.534,18.029,57.651,35.69
	c17.253,20.15,26.754,45.878,26.754,72.445C495.759,434.864,445.759,484.864,384.302,484.864z M308.846,338.164
	c-8.471,0-15.34,6.869-15.34,15.34c0,8.473,6.869,15.342,15.34,15.342c8.471,0,15.34-6.869,15.34-15.342
	C324.186,345.031,317.317,338.164,308.846,338.164z M414.8,357.707c-4.486,0-8.12,3.635-8.12,8.12c0,3.931-3.197,7.129-7.129,7.129
	s-7.129-3.197-7.129-7.129c0-4.486-3.635-8.12-8.12-8.12s-8.12,3.635-8.12,8.12c0,3.931-3.197,7.129-7.129,7.129
	c-3.931,0-7.131-3.197-7.131-7.129c0-4.486-3.635-8.12-8.12-8.12s-8.12,3.635-8.12,8.12c0,12.887,10.485,23.369,23.372,23.369
	c5.828,0,11.151-2.159,15.249-5.699c4.098,3.54,9.421,5.699,15.249,5.699c12.885,0,23.369-10.483,23.369-23.369
	C422.92,361.343,419.286,357.707,414.8,357.707z M203.154,292.921c-8.473,0-15.34,6.869-15.34,15.34
	c0,8.473,6.867,15.342,15.34,15.342c8.471,0,15.34-6.869,15.34-15.342C218.494,299.79,211.625,292.921,203.154,292.921z
	 M158.195,312.465c-4.486,0-8.12,3.636-8.12,8.12c0,3.931-3.197,7.129-7.129,7.129s-7.129-3.197-7.129-7.129
	c0-4.485-3.635-8.12-8.12-8.12s-8.12,3.636-8.12,8.12c0,3.931-3.197,7.129-7.129,7.129s-7.131-3.197-7.131-7.129
	c0-4.485-3.635-8.12-8.12-8.12c-4.486,0-8.12,3.636-8.12,8.12c0,12.884,10.485,23.369,23.372,23.369
	c5.828,0,11.151-2.159,15.249-5.702c4.098,3.543,9.421,5.702,15.249,5.702c12.885,0,23.369-10.485,23.369-23.369
	C166.316,316.101,162.681,312.465,158.195,312.465z M52.241,292.921c-8.471,0-15.34,6.869-15.34,15.34
	c0,8.473,6.869,15.342,15.34,15.342s15.34-6.869,15.34-15.342C67.581,299.79,60.712,292.921,52.241,292.921z"/>
<g>
</g>
<g>
</g>
<g>
</g>
<g>
</g>
<g>
</g>
<g>
</g>
<g>
</g>
<g>
</g>
<g>
</g>
<g>
</g>
<g>
</g>
<g>
</g>
<g>
</g>
<g>
</g>
<g>
</g>
</svg>
