<?xml version="1.0" encoding="iso-8859-1"?>
<!-- Generator: Adobe Illustrator 19.0.0, SVG Export Plug-In . SVG Version: 6.00 Build 0)  -->
<svg version="1.1" id="Layer_1" xmlns="http://www.w3.org/2000/svg" xmlns:xlink="http://www.w3.org/1999/xlink" x="0px" y="0px"
	 viewBox="0 0 512 512" style="enable-background:new 0 0 512 512;" xml:space="preserve">
<path style="fill:#FDBA55;" d="M457.766,366.565c25.515,0,46.197,20.684,46.197,46.196c0,25.515-20.684,46.198-46.197,46.198
	L54.234,458.96c-25.516-0.001-46.197-20.686-46.198-46.199c0-25.514,20.682-46.196,46.198-46.194L457.766,366.565z"/>
<path style="fill:#FFD553;" d="M457.766,366.565l-403.531,0.002c-19.618-0.001-36.367,12.23-43.066,29.477h489.664
	C494.131,378.797,477.383,366.565,457.766,366.565z"/>
<path style="fill:#866539;" d="M494.267,311.802c0-7.358-6.021-13.378-13.378-13.378H31.117c-7.359,0-13.378,6.021-13.378,13.378
	v41.385c0,7.358,6.021,13.378,13.378,13.378h449.772c7.358,0,13.378-6.021,13.378-13.378V311.802z"/>
<g>
	<path style="fill:#FFD553;" d="M112.896,298.419l45.775,45.777c4.411,4.41,11.63,4.41,16.041,0l45.775-45.777H112.896z"/>
	<path style="fill:#FFD553;" d="M399.112,298.419l-45.775,45.777c-4.412,4.41-11.631,4.41-16.042,0l-45.776-45.777H399.112z"/>
</g>
<path style="fill:#46C79C;" d="M468.761,267.339c0-6.238-5.104-11.343-11.342-11.343H264.454c-6.239,0-11.343,5.104-11.343,11.343
	v19.738c0,6.237,5.103,11.341,11.343,11.341h192.964c6.238,0,11.342-5.104,11.342-11.341V267.339z"/>
<path style="fill:#6CF5C5;" d="M282.367,267.339c0-6.238-5.104-11.343-11.343-11.343H54.588c-6.238,0-11.343,5.104-11.343,11.343
	v19.738c0,6.237,5.104,11.341,11.343,11.341h216.437c6.238,0,11.343-5.104,11.343-11.341V267.339z"/>
<path style="fill:#E2411C;" d="M43.245,224.916c0-6.238,5.104-11.343,11.343-11.343h223.619c6.238,0,11.342,5.104,11.342,11.343
	v19.737c0,6.238-5.104,11.343-11.342,11.343H54.588c-6.238,0-11.343-5.104-11.343-11.343V224.916z"/>
<path style="fill:#FF6376;" d="M221.494,224.916c0-6.238,5.104-11.343,11.343-11.343h224.582c6.238,0,11.342,5.104,11.342,11.343
	v19.737c0,6.238-5.104,11.343-11.342,11.343H232.837c-6.238,0-11.342-5.104-11.342-11.343L221.494,224.916L221.494,224.916z"/>
<path style="fill:#FDBA55;" d="M485.458,105.673l-0.004,0.002l0.004-0.011c-30.141-30.14-120.196-52.626-229.454-52.626
	c-109.259,0-199.312,22.485-229.453,52.626v0.001H26.55c-11.439,11.439-18.514,27.241-18.514,44.696
	c0.001,34.91,28.3,63.21,63.211,63.212h369.506v-0.002c34.91,0,63.21-28.301,63.21-63.21
	C503.964,132.911,496.891,117.112,485.458,105.673z"/>
<g>
	<path style="fill:#FBD151;" d="M199.29,110.988c-4.438,0-8.036-3.598-8.036-8.036V89.341c0-4.438,3.598-8.036,8.036-8.036
		c4.438,0,8.036,3.598,8.036,8.036v13.611C207.326,107.391,203.728,110.988,199.29,110.988z"/>
	<path style="fill:#FBD151;" d="M71.247,129.349c-4.438,0-8.036-3.598-8.036-8.036v-13.611c0-4.438,3.598-8.036,8.036-8.036
		c4.438,0,8.036,3.598,8.036,8.036v13.611C79.283,125.751,75.685,129.349,71.247,129.349z"/>
	<path style="fill:#FBD151;" d="M256.004,97.377c-4.438,0-8.036-3.598-8.036-8.036V75.729c0-4.438,3.598-8.036,8.036-8.036
		c4.438,0,8.036,3.598,8.036,8.036v13.612C264.04,93.779,260.442,97.377,256.004,97.377z"/>
	<path style="fill:#FBD151;" d="M311.582,110.988c-4.438,0-8.036-3.598-8.036-8.036V89.341c0-4.438,3.598-8.036,8.036-8.036
		s8.036,3.598,8.036,8.036v13.611C319.618,107.391,316.02,110.988,311.582,110.988z"/>
	<path style="fill:#FBD151;" d="M440.752,136.155c-4.438,0-8.036-3.598-8.036-8.036v-13.611c0-4.438,3.598-8.036,8.036-8.036
		c4.438,0,8.036,3.598,8.036,8.036v13.611C448.788,132.557,445.191,136.155,440.752,136.155z"/>
</g>
<g>
	<circle style="fill:#3F4963;" cx="143.715" cy="131.394" r="14.55"/>
	<circle style="fill:#3F4963;" cx="368.284" cy="131.394" r="14.55"/>
</g>
<g>
	<path style="fill:#FF6376;" d="M159.277,182.247h-31.13c-4.438,0-8.036-3.598-8.036-8.036s3.598-8.036,8.036-8.036h31.13
		c4.438,0,8.036,3.598,8.036,8.036S163.715,182.247,159.277,182.247z"/>
	<path style="fill:#FF6376;" d="M383.853,182.247h-31.13c-4.438,0-8.036-3.598-8.036-8.036s3.598-8.036,8.036-8.036h31.13
		c4.438,0,8.036,3.598,8.036,8.036S388.291,182.247,383.853,182.247z"/>
</g>
<g>
	<path style="fill:#3F4963;" d="M237.781,172.193c-14.477,0-26.254-11.778-26.254-26.253c0-4.438,3.598-8.036,8.036-8.036
		s8.036,3.598,8.036,8.036c0,5.614,4.568,10.181,10.182,10.181c5.614,0,10.182-4.568,10.182-10.181c0-4.438,3.598-8.036,8.036-8.036
		s8.036,3.598,8.036,8.036C264.035,160.415,252.258,172.193,237.781,172.193z"/>
	<path style="fill:#3F4963;" d="M274.219,172.193c-14.477,0-26.254-11.778-26.254-26.253c0-4.438,3.598-8.036,8.036-8.036
		c4.438,0,8.036,3.598,8.036,8.036c0,5.614,4.568,10.181,10.182,10.181s10.182-4.568,10.182-10.181c0-4.438,3.598-8.036,8.036-8.036
		s8.036,3.598,8.036,8.036C300.473,160.415,288.695,172.193,274.219,172.193z"/>
</g>
<path d="M368.288,145.945c8.036,0,14.55-6.514,14.55-14.552c0-8.036-6.514-14.55-14.55-14.55s-14.55,6.514-14.55,14.55
	C353.737,139.431,360.252,145.945,368.288,145.945z M237.782,172.193c7.071,0,13.492-2.815,18.217-7.376
	c4.725,4.561,11.148,7.376,18.219,7.376c14.477,0,26.254-11.778,26.254-26.253c0-4.438-3.598-8.036-8.036-8.036
	s-8.036,3.598-8.036,8.036c0,5.613-4.568,10.181-10.182,10.181s-10.183-4.568-10.183-10.181c0-4.438-3.597-8.036-8.036-8.036
	c-4.438,0-8.036,3.598-8.036,8.036c0,5.613-4.568,10.181-10.181,10.181c-5.614,0-10.183-4.568-10.183-10.181
	c0-4.438-3.598-8.036-8.036-8.036c-4.439,0-8.036,3.598-8.036,8.036C211.527,160.415,223.305,172.193,237.782,172.193z
	 M143.711,145.945c8.037,0,14.552-6.514,14.552-14.552c0-8.036-6.515-14.55-14.552-14.55c-8.036,0-14.55,6.514-14.55,14.55
	C129.161,139.431,135.675,145.945,143.711,145.945z M492.504,371.153c5.887-3.82,9.8-10.439,9.8-17.965v-41.385
	c0-11.809-9.607-21.414-21.413-21.414h-4.397c0.186-1.078,0.303-2.18,0.303-3.311v-19.738c0-4.238-1.383-8.148-3.699-11.343
	c2.315-3.193,3.699-7.105,3.699-11.343v-19.737c0-4.16-1.331-8.01-3.57-11.171C496.223,201.915,512,177.954,512,150.362
	c0-18.918-7.325-36.712-20.632-50.142c-0.074-0.08-0.15-0.16-0.228-0.237c-32.885-32.884-127.379-54.98-235.136-54.98
	c-107.755,0-202.249,22.096-235.136,54.981C7.411,113.44,0,131.331,0,150.363c0.001,27.592,15.779,51.555,38.778,63.386
	c-2.239,3.161-3.57,7.008-3.57,11.169v19.737c0,4.238,1.383,8.15,3.7,11.343c-2.317,3.193-3.7,7.105-3.7,11.343v19.738
	c0,1.13,0.117,2.232,0.304,3.311h-4.396c-11.809,0-21.414,9.607-21.414,21.414v41.385c0,7.525,3.91,14.142,9.795,17.963
	C7.591,381.107,0,396.062,0,412.762c0.001,29.905,24.331,54.234,54.233,54.235h0.001l403.531-0.001
	c29.903,0,54.233-24.33,54.233-54.234C512,396.063,504.41,381.109,492.504,371.153z M16.072,150.362
	c0-14.737,5.74-28.593,16.161-39.015c29.6-29.599,121.619-50.272,223.771-50.272c101.879,0,193.68,20.564,223.534,50.036
	c0.115,0.126,0.237,0.25,0.362,0.369c10.336,10.407,16.028,24.209,16.028,38.882c0,30.423-24.752,55.174-55.174,55.176H71.247
	C40.825,205.537,16.073,180.785,16.072,150.362z M290.099,290.388c0.188-1.078,0.304-2.18,0.304-3.311v-19.738
	c0-1.129-0.117-2.23-0.303-3.307h167.318c1.794,0,3.307,1.514,3.307,3.307v19.738c0,1.791-1.513,3.305-3.307,3.305v0.005H290.099z
	 M379.707,306.46l-32.052,32.052c-1.269,1.269-3.41,1.269-4.678,0.002l-32.053-32.054L379.707,306.46L379.707,306.46z
	 M457.417,247.96H232.837c-1.793,0-3.307-1.514-3.307-3.307v-19.737c0-1.793,1.514-3.307,3.307-3.307h224.582
	c1.794,0,3.307,1.514,3.307,3.307v19.737C460.724,246.446,459.211,247.96,457.417,247.96z M54.587,290.383
	c-1.791,0-3.307-1.514-3.307-3.305v-19.738c0-1.793,1.515-3.307,3.307-3.307h216.438c1.791,0,3.307,1.514,3.307,3.307v19.738
	c0,1.791-1.515,3.305-3.307,3.305H54.587z M201.083,306.46l-32.052,32.053c-1.269,1.268-3.409,1.268-4.677,0.001l-32.052-32.054
	L201.083,306.46L201.083,306.46z M213.761,247.96H54.587c-1.791,0-3.307-1.514-3.307-3.307v-19.737c0-1.793,1.515-3.307,3.307-3.307
	h159.174c-0.186,1.077-0.303,2.177-0.303,3.307v19.737C213.458,245.783,213.575,246.883,213.761,247.96z M25.775,311.802
	c0-2.896,2.446-5.342,5.342-5.342h78.456l43.417,43.419c3.778,3.777,8.74,5.666,13.702,5.666s9.926-1.889,13.703-5.666
	l43.417-43.418h64.384l43.417,43.418c3.777,3.778,8.739,5.666,13.702,5.666c4.962,0,9.926-1.889,13.704-5.666l43.417-43.418h78.455
	c2.895,0,5.341,2.446,5.341,5.342v41.385c0,2.896-2.446,5.342-5.341,5.342h-23.041c-0.027,0-0.055-0.002-0.082-0.002l-403.535,0.002
	H31.117c-2.896,0-5.342-2.446-5.342-5.342V311.802z M457.766,450.923l-403.53,0.001c-21.042-0.001-38.162-17.121-38.163-38.163
	c0-21.04,17.118-38.158,38.162-38.158h403.614c21.005,0.045,38.079,17.145,38.079,38.158
	C495.928,433.803,478.808,450.923,457.766,450.923z"/>
<g>
</g>
<g>
</g>
<g>
</g>
<g>
</g>
<g>
</g>
<g>
</g>
<g>
</g>
<g>
</g>
<g>
</g>
<g>
</g>
<g>
</g>
<g>
</g>
<g>
</g>
<g>
</g>
<g>
</g>
</svg>
