<?xml version="1.0" encoding="iso-8859-1"?>
<!-- Generator: Adobe Illustrator 19.0.0, SVG Export Plug-In . SVG Version: 6.00 Build 0)  -->
<svg version="1.1" id="Layer_1" xmlns="http://www.w3.org/2000/svg" xmlns:xlink="http://www.w3.org/1999/xlink" x="0px" y="0px"
	 viewBox="0 0 512 512" style="enable-background:new 0 0 512 512;" xml:space="preserve">
<g>
	<path style="fill:#FDBA55;" d="M256,424.482c0,35.873-29.08,64.953-64.952,64.953s-64.953-29.081-64.953-64.953V87.518
		c0-35.873,29.08-64.952,64.953-64.952S256,51.645,256,87.518V424.482z"/>
	<path style="fill:#FDBA55;" d="M256.001,424.482c0,35.873,29.081,64.953,64.953,64.953s64.953-29.081,64.953-64.953V87.518
		c0-35.873-29.081-64.952-64.953-64.952s-64.953,29.079-64.953,64.952L256.001,424.482L256.001,424.482z"/>
</g>
<path style="fill:#FF6376;" d="M306.803,453.227c0,28.058-22.745,50.803-50.803,50.803c-28.057,0-50.803-22.745-50.803-50.803
	V58.772c0-28.058,22.746-50.802,50.803-50.802c28.057,0,50.803,22.744,50.803,50.802V453.227z"/>
<g>
	<path style="fill:#3F4963;" d="M241.654,158.718c-12.305,0-22.316-10.01-22.316-22.315c0-4.401,3.568-7.97,7.97-7.97
		c4.401,0,7.97,3.568,7.97,7.97c0,3.515,2.86,6.375,6.376,6.375c3.516,0,6.376-2.86,6.376-6.375c0-4.401,3.568-7.97,7.97-7.97
		c4.403,0,7.97,3.568,7.97,7.97C263.97,148.707,253.96,158.718,241.654,158.718z"/>
	<path style="fill:#3F4963;" d="M270.346,158.718c-12.304,0-22.316-10.01-22.316-22.315c0-4.401,3.568-7.97,7.97-7.97
		c4.403,0,7.97,3.568,7.97,7.97c0,3.515,2.86,6.375,6.376,6.375s6.376-2.86,6.376-6.375c0-4.401,3.567-7.97,7.97-7.97
		c4.403,0,7.97,3.568,7.97,7.97C292.661,148.707,282.65,158.718,270.346,158.718z"/>
</g>
<path style="fill:#FF6376;" d="M180.71,170.994h-30.874c-4.401,0-7.97-3.568-7.97-7.97c0-4.402,3.568-7.97,7.97-7.97h30.874
	c4.401,0,7.97,3.568,7.97,7.97C188.68,167.426,185.112,170.994,180.71,170.994z"/>
<path style="fill:#3F4963;" d="M179.704,136.02c-4.401,0-7.97-3.568-7.97-7.97c0-3.563-2.899-6.461-6.461-6.461
	c-3.563,0-6.462,2.899-6.462,6.461c0,4.402-3.568,7.97-7.97,7.97c-4.402,0-7.97-3.568-7.97-7.97
	c0-12.352,10.049-22.401,22.402-22.401c12.352,0,22.401,10.048,22.401,22.401C187.674,132.452,184.105,136.02,179.704,136.02z"/>
<path style="fill:#FF6376;" d="M362.166,170.994h-30.875c-4.403,0-7.97-3.568-7.97-7.97c0-4.402,3.567-7.97,7.97-7.97h30.875
	c4.401,0,7.97,3.568,7.97,7.97C370.136,167.426,366.568,170.994,362.166,170.994z"/>
<path style="fill:#3F4963;" d="M361.159,136.02c-4.403,0-7.97-3.568-7.97-7.97c0-3.563-2.899-6.461-6.461-6.461
	c-3.562,0-6.461,2.899-6.461,6.461c0,4.402-3.567,7.97-7.97,7.97c-4.401,0-7.97-3.568-7.97-7.97
	c0-12.352,10.048-22.401,22.401-22.401s22.401,10.048,22.401,22.401C369.129,132.452,365.561,136.02,361.159,136.02z"/>
<path style="fill:#FBD151;" d="M255.993,451.68c-1.352,0-2.723-0.344-3.977-1.069c-14.167-8.179-21.968-19.569-21.968-32.073
	c0-12.503,7.802-23.893,21.968-32.072c8.897-5.136,13.999-11.794,13.999-18.268c0-6.474-5.103-13.131-13.999-18.268
	c-14.167-8.179-21.968-19.569-21.968-32.072s7.802-23.894,21.968-32.073c8.897-5.136,13.998-11.794,13.999-18.268
	c0-6.474-5.103-13.132-13.999-18.268c-14.166-8.178-21.968-19.569-21.968-32.072s7.802-23.894,21.968-32.073
	c3.812-2.201,8.687-0.895,10.887,2.917c2.201,3.812,0.895,8.686-2.917,10.887c-8.897,5.136-13.998,11.795-13.998,18.268
	c0,6.474,5.102,13.131,13.998,18.268c14.166,8.179,21.969,19.57,21.969,32.073c-0.001,12.503-7.803,23.893-21.969,32.072
	c-8.897,5.136-13.998,11.795-13.998,18.269s5.103,13.132,13.998,18.268c14.166,8.179,21.969,19.569,21.969,32.072
	c0,12.503-7.803,23.894-21.969,32.073c-8.897,5.136-13.998,11.795-13.998,18.268c0,6.474,5.102,13.132,13.998,18.268
	c3.812,2.201,5.118,7.075,2.917,10.887C261.427,450.25,258.747,451.68,255.993,451.68z"/>
<path d="M165.272,105.649c-12.351,0-22.401,10.048-22.401,22.401c0,4.401,3.567,7.97,7.97,7.97c4.403,0,7.97-3.568,7.97-7.97
	c0-3.563,2.899-6.461,6.461-6.461c3.564,0,6.461,2.899,6.461,6.461c0,4.401,3.568,7.97,7.97,7.97c4.403,0,7.97-3.568,7.97-7.97
	C187.673,115.698,177.624,105.649,165.272,105.649z M320.953,14.596c-7.729,0-15.279,1.211-22.526,3.568
	C287.721,6.984,272.666,0,256,0s-31.721,6.984-42.427,18.164c-7.247-2.357-14.797-3.568-22.526-3.568
	c-40.21,0-72.923,32.713-72.923,72.922v336.963c0,40.21,32.714,72.923,72.923,72.923c7.733,0,15.283-1.209,22.529-3.566
	C224.282,505.017,239.336,512,256,512s31.718-6.983,42.424-18.162c7.246,2.357,14.796,3.566,22.529,3.566
	c40.211,0,72.923-32.714,72.923-72.923V87.518C393.877,47.309,361.164,14.596,320.953,14.596z M191.047,481.466
	c-31.42,0-56.984-25.563-56.984-56.984V87.518c0-31.42,25.563-56.983,56.984-56.983c4.312,0,8.548,0.49,12.678,1.428
	c-4.142,8.044-6.498,17.154-6.498,26.809v394.455c0,9.655,2.356,18.764,6.498,26.81C199.594,480.975,195.36,481.466,191.047,481.466
	z M298.833,453.227c0,23.618-19.215,42.833-42.833,42.833c-23.62,0-42.834-19.215-42.834-42.833V58.772
	c0-23.618,19.215-42.832,42.834-42.832c23.618,0,42.833,19.215,42.833,42.832L298.833,453.227L298.833,453.227z M377.937,424.482
	c0,31.42-25.563,56.984-56.984,56.984c-4.313,0-8.549-0.491-12.678-1.428c4.142-8.045,6.497-17.154,6.497-26.81V58.772
	c0-9.654-2.355-18.764-6.497-26.809c4.131-0.938,8.366-1.428,12.678-1.428c31.42,0,56.984,25.562,56.984,56.983V424.482z
	 M276.722,136.403c0,3.515-2.86,6.375-6.376,6.375c-3.516,0-6.376-2.86-6.376-6.375c0-4.401-3.567-7.97-7.97-7.97
	c-4.403,0-7.97,3.568-7.97,7.97c0,3.515-2.86,6.375-6.376,6.375c-3.516,0-6.376-2.86-6.376-6.375c0-4.401-3.567-7.97-7.97-7.97
	s-7.97,3.568-7.97,7.97c0,12.304,10.01,22.315,22.316,22.315c5.461,0,10.464-1.979,14.346-5.246
	c3.883,3.268,8.885,5.246,14.346,5.246c12.304,0,22.316-10.01,22.316-22.315c0-4.401-3.567-7.97-7.97-7.97
	C280.29,128.433,276.722,132.001,276.722,136.403z M324.327,128.05c0,4.402,3.568,7.97,7.97,7.97c4.403,0,7.97-3.568,7.97-7.97
	c0-3.563,2.899-6.461,6.461-6.461c3.562,0,6.461,2.899,6.461,6.461c0,4.402,3.567,7.97,7.97,7.97c4.403,0,7.97-3.568,7.97-7.97
	c0-12.352-10.048-22.401-22.401-22.401C334.376,105.65,324.327,115.698,324.327,128.05z"/>
<g>
</g>
<g>
</g>
<g>
</g>
<g>
</g>
<g>
</g>
<g>
</g>
<g>
</g>
<g>
</g>
<g>
</g>
<g>
</g>
<g>
</g>
<g>
</g>
<g>
</g>
<g>
</g>
<g>
</g>
</svg>
