<?xml version="1.0" encoding="iso-8859-1"?>
<!-- Generator: Adobe Illustrator 19.0.0, SVG Export Plug-In . SVG Version: 6.00 Build 0)  -->
<svg version="1.1" id="Layer_1" xmlns="http://www.w3.org/2000/svg" xmlns:xlink="http://www.w3.org/1999/xlink" x="0px" y="0px"
	 viewBox="0 0 512 512" style="enable-background:new 0 0 512 512;" xml:space="preserve">
<path style="fill:#866539;" d="M363.14,140.728h-0.01c0-30.208-22.307-55.197-51.347-59.417
	c5.662-21.598-3.298-52.211-21.439-70.367c-1.835-1.844-4.373-2.984-7.178-2.984c-5.594,0-10.129,4.535-10.129,10.129
	c0,37.446-46.502,62.586-64.108,62.586c-33.167,0-60.054,26.886-60.054,60.053h-0.01c-33.167,0-60.054,26.887-60.054,60.054
	s26.887,60.053,60.054,60.053H363.14c33.167,0,60.054-26.886,60.054-60.053S396.306,140.728,363.14,140.728z"/>
<path style="fill:#FDBA55;" d="M413.127,283.796c2.585-11.83-5.206-21.507-17.314-21.507H116.192
	c-12.108,0-19.899,9.678-17.314,21.507l43.443,198.737c2.586,11.829,14.608,21.507,26.717,21.507h173.928
	c12.109,0,24.131-9.678,26.717-21.507L413.127,283.796z"/>
<g>
	<path style="fill:#CF9945;" d="M412.295,272.517c-2.118-5.085-6.65-8.771-12.637-9.877l-40.832,40.832l-40.155-40.156l1.028-1.028
		h-24.57l1.028,1.028l-40.155,40.155l-40.155-40.155l1.028-1.028h-24.57l1.028,1.028l-40.155,40.156l-40.832-40.832
		c-5.987,1.106-10.519,4.792-12.637,9.877l42.212,42.213l-29.774,29.774l4.038,18.475l36.992-36.992l40.155,40.155l-40.155,40.155
		l-35.223-35.222l6.298,28.812l17.667,17.667l-11.329,11.329l4.038,18.476l18.547-18.547l40.155,40.155l-33.329,33.329
		c2.905,1.12,5.966,1.746,9.034,1.746h11.734l23.819-23.819l23.819,23.819h22.044l0.235-0.235l-34.841-34.841l40.155-40.155
		l40.155,40.155l-34.841,34.841l0.235,0.235h22.044l23.819-23.819l23.819,23.819h11.734c3.068,0,6.129-0.626,9.034-1.746
		l-33.329-33.329l40.155-40.155l18.547,18.547l4.038-18.476l-11.329-11.329l17.667-17.667l6.298-28.812l-35.223,35.222
		l-40.155-40.155l40.155-40.155l36.994,36.992l4.038-18.476l-29.774-29.774L412.295,272.517z M164.436,314.73l40.155-40.156
		l40.155,40.155l-40.155,40.155L164.436,314.73z M204.59,457.707l-40.155-40.155l40.155-40.155l40.155,40.155L204.59,457.707z
		 M215.848,366.141l40.155-40.156l40.155,40.156l-40.155,40.155L215.848,366.141z M347.569,417.552l-40.155,40.155l-40.155-40.155
		l40.155-40.155L347.569,417.552z M307.414,354.885l-40.155-40.155l40.155-40.155l40.155,40.156L307.414,354.885z"/>
	<path style="fill:#CF9945;" d="M138.506,465.085l3.814,17.448c2.586,11.829,14.608,21.507,26.717,21.507h173.928
		c12.109,0,24.131-9.678,26.717-21.507l3.814-17.448H138.506z"/>
</g>
<path style="fill:#FFD553;" d="M435.004,245.011c0-12.109-9.907-22.015-22.015-22.015H99.015c-12.109,0-22.015,9.907-22.015,22.015
	v50.475c0,12.109,9.907,22.016,22.015,22.016h313.974c12.109,0,22.015-9.908,22.015-22.016V245.011z"/>
<circle style="fill:#3F4963;" cx="182.043" cy="253.077" r="15.037"/>
<path style="fill:#FF6376;" d="M198.126,300.861h-32.172c-4.396,0-7.96-3.564-7.96-7.96c0-4.396,3.564-7.96,7.96-7.96h32.172
	c4.396,0,7.96,3.564,7.96,7.96C206.086,297.297,202.522,300.861,198.126,300.861z"/>
<circle style="fill:#3F4963;" cx="329.973" cy="253.077" r="15.037"/>
<path style="fill:#FF6376;" d="M346.057,300.861h-32.172c-4.396,0-7.96-3.564-7.96-7.96c0-4.396,3.564-7.96,7.96-7.96h32.172
	c4.396,0,7.96,3.564,7.96,7.96C354.017,297.297,350.453,300.861,346.057,300.861z"/>
<g>
	<path style="fill:#3F4963;" d="M241.057,288.069c-12.632,0-22.908-10.276-22.908-22.908c0-4.396,3.564-7.96,7.96-7.96
		c4.396,0,7.96,3.564,7.96,7.96c0,3.853,3.135,6.988,6.988,6.988c3.854,0,6.988-3.134,6.988-6.988c0-4.396,3.564-7.96,7.96-7.96
		c4.396,0,7.96,3.564,7.96,7.96C263.966,277.793,253.689,288.069,241.057,288.069z"/>
	<path style="fill:#3F4963;" d="M270.954,288.069c-12.632,0-22.909-10.276-22.909-22.908c0-4.396,3.564-7.96,7.96-7.96
		c4.396,0,7.96,3.564,7.96,7.96c0,3.853,3.135,6.988,6.989,6.988c3.854,0,6.989-3.134,6.989-6.988c0-4.396,3.564-7.96,7.96-7.96
		c4.396,0,7.96,3.564,7.96,7.96C293.863,277.793,283.586,288.069,270.954,288.069z"/>
</g>
<g>
	<path style="fill:#FF6376;" d="M301.259,188.489c-2.037,0-4.074-0.777-5.628-2.332c-3.109-3.109-3.109-8.149,0-11.257
		l18.502-18.502c3.109-3.109,8.149-3.109,11.257,0c3.109,3.109,3.109,8.149,0,11.257l-18.502,18.502
		C305.334,187.712,303.297,188.489,301.259,188.489z"/>
	<path style="fill:#FF6376;" d="M156.044,206.991c-2.038,0-4.074-0.777-5.628-2.332l-18.502-18.502
		c-3.109-3.109-3.109-8.149,0-11.257c3.109-3.109,8.149-3.109,11.257,0l18.502,18.502c3.109,3.109,3.109,8.149,0,11.258
		C160.117,206.214,158.08,206.991,156.044,206.991z"/>
</g>
<g>
	<path style="fill:#6CF5C5;" d="M274.507,155.759c-2.037,0-4.074-0.777-5.628-2.332l-18.502-18.502
		c-3.109-3.109-3.109-8.149,0-11.257c3.109-3.109,8.149-3.109,11.258,0l18.502,18.502c3.109,3.109,3.109,8.149,0,11.257
		C278.582,154.982,276.545,155.759,274.507,155.759z"/>
	<path style="fill:#6CF5C5;" d="M384.425,206.991c-2.037,0-4.074-0.777-5.628-2.332l-18.502-18.502
		c-3.109-3.109-3.109-8.149,0-11.257c3.109-3.109,8.149-3.109,11.257,0l18.502,18.502c3.109,3.109,3.109,8.149,0,11.258
		C388.498,206.213,386.461,206.991,384.425,206.991z"/>
</g>
<g>
	<path style="fill:#FFFFFF;" d="M307.435,130.031c-2.038,0-4.074-0.777-5.628-2.332l-18.502-18.502
		c-3.109-3.109-3.109-8.149,0-11.257c3.109-3.109,8.149-3.109,11.257,0l18.502,18.502c3.109,3.109,3.109,8.149,0,11.257
		C311.509,129.253,309.472,130.031,307.435,130.031z"/>
	<path style="fill:#FFFFFF;" d="M211.988,197.739c-2.037,0-4.074-0.777-5.628-2.332c-3.109-3.109-3.109-8.149,0-11.258
		l18.502-18.502c3.109-3.109,8.149-3.109,11.257,0c3.109,3.109,3.109,8.149,0,11.257l-18.502,18.502
		C216.062,196.962,214.025,197.739,211.988,197.739z"/>
</g>
<path style="fill:#FF9596;" d="M182.039,142.358c-2.037,0-4.074-0.777-5.628-2.332c-3.109-3.109-3.109-8.149,0-11.257l18.502-18.502
	c3.109-3.109,8.149-3.109,11.258,0c3.109,3.109,3.109,8.149,0,11.257l-18.502,18.502
	C186.113,141.581,184.077,142.358,182.039,142.358z"/>
<circle style="fill:#FF6376;" cx="234.335" cy="65.731" r="31.84"/>
<path style="fill:#725E24;" d="M223.951,63.312c-2.037,0-4.074-0.777-5.628-2.332l-23.411-23.411c-3.109-3.109-3.109-8.149,0-11.257
	c3.109-3.109,8.149-3.109,11.258,0l23.411,23.411c3.109,3.109,3.109,8.149,0,11.257C228.026,62.534,225.989,63.312,223.951,63.312z"
	/>
<path d="M428.553,219.401c1.714-6.023,2.6-12.254,2.6-18.62c0-34.957-26.508-63.84-60.487-67.599
	c-3.111-27.538-23.01-50.762-49.67-58.064c2.653-23.443-7.301-52.066-25.01-69.788C292.567,1.892,288.014,0,283.166,0
	c-9.973,0-18.088,8.115-18.088,18.089c0,6.04-1.481,12.013-4.397,17.845c-7.025-6.221-16.252-10.007-26.351-10.007
	c-8.101,0-15.64,2.439-21.934,6.611l-6.227-6.226c-3.108-3.109-8.149-3.109-11.256,0c-3.11,3.109-3.11,8.149,0,11.257l6.226,6.227
	c-4.174,6.294-6.612,13.834-6.612,21.935c0,2.859,0.309,5.646,0.885,8.336c-28.857,5.776-50.853,29.616-54.087,59.117
	c-33.969,3.762-60.475,32.644-60.475,67.599c0,6.363,0.884,12.595,2.599,18.62c-8.635,5.267-14.41,14.776-14.41,25.608v50.475
	c0,16.529,13.446,29.976,29.974,29.976h0.823l34.707,158.771c3.404,15.57,18.554,27.767,34.494,27.767h173.927
	c15.939,0,31.09-12.197,34.495-27.768l34.706-158.77h0.823c16.528,0,29.974-13.447,29.974-29.976V245.01
	C442.964,234.178,437.187,224.669,428.553,219.401z M212.782,55.439l5.541,5.541c1.555,1.555,3.593,2.332,5.629,2.332
	c2.037,0,4.074-0.777,5.629-2.332c3.109-3.109,3.109-8.149,0-11.257l-5.543-5.542c3.119-1.495,6.61-2.335,10.292-2.335
	c13.17,0,23.884,10.714,23.884,23.884c0,13.169-10.714,23.883-23.884,23.883c-13.169,0-23.882-10.714-23.882-23.883
	C210.448,62.048,211.286,58.557,212.782,55.439z M148.874,148.688c4.396,0,7.96-3.564,7.96-7.96
	c0-26.442,19.562-48.315,45.293-51.644c7.243,9.959,18.976,16.45,32.203,16.45c21.949,0,39.805-17.856,39.805-39.803
	c0-5.581-1.159-10.894-3.241-15.718c6.704-10.123,10.105-20.84,10.105-31.923c0-1.196,0.972-2.169,2.168-2.169
	c0.744,0,1.246,0.348,1.549,0.651c15.907,15.92,24.416,43.47,19.369,62.722c-0.574,2.192-0.188,4.526,1.063,6.415
	c1.252,1.889,3.249,3.155,5.491,3.481c25.387,3.689,44.532,25.847,44.532,51.54c0,4.396,3.572,7.96,7.97,7.96
	c28.724,0,52.094,23.37,52.094,52.094c0,4.879-0.677,9.651-1.989,14.26c-0.085-0.001-0.17-0.006-0.255-0.006H99.015
	c-0.086,0-0.171,0.005-0.257,0.006c-1.311-4.61-1.987-9.383-1.987-14.26C96.771,172.057,120.14,148.688,148.874,148.688z
	 M361.907,480.833c-1.776,8.122-10.627,15.247-18.942,15.247H169.039c-8.315,0-17.166-7.125-18.942-15.247l-33.962-155.371h279.734
	L361.907,480.833z M427.044,295.487c0,7.751-6.304,14.056-14.054,14.056H99.015c-7.751,0-14.054-6.305-14.054-14.056v-50.475
	c0-7.75,6.303-14.055,14.054-14.055h313.974c7.751,0,14.054,6.305,14.054,14.055v50.475H427.044z M285.902,257.202
	c-4.396,0-7.96,3.564-7.96,7.96c0,3.853-3.134,6.988-6.988,6.988c-3.854,0-6.989-3.134-6.989-6.988c0-4.396-3.564-7.96-7.96-7.96
	c-4.396,0-7.96,3.564-7.96,7.96c0,3.853-3.135,6.988-6.989,6.988s-6.988-3.134-6.988-6.988c0-4.396-3.563-7.96-7.96-7.96
	c-4.397,0-7.96,3.564-7.96,7.96c0,12.631,10.277,22.908,22.908,22.908c5.713,0,10.933-2.116,14.949-5.587
	c4.016,3.471,9.236,5.587,14.949,5.587c12.631,0,22.908-10.276,22.908-22.908C293.862,260.766,290.299,257.202,285.902,257.202z
	 M182.039,238.044c-8.305,0-15.037,6.732-15.037,15.037c0,8.306,6.732,15.038,15.037,15.038c8.305,0,15.038-6.732,15.038-15.038
	C197.077,244.776,190.344,238.044,182.039,238.044z M329.972,238.044c-8.305,0-15.037,6.732-15.037,15.037
	c0,8.306,6.732,15.038,15.037,15.038c8.305,0,15.037-6.732,15.037-15.038C345.009,244.776,338.277,238.044,329.972,238.044z"/>
<g>
</g>
<g>
</g>
<g>
</g>
<g>
</g>
<g>
</g>
<g>
</g>
<g>
</g>
<g>
</g>
<g>
</g>
<g>
</g>
<g>
</g>
<g>
</g>
<g>
</g>
<g>
</g>
<g>
</g>
</svg>
