<?xml version="1.0" encoding="iso-8859-1"?>
<!-- Generator: Adobe Illustrator 19.0.0, SVG Export Plug-In . SVG Version: 6.00 Build 0)  -->
<svg version="1.1" id="Layer_1" xmlns="http://www.w3.org/2000/svg" xmlns:xlink="http://www.w3.org/1999/xlink" x="0px" y="0px"
	 viewBox="0 0 511.999 511.999" style="enable-background:new 0 0 511.999 511.999;" xml:space="preserve">
<path style="fill:#866539;" d="M498.078,261.807c0-12.367-6.104-23.303-15.458-29.98c7.295-8.88,10.347-21.027,7.13-32.967
	c-3.314-12.3-12.48-21.46-23.695-25.286c5.119-10.685,4.998-23.644-1.467-34.62c-5.978-10.152-16.071-16.371-26.91-17.809
	c1.322-10.852-2.172-22.18-10.503-30.512c-8.329-8.33-19.657-11.825-30.51-10.502c-1.437-10.84-7.657-20.934-17.811-26.911
	c-10.975-6.464-23.934-6.586-34.619-1.467c-3.827-11.214-12.984-20.382-25.286-23.694c-11.943-3.215-24.09-0.166-32.968,7.128
	c-6.676-9.355-17.613-15.456-29.98-15.456c-12.368,0-23.304,6.103-29.981,15.456c-8.878-7.294-21.025-10.344-32.967-7.128
	c-12.302,3.313-21.461,12.479-25.286,23.692c-10.685-5.116-23.643-4.994-34.619,1.469c-10.154,5.977-16.374,16.071-17.811,26.909
	c-10.853-1.321-22.181,2.173-30.512,10.504c-8.33,8.329-11.825,19.659-10.502,30.512c-10.839,1.439-20.932,7.657-26.91,17.809
	c-6.466,10.975-6.587,23.935-1.467,34.62C34.732,177.4,25.564,186.56,22.25,198.86c-3.216,11.94-0.166,24.087,7.129,32.967
	c-9.353,6.677-15.458,17.611-15.458,29.98c0,12.368,6.106,23.304,15.459,29.981c-7.296,8.88-10.348,21.026-7.13,32.969
	c3.31,12.299,12.479,21.457,23.694,25.285c-5.117,10.685-4.995,23.644,1.47,34.62c5.977,10.15,16.07,16.368,26.907,17.806
	c-1.321,10.853,2.173,22.183,10.503,30.514c8.33,8.331,19.659,11.825,30.513,10.502c1.438,10.838,7.657,20.932,17.809,26.911
	c10.978,6.464,23.933,6.586,34.62,1.468c3.827,11.213,12.985,20.382,25.285,23.694c11.944,3.217,24.091,0.166,32.971-7.128
	c6.676,9.353,17.611,15.454,29.978,15.454c12.368,0,23.303-6.103,29.979-15.456c8.88,7.296,21.027,10.347,32.969,7.13
	c12.301-3.313,21.46-12.48,25.286-23.694c10.688,5.117,23.644,4.995,34.62-1.468c10.152-5.979,16.371-16.073,17.809-26.911
	c10.853,1.321,22.181-2.172,30.51-10.502c8.329-8.33,11.824-19.661,10.503-30.512c10.838-1.438,20.932-7.658,26.909-17.808
	c6.466-10.976,6.589-23.935,1.47-34.62c11.215-3.828,20.382-12.987,23.693-25.285c3.219-11.945,0.166-24.09-7.13-32.969
	C491.974,285.112,498.078,274.177,498.078,261.807z"/>
<path style="fill:#FF6376;" d="M14.399,229.842c18.985,32.881,50.048,32.881,69.03,0c18.982-32.883,50.05-32.883,69.032,0
	c18.98,32.881,50.043,32.881,69.03,0c18.982-32.883,50.045-32.883,69.028,0c18.989,32.881,50.048,32.881,69.032,0
	c18.982-32.883,50.048-32.883,69.03,0c18.982,32.881,50.048,32.881,69.03,0h0.02c5.142-10.454,6.423-22.558,3.341-34.004
	C497.786,184.029,456.172,8.114,256,8.114c-200.173,0-241.786,175.917-244.967,187.724c-3.082,11.448-1.802,23.552,3.34,34.004
	H14.399z"/>
<g>
	<path style="fill:#3F4963;" d="M240.763,142.125c-12.876,0-23.353-10.474-23.353-23.349c0-4.482,3.632-8.114,8.114-8.114
		s8.114,3.632,8.114,8.114c0,3.926,3.196,7.121,7.125,7.121c3.928,0,7.123-3.195,7.123-7.121c0-4.482,3.632-8.114,8.114-8.114
		s8.114,3.632,8.114,8.114C264.114,131.651,253.638,142.125,240.763,142.125z"/>
	<path style="fill:#3F4963;" d="M271.237,142.125c-12.875,0-23.351-10.474-23.351-23.349c0-4.482,3.632-8.114,8.114-8.114
		s8.114,3.632,8.114,8.114c0,3.926,3.195,7.121,7.123,7.121c3.928,0,7.123-3.195,7.123-7.121c0-4.482,3.632-8.114,8.114-8.114
		s8.114,3.632,8.114,8.114C294.588,131.651,284.112,142.125,271.237,142.125z"/>
</g>
<path style="fill:#FF9596;" d="M347.793,155.165h-32.786c-4.482,0-8.114-3.632-8.114-8.114c0-4.482,3.632-8.114,8.114-8.114h32.786
	c4.481,0,8.114,3.632,8.114,8.114C355.907,151.532,352.274,155.165,347.793,155.165z"/>
<path style="fill:#3F4963;" d="M346.723,118.027c-4.482,0-8.114-3.632-8.114-8.114c0-3.976-3.234-7.209-7.209-7.209
	s-7.209,3.234-7.209,7.209c0,4.482-3.633,8.114-8.114,8.114c-4.482,0-8.114-3.632-8.114-8.114c0-12.923,10.514-23.437,23.437-23.437
	c12.923,0,23.437,10.515,23.437,23.437C354.837,114.394,351.205,118.027,346.723,118.027z"/>
<path style="fill:#FF9596;" d="M196.992,155.165h-32.786c-4.482,0-8.114-3.632-8.114-8.114c0-4.482,3.632-8.114,8.114-8.114h32.786
	c4.482,0,8.114,3.632,8.114,8.114C205.106,151.532,201.475,155.165,196.992,155.165z"/>
<path style="fill:#3F4963;" d="M195.924,118.027c-4.482,0-8.114-3.632-8.114-8.114c0-3.976-3.234-7.209-7.209-7.209
	s-7.209,3.234-7.209,7.209c0,4.482-3.632,8.114-8.114,8.114c-4.482,0-8.114-3.632-8.114-8.114c0-12.923,10.515-23.437,23.437-23.437
	s23.437,10.515,23.437,23.437C204.038,114.394,200.405,118.027,195.924,118.027z"/>
<g>
	<circle style="fill:#CF9945;" cx="114.752" cy="335.493" r="15.328"/>
	<circle style="fill:#CF9945;" cx="183.407" cy="416.654" r="15.328"/>
	<circle style="fill:#CF9945;" cx="168.077" cy="350.813" r="15.328"/>
	<circle style="fill:#CF9945;" cx="416.395" cy="307.203" r="15.328"/>
	<circle style="fill:#CF9945;" cx="384.739" cy="380.531" r="15.328"/>
</g>
<path d="M180.6,86.477c-12.923,0-23.437,10.515-23.437,23.437c0,4.482,3.632,8.114,8.114,8.114c4.482,0,8.114-3.632,8.114-8.114
	c0-3.977,3.234-7.209,7.209-7.209s7.209,3.233,7.209,7.209c0,4.482,3.632,8.114,8.114,8.114c4.482,0,8.114-3.632,8.114-8.114
	C204.038,96.99,193.523,86.477,180.6,86.477z M286.474,110.664c-4.482,0-8.114,3.632-8.114,8.114c0,3.926-3.195,7.121-7.123,7.121
	c-3.928,0-7.123-3.195-7.123-7.121c0-4.482-3.632-8.114-8.114-8.114c-4.482,0-8.114,3.632-8.114,8.114
	c0,3.926-3.195,7.121-7.123,7.121c-3.929,0-7.125-3.195-7.125-7.121c0-4.482-3.632-8.114-8.114-8.114
	c-4.482,0-8.114,3.632-8.114,8.114c0,12.874,10.477,23.349,23.353,23.349c5.824,0,11.143-2.157,15.237-5.695
	c4.094,3.538,9.413,5.695,15.237,5.695c12.875,0,23.351-10.475,23.351-23.349C294.588,114.296,290.956,110.664,286.474,110.664z
	 M331.4,86.477c-12.923,0-23.437,10.515-23.437,23.437c0,4.482,3.632,8.114,8.114,8.114c4.481,0,8.114-3.632,8.114-8.114
	c0-3.977,3.234-7.209,7.209-7.209s7.209,3.233,7.209,7.209c0,4.482,3.632,8.114,8.114,8.114s8.114-3.632,8.114-8.114
	C354.837,96.99,344.324,86.477,331.4,86.477z M500.637,240.169c1.261-1.796,2.508-3.72,3.729-5.808
	c0.199-0.298,0.38-0.61,0.54-0.936c6.077-12.355,7.46-26.452,3.896-39.694l-0.242-0.917c-9.691-37.087-28.241-73.769-52.231-103.286
	c-21.376-26.3-47.097-47.173-76.448-62.038C343.867,9.249,302.188,0,256,0c-46.186,0-87.866,9.249-123.879,27.488
	c-29.351,14.865-55.071,35.737-76.447,62.038C31.683,119.04,13.134,155.721,3.44,192.811l-0.242,0.92
	c-3.566,13.246-2.183,27.342,3.895,39.694c0.173,0.351,0.37,0.687,0.589,1.004c1.207,2.06,2.438,3.96,3.685,5.735
	c-3.647,6.596-5.56,13.97-5.56,21.645c0,11.803,4.687,23.074,12.816,31.403c-5.684,10.158-7.279,22.258-4.208,33.658
	c3.169,11.767,10.906,21.593,21.325,27.461c-3.104,11.548-1.504,23.951,4.682,34.453c5.781,9.815,14.859,16.906,25.547,20.156
	c0.471,11.16,5.062,21.728,13.116,29.782c8.055,8.057,18.621,12.65,29.783,13.117c3.25,10.69,10.343,19.767,20.159,25.55
	c10.502,6.185,22.905,7.784,34.452,4.68c5.867,10.419,15.692,18.157,27.462,21.327c11.395,3.066,23.499,1.477,33.656-4.207
	c8.327,8.127,19.597,12.811,31.401,12.811c11.804,0,23.075-4.684,31.402-12.813c10.159,5.684,22.259,7.278,33.656,4.209
	c11.769-3.17,21.595-10.907,27.463-21.327c11.547,3.104,23.95,1.505,34.453-4.68c9.815-5.781,16.907-14.863,20.157-25.55
	c11.161-0.472,21.728-5.063,29.782-13.117c8.054-8.054,12.646-18.62,13.116-29.78c10.689-3.25,19.768-10.341,25.548-20.158
	c6.187-10.502,7.787-22.905,4.683-34.453c10.419-5.868,18.156-15.693,21.324-27.461c3.07-11.397,1.477-23.501-4.208-33.658
	c8.129-8.327,12.815-19.6,12.815-31.403C506.192,254.134,504.281,246.764,500.637,240.169z M477.905,285.185
	c-1.828,1.306-3.036,3.314-3.33,5.54c-0.295,2.229,0.348,4.48,1.775,6.216c5.89,7.167,7.97,16.78,5.565,25.709
	c-2.489,9.247-9.398,16.616-18.479,19.717c-2.193,0.748-3.962,2.398-4.86,4.536c-0.897,2.137-0.837,4.556,0.162,6.646
	c4.145,8.655,3.717,18.746-1.145,27c-4.506,7.649-12.154,12.71-20.984,13.882c-4.409,0.583-7.524,4.609-6.988,9.023
	c1.076,8.843-1.907,17.514-8.185,23.794c-6.278,6.278-14.956,9.26-23.792,8.183c-4.425-0.534-8.438,2.58-9.024,6.988
	c-1.173,8.83-6.234,16.481-13.883,20.986c-8.252,4.86-18.346,5.287-26.999,1.144c-2.09-1.002-4.51-1.06-6.647-0.162
	c-2.138,0.898-3.789,2.667-4.536,4.86c-3.1,9.082-10.47,15.989-19.719,18.48c-8.926,2.407-18.539,0.326-25.708-5.566
	c-1.736-1.424-3.979-2.064-6.216-1.775c-2.229,0.295-4.233,1.503-5.539,3.332c-5.388,7.548-14.127,12.055-23.375,12.055
	s-17.986-4.505-23.373-12.055c-1.306-1.828-3.313-3.035-5.539-3.33c-2.237-0.29-4.48,0.348-6.215,1.775
	c-7.168,5.889-16.781,7.966-25.71,5.564c-9.247-2.492-16.616-9.399-19.717-18.48c-0.748-2.193-2.4-3.962-4.536-4.86
	c-2.135-0.898-4.555-0.838-6.647,0.162c-8.655,4.143-18.747,3.715-26.998-1.141c-7.652-4.507-12.713-12.158-13.884-20.988
	c-0.585-4.407-4.601-7.52-9.025-6.988c-8.844,1.088-17.514-1.904-23.793-8.183c-6.279-6.28-9.263-14.951-8.185-23.796
	c0.537-4.414-2.579-8.44-6.988-9.023c-8.829-1.173-16.477-6.231-20.984-13.882c-4.861-8.251-5.288-18.343-1.144-26.998
	c1.001-2.09,1.059-4.509,0.162-6.646c-0.898-2.139-2.667-3.789-4.86-4.536c-9.083-3.102-15.991-10.472-18.48-19.717
	c-2.406-8.932-0.326-18.542,5.565-25.709c1.426-1.736,2.07-3.988,1.775-6.216c-0.294-2.228-1.501-4.234-3.33-5.54
	c-7.551-5.391-12.059-14.13-12.059-23.377c0-2.977,0.462-5.879,1.334-8.644c9.925,7.883,19.51,9.451,25.546,9.451
	c9.322,0,27.116-3.729,41.54-28.716c7.67-13.288,17.433-20.606,27.489-20.606s19.818,7.318,27.489,20.604
	c14.423,24.989,32.217,28.718,41.539,28.718c9.322,0,27.116-3.729,41.543-28.716c7.67-13.288,17.432-20.606,27.487-20.606
	s19.816,7.318,27.487,20.606c14.43,24.986,32.222,28.716,41.543,28.716c9.322,0,27.114-3.729,41.541-28.716
	c7.67-13.288,17.432-20.606,27.488-20.606c10.056,0,19.817,7.318,27.488,20.606c14.424,24.986,32.219,28.716,41.541,28.716
	c6.035,0,15.618-1.568,25.539-9.445c0.872,2.764,1.332,5.662,1.332,8.638C489.964,271.057,485.456,279.796,477.905,285.185z
	 M490.553,225.833c-7.666,13.257-17.417,20.555-27.461,20.555c-10.056,0-19.817-7.315-27.488-20.602
	c-14.424-24.989-32.219-28.72-41.541-28.72s-27.117,3.731-41.541,28.72c-7.671,13.286-17.433,20.602-27.488,20.602
	c-10.055,0-19.817-7.318-27.49-20.602c-14.424-24.989-32.218-28.72-41.541-28.72c-9.322,0-27.116,3.731-41.54,28.72
	c-7.672,13.286-17.435,20.602-27.49,20.602s-19.816-7.315-27.486-20.602c-14.424-24.989-32.219-28.72-41.542-28.72
	s-27.118,3.731-41.542,28.72c-7.67,13.286-17.432,20.602-27.487,20.602s-19.817-7.315-27.489-20.602
	c-0.005-0.009-0.01-0.017-0.015-0.025c-4.132-8.695-5.036-18.549-2.543-27.811l0.273-1.035
	c5.282-20.209,18.687-59.705,49.126-97.154C113.319,44.333,176.482,16.228,256,16.228c79.519,0,142.683,28.105,187.736,83.535
	c30.439,37.451,43.842,76.945,49.124,97.154l0.272,1.033C495.632,207.234,494.714,217.116,490.553,225.833z"/>
<g>
</g>
<g>
</g>
<g>
</g>
<g>
</g>
<g>
</g>
<g>
</g>
<g>
</g>
<g>
</g>
<g>
</g>
<g>
</g>
<g>
</g>
<g>
</g>
<g>
</g>
<g>
</g>
<g>
</g>
</svg>
