<?xml version="1.0" encoding="iso-8859-1"?>
<!-- Generator: Adobe Illustrator 19.0.0, SVG Export Plug-In . SVG Version: 6.00 Build 0)  -->
<svg version="1.1" id="Layer_1" xmlns="http://www.w3.org/2000/svg" xmlns:xlink="http://www.w3.org/1999/xlink" x="0px" y="0px"
	 viewBox="0 0 511.999 511.999" style="enable-background:new 0 0 511.999 511.999;" xml:space="preserve">
<path style="fill:#89AAED;" d="M326.075,464.979c-21.541,0-39.005-17.463-39.005-39.005v-49.79h-62.141v49.79
	c0,21.542-17.464,39.005-39.005,39.005H326.075z"/>
<g>
	<path style="fill:#B5CCF8;" d="M345.577,503.983c10.771,0,19.503-8.731,19.503-19.503c0-10.77-8.731-19.502-19.503-19.502H166.422
		c-10.771,0-19.503,8.731-19.503,19.502c0,10.771,8.731,19.503,19.503,19.503H345.577z"/>
	<path style="fill:#B5CCF8;" d="M107.231,27.861c0-10.96,8.884-19.844,19.845-19.844h257.848c10.96,0,19.844,8.884,19.844,19.844
		v225.377c0,82.031-66.737,148.769-148.767,148.769c-82.032,0-148.768-66.738-148.768-148.769L107.231,27.861L107.231,27.861z"/>
</g>
<path style="fill:#FFFFFF;" d="M329.428,89.795h-3.332c0-18.478-14.979-33.458-33.457-33.458h-73.271
	c-18.478,0-33.457,14.98-33.457,33.458h-3.34c-22.936,0-41.529,18.593-41.529,41.529s18.594,41.53,41.529,41.53h146.857
	c22.936,0,41.529-18.593,41.529-41.53C370.958,108.388,352.364,89.795,329.428,89.795z"/>
<path style="fill:#FF9596;" d="M370.958,131.324v121.916c0,63.489-51.468,114.958-114.958,114.958s-114.959-51.47-114.959-114.958
	V131.324H370.958z"/>
<circle style="fill:#3F4963;" cx="184.592" cy="205.79" r="14.517"/>
<path style="fill:#FF6376;" d="M200.122,252.246h-31.058c-4.428,0-8.017-3.59-8.017-8.017s3.59-8.017,8.017-8.017h31.058
	c4.428,0,8.017,3.59,8.017,8.017S204.55,252.246,200.122,252.246z"/>
<circle style="fill:#3F4963;" cx="327.408" cy="205.79" r="14.517"/>
<path style="fill:#FF6376;" d="M342.935,252.246h-31.058c-4.428,0-8.017-3.59-8.017-8.017s3.59-8.017,8.017-8.017h31.058
	c4.428,0,8.017,3.59,8.017,8.017S347.363,252.246,342.935,252.246z"/>
<g>
	<path style="fill:#3F4963;" d="M241.569,239.896c-12.379,0-22.449-10.07-22.449-22.448c0-4.428,3.59-8.017,8.017-8.017
		s8.017,3.59,8.017,8.017c0,3.536,2.877,6.413,6.414,6.413s6.414-2.877,6.414-6.413c0-4.428,3.59-8.017,8.017-8.017
		c4.428,0,8.017,3.59,8.017,8.017C264.017,229.826,253.946,239.896,241.569,239.896z"/>
	<path style="fill:#3F4963;" d="M270.431,239.896c-12.379,0-22.449-10.07-22.449-22.448c0-4.428,3.59-8.017,8.017-8.017
		c4.428,0,8.017,3.59,8.017,8.017c0,3.536,2.877,6.413,6.414,6.413c3.537,0,6.414-2.877,6.414-6.413c0-4.428,3.59-8.017,8.017-8.017
		s8.017,3.59,8.017,8.017C292.879,229.826,282.809,239.896,270.431,239.896z"/>
</g>
<circle style="fill:#FF6376;" cx="258.384" cy="60.43" r="29.366"/>
<path style="fill:#725E24;" d="M265.063,61.762c-2.051,0-4.104-0.782-5.669-2.349c-3.131-3.131-3.131-8.208,0-11.338l26.368-26.368
	c3.131-3.131,8.208-3.131,11.338,0c3.131,3.131,3.131,8.208,0,11.339l-26.367,26.368C269.167,60.979,267.114,61.762,265.063,61.762z
	"/>
<path d="M241.569,239.896c5.493,0,10.525-1.99,14.431-5.278c3.906,3.287,8.938,5.278,14.431,5.278
	c12.379,0,22.449-10.07,22.449-22.448c0-4.428-3.589-8.017-8.017-8.017c-4.429,0-8.017,3.59-8.017,8.017
	c0,3.536-2.877,6.413-6.414,6.413c-3.537,0-6.414-2.877-6.414-6.413c0-4.428-3.589-8.017-8.017-8.017s-8.017,3.59-8.017,8.017
	c0,3.536-2.877,6.413-6.414,6.413s-6.414-2.877-6.414-6.413c0-4.428-3.589-8.017-8.017-8.017c-4.429,0-8.017,3.59-8.017,8.017
	C219.12,229.826,229.189,239.896,241.569,239.896z M412.785,253.238V27.861C412.785,12.499,400.286,0,384.923,0H127.076
	c-15.363,0-27.862,12.499-27.862,27.861v225.377c0,72.961,50.096,134.442,117.698,151.854v20.88
	c0,17.087-13.901,30.988-30.987,30.988h-19.503c-15.174,0-27.52,12.345-27.52,27.519s12.346,27.52,27.52,27.52h179.155
	c15.174,0,27.52-12.346,27.52-27.52c0-15.174-12.346-27.519-27.52-27.519h-19.503c-17.086,0-30.987-13.901-30.987-30.988v-20.88
	C362.689,387.681,412.785,326.2,412.785,253.238z M345.577,472.996c6.333,0,11.485,5.151,11.485,11.484
	c0,6.333-5.153,11.485-11.485,11.485H166.422c-6.333,0-11.485-5.152-11.485-11.485s5.153-11.484,11.485-11.484H345.577z
	 M290.752,456.961h-69.505c7.274-8.281,11.699-19.125,11.699-30.988v-17.647c7.526,1.114,15.221,1.699,23.053,1.699
	c7.831,0,15.527-0.585,23.053-1.699v17.647C279.053,437.836,283.478,448.68,290.752,456.961z M256,393.99
	c-77.61,0-140.751-63.141-140.751-140.751V27.861c0-6.522,5.305-11.826,11.827-11.826h257.847c6.523,0,11.828,5.305,11.828,11.826
	v225.377C396.75,330.85,333.609,393.99,256,393.99z M327.406,220.304c8.017,0,14.517-6.499,14.517-14.518
	c0-8.017-6.499-14.517-14.517-14.517s-14.517,6.499-14.517,14.517C312.889,213.804,319.389,220.304,327.406,220.304z
	 M378.975,131.324c0-25.993-20.123-47.377-45.609-49.391c-3.615-18.77-19.929-33.067-39.615-33.588
	c-0.979-2.855-2.293-5.554-3.896-8.052l7.247-7.247c3.131-3.131,3.131-8.208,0-11.339s-8.208-3.131-11.339,0l-7.246,7.247
	c-5.816-3.734-12.724-5.91-20.135-5.91c-16.376,0-30.316,10.588-35.36,25.276h-3.653c-20.184,0-37.044,14.489-40.728,33.612
	c-25.49,2.009-45.616,23.394-45.616,49.391v121.916c0,67.809,55.165,122.975,122.975,122.975
	c67.809,0,122.975-55.167,122.975-122.975V131.324H378.975z M258.381,39.079c2.951,0,5.763,0.602,8.321,1.69l-7.308,7.308
	c-3.132,3.131-3.132,8.208,0,11.338c1.566,1.566,3.617,2.349,5.669,2.349c2.052,0,4.105-0.782,5.67-2.349l7.309-7.308
	c1.087,2.559,1.689,5.371,1.689,8.321c0,11.773-9.577,21.351-21.35,21.351s-21.35-9.578-21.35-21.351
	C237.031,48.656,246.608,39.079,258.381,39.079z M182.57,97.812h3.34c4.429,0,8.017-3.59,8.017-8.017
	c0-14.028,11.412-25.441,25.441-25.441h1.837c1.97,18.776,17.889,33.458,37.176,33.458c19.229,0,35.108-14.595,37.155-33.288
	c12.669,1.443,22.543,12.223,22.543,25.271c0,4.428,3.59,8.017,8.017,8.017h3.332c15.715,0,28.932,10.876,32.536,25.494H150.036
	C153.638,108.688,166.855,97.812,182.57,97.812z M362.94,253.238c0,58.967-47.973,106.94-106.94,106.94
	s-106.941-47.973-106.941-106.94V139.341h213.88v113.897H362.94z M184.593,220.304c8.017,0,14.517-6.499,14.517-14.518
	c0-8.017-6.499-14.517-14.517-14.517c-8.017,0-14.517,6.499-14.517,14.517C170.076,213.804,176.575,220.304,184.593,220.304z"/>
<g>
</g>
<g>
</g>
<g>
</g>
<g>
</g>
<g>
</g>
<g>
</g>
<g>
</g>
<g>
</g>
<g>
</g>
<g>
</g>
<g>
</g>
<g>
</g>
<g>
</g>
<g>
</g>
<g>
</g>
</svg>
