<?xml version="1.0" encoding="iso-8859-1"?>
<!-- Generator: Adobe Illustrator 19.0.0, SVG Export Plug-In . SVG Version: 6.00 Build 0)  -->
<svg version="1.1" id="Layer_1" xmlns="http://www.w3.org/2000/svg" xmlns:xlink="http://www.w3.org/1999/xlink" x="0px" y="0px"
	 viewBox="0 0 512.001 512.001" style="enable-background:new 0 0 512.001 512.001;" xml:space="preserve">
<path style="fill:#C3DDF7;" d="M389.105,84.855V19.887c0-6.537-5.349-11.886-11.886-11.886H134.785
	c-6.537,0-11.886,5.349-11.886,11.886v64.968H389.105z"/>
<g style="opacity:0.2;">
	<rect x="248" y="8.001" style="fill:#2F3953;" width="16.002" height="76.852"/>
	<rect x="200.538" y="8.001" style="fill:#2F3953;" width="16.002" height="76.852"/>
	<rect x="153.076" y="8.001" style="fill:#2F3953;" width="16.002" height="76.852"/>
	<rect x="295.461" y="8.001" style="fill:#2F3953;" width="16.002" height="76.852"/>
	<rect x="342.923" y="8.001" style="fill:#2F3953;" width="16.002" height="76.852"/>
</g>
<path style="fill:#C3DDF7;" d="M77.59,197.323v294.787c0,6.541,5.349,11.889,11.886,11.889h333.05
	c6.537,0,11.885-5.349,11.885-11.889V197.323H77.59z"/>
<polygon style="fill:#89AAED;" points="389.105,84.855 122.898,84.855 77.59,197.323 434.412,197.323 "/>
<path style="fill:#FFFFFF;" d="M353.492,427.248c0-5.996-4.906-10.904-10.903-10.904H169.413c-5.996,0-10.903,4.907-10.903,10.904
	v32.892c0,5.996,4.906,10.904,10.903,10.904H342.59c5.996,0,10.903-4.907,10.903-10.904v-32.892H353.492z"/>
<path style="fill:#FDBA55;" d="M322.109,397.058H189.893c-4.419,0-8.001-3.581-8.001-8.001s3.582-8.001,8.001-8.001h132.216
	c4.419,0,8.001,3.581,8.001,8.001C330.11,393.477,326.528,397.058,322.109,397.058z"/>
<g>
	<path style="fill:#3F4963;" d="M312.064,451.695H199.938c-4.419,0-8.001-3.581-8.001-8.001s3.582-8.001,8.001-8.001h112.126
		c4.419,0,8.001,3.581,8.001,8.001S316.483,451.695,312.064,451.695z"/>
	<path style="fill:#3F4963;" d="M400.607,113.408c-11.329,6.9-17.074,18.305-41.831,18.305c-32.71,0-38.524,40.883,4.359,40.883
		c22.217,0,40.552-7.286,58.009-8.206L400.607,113.408z"/>
	<path style="fill:#3F4963;" d="M173.142,120.424c-9.603-15.777-28.249-25.679-53.178-28.287l-23.705,58.844
		c12.204-4.899,25.336-7.485,35.454-0.575C154.063,165.669,188.406,145.501,173.142,120.424z"/>
	<path style="fill:#3F4963;" d="M216.119,124.925c-16.85,5.416-24.711,18.898-21.804,28.346c2.907,9.449,5.087,24.348,30.889,23.622
		c25.804-0.726,32.271-20.368,30.527-28.847C253.192,135.689,236.472,118.384,216.119,124.925z"/>
	<path style="fill:#3F4963;" d="M296.593,102.926c-19.868,5.293-25.024,24.965-11.419,33.682
		c13.605,8.717,30.126-10.72,39.846-14.608C334.74,118.113,329.879,94.055,296.593,102.926z"/>
	<path style="fill:#3F4963;" d="M95.875,347.454c-6.577-1.516-12.732-1.729-18.285-0.944v53.805
		c15.868,0.929,34.456-4.419,44.905-3.302C139.6,398.842,151.039,360.163,95.875,347.454z"/>
	<path style="fill:#3F4963;" d="M409.475,386.722c-23.675,7.609-34.722,26.553-30.637,39.827
		c4.085,13.275,7.148,34.209,43.402,33.189c4.46-0.125,8.506-0.656,12.173-1.508v-71.515
		C426.906,384.253,418.442,383.839,409.475,386.722z"/>
	<circle style="fill:#3F4963;" cx="139.826" cy="271.799" r="15.053"/>
	<circle style="fill:#3F4963;" cx="372.175" cy="271.799" r="15.053"/>
</g>
<g>
	<path style="fill:#FF9596;" d="M155.935,324.1h-32.208c-4.419,0-8.001-3.581-8.001-8.001s3.582-8.001,8.001-8.001h32.208
		c4.419,0,8.001,3.581,8.001,8.001C163.936,320.517,160.355,324.1,155.935,324.1z"/>
	<path style="fill:#FF9596;" d="M388.283,324.1h-32.208c-4.419,0-8.001-3.581-8.001-8.001s3.582-8.001,8.001-8.001h32.208
		c4.419,0,8.001,3.581,8.001,8.001C396.284,320.517,392.702,324.1,388.283,324.1z"/>
</g>
<g>
	<path style="fill:#3F4963;" d="M237.157,313.697c-14.805,0-26.85-12.044-26.85-26.849c0-4.42,3.582-8.001,8.001-8.001
		s8.001,3.581,8.001,8.001c0,5.982,4.867,10.847,10.848,10.847c5.982,0,10.848-4.866,10.848-10.847c0-4.42,3.582-8.001,8.001-8.001
		s8.001,3.581,8.001,8.001C264.007,301.653,251.962,313.697,237.157,313.697z"/>
	<path style="fill:#3F4963;" d="M274.854,313.697c-14.805,0-26.849-12.044-26.849-26.849c0-4.42,3.582-8.001,8.001-8.001
		s8.001,3.581,8.001,8.001c0,5.982,4.867,10.847,10.847,10.847c5.982,0,10.848-4.866,10.848-10.847c0-4.42,3.582-8.001,8.001-8.001
		s8.001,3.581,8.001,8.001C301.703,301.653,289.659,313.697,274.854,313.697z"/>
</g>
<path d="M237.157,313.697c7.34,0,13.997-2.963,18.849-7.751c4.852,4.788,11.51,7.751,18.848,7.751
	c14.806,0,26.85-12.043,26.85-26.849c0-4.42-3.582-8.001-8.001-8.001s-8.001,3.581-8.001,8.001c0,5.982-4.866,10.847-10.848,10.847
	c-5.982,0-10.847-4.866-10.847-10.847c0-4.42-3.581-8.001-8.001-8.001c-4.42,0-8.001,3.581-8.001,8.001
	c0,5.982-4.866,10.847-10.848,10.847c-5.982,0-10.848-4.866-10.848-10.847c0-4.42-3.581-8.001-8.001-8.001
	c-4.419,0-8.001,3.581-8.001,8.001C210.306,301.654,222.352,313.697,237.157,313.697z M372.18,286.854
	c8.314,0,15.054-6.74,15.054-15.056c0-8.314-6.74-15.054-15.054-15.054c-8.315,0-15.054,6.74-15.054,15.054
	C357.127,280.113,363.865,286.854,372.18,286.854z M139.832,286.854c8.314,0,15.054-6.74,15.054-15.056
	c0-8.314-6.74-15.054-15.054-15.054c-8.315,0-15.055,6.74-15.055,15.054C124.777,280.113,131.517,286.854,139.832,286.854z
	 M199.938,451.695h112.126c4.42,0,8.001-3.581,8.001-8.001s-3.581-8.001-8.001-8.001H199.938c-4.42,0-8.001,3.581-8.001,8.001
	S195.518,451.695,199.938,451.695z M441.83,194.334h0.003l-0.037-0.094c-0.006-0.015-0.012-0.031-0.019-0.046l-44.671-110.89V19.888
	C397.106,8.922,388.184,0,377.219,0H134.785c-10.966,0-19.887,8.922-19.887,19.888v63.416l-44.672,110.89
	c-0.007,0.015-0.013,0.031-0.019,0.046l-0.037,0.094h0.003c-0.373,0.925-0.584,1.932-0.584,2.99v294.786
	c0,10.968,8.922,19.89,19.887,19.89h333.05c10.965,0,19.887-8.922,19.887-19.89V197.325
	C442.414,196.266,442.204,195.259,441.83,194.334z M130.899,19.888c0-2.107,1.779-3.886,3.885-3.886h242.434
	c2.107,0,3.885,1.779,3.885,3.886v56.967H130.899V19.888z M128.302,92.857h255.401l38.861,96.466H89.439L128.302,92.857z
	 M426.412,492.111c0,2.109-1.779,3.888-3.885,3.888H89.477c-2.107,0-3.885-1.779-3.885-3.888V205.325h340.821V492.111z
	 M150.509,460.14c0,10.425,8.48,18.905,18.904,18.905H342.59c10.423,0,18.904-8.48,18.904-18.905v-32.892
	c0-10.424-8.48-18.905-18.904-18.905H169.413c-10.424,0-18.904,8.48-18.904,18.905V460.14z M166.511,427.248
	c0-1.574,1.329-2.903,2.902-2.903H342.59c1.572,0,2.902,1.329,2.902,2.903v32.892c0,1.574-1.329,2.903-2.902,2.903H169.413
	c-1.572,0-2.902-1.329-2.902-2.903V427.248z"/>
<g>
</g>
<g>
</g>
<g>
</g>
<g>
</g>
<g>
</g>
<g>
</g>
<g>
</g>
<g>
</g>
<g>
</g>
<g>
</g>
<g>
</g>
<g>
</g>
<g>
</g>
<g>
</g>
<g>
</g>
</svg>
