<?xml version="1.0" encoding="iso-8859-1"?>
<!-- Generator: Adobe Illustrator 19.0.0, SVG Export Plug-In . SVG Version: 6.00 Build 0)  -->
<svg version="1.1" id="Layer_1" xmlns="http://www.w3.org/2000/svg" xmlns:xlink="http://www.w3.org/1999/xlink" x="0px" y="0px"
	 viewBox="0 0 512.001 512.001" style="enable-background:new 0 0 512.001 512.001;" xml:space="preserve">
<path style="fill:#BFBFEC;" d="M155.437,278.702v173.365c0,14.723,12.046,26.768,26.769,26.768h147.588
	c14.723,0,26.77-12.045,26.77-26.768V278.702H155.437z"/>
<g>
	<rect x="247.976" y="278.704" style="opacity:0.1;fill:#2F3953;enable-background:new    ;" width="16.054" height="200.134"/>
	<rect x="190.169" y="278.704" style="opacity:0.1;fill:#2F3953;enable-background:new    ;" width="16.054" height="200.134"/>
	<rect x="305.782" y="278.704" style="opacity:0.1;fill:#2F3953;enable-background:new    ;" width="16.054" height="200.134"/>
</g>
<path style="fill:#866539;" d="M162.572,244.13l-41.173,59.335c-2.968,4.276-1.905,10.145,2.371,13.115
	c1.639,1.139,3.509,1.684,5.364,1.684c2.985,0,5.921-1.415,7.752-4.054l1.512-2.178c0.714,1.984,2.093,3.743,4.048,4.904
	c1.511,0.899,3.17,1.326,4.809,1.326c3.215,0,6.348-1.645,8.111-4.609l1.086-1.825c0.766,2.295,2.411,4.293,4.75,5.454
	c1.346,0.666,2.773,0.981,4.178,0.981c3.469,0,6.807-1.922,8.452-5.24l0.684-1.379c0.821,2.62,2.769,4.861,5.519,5.953
	c1.14,0.454,2.316,0.667,3.472,0.667c3.75,0,7.296-2.254,8.764-5.954l0.326-0.819c0.871,2.959,3.172,5.433,6.351,6.379
	c0.895,0.268,1.8,0.393,2.69,0.393c4.063,0,7.814-2.648,9.031-6.74l0.03-0.107c0.941,3.291,3.637,5.952,7.226,6.665
	c0.62,0.122,1.235,0.182,1.843,0.182c4.16,0,7.898-2.769,9.054-6.852c1.029,3.612,4.167,6.41,8.13,6.805
	c0.318,0.03,0.631,0.047,0.942,0.047c4.229,0,7.916-2.836,9.051-6.85c1.123,3.953,4.748,6.848,9.06,6.848
	c4.311,0,7.938-2.897,9.061-6.85c1.135,4.014,4.823,6.85,9.051,6.85c0.31,0,0.624-0.015,0.942-0.047
	c3.964-0.393,7.1-3.191,8.129-6.803c1.157,4.083,4.893,6.852,9.054,6.852c0.607,0,1.223-0.06,1.843-0.182
	c3.589-0.711,6.285-3.372,7.226-6.665l0.03,0.107c1.217,4.092,4.967,6.74,9.031,6.74c0.889,0,1.795-0.125,2.69-0.393
	c3.179-0.946,5.479-3.42,6.351-6.379l0.326,0.819c1.466,3.699,5.013,5.954,8.764,5.954c1.156,0,2.332-0.213,3.472-0.667
	c2.751-1.092,4.7-3.332,5.518-5.953l0.685,1.379c1.644,3.319,4.982,5.24,8.452,5.24c1.405,0,2.833-0.316,4.178-0.981
	c2.339-1.159,3.983-3.159,4.751-5.454l1.086,1.827c1.764,2.963,4.896,4.609,8.111,4.609c1.639,0,3.298-0.427,4.809-1.326
	c1.953-1.163,3.334-2.922,4.048-4.906l1.512,2.178c1.83,2.639,4.766,4.054,7.752,4.054c1.854,0,3.725-0.546,5.364-1.684
	c4.276-2.967,5.338-8.84,2.372-13.115L349.44,244.13L162.572,244.13L162.572,244.13z"/>
<path style="fill:#F0F8C6;" d="M503.973,211.146c0,37.217-30.17,67.389-67.389,67.389H75.416c-37.218,0-67.389-30.17-67.389-67.389
	c0-118.011,128.424-177.98,247.973-177.98S503.973,93.135,503.973,211.146z"/>
<path style="fill:#C3DDF7;" d="M503.973,211.146c0,37.217-30.17,67.389-67.389,67.389H75.416c-37.218,0-67.389-30.17-67.389-67.389
	c0-118.011,128.424-177.98,247.973-177.98S503.973,93.135,503.973,211.146z"/>
<g>
	<circle style="fill:#3F4963;" cx="139.448" cy="160.672" r="15.102"/>
	<circle style="fill:#3F4963;" cx="372.557" cy="160.672" r="15.102"/>
</g>
<g>
	<path style="fill:#FF6376;" d="M155.605,213.145h-32.313c-4.433,0-8.027-3.593-8.027-8.027s3.594-8.027,8.027-8.027h32.313
		c4.434,0,8.027,3.593,8.027,8.027S160.038,213.145,155.605,213.145z"/>
	<path style="fill:#FF6376;" d="M388.714,213.145h-32.313c-4.434,0-8.027-3.593-8.027-8.027s3.593-8.027,8.027-8.027h32.313
		c4.434,0,8.027,3.593,8.027,8.027S393.149,213.145,388.714,213.145z"/>
</g>
<g>
	<path style="fill:#3F4963;" d="M237.092,202.709c-14.853,0-26.938-12.084-26.938-26.937c0-4.434,3.594-8.027,8.027-8.027
		c4.434,0,8.027,3.593,8.027,8.027c0,6.001,4.883,10.883,10.884,10.883c6.001,0,10.884-4.882,10.884-10.883
		c0-4.434,3.593-8.027,8.027-8.027c4.434,0,8.027,3.593,8.027,8.027C264.03,190.626,251.945,202.709,237.092,202.709z"/>
	<path style="fill:#3F4963;" d="M274.913,202.709c-14.853,0-26.937-12.084-26.937-26.937c0-4.434,3.593-8.027,8.027-8.027
		c4.434,0,8.027,3.593,8.027,8.027c0,6.001,4.883,10.883,10.883,10.883c6.001,0,10.884-4.882,10.884-10.883
		c0-4.434,3.593-8.027,8.027-8.027c4.434,0,8.027,3.593,8.027,8.027C301.851,190.626,289.766,202.709,274.913,202.709z"/>
	<path style="opacity:0.1;fill:#3F4963;enable-background:new    ;" d="M418.359,73.984c-9.18,11.175-14.693,25.48-14.693,41.075
		c0,35.767,28.995,64.76,64.762,64.76c11.026,0,21.403-2.761,30.49-7.622C487.51,129.823,457.606,97.044,418.359,73.984z"/>
	<path style="opacity:0.1;fill:#3F4963;enable-background:new    ;" d="M55.487,213.773c-17.174,0-32.773,6.698-44.365,17.605
		c8.592,27.331,34.126,47.157,64.293,47.157h44.832C120.248,242.768,91.254,213.773,55.487,213.773z"/>
	<circle style="opacity:0.1;fill:#3F4963;enable-background:new    ;" cx="194.279" cy="80.925" r="22.375"/>
</g>
<path d="M429.107,71.118c-46.222-29.22-109.316-45.979-173.107-45.979S129.114,41.898,82.893,71.118
	C28.663,105.399,0,153.822,0,211.146c0,41.585,33.831,75.416,75.416,75.416h47.942l-8.553,12.325
	c-5.483,7.904-3.516,18.797,4.387,24.286c2.937,2.038,6.376,3.117,9.943,3.117c3.245,0,6.375-0.901,9.071-2.54
	c0.046,0.029,0.093,0.057,0.139,0.083c2.7,1.605,5.782,2.454,8.912,2.454c0.051,0,0.103-0.004,0.153-0.004v125.783
	c0,19.186,15.609,34.795,34.796,34.795h147.588c19.187,0,34.797-15.609,34.797-34.795V326.284c0.053,0.002,0.107,0.006,0.159,0.006
	c3.131,0,6.213-0.849,8.917-2.456c0.045-0.027,0.091-0.055,0.136-0.081c2.696,1.636,5.824,2.538,9.07,2.538
	c3.567,0,7.006-1.079,9.941-3.115c7.905-5.487,9.875-16.381,4.39-24.286l-8.553-12.328h47.934c41.584,0,75.416-33.831,75.416-75.416
	C512,153.822,483.337,105.399,429.107,71.118z M348.537,452.066c0,10.335-8.408,18.741-18.743,18.741H182.205
	c-10.334,0-18.742-8.405-18.742-18.741V326.18c0.638,0.071,1.278,0.11,1.918,0.11c3.288,0,6.409-0.899,9.084-2.525
	c0.824,0.498,1.693,0.93,2.604,1.29c2.061,0.82,4.227,1.235,6.44,1.235c3.292,0,6.411-0.903,9.079-2.523
	c1.254,0.759,2.616,1.365,4.06,1.794c1.619,0.485,3.298,0.73,4.99,0.73c3.248,0,6.356-0.922,9.027-2.551
	c1.723,1.05,3.648,1.809,5.706,2.218c4.354,0.857,8.836-0.025,12.425-2.208c2.192,1.331,4.703,2.189,7.392,2.456
	c0.579,0.057,1.153,0.083,1.704,0.083c3.271,0,6.386-0.926,9.057-2.557c2.67,1.63,5.786,2.555,9.055,2.555
	c3.27,0,6.385-0.924,9.057-2.555c2.669,1.63,5.785,2.555,9.056,2.555c0.59,0,1.179-0.029,1.734-0.086
	c2.677-0.265,5.178-1.121,7.365-2.45c3.591,2.182,8.071,3.062,12.427,2.204c2.055-0.408,3.976-1.164,5.698-2.211
	c2.669,1.625,5.777,2.546,9.029,2.546c1.692,0,3.37-0.244,4.979-0.726c1.448-0.43,2.813-1.039,4.07-1.8
	c2.669,1.623,5.787,2.525,9.079,2.525c2.212,0,4.379-0.416,6.432-1.231c0.913-0.364,1.785-0.796,2.61-1.294
	c2.676,1.627,5.797,2.525,9.085,2.525c0.639,0,1.276-0.04,1.912-0.11v125.887H348.537z M383.657,309.988
	c-0.239,0.165-0.503,0.248-0.785,0.248c-0.223,0-0.78-0.059-1.159-0.604l-1.512-2.178c-1.714-2.469-4.659-3.783-7.64-3.38
	c-2.979,0.391-5.49,2.412-6.506,5.241c-0.112,0.309-0.315,0.557-0.598,0.724c-0.225,0.134-0.455,0.198-0.705,0.198
	c-0.188,0-0.834-0.048-1.211-0.682l-1.086-1.827c-1.604-2.7-4.64-4.218-7.754-3.88c-3.121,0.332-5.761,2.456-6.759,5.431
	c-0.083,0.253-0.275,0.6-0.699,0.809c-0.202,0.101-0.404,0.149-0.618,0.149c-0.423,0-0.975-0.202-1.262-0.783l-0.685-1.377
	c-1.459-2.935-4.544-4.691-7.823-4.432c-3.269,0.257-6.05,2.477-7.029,5.606c-0.075,0.239-0.281,0.673-0.824,0.888
	c-0.166,0.067-0.332,0.098-0.505,0.098c-0.438,0-1.042-0.232-1.307-0.897l-0.326-0.82c-1.266-3.18-4.396-5.182-7.828-5.046
	c-3.419,0.158-6.361,2.467-7.328,5.751c-0.065,0.222-0.287,0.759-0.951,0.956c-0.597,0.18-1.473-0.096-1.699-0.851l-0.03-0.107
	c-0.98-3.45-4.129-5.83-7.716-5.832h-0.005c-3.583,0-6.733,2.377-7.718,5.821c-0.115,0.401-0.456,0.873-1.064,0.995
	c-0.758,0.149-1.426-0.307-1.617-0.985c-0.978-3.452-4.129-5.836-7.718-5.838h-0.005c-3.587,0-6.739,2.379-7.72,5.83
	c-0.121,0.424-0.508,0.945-1.223,1.016c-0.661,0.063-1.278-0.378-1.453-1.002c-0.976-3.455-4.129-5.843-7.72-5.845h-0.005
	c-3.589,0-6.742,2.382-7.722,5.834c-0.139,0.489-0.617,1.016-1.339,1.016c-0.721,0-1.199-0.524-1.338-1.014
	c-0.98-3.452-4.132-5.834-7.722-5.834h-0.004c-3.59,0.002-6.743,2.389-7.72,5.843c-0.165,0.585-0.724,1.007-1.327,1.007
	c-0.06,0-0.119-0.004-0.146-0.006c-0.696-0.07-1.085-0.592-1.206-1.016c-0.981-3.452-4.133-5.83-7.72-5.83h-0.006
	c-3.59,0.004-6.74,2.387-7.718,5.841c-0.191,0.675-0.912,1.118-1.609,0.985c-0.614-0.123-0.956-0.596-1.071-0.998
	c-0.985-3.447-4.133-5.821-7.718-5.821h-0.005c-3.585,0.002-6.735,2.384-7.716,5.832l-0.004,0.015c-0.204,0.688-0.835,1-1.336,1
	c-0.135,0-0.262-0.018-0.399-0.059c-0.653-0.195-0.874-0.732-0.941-0.954c-0.966-3.284-3.909-5.592-7.328-5.751
	c-3.435-0.132-6.563,1.869-7.828,5.046l-0.332,0.832c-0.259,0.652-0.864,0.884-1.301,0.884c-0.173,0-0.338-0.031-0.513-0.101
	c-0.537-0.213-0.744-0.65-0.82-0.89c-0.979-3.127-3.763-5.347-7.031-5.602c-3.292-0.268-6.364,1.498-7.822,4.436l-0.685,1.382
	c-0.284,0.573-0.836,0.776-1.259,0.776c-0.214,0-0.417-0.048-0.609-0.145c-0.432-0.213-0.623-0.557-0.705-0.807
	c-0.995-2.976-3.635-5.101-6.756-5.437c-3.127-0.343-6.153,1.179-7.757,3.876l-1.086,1.825c-0.379,0.638-1.023,0.686-1.213,0.686
	c-0.25,0-0.481-0.065-0.709-0.201c-0.284-0.167-0.484-0.41-0.596-0.719c-1.017-2.829-3.528-4.849-6.506-5.241
	c-2.982-0.401-5.927,0.914-7.64,3.38l-1.514,2.18c-0.378,0.544-0.935,0.603-1.157,0.603c-0.283,0-0.547-0.083-0.785-0.248
	c-0.635-0.441-0.793-1.313-0.354-1.946l14.905-21.479h226.21l14.904,21.479C384.451,308.672,384.293,309.547,383.657,309.988z
	 M436.584,270.508H75.416c-32.732,0-59.361-26.63-59.361-59.362c0-65.114,41.012-104.709,75.418-126.459
	c43.723-27.639,103.692-43.493,164.528-43.493s120.805,15.854,164.527,43.493c34.406,21.75,75.418,61.345,75.418,126.459
	C495.946,243.878,469.316,270.508,436.584,270.508z M139.449,145.571c-8.342,0-15.104,6.762-15.104,15.103
	c0,8.343,6.762,15.105,15.104,15.105c8.341,0,15.103-6.762,15.103-15.105C154.552,152.333,147.79,145.571,139.449,145.571z
	 M293.824,167.746c-4.434,0-8.027,3.593-8.027,8.027c0,6.001-4.883,10.883-10.884,10.883c-6,0-10.883-4.882-10.883-10.883
	c0-4.434-3.593-8.027-8.027-8.027c-4.434,0-8.027,3.593-8.027,8.027c0,6.001-4.882,10.883-10.884,10.883
	c-6.002,0-10.884-4.882-10.884-10.883c0-4.434-3.593-8.027-8.027-8.027c-4.433,0-8.027,3.593-8.027,8.027
	c0,14.855,12.085,26.937,26.938,26.937c7.363,0,14.043-2.972,18.911-7.777c4.868,4.803,11.546,7.777,18.91,7.777
	c14.853,0,26.938-12.083,26.938-26.937C301.851,171.339,298.258,167.746,293.824,167.746z M372.558,145.571
	c-8.342,0-15.103,6.762-15.103,15.103c0,8.343,6.761,15.105,15.103,15.105c8.341,0,15.103-6.762,15.103-15.105
	C387.661,152.333,380.899,145.571,372.558,145.571z"/>
<g>
</g>
<g>
</g>
<g>
</g>
<g>
</g>
<g>
</g>
<g>
</g>
<g>
</g>
<g>
</g>
<g>
</g>
<g>
</g>
<g>
</g>
<g>
</g>
<g>
</g>
<g>
</g>
<g>
</g>
</svg>
