<?xml version="1.0" encoding="iso-8859-1"?>
<!-- Generator: Adobe Illustrator 19.0.0, SVG Export Plug-In . SVG Version: 6.00 Build 0)  -->
<svg version="1.1" id="Layer_1" xmlns="http://www.w3.org/2000/svg" xmlns:xlink="http://www.w3.org/1999/xlink" x="0px" y="0px"
	 viewBox="0 0 511.999 511.999" style="enable-background:new 0 0 511.999 511.999;" xml:space="preserve">
<path style="fill:#FFD553;" d="M314.131,171.276V60.207H197.867v111.069c0,74.493-66.464,49.837-66.464,99.696v210.026
	c0,12.718,10.31,23.029,23.03,23.029h203.132c12.72,0,23.03-10.311,23.03-23.029V270.973
	C380.596,221.114,314.131,245.769,314.131,171.276z"/>
<path style="fill:#C3DDF7;" d="M314.131,60.207V18.93c0-6.027-4.932-10.958-10.959-10.958h-94.347
	c-6.027,0-10.959,4.931-10.959,10.958v41.277H314.131z"/>
<g style="opacity:0.2;">
	<path style="fill:#2F3953;" d="M255.999,49.056c-4.404,0-7.972-3.569-7.972-7.972V27.095c0-4.403,3.568-7.972,7.972-7.972
		c4.404,0,7.972,3.569,7.972,7.972v13.989C263.972,45.486,260.403,49.056,255.999,49.056z"/>
	<path style="fill:#2F3953;" d="M223.124,49.056c-4.404,0-7.972-3.569-7.972-7.972V27.095c0-4.403,3.568-7.972,7.972-7.972
		c4.404,0,7.972,3.569,7.972,7.972v13.989C231.096,45.486,227.528,49.056,223.124,49.056z"/>
	<path style="fill:#2F3953;" d="M288.875,49.056c-4.404,0-7.972-3.569-7.972-7.972V27.095c0-4.403,3.568-7.972,7.972-7.972
		s7.972,3.569,7.972,7.972v13.989C296.847,45.486,293.278,49.056,288.875,49.056z"/>
</g>
<path style="fill:#FFFFFF;" d="M337.606,442.919v-80.623c0-5.846-4.783-10.63-10.63-10.63H185.021c-5.846,0-10.63,4.783-10.63,10.63
	v80.623L337.606,442.919L337.606,442.919z"/>
<path style="fill:#FDBA55;" d="M286.757,427.314c-4.404,0-7.972-3.569-7.972-7.972v-23.419l-18.341,12.322
	c-2.688,1.806-6.202,1.806-8.891,0l-18.347-12.323v23.421c0,4.403-3.568,7.972-7.972,7.972c-4.404,0-7.972-3.569-7.972-7.972
	v-38.379c0-2.945,1.623-5.65,4.223-7.036c2.599-1.386,5.75-1.225,8.194,0.418l26.319,17.677l26.314-17.677
	c2.444-1.641,5.593-1.804,8.195-0.418c2.599,1.385,4.223,4.09,4.223,7.036v38.379C294.73,423.745,291.161,427.314,286.757,427.314z"
	/>
<path style="fill:#46C79C;" d="M337.606,442.919v17.17c0,5.846-4.783,10.63-10.63,10.63H185.021c-5.846,0-10.63-4.783-10.63-10.63
	v-17.17L337.606,442.919L337.606,442.919z"/>
<circle style="fill:#3F4963;" cx="184.998" cy="273.277" r="14.435"/>
<path style="fill:#FF0019;" d="M200.436,319.48h-30.883c-4.404,0-7.972-3.569-7.972-7.972s3.568-7.972,7.972-7.972h30.884
	c4.404,0,7.972,3.569,7.972,7.972C208.408,315.911,204.84,319.48,200.436,319.48z"/>
<g>
	<path style="fill:#3F4963;" d="M241.649,307.2c-12.308,0-22.322-10.013-22.322-22.321c0-4.403,3.568-7.972,7.972-7.972
		s7.972,3.569,7.972,7.972c0,3.516,2.86,6.377,6.378,6.377c3.517,0,6.378-2.86,6.378-6.377c0-4.403,3.568-7.972,7.972-7.972
		c4.404,0,7.972,3.569,7.972,7.972C263.972,297.187,253.957,307.2,241.649,307.2z"/>
	<path style="fill:#3F4963;" d="M270.349,307.2c-12.308,0-22.322-10.013-22.322-22.321c0-4.403,3.568-7.972,7.972-7.972
		c4.404,0,7.972,3.569,7.972,7.972c0,3.516,2.86,6.377,6.378,6.377s6.378-2.86,6.378-6.377c0-4.403,3.568-7.972,7.972-7.972
		s7.972,3.569,7.972,7.972C292.672,297.187,282.658,307.2,270.349,307.2z"/>
</g>
<path style="fill:#FF0019;" d="M342.446,319.48h-30.884c-4.404,0-7.972-3.569-7.972-7.972s3.568-7.972,7.972-7.972h30.884
	c4.404,0,7.972,3.569,7.972,7.972S346.85,319.48,342.446,319.48z"/>
<path style="fill:#3F4963;" d="M341.439,284.496c-4.404,0-7.972-3.569-7.972-7.972c0-3.564-2.9-6.463-6.463-6.463
	c-3.564,0-6.463,2.9-6.463,6.463c0,4.403-3.569,7.972-7.972,7.972c-4.404,0-7.972-3.569-7.972-7.972
	c0-12.356,10.051-22.407,22.407-22.407c12.356,0,22.407,10.052,22.407,22.407C349.412,280.927,345.842,284.496,341.439,284.496z"/>
<rect x="197.87" y="102.937" style="fill:#FDBA55;" width="116.267" height="47.783"/>
<path d="M184.995,287.718c7.972,0,14.435-6.463,14.435-14.436c0-7.972-6.463-14.435-14.435-14.435s-14.435,6.463-14.435,14.435
	C170.559,281.255,177.022,287.718,184.995,287.718z M241.649,307.2c5.463,0,10.466-1.978,14.35-5.248
	c3.884,3.27,8.887,5.248,14.35,5.248c12.308,0,22.322-10.013,22.322-22.321c0-4.403-3.568-7.972-7.972-7.972
	s-7.972,3.569-7.972,7.972c0,3.516-2.86,6.377-6.378,6.377s-6.378-2.86-6.378-6.377c0-4.403-3.568-7.972-7.972-7.972
	c-4.404,0-7.972,3.569-7.972,7.972c0,3.516-2.86,6.377-6.378,6.377c-3.517,0-6.378-2.86-6.378-6.377
	c0-4.403-3.568-7.972-7.972-7.972s-7.972,3.569-7.972,7.972C219.327,297.187,229.341,307.2,241.649,307.2z M327.004,254.115
	c-12.356,0-22.407,10.052-22.407,22.407c0,4.403,3.568,7.972,7.972,7.972c4.403,0,7.972-3.569,7.972-7.972
	c0-3.564,2.899-6.463,6.463-6.463c3.564,0,6.463,2.9,6.463,6.463c0,4.403,3.568,7.972,7.972,7.972s7.972-3.569,7.972-7.972
	C349.412,264.168,339.36,254.115,327.004,254.115z M356.154,226.108c-17.511-9.56-34.05-18.59-34.05-54.832V18.93
	c0-10.438-8.492-18.93-18.931-18.93h-94.347c-10.438,0-18.931,8.492-18.931,18.93v152.346c0,36.242-16.539,45.272-34.05,54.832
	c-15.194,8.295-32.414,17.697-32.414,44.863v210.026c0,17.095,13.908,31.001,31.002,31.001h203.132
	c17.095,0,31.002-13.907,31.002-31.001V270.973C388.568,243.807,371.348,234.405,356.154,226.108z M205.839,18.93
	c0-1.618,1.368-2.986,2.987-2.986h94.347c1.618,0,2.987,1.367,2.987,2.986v33.305H205.84V18.93H205.839z M372.624,480.999
	c0,8.303-6.754,15.057-15.058,15.057H154.433c-8.303,0-15.058-6.754-15.058-15.057V270.973c0-17.706,9.591-22.942,24.11-30.868
	c18.871-10.302,42.355-23.125,42.355-68.827V68.181H306.16v103.097c0,45.703,23.484,58.525,42.355,68.827
	c14.518,7.927,24.11,13.164,24.11,30.868v210.026H372.624z M326.977,343.695H185.021c-10.257,0-18.602,8.345-18.602,18.602v97.793
	c0,10.257,8.345,18.602,18.602,18.602h141.957c10.258,0,18.602-8.345,18.602-18.602v-97.793
	C345.579,352.04,337.234,343.695,326.977,343.695z M329.634,460.089c0,1.44-1.217,2.657-2.657,2.657H185.021
	c-1.44,0-2.657-1.217-2.657-2.657v-97.793c0-1.44,1.217-2.657,2.657-2.657h141.957c1.44,0,2.657,1.217,2.657,2.657v97.793H329.634z"
	/>
<g>
</g>
<g>
</g>
<g>
</g>
<g>
</g>
<g>
</g>
<g>
</g>
<g>
</g>
<g>
</g>
<g>
</g>
<g>
</g>
<g>
</g>
<g>
</g>
<g>
</g>
<g>
</g>
<g>
</g>
</svg>
