<?xml version="1.0" encoding="iso-8859-1"?>
<!-- Generator: Adobe Illustrator 19.0.0, SVG Export Plug-In . SVG Version: 6.00 Build 0)  -->
<svg version="1.1" id="Layer_1" xmlns="http://www.w3.org/2000/svg" xmlns:xlink="http://www.w3.org/1999/xlink" x="0px" y="0px"
	 viewBox="0 0 512 512" style="enable-background:new 0 0 512 512;" xml:space="preserve">
<path style="fill:#C3DDF7;" d="M503.904,316.025c0-136.913-110.991-247.905-247.904-247.905S8.096,179.112,8.096,316.025
	s110.99,127.726,247.904,127.726S503.904,452.938,503.904,316.025z"/>
<g>
	<path style="fill:#3F4963;" d="M349.136,313.089H162.864c-11.875,0-21.59,9.716-21.59,21.59v107.292
		c34.307,2.614,73.327,1.779,114.726,1.779c41.4,0,80.42,0.833,114.726-1.779V334.679
		C370.727,322.804,361.011,313.089,349.136,313.089z"/>
	<circle style="fill:#3F4963;" cx="142.874" cy="233.705" r="14.66"/>
	<circle style="fill:#3F4963;" cx="369.131" cy="233.705" r="14.66"/>
</g>
<g>
	<path style="fill:#FF9596;" d="M158.553,284.936h-31.364c-4.471,0-8.096-3.625-8.096-8.096s3.625-8.096,8.096-8.096h31.365
		c4.471,0,8.096,3.625,8.096,8.096C166.65,281.311,163.026,284.936,158.553,284.936z"/>
	<path style="fill:#FF9596;" d="M384.82,284.936h-31.365c-4.472,0-8.096-3.625-8.096-8.096s3.624-8.096,8.096-8.096h31.365
		c4.472,0,8.096,3.625,8.096,8.096S389.291,284.936,384.82,284.936z"/>
</g>
<g>
	<path style="fill:#3F4963;" d="M237.649,274.807c-14.585,0-26.451-11.866-26.451-26.45c0-4.471,3.625-8.096,8.096-8.096
		s8.096,3.625,8.096,8.096c0,5.657,4.602,10.258,10.259,10.258c5.657,0,10.26-4.602,10.26-10.258c0-4.471,3.625-8.096,8.096-8.096
		c4.472,0,8.096,3.625,8.096,8.096C264.1,262.941,252.234,274.807,237.649,274.807z"/>
	<path style="fill:#3F4963;" d="M274.359,274.807c-14.585,0-26.451-11.866-26.451-26.45c0-4.471,3.625-8.096,8.096-8.096
		c4.472,0,8.096,3.625,8.096,8.096c0,5.657,4.602,10.258,10.259,10.258c5.657,0,10.259-4.602,10.259-10.258
		c0-4.471,3.624-8.096,8.096-8.096c4.471,0,8.096,3.625,8.096,8.096C300.81,262.941,288.944,274.807,274.359,274.807z"/>
</g>
<g style="opacity:0.2;">
	<path style="fill:#2F3953;" d="M407.905,198.134c-2.072,0-4.144-0.79-5.726-2.372c-3.162-3.162-3.162-8.289,0-11.449l12.266-12.266
		c3.163-3.162,8.289-3.162,11.45,0c3.162,3.162,3.162,8.289,0,11.449l-12.266,12.266
		C412.049,197.344,409.977,198.134,407.905,198.134z"/>
	<path style="fill:#2F3953;" d="M85.04,250.29c-2.072,0-4.144-0.791-5.725-2.372L67.05,235.653c-3.162-3.162-3.162-8.289,0-11.449
		c3.162-3.162,8.289-3.162,11.449,0l12.266,12.266c3.162,3.162,3.162,8.289,0,11.449C89.185,249.499,87.113,250.29,85.04,250.29z"/>
	<path style="fill:#2F3953;" d="M50.596,329.162c-2.072,0-4.144-0.79-5.725-2.372c-3.162-3.162-3.162-8.289,0-11.45l22.179-22.179
		c3.162-3.162,8.289-3.162,11.449,0c3.162,3.162,3.162,8.289,0,11.449l-22.179,22.179C54.74,328.372,52.669,329.162,50.596,329.162z
		"/>
	<path style="fill:#2F3953;" d="M184.211,157.991c-2.072,0-4.144-0.79-5.725-2.372l-22.179-22.179
		c-3.162-3.162-3.162-8.289,0-11.449c3.162-3.162,8.289-3.162,11.449,0l22.179,22.179c3.162,3.162,3.162,8.289,0,11.45
		C188.355,157.201,186.283,157.991,184.211,157.991z"/>
	<path style="fill:#2F3953;" d="M433.199,272.469c-2.072,0-4.144-0.79-5.726-2.372c-3.162-3.162-3.162-8.289,0-11.449l22.179-22.179
		c3.163-3.162,8.289-3.162,11.45,0c3.162,3.162,3.162,8.289,0,11.449l-22.179,22.179
		C437.344,271.677,435.271,272.469,433.199,272.469z"/>
	<path style="fill:#2F3953;" d="M466.468,351.342c-2.072,0-4.144-0.791-5.726-2.372l-22.179-22.179
		c-3.162-3.162-3.162-8.289,0-11.45c3.163-3.162,8.289-3.162,11.452,0l22.179,22.179c3.162,3.162,3.162,8.289,0,11.45
		C470.611,350.55,468.539,351.342,466.468,351.342z"/>
	<path style="fill:#2F3953;" d="M328.953,146.902c-2.073,0-4.144-0.79-5.726-2.372c-3.162-3.162-3.162-8.289,0.001-11.45
		l15.443-15.441c3.161-3.162,8.287-3.16,11.449,0.001c3.162,3.162,3.162,8.289-0.001,11.45l-15.443,15.441
		C333.098,146.111,331.025,146.902,328.953,146.902z"/>
	<path style="fill:#2F3953;" d="M312.337,194.624c-2.073,0-4.144-0.79-5.726-2.372l-15.44-15.443
		c-3.162-3.162-3.162-8.289,0.001-11.45c3.162-3.163,8.289-3.161,11.45,0.001l15.44,15.443c3.162,3.162,3.162,8.289-0.001,11.449
		C316.482,193.834,314.409,194.624,312.337,194.624z"/>
	<path style="fill:#2F3953;" d="M203.048,210.869c-2.072,0-4.144-0.79-5.725-2.372c-3.162-3.162-3.162-8.289,0-11.45l22.179-22.179
		c3.162-3.162,8.289-3.162,11.45,0s3.162,8.289,0,11.449l-22.179,22.179C207.192,210.079,205.121,210.869,203.048,210.869z"/>
	<path style="fill:#2F3953;" d="M96.13,397.669c-2.073,0-4.144-0.79-5.725-2.372l-22.179-22.179c-3.162-3.162-3.162-8.289,0-11.449
		c3.162-3.162,8.289-3.162,11.449,0l22.179,22.179c3.162,3.162,3.162,8.289,0,11.449C100.274,396.879,98.202,397.669,96.13,397.669z
		"/>
	<path style="fill:#2F3953;" d="M244.907,135.18c-2.072,0-4.144-0.79-5.725-2.372c-3.162-3.162-3.162-8.289,0-11.449L261.36,99.18
		c3.163-3.162,8.289-3.162,11.45,0c3.162,3.162,3.162,8.289,0,11.449l-22.179,22.179C249.052,134.388,246.98,135.18,244.907,135.18z
		"/>
	<path style="fill:#2F3953;" d="M102.997,187.587c-2.072,0-4.144-0.79-5.726-2.372c-3.162-3.162-3.161-8.289,0-11.45l16.809-16.808
		c3.162-3.162,8.289-3.162,11.45,0c3.162,3.162,3.161,8.289,0,11.45l-16.809,16.808
		C107.141,186.796,105.069,187.587,102.997,187.587z"/>
	<path style="fill:#2F3953;" d="M415.119,392.713c-2.072,0-4.144-0.79-5.726-2.372c-3.162-3.162-3.162-8.289,0-11.449l12.266-12.266
		c3.163-3.162,8.289-3.162,11.45,0c3.162,3.162,3.162,8.289,0,11.449l-12.266,12.266
		C419.263,391.922,417.19,392.713,415.119,392.713z"/>
</g>
<path d="M292.714,240.259c-4.472,0-8.096,3.625-8.096,8.096c0,5.657-4.602,10.258-10.259,10.258
	c-5.657,0-10.259-4.602-10.259-10.258c0-4.471-3.624-8.096-8.096-8.096c-4.472,0-8.096,3.625-8.096,8.096
	c0,5.657-4.603,10.258-10.26,10.258s-10.259-4.602-10.259-10.258c0-4.471-3.625-8.096-8.096-8.096c-4.471,0-8.096,3.625-8.096,8.096
	c0,14.585,11.866,26.45,26.451,26.45c7.125,0,13.595-2.836,18.356-7.431c4.761,4.596,11.23,7.431,18.355,7.431
	c14.585,0,26.451-11.866,26.451-26.45C300.81,243.884,297.186,240.259,292.714,240.259z M142.872,219.041
	c-8.096,0-14.66,6.563-14.66,14.66c0,8.097,6.563,14.661,14.66,14.661c8.096,0,14.66-6.563,14.66-14.661
	C157.532,225.605,150.969,219.041,142.872,219.041z M369.136,219.041c-8.096,0-14.66,6.563-14.66,14.66
	c0,8.097,6.563,14.661,14.66,14.661s14.66-6.563,14.66-14.661C383.796,225.605,377.233,219.041,369.136,219.041z M437.02,135.006
	c-48.353-48.353-112.64-74.981-181.019-74.981c-68.381,0-132.668,26.629-181.02,74.981C26.629,183.358,0,247.645,0,316.025
	c0,30.773,5.331,55.258,16.299,74.856c10.285,18.379,25.256,32.007,45.772,41.663c38.126,17.946,91.08,19.431,146.558,19.431
	c7.574,0,15.268-0.031,23.068-0.064c15.991-0.064,32.616-0.064,48.616,0c7.8,0.032,15.493,0.064,23.06,0.064h0.019
	c55.474,0,108.425-1.488,146.543-19.428c20.515-9.655,35.486-23.284,45.769-41.663C506.669,371.287,512,346.801,512,316.025
	C512,247.645,485.372,183.358,437.02,135.006z M362.63,434.43c-18.885,1.153-38.874,1.353-59.238,1.353h-0.021
	c-7.545,0-15.217-0.031-22.994-0.063c-8.023-0.032-16.156-0.066-24.379-0.066c-8.224,0-16.353,0.033-24.37,0.066
	c-7.778,0.031-15.45,0.063-23.002,0.063c-20.371,0-40.365-0.201-59.258-1.355v-99.749c0-7.441,6.053-13.494,13.494-13.494h186.272
	c7.441,0,13.494,6.053,13.494,13.494v99.751H362.63z M443.038,417.896c-17.87,8.412-39.863,12.888-64.215,15.263v-98.48
	c0-16.37-13.318-29.687-29.687-29.687H162.864c-16.37,0-29.687,13.317-29.687,29.687v98.479
	c-24.349-2.375-46.342-6.855-64.21-15.265c-22.656-10.664-52.774-32.824-52.774-101.868c0-64.054,24.944-124.276,70.238-169.57
	s105.514-70.238,169.569-70.238s124.275,24.944,169.569,70.238c45.294,45.294,70.239,105.515,70.239,169.57
	C495.807,385.073,465.692,407.235,443.038,417.896z"/>
<g>
</g>
<g>
</g>
<g>
</g>
<g>
</g>
<g>
</g>
<g>
</g>
<g>
</g>
<g>
</g>
<g>
</g>
<g>
</g>
<g>
</g>
<g>
</g>
<g>
</g>
<g>
</g>
<g>
</g>
</svg>
