<?xml version="1.0" encoding="iso-8859-1"?>
<!-- Generator: Adobe Illustrator 19.0.0, SVG Export Plug-In . SVG Version: 6.00 Build 0)  -->
<svg version="1.1" id="Layer_1" xmlns="http://www.w3.org/2000/svg" xmlns:xlink="http://www.w3.org/1999/xlink" x="0px" y="0px"
	 viewBox="0 0 512 512" style="enable-background:new 0 0 512 512;" xml:space="preserve">
<path style="fill:#6CF5C5;" d="M300.641,42.692c-28.352,28.349-33.726,71.728-34.608,92.349c-0.38,8.919,2.755,11.978,11.603,11.602
	c20.62-0.882,63.999-6.256,92.349-34.607c28.351-28.351,33.727-71.729,34.606-92.348c0.379-8.846-2.682-11.982-11.602-11.602
	C372.369,8.965,328.991,14.343,300.641,42.692z"/>
<circle style="fill:#FFB446;" cx="265.984" cy="312.475" r="191.466"/>
<path style="fill:#FF6376;" d="M394.112,337.855h-31.197c-4.448,0-8.053-3.606-8.053-8.053s3.604-8.053,8.053-8.053h31.197
	c4.448,0,8.053,3.606,8.053,8.053S398.56,337.855,394.112,337.855z"/>
<g>
	<path style="fill:#3F4963;" d="M247.732,327.78c-14.507,0-26.309-11.802-26.309-26.309c0-4.447,3.604-8.053,8.053-8.053
		c4.448,0,8.053,3.606,8.053,8.053c0,5.626,4.577,10.204,10.204,10.204c5.626,0,10.204-4.577,10.204-10.204
		c0-4.447,3.604-8.053,8.053-8.053c4.448,0,8.053,3.606,8.053,8.053C274.042,315.977,262.24,327.78,247.732,327.78z"/>
	<path style="fill:#3F4963;" d="M284.247,327.78c-14.508,0-26.31-11.802-26.31-26.309c0-4.447,3.604-8.053,8.053-8.053
		c4.448,0,8.053,3.606,8.053,8.053c0,5.626,4.578,10.204,10.205,10.204c5.625,0,10.203-4.577,10.203-10.204
		c0-4.447,3.604-8.053,8.053-8.053c4.447,0,8.053,3.606,8.053,8.053C310.555,315.977,298.754,327.78,284.247,327.78z"/>
	<path style="fill:#3F4963;" d="M393.095,302.517c-4.448,0-8.053-3.606-8.053-8.053c0-3.6-2.928-6.528-6.528-6.528
		c-3.6,0-6.528,2.929-6.528,6.528c0,4.447-3.604,8.053-8.053,8.053c-4.448,0-8.053-3.606-8.053-8.053
		c0-12.481,10.153-22.634,22.634-22.634c12.481,0,22.634,10.153,22.634,22.634C401.148,298.911,397.543,302.517,393.095,302.517z"/>
</g>
<path style="fill:#FF6376;" d="M169.063,337.855h-31.197c-4.447,0-8.053-3.606-8.053-8.053s3.604-8.053,8.053-8.053h31.197
	c4.448,0,8.053,3.606,8.053,8.053C177.116,334.25,173.51,337.855,169.063,337.855z"/>
<path style="fill:#3F4963;" d="M168.045,302.517c-4.448,0-8.053-3.606-8.053-8.053c0-3.6-2.929-6.528-6.528-6.528
	c-3.6,0-6.528,2.929-6.528,6.528c0,4.447-3.604,8.053-8.053,8.053c-4.448,0-8.053-3.606-8.053-8.053
	c0-12.481,10.153-22.634,22.634-22.634s22.634,10.153,22.634,22.634C176.098,298.911,172.494,302.517,168.045,302.517z"/>
<g>
	<circle style="fill:#CF9945;" cx="204.341" cy="180.836" r="14.581"/>
	<circle style="fill:#CF9945;" cx="292.408" cy="166.255" r="14.581"/>
	<circle style="fill:#CF9945;" cx="377.5" cy="203.75" r="14.581"/>
	<circle style="fill:#CF9945;" cx="319.423" cy="217.966" r="14.581"/>
	<circle style="fill:#CF9945;" cx="227.727" cy="237.915" r="14.581"/>
	<circle style="fill:#CF9945;" cx="210.998" cy="367.041" r="14.581"/>
	<circle style="fill:#CF9945;" cx="189.749" cy="428.243" r="14.581"/>
	<circle style="fill:#CF9945;" cx="144.105" cy="216.087" r="14.581"/>
	<circle style="fill:#CF9945;" cx="394.111" cy="388.065" r="14.581"/>
	<circle style="fill:#CF9945;" cx="341.327" cy="437.907" r="14.581"/>
	<circle style="fill:#CF9945;" cx="247.73" cy="457.406" r="14.581"/>
	<circle style="fill:#CF9945;" cx="292.408" cy="395.13" r="14.581"/>
</g>
<path style="fill:#46C79C;" d="M89.179,462.917c28.351,28.352,71.729,33.726,92.349,34.608c8.92,0.38,11.978-2.755,11.602-11.603
	c-0.88-20.62-6.254-63.998-34.606-92.349c-28.351-28.351-71.73-33.727-92.349-34.606c-8.845-0.379-11.982,2.682-11.602,11.602
	C55.451,391.189,60.831,434.568,89.179,462.917z"/>
<path d="M153.465,271.831c-12.481,0-22.634,10.154-22.634,22.634c0,4.447,3.604,8.053,8.053,8.053c4.448,0,8.053-3.606,8.053-8.053
	c0-3.6,2.929-6.528,6.528-6.528c3.6,0,6.528,2.929,6.528,6.528c0,4.447,3.604,8.053,8.053,8.053c4.448,0,8.053-3.606,8.053-8.053
	C176.099,281.985,165.946,271.831,153.465,271.831z M354.78,133.832c7.846-4.663,14.842-10.045,20.899-16.102
	c12.791-12.791,34.603-42.493,36.958-97.698c0.188-4.378-0.093-10.726-4.676-15.31c-4.585-4.586-10.939-4.869-15.315-4.681
	C337.441,2.396,307.738,24.208,294.947,37c-22.134,22.132-31.208,52.377-34.837,76.044
	c-107.309,3.121-193.646,91.38-193.646,199.432c0,13.019,1.272,25.971,3.759,38.65c-1.227-0.073-2.452-0.148-3.705-0.202
	c-0.596-0.026-1.173-0.039-1.727-0.039c-6.104,0-10.616,1.613-13.796,4.932c-4.387,4.578-4.651,10.809-4.468,15.097
	c2.353,55.202,24.165,84.907,36.958,97.7c12.789,12.789,42.488,34.597,97.7,36.959c0.593,0.025,1.166,0.038,1.718,0.038h0.001
	c6.108,0,10.624-1.614,13.806-4.935c0.247-0.258,0.477-0.522,0.698-0.789c21.923,8.034,44.952,12.114,68.581,12.115
	c110.019,0,199.524-89.507,199.524-199.524C465.514,234.338,420.36,166.56,354.78,133.832z M306.336,48.389
	c8.965-8.966,35.388-30.055,86.996-32.257c1.62-0.069,2.574,0.029,3.091,0.123c0.094,0.516,0.191,1.471,0.121,3.089
	c-2.202,51.611-23.29,78.033-32.256,86.997c-7.69,7.691-17.279,14.136-28.494,19.22c-18.648-6.987-38.608-11.269-59.404-12.342
	C279.844,92.441,287.895,66.828,306.336,48.389z M184.963,489.358c-0.396,0.073-1.049,0.147-2.059,0.147
	c-0.332,0-0.675-0.008-1.031-0.023c-51.616-2.208-78.036-23.293-86.997-32.257c-8.967-8.967-30.057-35.391-32.256-86.997
	c-0.069-1.618,0.028-2.573,0.123-3.09c0.394-0.072,1.045-0.145,2.049-0.145c0.334,0,0.681,0.009,1.04,0.024
	c51.61,2.202,78.033,23.29,86.997,32.256c8.963,8.963,30.049,35.382,32.255,86.997C185.154,487.885,185.057,488.84,184.963,489.358z
	 M265.99,495.894c-22.395,0-44.197-3.978-64.897-11.816c-2.689-54.238-24.204-83.525-36.876-96.196
	c-11.107-11.107-34.971-29.002-77.194-35.071c-2.953-13.172-4.452-26.713-4.452-40.335c0-101.138,82.281-183.42,183.419-183.42
	s183.419,82.281,183.419,183.42C449.409,413.613,367.127,495.894,265.99,495.894z M378.515,271.831
	c-12.481,0-22.634,10.154-22.634,22.634c0,4.447,3.604,8.053,8.053,8.053c4.448,0,8.053-3.606,8.053-8.053
	c0-3.6,2.929-6.528,6.528-6.528c3.6,0,6.528,2.929,6.528,6.528c0,4.447,3.604,8.053,8.053,8.053c4.448,0,8.053-3.606,8.053-8.053
	C401.149,281.985,390.996,271.831,378.515,271.831z M302.503,293.418c-4.447,0-8.053,3.606-8.053,8.053
	c0,5.626-4.577,10.204-10.203,10.204c-5.626,0-10.205-4.577-10.205-10.204c0-4.447-3.604-8.053-8.053-8.053
	s-8.053,3.606-8.053,8.053c0,5.626-4.577,10.204-10.204,10.204s-10.204-4.577-10.204-10.204c0-4.447-3.604-8.053-8.053-8.053
	s-8.053,3.606-8.053,8.053c0,14.507,11.802,26.309,26.309,26.309c7.087,0,13.521-2.821,18.257-7.393
	c4.735,4.572,11.171,7.393,18.258,7.393c14.507,0,26.308-11.802,26.308-26.309C310.556,297.024,306.95,293.418,302.503,293.418z"/>
<g>
</g>
<g>
</g>
<g>
</g>
<g>
</g>
<g>
</g>
<g>
</g>
<g>
</g>
<g>
</g>
<g>
</g>
<g>
</g>
<g>
</g>
<g>
</g>
<g>
</g>
<g>
</g>
<g>
</g>
</svg>
