<?xml version="1.0" encoding="iso-8859-1"?>
<!-- Generator: Adobe Illustrator 19.0.0, SVG Export Plug-In . SVG Version: 6.00 Build 0)  -->
<svg version="1.1" id="Layer_1" xmlns="http://www.w3.org/2000/svg" xmlns:xlink="http://www.w3.org/1999/xlink" x="0px" y="0px"
	 viewBox="0 0 511.999 511.999" style="enable-background:new 0 0 511.999 511.999;" xml:space="preserve">
<path style="fill:#46C79C;" d="M135.926,503.999c-20.865,0-40.359-3.548-57.942-10.547c-18.449-7.342-29.999-16.561-36.439-23.001
	c-10.867-10.867-20.067-26.654-25.904-44.452c-7.299-22.254-9.39-46.837-6.219-73.067c3.785-31.295,15.097-64.212,33.624-97.837
	c21.403-38.847,52.652-78.942,92.881-119.171c45.466-45.466,90.625-79.353,134.219-100.717
	c36.841-18.055,72.479-27.209,105.931-27.209c20.861,0,40.354,3.548,57.936,10.546c18.452,7.343,30.001,16.56,36.439,22.999
	c10.868,10.869,20.068,26.656,25.906,44.455c7.299,22.255,9.391,46.838,6.22,73.068c-3.785,31.295-15.097,64.212-33.623,97.838
	c-21.403,38.847-52.652,78.941-92.881,119.169c-45.462,45.462-90.619,79.347-134.213,100.714
	C205.017,494.844,169.376,503.999,135.926,503.999z"/>
<path style="fill:#35A57D;" d="M64.836,447.161c29.286,29.285,132.581,64.188,289.546-92.778
	C511.349,197.418,476.447,94.122,447.162,64.836c-29.284-29.284-132.579-64.185-289.544,92.781
	C0.651,314.583,35.553,417.877,64.836,447.161z"/>
<circle style="fill:#6CF5C5;" cx="338.909" cy="173.032" r="117.179"/>
<circle style="fill:#3F4963;" cx="264.697" cy="153.449" r="15.087"/>
<path style="fill:#FF6376;" d="M280.837,201.394h-32.28c-4.412,0-7.987-3.576-7.987-7.987s3.575-7.987,7.987-7.987h32.28
	c4.412,0,7.987,3.576,7.987,7.987C288.823,197.818,285.249,201.394,280.837,201.394z"/>
<circle style="fill:#3F4963;" cx="413.121" cy="153.449" r="15.087"/>
<path style="fill:#FF6376;" d="M429.263,201.394h-32.28c-4.412,0-7.987-3.576-7.987-7.987s3.575-7.987,7.987-7.987h32.28
	c4.412,0,7.987,3.576,7.987,7.987C437.25,197.818,433.675,201.394,429.263,201.394z"/>
<g>
	<path style="fill:#3F4963;" d="M323.913,188.559c-12.674,0-22.985-10.31-22.985-22.984c0-4.411,3.575-7.987,7.987-7.987
		c4.412,0,7.987,3.576,7.987,7.987c0,3.866,3.146,7.011,7.012,7.011c3.867,0,7.011-3.145,7.011-7.011
		c0-4.411,3.575-7.987,7.987-7.987s7.987,3.576,7.987,7.987C346.898,178.249,336.587,188.559,323.913,188.559z"/>
	<path style="fill:#3F4963;" d="M353.909,188.559c-12.674,0-22.985-10.31-22.985-22.984c0-4.411,3.575-7.987,7.987-7.987
		s7.987,3.576,7.987,7.987c0,3.866,3.146,7.011,7.012,7.011c3.867,0,7.011-3.145,7.011-7.011c0-4.411,3.575-7.987,7.987-7.987
		s7.987,3.576,7.987,7.987C376.893,178.249,366.583,188.559,353.909,188.559z"/>
</g>
<circle style="fill:#6CF5C5;" cx="173.086" cy="338.972" r="117.179"/>
<circle style="fill:#3F4963;" cx="98.874" cy="319.4" r="15.087"/>
<path style="fill:#FF6376;" d="M115.016,367.334h-32.28c-4.412,0-7.987-3.576-7.987-7.987s3.575-7.987,7.987-7.987h32.28
	c4.411,0,7.987,3.576,7.987,7.987C123.002,363.759,119.426,367.334,115.016,367.334z"/>
<circle style="fill:#3F4963;" cx="247.297" cy="319.4" r="15.087"/>
<path style="fill:#FF6376;" d="M263.441,367.334h-32.28c-4.412,0-7.987-3.576-7.987-7.987s3.575-7.987,7.987-7.987h32.28
	c4.412,0,7.987,3.576,7.987,7.987S267.853,367.334,263.441,367.334z"/>
<g>
	<path style="fill:#3F4963;" d="M158.091,354.499c-12.674,0-22.985-10.31-22.985-22.983c0-4.411,3.575-7.987,7.987-7.987
		c4.412,0,7.987,3.576,7.987,7.987c0,3.866,3.146,7.01,7.012,7.01c3.867,0,7.011-3.145,7.011-7.01c0-4.411,3.575-7.987,7.987-7.987
		c4.412,0,7.987,3.576,7.987,7.987C181.076,344.189,170.764,354.499,158.091,354.499z"/>
	<path style="fill:#3F4963;" d="M188.088,354.499c-12.674,0-22.985-10.31-22.985-22.983c0-4.411,3.575-7.987,7.987-7.987
		c4.412,0,7.987,3.576,7.987,7.987c0,3.866,3.146,7.01,7.012,7.01c3.867,0,7.011-3.145,7.011-7.01c0-4.411,3.575-7.987,7.987-7.987
		s7.987,3.576,7.987,7.987C211.072,344.189,200.761,354.499,188.088,354.499z"/>
</g>
<path d="M503.946,83.509c-6.223-18.968-16.113-35.877-27.847-47.612c-6.97-6.97-19.416-16.925-39.133-24.772
	c-18.527-7.373-39.014-11.112-60.89-11.112c-34.68,0-71.502,9.428-109.446,28.023c-44.386,21.752-90.261,56.151-136.352,102.242
	c-40.759,40.76-72.463,81.458-94.227,120.964C17.027,285.767,5.4,319.658,1.493,351.975c-3.313,27.398-1.106,53.142,6.559,76.515
	c6.221,18.967,16.11,35.875,27.845,47.61c6.972,6.972,19.42,16.93,39.133,24.776c18.527,7.373,39.016,11.112,60.896,11.112
	c34.678,0,71.503-9.43,109.45-28.028c44.387-21.753,90.26-56.151,136.345-102.237c40.76-40.759,72.464-81.457,94.229-120.962
	c19.022-34.527,30.648-68.418,34.555-100.733C513.82,132.625,511.612,106.882,503.946,83.509z M494.65,158.108
	c-3.661,30.275-14.66,62.218-32.69,94.943c-21.04,38.188-51.836,77.679-91.533,117.375c-44.838,44.839-89.277,78.211-132.08,99.189
	c-35.741,17.516-70.199,26.397-102.42,26.397c-19.848,0-38.35-3.358-54.989-9.981c-17.185-6.839-27.836-15.318-33.745-21.227
	c-9.998-9.999-18.509-24.664-23.963-41.294c-6.932-21.136-8.91-44.559-5.88-69.62c3.662-30.276,14.66-62.218,32.691-94.943
	c21.04-38.189,51.835-77.68,91.533-117.378c44.842-44.843,89.283-78.217,132.086-99.193c35.736-17.514,70.194-26.394,102.417-26.394
	c19.845,0,38.343,3.358,54.983,9.979c17.188,6.841,27.838,15.318,33.744,21.226c9.998,9.998,18.509,24.665,23.965,41.296
	C495.701,109.623,497.68,133.046,494.65,158.108z M98.875,304.307c-8.332,0-15.087,6.755-15.087,15.087
	c0,8.334,6.756,15.088,15.087,15.088c8.333,0,15.087-6.755,15.087-15.088C113.963,311.062,107.209,304.307,98.875,304.307z
	 M247.302,304.307c-8.334,0-15.087,6.755-15.087,15.087c0,8.334,6.753,15.088,15.087,15.088c8.332,0,15.087-6.755,15.087-15.088
	C262.389,311.062,255.633,304.307,247.302,304.307z M203.086,323.528c-4.412,0-7.987,3.576-7.987,7.987
	c0,3.866-3.145,7.01-7.011,7.01s-7.012-3.145-7.012-7.01c0-4.411-3.575-7.987-7.987-7.987c-4.412,0-7.987,3.576-7.987,7.987
	c0,3.866-3.145,7.01-7.011,7.01s-7.012-3.145-7.012-7.01c0-4.411-3.575-7.987-7.987-7.987s-7.987,3.576-7.987,7.987
	c0,12.673,10.311,22.983,22.985,22.983c5.732,0,10.968-2.123,14.998-5.606c4.031,3.483,9.267,5.606,14.999,5.606
	c12.673,0,22.984-10.31,22.984-22.983C211.072,327.104,207.496,323.528,203.086,323.528z M374.03,31.603
	c-84.052,0-167.15,65.456-222.061,120.367C82.364,221.576,42.499,287.902,33.482,349.106c-7.385,50.121,8.438,86.433,25.707,103.702
	c17.273,17.273,46.725,27.585,78.783,27.587c0.005,0,0.002,0,0.007,0c84.041,0,167.143-65.456,222.051-120.366
	c69.605-69.605,109.471-135.931,118.487-197.137c7.384-50.121-8.439-86.434-25.709-103.706
	C435.536,41.915,406.086,31.603,374.03,31.603z M163.264,163.264c26.621-26.621,51.392-47.381,74.218-63.487
	c-14.925,20.609-23.738,45.919-23.738,73.252c0,18.589,4.079,36.24,11.38,52.115c-15.856-7.276-33.479-11.341-52.035-11.341
	c-27.402,0-52.771,8.858-73.408,23.851C116.841,213.321,138.116,188.413,163.264,163.264z M137.971,464.422
	c-41.366-0.002-62.115-17.535-67.488-22.909c-4.375-4.375-12.523-14.376-17.937-32.196c-5.017-16.518-6.243-34.972-3.67-54.886
	c7.004,56.591,51.929,101.596,108.484,108.717C150.375,464.044,143.906,464.422,137.971,464.422z M173.089,448.162
	c-60.209,0-109.193-48.983-109.193-109.192c0-60.209,48.983-109.193,109.193-109.193s109.194,48.983,109.194,109.193
	C282.283,399.179,233.298,448.162,173.089,448.162z M348.735,348.735c-26.622,26.622-51.392,47.381-74.218,63.487
	c14.926-20.609,23.739-45.919,23.739-73.253c0-18.589-4.078-36.24-11.378-52.115c15.855,7.276,33.478,11.341,52.033,11.341
	c27.403,0,52.772-8.859,73.41-23.852C395.159,298.677,373.885,323.586,348.735,348.735z M338.911,282.222
	c-60.209,0-109.193-48.983-109.193-109.193S278.702,63.836,338.911,63.836s109.194,48.985,109.194,109.193
	C448.105,233.238,399.121,282.222,338.911,282.222z M463.122,157.564c-7.005-56.589-51.928-101.592-108.482-108.714
	c6.986-0.893,13.456-1.273,19.389-1.273c41.363,0,62.11,17.533,67.484,22.907c4.376,4.376,12.524,14.377,17.938,32.198
	C464.469,119.199,465.696,137.65,463.122,157.564z M398.037,153.453c0,8.334,6.753,15.088,15.087,15.088
	c8.332,0,15.087-6.755,15.087-15.088c0-8.333-6.756-15.087-15.087-15.087C404.79,138.367,398.037,145.122,398.037,153.453z
	 M368.907,157.588c-4.412,0-7.987,3.576-7.987,7.987c0,3.866-3.145,7.011-7.011,7.011s-7.012-3.145-7.012-7.011
	c0-4.411-3.575-7.987-7.987-7.987s-7.987,3.576-7.987,7.987c0,3.866-3.145,7.011-7.011,7.011c-3.867,0-7.012-3.145-7.012-7.011
	c0-4.411-3.575-7.987-7.987-7.987s-7.987,3.576-7.987,7.987c0,12.673,10.311,22.984,22.985,22.984
	c5.732,0,10.968-2.123,14.998-5.606c4.031,3.483,9.267,5.606,14.999,5.606c12.673,0,22.984-10.31,22.984-22.984
	C376.893,161.164,373.319,157.588,368.907,157.588z M264.697,138.367c-8.332,0-15.087,6.755-15.087,15.087
	c0,8.334,6.756,15.088,15.087,15.088c8.333,0,15.087-6.755,15.087-15.088C279.785,145.122,273.03,138.367,264.697,138.367z"/>
<g>
</g>
<g>
</g>
<g>
</g>
<g>
</g>
<g>
</g>
<g>
</g>
<g>
</g>
<g>
</g>
<g>
</g>
<g>
</g>
<g>
</g>
<g>
</g>
<g>
</g>
<g>
</g>
<g>
</g>
</svg>
