<?xml version="1.0" encoding="iso-8859-1"?>
<!-- Generator: Adobe Illustrator 19.0.0, SVG Export Plug-In . SVG Version: 6.00 Build 0)  -->
<svg version="1.1" id="Layer_1" xmlns="http://www.w3.org/2000/svg" xmlns:xlink="http://www.w3.org/1999/xlink" x="0px" y="0px"
	 viewBox="0 0 511.999 511.999" style="enable-background:new 0 0 511.999 511.999;" xml:space="preserve">
<path style="fill:#866539;" d="M256.227,164.013c-13.405,0-24.272-10.866-24.272-24.271V32.234c0-13.405,10.866-24.27,24.272-24.27
	c13.405,0,24.271,10.864,24.271,24.27v107.507C280.497,153.147,269.632,164.013,256.227,164.013z"/>
<path style="fill:#46C79C;" d="M283.514,43.697c-27.203,27.204-32.362,68.828-33.207,88.613c-0.365,8.56,2.644,11.493,11.131,11.13
	c19.786-0.844,61.409-6,88.611-33.207c27.206-27.202,32.365-68.828,33.207-88.608c0.365-8.491-2.574-11.497-11.13-11.136
	C352.342,11.337,310.717,16.497,283.514,43.697z"/>
<path style="fill:#FFB446;" d="M256.001,504.036c34.673,0,224.7-66.576,224.7-270.493c0-67.572-54.777-122.35-122.35-122.35
	c-60.913,0-89.701,15.261-102.35,15.261c-12.65,0-41.438-15.261-102.35-15.261c-67.572,0-122.349,54.778-122.349,122.35
	C31.301,437.46,221.327,504.036,256.001,504.036z"/>
<path style="fill:#FF6376;" d="M382.712,256.102H351.86c-4.399,0-7.964-3.565-7.964-7.964s3.565-7.964,7.964-7.964h30.853
	c4.399,0,7.964,3.565,7.964,7.964C390.677,252.536,387.112,256.102,382.712,256.102z"/>
<g>
	<path style="fill:#3F4963;" d="M237.945,246.138c-14.347,0-26.02-11.672-26.02-26.021c0-4.399,3.566-7.964,7.964-7.964
		s7.964,3.565,7.964,7.964c0,5.564,4.527,10.092,10.091,10.092s10.091-4.528,10.091-10.092c0-4.399,3.566-7.964,7.964-7.964
		c4.399,0,7.964,3.565,7.964,7.964C263.965,234.466,252.292,246.138,237.945,246.138z"/>
	<path style="fill:#3F4963;" d="M274.057,246.138c-14.348,0-26.021-11.672-26.021-26.021c0-4.399,3.566-7.964,7.964-7.964
		c4.399,0,7.964,3.565,7.964,7.964c0,5.564,4.528,10.092,10.092,10.092c5.563,0,10.09-4.528,10.09-10.092
		c0-4.399,3.565-7.964,7.964-7.964c4.398,0,7.964,3.565,7.964,7.964C300.076,234.466,288.404,246.138,274.057,246.138z"/>
	<path style="fill:#3F4963;" d="M381.707,221.153c-4.399,0-7.964-3.565-7.964-7.964c0-3.561-2.896-6.456-6.456-6.456
		c-3.561,0-6.456,2.897-6.456,6.456c0,4.399-3.565,7.964-7.964,7.964s-7.964-3.565-7.964-7.964
		c0-12.343,10.041-22.385,22.385-22.385c12.343,0,22.385,10.041,22.385,22.385C389.671,217.587,386.106,221.153,381.707,221.153z"/>
</g>
<path style="fill:#FF6376;" d="M160.142,256.102h-30.853c-4.398,0-7.964-3.565-7.964-7.964s3.566-7.964,7.964-7.964h30.853
	c4.398,0,7.964,3.565,7.964,7.964C168.106,252.536,164.54,256.102,160.142,256.102z"/>
<path style="fill:#3F4963;" d="M159.135,221.153c-4.398,0-7.964-3.565-7.964-7.964c0-3.561-2.897-6.456-6.456-6.456
	c-3.561,0-6.456,2.897-6.456,6.456c0,4.399-3.566,7.964-7.964,7.964s-7.964-3.565-7.964-7.964c0-12.343,10.041-22.385,22.385-22.385
	c12.343,0,22.385,10.041,22.385,22.385C167.1,217.587,163.534,221.153,159.135,221.153z"/>
<path d="M144.715,190.804c-12.342,0-22.385,10.042-22.385,22.385c0,4.399,3.565,7.964,7.964,7.964c4.399,0,7.964-3.565,7.964-7.964
	c0-3.559,2.896-6.456,6.456-6.456s6.456,2.898,6.456,6.456c0,4.399,3.565,7.964,7.964,7.964c4.398,0,7.964-3.565,7.964-7.964
	C167.1,200.846,157.057,190.804,144.715,190.804z M292.111,212.153c-4.399,0-7.964,3.565-7.964,7.964
	c0,5.564-4.527,10.092-10.09,10.092c-5.564,0-10.092-4.528-10.092-10.092c0-4.399-3.565-7.964-7.964-7.964
	c-4.399,0-7.964,3.565-7.964,7.964c0,5.564-4.528,10.092-10.091,10.092s-10.091-4.528-10.091-10.092
	c0-4.399-3.565-7.964-7.964-7.964s-7.964,3.565-7.964,7.964c0,14.348,11.672,26.021,26.02,26.021c7.007,0,13.372-2.79,18.055-7.311
	c4.683,4.522,11.048,7.311,18.056,7.311c14.347,0,26.019-11.672,26.019-26.021C300.076,215.719,296.51,212.153,292.111,212.153z
	 M366.104,103.469c11.196-15.707,23.418-41.714,25.111-81.501c0.183-4.243-0.091-10.403-4.552-14.869
	c-4.463-4.467-10.621-4.743-14.876-4.567c-41.511,1.778-68.019,14.999-83.48,26.558C286.72,12.786,272.94,0,256.227,0
	c-17.774,0-32.236,14.46-32.236,32.234v78.67c-16.668-3.828-39.635-7.674-70.341-7.674c-71.854,0-130.313,58.458-130.313,130.315
	c0,111.381,55.625,179.969,102.288,217.894c52.657,42.798,110.896,60.561,130.374,60.561c19.479,0,77.718-17.763,130.374-60.561
	c46.663-37.926,102.288-106.514,102.288-217.894C488.664,164.294,434.363,107.495,366.104,103.469z M289.146,49.33
	c25.759-25.757,66.852-30.179,83.319-30.884c1.38-0.056,2.245,0.013,2.752,0.089c0.076,0.507,0.144,1.371,0.085,2.752
	c-0.69,16.227-5.002,56.348-29.793,82.177c-35.688,1.292-59.579,7.734-74.469,11.751c-4.621,1.247-8.557,2.302-11.528,2.858
	C262.03,98.369,269.158,69.317,289.146,49.33z M239.919,32.234c0-8.991,7.315-16.305,16.308-16.305
	c8.992,0,16.306,7.315,16.306,16.305v11.67c-19.093,22.58-26.2,51.82-28.807,72.055c-0.895-0.241-1.813-0.487-2.766-0.744
	c-0.34-0.091-0.69-0.187-1.041-0.28V32.234z M376.33,439.077c-48.95,39.784-103.37,56.994-120.329,56.994
	c-16.96,0-71.38-17.21-120.329-56.994c-28.423-23.098-50.993-50.334-67.089-80.948c-19.454-37.005-29.318-78.92-29.318-124.584
	c0-63.072,51.313-114.386,114.384-114.386c40.787,0,66.287,6.881,83.16,11.437c8.23,2.221,14.175,3.825,19.191,3.825
	c5.016,0,10.961-1.603,19.19-3.825c16.874-4.554,42.371-11.437,83.16-11.437c63.072,0,114.385,51.313,114.385,114.386
	c0,45.664-9.864,87.58-29.318,124.584C427.323,388.743,404.751,415.979,376.33,439.077z M367.286,190.804
	c-12.344,0-22.385,10.042-22.385,22.385c0,4.399,3.565,7.964,7.964,7.964s7.964-3.565,7.964-7.964c0-3.559,2.897-6.456,6.456-6.456
	c3.561,0,6.456,2.898,6.456,6.456c0,4.399,3.565,7.964,7.964,7.964s7.964-3.565,7.964-7.964
	C389.671,200.846,379.63,190.804,367.286,190.804z"/>
<g>
</g>
<g>
</g>
<g>
</g>
<g>
</g>
<g>
</g>
<g>
</g>
<g>
</g>
<g>
</g>
<g>
</g>
<g>
</g>
<g>
</g>
<g>
</g>
<g>
</g>
<g>
</g>
<g>
</g>
</svg>
