<?xml version="1.0" encoding="iso-8859-1"?>
<!-- Generator: Adobe Illustrator 19.0.0, SVG Export Plug-In . SVG Version: 6.00 Build 0)  -->
<svg version="1.1" id="Layer_1" xmlns="http://www.w3.org/2000/svg" xmlns:xlink="http://www.w3.org/1999/xlink" x="0px" y="0px"
	 viewBox="0 0 511.999 511.999" style="enable-background:new 0 0 511.999 511.999;" xml:space="preserve">
<path style="fill:#46C79C;" d="M284.218,32.204c-17.398,17.398-20.697,44.019-21.238,56.673c-0.234,5.474,1.691,7.352,7.119,7.12
	c12.655-0.541,39.275-3.839,56.673-21.238C344.17,57.362,347.47,30.74,348.01,18.087c0.233-5.43-1.646-7.353-7.119-7.121
	C328.237,11.505,301.616,14.807,284.218,32.204z"/>
<path style="fill:#866539;" d="M256.005,155.228c-12.653,0-22.909-10.256-22.909-22.909V30.844c0-12.653,10.256-22.91,22.909-22.91
	c12.654,0,22.91,10.256,22.91,22.91v101.475C278.914,144.972,268.658,155.228,256.005,155.228z"/>
<path style="fill:#6CF5C5;" d="M361.789,258.643c-0.003-0.003-0.007-0.007-0.011-0.012c-0.248-0.262-0.494-0.524-0.744-0.783
	c-18.365-19.227-16.842-49.654-16.842-72.454c0-48.707-39.486-88.194-88.194-88.194s-88.194,39.486-88.194,88.194
	c0,22.8,1.523,53.226-16.842,72.454c-0.25,0.26-0.496,0.521-0.744,0.783c-0.003,0.003-0.007,0.007-0.011,0.012
	c-24.624,26.065-39.727,61.221-39.727,99.909c0,80.366,65.15,145.515,145.515,145.515s145.515-65.15,145.515-145.515
	C401.516,319.864,386.414,284.707,361.789,258.643z"/>
<circle style="fill:#3F4963;" cx="182.286" cy="340.634" r="14.986"/>
<path style="fill:#FF6376;" d="M198.318,388.253h-32.064c-4.381,0-7.933-3.552-7.933-7.933c0-4.381,3.552-7.933,7.933-7.933h32.064
	c4.381,0,7.933,3.552,7.933,7.933C206.251,384.701,202.699,388.253,198.318,388.253z"/>
<circle style="fill:#3F4963;" cx="329.718" cy="340.634" r="14.986"/>
<path style="fill:#FF6376;" d="M345.752,388.253h-32.064c-4.381,0-7.933-3.552-7.933-7.933c0-4.381,3.552-7.933,7.933-7.933h32.064
	c4.381,0,7.933,3.552,7.933,7.933C353.686,384.701,350.134,388.253,345.752,388.253z"/>
<g>
	<path style="fill:#3F4963;" d="M241.105,375.503c-12.59,0-22.831-10.241-22.831-22.83c0-4.381,3.552-7.933,7.933-7.933
		c4.381,0,7.933,3.552,7.933,7.933c0,3.84,3.125,6.963,6.964,6.963c3.841,0,6.964-3.124,6.964-6.963
		c0-4.381,3.552-7.933,7.933-7.933s7.933,3.552,7.933,7.933C263.936,365.262,253.695,375.503,241.105,375.503z"/>
	<path style="fill:#3F4963;" d="M270.901,375.503c-12.59,0-22.831-10.241-22.831-22.83c0-4.381,3.552-7.933,7.933-7.933
		s7.933,3.552,7.933,7.933c0,3.84,3.125,6.963,6.964,6.963c3.841,0,6.965-3.124,6.965-6.963c0-4.381,3.552-7.933,7.933-7.933
		s7.933,3.552,7.933,7.933C293.733,365.262,283.491,375.503,270.901,375.503z"/>
</g>
<path d="M155.996,264.072l-0.019,0.019v0.002C155.983,264.085,155.989,264.078,155.996,264.072z M182.286,325.645
	c-8.277,0-14.986,6.71-14.986,14.986c0,8.278,6.709,14.989,14.986,14.989c8.277,0,14.988-6.71,14.988-14.989
	C197.273,332.356,190.563,325.645,182.286,325.645z M367.556,253.194c-0.024-0.026-0.051-0.054-0.076-0.08v-0.001l-0.707-0.744
	c-14.873-15.571-14.755-41.347-14.66-62.058c0.006-1.671,0.015-3.313,0.015-4.915c0-37.639-21.749-70.289-53.335-86.058
	c11.56-3.391,23.787-9.167,33.59-18.969c19.008-19.006,22.916-46.968,23.553-61.943c0.079-1.873,0.324-7.57-3.741-11.638
	c-4.068-4.07-9.766-3.829-11.643-3.749c-13.329,0.569-36.939,3.74-55.37,17.826C281.023,8.741,269.52,0,256.005,0
	c-17.007,0-30.842,13.836-30.842,30.842v63.499c-37.925,12.878-65.289,48.83-65.289,91.053c0,1.604,0.008,3.244,0.015,4.915
	c0.095,20.711,0.213,46.487-14.645,62.042l-0.756,0.795c-0.003,0.004-0.007,0.008-0.012,0.012c-0.011,0.012-0.021,0.022-0.031,0.034
	c-27.015,28.596-41.894,66.011-41.894,105.357c0,84.611,68.838,153.449,153.449,153.449s153.449-68.838,153.449-153.449
	C409.449,319.205,394.571,281.79,367.556,253.194z M286.847,41.093c0.957-1.15,1.952-2.251,2.98-3.28
	c15.183-15.183,39.32-18.267,50.198-18.863c-0.596,10.879-3.678,35.014-18.862,50.199c-9.679,9.68-22.85,14.465-34.315,16.817
	L286.847,41.093L286.847,41.093z M241.028,30.842c0-8.258,6.719-14.976,14.976-14.976c8.258,0,14.976,6.719,14.976,14.976v59.596
	c-4.882-0.768-9.886-1.17-14.98-1.17c-5.093,0-10.091,0.402-14.972,1.168L241.028,30.842L241.028,30.842z M256.001,496.133
	c-75.863,0-137.582-61.72-137.582-137.582c0-35.277,13.338-68.823,37.559-94.461c0.031-0.032,0.06-0.063,0.079-0.082l0.645-0.68
	c19.294-20.2,19.159-49.526,19.053-73.09c-0.007-1.648-0.015-3.264-0.015-4.844c0-44.256,36.004-80.26,80.26-80.26
	s80.26,36.004,80.26,80.26c0,1.579-0.007,3.196-0.015,4.844c-0.108,23.563-0.241,52.89,19.066,73.105l0.698,0.735
	c0.004,0.004,0.01,0.01,0.014,0.014c0.004,0.004,0.007,0.008,0.012,0.013c24.213,25.635,37.547,59.176,37.547,94.446
	C393.583,434.415,331.863,496.133,256.001,496.133z M329.721,325.645c-8.277,0-14.986,6.71-14.986,14.986
	c0,8.278,6.709,14.989,14.986,14.989s14.986-6.71,14.986-14.989C344.707,332.356,337.998,325.645,329.721,325.645z M285.799,344.739
	c-4.381,0-7.933,3.552-7.933,7.933c0,3.841-3.124,6.964-6.964,6.964c-3.841,0-6.965-3.124-6.965-6.964
	c0-4.381-3.552-7.933-7.933-7.933c-4.381,0-7.933,3.552-7.933,7.933c0,3.841-3.125,6.964-6.965,6.964
	c-3.841,0-6.964-3.124-6.964-6.964c0-4.381-3.551-7.933-7.933-7.933c-4.382,0-7.933,3.552-7.933,7.933
	c0,12.589,10.242,22.831,22.831,22.831c5.694,0,10.896-2.109,14.899-5.569c4.003,3.46,9.205,5.569,14.899,5.569
	c12.589,0,22.831-10.242,22.831-22.831C293.732,348.292,290.181,344.739,285.799,344.739z"/>
<g>
</g>
<g>
</g>
<g>
</g>
<g>
</g>
<g>
</g>
<g>
</g>
<g>
</g>
<g>
</g>
<g>
</g>
<g>
</g>
<g>
</g>
<g>
</g>
<g>
</g>
<g>
</g>
<g>
</g>
</svg>
