<?xml version="1.0" encoding="iso-8859-1"?>
<!-- Generator: Adobe Illustrator 19.0.0, SVG Export Plug-In . SVG Version: 6.00 Build 0)  -->
<svg version="1.1" id="Layer_1" xmlns="http://www.w3.org/2000/svg" xmlns:xlink="http://www.w3.org/1999/xlink" x="0px" y="0px"
	 viewBox="0 0 512.001 512.001" style="enable-background:new 0 0 512.001 512.001;" xml:space="preserve">
<g>
	<path style="fill:#FF6376;" d="M228.588,205.895c0-23.067-18.701-70.296-41.768-70.296c-23.069,0-41.769,47.227-41.769,70.296
		s18.701,41.768,41.769,41.768C209.887,247.663,228.588,228.964,228.588,205.895z"/>
	<path style="fill:#FF6376;" d="M361.422,205.895c0-23.067,18.7-70.296,41.767-70.296c23.069,0,41.768,47.227,41.768,70.296
		s-18.7,41.768-41.768,41.768C380.123,247.663,361.422,228.964,361.422,205.895z"/>
</g>
<path style="fill:#89AAED;" d="M317.897,121.86c0-5.194-4.252-9.446-9.446-9.446h-26.893c-5.196,0-9.447,4.252-9.447,9.446v90.609
	c0,5.194,4.252,9.447,9.447,9.447h26.893c5.194,0,9.446-4.253,9.446-9.447V121.86z"/>
<g>
	<rect x="272.105" y="170.539" style="fill:#B5CCF8;" width="45.787" height="16.125"/>
	<rect x="272.105" y="136.494" style="fill:#B5CCF8;" width="45.787" height="16.125"/>
</g>
<path style="fill:#FDBA55;" d="M317.897,89.519c0-12.644-10.249-63.181-22.892-63.181c-12.644,0-22.894,50.538-22.894,63.181
	c0,12.643,10.25,22.893,22.894,22.893C307.648,112.414,317.897,102.164,317.897,89.519z"/>
<path style="fill:#FF9596;" d="M503.938,241.597v-18.379c0-9.566-7.754-17.322-17.319-17.322h-370.31
	c-7.677-21.598-28.286-37.066-52.515-37.066c-30.778-0.001-55.73,24.951-55.73,55.728c0,18.015,8.557,34.025,21.819,44.212v199.008
	c0,9.878,8.007,17.886,17.886,17.886h30.935V241.597H503.938z"/>
<path style="fill:#FF608D;" d="M105.19,227.622c-21.717,0-39.387,17.668-39.387,39.386v218.656h21.5V275.086
	c11.528-5.374,20.911-14.568,26.517-25.964h390.117v-21.5L105.19,227.622L105.19,227.622z"/>
<path style="fill:#866539;" d="M105.19,249.122c-9.878,0-17.887,8.008-17.887,17.886v218.656h398.748
	c9.878,0,17.887-8.008,17.887-17.886V249.122L105.19,249.122L105.19,249.122z"/>
<rect x="87.301" y="308.43" style="fill:#FFD553;" width="416.629" height="117.917"/>
<g>
	<circle style="fill:#3F4963;" cx="185.739" cy="346.915" r="14.6"/>
	<circle style="fill:#3F4963;" cx="411.06" cy="346.915" r="14.599"/>
</g>
<g>
	<path style="fill:#FF6376;" d="M201.361,397.938h-31.233c-4.454,0-8.063-3.61-8.063-8.063s3.609-8.063,8.063-8.063h31.233
		c4.454,0,8.063,3.61,8.063,8.063S205.814,397.938,201.361,397.938z"/>
	<path style="fill:#FF6376;" d="M426.679,397.938h-31.234c-4.454,0-8.063-3.61-8.063-8.063s3.609-8.063,8.063-8.063h31.234
		c4.454,0,8.063,3.61,8.063,8.063S431.133,397.938,426.679,397.938z"/>
</g>
<g>
	<path style="fill:#3F4963;" d="M277.228,387.852c-14.524,0-26.341-11.816-26.341-26.341c0-4.453,3.609-8.063,8.063-8.063
		c4.454,0,8.063,3.61,8.063,8.063c0,5.633,4.583,10.216,10.216,10.216c5.633,0,10.217-4.583,10.217-10.216
		c0-4.453,3.609-8.063,8.063-8.063c4.454,0,8.063,3.61,8.063,8.063C303.57,376.035,291.753,387.852,277.228,387.852z"/>
	<path style="fill:#3F4963;" d="M313.785,387.852c-14.524,0-26.341-11.816-26.341-26.341c0-4.453,3.609-8.063,8.063-8.063
		c4.454,0,8.063,3.61,8.063,8.063c0,5.633,4.583,10.216,10.216,10.216c5.633,0,10.216-4.583,10.216-10.216
		c0-4.453,3.609-8.063,8.063-8.063c4.454,0,8.063,3.61,8.063,8.063C340.126,376.035,328.309,387.852,313.785,387.852z"/>
</g>
<path d="M486.618,197.833h-34.133c-1.509-12.207-6.121-26.849-12.592-39.425c-10.243-19.907-23.278-30.871-36.705-30.871
	c-13.426,0-26.46,10.964-36.704,30.871c-6.469,12.575-11.081,27.217-12.592,39.425h-27.935V121.86c0-5.441-2.494-10.308-6.4-13.522
	c4.008-5.218,6.4-11.743,6.4-18.818c0-7.115-2.628-23.495-7.027-38.588c-6.491-22.278-14.095-32.655-23.926-32.655
	s-17.436,10.376-23.93,32.654c-4.399,15.093-7.027,31.473-7.027,38.588c0,7.075,2.392,13.599,6.4,18.818
	c-3.904,3.214-6.4,8.082-6.4,13.522v75.973h-27.933c-1.509-12.207-6.121-26.848-12.592-39.425
	c-10.243-19.907-23.277-30.871-36.704-30.871c-13.426,0-26.461,10.964-36.705,30.871c-6.47,12.575-11.082,27.217-12.592,39.425
	H121.72c-10.337-22.388-32.937-37.066-57.927-37.066C28.618,160.765,0,189.383,0,224.558c0,18.609,7.902,35.893,21.819,48.026
	v195.193c0,14.308,11.64,25.948,25.948,25.948h438.284c14.308,0,25.95-11.64,25.95-25.948v-244.56
	C512,209.22,500.615,197.833,486.618,197.833z M403.19,143.662c14.043,0,29.649,31.858,33.03,54.171h-66.056
	C373.542,175.52,389.147,143.662,403.19,143.662z M285.628,58.758c3.775-14.004,7.372-20.721,9.377-23.343
	c2.005,2.622,5.601,9.339,9.376,23.343c3.369,12.498,5.453,25.699,5.453,30.761c0,8.178-6.653,14.831-14.83,14.831
	c-8.178,0-14.832-6.653-14.832-14.831C280.173,84.457,282.259,71.257,285.628,58.758z M280.173,121.86
	c0-0.737,0.647-1.385,1.385-1.385h26.893c0.737,0,1.384,0.647,1.384,1.385v75.973h-29.662L280.173,121.86L280.173,121.86z
	 M186.82,143.662c14.043,0,29.648,31.858,33.027,54.171h-66.055C157.171,175.52,172.778,143.662,186.82,143.662z M495.875,467.777
	c0,5.417-4.408,9.823-9.824,9.823H95.366V267.007c0-5.417,4.408-9.823,9.824-9.823h390.686v210.593H495.875z M495.875,241.059
	H105.19c-14.309,0-25.95,11.64-25.95,25.948V477.6H47.768c-5.416,0-9.823-4.406-9.823-9.823V268.77c0-2.505-1.164-4.868-3.152-6.394
	c-11.864-9.114-18.667-22.898-18.667-37.818c0-26.284,21.384-47.667,47.669-47.667c20.127,0,38.178,12.741,44.917,31.704
	c1.143,3.215,4.186,5.362,7.597,5.362h370.31c5.104,0,9.257,4.154,9.257,9.259L495.875,241.059L495.875,241.059z M277.228,387.85
	c7.095,0,13.539-2.824,18.279-7.4c4.741,4.576,11.184,7.4,18.278,7.4c14.524,0,26.341-11.816,26.341-26.341
	c0-4.453-3.609-8.063-8.063-8.063c-4.454,0-8.063,3.61-8.063,8.063c0,5.633-4.583,10.216-10.216,10.216
	c-5.633,0-10.216-4.583-10.216-10.216c0-4.453-3.609-8.063-8.063-8.063c-4.454,0-8.063,3.61-8.063,8.063
	c0,5.633-4.584,10.216-10.217,10.216c-5.633,0-10.216-4.583-10.216-10.216c0-4.453-3.609-8.063-8.063-8.063
	c-4.454,0-8.063,3.61-8.063,8.063C250.887,376.034,262.703,387.85,277.228,387.85z M411.062,361.517
	c8.063,0,14.599-6.536,14.599-14.601c0-8.063-6.536-14.599-14.599-14.599s-14.599,6.536-14.599,14.599
	C396.464,354.98,403,361.517,411.062,361.517z M185.744,361.517c8.064,0,14.6-6.536,14.6-14.601c0-8.063-6.536-14.599-14.6-14.599
	c-8.063,0-14.599,6.536-14.599,14.599C171.145,354.98,177.681,361.517,185.744,361.517z"/>
<g>
</g>
<g>
</g>
<g>
</g>
<g>
</g>
<g>
</g>
<g>
</g>
<g>
</g>
<g>
</g>
<g>
</g>
<g>
</g>
<g>
</g>
<g>
</g>
<g>
</g>
<g>
</g>
<g>
</g>
</svg>
