<?xml version="1.0" encoding="iso-8859-1"?>
<!-- Generator: Adobe Illustrator 19.0.0, SVG Export Plug-In . SVG Version: 6.00 Build 0)  -->
<svg version="1.1" id="Layer_1" xmlns="http://www.w3.org/2000/svg" xmlns:xlink="http://www.w3.org/1999/xlink" x="0px" y="0px"
	 viewBox="0 0 512 512" style="enable-background:new 0 0 512 512;" xml:space="preserve">
<g>
	<path style="fill:#46C79C;" d="M302.664,98.108c0,38.157-25.575,70.968-38.859,85.436c-5.747,6.259-9.915,6.205-15.612-0.002
		c-13.285-14.467-38.861-47.275-38.857-85.435c-0.002-38.157,25.573-70.969,38.855-85.433c5.699-6.211,9.869-6.258,15.617-0.004
		C277.089,27.142,302.663,59.954,302.664,98.108z"/>
	<path style="fill:#46C79C;" d="M305.099,82.949c-26.981,26.982-32.098,68.265-32.934,87.889c-0.362,8.49,2.623,11.399,11.04,11.04
		c19.625-0.837,60.908-5.951,87.887-32.937c26.984-26.98,32.101-68.265,32.935-87.884c0.363-8.423-2.553-11.403-11.039-11.045
		C373.363,50.853,332.078,55.971,305.099,82.949z"/>
	<path style="fill:#46C79C;" d="M206.901,82.949c26.981,26.982,32.098,68.265,32.934,87.889c0.362,8.49-2.623,11.399-11.04,11.04
		c-19.625-0.837-60.908-5.951-87.887-32.937c-26.984-26.98-32.101-68.265-32.935-87.884c-0.363-8.423,2.553-11.403,11.039-11.045
		C138.637,50.853,179.922,55.971,206.901,82.949z"/>
</g>
<path style="fill:#6CF5C5;" d="M331.415,39.18c-2.611-7.16-6.078-8.642-13.042-5.406c-16.102,7.493-48.817,26.052-62.018,57.922
	c-0.125,0.302-0.234,0.606-0.354,0.91c-0.121-0.303-0.229-0.607-0.355-0.91c-13.202-31.87-45.917-50.428-62.018-57.922
	c-6.964-3.236-10.431-1.753-13.042,5.406c-6.09,16.678-16.101,52.933-2.896,84.806c13.199,31.876,45.913,50.431,62.016,57.921
	c6.908,3.214,25.683,3.214,32.591,0c16.103-7.488,48.818-26.044,62.016-57.921C347.516,92.114,337.506,55.858,331.415,39.18z"/>
<path style="fill:#FFD553;" d="M383.44,376.56C383.44,446.943,326.383,504,256.001,504S128.56,446.944,128.56,376.56V270.195
	c0-70.382,57.057-127.439,127.439-127.439s127.44,57.057,127.44,127.439V376.56z"/>
<circle style="fill:#3F4963;" cx="185.646" cy="287.087" r="14.303"/>
<path style="fill:#FF6376;" d="M200.947,332.957h-30.601c-4.418,0-7.999-3.58-7.999-7.999c0-4.419,3.582-7.999,7.999-7.999h30.601
	c4.418,0,7.999,3.58,7.999,7.999C208.946,329.377,205.364,332.957,200.947,332.957z"/>
<circle style="fill:#3F4963;" cx="326.357" cy="287.087" r="14.303"/>
<path style="fill:#FF6376;" d="M341.654,332.957h-30.601c-4.418,0-7.999-3.58-7.999-7.999c0-4.419,3.582-7.999,7.999-7.999h30.601
	c4.418,0,7.999,3.58,7.999,7.999C349.653,329.377,346.073,332.957,341.654,332.957z"/>
<g>
	<path style="fill:#3F4963;" d="M241.781,320.79c-12.251,0-22.218-9.967-22.218-22.216c0-4.419,3.582-7.999,7.999-7.999
		c4.418,0,7.999,3.58,7.999,7.999c0,3.429,2.79,6.218,6.219,6.218c3.429,0,6.219-2.789,6.219-6.218c0-4.419,3.582-7.999,7.999-7.999
		s7.999,3.58,7.999,7.999C263.999,310.823,254.033,320.79,241.781,320.79z"/>
	<path style="fill:#3F4963;" d="M270.219,320.79c-12.251,0-22.218-9.967-22.218-22.216c0-4.419,3.582-7.999,7.999-7.999
		s7.999,3.58,7.999,7.999c0,3.429,2.79,6.218,6.219,6.218c3.429,0,6.219-2.789,6.219-6.218c0-4.419,3.582-7.999,7.999-7.999
		c4.418,0,7.999,3.58,7.999,7.999C292.435,310.823,282.469,320.79,270.219,320.79z"/>
</g>
<g>
	<path style="fill:#DFA800;" d="M275.552,253.038c-2.047,0-4.095-0.781-5.656-2.342L256.001,236.8l-13.895,13.895
		c-3.124,3.124-8.189,3.122-11.313,0c-3.124-3.125-3.124-8.189,0-11.313l19.552-19.551c3.124-3.123,8.189-3.123,11.312,0
		l19.552,19.551c3.124,3.125,3.124,8.189,0,11.313C279.646,252.257,277.598,253.038,275.552,253.038z"/>
	<path style="fill:#DFA800;" d="M200.947,253.038c-2.047,0-4.095-0.781-5.656-2.342L181.396,236.8l-13.896,13.895
		c-3.124,3.124-8.189,3.123-11.312-0.001c-3.124-3.124-3.124-8.189,0-11.312l19.552-19.551c3.124-3.123,8.188-3.123,11.312,0
		l19.551,19.551c3.124,3.125,3.124,8.189,0,11.313C205.041,252.257,202.993,253.038,200.947,253.038z"/>
	<path style="fill:#DFA800;" d="M238.25,210.417c-2.047,0-4.095-0.781-5.656-2.342l-13.896-13.896l-13.895,13.896
		c-3.124,3.123-8.189,3.123-11.312,0c-3.124-3.125-3.124-8.189,0-11.312l19.552-19.553c1.5-1.5,3.535-2.342,5.656-2.342
		c2.121,0,4.156,0.843,5.656,2.342l19.552,19.552c3.124,3.125,3.124,8.189,0,11.313C242.344,209.636,240.296,210.417,238.25,210.417
		z"/>
	<path style="fill:#DFA800;" d="M350.158,253.038c-2.047,0-4.095-0.781-5.656-2.342L330.605,236.8l-13.895,13.895
		c-3.124,3.124-8.189,3.122-11.312,0c-3.124-3.125-3.124-8.189,0-11.313l19.552-19.551c3.124-3.123,8.189-3.123,11.312,0
		l19.552,19.551c3.124,3.124,3.124,8.189,0,11.312C354.251,252.257,352.204,253.038,350.158,253.038z"/>
	<path style="fill:#DFA800;" d="M312.855,210.417c-2.047,0-4.095-0.781-5.656-2.342l-13.895-13.896l-13.896,13.896
		c-3.124,3.123-8.189,3.123-11.312,0c-3.124-3.125-3.124-8.189,0-11.313l19.552-19.552c1.5-1.5,3.535-2.342,5.656-2.342
		s4.156,0.843,5.656,2.342l19.552,19.553c3.124,3.124,3.124,8.188,0,11.312C316.948,209.636,314.901,210.417,312.855,210.417z"/>
	<path style="fill:#DFA800;" d="M275.552,393.55c-2.047,0-4.095-0.781-5.656-2.342l-13.895-13.895l-13.895,13.895
		c-3.124,3.124-8.189,3.122-11.313,0c-3.124-3.125-3.124-8.189,0-11.313l19.552-19.551c3.124-3.123,8.189-3.123,11.312,0
		l19.552,19.551c3.124,3.125,3.124,8.189,0,11.313C279.646,392.769,277.598,393.55,275.552,393.55z"/>
	<path style="fill:#DFA800;" d="M275.552,471.958c-2.047,0-4.095-0.782-5.656-2.342l-13.895-13.896l-13.895,13.896
		c-3.124,3.123-8.189,3.123-11.313,0c-3.124-3.125-3.124-8.189,0-11.312l19.552-19.553c1.5-1.5,3.535-2.342,5.656-2.342
		c2.121,0,4.156,0.843,5.656,2.342l19.552,19.553c3.124,3.124,3.124,8.188,0,11.312
		C279.646,471.176,277.598,471.958,275.552,471.958z"/>
	<path style="fill:#DFA800;" d="M200.947,393.55c-2.047,0-4.095-0.781-5.656-2.342l-13.895-13.895l-13.896,13.895
		c-3.124,3.124-8.189,3.123-11.312-0.001c-3.124-3.124-3.124-8.189,0-11.313l19.552-19.551c3.124-3.124,8.188-3.122,11.312,0
		l19.551,19.551c3.124,3.125,3.124,8.189,0,11.313C205.041,392.769,202.993,393.55,200.947,393.55z"/>
	<path style="fill:#DFA800;" d="M312.855,432.753c-2.047,0-4.095-0.781-5.656-2.342l-13.895-13.896l-13.896,13.896
		c-3.124,3.123-8.189,3.123-11.312,0c-3.124-3.125-3.124-8.189,0-11.314l19.552-19.552c1.5-1.5,3.535-2.342,5.656-2.342
		s4.156,0.843,5.656,2.342l19.552,19.553c3.124,3.124,3.124,8.188,0,11.313C316.948,431.973,314.901,432.753,312.855,432.753z"/>
	<path style="fill:#DFA800;" d="M350.158,393.55c-2.047,0-4.095-0.781-5.656-2.342l-13.896-13.895l-13.895,13.895
		c-3.124,3.124-8.189,3.122-11.312,0c-3.124-3.125-3.124-8.189,0-11.313l19.552-19.551c3.124-3.123,8.189-3.123,11.312,0
		l19.552,19.551c3.124,3.124,3.124,8.189,0,11.313C354.251,392.769,352.204,393.55,350.158,393.55z"/>
	<path style="fill:#DFA800;" d="M238.25,432.753c-2.047,0-4.095-0.781-5.656-2.342l-13.896-13.896l-13.896,13.896
		c-3.124,3.123-8.189,3.123-11.312,0c-3.124-3.125-3.124-8.189,0-11.313l19.552-19.553c1.5-1.5,3.535-2.342,5.656-2.342
		c2.121,0,4.156,0.843,5.656,2.342l19.552,19.552c3.124,3.125,3.124,8.189,0,11.314C242.344,431.973,240.296,432.753,238.25,432.753
		z"/>
</g>
<path d="M185.291,272.78c-7.899,0-14.303,6.404-14.303,14.303c0,7.901,6.404,14.305,14.303,14.305s14.303-6.404,14.303-14.305
	C199.594,279.183,193.191,272.78,185.291,272.78z M284.082,290.573c-4.419,0-7.999,3.58-7.999,7.999c0,3.429-2.79,6.218-6.22,6.218
	c-3.429,0-6.218-2.789-6.218-6.218c0-4.419-3.582-7.999-7.999-7.999c-4.419,0-7.999,3.58-7.999,7.999c0,3.429-2.79,6.218-6.22,6.218
	c-3.429,0-6.218-2.789-6.218-6.218c0-4.419-3.582-7.999-7.999-7.999c-4.419,0-7.999,3.58-7.999,7.999
	c0,12.251,9.966,22.216,22.217,22.216c5.405,0,10.363-1.943,14.219-5.164c3.856,3.221,8.813,5.164,14.217,5.164
	c12.251,0,22.219-9.966,22.219-22.216C292.081,294.155,288.5,290.573,284.082,290.573z M412.374,61.402
	c0.182-4.229-0.091-10.366-4.544-14.821c-4.455-4.46-10.592-4.737-14.829-4.56c-12.722,0.544-31.019,2.618-49.757,9.11
	c-1.278-4.721-2.811-9.612-4.666-14.69c-1.361-3.731-3.811-8.958-9.352-11.255c-5.543-2.3-10.975-0.339-14.581,1.337
	c-8.274,3.849-15.568,7.96-22.004,12.193c-7.839-13.459-16.733-24.304-23.298-31.455c-2.864-3.118-7.4-7.261-13.7-7.261h-0.006
	c-6.299,0.004-10.832,4.15-13.691,7.266c-6.542,7.123-15.445,17.972-23.296,31.447c-6.438-4.231-13.731-8.343-22.005-12.193
	c-3.604-1.675-9.033-3.637-14.578-1.335c-5.541,2.297-7.991,7.525-9.35,11.251c-1.827,5.003-3.342,9.824-4.609,14.48
	c-18.511-6.316-36.535-8.358-49.113-8.895c-4.23-0.183-10.37,0.1-14.824,4.56c-4.453,4.456-4.726,10.593-4.544,14.818
	c2.241,52.647,23.061,80.993,35.27,93.199c7.333,7.335,16.091,13.625,26.128,18.796c-25.169,24.606-40.817,58.908-40.817,96.803
	v106.365c0,74.683,60.757,135.438,135.438,135.438c74.681,0,135.438-60.757,135.438-135.438V270.197
	c0-37.771-15.548-71.974-40.571-96.563c10.23-5.214,19.143-11.588,26.587-19.034C389.312,142.39,410.133,114.045,412.374,61.402z
	 M253.73,18.084c0.879-0.958,1.509-1.504,1.914-1.81c0.405,0.306,1.037,0.852,1.916,1.808c6.248,6.808,14.806,17.257,22.132,30.193
	c-11.253,9.345-18.897,18.777-24.046,26.912c-5.149-8.135-12.794-17.567-24.048-26.912C238.933,35.321,247.5,24.868,253.73,18.084z
	 M187.745,41.921c0.242-0.664,0.455-1.158,0.632-1.519c0.379,0.129,0.879,0.327,1.52,0.625
	c13.314,6.196,45.618,23.833,58.002,53.726l0.317,0.815c1.213,3.042,4.155,5.037,7.431,5.037c3.273,0,6.218-1.996,7.431-5.037
	l0.315-0.811c12.384-29.897,44.689-47.535,57.999-53.728c0.642-0.3,1.143-0.496,1.525-0.627c0.175,0.363,0.389,0.856,0.634,1.523
	c5.035,13.791,15.411,49.091,3.018,79c-3.654,8.824-9.307,17.253-16.826,25.116c-16.579-7.252-34.872-11.284-54.094-11.284
	c-19.223,0-37.517,4.033-54.095,11.284c-7.52-7.866-13.174-16.294-16.827-25.116C172.333,91.016,182.707,55.715,187.745,41.921z
	 M146.211,143.286c-25.534-25.531-29.905-66.247-30.6-82.571c-0.057-1.3,0.003-2.131,0.073-2.633
	c0.503-0.07,1.334-0.131,2.632-0.077c9.776,0.419,27.978,2.122,46.339,8.647c-4.754,28.868,0.73,49.389,5.288,60.394
	c3.87,9.345,9.519,18.246,16.843,26.566c-4.328,2.566-8.504,5.362-12.505,8.378C163.182,157.097,153.745,150.823,146.211,143.286z
	 M375.087,270.197v106.365c0,65.86-53.581,119.44-119.44,119.44c-65.86,0-119.44-53.58-119.44-119.44V270.197
	c0-65.86,53.58-119.44,119.44-119.44C321.505,150.756,375.087,204.336,375.087,270.197z M337.261,162.185
	c-4.079-3.089-8.336-5.951-12.757-8.572c7.324-8.32,12.974-17.222,16.843-26.564c4.548-10.976,10.015-31.413,5.33-60.156
	c18.587-6.725,37.113-8.464,47.001-8.887c1.304-0.054,2.135,0.006,2.639,0.077c0.069,0.502,0.128,1.335,0.073,2.635
	c-0.694,16.322-5.066,57.038-30.601,82.569C358.152,150.925,348.558,157.261,337.261,162.185z M325.999,272.78
	c-7.899,0-14.303,6.404-14.303,14.303c0,7.901,6.404,14.305,14.303,14.305s14.303-6.404,14.303-14.305
	C340.302,279.183,333.898,272.78,325.999,272.78z"/>
<g>
</g>
<g>
</g>
<g>
</g>
<g>
</g>
<g>
</g>
<g>
</g>
<g>
</g>
<g>
</g>
<g>
</g>
<g>
</g>
<g>
</g>
<g>
</g>
<g>
</g>
<g>
</g>
<g>
</g>
</svg>
