<?xml version="1.0" encoding="iso-8859-1"?>
<!-- Generator: Adobe Illustrator 19.0.0, SVG Export Plug-In . SVG Version: 6.00 Build 0)  -->
<svg version="1.1" id="Layer_1" xmlns="http://www.w3.org/2000/svg" xmlns:xlink="http://www.w3.org/1999/xlink" x="0px" y="0px"
	 viewBox="0 0 512.001 512.001" style="enable-background:new 0 0 512.001 512.001;" xml:space="preserve">
<path style="fill:#FFD553;" d="M75.821,450.773l-19.279-74.681L235.783,24.248c5.563-10.809,12.895-16.215,20.228-16.219
	c7.333,0.003,14.665,5.41,20.227,16.219l179.241,351.846l-19.278,74.681H75.821V450.773z"/>
<path style="fill:#FF6376;" d="M190.205,262.267c33.09,0,59.915-26.825,59.915-59.915s-26.825-59.915-59.915-59.915
	c-5.433,0-10.692,0.737-15.697,2.092l-40.307,79.122C142.791,246.222,164.618,262.267,190.205,262.267z M293.591,60.704
	c0-0.845-0.029-1.682-0.064-2.518l-17.289-33.938c-5.562-10.809-12.894-16.215-20.227-16.219
	c-7.333,0.003-14.665,5.41-20.228,16.219l-41.54,81.543c10.539,9.224,24.328,14.828,39.434,14.828
	C266.766,120.618,293.591,93.793,293.591,60.704z M274.794,179.267c0,33.09,26.825,59.915,59.915,59.915
	c16.451,0,31.349-6.635,42.177-17.368l-51.801-101.682C296.572,124.738,274.794,149.456,274.794,179.267z M237.201,380.117
	c-33.09,0-59.914,26.825-59.914,59.915c0,3.669,0.348,7.254,0.98,10.741h117.871c0.632-3.487,0.979-7.072,0.979-10.741
	C297.115,406.942,270.29,380.117,237.201,380.117z M133.975,272.753c-10.294,0-19.98,2.598-28.442,7.172l-30.929,60.712
	c3.899,29.32,28.984,51.947,59.37,51.947c33.091,0,59.915-26.825,59.915-59.915S167.065,272.753,133.975,272.753z M406.498,279.943
	c-8.471-4.584-18.169-7.189-28.477-7.189c-33.09,0-59.914,26.825-59.914,59.914c0,33.09,26.825,59.915,59.914,59.915
	c30.4,0,55.494-22.646,59.376-51.986L406.498,279.943z"/>
<path style="fill:#FDBA55;" d="M256.004,503.97c-0.004,0,0.002,0-0.003,0c-80.28,0-159.811-19.586-230.446-56.689
	c-4.494-2.361-4.477-6.042-3.36-7.998l34.327-63.19c60.81,33.033,129.79,50.494,199.483,50.494h-0.006
	c69.693,0,138.673-17.46,199.483-50.494l34.327,63.19c1.117,1.956,1.135,5.638-3.36,7.998
	c-70.635,37.105-150.166,56.689-230.446,56.689c-0.005,0,0.001,0-0.003,0H256.004z"/>
<g>
	<circle style="fill:#3F4963;" cx="147.304" cy="311.48" r="14.085"/>
	<circle style="fill:#3F4963;" cx="364.689" cy="311.48" r="14.085"/>
</g>
<g>
	<path style="fill:#FF9596;" d="M162.375,360.958H132.24c-4.434,0-8.029-3.595-8.029-8.03s3.595-8.029,8.029-8.029h30.133
		c4.434,0,8.029,3.595,8.029,8.029C170.404,357.363,166.809,360.958,162.375,360.958z"/>
	<path style="fill:#FF9596;" d="M379.755,360.958h-30.134c-4.434,0-8.03-3.595-8.03-8.03s3.595-8.029,8.03-8.029h30.134
		c4.434,0,8.03,3.595,8.03,8.029S384.19,360.958,379.755,360.958z"/>
</g>
<g>
	<path style="fill:#3F4963;" d="M238.362,351.226c-14.151,0-25.663-11.512-25.663-25.663c0-4.434,3.595-8.03,8.029-8.03
		s8.029,3.595,8.029,8.03c0,5.296,4.308,9.604,9.604,9.604c5.297,0,9.606-4.308,9.606-9.604c0-4.434,3.595-8.03,8.029-8.03
		c4.434,0,8.029,3.595,8.029,8.03C264.028,339.713,252.515,351.226,238.362,351.226z"/>
	<path style="fill:#3F4963;" d="M273.632,351.226c-14.151,0-25.663-11.512-25.663-25.663c0-4.434,3.595-8.03,8.029-8.03
		c4.434,0,8.029,3.595,8.029,8.03c0,5.296,4.308,9.604,9.604,9.604c5.296,0,9.605-4.308,9.605-9.604c0-4.434,3.595-8.03,8.029-8.03
		s8.03,3.595,8.03,8.03C299.297,339.713,287.783,351.226,273.632,351.226z"/>
</g>
<path d="M496.832,435.394l-34.25-63.048L283.378,20.573C274.169,2.68,262.282,0.002,256.008,0
	c-6.265,0.002-18.153,2.68-27.378,20.603L49.575,372.079c-0.035,0.061-0.076,0.119-0.11,0.181l-34.296,63.134
	c-1.681,3.003-2.081,6.645-1.098,10.013c0.773,2.646,2.744,6.353,7.749,8.982c71.748,37.689,152.725,57.611,234.176,57.611h0.001
	h0.003c81.455,0,162.433-19.922,234.18-57.611c5.006-2.629,6.978-6.336,7.75-8.982C498.913,442.041,498.513,438.397,496.832,435.394
	z M242.923,27.922c3.822-7.427,8.717-11.861,13.085-11.863c4.376,0.002,9.269,4.437,13.076,11.833l175.653,344.801
	c-57.927,30.021-123.004,45.863-188.734,45.863c-65.728,0-130.8-15.838-188.723-45.855L242.923,27.922z M256.001,495.941
	c-78.406,0-156.344-19.058-225.497-55.133l29.278-53.896c60.227,31.23,127.892,47.703,196.223,47.703
	c68.328,0,135.99-16.472,196.216-47.703l29.278,53.896C412.344,476.883,334.407,495.941,256.001,495.941z M147.307,297.398
	c-7.779,0-14.083,6.306-14.083,14.084c0,7.78,6.305,14.086,14.083,14.086c7.778,0,14.085-6.306,14.085-14.086
	C161.393,303.704,155.086,297.398,147.307,297.398z M364.689,325.569c7.779,0,14.084-6.306,14.084-14.086
	c0-7.779-6.306-14.084-14.084-14.084c-7.778,0-14.085,6.306-14.085,14.084C350.604,319.263,356.911,325.569,364.689,325.569z
	 M299.297,325.562c0-4.434-3.595-8.029-8.03-8.029c-4.435,0-8.029,3.595-8.029,8.029c0,5.296-4.309,9.604-9.606,9.604
	c-5.295,0-9.604-4.308-9.604-9.604c0-4.434-3.594-8.029-8.029-8.029c-4.436,0-8.029,3.595-8.029,8.029
	c0,5.296-4.309,9.604-9.606,9.604s-9.604-4.308-9.604-9.604c0-4.434-3.595-8.029-8.029-8.029c-4.436,0-8.029,3.595-8.029,8.029
	c0,14.151,11.512,25.663,25.663,25.663c6.826,0,13.033-2.683,17.636-7.045c4.602,4.362,10.809,7.045,17.634,7.045
	C287.783,351.226,299.297,339.713,299.297,325.562z"/>
<g>
</g>
<g>
</g>
<g>
</g>
<g>
</g>
<g>
</g>
<g>
</g>
<g>
</g>
<g>
</g>
<g>
</g>
<g>
</g>
<g>
</g>
<g>
</g>
<g>
</g>
<g>
</g>
<g>
</g>
</svg>
