<?xml version="1.0" encoding="iso-8859-1"?>
<!-- Generator: Adobe Illustrator 19.0.0, SVG Export Plug-In . SVG Version: 6.00 Build 0)  -->
<svg version="1.1" id="Layer_1" xmlns="http://www.w3.org/2000/svg" xmlns:xlink="http://www.w3.org/1999/xlink" x="0px" y="0px"
	 viewBox="0 0 512 512" style="enable-background:new 0 0 512 512;" xml:space="preserve">
<path style="fill:#CF9945;" d="M224.931,381.821v106.072c0,8.839,7.232,16.071,16.071,16.071h30c8.839,0,16.071-7.232,16.071-16.071
	V381.821H224.931z"/>
<path style="fill:#89AAED;" d="M126.351,257.226v103.166c0,11.786,9.643,21.429,21.429,21.429h216.437
	c11.786,0,21.429-9.643,21.429-21.429V257.226H126.351z"/>
<path style="fill:#C3DDF7;" d="M385.538,132.63C382.882,63.371,325.908,8.036,255.999,8.036S129.115,63.371,126.46,132.63
	c-0.064,1.677-0.107,128.119-0.107,128.119h259.294C385.645,260.749,385.603,134.308,385.538,132.63z"/>
<g style="opacity:0.3;">
	<path style="fill:#3F4963;" d="M171.721,381.821V200.656c0-14.693,11.911-26.605,26.605-26.605
		c14.694,0,26.605,11.912,26.605,26.605v181.165H171.721z"/>
	<path style="fill:#3F4963;" d="M340.276,381.821V200.656c0-14.693-11.911-26.605-26.605-26.605
		c-14.694,0-26.605,11.912-26.605,26.605v181.165H340.276z"/>
</g>
<circle style="fill:#3F4963;" cx="184.435" cy="97.157" r="14.55"/>
<path style="fill:#FF9596;" d="M199.997,143.72h-31.13c-4.438,0-8.036-3.597-8.036-8.036s3.598-8.036,8.036-8.036h31.13
	c4.438,0,8.036,3.597,8.036,8.036C208.033,140.122,204.435,143.72,199.997,143.72z"/>
<circle style="fill:#3F4963;" cx="327.578" cy="97.157" r="14.55"/>
<path style="fill:#FF9596;" d="M343.137,143.72h-31.13c-4.438,0-8.036-3.597-8.036-8.036s3.598-8.036,8.036-8.036h31.13
	c4.438,0,8.036,3.597,8.036,8.036C351.173,140.122,347.575,143.72,343.137,143.72z"/>
<g>
	<path style="fill:#3F4963;" d="M241.538,131.342c-12.407,0-22.5-10.093-22.5-22.499c0-4.439,3.598-8.036,8.036-8.036
		c4.438,0,8.036,3.597,8.036,8.036c0,3.544,2.883,6.428,6.429,6.428c3.545,0,6.429-2.883,6.429-6.428
		c0-4.439,3.598-8.036,8.036-8.036s8.036,3.597,8.036,8.036C264.038,121.249,253.945,131.342,241.538,131.342z"/>
	<path style="fill:#3F4963;" d="M270.466,131.342c-12.407,0-22.5-10.093-22.5-22.499c0-4.439,3.598-8.036,8.036-8.036
		s8.036,3.597,8.036,8.036c0,3.544,2.883,6.428,6.429,6.428c3.545,0,6.429-2.883,6.429-6.428c0-4.439,3.598-8.036,8.036-8.036
		s8.036,3.597,8.036,8.036C292.967,121.249,282.874,131.342,270.466,131.342z"/>
</g>
<path d="M184.433,82.603c-8.036,0-14.55,6.514-14.55,14.55c0,8.038,6.514,14.552,14.55,14.552c8.036,0,14.55-6.514,14.55-14.552
	C198.983,89.117,192.468,82.603,184.433,82.603z M284.931,100.807c-4.439,0-8.036,3.597-8.036,8.036
	c0,3.545-2.883,6.429-6.429,6.429c-3.545,0-6.429-2.883-6.429-6.429c0-4.439-3.598-8.036-8.036-8.036
	c-4.439,0-8.036,3.597-8.036,8.036c0,3.545-2.883,6.429-6.429,6.429c-3.545,0-6.429-2.883-6.429-6.429
	c0-4.439-3.598-8.036-8.036-8.036c-4.439,0-8.036,3.597-8.036,8.036c0,12.407,10.093,22.5,22.5,22.5
	c5.506,0,10.549-1.994,14.464-5.291c3.914,3.296,8.958,5.291,14.464,5.291c12.406,0,22.5-10.093,22.5-22.5
	C292.967,104.404,289.369,100.807,284.931,100.807z M327.573,82.603c-8.036,0-14.55,6.514-14.55,14.55
	c0,8.038,6.514,14.552,14.55,14.552s14.55-6.514,14.55-14.552C342.123,89.117,335.608,82.603,327.573,82.603z M393.569,132.324
	c-1.367-35.644-16.283-68.936-42.001-93.746C325.779,13.7,291.839,0,255.999,0s-69.781,13.7-95.569,38.578
	c-25.719,24.81-40.634,58.103-42.001,93.744c-0.059,1.544-0.101,174.957-0.113,228.07c0,16.247,13.218,29.464,29.464,29.464h69.116
	v98.036c0,13.292,10.814,24.107,24.107,24.107h30c13.292,0,24.107-10.815,24.107-24.107v-98.036h69.107
	c16.246,0,29.464-13.217,29.464-29.467C393.669,307.279,393.628,133.866,393.569,132.324z M279.038,487.893
	c0,4.432-3.605,8.036-8.036,8.036h-30c-4.433,0-8.036-3.603-8.036-8.036v-98.036h46.072V487.893z M364.217,373.785H147.78
	c-7.385,0-13.393-6.008-13.393-13.391c0.017-76.952,0.061-222.983,0.105-227.543c1.228-31.444,14.4-60.812,37.096-82.707
	c22.775-21.971,52.753-34.073,84.411-34.073s61.634,12.102,84.411,34.073c22.695,21.896,35.866,51.264,37.096,82.705
	c0.044,4.527,0.088,150.584,0.105,227.543C377.61,367.778,371.602,373.785,364.217,373.785z"/>
<g>
</g>
<g>
</g>
<g>
</g>
<g>
</g>
<g>
</g>
<g>
</g>
<g>
</g>
<g>
</g>
<g>
</g>
<g>
</g>
<g>
</g>
<g>
</g>
<g>
</g>
<g>
</g>
<g>
</g>
</svg>
