<?xml version="1.0" encoding="iso-8859-1"?>
<!-- Generator: Adobe Illustrator 19.0.0, SVG Export Plug-In . SVG Version: 6.00 Build 0)  -->
<svg version="1.1" id="Layer_1" xmlns="http://www.w3.org/2000/svg" xmlns:xlink="http://www.w3.org/1999/xlink" x="0px" y="0px"
	 viewBox="0 0 512.001 512.001" style="enable-background:new 0 0 512.001 512.001;" xml:space="preserve">
<path style="fill:#FF6376;" d="M214.121,111.315c0-23.129,18.75-70.483,41.88-70.483s41.88,47.353,41.88,70.483
	s-18.751,41.88-41.88,41.88S214.121,134.445,214.121,111.315z"/>
<path style="fill:#C3DDF7;" d="M301.667,190.117c25.709,0,46.551-20.842,46.551-46.551c0-25.711-20.842-46.551-46.551-46.551
	h-91.333c-25.709,0-46.551,20.841-46.551,46.551c0,25.709,20.842,46.551,46.551,46.551H301.667z"/>
<path style="fill:#FFD553;" d="M426.605,186.062c-2.434-8.553-11.701-15.55-20.594-15.55h-300.02c-8.892,0-18.16,6.998-20.594,15.55
	L8.67,455.619c-2.435,8.553,2.85,15.551,11.742,15.551h471.179c8.892,0,14.176-6.998,11.741-15.551L426.605,186.062z"/>
<path style="fill:#FDBA55;" d="M503.332,455.619l-7.225-25.381H15.895L8.67,455.619c-2.435,8.553,2.85,15.551,11.742,15.551h471.179
	C500.482,471.169,505.766,464.172,503.332,455.619z"/>
<path style="fill:#866539;" d="M478.662,270.54l-26.146-91.856c-5.699-20.022-25.694-35.119-46.511-35.119H105.991
	c-20.817,0-40.814,15.099-46.511,35.119L33.334,270.54c-4.074,14.314,4.226,29.22,18.541,33.294
	c2.466,0.702,4.947,1.037,7.391,1.036c11.736-0.001,22.532-7.729,25.903-19.576l11.022-38.724l0.01,0.013
	c2.293-7.926,9.604-13.72,18.269-13.72c10.502,0,19.015,8.513,19.015,19.015v26.038c0,14.882,12.065,26.947,26.947,26.947
	s26.947-12.065,26.947-26.947v-26.038c0-11.507,9.329-20.837,20.836-20.837c11.508,0,20.837,9.329,20.837,20.837v26.038
	c0,14.882,12.065,26.947,26.947,26.947c14.882,0,26.947-12.065,26.947-26.947v-26.038c0-11.507,9.329-20.837,20.837-20.837
	c11.508,0,20.837,9.329,20.837,20.837v26.038c0,14.882,12.065,26.947,26.947,26.947c14.882,0,26.947-12.065,26.947-26.947v-26.038
	c0-10.502,8.513-19.015,19.015-19.015c8.665,0,15.975,5.795,18.269,13.72l0.01-0.013l11.022,38.724
	c3.372,11.847,14.169,19.575,25.903,19.576c2.444,0,4.925-0.334,7.391-1.036C474.434,299.761,482.736,284.854,478.662,270.54z"/>
<g>
	<circle style="fill:#3F4963;" cx="143.045" cy="351.183" r="14.638"/>
	<circle style="fill:#3F4963;" cx="368.968" cy="351.183" r="14.638"/>
</g>
<g>
	<path style="fill:#FF6376;" d="M158.703,402.346h-31.318c-4.465,0-8.084-3.62-8.084-8.084c0-4.465,3.619-8.084,8.084-8.084h31.318
		c4.465,0,8.084,3.62,8.084,8.084C166.787,398.727,163.169,402.346,158.703,402.346z"/>
	<path style="fill:#FF6376;" d="M384.624,402.346h-31.318c-4.465,0-8.084-3.62-8.084-8.084c0-4.465,3.62-8.084,8.084-8.084h31.318
		c4.465,0,8.084,3.62,8.084,8.084C392.708,398.727,389.088,402.346,384.624,402.346z"/>
</g>
<g>
	<path style="fill:#3F4963;" d="M237.677,392.231c-14.563,0-26.411-11.848-26.411-26.411c0-4.465,3.62-8.084,8.084-8.084
		s8.084,3.62,8.084,8.084c0,5.648,4.595,10.243,10.243,10.243s10.244-4.595,10.244-10.243c0-4.465,3.619-8.084,8.084-8.084
		c4.465,0,8.084,3.62,8.084,8.084C264.089,380.383,252.241,392.231,237.677,392.231z"/>
	<path style="fill:#3F4963;" d="M274.332,392.231c-14.563,0-26.411-11.848-26.411-26.411c0-4.465,3.62-8.084,8.084-8.084
		c4.465,0,8.084,3.62,8.084,8.084c0,5.648,4.595,10.243,10.243,10.243c5.648,0,10.243-4.595,10.243-10.243
		c0-4.465,3.62-8.084,8.084-8.084c4.465,0,8.084,3.62,8.084,8.084C300.743,380.383,288.895,392.231,274.332,392.231z"/>
</g>
<path d="M143.045,336.55c-8.084,0-14.638,6.553-14.638,14.638c0,8.085,6.553,14.639,14.638,14.639
	c8.084,0,14.638-6.553,14.638-14.639C157.683,343.104,151.129,336.55,143.045,336.55z M292.659,357.736
	c-4.466,0-8.084,3.62-8.084,8.084c0,5.648-4.596,10.243-10.243,10.243c-5.647,0-10.243-4.595-10.243-10.243
	c0-4.465-3.618-8.084-8.084-8.084s-8.084,3.62-8.084,8.084c0,5.648-4.596,10.243-10.244,10.243c-5.648,0-10.243-4.595-10.243-10.243
	c0-4.465-3.62-8.084-8.084-8.084s-8.084,3.62-8.084,8.084c0,14.563,11.848,26.411,26.411,26.411c7.114,0,13.575-2.832,18.328-7.42
	c4.753,4.589,11.214,7.42,18.327,7.42c14.563,0,26.411-11.848,26.411-26.411C300.743,361.355,297.124,357.736,292.659,357.736z
	 M511.108,453.406l-41.252-144.928c13.835-7.746,21.107-24.252,16.582-40.151l-26.146-91.856
	c-6.652-23.368-29.99-40.99-54.286-40.99h-50.304c-3.878-26.029-26.18-46.109-53.174-46.53c-3.234-11.929-8.43-24.066-14.423-33.463
	c-9.49-14.877-20.591-22.741-32.102-22.741c-11.514,0-22.614,7.863-32.102,22.741c-5.994,9.397-11.189,21.534-14.423,33.463
	c-26.993,0.42-49.295,20.501-53.174,46.53h-50.312c-24.299,0-47.637,17.622-54.287,40.99l-26.146,91.856
	c-4.526,15.902,2.75,32.41,16.588,40.154L0.894,453.405c-1.861,6.537-0.786,13.122,2.947,18.067
	c3.733,4.945,9.772,7.781,16.57,7.781H491.59c6.797,0,12.835-2.836,16.57-7.78C511.893,466.528,512.967,459.943,511.108,453.406z
	 M256.001,48.916c10.73,0,23.252,19.559,29.679,40.014h-59.359C232.749,68.474,245.269,48.916,256.001,48.916z M210.335,105.097
	h91.333c18.437,0,33.881,13.042,37.606,30.383H172.729C176.454,118.14,191.896,105.097,210.335,105.097z M41.108,272.754
	l26.146-91.856c4.746-16.675,21.399-29.249,38.737-29.249h300.013c17.337,0,33.99,12.574,38.737,29.249l26.146,91.856
	c2.848,10.004-2.975,20.459-12.979,23.307c-1.695,0.483-3.434,0.728-5.172,0.728v8.084l-0.005-8.084
	c-8.377-0.001-15.832-5.636-18.129-13.705L423.58,244.36c-0.054-0.188-0.112-0.373-0.18-0.555
	c-3.503-11.229-14.063-19.023-25.873-19.023c-14.943,0-27.099,12.156-27.099,27.099v26.038c0,10.4-8.463,18.863-18.863,18.863
	c-10.401,0-18.863-8.462-18.863-18.863V251.88c0-15.947-12.974-28.922-28.922-28.922c-15.947,0-28.922,12.974-28.922,28.922v26.038
	c0,10.4-8.461,18.863-18.863,18.863c-10.399,0-18.863-8.462-18.863-18.863V251.88c0-15.947-12.973-28.922-28.92-28.922
	s-28.92,12.974-28.92,28.922v26.038c0,10.4-8.463,18.863-18.863,18.863c-10.401,0-18.863-8.462-18.863-18.863V251.88
	c0-14.943-12.157-27.099-27.1-27.099c-11.809,0-22.369,7.793-25.873,19.022c-0.067,0.182-0.126,0.368-0.18,0.556l-11.021,38.723
	c-2.297,8.069-9.753,13.705-18.134,13.705c-1.735,0-3.477-0.245-5.172-0.728C44.083,293.213,38.261,282.757,41.108,272.754z
	 M495.258,461.729c-0.661,0.874-1.962,1.355-3.667,1.355H20.412c-1.705,0-3.007-0.482-3.667-1.355
	c-0.66-0.874-0.766-2.258-0.299-3.898l41.251-144.931c0.522,0.024,1.044,0.055,1.567,0.055
	c15.566-0.001,29.414-10.465,33.678-25.448l10.894-38.277c0.046-0.132,0.088-0.265,0.127-0.4c1.342-4.641,5.662-7.884,10.503-7.884
	c6.027,0,10.932,4.903,10.932,10.931v26.038c0,19.316,15.714,35.031,35.031,35.031c19.316,0,35.031-15.715,35.031-35.031v-26.038
	c0-7.032,5.72-12.753,12.752-12.753c7.033,0,12.752,5.721,12.752,12.753v26.038c0,19.316,15.715,35.031,35.031,35.031
	c19.317,0,35.031-15.715,35.031-35.031v-26.038c0-7.032,5.722-12.753,12.753-12.753c7.031,0,12.753,5.721,12.753,12.753v26.038
	c0,19.316,15.714,35.031,35.031,35.031c19.316,0,35.031-15.715,35.031-35.031v-26.038c0-6.027,4.903-10.931,10.931-10.931
	c4.841,0,9.16,3.241,10.503,7.884c0.039,0.135,0.081,0.267,0.126,0.399l10.895,38.279c4.264,14.982,18.114,25.446,33.677,25.448
	h0.008c0.523,0,1.046-0.031,1.567-0.055l41.252,144.931C496.024,459.471,495.916,460.855,495.258,461.729z M368.965,336.55
	c-8.084,0-14.638,6.553-14.638,14.638c0,8.085,6.553,14.639,14.638,14.639c8.084,0,14.638-6.553,14.638-14.639
	C383.603,343.104,377.049,336.55,368.965,336.55z"/>
<g>
</g>
<g>
</g>
<g>
</g>
<g>
</g>
<g>
</g>
<g>
</g>
<g>
</g>
<g>
</g>
<g>
</g>
<g>
</g>
<g>
</g>
<g>
</g>
<g>
</g>
<g>
</g>
<g>
</g>
</svg>
