<?xml version="1.0" encoding="iso-8859-1"?>
<!-- Generator: Adobe Illustrator 19.0.0, SVG Export Plug-In . SVG Version: 6.00 Build 0)  -->
<svg version="1.1" id="Layer_1" xmlns="http://www.w3.org/2000/svg" xmlns:xlink="http://www.w3.org/1999/xlink" x="0px" y="0px"
	 viewBox="0 0 511.999 511.999" style="enable-background:new 0 0 511.999 511.999;" xml:space="preserve">
<path style="fill:#FDBA55;" d="M328.752,413.906c-6.072-6.072-15.914-6.069-21.988,0c-5.035,5.035-11.729,7.809-18.85,7.809
	c-6.008,0-11.708-1.981-16.368-5.624v-36.985c0-8.586-6.96-15.548-15.547-15.548s-15.547,6.962-15.547,15.548v17.78
	c-10.449,8.143-25.614,7.422-35.218-2.182c-6.072-6.07-15.916-6.07-21.987,0c-6.072,6.072-6.072,15.917,0,21.988
	c11.258,11.259,26.047,16.888,40.836,16.888c5.509,0,11.017-0.783,16.343-2.345c-0.549,14.219-12.28,25.618-26.63,25.618
	c-8.586,0-15.547,6.961-15.547,15.547c0,8.586,6.961,15.548,15.547,15.548c9.612,0,18.675-2.373,26.657-6.546v7.069
	c0,8.585,6.96,15.547,15.547,15.547c8.587,0,15.547-6.962,15.547-15.547V450.46c5.249,1.542,10.746,2.351,16.37,2.349
	c15.426,0,29.929-6.008,40.836-16.915C334.825,429.822,334.824,419.979,328.752,413.906z"/>
<path style="fill:#6CF5C5;" d="M271.935,115.209c4.249-27.302,23.143-41.349,50.011-41.349c18.192,0,32.939-14.749,32.939-32.94
	c0-18.193-14.747-32.939-32.939-32.939c-41.079,0-65.947,37.961-65.947,105.852v9.437h15.262L271.935,115.209z"/>
<path style="fill:#46C79C;" d="M240.063,115.209c-4.249-27.302-23.142-41.349-50.011-41.349c-18.191,0-32.939-14.749-32.939-32.94
	c0-18.193,14.747-32.939,32.939-32.939c41.078,0,65.947,37.961,65.947,105.852v9.437h-15.262L240.063,115.209z"/>
<path style="fill:#FF6376;" d="M377.041,234.873c0-66.85-54.194-121.042-121.041-121.042c-66.851,0-121.041,54.193-121.041,121.042
	c0,33.436,13.557,63.704,35.474,85.609c27.603,27.604,70.02,51.695,70.02,68.387h31.095c0-16.691,42.417-40.782,70.02-68.387l0,0
	C363.484,298.578,377.041,268.309,377.041,234.873z"/>
<circle style="fill:#3F4963;" cx="181.847" cy="213.355" r="15.076"/>
<path style="fill:#FF9596;" d="M197.971,261.254h-32.255c-4.407,0-7.98-3.572-7.98-7.98s3.573-7.98,7.98-7.98h32.255
	c4.407,0,7.98,3.572,7.98,7.98C205.951,257.682,202.378,261.254,197.971,261.254z"/>
<circle style="fill:#3F4963;" cx="330.156" cy="213.355" r="15.076"/>
<path style="fill:#FF9596;" d="M346.283,261.254h-32.255c-4.408,0-7.98-3.572-7.98-7.98s3.572-7.98,7.98-7.98h32.255
	c4.408,0,7.98,3.572,7.98,7.98S350.69,261.254,346.283,261.254z"/>
<g>
	<path style="fill:#3F4963;" d="M241.013,248.43c-12.664,0-22.969-10.303-22.969-22.967c0-4.408,3.573-7.98,7.98-7.98
		s7.98,3.572,7.98,7.98c0,3.864,3.144,7.006,7.008,7.006c3.863,0,7.006-3.142,7.006-7.006c0-4.408,3.573-7.98,7.98-7.98
		c4.408,0,7.98,3.572,7.98,7.98C263.98,238.127,253.677,248.43,241.013,248.43z"/>
	<path style="fill:#3F4963;" d="M270.986,248.43c-12.663,0-22.967-10.303-22.967-22.967c0-4.408,3.573-7.98,7.98-7.98
		c4.408,0,7.98,3.572,7.98,7.98c0,3.864,3.142,7.006,7.006,7.006c3.864,0,7.006-3.142,7.006-7.006c0-4.408,3.572-7.98,7.98-7.98
		c4.407,0,7.98,3.572,7.98,7.98C293.952,238.127,283.649,248.43,270.986,248.43z"/>
</g>
<path d="M285.972,217.484c-4.408,0-7.98,3.572-7.98,7.98c0,3.864-3.142,7.006-7.006,7.006s-7.006-3.142-7.006-7.006
	c0-4.408-3.572-7.98-7.98-7.98s-7.98,3.572-7.98,7.98c0,3.864-3.142,7.006-7.006,7.006c-3.864,0-7.008-3.142-7.008-7.006
	c0-4.408-3.572-7.98-7.98-7.98c-4.408,0-7.98,3.572-7.98,7.98c0,12.662,10.304,22.967,22.969,22.967
	c5.728,0,10.959-2.122,14.986-5.603c4.026,3.481,9.258,5.603,14.986,5.603c12.663,0,22.967-10.304,22.967-22.967
	C293.952,221.056,290.379,217.484,285.972,217.484z M312.968,355.525c11.693-9.313,23.785-18.943,34.24-29.397
	c24.384-24.369,37.812-56.777,37.812-91.254c0-62.356-44.465-114.519-103.351-126.455c6.816-21.732,25.236-26.579,40.277-26.579
	c22.562,0,40.918-18.357,40.918-40.921C362.866,18.357,344.51,0,321.947,0c-23.179,0-42.242,10.784-55.127,31.187
	c-4.37,6.921-7.968,14.851-10.821,23.713c-2.854-8.861-6.451-16.792-10.821-23.713C232.295,10.784,213.232,0,190.052,0
	c-22.563,0-40.919,18.357-40.919,40.921s18.356,40.921,40.919,40.921c15.043,0,33.459,4.845,40.277,26.579
	c-58.887,11.936-103.351,64.099-103.351,126.455c0,34.476,13.428,66.884,37.811,91.252c10.455,10.455,22.546,20.086,34.241,29.399
	c14.114,11.24,33.441,26.63,33.441,33.346v3.67c-7.06,3.554-15.819,2.298-21.595-3.477c-9.173-9.171-24.099-9.171-33.273,0
	c-4.445,4.444-6.892,10.352-6.892,16.637c0,6.286,2.447,12.195,6.892,16.639c12.396,12.396,28.904,19.223,46.479,19.223
	c1.565,0,3.126-0.054,4.683-0.166c-3.402,4.557-8.839,7.479-14.97,7.479c-12.973,0-23.527,10.553-23.527,23.527
	c0,12.972,10.554,23.527,23.527,23.527c6.477,0,12.94-0.975,19.128-2.86c2.145,10.78,11.678,18.929,23.077,18.929
	c12.973,0,23.527-10.553,23.527-23.527v-28.212c2.772,0.353,5.569,0.532,8.376,0.532h0.013c17.558,0,34.066-6.838,46.48-19.253
	c9.172-9.173,9.172-24.099,0-33.274c-9.171-9.169-24.096-9.173-33.274,0c-3.528,3.528-8.218,5.471-13.206,5.471
	c-2.967,0-5.813-0.678-8.388-1.98v-22.886C279.527,382.155,298.854,366.764,312.968,355.525z M321.947,15.961
	c13.763,0,24.958,11.197,24.958,24.96s-11.195,24.96-24.958,24.96c-28.729,0-49.257,14.928-56.233,40.336
	c-0.534-0.041-1.072-0.07-1.608-0.104C265.807,48.702,286.664,15.961,321.947,15.961z M190.052,65.88
	c-13.763,0-24.959-11.198-24.959-24.96s11.197-24.96,24.959-24.96c35.282,0,56.14,32.741,57.839,90.152
	c-0.536,0.033-1.074,0.063-1.609,0.104C239.309,80.808,218.78,65.88,190.052,65.88z M287.915,429.697
	c9.252,0,17.951-3.604,24.491-10.146c2.953-2.948,7.753-2.948,10.703-0.002c2.951,2.952,2.952,7.752,0,10.703
	c-9.4,9.402-21.898,14.579-35.194,14.579h-0.011c-4.786,0-9.533-0.682-14.108-2.026c-2.413-0.709-5.018-0.239-7.031,1.267
	c-2.013,1.507-3.199,3.874-3.199,6.389v38.011c0,4.173-3.394,7.566-7.567,7.566c-4.173,0-7.567-3.394-7.567-7.566v-7.069
	c0-2.791-1.459-5.381-3.847-6.825c-2.386-1.446-5.356-1.542-7.831-0.247c-7.155,3.743-14.879,5.638-22.958,5.638
	c-4.172,0-7.567-3.393-7.567-7.567s3.394-7.567,7.567-7.567c18.683,0,33.884-14.622,34.604-33.291
	c0.1-2.566-1.043-5.023-3.069-6.602c-2.024-1.579-4.685-2.087-7.152-1.363c-4.579,1.343-9.321,2.022-14.098,2.022
	c-13.312,0-25.811-5.166-35.194-14.55c-1.429-1.43-2.215-3.329-2.215-5.351c0-2.02,0.786-3.921,2.215-5.349
	c2.951-2.951,7.752-2.951,10.703,0c12.336,12.335,32.01,13.552,45.766,2.833c1.94-1.513,3.075-3.834,3.075-6.295v-0.037h15.134
	v19.242c0,2.457,1.131,4.776,3.067,6.286C272.757,427.166,280.116,429.697,287.915,429.697z M265.279,380.89h-18.558
	c-4.9-11.694-19.786-23.549-37.746-37.851c-11.347-9.036-23.079-18.38-32.901-28.2c-21.367-21.356-33.135-49.755-33.135-79.964
	c0-62.343,50.719-113.063,113.061-113.063c62.342,0,113.061,50.719,113.061,113.063c0,30.21-11.767,58.608-33.137,79.966
	c-9.818,9.818-21.551,19.162-32.899,28.198C285.064,357.341,270.178,369.196,265.279,380.89z M330.155,228.43
	c8.325,0,15.076-6.75,15.076-15.078c0-8.325-6.75-15.076-15.076-15.076c-8.327,0-15.076,6.75-15.076,15.076
	C315.079,221.68,321.828,228.43,330.155,228.43z M181.843,198.277c-8.325,0-15.076,6.75-15.076,15.076
	c0,8.327,6.75,15.078,15.076,15.078s15.076-6.75,15.076-15.078C196.919,205.027,190.169,198.277,181.843,198.277z"/>
<g>
</g>
<g>
</g>
<g>
</g>
<g>
</g>
<g>
</g>
<g>
</g>
<g>
</g>
<g>
</g>
<g>
</g>
<g>
</g>
<g>
</g>
<g>
</g>
<g>
</g>
<g>
</g>
<g>
</g>
</svg>
