<?xml version="1.0" encoding="iso-8859-1"?>
<!-- Generator: Adobe Illustrator 19.0.0, SVG Export Plug-In . SVG Version: 6.00 Build 0)  -->
<svg version="1.1" id="Layer_1" xmlns="http://www.w3.org/2000/svg" xmlns:xlink="http://www.w3.org/1999/xlink" x="0px" y="0px"
	 viewBox="0 0 512 512" style="enable-background:new 0 0 512 512;" xml:space="preserve">
<g>
	<path style="fill:#FDBA55;" d="M255.999,508.02c-4.397,0-7.961-3.564-7.961-7.961v-63.684c0-4.396,3.563-7.961,7.961-7.961
		c4.397,0,7.961,3.564,7.961,7.961v63.684C263.96,504.456,260.397,508.02,255.999,508.02z"/>
	<path style="fill:#FDBA55;" d="M210.967,489.367c-2.038,0-4.075-0.777-5.63-2.332c-3.109-3.109-3.109-8.149,0-11.257l45.032-45.031
		c3.11-3.11,8.149-3.109,11.258,0c3.109,3.109,3.109,8.149,0,11.258l-45.032,45.031
		C215.042,488.589,213.004,489.367,210.967,489.367z"/>
	<path style="fill:#FDBA55;" d="M231.233,503.01c-1.033,0-2.081-0.202-3.092-0.628c-4.05-1.709-5.948-6.379-4.239-10.429
		l24.763-58.672c1.71-4.05,6.379-5.947,10.429-4.238c4.05,1.709,5.948,6.379,4.239,10.429l-24.763,58.672
		C237.287,501.182,234.337,503.01,231.233,503.01z"/>
	<path style="fill:#FDBA55;" d="M301.032,489.367c-2.037,0-4.075-0.777-5.63-2.332l-45.032-45.031
		c-3.109-3.109-3.109-8.149,0-11.258c3.11-3.109,8.149-3.109,11.258,0l45.032,45.031c3.109,3.109,3.109,8.149,0,11.257
		C305.106,488.589,303.068,489.367,301.032,489.367z"/>
	<path style="fill:#FDBA55;" d="M280.766,503.01c-3.105,0-6.054-1.828-7.337-4.867l-24.763-58.672
		c-1.709-4.05,0.189-8.721,4.239-10.429c4.047-1.709,8.719,0.188,10.429,4.238l24.763,58.672c1.709,4.05-0.189,8.72-4.239,10.429
		C282.848,502.808,281.798,503.01,280.766,503.01z"/>
</g>
<path style="fill:#C3DDF7;" d="M346.42,232.2c-10.134-10.133-18.429-19.65-24.858-30.32H190.435
	c-6.429,10.671-14.725,20.187-24.858,30.32c-23.181,23.157-37.521,55.16-37.521,90.514c0,70.66,57.282,127.941,127.942,127.941
	S383.94,393.373,383.94,322.715C383.941,287.36,369.602,255.357,346.42,232.2z"/>
<path style="fill:#46C79C;" d="M305.179,129.314V25.982c0-5.191-4.248-9.439-9.44-9.439H216.26c-5.192,0-9.439,4.248-9.439,9.439
	v103.332c0,33.207-5.524,54.537-16.386,72.566h131.127C310.702,183.851,305.179,162.521,305.179,129.314z"/>
<path style="fill:#6CF5C5;" d="M278.043,201.88V13.42c0-5.192-4.248-9.44-9.44-9.44h-25.207c-5.192,0-9.44,4.248-9.44,9.44v188.46
	H278.043z"/>
<circle style="fill:#3F4963;" cx="184.015" cy="314.038" r="15.038"/>
<path style="fill:#FF9596;" d="M200.096,361.821h-32.174c-4.397,0-7.961-3.564-7.961-7.961s3.563-7.961,7.961-7.961h32.174
	c4.397,0,7.961,3.564,7.961,7.961S204.493,361.821,200.096,361.821z"/>
<circle style="fill:#3F4963;" cx="331.953" cy="314.038" r="15.038"/>
<path style="fill:#FF9596;" d="M348.038,361.821h-32.174c-4.397,0-7.961-3.564-7.961-7.961s3.563-7.961,7.961-7.961h32.174
	c4.396,0,7.961,3.564,7.961,7.961S352.434,361.821,348.038,361.821z"/>
<g>
	<path style="fill:#3F4963;" d="M243.031,349.028c-12.633,0-22.91-10.277-22.91-22.908c0-4.396,3.563-7.961,7.961-7.961
		c4.396,0,7.961,3.564,7.961,7.961c0,3.853,3.135,6.987,6.989,6.987c3.854,0,6.988-3.134,6.988-6.987
		c0-4.396,3.563-7.961,7.961-7.961s7.961,3.564,7.961,7.961C265.941,338.751,255.664,349.028,243.031,349.028z"/>
	<path style="fill:#3F4963;" d="M272.93,349.028c-12.633,0-22.91-10.277-22.91-22.908c0-4.396,3.563-7.961,7.961-7.961
		s7.961,3.564,7.961,7.961c0,3.853,3.135,6.987,6.989,6.987c3.854,0,6.988-3.134,6.988-6.987c0-4.396,3.563-7.961,7.961-7.961
		s7.961,3.564,7.961,7.961C295.839,338.751,285.562,349.028,272.93,349.028z"/>
</g>
<path d="M287.879,322.138c-4.397,0-7.961,3.564-7.961,7.961c0,3.853-3.134,6.987-6.988,6.987c-3.854,0-6.989-3.134-6.989-6.987
	c0-4.396-3.563-7.961-7.961-7.961c-4.397,0-7.961,3.564-7.961,7.961c0,3.853-3.134,6.987-6.988,6.987s-6.989-3.134-6.989-6.987
	c0-4.396-3.564-7.961-7.961-7.961c-4.397,0-7.961,3.564-7.961,7.961c0,12.632,10.278,22.908,22.91,22.908
	c5.714,0,10.932-2.116,14.949-5.587c4.016,3.472,9.236,5.587,14.95,5.587c12.632,0,22.909-10.277,22.909-22.908
	C295.839,325.702,292.276,322.138,287.879,322.138z M391.902,326.695c0-36.328-14.154-70.473-39.853-96.144
	c-11.138-11.138-18.217-19.752-23.667-28.799c-10.684-17.735-15.243-38.209-15.243-68.458V29.962c0-9.594-7.806-17.4-17.401-17.4
	h-10.433C283.203,5.317,276.518,0,268.604,0h-25.207c-7.914,0-14.6,5.317-16.701,12.563h-10.434c-9.594,0-17.4,7.806-17.4,17.4
	v103.332c0,30.25-4.559,50.722-15.243,68.458c-5.45,9.045-12.528,17.658-23.666,28.796c-25.701,25.673-39.855,59.82-39.855,96.147
	c0,64.585,45.288,118.787,105.774,132.53l-20.533,20.532c-3.11,3.11-3.11,8.149-0.001,11.258c1.555,1.555,3.592,2.331,5.63,2.331
	c2.037,0,4.075-0.777,5.629-2.331l16.231-16.23l-8.925,21.147c-1.709,4.05,0.189,8.719,4.239,10.429
	c1.01,0.426,2.06,0.628,3.092,0.628c3.105,0,6.054-1.828,7.337-4.868l9.469-22.436v24.352c0,4.396,3.563,7.961,7.961,7.961
	c4.397,0,7.961-3.564,7.961-7.961v-24.352l9.469,22.436c1.283,3.04,4.233,4.868,7.337,4.868c1.033,0,2.081-0.202,3.092-0.628
	c4.05-1.71,5.948-6.379,4.239-10.429l-8.925-21.147l16.231,16.23c1.554,1.555,3.592,2.331,5.629,2.331
	c2.037,0,4.075-0.777,5.63-2.331c3.109-3.11,3.109-8.149-0.001-11.258l-20.533-20.532
	C346.614,445.483,391.902,391.28,391.902,326.695z M255.999,446.676c-66.157,0-119.981-53.824-119.981-119.98
	c0-32.071,12.496-62.217,35.189-84.886c11.943-11.944,19.977-21.764,26.047-31.841c12.286-20.392,17.528-43.322,17.528-76.674
	V29.962c0-0.801,0.677-1.479,1.479-1.479h9.735V205.86h15.921V17.4c0-0.801,0.677-1.479,1.48-1.479h25.207
	c0.802,0,1.48,0.677,1.48,1.479v188.46h15.921V28.484h9.735c0.801,0,1.48,0.677,1.48,1.479v103.332
	c0,33.35,5.242,56.281,17.527,76.674c6.072,10.08,14.105,19.9,26.05,31.844c22.69,22.666,35.186,52.811,35.186,84.883
	C375.981,392.852,322.157,446.676,255.999,446.676z M184.01,302.98c-8.304,0-15.038,6.732-15.038,15.038
	c0,8.307,6.734,15.039,15.038,15.039c8.305,0,15.038-6.732,15.038-15.039C199.048,309.712,192.315,302.98,184.01,302.98z
	 M331.95,302.98c-8.307,0-15.038,6.732-15.038,15.038c0,8.307,6.731,15.039,15.038,15.039c8.304,0,15.038-6.732,15.038-15.039
	C346.988,309.712,340.256,302.98,331.95,302.98z"/>
<g>
</g>
<g>
</g>
<g>
</g>
<g>
</g>
<g>
</g>
<g>
</g>
<g>
</g>
<g>
</g>
<g>
</g>
<g>
</g>
<g>
</g>
<g>
</g>
<g>
</g>
<g>
</g>
<g>
</g>
</svg>
