<?xml version="1.0" encoding="iso-8859-1"?>
<!-- Generator: Adobe Illustrator 19.0.0, SVG Export Plug-In . SVG Version: 6.00 Build 0)  -->
<svg version="1.1" id="Layer_1" xmlns="http://www.w3.org/2000/svg" xmlns:xlink="http://www.w3.org/1999/xlink" x="0px" y="0px"
	 viewBox="0 0 512.002 512.002" style="enable-background:new 0 0 512.002 512.002;" xml:space="preserve">
<path style="fill:#9090B5;" d="M315.73,8.036c-20.076,0-36.352,16.277-36.352,36.353v31.496c0,20.076,16.274,36.351,36.352,36.351
	c20.076,0,36.352-16.274,36.352-36.351V44.389C352.082,24.313,335.807,8.036,315.73,8.036z M315.73,57.21
	c-7.081,0-12.821-5.741-12.821-12.821s5.74-12.821,12.821-12.821c7.081,0,12.821,5.74,12.821,12.821S322.812,57.21,315.73,57.21z"/>
<path style="fill:#FF6376;" d="M371.333,114.298c-1.843-5.356-7.986-9.738-13.651-9.738h-203.37c-5.665,0-11.807,4.383-13.65,9.738
	l-10.037,29.168c-1.844,5.356-3.352,14.371-3.352,20.037v266.341c0,5.665,1.508,14.681,3.352,20.037l10.037,29.168
	c1.843,5.358,7.986,9.74,13.65,9.74h203.369c5.665,0,11.809-4.383,13.651-9.74l10.037-29.168c1.843-5.356,3.352-14.371,3.352-20.037
	V163.503c0-5.665-1.509-14.681-3.352-20.037L371.333,114.298z"/>
<g>
	<circle style="fill:#FFFFFF;" cx="256.451" cy="350.006" r="33.645"/>
	<circle style="fill:#FFFFFF;" cx="296.901" cy="277.431" r="17.528"/>
</g>
<path style="fill:#FFD553;" d="M131.118,451.315l9.544,27.734c1.843,5.358,7.986,9.74,13.65,9.74h64.118
	c66.692-44.569,143.538-106.622,166.291-188.632v-93.56C350.028,331.652,189.547,410.299,131.118,451.315z"/>
<path style="fill:#FFB446;" d="M286.323,377.014c-45.348,38.811-94.98,69.815-134.859,94.727c-3.76,2.348-7.412,4.63-10.959,6.855
	l0.156,0.453c1.843,5.358,7.986,9.74,13.65,9.74h0.2c1.798-1.124,3.619-2.261,5.467-3.416
	c40.335-25.197,90.531-56.553,136.794-96.147c38.583-33.019,67.659-66.002,87.948-99.86v-34.529
	C365.927,296.434,333.596,336.556,286.323,377.014z"/>
<path style="fill:#C3DDF7;" d="M376.224,119.735c8.38,0,15.175-6.794,15.175-15.175c0-8.379-6.795-15.173-15.175-15.173H135.777
	c-8.38,0-15.175,6.794-15.175,15.173c0,8.382,6.794,15.175,15.175,15.175C135.777,119.735,376.224,119.735,376.224,119.735z"/>
<path style="fill:#9090B5;" d="M376.224,473.613c8.38,0,15.175,6.796,15.175,15.177c0,8.377-6.795,15.173-15.175,15.173H135.777
	c-8.38,0-15.175-6.796-15.175-15.173c0-8.382,6.794-15.177,15.175-15.177H376.224z"/>
<circle style="fill:#3F4963;" cx="181.325" cy="179.085" r="15.181"/>
<path style="fill:#FF9596;" d="M197.564,227.324h-32.481c-4.438,0-8.036-3.597-8.036-8.036c0-4.439,3.598-8.036,8.036-8.036h32.481
	c4.438,0,8.036,3.597,8.036,8.036C205.601,223.726,202.003,227.324,197.564,227.324z"/>
<g>
	<path style="fill:#3F4963;" d="M240.909,214.41c-12.753,0-23.13-10.376-23.13-23.128c0-4.439,3.598-8.036,8.036-8.036
		c4.438,0,8.036,3.597,8.036,8.036c0,3.891,3.166,7.055,7.057,7.055c3.89,0,7.055-3.164,7.055-7.055
		c0-4.439,3.598-8.036,8.036-8.036c4.439,0,8.036,3.597,8.036,8.036C264.037,204.034,253.662,214.41,240.909,214.41z"/>
	<path style="fill:#3F4963;" d="M271.092,214.41c-12.752,0-23.128-10.376-23.128-23.128c0-4.439,3.598-8.036,8.036-8.036
		c4.439,0,8.036,3.597,8.036,8.036c0,3.891,3.164,7.055,7.055,7.055c3.891,0,7.055-3.164,7.055-7.055
		c0-4.439,3.597-8.036,8.036-8.036c4.438,0,8.036,3.597,8.036,8.036C294.22,204.034,283.845,214.41,271.092,214.41z"/>
</g>
<path style="fill:#FF9596;" d="M346.909,227.324h-32.473c-4.439,0-8.036-3.597-8.036-8.036c0-4.439,3.597-8.036,8.036-8.036h32.473
	c4.439,0,8.036,3.597,8.036,8.036C354.946,223.726,351.349,227.324,346.909,227.324z"/>
<path style="fill:#3F4963;" d="M345.851,190.54c-4.439,0-8.036-3.597-8.036-8.036c0-3.938-3.203-7.141-7.141-7.141
	s-7.141,3.203-7.141,7.141c0,4.439-3.597,8.036-8.036,8.036c-4.439,0-8.036-3.597-8.036-8.036c0-12.799,10.414-23.214,23.214-23.214
	s23.214,10.414,23.214,23.214C353.887,186.943,350.289,190.54,345.851,190.54z"/>
<g>
	<path style="fill:#FFFFFF;" d="M160.794,391.865c-4.438,0-8.036-3.597-8.036-8.036v-57.195c0-4.439,3.598-8.036,8.036-8.036
		s8.036,3.597,8.036,8.036v57.195C168.83,388.268,165.232,391.865,160.794,391.865z"/>
	<path style="fill:#FFFFFF;" d="M183.741,391.865c-4.438,0-8.036-3.597-8.036-8.036v-31.753c0-4.439,3.598-8.036,8.036-8.036
		c4.438,0,8.036,3.597,8.036,8.036v31.753C191.777,388.268,188.179,391.865,183.741,391.865z"/>
</g>
<path d="M384.004,466.923l4.965-14.426c2.125-6.176,3.789-16.125,3.789-22.653v-266.34c0-6.526-1.664-16.477-3.789-22.651
	l-4.964-14.426c8.983-3.206,15.43-11.795,15.43-21.866c0-12.797-10.413-23.209-23.212-23.209h-16.45
	c0.221-1.804,0.344-3.627,0.344-5.467V44.389C360.118,19.913,340.206,0,315.73,0c-24.476,0-44.388,19.913-44.388,44.389v31.496
	c0,1.84,0.123,3.662,0.344,5.467H135.778c-12.799,0-23.212,10.412-23.212,23.209c0,10.068,6.445,18.655,15.425,21.864l-4.964,14.426
	c-2.124,6.172-3.789,16.123-3.789,22.653v266.341c0,6.532,1.665,16.481,3.789,22.653l4.965,14.428
	c-8.979,3.208-15.426,11.798-15.426,21.866c0,12.797,10.412,23.209,23.212,23.209h240.447c12.798,0,23.212-10.412,23.212-23.209
	C399.436,478.72,392.988,470.129,384.004,466.923z M287.416,44.389c0-15.612,12.703-28.316,28.315-28.316
	c15.612,0,28.315,12.703,28.315,28.316v31.496c0,1.853-0.178,3.68-0.526,5.467h-55.577c-0.348-1.787-0.526-3.612-0.526-5.467V44.389
	H287.416z M376.224,495.927H135.778c-3.937,0-7.139-3.2-7.139-7.136s3.202-7.141,7.139-7.141h240.447
	c3.937,0,7.139,3.204,7.139,7.141S380.16,495.927,376.224,495.927z M237.893,465.577h-93.367l-3.819-11.098
	c9.137-6.166,20.31-13.146,32.939-21.035c37.051-23.147,83.164-51.952,124.925-88.858c35.647-31.503,61.467-63.082,78.115-95.651
	v50.072C360.58,355.787,315.155,410.303,237.893,465.577z M376.685,342.282v87.562c0,4.769-1.362,12.911-2.915,17.423l-6.302,18.31
	H264.998c27.442-20.871,50.062-41.313,68.744-62.084C351.708,383.519,366.049,363.043,376.685,342.282z M230.84,350.011
	c0-14.121,11.489-25.608,25.609-25.608c10.289,0,19.33,6.04,23.379,15.142c-12.846,10.889-26.059,21.06-39.233,30.565
	C234.497,365.296,230.84,357.936,230.84,350.011z M292.276,328.651c-7.345-12.377-20.773-20.322-35.827-20.322
	c-22.983,0-41.682,18.697-41.682,41.681c0,11.293,4.562,21.885,12.352,29.603c-21.792,15.074-43.089,28.391-61.989,40.198
	c-10.818,6.758-20.578,12.856-29.013,18.413c-0.494-3.054-0.807-6.1-0.807-8.379V163.503c0-4.772,1.362-12.911,2.915-17.421
	l6.301-18.31h222.946l6.301,18.31c1.553,4.512,2.915,12.654,2.915,17.421v41.957C364.688,247.77,337.052,288.124,292.276,328.651z
	 M376.224,111.699H135.778c-3.937,0-7.139-3.202-7.139-7.139c0-3.935,3.202-7.136,7.139-7.136h240.447
	c3.937,0,7.139,3.202,7.139,7.136C383.363,108.497,380.16,111.699,376.224,111.699z M315.73,65.247
	c11.501,0,20.857-9.356,20.857-20.857c0-11.5-9.356-20.857-20.857-20.857c-11.502,0-20.857,9.357-20.857,20.857
	C294.874,55.891,304.229,65.247,315.73,65.247z M315.73,39.605c2.638,0,4.784,2.147,4.784,4.784c0,2.639-2.146,4.784-4.784,4.784
	c-2.638,0-4.784-2.145-4.784-4.784C310.947,41.752,313.093,39.605,315.73,39.605z M181.324,163.903
	c-8.384,0-15.181,6.798-15.181,15.181c0,8.386,6.798,15.184,15.181,15.184s15.181-6.798,15.181-15.184
	C196.506,170.701,189.708,163.903,181.324,163.903z M294.22,191.282c0-4.439-3.598-8.036-8.036-8.036
	c-4.439,0-8.036,3.597-8.036,8.036c0,3.891-3.164,7.055-7.055,7.055c-3.891,0-7.055-3.164-7.055-7.055
	c0-4.439-3.597-8.036-8.036-8.036s-8.036,3.597-8.036,8.036c0,3.891-3.164,7.055-7.055,7.055s-7.057-3.164-7.057-7.055
	c0-4.439-3.597-8.036-8.036-8.036c-4.439,0-8.036,3.597-8.036,8.036c0,12.753,10.377,23.128,23.13,23.128
	c5.768,0,11.036-2.137,15.091-5.641c4.055,3.503,9.323,5.641,15.091,5.641C283.845,214.41,294.22,204.035,294.22,191.282z
	 M296.899,251.865c-14.097,0-25.566,11.469-25.566,25.566s11.469,25.566,25.566,25.566s25.566-11.469,25.566-25.566
	C322.466,263.334,310.996,251.865,296.899,251.865z M296.899,286.924c-5.234,0-9.493-4.259-9.493-9.493
	c0-5.234,4.259-9.493,9.493-9.493c5.234,0,9.493,4.259,9.493,9.493C306.393,282.665,302.133,286.924,296.899,286.924z
	 M330.674,159.29c-12.799,0-23.214,10.414-23.214,23.214c0,4.439,3.597,8.036,8.036,8.036c4.439,0,8.036-3.597,8.036-8.036
	c0-3.937,3.203-7.141,7.141-7.141s7.141,3.204,7.141,7.141c0,4.439,3.597,8.036,8.036,8.036c4.438,0,8.036-3.597,8.036-8.036
	C353.887,169.704,343.473,159.29,330.674,159.29z"/>
<g>
</g>
<g>
</g>
<g>
</g>
<g>
</g>
<g>
</g>
<g>
</g>
<g>
</g>
<g>
</g>
<g>
</g>
<g>
</g>
<g>
</g>
<g>
</g>
<g>
</g>
<g>
</g>
<g>
</g>
</svg>
