<?xml version="1.0" encoding="iso-8859-1"?>
<!-- Generator: Adobe Illustrator 19.0.0, SVG Export Plug-In . SVG Version: 6.00 Build 0)  -->
<svg version="1.1" id="Layer_1" xmlns="http://www.w3.org/2000/svg" xmlns:xlink="http://www.w3.org/1999/xlink" x="0px" y="0px"
	 viewBox="0 0 512 512" style="enable-background:new 0 0 512 512;" xml:space="preserve">
<g>
	<path style="fill:#46C79C;" d="M172.665,137.409c23.262,23.263,58.85,27.671,75.766,28.395c7.322,0.312,9.829-2.261,9.521-9.519
		c-0.722-16.918-5.134-52.508-28.395-75.769c-23.258-23.262-58.85-27.671-75.769-28.393c-7.257-0.31-9.829,2.202-9.516,9.518
		C144.993,78.559,149.407,114.15,172.665,137.409z"/>
	<path style="fill:#46C79C;" d="M282.435,79.364c-23.262,23.26-27.671,58.849-28.395,75.766c-0.311,7.319,2.26,9.829,9.519,9.518
		c16.917-0.725,52.509-5.132,75.767-28.392c23.264-23.26,27.674-58.85,28.398-75.77c0.307-7.256-2.203-9.829-9.52-9.518
		C341.286,51.69,305.694,56.104,282.435,79.364z"/>
</g>
<path style="fill:#6CF5C5;" d="M215.529,85.652c0,32.895,22.046,61.18,33.498,73.654c4.953,5.394,8.549,5.351,13.461-0.001
	c11.451-12.473,33.499-40.758,33.498-73.653c0.001-32.895-22.045-61.18-33.498-73.654c-4.91-5.351-8.508-5.394-13.461,0.001
	C237.574,24.471,215.529,52.758,215.529,85.652z"/>
<path style="fill:#FF6376;" d="M433.899,294.316c0-98.252-79.649-177.9-177.9-177.9s-177.9,79.648-177.9,177.9
	c0,98.25,110.23,209.715,177.9,209.715S433.899,392.567,433.899,294.316z"/>
<g>
	<path style="fill:#FBD151;" d="M185.873,413.946c-4.402,0-7.969-3.568-7.969-7.969v-8.538c0-4.401,3.567-7.969,7.969-7.969
		c4.402,0,7.969,3.568,7.969,7.969v8.538C193.842,410.378,190.275,413.946,185.873,413.946z"/>
	<path style="fill:#FBD151;" d="M198.623,235.619c-4.402,0-7.969-3.568-7.969-7.969v-8.538c0-4.401,3.567-7.969,7.969-7.969
		s7.969,3.568,7.969,7.969v8.538C206.592,232.051,203.025,235.619,198.623,235.619z"/>
	<path style="fill:#FBD151;" d="M157.895,202.081c-4.402,0-7.969-3.568-7.969-7.969v-8.538c0-4.401,3.567-7.969,7.969-7.969
		c4.402,0,7.969,3.568,7.969,7.969v8.538C165.864,198.513,162.296,202.081,157.895,202.081z"/>
	<path style="fill:#FBD151;" d="M301.966,220.706c-4.402,0-7.969-3.568-7.969-7.969v-8.538c0-4.401,3.567-7.969,7.969-7.969
		s7.969,3.568,7.969,7.969v8.538C309.935,217.138,306.367,220.706,301.966,220.706z"/>
	<path style="fill:#FBD151;" d="M358.832,213.249c-4.402,0-7.969-3.568-7.969-7.969v-8.538c0-4.401,3.567-7.969,7.969-7.969
		s7.969,3.568,7.969,7.969v8.538C366.801,209.681,363.234,213.249,358.832,213.249z"/>
	<path style="fill:#FBD151;" d="M266.979,167.274c-4.402,0-7.969-3.568-7.969-7.969v-8.538c0-4.401,3.567-7.969,7.969-7.969
		c4.402,0,7.969,3.568,7.969,7.969v8.538C274.948,163.706,271.381,167.274,266.979,167.274z"/>
	<path style="fill:#FBD151;" d="M145.498,380.228c-4.402,0-7.969-3.568-7.969-7.969v-8.538c0-4.401,3.567-7.969,7.969-7.969
		c4.402,0,7.969,3.568,7.969,7.969v8.538C153.467,376.661,149.9,380.228,145.498,380.228z"/>
	<path style="fill:#FBD151;" d="M306.216,365.799c-4.402,0-7.969-3.568-7.969-7.969v-8.538c0-4.401,3.567-7.969,7.969-7.969
		s7.969,3.568,7.969,7.969v8.538C314.185,362.231,310.617,365.799,306.216,365.799z"/>
	<path style="fill:#FBD151;" d="M358.832,399.034c-4.402,0-7.969-3.568-7.969-7.969v-8.538c0-4.401,3.567-7.969,7.969-7.969
		s7.969,3.568,7.969,7.969v8.538C366.801,395.466,363.234,399.034,358.832,399.034z"/>
	<path style="fill:#FBD151;" d="M221.999,465.865c-4.402,0-7.969-3.568-7.969-7.969v-8.538c0-4.401,3.567-7.969,7.969-7.969
		s7.969,3.568,7.969,7.969v8.538C229.967,462.297,226.401,465.865,221.999,465.865z"/>
	<path style="fill:#FBD151;" d="M255.996,413.946c-4.402,0-7.969-3.568-7.969-7.969v-8.538c0-4.401,3.567-7.969,7.969-7.969
		c4.402,0,7.969,3.568,7.969,7.969v8.538C263.965,410.378,260.398,413.946,255.996,413.946z"/>
	<path style="fill:#FBD151;" d="M294.806,451.435c-4.402,0-7.969-3.568-7.969-7.969v-8.538c0-4.401,3.567-7.969,7.969-7.969
		s7.969,3.568,7.969,7.969v8.538C302.775,447.868,299.208,451.435,294.806,451.435z"/>
</g>
<g>
	<circle style="fill:#3F4963;" cx="136.425" cy="265.372" r="15.497"/>
	<circle style="fill:#3F4963;" cx="375.585" cy="265.372" r="15.496"/>
</g>
<g>
	<path style="fill:#FF9596;" d="M152.997,318.941h-33.152c-4.402,0-7.969-3.568-7.969-7.969s3.567-7.969,7.969-7.969h33.152
		c4.402,0,7.969,3.568,7.969,7.969S157.398,318.941,152.997,318.941z"/>
	<path style="fill:#FF9596;" d="M392.162,318.941h-33.152c-4.402,0-7.969-3.568-7.969-7.969s3.567-7.969,7.969-7.969h33.152
		c4.402,0,7.969,3.568,7.969,7.969S396.564,318.941,392.162,318.941z"/>
</g>
<g>
	<path style="fill:#3F4963;" d="M236.601,308.233c-15.092,0-27.371-12.278-27.371-27.369c0-4.401,3.567-7.969,7.969-7.969
		c4.402,0,7.969,3.568,7.969,7.969c0,6.304,5.129,11.432,11.434,11.432s11.434-5.129,11.434-11.432c0-4.401,3.567-7.969,7.969-7.969
		s7.969,3.568,7.969,7.969C263.972,295.956,251.693,308.233,236.601,308.233z"/>
	<path style="fill:#3F4963;" d="M275.405,308.233c-15.092,0-27.37-12.278-27.37-27.369c0-4.401,3.567-7.969,7.969-7.969
		s7.969,3.568,7.969,7.969c0,6.304,5.129,11.432,11.433,11.432c6.305,0,11.434-5.129,11.434-11.432c0-4.401,3.567-7.969,7.969-7.969
		s7.969,3.568,7.969,7.969C302.775,295.956,290.497,308.233,275.405,308.233z"/>
</g>
<path d="M351.883,135.144c10.189-13.189,22.237-36.348,23.801-73.161c0.095-2.217,0.384-8.965-4.237-13.587
	c-4.14-4.14-9.737-4.403-13.579-4.234c-13.117,0.56-36.726,3.232-58.286,14.326c-4.583-14.753-13.667-32.757-31.223-51.876
	c-2.604-2.837-6.743-6.61-12.596-6.611c0,0-0.001,0-0.002,0c-6.534,0-11.103,4.976-12.604,6.609
	c-17.473,19.026-26.558,36.953-31.161,51.667c-21.448-10.914-44.835-13.559-57.864-14.115c-3.853-0.167-9.444,0.095-13.581,4.234
	c-4.622,4.622-4.332,11.37-4.237,13.584c1.565,36.815,13.613,59.975,23.801,73.164c-53.885,32.582-89.984,91.739-89.984,159.172
	c0,46.955,23.915,100.543,65.611,147.024C174.842,484.924,220.922,512,256,512s81.158-27.076,120.258-70.661
	c41.697-46.479,65.611-100.067,65.611-147.024C441.868,226.883,405.768,167.726,351.883,135.144z M303.955,85.652
	c0-3.061-0.199-6.763-0.765-10.986c19.714-11.41,42.852-14.047,55.359-14.582c0.494-0.022,0.897-0.022,1.224-0.012
	c0.011,0.327,0.01,0.733-0.012,1.23c-1.504,35.391-13.918,56.132-22.097,66.076c-12.089-5.938-24.913-10.6-38.296-13.811
	C302.414,104.123,303.956,94.766,303.955,85.652z M254.897,17.389c0.336-0.367,0.623-0.653,0.862-0.878
	c0.239,0.224,0.525,0.511,0.861,0.877c28.34,30.864,31.399,58.02,31.399,68.264c0.001,8.019-1.509,16.353-4.446,24.843
	c-8.999-1.344-18.206-2.049-27.573-2.049c-9.528,0-18.887,0.724-28.033,2.112c-2.95-8.512-4.468-16.867-4.468-24.907
	C223.498,75.407,226.558,48.248,254.897,17.389z M152.236,61.3c-0.021-0.495-0.022-0.901-0.012-1.227
	c0.329-0.011,0.731-0.01,1.226,0.012c12.411,0.53,35.292,3.137,54.907,14.329c-0.593,4.329-0.798,8.117-0.798,11.239
	c0,9.149,1.556,18.542,4.623,28.025c-13.221,3.208-25.894,7.829-37.85,13.702C166.153,117.435,153.741,96.694,152.236,61.3z
	 M364.394,430.697c-35.623,39.708-78.17,65.366-108.395,65.366c-30.224,0-72.771-25.658-108.395-65.366
	c-38.532-42.952-61.536-93.935-61.536-136.381c0-93.701,76.231-169.931,169.931-169.931S425.93,200.616,425.93,294.316
	C425.93,336.76,402.925,387.744,364.394,430.697z M136.422,249.878c-8.56,0-15.497,6.937-15.497,15.495
	c0,8.56,6.937,15.497,15.497,15.497c8.557,0,15.496-6.938,15.496-15.497C151.918,256.815,144.979,249.878,136.422,249.878z
	 M294.806,272.895c-4.402,0-7.969,3.568-7.969,7.969c0,6.304-5.129,11.432-11.434,11.432c-6.304,0-11.433-5.129-11.433-11.432
	c0-4.401-3.567-7.969-7.969-7.969s-7.969,3.568-7.969,7.969c0,6.304-5.129,11.432-11.434,11.432s-11.434-5.129-11.434-11.432
	c0-4.401-3.567-7.969-7.969-7.969c-4.402,0-7.969,3.568-7.969,7.969c0,15.092,12.279,27.369,27.371,27.369
	c7.576,0,14.442-3.095,19.402-8.085c4.96,4.99,11.826,8.085,19.401,8.085c15.092,0,27.371-12.278,27.371-27.369
	C302.775,276.463,299.208,272.895,294.806,272.895z M375.585,249.878c-8.559,0-15.496,6.937-15.496,15.495
	c0,8.56,6.937,15.497,15.496,15.497c8.559,0,15.496-6.938,15.496-15.497C391.081,256.815,384.143,249.878,375.585,249.878z"/>
<g>
</g>
<g>
</g>
<g>
</g>
<g>
</g>
<g>
</g>
<g>
</g>
<g>
</g>
<g>
</g>
<g>
</g>
<g>
</g>
<g>
</g>
<g>
</g>
<g>
</g>
<g>
</g>
<g>
</g>
</svg>
