<?xml version="1.0" encoding="iso-8859-1"?>
<!-- Generator: Adobe Illustrator 19.0.0, SVG Export Plug-In . SVG Version: 6.00 Build 0)  -->
<svg version="1.1" id="Layer_1" xmlns="http://www.w3.org/2000/svg" xmlns:xlink="http://www.w3.org/1999/xlink" x="0px" y="0px"
	 viewBox="0 0 512 512" style="enable-background:new 0 0 512 512;" xml:space="preserve">
<path style="fill:#866539;" d="M105.668,475.518c-30.024,0-54.45-24.427-54.45-54.451V203.261
	c-26.512-16.01-43.286-44.87-43.286-76.896c0-49.563,40.322-89.885,89.885-89.885h115.729c14.974,0,29.511,3.699,42.455,10.648
	c12.942-6.947,27.48-10.648,42.455-10.648h115.729c49.563,0,89.885,40.322,89.885,89.885c0,32.025-16.774,60.886-43.286,76.896
	v217.807c0,30.024-24.427,54.451-54.45,54.451H105.668V475.518z"/>
<path style="fill:#FDBA55;" d="M414.184,63.706H298.454c-16.383,0-31.29,6.294-42.455,16.587
	c-11.165-10.292-26.071-16.587-42.455-16.587H97.816c-34.607,0-62.66,28.053-62.66,62.66c0,27.843,18.165,51.429,43.286,59.592
	v235.11c0,14.974,12.252,27.225,27.225,27.225h300.665c14.973,0,27.225-12.252,27.225-27.225V185.956
	c25.121-8.161,43.286-31.749,43.286-59.592C476.843,91.76,448.789,63.706,414.184,63.706z"/>
<g>
	<circle style="fill:#3F4963;" cx="145.172" cy="143.691" r="14.362"/>
	<circle style="fill:#3F4963;" cx="366.838" cy="143.691" r="14.362"/>
</g>
<g>
	<path style="fill:#FF6376;" d="M160.536,193.888h-30.728c-4.381,0-7.932-3.551-7.932-7.932s3.55-7.932,7.932-7.932h30.728
		c4.382,0,7.932,3.551,7.932,7.932S164.917,193.888,160.536,193.888z"/>
	<path style="fill:#FF6376;" d="M382.2,193.888h-30.728c-4.382,0-7.932-3.551-7.932-7.932s3.55-7.932,7.932-7.932H382.2
		c4.382,0,7.932,3.551,7.932,7.932S386.58,193.888,382.2,193.888z"/>
</g>
<g>
	<path style="fill:#3F4963;" d="M238.021,183.965c-14.289,0-25.914-11.625-25.914-25.912c0-4.38,3.55-7.932,7.932-7.932
		s7.932,3.551,7.932,7.932c0,5.542,4.508,10.049,10.05,10.049c5.542,0,10.051-4.508,10.051-10.049c0-4.38,3.55-7.932,7.932-7.932
		s7.932,3.551,7.932,7.932C263.935,172.34,252.311,183.965,238.021,183.965z"/>
	<path style="fill:#3F4963;" d="M273.985,183.965c-14.289,0-25.914-11.625-25.914-25.912c0-4.38,3.55-7.932,7.932-7.932
		c4.381,0,7.932,3.551,7.932,7.932c0,5.542,4.508,10.049,10.05,10.049c5.542,0,10.05-4.508,10.05-10.049
		c0-4.38,3.55-7.932,7.932-7.932s7.932,3.551,7.932,7.932C299.899,172.34,288.274,183.965,273.985,183.965z"/>
</g>
<g>
	<path style="fill:#FFD553;" d="M163.956,387.38c-6.17,6.169-16.264,6.169-22.434-0.001l-22.434-22.434
		c-6.17-6.17-6.17-16.265,0-22.434l89.665-89.665c6.169-6.169,16.264-6.169,22.434,0.001l22.434,22.434
		c6.17,6.17,6.169,16.265,0,22.434L163.956,387.38z"/>
	<path style="fill:#FFD553;" d="M303.246,387.38c-6.169,6.169-16.264,6.169-22.434-0.001l-22.434-22.434
		c-6.17-6.17-6.169-16.265,0-22.434l89.665-89.665c6.17-6.169,16.264-6.169,22.434,0.001l22.434,22.434
		c6.17,6.17,6.17,16.265,0,22.434L303.246,387.38z"/>
</g>
<path d="M366.835,129.333c-7.932,0-14.362,6.43-14.362,14.362c0,7.933,6.43,14.363,14.362,14.363c7.932,0,14.362-6.43,14.362-14.363
	C381.197,135.763,374.767,129.333,366.835,129.333z M291.967,150.12c-4.382,0-7.932,3.551-7.932,7.932
	c0,5.542-4.508,10.049-10.05,10.049c-5.542,0-10.05-4.508-10.05-10.049c0-4.38-3.55-7.932-7.932-7.932
	c-4.382,0-7.932,3.551-7.932,7.932c0,5.542-4.509,10.049-10.051,10.049c-5.542,0-10.05-4.508-10.05-10.049
	c0-4.38-3.55-7.932-7.932-7.932s-7.932,3.551-7.932,7.932c0,14.289,11.625,25.912,25.914,25.912c6.98,0,13.319-2.778,17.983-7.28
	c4.664,4.502,11.003,7.28,17.982,7.28c14.289,0,25.913-11.625,25.913-25.912C299.899,153.671,296.349,150.12,291.967,150.12z
	 M145.172,129.333c-7.932,0-14.362,6.43-14.362,14.362c0,7.933,6.43,14.363,14.362,14.363c7.932,0,14.362-6.43,14.362-14.363
	C159.535,135.763,153.104,129.333,145.172,129.333z M414.184,28.55H298.454c-14.693,0-29.282,3.337-42.455,9.682
	c-13.173-6.345-27.762-9.682-42.455-9.682H97.816C43.88,28.55,0,72.429,0,126.366c0,33.061,16.095,63.105,43.286,81.252v213.45
	c0,34.397,27.984,62.383,62.382,62.383h300.665c34.397,0,62.382-27.984,62.382-62.383v-213.45
	C495.905,189.471,512,159.426,512,126.366C512,72.429,468.12,28.55,414.184,28.55z M456.682,196.471
	c-2.378,1.436-3.832,4.012-3.832,6.79v217.807c0,25.65-20.868,46.519-46.518,46.519H105.668c-25.65,0-46.518-20.868-46.518-46.519
	V203.261c0-2.778-1.453-5.354-3.832-6.79c-24.706-14.919-39.455-41.127-39.455-70.106c0-45.189,36.764-81.953,81.953-81.953h115.729
	c13.493,0,26.876,3.356,38.704,9.704c2.342,1.256,5.16,1.256,7.502,0c11.828-6.349,25.21-9.704,38.704-9.704h115.729
	c45.189,0,81.953,36.764,81.953,81.953C496.137,155.345,481.388,181.553,456.682,196.471z M414.184,55.774H298.454
	c-15.426,0-30.259,5-42.455,14.198c-12.195-9.199-27.029-14.198-42.455-14.198H97.816c-38.925,0-70.591,31.667-70.591,70.591
	c0,28.715,17.17,54.189,43.286,65.104v229.598c0,19.386,15.771,35.157,35.157,35.157h300.665c19.385,0,35.157-15.771,35.157-35.157
	V191.47c26.116-10.915,43.286-36.389,43.286-65.104C484.775,87.442,453.107,55.774,414.184,55.774z M431.107,178.414
	c-3.269,1.062-5.481,4.107-5.481,7.544v235.11c0,10.638-8.655,19.293-19.293,19.293H105.668c-10.639,0-19.293-8.655-19.293-19.293
	V185.956c0-3.436-2.212-6.482-5.481-7.544c-22.613-7.347-37.805-28.263-37.805-52.048c0-30.177,24.551-54.728,54.728-54.728h115.729
	c13.777,0,26.946,5.145,37.078,14.487c3.038,2.799,7.715,2.799,10.753,0c10.133-9.341,23.3-14.487,37.078-14.487h115.729
	c30.177,0,54.728,24.55,54.728,54.728C468.912,150.15,453.719,171.067,431.107,178.414z"/>
<g>
</g>
<g>
</g>
<g>
</g>
<g>
</g>
<g>
</g>
<g>
</g>
<g>
</g>
<g>
</g>
<g>
</g>
<g>
</g>
<g>
</g>
<g>
</g>
<g>
</g>
<g>
</g>
<g>
</g>
</svg>
