<?xml version="1.0" encoding="iso-8859-1"?>
<!-- Generator: Adobe Illustrator 19.0.0, SVG Export Plug-In . SVG Version: 6.00 Build 0)  -->
<svg version="1.1" id="Layer_1" xmlns="http://www.w3.org/2000/svg" xmlns:xlink="http://www.w3.org/1999/xlink" x="0px" y="0px"
	 viewBox="0 0 512 512" style="enable-background:new 0 0 512 512;" xml:space="preserve">
<path style="fill:#46C79C;" d="M370.46,389.515c73.738,0,133.514-59.776,133.514-133.515S444.197,122.485,370.46,122.485H141.54
	C67.803,122.485,8.025,182.263,8.025,256S67.803,389.515,141.54,389.515H370.46z"/>
<path style="fill:#FF6376;" d="M34.777,256c0-58.87,47.893-106.763,106.763-106.763h228.92c58.87,0,106.763,47.893,106.763,106.763
	H34.777z"/>
<path style="fill:#FFFFFF;" d="M485.249,256h-16.051c0-54.444-44.294-98.738-98.738-98.738H141.54
	c-54.444,0-98.738,44.294-98.738,98.738H26.751c0-63.295,51.494-114.789,114.789-114.789h228.92
	C433.755,141.211,485.249,192.705,485.249,256z"/>
<g>
	<path style="fill:#6CF5C5;" d="M141.54,389.515h228.92c34.487,0,65.919-13.078,89.611-34.542H51.928
		C75.62,376.436,107.053,389.515,141.54,389.515z"/>
	<path style="fill:#6CF5C5;" d="M8.025,256c0,18.622,3.817,36.353,10.705,52.456h474.54c6.888-16.103,10.705-33.834,10.705-52.456
		H8.025z"/>
</g>
<g>
	<circle style="fill:#3F4963;" cx="143.868" cy="186.884" r="14.531"/>
	<circle style="fill:#3F4963;" cx="368.14" cy="186.884" r="14.531"/>
</g>
<g>
	<path style="fill:#FF9596;" d="M159.41,237.668h-31.09c-4.432,0-8.025-3.593-8.025-8.025c0-4.432,3.593-8.025,8.025-8.025h31.09
		c4.432,0,8.025,3.593,8.025,8.025S163.842,237.668,159.41,237.668z"/>
	<path style="fill:#FF9596;" d="M383.689,237.668h-31.09c-4.432,0-8.025-3.593-8.025-8.025c0-4.432,3.593-8.025,8.025-8.025h31.09
		c4.432,0,8.025,3.593,8.025,8.025S388.121,237.668,383.689,237.668z"/>
</g>
<g>
	<path style="fill:#3F4963;" d="M237.809,227.628c-14.457,0-26.219-11.762-26.219-26.219c0-4.432,3.593-8.025,8.025-8.025
		c4.432,0,8.025,3.593,8.025,8.025c0,5.607,4.562,10.169,10.169,10.169s10.17-4.562,10.17-10.169c0-4.432,3.593-8.025,8.025-8.025
		c4.432,0,8.025,3.593,8.025,8.025C264.03,215.866,252.268,227.628,237.809,227.628z"/>
	<path style="fill:#3F4963;" d="M274.198,227.628c-14.457,0-26.219-11.762-26.219-26.219c0-4.432,3.593-8.025,8.025-8.025
		c4.432,0,8.025,3.593,8.025,8.025c0,5.607,4.562,10.169,10.169,10.169s10.169-4.562,10.169-10.169c0-4.432,3.593-8.025,8.025-8.025
		c4.432,0,8.025,3.593,8.025,8.025C300.418,215.866,288.656,227.628,274.198,227.628z"/>
	<path style="fill:#3F4963;" d="M74.626,237.668c-4.432,0-8.025-3.593-8.025-8.025v-6.079c0-4.432,3.593-8.025,8.025-8.025
		c4.432,0,8.025,3.593,8.025,8.025v6.079C82.652,234.075,79.059,237.668,74.626,237.668z"/>
	<path style="fill:#3F4963;" d="M98.703,212.479c-4.432,0-8.025-3.593-8.025-8.025v-6.079c0-4.432,3.593-8.025,8.025-8.025
		s8.025,3.593,8.025,8.025v6.079C106.728,208.886,103.135,212.479,98.703,212.479z"/>
	<path style="fill:#3F4963;" d="M190.192,186.455c-4.432,0-8.025-3.593-8.025-8.025v-6.079c0-4.432,3.593-8.025,8.025-8.025
		s8.025,3.593,8.025,8.025v6.079C198.217,182.862,194.624,186.455,190.192,186.455z"/>
	<path style="fill:#3F4963;" d="M192.332,235.699c-4.432,0-8.025-3.593-8.025-8.025v-6.079c0-4.432,3.593-8.025,8.025-8.025
		s8.025,3.593,8.025,8.025v6.079C200.357,232.106,196.764,235.699,192.332,235.699z"/>
	<path style="fill:#3F4963;" d="M437.382,237.668c-4.432,0-8.025-3.593-8.025-8.025v-6.079c0-4.432,3.593-8.025,8.025-8.025
		c4.432,0,8.025,3.593,8.025,8.025v6.079C445.408,234.075,441.814,237.668,437.382,237.668z"/>
	<path style="fill:#3F4963;" d="M413.306,212.479c-4.432,0-8.025-3.593-8.025-8.025v-6.079c0-4.432,3.593-8.025,8.025-8.025
		c4.432,0,8.025,3.593,8.025,8.025v6.079C421.331,208.886,417.738,212.479,413.306,212.479z"/>
	<path style="fill:#3F4963;" d="M321.817,186.455c-4.432,0-8.025-3.593-8.025-8.025v-6.079c0-4.432,3.593-8.025,8.025-8.025
		c4.432,0,8.025,3.593,8.025,8.025v6.079C329.842,182.862,326.249,186.455,321.817,186.455z"/>
	<path style="fill:#3F4963;" d="M319.677,235.699c-4.432,0-8.025-3.593-8.025-8.025v-6.079c0-4.432,3.593-8.025,8.025-8.025
		s8.025,3.593,8.025,8.025v6.079C327.702,232.106,324.109,235.699,319.677,235.699z"/>
</g>
<path d="M192.332,213.569c-4.433,0-8.025,3.593-8.025,8.025v6.079c0,4.432,3.592,8.025,8.025,8.025s8.025-3.593,8.025-8.025v-6.079
	C200.357,217.163,196.765,213.569,192.332,213.569z M190.192,186.455c4.433,0,8.025-3.593,8.025-8.025v-6.079
	c0-4.432-3.592-8.025-8.025-8.025s-8.025,3.593-8.025,8.025v6.079C182.167,182.862,185.76,186.455,190.192,186.455z
	 M292.392,193.383c-4.433,0-8.025,3.593-8.025,8.025c0,5.607-4.563,10.169-10.169,10.169s-10.169-4.562-10.169-10.169
	c0-4.432-3.592-8.025-8.025-8.025s-8.025,3.593-8.025,8.025c0,5.607-4.563,10.169-10.17,10.169s-10.169-4.562-10.169-10.169
	c0-4.432-3.593-8.025-8.025-8.025c-4.432,0-8.025,3.593-8.025,8.025c0,14.457,11.762,26.219,26.219,26.219
	c7.062,0,13.476-2.811,18.195-7.366c4.719,4.555,11.133,7.366,18.194,7.366c14.457,0,26.219-11.762,26.219-26.219
	C300.418,196.976,296.825,193.383,292.392,193.383z M98.703,190.35c-4.433,0-8.025,3.593-8.025,8.025v6.079
	c0,4.432,3.592,8.025,8.025,8.025s8.025-3.593,8.025-8.025v-6.079C106.728,193.943,103.136,190.35,98.703,190.35z M143.864,172.351
	c-8.025,0-14.531,6.506-14.531,14.531c0,8.026,6.506,14.532,14.531,14.532c8.025,0,14.531-6.506,14.531-14.532
	C158.395,178.857,151.889,172.351,143.864,172.351z M74.626,215.539c-4.433,0-8.025,3.593-8.025,8.025v6.079
	c0,4.432,3.592,8.025,8.025,8.025s8.025-3.593,8.025-8.025v-6.079C82.652,219.132,79.06,215.539,74.626,215.539z M437.382,215.539
	c-4.433,0-8.025,3.593-8.025,8.025v6.079c0,4.432,3.592,8.025,8.025,8.025s8.025-3.593,8.025-8.025v-6.079
	C445.408,219.132,441.815,215.539,437.382,215.539z M413.306,190.35c-4.433,0-8.025,3.593-8.025,8.025v6.079
	c0,4.432,3.592,8.025,8.025,8.025s8.025-3.593,8.025-8.025v-6.079C421.331,193.943,417.739,190.35,413.306,190.35z M370.46,114.46
	H141.54C63.495,114.46,0,177.955,0,256s63.495,141.54,141.54,141.54h228.92C448.505,397.54,512,334.045,512,256
	S448.506,114.46,370.46,114.46z M141.54,130.511h228.92c66.498,0,121.072,51.995,125.225,117.464H16.315
	C20.468,182.507,75.042,130.511,141.54,130.511z M370.46,381.489H141.54c-66.499,0-121.072-51.995-125.225-117.464h479.37
	C491.532,329.494,436.958,381.489,370.46,381.489z M321.817,164.326c-4.433,0-8.025,3.593-8.025,8.025v6.079
	c0,4.432,3.592,8.025,8.025,8.025s8.025-3.593,8.025-8.025v-6.079C329.842,167.919,326.25,164.326,321.817,164.326z
	 M368.145,172.351c-8.025,0-14.531,6.506-14.531,14.531c0,8.026,6.506,14.532,14.531,14.532s14.531-6.506,14.531-14.532
	C382.676,178.857,376.17,172.351,368.145,172.351z M319.677,213.569c-4.433,0-8.025,3.593-8.025,8.025v6.079
	c0,4.432,3.592,8.025,8.025,8.025s8.025-3.593,8.025-8.025v-6.079C327.702,217.163,324.11,213.569,319.677,213.569z"/>
<g>
</g>
<g>
</g>
<g>
</g>
<g>
</g>
<g>
</g>
<g>
</g>
<g>
</g>
<g>
</g>
<g>
</g>
<g>
</g>
<g>
</g>
<g>
</g>
<g>
</g>
<g>
</g>
<g>
</g>
</svg>
