<?xml version="1.0" encoding="iso-8859-1"?>
<!-- Generator: Adobe Illustrator 18.0.0, SVG Export Plug-In . SVG Version: 6.00 Build 0)  -->
<!DOCTYPE svg PUBLIC "-//W3C//DTD SVG 1.1//EN" "http://www.w3.org/Graphics/SVG/1.1/DTD/svg11.dtd">
<svg version="1.1" id="Capa_1" xmlns="http://www.w3.org/2000/svg" xmlns:xlink="http://www.w3.org/1999/xlink" x="0px" y="0px"
	 viewBox="0 0 53 53" style="enable-background:new 0 0 53 53;" xml:space="preserve">
<g>
	<path style="fill:#4C312C;" d="M27.717,14.91c-0.012,0-0.024,0-0.037,0c-0.552-0.021-0.983-0.484-0.963-1.036
		c0.223-6.08,4.412-10.867,9.398-10.699c0.552,0.021,0.983,0.484,0.963,1.036c-0.02,0.552-0.464,1-1.036,0.963
		c-3.847-0.122-7.144,3.795-7.326,8.773C28.696,14.486,28.253,14.91,27.717,14.91z"/>
	<path style="fill:#659C35;" d="M26.763,8.794l-0.41-2.756c-0.433-2.91-2.718-5.195-5.628-5.628L17.969,0l0.41,2.756
		c0.433,2.91,2.718,5.195,5.628,5.628L26.763,8.794z"/>
	<path style="fill:#E6E6E6;" d="M44.969,36.05c0-0.687,0.177-1.329,0.484-1.89c0.386-0.703,0.386-1.518,0-2.22
		c-0.308-0.561-0.484-1.203-0.484-1.89c0-0.66,0.16-1.282,0.443-1.831c0.331-0.642,0.366-1.387,0.05-2.036
		c-0.314-0.645-0.493-1.366-0.493-2.133c0-0.344,0.035-0.68,0.101-1.005c-0.034,0.001-0.067,0.005-0.101,0.005c-3.314,0-6-2.686-6-6
		c0-0.603,0.089-1.184,0.255-1.732c0.428-1.415-0.736-2.839-2.212-2.749c-1.766,0.108-3.637,0.436-5.569,0.894
		c-2.438,0.578-4.973,0.557-7.412-0.017C13.54,10.974,4.867,12.326,4.97,32.233c0.055,10.789,10.545,23.848,21.19,20.116
		c1.054-0.369,2.182-0.365,3.236,0.003c7.308,2.555,14.537-2.803,18.369-9.903c0.569-1.054,0.199-2.351-0.832-2.96
		C45.757,38.794,44.969,37.515,44.969,36.05z"/>
	<path style="fill:#4C312C;" d="M23.917,35.233c-0.271,1.245-1.5,2.035-2.746,1.764c-1.245-0.271-2.035-1.5-1.764-2.746
		c0.271-1.245,3.867-7.031,3.891-7.026C23.298,27.225,24.188,33.987,23.917,35.233z"/>
	<path style="fill:#4C312C;" d="M31.02,35.233c0.271,1.245,1.5,2.035,2.746,1.764c1.245-0.271,2.035-1.5,1.764-2.746
		s-3.867-7.031-3.891-7.026C31.639,27.225,30.749,33.987,31.02,35.233z"/>
</g>
<g>
</g>
<g>
</g>
<g>
</g>
<g>
</g>
<g>
</g>
<g>
</g>
<g>
</g>
<g>
</g>
<g>
</g>
<g>
</g>
<g>
</g>
<g>
</g>
<g>
</g>
<g>
</g>
<g>
</g>
</svg>
