<?xml version="1.0" encoding="iso-8859-1"?>
<!-- Generator: Adobe Illustrator 18.0.0, SVG Export Plug-In . SVG Version: 6.00 Build 0)  -->
<!DOCTYPE svg PUBLIC "-//W3C//DTD SVG 1.1//EN" "http://www.w3.org/Graphics/SVG/1.1/DTD/svg11.dtd">
<svg version="1.1" id="Capa_1" xmlns="http://www.w3.org/2000/svg" xmlns:xlink="http://www.w3.org/1999/xlink" x="0px" y="0px"
	 viewBox="0 0 56.041 56.041" style="enable-background:new 0 0 56.041 56.041;" xml:space="preserve">
<g>
	<rect x="20.231" y="33.474" style="fill:#88C057;" width="19.708" height="6.542"/>
	<path style="fill:#A46F3E;" d="M39.939,38.016H17.832c-0.553,0-1-0.447-1-1s0.447-1,1-1h22.107c0.553,0,1,0.447,1,1
		S40.492,38.016,39.939,38.016z"/>
	<g>
		<path style="fill:#88C057;" d="M24.904,18.691l-0.98,1.323v0.159v13.842h4V20.015l0.98-1.323c3.21-4.333,3.21-10.255,0-14.588
			L25.864,0l-2,2.7l1.039,1.403C28.114,8.436,28.114,14.358,24.904,18.691z"/>
		<path style="fill:#88C057;" d="M23.924,40.016V55.01c0,0.556,0.451,1.006,1.006,1.006h1.987c0.556,0,1.006-0.451,1.006-1.006
			V40.016H23.924z"/>
	</g>
	<g>
		<path style="fill:#659C35;" d="M20.276,41.031v13.971c0,0.56,0.454,1.015,1.015,1.015h1.971c0.56,0,1.015-0.454,1.015-1.015
			V41.031c0-0.56-0.454-1.015-1.015-1.015h-1.971C20.731,40.016,20.276,40.47,20.276,41.031z"/>
		<path style="fill:#659C35;" d="M20.276,20.509v12.492c0,0.56,0.454,1.015,1.015,1.015h1.971c0.56,0,1.015-0.454,1.015-1.015V20.35
			c0-0.217,0.07-0.429,0.199-0.604l0.334-0.45c3.475-4.692,3.475-11.104,0-15.796L22.217,0l-2.592,3.499
			c-3.475,4.692-3.475,11.104,0,15.796l0.452,0.61C20.207,20.08,20.276,20.292,20.276,20.509z"/>
	</g>
	<g>
		<path style="fill:#659C35;" d="M28.92,18.691l-0.98,1.323v0.159v13.842h4V20.015l0.98-1.323c3.21-4.333,3.21-10.255,0-14.588
			L29.88,0l-2,2.7l1.039,1.403C32.129,8.436,32.129,14.358,28.92,18.691z"/>
		<path style="fill:#659C35;" d="M27.939,40.016v14.98c0,0.563,0.457,1.02,1.02,1.02h1.96c0.563,0,1.02-0.457,1.02-1.02v-14.98
			H27.939z"/>
	</g>
	<g>
		<path style="fill:#88C057;" d="M32.811,18.716l-0.98,1.323v0.159v13.817h4V20.04l0.98-1.323c3.21-4.333,3.21-10.255,0-14.588
			l-3.039-4.103l-2,2.7l1.039,1.403C36.021,8.461,36.021,14.383,32.811,18.716z"/>
		<path style="fill:#88C057;" d="M31.831,40.016v15.008c0,0.562,0.455,1.017,1.017,1.017h1.966c0.562,0,1.017-0.455,1.017-1.017
			V40.016H31.831z"/>
	</g>
	<g>
		<path style="fill:#659C35;" d="M36.815,18.716l-0.98,1.323v0.159v13.817h2.973c0.567,0,1.027-0.46,1.027-1.027V20.04l0.98-1.323
			c3.21-4.333,3.21-10.255,0-14.588l-3.039-4.103l-2,2.7l1.039,1.403C40.025,8.461,40.025,14.383,36.815,18.716z"/>
		<path style="fill:#659C35;" d="M35.835,40.016v14.998c0,0.567,0.46,1.026,1.026,1.026h1.947c0.567,0,1.026-0.46,1.026-1.026
			V41.054c0-0.573-0.465-1.038-1.038-1.038H35.835z"/>
	</g>
	<path style="fill:#A46F3E;" d="M13.818,42.137c-0.256,0-0.512-0.098-0.707-0.293c-0.391-0.391-0.391-1.023,0-1.414l4.121-4.121
		c0.391-0.391,1.023-0.391,1.414,0s0.391,1.023,0,1.414l-4.121,4.121C14.33,42.039,14.074,42.137,13.818,42.137z"/>
	<path style="fill:#A46F3E;" d="M17.939,38.016c-0.256,0-0.512-0.098-0.707-0.293l-4.121-4.121c-0.391-0.391-0.391-1.023,0-1.414
		s1.023-0.391,1.414,0l4.121,4.121c0.391,0.391,0.391,1.023,0,1.414C18.451,37.918,18.195,38.016,17.939,38.016z"/>
	<path style="fill:#436B1C;" d="M24.939,11.016c-0.256,0-0.512-0.098-0.707-0.293L21.939,8.43l-2.293,2.293
		c-0.391,0.391-1.023,0.391-1.414,0s-0.391-1.023,0-1.414l3.707-3.707l3.707,3.707c0.391,0.391,0.391,1.023,0,1.414
		C25.451,10.918,25.195,11.016,24.939,11.016z"/>
	<path style="fill:#436B1C;" d="M24.939,16.016c-0.256,0-0.512-0.098-0.707-0.293l-2.293-2.293l-2.293,2.293
		c-0.391,0.391-1.023,0.391-1.414,0s-0.391-1.023,0-1.414l3.707-3.707l3.707,3.707c0.391,0.391,0.391,1.023,0,1.414
		C25.451,15.918,25.195,16.016,24.939,16.016z"/>
	<path style="fill:#A46F3E;" d="M39.939,35.016h-20c-0.553,0-1-0.447-1-1s0.447-1,1-1h20c0.553,0,1,0.447,1,1
		S40.492,35.016,39.939,35.016z"/>
	<path style="fill:#A46F3E;" d="M39.939,41.016h-20c-0.553,0-1-0.447-1-1s0.447-1,1-1h20c0.553,0,1,0.447,1,1
		S40.492,41.016,39.939,41.016z"/>
</g>
<g>
</g>
<g>
</g>
<g>
</g>
<g>
</g>
<g>
</g>
<g>
</g>
<g>
</g>
<g>
</g>
<g>
</g>
<g>
</g>
<g>
</g>
<g>
</g>
<g>
</g>
<g>
</g>
<g>
</g>
</svg>
