<?xml version="1.0" encoding="iso-8859-1"?>
<!-- Generator: Adobe Illustrator 18.0.0, SVG Export Plug-In . SVG Version: 6.00 Build 0)  -->
<!DOCTYPE svg PUBLIC "-//W3C//DTD SVG 1.1//EN" "http://www.w3.org/Graphics/SVG/1.1/DTD/svg11.dtd">
<svg version="1.1" id="Capa_1" xmlns="http://www.w3.org/2000/svg" xmlns:xlink="http://www.w3.org/1999/xlink" x="0px" y="0px"
	 viewBox="0 0 56.566 56.566" style="enable-background:new 0 0 56.566 56.566;" xml:space="preserve">
<g>
	<path style="fill:#D99F4C;" d="M7.454,39.648c-0.122,0.329-0.303,0.631-0.548,0.883c-4.73,4.88-8.582,11.733-5.918,14.397
		c2.734,2.734,10.813,2.187,15.71-2.71l35-35c4.897-4.897,6.033-13.566,3.299-16.299c-2.72-2.72-9.91,0.929-15.114,6.624
		c-0.051,0.055-0.106,0.098-0.173,0.132c-0.498,0.249-2.792,1.422-3.77,2.401c-1.754,1.754-2.67,3.989-2.727,6.14
		c-2.151,0.057-4.386,0.973-6.14,2.727c-1.754,1.754-2.67,3.989-2.727,6.14c-2.151,0.057-4.386,0.973-6.14,2.727
		s-2.67,3.989-2.727,6.14c-2.151,0.057-4.386,0.973-6.14,2.727C8.382,37.634,7.862,38.545,7.454,39.648z"/>
	<path style="fill:#EAC494;" d="M39.884,7.543c-0.051,0.055-0.106,0.098-0.173,0.132c-0.162,0.081-0.524,0.267-0.961,0.506
		c-0.013,0.291-0.009,0.566,0.02,0.808c0.203,1.684,1.275,3.156,3.1,4.261c0.162,0.098,0.34,0.145,0.517,0.145
		c0.338,0,0.669-0.172,0.856-0.482c0.286-0.473,0.135-1.087-0.338-1.373c-0.892-0.54-1.988-1.462-2.149-2.79
		c-0.127-1.046,0.349-2.219,1.372-3.421C41.354,6.021,40.599,6.76,39.884,7.543z"/>
	<path style="fill:#EAC494;" d="M34.85,21.237c0.167,0.105,0.353,0.156,0.536,0.156c0.33,0,0.654-0.164,0.845-0.463
		c0.297-0.466,0.159-1.084-0.307-1.381c-1.255-0.799-2.041-2.107-2.214-3.686c-0.14-1.275,0.119-2.595,0.707-3.799
		c-0.759,1.316-1.167,2.749-1.205,4.15c-0.479,0.013-0.961,0.075-1.441,0.172C32.079,18.443,33.158,20.16,34.85,21.237z"/>
	<path style="fill:#EAC494;" d="M25.845,30.234c0.168,0.107,0.355,0.159,0.541,0.159c0.328,0,0.65-0.161,0.842-0.458
		c0.299-0.465,0.165-1.083-0.299-1.383c-1.596-1.027-2.07-2.553-2.188-3.651c-0.136-1.272,0.142-2.626,0.745-3.865
		c-0.721,1.287-1.105,2.683-1.141,4.046c-0.52,0.014-1.045,0.08-1.566,0.194C23.048,27.369,24.128,29.127,25.845,30.234z"/>
	<path style="fill:#EAC494;" d="M17.907,38.271c0.152,0.084,0.317,0.123,0.479,0.123c0.354,0,0.696-0.188,0.878-0.52
		c0.266-0.484,0.088-1.093-0.396-1.357c-1.743-0.955-2.728-2.138-2.925-3.517c-0.138-0.966,0.125-2.054,0.719-3.165
		c-0.746,1.306-1.146,2.727-1.183,4.115c-0.44,0.012-0.882,0.069-1.324,0.152C14.548,35.399,15.535,36.972,17.907,38.271z"/>
	<path style="fill:#EAC494;" d="M8.802,46.204c0.177,0.128,0.382,0.189,0.585,0.189c0.311,0,0.615-0.144,0.812-0.414
		c0.323-0.447,0.223-1.072-0.225-1.396c-1.785-1.291-2.744-2.61-2.849-3.919c-0.011-0.136-0.01-0.274-0.002-0.412
		c-0.068,0.096-0.134,0.193-0.216,0.279c-0.507,0.523-1.001,1.072-1.481,1.633C5.931,43.589,7.058,44.943,8.802,46.204z"/>
</g>
<g>
</g>
<g>
</g>
<g>
</g>
<g>
</g>
<g>
</g>
<g>
</g>
<g>
</g>
<g>
</g>
<g>
</g>
<g>
</g>
<g>
</g>
<g>
</g>
<g>
</g>
<g>
</g>
<g>
</g>
</svg>
