<?xml version="1.0" encoding="iso-8859-1"?>
<!-- Generator: Adobe Illustrator 18.0.0, SVG Export Plug-In . SVG Version: 6.00 Build 0)  -->
<!DOCTYPE svg PUBLIC "-//W3C//DTD SVG 1.1//EN" "http://www.w3.org/Graphics/SVG/1.1/DTD/svg11.dtd">
<svg version="1.1" id="Capa_1" xmlns="http://www.w3.org/2000/svg" xmlns:xlink="http://www.w3.org/1999/xlink" x="0px" y="0px"
	 viewBox="0 0 44.019 44.019" style="enable-background:new 0 0 44.019 44.019;" xml:space="preserve">
<g>
	<path style="fill:#659C35;" d="M25.89,8.164c3.761,0,6.856,2.832,7.28,6.48c0.1-0.01,0.196-0.03,0.295-0.044
		c2.546-3.411,4.093-5.803,4.093-5.803c0.771-1.198,1.403-2.324,1.925-3.355c-0.841-3.124-3.685-5.426-7.074-5.426
		c-4.05,0-7.334,3.283-7.334,7.334c0,0.29,0.021,0.574,0.054,0.854C25.379,8.178,25.633,8.164,25.89,8.164z"/>
	<path style="fill:#88C057;" d="M25.869,22.831c0.007,0,0.014,0.001,0.021,0.001c0.328,0,0.649-0.029,0.966-0.071
		c2.444-2.77,4.607-5.498,6.34-7.805c-0.278-3.796-3.439-6.792-7.307-6.792c-4.05,0-7.334,3.283-7.334,7.334
		c0,0.138,0.013,0.272,0.021,0.408C22.48,15.918,25.656,18.979,25.869,22.831z"/>
	<path style="fill:#88C057;" d="M6.779,37.754c3.286-0.77,6.694-2.728,9.996-5.287c0.099-0.48,0.151-0.977,0.151-1.486
		c0-4.05-3.283-7.334-7.334-7.334s-7.334,3.283-7.334,7.334C2.258,34.035,4.125,36.65,6.779,37.754z"/>
	<path style="fill:#659C35;" d="M16.896,30.378c0.534,0.124,1.088,0.196,1.66,0.196c0.186,0,0.369-0.014,0.551-0.028
		c2.369-2.057,4.648-4.353,6.751-6.669c0.018-0.21,0.032-0.422,0.032-0.637c0-4.05-3.283-7.334-7.334-7.334
		s-7.334,3.283-7.334,7.334c0,0.204,0.014,0.404,0.03,0.603C14.312,24.552,16.634,27.17,16.896,30.378z"/>
	<g>
		<path style="fill:#436B1C;" d="M28.975,8.851c0.317,0.148,0.622,0.317,0.913,0.507C29.597,9.167,29.292,8.998,28.975,8.851z"/>
		<path style="fill:#436B1C;" d="M28.899,8.817c-0.324-0.146-0.658-0.275-1.006-0.374c-0.001,0.001-0.002,0.001-0.002,0.002
			C28.239,8.543,28.574,8.67,28.899,8.817z"/>
		<path style="fill:#436B1C;" d="M31.514,10.806c-0.451-0.54-0.977-1.014-1.563-1.406C30.537,9.792,31.064,10.266,31.514,10.806z"/>
		<path style="fill:#436B1C;" d="M33.008,13.771c-0.17-0.703-0.441-1.365-0.797-1.973C32.566,12.405,32.838,13.068,33.008,13.771z"
			/>
		<path style="fill:#436B1C;" d="M32.157,11.707c-0.178-0.294-0.375-0.575-0.592-0.841C31.782,11.132,31.979,11.413,32.157,11.707z"
			/>
		<path style="fill:#436B1C;" d="M42.271,1.084c0.027-0.115,0.039-0.176,0.039-0.176c0.426-1.185-0.988-0.87-0.988-0.87
			c-1.317,0.534-2.641,1.184-3.961,1.909c1.008,0.927,1.756,2.133,2.123,3.495c-0.522,1.03-1.154,2.156-1.925,3.355
			c0,0-1.547,2.392-4.093,5.803c-0.098,0.014-0.195,0.034-0.295,0.044c-0.032-0.273-0.083-0.54-0.144-0.804
			c0.084,0.363,0.143,0.735,0.171,1.116c-1.733,2.307-3.896,5.035-6.34,7.805c-0.317,0.042-0.638,0.071-0.966,0.071
			c-0.006,0-0.013-0.001-0.019-0.001c0.008,0.136,0.019,0.271,0.019,0.408c0,0.215-0.014,0.427-0.032,0.637
			c-2.102,2.317-4.381,4.612-6.751,6.669c-0.183,0.014-0.365,0.028-0.551,0.028c-0.57,0-1.122-0.072-1.655-0.195
			c0.016,0.199,0.025,0.399,0.025,0.602c0,0.509-0.052,1.006-0.151,1.486c-3.302,2.559-6.71,4.517-9.996,5.287
			c-1.368-0.569-2.52-1.544-3.322-2.77c-1.776,2.427-2.424,3.447-2.642,3.819l-0.187,0.171c0.056,0.151,0.27,0.423,0.591,0.773
			c4.979,5.43,12.33,5.707,18.916,0.692C31.258,31.971,40.67,18.088,40.67,18.088C45.438,10.502,42.546,2.421,42.271,1.084z"/>
	</g>
</g>
<g>
</g>
<g>
</g>
<g>
</g>
<g>
</g>
<g>
</g>
<g>
</g>
<g>
</g>
<g>
</g>
<g>
</g>
<g>
</g>
<g>
</g>
<g>
</g>
<g>
</g>
<g>
</g>
<g>
</g>
</svg>
