<?xml version="1.0" encoding="iso-8859-1"?>
<!-- Generator: Adobe Illustrator 18.0.0, SVG Export Plug-In . SVG Version: 6.00 Build 0)  -->
<!DOCTYPE svg PUBLIC "-//W3C//DTD SVG 1.1//EN" "http://www.w3.org/Graphics/SVG/1.1/DTD/svg11.dtd">
<svg version="1.1" id="Capa_1" xmlns="http://www.w3.org/2000/svg" xmlns:xlink="http://www.w3.org/1999/xlink" x="0px" y="0px"
	 viewBox="0 0 56.055 56.055" style="enable-background:new 0 0 56.055 56.055;" xml:space="preserve">
<g>
	<path style="fill:#E69441;" d="M37.056,5.457c-0.749-0.749-1.778-1.048-2.751-0.897c-0.514,0.08-0.946-0.354-0.866-0.868
		c0.186-1.197-0.311-2.48-1.49-3.221c-1.009-0.634-2.345-0.628-3.349,0.014c-1.152,0.735-1.643,1.991-1.474,3.17
		c0.076,0.533-0.365,0.976-0.898,0.9c-0.961-0.138-1.974,0.163-2.714,0.902c-0.74,0.74-1.041,1.752-0.902,2.714
		c0.077,0.532-0.366,0.975-0.898,0.898C20.752,8.931,19.739,9.232,19,9.971c-0.74,0.74-1.041,1.752-0.902,2.714
		c0.077,0.532-0.366,0.975-0.898,0.898c-0.962-0.138-1.974,0.162-2.714,0.902c-0.74,0.74-1.041,1.752-0.902,2.714
		c0.077,0.532-0.366,0.975-0.898,0.898c-0.962-0.138-1.974,0.162-2.714,0.902s-1.041,1.752-0.902,2.714
		c0.077,0.532-0.366,0.975-0.898,0.898c-0.962-0.138-1.974,0.162-2.714,0.902c-0.74,0.74-1.04,1.752-0.902,2.714
		c0.077,0.533-0.367,0.974-0.9,0.898c-1.186-0.17-2.449,0.328-3.183,1.494c-0.631,1.004-0.631,2.328,0.001,3.332
		c0.735,1.168,2.002,1.665,3.191,1.492c0.529-0.077,0.969,0.362,0.892,0.89c-0.141,0.964,0.159,1.98,0.901,2.722
		c0.742,0.742,1.758,1.042,2.722,0.901c0.528-0.077,0.968,0.363,0.891,0.891c-0.141,0.964,0.159,1.98,0.901,2.722
		c0.742,0.742,1.758,1.042,2.722,0.901c0.528-0.077,0.968,0.363,0.891,0.891c-0.141,0.964,0.159,1.98,0.901,2.722
		c0.742,0.742,1.758,1.042,2.722,0.901c0.528-0.077,0.968,0.363,0.891,0.891c-0.141,0.964,0.159,1.98,0.901,2.722
		c0.742,0.742,1.758,1.042,2.722,0.901c0.528-0.077,0.968,0.364,0.89,0.892c-0.173,1.181,0.318,2.441,1.471,3.178
		c1.005,0.642,2.342,0.649,3.351,0.014c1.177-0.74,1.674-2.02,1.49-3.215c-0.079-0.517,0.354-0.952,0.871-0.872
		c0.971,0.15,1.998-0.15,2.746-0.898c0.748-0.748,1.047-1.775,0.897-2.746c-0.079-0.516,0.355-0.95,0.871-0.871
		c0.971,0.15,1.998-0.15,2.746-0.897c0.748-0.748,1.047-1.775,0.897-2.746c-0.079-0.516,0.355-0.95,0.871-0.871
		c0.971,0.15,1.998-0.15,2.746-0.897c0.748-0.748,1.047-1.775,0.897-2.746c-0.079-0.516,0.355-0.95,0.871-0.871
		c0.971,0.15,1.998-0.15,2.746-0.897c0.748-0.748,1.047-1.775,0.897-2.746c-0.079-0.516,0.355-0.95,0.871-0.871
		c0.971,0.15,1.998-0.15,2.746-0.897c0.748-0.748,1.047-1.775,0.898-2.746c-0.08-0.517,0.356-0.95,0.872-0.871
		c1.196,0.184,2.476-0.313,3.215-1.49c0.629-1.002,0.629-2.327,0-3.329c-0.741-1.179-2.023-1.675-3.22-1.489
		c-0.514,0.08-0.948-0.353-0.868-0.866c0.151-0.972-0.148-2.001-0.897-2.751c-0.749-0.749-1.778-1.048-2.751-0.897
		c-0.513,0.08-0.947-0.353-0.867-0.867c0.151-0.972-0.147-2.001-0.897-2.751c-0.749-0.749-1.778-1.048-2.751-0.897
		c-0.513,0.08-0.947-0.353-0.867-0.867c0.151-0.972-0.147-2.001-0.897-2.751c-0.749-0.749-1.778-1.048-2.751-0.897
		c-0.513,0.08-0.947-0.353-0.867-0.867C38.104,7.236,37.805,6.207,37.056,5.457z"/>
	<g>
		<path style="fill:#BC633C;" d="M6.797,29.788l-0.354,0.354c-0.391,0.391-0.391,1.023,0,1.414c0.195,0.195,0.451,0.293,0.707,0.293
			s0.512-0.098,0.707-0.293l0.354-0.354c0.391-0.391,0.391-1.023,0-1.414S7.187,29.397,6.797,29.788z"/>
		<path style="fill:#BC633C;" d="M15.639,23.774l0.354-0.354c0.391-0.391,0.391-1.023,0-1.414c-0.391-0.391-1.023-0.391-1.414,0
			l-0.354,0.354c-0.391,0.391-0.391,1.023,0,1.414c0.195,0.195,0.451,0.293,0.707,0.293S15.444,23.97,15.639,23.774z"/>
		<path style="fill:#BC633C;" d="M11.748,27.665l0.354-0.354c0.391-0.391,0.391-1.023,0-1.414s-1.023-0.391-1.414,0l-0.354,0.354
			c-0.391,0.391-0.391,1.023,0,1.414c0.195,0.195,0.451,0.293,0.707,0.293S11.553,27.86,11.748,27.665z"/>
		<path style="fill:#BC633C;" d="M26.604,12.395c0.256,0,0.512-0.098,0.707-0.293l0.354-0.354c0.391-0.391,0.391-1.023,0-1.414
			s-1.023-0.391-1.414,0l-0.354,0.354c-0.391,0.391-0.391,1.023,0,1.414C26.093,12.298,26.348,12.395,26.604,12.395z"/>
		<path style="fill:#BC633C;" d="M19.53,19.884l0.354-0.354c0.391-0.391,0.391-1.023,0-1.414s-1.023-0.391-1.414,0l-0.354,0.354
			c-0.391,0.391-0.391,1.023,0,1.414c0.195,0.195,0.451,0.293,0.707,0.293S19.335,20.079,19.53,19.884z"/>
		<path style="fill:#BC633C;" d="M22.714,16.286c0.256,0,0.512-0.098,0.707-0.293l0.354-0.354c0.391-0.391,0.391-1.023,0-1.414
			s-1.023-0.391-1.414,0l-0.354,0.354c-0.391,0.391-0.391,1.023,0,1.414C22.202,16.188,22.458,16.286,22.714,16.286z"/>
		<path style="fill:#BC633C;" d="M30.495,8.504c0.256,0,0.512-0.098,0.707-0.293l0.354-0.354c0.391-0.391,0.391-1.023,0-1.414
			s-1.023-0.391-1.414,0l-0.354,0.354c-0.391,0.391-0.391,1.023,0,1.414C29.983,8.406,30.239,8.504,30.495,8.504z"/>
		<path style="fill:#BC633C;" d="M11.31,34.303l-0.354,0.354c-0.39,0.391-0.39,1.024,0.002,1.414
			c0.195,0.194,0.45,0.292,0.706,0.292c0.257,0,0.513-0.098,0.708-0.294l0.354-0.354c0.39-0.391,0.39-1.024-0.002-1.414
			C12.334,33.912,11.701,33.911,11.31,34.303z"/>
		<path style="fill:#BC633C;" d="M16.262,32.179l0.354-0.354c0.391-0.391,0.391-1.023,0-1.414s-1.023-0.391-1.414,0l-0.354,0.354
			c-0.391,0.391-0.391,1.023,0,1.414c0.195,0.195,0.451,0.293,0.707,0.293S16.067,32.374,16.262,32.179z"/>
		<path style="fill:#BC633C;" d="M20.153,28.288l0.354-0.354c0.391-0.391,0.391-1.023,0-1.414s-1.023-0.391-1.414,0l-0.354,0.354
			c-0.391,0.391-0.391,1.023,0,1.414c0.195,0.195,0.451,0.293,0.707,0.293S19.958,28.483,20.153,28.288z"/>
		<path style="fill:#BC633C;" d="M24.044,24.397l0.354-0.354c0.391-0.391,0.391-1.023,0-1.414s-1.023-0.391-1.414,0l-0.354,0.354
			c-0.391,0.391-0.391,1.023,0,1.414c0.195,0.195,0.451,0.293,0.707,0.293S23.848,24.593,24.044,24.397z"/>
		<path style="fill:#BC633C;" d="M30.765,14.848l-0.354,0.354c-0.391,0.391-0.391,1.023,0,1.414
			c0.195,0.195,0.451,0.293,0.707,0.293s0.512-0.098,0.707-0.293l0.354-0.354c0.391-0.391,0.391-1.023,0-1.414
			S31.156,14.457,30.765,14.848z"/>
		<path style="fill:#BC633C;" d="M26.874,18.739l-0.354,0.354c-0.391,0.391-0.391,1.023,0,1.414
			c0.195,0.195,0.451,0.293,0.707,0.293s0.512-0.098,0.707-0.293l0.354-0.354c0.391-0.391,0.391-1.023,0-1.414
			S27.264,18.349,26.874,18.739z"/>
		<path style="fill:#BC633C;" d="M35.01,13.018c0.256,0,0.512-0.098,0.707-0.293l0.354-0.354c0.391-0.391,0.391-1.023,0-1.414
			s-1.023-0.391-1.414,0l-0.354,0.354c-0.391,0.391-0.391,1.023,0,1.414C34.498,12.92,34.754,13.018,35.01,13.018z"/>
		<path style="fill:#BC633C;" d="M15.825,38.816l-0.354,0.354c-0.391,0.391-0.391,1.023,0,1.414
			c0.195,0.195,0.451,0.293,0.707,0.293c0.256,0,0.512-0.098,0.707-0.293l0.354-0.354c0.391-0.391,0.391-1.023,0-1.414
			S16.216,38.426,15.825,38.816z"/>
		<path style="fill:#BC633C;" d="M20.776,36.693l0.354-0.354c0.391-0.391,0.391-1.023,0-1.414s-1.023-0.391-1.414,0l-0.354,0.354
			c-0.391,0.391-0.391,1.023,0,1.414c0.195,0.195,0.451,0.293,0.707,0.293S20.581,36.889,20.776,36.693z"/>
		<path style="fill:#BC633C;" d="M24.667,32.802l0.354-0.354c0.391-0.391,0.391-1.023,0-1.414s-1.023-0.391-1.414,0l-0.354,0.354
			c-0.391,0.391-0.391,1.023,0,1.414c0.195,0.195,0.451,0.293,0.707,0.293S24.471,32.997,24.667,32.802z"/>
		<path style="fill:#BC633C;" d="M32.447,25.021l0.354-0.354c0.392-0.39,0.392-1.023,0.002-1.414
			c-0.391-0.392-1.023-0.392-1.414-0.002l-0.354,0.354c-0.392,0.39-0.392,1.023-0.002,1.414c0.195,0.196,0.451,0.294,0.708,0.294
			C31.997,25.313,32.252,25.216,32.447,25.021z"/>
		<path style="fill:#BC633C;" d="M28.557,28.911l0.354-0.354c0.391-0.391,0.391-1.023,0-1.414s-1.023-0.391-1.414,0l-0.354,0.354
			c-0.391,0.391-0.391,1.023,0,1.414c0.195,0.195,0.451,0.293,0.707,0.293S28.362,29.106,28.557,28.911z"/>
		<path style="fill:#BC633C;" d="M36.34,21.13l0.354-0.354c0.391-0.391,0.391-1.023,0-1.414s-1.023-0.391-1.414,0l-0.354,0.354
			c-0.391,0.391-0.391,1.023,0,1.414c0.195,0.195,0.451,0.293,0.707,0.293S36.144,21.325,36.34,21.13z"/>
		<path style="fill:#BC633C;" d="M40.231,17.238l0.354-0.354c0.39-0.391,0.39-1.024-0.002-1.414
			c-0.392-0.389-1.024-0.389-1.414,0.002l-0.354,0.354c-0.39,0.391-0.39,1.024,0.002,1.414c0.195,0.194,0.45,0.292,0.706,0.292
			C39.78,17.532,40.036,17.435,40.231,17.238z"/>
		<path style="fill:#BC633C;" d="M20.339,43.33l-0.354,0.354c-0.391,0.391-0.391,1.023,0,1.414c0.195,0.195,0.451,0.293,0.707,0.293
			s0.512-0.098,0.707-0.293l0.354-0.354c0.391-0.391,0.391-1.023,0-1.414S20.729,42.939,20.339,43.33z"/>
		<path style="fill:#BC633C;" d="M29.181,37.316l0.354-0.354c0.391-0.391,0.391-1.023,0-1.414s-1.023-0.391-1.414,0l-0.354,0.354
			c-0.391,0.391-0.391,1.023,0,1.414c0.195,0.195,0.451,0.293,0.707,0.293S28.986,37.512,29.181,37.316z"/>
		<path style="fill:#BC633C;" d="M25.29,41.207l0.354-0.354c0.391-0.391,0.391-1.023,0-1.414s-1.023-0.391-1.414,0l-0.354,0.354
			c-0.391,0.391-0.391,1.023,0,1.414c0.195,0.195,0.451,0.293,0.707,0.293S25.095,41.402,25.29,41.207z"/>
		<path style="fill:#BC633C;" d="M40.853,25.643l0.354-0.354c0.391-0.391,0.391-1.023,0-1.414s-1.023-0.391-1.414,0l-0.354,0.354
			c-0.391,0.391-0.391,1.023,0,1.414c0.195,0.195,0.451,0.293,0.707,0.293S40.658,25.839,40.853,25.643z"/>
		<path style="fill:#BC633C;" d="M33.072,33.426l0.354-0.354c0.391-0.391,0.391-1.023,0-1.414s-1.023-0.391-1.414,0l-0.354,0.354
			c-0.391,0.391-0.391,1.023,0,1.414c0.195,0.195,0.451,0.293,0.707,0.293S32.877,33.621,33.072,33.426z"/>
		<path style="fill:#BC633C;" d="M36.964,29.534l0.354-0.354c0.39-0.391,0.39-1.024-0.002-1.414
			c-0.391-0.389-1.023-0.389-1.414,0.002l-0.354,0.354c-0.39,0.391-0.39,1.024,0.002,1.414c0.195,0.194,0.45,0.292,0.706,0.292
			C36.512,29.828,36.768,29.73,36.964,29.534z"/>
		<path style="fill:#BC633C;" d="M44.745,21.753l0.354-0.354c0.391-0.391,0.391-1.023,0-1.414s-1.023-0.391-1.414,0l-0.354,0.354
			c-0.391,0.391-0.391,1.023,0,1.414c0.195,0.195,0.451,0.293,0.707,0.293S44.55,21.948,44.745,21.753z"/>
		<path style="fill:#BC633C;" d="M24.853,47.844L24.5,48.197c-0.391,0.391-0.391,1.023,0,1.414c0.195,0.195,0.451,0.293,0.707,0.293
			s0.512-0.098,0.707-0.293l0.354-0.354c0.391-0.391,0.391-1.023,0-1.414S25.244,47.453,24.853,47.844z"/>
		<path style="fill:#BC633C;" d="M32.635,40.062l-0.354,0.354c-0.391,0.391-0.391,1.023,0,1.414
			c0.195,0.195,0.451,0.293,0.707,0.293s0.512-0.098,0.707-0.293l0.354-0.354c0.391-0.391,0.391-1.023,0-1.414
			S33.025,39.672,32.635,40.062z"/>
		<path style="fill:#BC633C;" d="M28.744,43.953l-0.354,0.354C28,44.697,28,45.33,28.39,45.721c0.195,0.195,0.451,0.293,0.707,0.293
			s0.512-0.098,0.707-0.293l0.354-0.354c0.391-0.391,0.391-1.023,0-1.414S29.135,43.562,28.744,43.953z"/>
		<path style="fill:#BC633C;" d="M36.525,36.172l-0.354,0.354c-0.391,0.391-0.391,1.023,0,1.414
			c0.195,0.195,0.451,0.293,0.707,0.293s0.512-0.098,0.707-0.293l0.354-0.354c0.391-0.391,0.391-1.023,0-1.414
			S36.916,35.781,36.525,36.172z"/>
		<path style="fill:#BC633C;" d="M44.307,28.39l-0.354,0.354c-0.391,0.391-0.391,1.023,0,1.414c0.195,0.195,0.451,0.293,0.707,0.293
			s0.512-0.098,0.707-0.293l0.354-0.354c0.391-0.391,0.391-1.023,0-1.414S44.698,27.999,44.307,28.39z"/>
		<path style="fill:#BC633C;" d="M40.416,32.281l-0.354,0.354c-0.391,0.391-0.391,1.023,0,1.414
			c0.195,0.195,0.451,0.293,0.707,0.293s0.512-0.098,0.707-0.293l0.354-0.354c0.391-0.391,0.391-1.023,0-1.414
			S40.806,31.891,40.416,32.281z"/>
		<path style="fill:#BC633C;" d="M49.612,24.499c-0.391-0.391-1.023-0.391-1.414,0l-0.354,0.354c-0.391,0.391-0.391,1.023,0,1.414
			c0.195,0.195,0.451,0.293,0.707,0.293s0.512-0.098,0.707-0.293l0.354-0.354C50.003,25.522,50.003,24.89,49.612,24.499z"/>
	</g>
</g>
<g>
</g>
<g>
</g>
<g>
</g>
<g>
</g>
<g>
</g>
<g>
</g>
<g>
</g>
<g>
</g>
<g>
</g>
<g>
</g>
<g>
</g>
<g>
</g>
<g>
</g>
<g>
</g>
<g>
</g>
</svg>
