<?xml version="1.0" encoding="iso-8859-1"?>
<!-- Generator: Adobe Illustrator 18.0.0, SVG Export Plug-In . SVG Version: 6.00 Build 0)  -->
<!DOCTYPE svg PUBLIC "-//W3C//DTD SVG 1.1//EN" "http://www.w3.org/Graphics/SVG/1.1/DTD/svg11.dtd">
<svg version="1.1" id="Capa_1" xmlns="http://www.w3.org/2000/svg" xmlns:xlink="http://www.w3.org/1999/xlink" x="0px" y="0px"
	 viewBox="0 0 56.085 56.085" style="enable-background:new 0 0 56.085 56.085;" xml:space="preserve">
<g>
	<path style="fill:#A46F3E;" d="M36.543,20.56c0,0,1.44-1.378,4.622-2.728c3.011-1.278,5.8-3.071,8.101-5.395
		c0.943-0.952,1.844-2.03,2.533-3.188c0,0,0.598-1.562,3.011-1.082c0,0,1.318-2.093-2.378-5.789L50.054,0L33.018,17.035
		L36.543,20.56z"/>
	<circle style="fill:#D2D5D7;" cx="38.893" cy="15.273" r="1.246"/>
	<circle style="fill:#D2D5D7;" cx="49.466" cy="5.874" r="1.246"/>
	<path style="fill:#D2D5D7;" d="M2.03,54.125c1.667,2.176,4.674,2.54,6.789,1.09c0.491-0.337,1.005-0.638,1.559-0.857
		c0.912-0.361,1.604-0.968,1.22-2.351c-0.499-1.797,0.552-2.848,2.35-2.35c1.797,0.499,2.848-0.552,2.35-2.35
		c-0.499-1.797,0.552-2.848,2.35-2.35c1.797,0.499,2.848-0.552,2.35-2.35c-0.499-1.797,0.552-2.848,2.35-2.35
		c1.797,0.499,2.848-0.552,2.35-2.35c-0.499-1.797,0.552-2.848,2.35-2.35c1.797,0.499,2.848-0.552,2.35-2.35
		c-0.499-1.797,0.552-2.848,2.35-2.35c1.797,0.499,2.848-0.552,2.35-2.35c-0.499-1.797,0.552-2.848,2.35-2.35
		c1.284,0.356,2.187-0.078,2.416-1.011c0.166-0.675-0.112-1.384-0.604-1.876l-6.239-6.239L2.604,47.449
		C0.815,49.239,0.491,52.117,2.03,54.125z"/>
</g>
<g>
</g>
<g>
</g>
<g>
</g>
<g>
</g>
<g>
</g>
<g>
</g>
<g>
</g>
<g>
</g>
<g>
</g>
<g>
</g>
<g>
</g>
<g>
</g>
<g>
</g>
<g>
</g>
<g>
</g>
</svg>
