<?xml version="1.0" encoding="iso-8859-1"?>
<!-- Generator: Adobe Illustrator 18.0.0, SVG Export Plug-In . SVG Version: 6.00 Build 0)  -->
<!DOCTYPE svg PUBLIC "-//W3C//DTD SVG 1.1//EN" "http://www.w3.org/Graphics/SVG/1.1/DTD/svg11.dtd">
<svg version="1.1" id="Capa_1" xmlns="http://www.w3.org/2000/svg" xmlns:xlink="http://www.w3.org/1999/xlink" x="0px" y="0px"
	 viewBox="0 0 55.71 55.71" style="enable-background:new 0 0 55.71 55.71;" xml:space="preserve">
<g>
	<path style="fill:#FBD490;" d="M7.284,52.581c-9.784-4.462,3.099-16.571,6.742-21.436c5.051-6.744,11.29-12.945,18.148-17.848
		c3.515-2.513,9.668-8.421,14.231-8.502c4.643-0.083,4.799,5.216,3.401,7.876c-3.477,6.613-8.066,12.7-13.195,18.1
		C34.651,32.837,10.574,55.871,7.284,52.581z"/>
	<path style="fill:#EEAF4B;" d="M10.499,35.394c1.402-1.672,2.702-3.147,3.527-4.249c5.052-6.744,11.29-12.945,18.148-17.848
		c0.723-0.517,1.562-1.181,2.472-1.905c1.08-1.634,2.091-3.311,2.998-5.038c1.128-2.146,1.002-6.421-2.744-6.354
		c-3.681,0.066-8.644,4.832-11.48,6.859c-5.532,3.955-10.565,8.957-14.64,14.398C5.843,25.181-4.549,34.949,3.343,38.549
		C4.245,39.451,7.084,37.898,10.499,35.394z"/>
	<path style="fill:#EEAF4B;" d="M52.367,17.161c-0.902-0.902-3.74,0.651-7.156,3.155c-0.133,0.159-0.259,0.306-0.389,0.461
		c-2.487,3.537-5.254,6.884-8.209,9.995c-0.148,0.156-0.436,0.444-0.817,0.818c-2.808,3.013-5.846,5.829-9.047,8.38
		c-2.04,1.805-4.213,3.669-6.352,5.407c-0.825,1.3-1.617,2.62-2.332,3.979c-1.128,2.146-1.002,6.421,2.744,6.354
		c3.681-0.066,8.644-4.832,11.479-6.859c5.532-3.955,10.565-8.957,14.64-14.398C49.867,30.529,60.259,20.761,52.367,17.161z"/>
	<path style="fill:#F1B501;" d="M14.834,45.222c-1.087,0-2.174-0.414-3.002-1.241c-0.875-0.875-2.301-0.875-3.176,0
		c-0.391,0.391-1.023,0.391-1.414,0s-0.391-1.023,0-1.414c1.654-1.656,4.35-1.656,6.004,0c0.875,0.875,2.301,0.875,3.176,0
		c0.391-0.391,1.023-0.391,1.414,0s0.391,1.024,0,1.414C17.007,44.808,15.921,45.222,14.834,45.222z"/>
	<path style="fill:#F1B501;" d="M20.953,39.102c-1.087,0-2.175-0.413-3.002-1.241c-0.85-0.851-2.326-0.849-3.175,0
		c-0.391,0.391-1.023,0.391-1.414,0c-0.391-0.39-0.391-1.023,0-1.414c0.802-0.803,1.867-1.244,3.002-1.244
		c1.134,0,2.199,0.441,3.001,1.244c0.875,0.875,2.301,0.875,3.176,0c0.391-0.391,1.023-0.391,1.414,0s0.391,1.023,0,1.414
		C23.128,38.689,22.04,39.102,20.953,39.102z"/>
	<path style="fill:#F1B501;" d="M27.073,32.982c-1.087,0-2.175-0.413-3.002-1.241c-0.875-0.875-2.301-0.875-3.176,0
		c-0.391,0.391-1.023,0.391-1.414,0c-0.391-0.391-0.391-1.023,0-1.414c1.654-1.656,4.35-1.656,6.004,0
		c0.875,0.875,2.301,0.875,3.176,0c0.391-0.391,1.023-0.391,1.414,0s0.391,1.023,0,1.414C29.248,32.569,28.16,32.982,27.073,32.982z
		"/>
	<path style="fill:#F1B501;" d="M33.192,26.862c-1.087,0-2.175-0.413-3.002-1.241c-0.875-0.875-2.301-0.875-3.176,0
		c-0.391,0.391-1.023,0.391-1.414,0s-0.391-1.023,0-1.414c1.654-1.656,4.35-1.656,6.004,0c0.875,0.875,2.301,0.875,3.176,0
		c0.391-0.391,1.023-0.391,1.414,0s0.391,1.023,0,1.414C35.367,26.449,34.279,26.862,33.192,26.862z"/>
	<path style="fill:#F1B501;" d="M39.312,20.746c-1.134,0-2.199-0.441-3.002-1.244c-0.875-0.875-2.301-0.875-3.176,0
		c-0.391,0.391-1.023,0.391-1.414,0s-0.391-1.023,0-1.414c1.654-1.656,4.35-1.656,6.004,0c0.848,0.849,2.323,0.85,3.175,0
		c0.391-0.391,1.023-0.391,1.414,0c0.391,0.39,0.391,1.023,0,1.414C41.511,20.305,40.446,20.746,39.312,20.746z"/>
	<path style="fill:#FBD490;" d="M29.233,12.328c-0.989,0-1.979-0.377-2.731-1.13c-0.727-0.727-1.908-0.727-2.635,0
		c-0.391,0.391-1.023,0.391-1.414,0s-0.391-1.023,0-1.414c1.506-1.506,3.957-1.506,5.463,0c0.727,0.727,1.908,0.727,2.635,0
		c0.391-0.391,1.023-0.391,1.414,0s0.391,1.023,0,1.414C31.212,11.951,30.222,12.328,29.233,12.328z"/>
	<path style="fill:#FBD490;" d="M20.579,19.527c-0.989,0-1.979-0.376-2.731-1.129c-0.728-0.728-1.909-0.726-2.635,0
		c-0.391,0.391-1.023,0.391-1.414,0s-0.391-1.023,0-1.414c1.506-1.506,3.957-1.506,5.463,0c0.727,0.725,1.908,0.725,2.635,0
		c0.391-0.391,1.023-0.391,1.414,0s0.391,1.024,0,1.414C22.557,19.151,21.568,19.527,20.579,19.527z"/>
	<path style="fill:#FBD490;" d="M13.005,28.182c-0.989,0-1.978-0.376-2.731-1.129c-0.704-0.704-1.928-0.706-2.634,0
		c-0.391,0.391-1.023,0.391-1.414,0c-0.391-0.39-0.391-1.023,0-1.414c1.46-1.461,4.004-1.461,5.462,0
		c0.728,0.728,1.909,0.726,2.635,0c0.391-0.391,1.023-0.391,1.414,0c0.391,0.391,0.391,1.023,0,1.414
		C14.984,27.806,13.995,28.182,13.005,28.182z"/>
	<path style="fill:#FBD490;" d="M47.613,30.711c-1.032,0-2.002-0.402-2.731-1.133c-0.705-0.705-1.93-0.705-2.635,0
		c-0.391,0.391-1.023,0.391-1.414,0c-0.391-0.39-0.391-1.023,0-1.414c1.458-1.461,4.001-1.461,5.463,0
		c0.705,0.705,1.93,0.705,2.635,0c0.391-0.391,1.023-0.391,1.414,0s0.391,1.023,0,1.414C49.614,30.309,48.644,30.711,47.613,30.711z
		"/>
	<path style="fill:#FBD490;" d="M38.959,37.91c-1.032,0-2.002-0.402-2.731-1.133c-0.727-0.728-1.908-0.726-2.635,0
		c-0.391,0.391-1.023,0.391-1.414,0s-0.391-1.023,0-1.414c1.506-1.506,3.955-1.506,5.463,0c0.705,0.705,1.93,0.705,2.635,0
		c0.391-0.391,1.023-0.391,1.414,0s0.391,1.023,0,1.414C40.96,37.508,39.99,37.91,38.959,37.91z"/>
	<path style="fill:#FBD490;" d="M31.385,46.562c-0.989,0-1.979-0.377-2.731-1.13c-0.727-0.725-1.908-0.725-2.635,0
		c-0.391,0.391-1.023,0.391-1.414,0s-0.391-1.024,0-1.414c1.506-1.506,3.957-1.506,5.463,0c0.728,0.727,1.909,0.727,2.635,0
		c0.391-0.391,1.023-0.391,1.414,0s0.391,1.023,0,1.414C33.364,46.185,32.375,46.562,31.385,46.562z"/>
	<path style="fill:#F1B501;" d="M44.284,14.468c-0.989,0-1.92-0.386-2.619-1.086c-0.665-0.666-1.748-0.664-2.411,0
		c-0.391,0.391-1.023,0.391-1.414,0s-0.391-1.024,0-1.414c1.447-1.444,3.796-1.442,5.239,0c0.645,0.645,1.766,0.645,2.41,0
		c0.391-0.391,1.023-0.391,1.414,0c0.391,0.39,0.391,1.023,0,1.414C46.204,14.082,45.273,14.468,44.284,14.468z"/>
</g>
<g>
</g>
<g>
</g>
<g>
</g>
<g>
</g>
<g>
</g>
<g>
</g>
<g>
</g>
<g>
</g>
<g>
</g>
<g>
</g>
<g>
</g>
<g>
</g>
<g>
</g>
<g>
</g>
<g>
</g>
</svg>
