<?xml version="1.0" encoding="iso-8859-1"?>
<!-- Generator: Adobe Illustrator 18.0.0, SVG Export Plug-In . SVG Version: 6.00 Build 0)  -->
<!DOCTYPE svg PUBLIC "-//W3C//DTD SVG 1.1//EN" "http://www.w3.org/Graphics/SVG/1.1/DTD/svg11.dtd">
<svg version="1.1" id="Capa_1" xmlns="http://www.w3.org/2000/svg" xmlns:xlink="http://www.w3.org/1999/xlink" x="0px" y="0px"
	 viewBox="0 0 55.374 55.374" style="enable-background:new 0 0 55.374 55.374;" xml:space="preserve">
<g>
	<path style="fill:#A46F3E;" d="M32.425,22.171c0,0,4.807-0.333,9.122-3.531c0,0,5.263-4.424,8.14-9.258
		c0,0,0.693-1.811,3.491-1.254c0,0,2.348-1.606-1.937-5.891L49.003,0L29.629,19.375L32.425,22.171z"/>
	<path style="fill:#D2D5D7;" d="M37.191,27.017c3.968,3.822-23,31.822-26.968,28l-8.668-7.568l28.074-28.074L37.191,27.017z"/>
	<circle style="fill:#D2D5D7;" cx="36.181" cy="17.398" r="1.445"/>
	<circle style="fill:#D2D5D7;" cx="47.739" cy="5.84" r="1.445"/>
	<path style="fill:#E6E6E6;" d="M34.375,24.171l-0.711,0.703l0.236,0.239c0.061,1.927-3.544,7.7-10.689,15.148
		c-7.084,7.385-13.09,11.582-15.092,11.591l-0.267-0.233l-0.658,0.753l1.594,1.391c4.903-0.923,13.955-10.125,15.866-12.117
		c1.868-1.948,10.497-11.17,11.185-15.995L34.375,24.171z"/>
</g>
<g>
</g>
<g>
</g>
<g>
</g>
<g>
</g>
<g>
</g>
<g>
</g>
<g>
</g>
<g>
</g>
<g>
</g>
<g>
</g>
<g>
</g>
<g>
</g>
<g>
</g>
<g>
</g>
<g>
</g>
</svg>
