<?xml version="1.0" encoding="iso-8859-1"?>
<!-- Generator: Adobe Illustrator 18.0.0, SVG Export Plug-In . SVG Version: 6.00 Build 0)  -->
<!DOCTYPE svg PUBLIC "-//W3C//DTD SVG 1.1//EN" "http://www.w3.org/Graphics/SVG/1.1/DTD/svg11.dtd">
<svg version="1.1" id="Capa_1" xmlns="http://www.w3.org/2000/svg" xmlns:xlink="http://www.w3.org/1999/xlink" x="0px" y="0px"
	 viewBox="0 0 45.125 45.125" style="enable-background:new 0 0 45.125 45.125;" xml:space="preserve">
<g>
	<path style="fill:#6A3311;" d="M36.76,10.075v-0.99H8.365v1.003c-0.738,2.496-4.302,3.588-4.302,9.322v14.628
		c0,6.123,4.964,11.086,11.086,11.086h11.286h3.541c6.123,0,11.086-4.964,11.086-11.086V19.411
		C41.062,13.667,37.484,12.588,36.76,10.075z"/>
	<path style="fill:#A46F3E;" d="M10.062,35.038c-0.553,0-1-0.447-1-1V19.41c0-3.384,1.182-5.333,2.212-6.653
		c0.339-0.436,0.967-0.515,1.403-0.173c0.436,0.339,0.513,0.968,0.173,1.403c-0.884,1.134-1.788,2.664-1.788,5.423v14.628
		C11.062,34.591,10.615,35.038,10.062,35.038z"/>
	<path style="fill:#FFFFFF;" d="M40.014,36H24.062V19h16.424c0.318,0,0.576,0.258,0.576,0.576v15.375
		C41.062,35.53,40.593,36,40.014,36z"/>
	<path style="fill:#E22F37;" d="M40.014,30.944h-9.047v-6.921h9.52c0.318,0,0.576,0.258,0.576,0.576v5.296
		C41.062,30.475,40.593,30.944,40.014,30.944z"/>
	<path style="fill:#E6E6E6;" d="M37.948,9H7.162C6.002,9,5.062,8.06,5.062,6.901V2.099C5.062,0.94,6.002,0,7.162,0l30.786,0
		c1.159,0,2.099,0.94,2.099,2.099v4.802C40.047,8.06,39.107,9,37.948,9z"/>
</g>
<g>
</g>
<g>
</g>
<g>
</g>
<g>
</g>
<g>
</g>
<g>
</g>
<g>
</g>
<g>
</g>
<g>
</g>
<g>
</g>
<g>
</g>
<g>
</g>
<g>
</g>
<g>
</g>
<g>
</g>
</svg>
