<?xml version="1.0" encoding="iso-8859-1"?>
<!-- Generator: Adobe Illustrator 18.0.0, SVG Export Plug-In . SVG Version: 6.00 Build 0)  -->
<!DOCTYPE svg PUBLIC "-//W3C//DTD SVG 1.1//EN" "http://www.w3.org/Graphics/SVG/1.1/DTD/svg11.dtd">
<svg version="1.1" id="Capa_1" xmlns="http://www.w3.org/2000/svg" xmlns:xlink="http://www.w3.org/1999/xlink" x="0px" y="0px"
	 viewBox="0 0 55.052 55.052" style="enable-background:new 0 0 55.052 55.052;" xml:space="preserve">
<g>
	<path style="fill:#D2D5D7;" d="M27.026,26.052c-8.008,0-14.5-2.686-14.5-6v29c0,3.314,6.492,6,14.5,6s14.5-2.686,14.5-6v-29
		C41.526,23.366,35.034,26.052,27.026,26.052z"/>
	<path style="fill:#3DABEF;" d="M27.026,31c-8.008,0-14.5-2.686-14.5-6v19.052c0,3.314,6.492,6.948,14.5,6.948
		s14.5-3.634,14.5-6.948V25C41.526,28.314,35.034,31,27.026,31z"/>
	<path style="fill:#6A3311;" d="M31.076,14.294c-1.287-0.155-2.643-0.242-4.05-0.242c-8.008,0-14.5,2.686-14.5,6s6.492,6,14.5,6
		c7.197,0,13.153-2.172,14.289-5.017C39.368,20.922,35.336,18.288,31.076,14.294z"/>
	<path style="fill:#D2D5D7;" d="M34.371,8.155c-5.663-5.663-11.315-9.191-12.624-7.882c-0.697,0.697-0.014,2.63,1.622,5.133
		L27.526,6L25.65,8.502c1.147,1.412,2.486,2.902,3.979,4.396c5.663,5.663,11.315,9.191,12.624,7.882
		C43.563,19.469,40.034,13.817,34.371,8.155z"/>
	<path style="fill:#A46F3E;" d="M15.527,22c-0.348,0-0.685-0.181-0.869-0.504c-0.274-0.479-0.107-1.09,0.372-1.364l7-4
		c0.479-0.276,1.09-0.107,1.364,0.372s0.107,1.09-0.372,1.364l-7,4C15.866,21.958,15.695,22,15.527,22z"/>
	<path style="fill:#A46F3E;" d="M19.527,24c-0.323,0-0.641-0.156-0.833-0.445c-0.307-0.46-0.183-1.08,0.277-1.387l9-6
		c0.46-0.306,1.08-0.183,1.387,0.277s0.183,1.08-0.277,1.387l-9,6C19.91,23.945,19.717,24,19.527,24z"/>
	<path style="fill:#A46F3E;" d="M24.527,25c-0.305,0-0.604-0.138-0.801-0.4c-0.332-0.441-0.242-1.068,0.2-1.399l8-6
		c0.441-0.332,1.067-0.244,1.399,0.2c0.332,0.441,0.242,1.068-0.2,1.399l-8,6C24.946,24.935,24.736,25,24.527,25z"/>
	<path style="fill:#A46F3E;" d="M30.527,25c-0.294,0-0.584-0.128-0.782-0.375c-0.345-0.432-0.274-1.061,0.156-1.406l5-4
		c0.433-0.345,1.061-0.274,1.406,0.156c0.345,0.432,0.274,1.061-0.156,1.406l-5,4C30.966,24.929,30.746,25,30.527,25z"/>
	<path style="fill:#F9D70B;" d="M16.526,34c-1.645-0.386-2.941-0.841-4-1.25v9.379c0.486,0.299,0.989,0.592,1.527,0.87
		c8.723,4.507,11.882,2.324,11.473-1C24.776,35.917,23.276,35.583,16.526,34z"/>
</g>
<g>
</g>
<g>
</g>
<g>
</g>
<g>
</g>
<g>
</g>
<g>
</g>
<g>
</g>
<g>
</g>
<g>
</g>
<g>
</g>
<g>
</g>
<g>
</g>
<g>
</g>
<g>
</g>
<g>
</g>
</svg>
