<?xml version="1.0" encoding="iso-8859-1"?>
<!-- Generator: Adobe Illustrator 18.0.0, SVG Export Plug-In . SVG Version: 6.00 Build 0)  -->
<!DOCTYPE svg PUBLIC "-//W3C//DTD SVG 1.1//EN" "http://www.w3.org/Graphics/SVG/1.1/DTD/svg11.dtd">
<svg version="1.1" id="Capa_1" xmlns="http://www.w3.org/2000/svg" xmlns:xlink="http://www.w3.org/1999/xlink" x="0px" y="0px"
	 viewBox="0 0 53.74 53.74" style="enable-background:new 0 0 53.74 53.74;" xml:space="preserve">
<g>
	<path style="fill:#6A3311;" d="M48.79,19.092l4.155-1.781c0.482-0.207,0.795-0.681,0.795-1.206V14.04
		c0-0.724-0.587-1.312-1.312-1.312h-1.619c-0.724,0-1.312-0.587-1.312-1.312V9.797c0-0.724-0.587-1.312-1.312-1.312h-1.619
		c-0.724,0-1.312-0.587-1.312-1.312V5.554c0-0.724-0.587-1.312-1.312-1.312h-1.619c-0.724,0-1.312-0.587-1.312-1.312V1.312
		C41.012,0.587,40.425,0,39.7,0l-2.066,0c-0.525,0-0.999,0.313-1.206,0.795L34.648,4.95l0,0
		C25.712,15.768,15.768,25.712,4.95,34.648l0,0l-4.186,1.794C0.3,36.641,0,37.096,0,37.6l0,2.153c0,0.696,0.564,1.26,1.26,1.26
		h1.724c0.696,0,1.26,0.564,1.26,1.26v1.724c0,0.696,0.564,1.26,1.26,1.26h1.724c0.696,0,1.26,0.564,1.26,1.26v1.724
		c0,0.696,0.564,1.26,1.26,1.26h1.724c0.696,0,1.26,0.564,1.26,1.26v1.724c0,0.696,0.564,1.26,1.26,1.26h2.153
		c0.504,0,0.959-0.3,1.158-0.763l1.794-4.186l0,0C28.028,37.973,37.973,28.028,48.79,19.092L48.79,19.092z"/>
	<path style="fill:#A46F3E;" d="M36.77,9.485c-0.256,0-0.512-0.098-0.707-0.293c-0.391-0.391-0.391-1.023,0-1.414l1.414-1.414
		c0.391-0.391,1.023-0.391,1.414,0s0.391,1.023,0,1.414l-1.414,1.414C37.281,9.387,37.025,9.485,36.77,9.485z"/>
	<path style="fill:#A46F3E;" d="M39.598,12.314c-0.256,0-0.512-0.098-0.707-0.293c-0.391-0.39-0.391-1.023,0-1.414l1.414-1.415
		c0.391-0.391,1.023-0.391,1.414,0c0.391,0.39,0.391,1.023,0,1.414l-1.414,1.415C40.109,12.216,39.854,12.314,39.598,12.314z"/>
	<path style="fill:#A46F3E;" d="M42.427,15.142c-0.256,0-0.512-0.098-0.707-0.293c-0.391-0.391-0.391-1.023,0-1.414l1.414-1.414
		c0.391-0.391,1.023-0.391,1.414,0s0.391,1.023,0,1.414l-1.414,1.414C42.939,15.045,42.683,15.142,42.427,15.142z"/>
	<path style="fill:#A46F3E;" d="M45.255,17.97c-0.256,0-0.512-0.098-0.707-0.293c-0.391-0.391-0.391-1.023,0-1.414l1.414-1.414
		c0.391-0.391,1.023-0.391,1.414,0s0.391,1.023,0,1.414l-1.414,1.414C45.767,17.873,45.511,17.97,45.255,17.97z"/>
	<path style="fill:#A46F3E;" d="M7.071,39.183c-0.256,0-0.512-0.098-0.707-0.293c-0.391-0.391-0.391-1.023,0-1.414l1.414-1.414
		c0.391-0.391,1.023-0.391,1.414,0s0.391,1.023,0,1.414L7.778,38.89C7.583,39.086,7.327,39.183,7.071,39.183z"/>
	<path style="fill:#A46F3E;" d="M9.9,42.012c-0.256,0-0.512-0.098-0.707-0.293c-0.391-0.391-0.391-1.023,0-1.414l1.414-1.414
		c0.391-0.391,1.023-0.391,1.414,0s0.391,1.023,0,1.414l-1.414,1.414C10.411,41.915,10.155,42.012,9.9,42.012z"/>
	<path style="fill:#A46F3E;" d="M12.728,44.841c-0.256,0-0.512-0.098-0.707-0.293c-0.391-0.391-0.391-1.023,0-1.414l1.414-1.414
		c0.391-0.391,1.023-0.391,1.414,0s0.391,1.023,0,1.414l-1.414,1.414C13.239,44.743,12.983,44.841,12.728,44.841z"/>
	<path style="fill:#A46F3E;" d="M15.557,47.669c-0.256,0-0.512-0.098-0.707-0.293c-0.391-0.391-0.391-1.023,0-1.414l1.414-1.414
		c0.391-0.391,1.023-0.391,1.414,0s0.391,1.023,0,1.414l-1.414,1.414C16.068,47.571,15.813,47.669,15.557,47.669z"/>
	<path style="fill:#F9D70B;" d="M28.168,38.494c4.811-5.14,9.865-10.047,15.145-14.707l-17.741-8.542
		c-4.811,5.14-9.865,10.047-15.145,14.707L28.168,38.494z"/>
	<circle style="fill:#ED3F32;" cx="27.577" cy="26.87" r="5.5"/>
</g>
<g>
</g>
<g>
</g>
<g>
</g>
<g>
</g>
<g>
</g>
<g>
</g>
<g>
</g>
<g>
</g>
<g>
</g>
<g>
</g>
<g>
</g>
<g>
</g>
<g>
</g>
<g>
</g>
<g>
</g>
</svg>
