<?xml version="1.0" encoding="iso-8859-1"?>
<!-- Generator: Adobe Illustrator 18.0.0, SVG Export Plug-In . SVG Version: 6.00 Build 0)  -->
<!DOCTYPE svg PUBLIC "-//W3C//DTD SVG 1.1//EN" "http://www.w3.org/Graphics/SVG/1.1/DTD/svg11.dtd">
<svg version="1.1" id="Capa_1" xmlns="http://www.w3.org/2000/svg" xmlns:xlink="http://www.w3.org/1999/xlink" x="0px" y="0px"
	 viewBox="0 0 57 57" style="enable-background:new 0 0 57 57;" xml:space="preserve">
<g>
	<path style="fill:#F9EA80;" d="M44.5,5.5c-0.501,0-0.992,0.033-1.478,0.084C41.876,3.735,39.835,2.5,37.5,2.5
		c-1.502,0-2.881,0.514-3.981,1.37v0c-0.142-0.173-0.294-0.337-0.454-0.494c-0.047-0.046-0.098-0.088-0.147-0.133
		c-0.114-0.106-0.23-0.211-0.351-0.308c-0.065-0.052-0.133-0.1-0.2-0.149c-0.112-0.083-0.225-0.165-0.343-0.241
		c-0.075-0.049-0.153-0.094-0.23-0.14c-0.116-0.068-0.233-0.133-0.353-0.195c-0.083-0.042-0.166-0.082-0.25-0.121
		c-0.123-0.056-0.247-0.107-0.374-0.155c-0.086-0.033-0.172-0.066-0.26-0.095c-0.132-0.044-0.267-0.082-0.403-0.117
		c-0.086-0.023-0.172-0.047-0.259-0.067c-0.151-0.033-0.305-0.057-0.459-0.079c-0.076-0.011-0.151-0.026-0.227-0.035
		C28.976,1.515,28.74,1.5,28.5,1.5s-0.476,0.015-0.709,0.04c-0.077,0.008-0.151,0.024-0.227,0.035
		c-0.155,0.022-0.308,0.046-0.459,0.079c-0.088,0.019-0.173,0.044-0.259,0.067c-0.136,0.036-0.271,0.073-0.403,0.117
		c-0.088,0.029-0.174,0.062-0.26,0.095c-0.126,0.048-0.251,0.099-0.374,0.155c-0.084,0.039-0.168,0.079-0.25,0.121
		c-0.12,0.061-0.237,0.126-0.353,0.195c-0.078,0.046-0.155,0.091-0.23,0.14c-0.118,0.076-0.231,0.158-0.343,0.241
		c-0.067,0.05-0.135,0.097-0.2,0.149c-0.122,0.098-0.237,0.202-0.351,0.308c-0.049,0.045-0.1,0.087-0.147,0.133
		c-0.159,0.157-0.311,0.321-0.454,0.494v0C22.381,3.014,21.002,2.5,19.5,2.5c-2.335,0-4.376,1.235-5.522,3.084
		C13.492,5.533,13.001,5.5,12.5,5.5C5.596,5.5,0,10.425,0,16.5c0,3.616,1.991,6.814,5.052,8.819C5.458,28.799,8.412,31.5,12,31.5
		c1.193,0,2.314-0.3,3.297-0.826C16.541,31.805,18.187,32.5,20,32.5c1.451,0,2.794-0.448,3.91-1.204
		C25.187,32.65,26.992,33.5,29,33.5c1.815,0,3.464-0.697,4.708-1.83c0.982,0.526,2.1,0.83,3.292,0.83
		c1.813,0,3.459-0.695,4.703-1.826C42.686,31.2,43.807,31.5,45,31.5c3.588,0,6.542-2.701,6.948-6.181
		C55.009,23.314,57,20.116,57,16.5C57,10.425,51.404,5.5,44.5,5.5z"/>
	<path style="fill:#436B1C;" d="M37,32.5l-6,11V33.206c-0.634,0.19-1.304,0.294-2,0.294c-0.59,0-1.16-0.081-1.707-0.22L27,47.5
		l-5.348-15.218C21.121,32.412,20.572,32.5,20,32.5c-1.521,0-2.921-0.494-4.067-1.318l6.545,18.818
		c0.274,0.787,0.437,1.604,0.628,2.415C23.522,54.178,25.114,55.5,27,55.5h4c1.886,0,3.478-1.322,3.894-3.086
		c0.208-0.882,0.368-1.775,0.632-2.643l5.689-18.692C40.043,31.969,38.585,32.5,37,32.5z"/>
	<path style="fill:#D7CC56;" d="M9.991,20.744c-0.904,0-1.822-0.205-2.685-0.638c-2.955-1.485-4.151-5.099-2.667-8.055
		c0.248-0.493,0.846-0.693,1.343-0.445c0.493,0.248,0.692,0.849,0.444,1.342c-0.99,1.971-0.192,4.38,1.778,5.37
		c1.972,0.991,4.379,0.192,5.37-1.778c0.247-0.493,0.847-0.693,1.343-0.444c0.493,0.248,0.692,0.849,0.444,1.343
		C14.31,19.533,12.189,20.744,9.991,20.744z"/>
	<path style="fill:#D7CC56;" d="M19.934,28.278c-1.195,0-2.361-0.357-3.369-1.046c-1.324-0.903-2.217-2.268-2.514-3.843
		c-0.103-0.543,0.254-1.066,0.797-1.168c0.543-0.1,1.066,0.255,1.168,0.797c0.198,1.05,0.793,1.96,1.676,2.562
		c0.882,0.603,1.947,0.824,2.996,0.627c2.167-0.409,3.598-2.505,3.189-4.673c-0.103-0.543,0.254-1.066,0.797-1.168
		c0.543-0.098,1.066,0.255,1.168,0.797c0.613,3.251-1.532,6.396-4.783,7.009C20.684,28.243,20.307,28.278,19.934,28.278z"/>
	<path style="fill:#D7CC56;" d="M36.589,17.499c-2.312,0-4.52-1.343-5.505-3.592c-0.222-0.506,0.009-1.096,0.515-1.317
		c0.509-0.22,1.097,0.009,1.317,0.515c0.886,2.02,3.248,2.944,5.269,2.059c0.979-0.429,1.731-1.213,2.121-2.208
		c0.389-0.995,0.366-2.083-0.063-3.061c-0.222-0.506,0.009-1.096,0.515-1.317c0.51-0.222,1.097,0.01,1.317,0.515
		c0.644,1.468,0.676,3.099,0.093,4.592s-1.713,2.669-3.181,3.312C38.206,17.337,37.392,17.499,36.589,17.499z"/>
	<path style="fill:#D7CC56;" d="M36.992,28.704c-0.801,0-1.615-0.161-2.395-0.502c-1.469-0.642-2.599-1.817-3.184-3.31
		c-0.584-1.493-0.553-3.123,0.09-4.592c0.221-0.506,0.811-0.738,1.316-0.515c0.506,0.221,0.737,0.811,0.516,1.317
		c-0.428,0.979-0.449,2.065-0.06,3.061c0.39,0.995,1.144,1.778,2.122,2.207c2.023,0.882,4.385-0.042,5.269-2.063
		c0.22-0.506,0.811-0.739,1.316-0.515c0.506,0.221,0.737,0.811,0.516,1.317C41.515,27.358,39.306,28.704,36.992,28.704z"/>
	<path style="fill:#D7CC56;" d="M22.008,17.769c-1.857,0-3.689-0.857-4.861-2.47c-0.325-0.447-0.226-1.072,0.221-1.397
		c0.447-0.324,1.072-0.226,1.396,0.221c1.298,1.784,3.803,2.18,5.588,0.884c0.864-0.628,1.432-1.555,1.599-2.61
		c0.167-1.056-0.087-2.113-0.715-2.977c-0.325-0.447-0.227-1.072,0.221-1.397c0.447-0.324,1.072-0.226,1.396,0.221
		c0.942,1.296,1.324,2.882,1.073,4.465c-0.25,1.583-1.102,2.974-2.398,3.916C24.465,17.397,23.231,17.769,22.008,17.769z"/>
	<path style="fill:#D7CC56;" d="M47.004,21.78c-1.677,0-3.345-0.697-4.529-2.057c-0.363-0.417-0.319-1.048,0.098-1.411
		c0.412-0.362,1.047-0.32,1.41,0.097c1.45,1.664,3.981,1.838,5.645,0.39c0.806-0.702,1.29-1.675,1.363-2.741
		c0.074-1.066-0.272-2.097-0.974-2.902c-0.363-0.417-0.319-1.048,0.098-1.411c0.415-0.363,1.047-0.321,1.41,0.097
		c1.053,1.208,1.571,2.755,1.461,4.354c-0.11,1.599-0.837,3.059-2.046,4.112C49.806,21.296,48.401,21.78,47.004,21.78z"/>
</g>
<g>
</g>
<g>
</g>
<g>
</g>
<g>
</g>
<g>
</g>
<g>
</g>
<g>
</g>
<g>
</g>
<g>
</g>
<g>
</g>
<g>
</g>
<g>
</g>
<g>
</g>
<g>
</g>
<g>
</g>
</svg>
