<?xml version="1.0" encoding="iso-8859-1"?>
<!-- Generator: Adobe Illustrator 18.0.0, SVG Export Plug-In . SVG Version: 6.00 Build 0)  -->
<!DOCTYPE svg PUBLIC "-//W3C//DTD SVG 1.1//EN" "http://www.w3.org/Graphics/SVG/1.1/DTD/svg11.dtd">
<svg version="1.1" id="Capa_1" xmlns="http://www.w3.org/2000/svg" xmlns:xlink="http://www.w3.org/1999/xlink" x="0px" y="0px"
	 viewBox="0 0 56.048 56.048" style="enable-background:new 0 0 56.048 56.048;" xml:space="preserve">
<g>
	<path style="fill:#F4C647;" d="M45,19.524v5.509l4.776,0.628l-0.002-11.393c-0.078-3.176-11.188-6.744-24.885-6.744
		c-13.698,0-24.808,3.569-24.885,6.744L0,32.524c0,3.191,10.736,7.111,24.482,7.111c0.174,0,0.345-0.002,0.518-0.003V21.524
		l-4.704-7.222L45,19.524z"/>
	<path style="fill:#F9E295;" d="M25,31.524v-10l-4.704-7.222L45,19.524v5.509l-14-1.509v10C31,33.524,24.979,31.499,25,31.524z"/>
	<path style="fill:#EEAF4B;" d="M24.889,7.524C11.143,7.524,0,11.111,0,14.302s10.736,7.222,24.481,7.222
		c0.173,0,0.344-0.002,0.516-0.003l-4.701-7.219l25.045,5.222c2.794-0.934,4.436-3.999,4.436-5.222
		C49.778,11.111,38.635,7.524,24.889,7.524z"/>
	<path style="fill:#F4C647;" d="M36,28.971v19.553c8.263-0.039,15.646-1.013,20.048-2.485V26.485L31,23.194L36,28.971z"/>
	<path style="fill:#EEAF4B;" d="M31.048,23.194l4.997,5.774c8.228-0.05,15.571-1.026,19.943-2.497L31.048,23.194z"/>
	<polygon style="fill:#FCDF76;" points="36,28.971 36,48.524 31,42.524 31,23.194 	"/>
</g>
<g>
</g>
<g>
</g>
<g>
</g>
<g>
</g>
<g>
</g>
<g>
</g>
<g>
</g>
<g>
</g>
<g>
</g>
<g>
</g>
<g>
</g>
<g>
</g>
<g>
</g>
<g>
</g>
<g>
</g>
</svg>
