<?xml version="1.0" encoding="iso-8859-1"?>
<!-- Generator: Adobe Illustrator 18.0.0, SVG Export Plug-In . SVG Version: 6.00 Build 0)  -->
<!DOCTYPE svg PUBLIC "-//W3C//DTD SVG 1.1//EN" "http://www.w3.org/Graphics/SVG/1.1/DTD/svg11.dtd">
<svg version="1.1" id="Capa_1" xmlns="http://www.w3.org/2000/svg" xmlns:xlink="http://www.w3.org/1999/xlink" x="0px" y="0px"
	 viewBox="0 0 48.584 48.584" style="enable-background:new 0 0 48.584 48.584;" xml:space="preserve">
<g>
	<path style="fill:#F9DA49;" d="M15.308,40.898c-7.187,0-13.19-4.095-14.655-10.588c-0.224,0.661-0.345,1.512-0.345,2.61
		c0,8.284,6.716,13.723,15,13.723s15-5.439,15-13.723c0-1.097-0.121-1.949-0.345-2.61C28.498,36.803,22.495,40.898,15.308,40.898z"
		/>
	<path style="fill:#F9EA80;" d="M30.308,4.609c0,8.284-6.716,13.723-15,13.723s-15-5.439-15-13.723s6.716-2.872,15-2.872
		S30.308-3.675,30.308,4.609z"/>
	<path style="fill:#F9DA49;" d="M15.308,18.332c-7.187,0-13.19-4.095-14.655-10.588c-0.224,0.661-0.345,1.512-0.345,2.61
		c0,8.284,6.716,13.723,15,13.723s15-5.439,15-13.723c0-1.097-0.121-1.949-0.345-2.61C28.498,14.237,22.495,18.332,15.308,18.332z"
		/>
	<g>
		<path style="fill:#F9EA80;" d="M15.308,24.077c-7.187,0-13.19-4.095-14.655-10.588c-0.224,0.661-0.345,1.512-0.345,2.61
			c0,8.284,6.716,13.723,15,13.723s15-5.439,15-13.723c0-1.097-0.121-1.949-0.345-2.61C28.498,19.982,22.495,24.077,15.308,24.077z"
			/>
	</g>
	<path style="fill:#F9DA49;" d="M15.308,29.822c-7.187,0-13.19-4.095-14.655-10.588c-0.224,0.661-0.345,1.512-0.345,2.61
		c0,8.284,6.716,13.723,15,13.723s15-5.439,15-13.723c0-1.097-0.121-1.949-0.345-2.61C28.498,25.726,22.495,29.822,15.308,29.822z"
		/>
	<path style="fill:#F9EA80;" d="M15.308,35.566c-7.279,0-13.343-4.201-14.709-10.841c-0.19,0.637-0.291,1.44-0.291,2.449
		c0,8.284,6.716,13.723,15,13.723s15-5.439,15-13.723c0-1.009-0.101-1.812-0.291-2.449C28.652,31.365,22.588,35.566,15.308,35.566z"
		/>
	<circle style="fill:#F1B501;" cx="9.808" cy="7.5" r="2.5"/>
	<circle style="fill:#F9D70B;" cx="19.808" cy="11.5" r="1.5"/>
	<circle style="fill:#EEAF4B;" cx="22.308" cy="6" r="1"/>
	<circle style="fill:#DC9628;" cx="14.308" cy="14" r="1"/>
	<circle style="fill:#F9DA49;" cx="4.308" cy="4" r="1"/>
	<path style="fill:#F9DA49;" d="M37.835,39.329c-0.286-0.19-0.668-0.118-0.868,0.161c-0.345,0.484-0.783,1.195-0.625,1.51
		c0.167,0.333,1.445,1.556,2.279,2.334c0.337,0.314,0.886,0.174,1.031-0.263l0.538-1.613c0.09-0.271-0.012-0.568-0.249-0.726
		L37.835,39.329z"/>
	<path style="fill:#F9DA49;" d="M46.416,45.254c0.372-0.161,0.804-0.089,1.101,0.186c0.416,0.385,0.904,0.918,0.718,1.16
		c-0.202,0.262-1.726,1.211-2.752,1.835c-0.509,0.309-1.17,0.121-1.442-0.409l-0.233-0.453c-0.27-0.527-0.039-1.172,0.504-1.408
		L46.416,45.254z"/>
	<path style="fill:#F9DA49;" d="M45.738,36h-1.706c-0.737,0-1.177-0.821-0.768-1.435l0.846-1.269
		c0.127-0.191,0.321-0.328,0.544-0.383l1.708-0.427c0.765-0.191,1.402,0.603,1.049,1.308l-0.848,1.696
		C46.407,35.803,46.088,36,45.738,36z"/>
</g>
<g>
</g>
<g>
</g>
<g>
</g>
<g>
</g>
<g>
</g>
<g>
</g>
<g>
</g>
<g>
</g>
<g>
</g>
<g>
</g>
<g>
</g>
<g>
</g>
<g>
</g>
<g>
</g>
<g>
</g>
</svg>
