<?xml version="1.0" encoding="iso-8859-1"?>
<!-- Generator: Adobe Illustrator 18.0.0, SVG Export Plug-In . SVG Version: 6.00 Build 0)  -->
<!DOCTYPE svg PUBLIC "-//W3C//DTD SVG 1.1//EN" "http://www.w3.org/Graphics/SVG/1.1/DTD/svg11.dtd">
<svg version="1.1" id="Capa_1" xmlns="http://www.w3.org/2000/svg" xmlns:xlink="http://www.w3.org/1999/xlink" x="0px" y="0px"
	 viewBox="0 0 46.325 46.325" style="enable-background:new 0 0 46.325 46.325;" xml:space="preserve">
<g>
	<path style="fill:#7F532F;" d="M39.532,37.543c-9.422,9.422-31.209,11.17-36.557,5.687c-4.942-4.942-3.735-27.135,5.687-36.557
		S29.298-1.936,38.72,7.486S48.954,28.122,39.532,37.543z"/>
	<path style="fill:#A46F3E;" d="M7.036,40.168c-0.457,0-0.87-0.316-0.975-0.781c-3.507-15.61,4.673-27.887,5.022-28.402
		c0.311-0.457,0.931-0.574,1.389-0.265c0.456,0.31,0.575,0.932,0.266,1.389c-0.08,0.119-8.037,12.099-4.726,26.84
		c0.121,0.539-0.218,1.074-0.757,1.195C7.183,40.16,7.109,40.168,7.036,40.168z"/>
	<circle style="fill:#4C312C;" cx="26.146" cy="8.656" r="2.298"/>
	<circle style="fill:#4C312C;" cx="33.033" cy="9.923" r="2.298"/>
	<circle style="fill:#4C312C;" cx="28.159" cy="14.797" r="2.298"/>
</g>
<g>
</g>
<g>
</g>
<g>
</g>
<g>
</g>
<g>
</g>
<g>
</g>
<g>
</g>
<g>
</g>
<g>
</g>
<g>
</g>
<g>
</g>
<g>
</g>
<g>
</g>
<g>
</g>
<g>
</g>
</svg>
