<?xml version="1.0" encoding="iso-8859-1"?>
<!-- Generator: Adobe Illustrator 18.0.0, SVG Export Plug-In . SVG Version: 6.00 Build 0)  -->
<!DOCTYPE svg PUBLIC "-//W3C//DTD SVG 1.1//EN" "http://www.w3.org/Graphics/SVG/1.1/DTD/svg11.dtd">
<svg version="1.1" id="Capa_1" xmlns="http://www.w3.org/2000/svg" xmlns:xlink="http://www.w3.org/1999/xlink" x="0px" y="0px"
	 viewBox="0 0 54.5 54.5" style="enable-background:new 0 0 54.5 54.5;" xml:space="preserve">
<g>
	<g>
		<path style="fill:#DAE7EF;" d="M38.155,17h-27.31C4.596,21.062,0.5,29.831,0.5,37.5c0,6.626,3.056,11.444,7.917,14.5h32.166
			c4.861-3.056,7.917-7.874,7.917-14.5C48.5,29.831,44.404,21.062,38.155,17z"/>
		<path style="fill:#BBD7EA;" d="M40.728,52.5H8.272l-0.121-0.077C2.818,49.071,0,43.911,0,37.5c0-8.14,4.446-16.938,10.573-20.919
			l0.124-0.081h27.605l0.124,0.081C44.554,20.563,49,29.36,49,37.5c0,6.411-2.818,11.571-8.151,14.923L40.728,52.5z M8.563,51.5
			h31.875C45.386,48.339,48,43.501,48,37.5c0-7.771-4.196-16.152-9.995-20h-27.01C5.196,21.348,1,29.729,1,37.5
			C1,43.501,3.614,48.339,8.563,51.5z"/>
	</g>
	<path style="fill:#E6E6E6;" d="M31.5,14v-2h-21v5h28v-2.467c0-0.294-0.238-0.533-0.533-0.533H31.5z"/>
	<path style="fill:#546A79;" d="M34.133,9h1.735C37.321,9,38.5,7.821,38.5,6.367V2l-34,4l6,6h21v-0.367
		C31.5,10.179,32.679,9,34.133,9z"/>
	<path style="fill:#38454F;" d="M36.65,9h-2.517c-1.454,0-2.633,1.179-2.633,2.633V14h5.731c6.866,0,12.81,5.212,13.24,12.065
		c0.018,0.294,0.028,0.593,0.029,0.898c0.002,0.962,0.693,1.841,1.641,2.006C53.404,29.188,54.5,28.222,54.5,27
		c0-0.159-0.001-0.316-0.003-0.472C54.361,16.795,46.384,9,36.65,9z"/>
	<path style="fill:#4C312C;" d="M8.417,52h32.166c3.819-2.401,6.516-5.895,7.5-10.494c-1.665-1.216-4.055-1.12-5.583,0.321
		c-1.658,1.563-4.342,1.563-6,0c-1.658-1.563-4.342-1.563-6,0c-1.658,1.563-4.342,1.563-6,0c-1.658-1.563-4.342-1.563-6,0
		c-1.658,1.563-4.342,1.563-6,0c-1.658-1.563-4.342-1.563-6,0c-1.472,1.388-3.748,1.537-5.401,0.461
		C2.211,46.504,4.817,49.737,8.417,52z"/>
	<path style="fill:#BBD7EA;" d="M17.5,36h-7c-0.553,0-1-0.447-1-1s0.447-1,1-1h7c0.553,0,1,0.447,1,1S18.053,36,17.5,36z"/>
	<path style="fill:#BBD7EA;" d="M17.5,32h-5c-0.553,0-1-0.447-1-1s0.447-1,1-1h5c0.553,0,1,0.447,1,1S18.053,32,17.5,32z"/>
	<path style="fill:#BBD7EA;" d="M17.5,28h-7c-0.553,0-1-0.447-1-1s0.447-1,1-1h7c0.553,0,1,0.447,1,1S18.053,28,17.5,28z"/>
	<path style="fill:#BBD7EA;" d="M17.5,24h-5c-0.553,0-1-0.447-1-1s0.447-1,1-1h5c0.553,0,1,0.447,1,1S18.053,24,17.5,24z"/>
</g>
<g>
</g>
<g>
</g>
<g>
</g>
<g>
</g>
<g>
</g>
<g>
</g>
<g>
</g>
<g>
</g>
<g>
</g>
<g>
</g>
<g>
</g>
<g>
</g>
<g>
</g>
<g>
</g>
<g>
</g>
</svg>
