<?xml version="1.0" encoding="iso-8859-1"?>
<!-- Generator: Adobe Illustrator 18.0.0, SVG Export Plug-In . SVG Version: 6.00 Build 0)  -->
<!DOCTYPE svg PUBLIC "-//W3C//DTD SVG 1.1//EN" "http://www.w3.org/Graphics/SVG/1.1/DTD/svg11.dtd">
<svg version="1.1" id="Capa_1" xmlns="http://www.w3.org/2000/svg" xmlns:xlink="http://www.w3.org/1999/xlink" x="0px" y="0px"
	 viewBox="0 0 54.5 54.5" style="enable-background:new 0 0 54.5 54.5;" xml:space="preserve">
<g>
	<g>
		<path style="fill:#546A79;" d="M32.25,4.5h-16v0c0-2.209,1.791-4,4-4h8C30.459,0.5,32.25,2.291,32.25,4.5L32.25,4.5z"/>
		<path style="fill:#546A79;" d="M32.75,5h-17V4.5c0-2.481,2.019-4.5,4.5-4.5h8c2.481,0,4.5,2.019,4.5,4.5V5z M16.786,4h14.929
			c-0.243-1.694-1.704-3-3.464-3h-8C18.49,1,17.029,2.306,16.786,4z"/>
	</g>
	<path style="fill:#D2D5D7;" d="M36.7,54.5H11.8c-2.805,0-4.851-2.654-4.137-5.367L12.25,35.5h24l4.588,13.633
		C41.551,51.846,39.505,54.5,36.7,54.5z"/>
	<rect x="14.25" y="31.5" style="fill:#E6E6E6;" width="20" height="4"/>
	<path style="fill:#D2D5D7;" d="M35.25,10.5L35.25,10.5c0-1.657,1.343-3,3-3h3.333l0.667-3H5.387c-1.18,0-2.137,0.957-2.137,2.137v0
		c0,0.983,0.678,1.818,1.629,2.069C13.514,10.985,12.25,31.5,12.25,31.5h24l4-18h-2C36.593,13.5,35.25,12.157,35.25,10.5z"/>
	<path style="fill:#E6E6E6;" d="M12.432,48.5c-0.105,0-0.213-0.017-0.319-0.052c-0.523-0.177-0.805-0.744-0.629-1.268l2.692-8
		c0.176-0.522,0.739-0.806,1.267-0.629c0.523,0.177,0.805,0.744,0.629,1.268l-2.692,8C13.239,48.236,12.85,48.5,12.432,48.5z"/>
	<path style="fill:#E6E6E6;" d="M36.066,48.495c-0.418,0-0.807-0.264-0.948-0.681l-2.69-7.995c-0.176-0.523,0.105-1.091,0.629-1.268
		c0.524-0.175,1.091,0.106,1.267,0.629l2.69,7.995c0.176,0.523-0.105,1.091-0.629,1.268C36.28,48.479,36.172,48.495,36.066,48.495z"
		/>
	<path style="fill:#E6E6E6;" d="M33.042,28.5c-0.072,0-0.145-0.008-0.218-0.023c-0.539-0.12-0.879-0.654-0.759-1.193l2.223-10
		c0.12-0.539,0.654-0.873,1.193-0.76c0.539,0.12,0.879,0.654,0.759,1.193l-2.223,10C33.914,28.183,33.5,28.5,33.042,28.5z"/>
	<path style="fill:#E6E6E6;" d="M17.472,28.5c-0.479,0-0.902-0.345-0.985-0.833l-3.223-19c-0.092-0.544,0.274-1.061,0.819-1.153
		c0.543-0.082,1.061,0.275,1.153,0.819l3.223,19c0.092,0.544-0.274,1.061-0.819,1.153C17.583,28.495,17.527,28.5,17.472,28.5z"/>
	<path style="fill:#E6E6E6;" d="M21.25,48.502c-0.552,0-1-0.447-1-1V39.5c0-0.553,0.448-1,1-1s1,0.447,1,1v8.002
		C22.25,48.055,21.802,48.502,21.25,48.502z"/>
	<path style="fill:#E6E6E6;" d="M28.25,48.502c-0.552,0-1-0.447-1-1V39.5c0-0.553,0.448-1,1-1s1,0.447,1,1v8.002
		C29.25,48.055,28.802,48.502,28.25,48.502z"/>
	<path style="fill:#E6E6E6;" d="M22.25,28.5c-0.552,0-1-0.447-1-1v-19c0-0.553,0.448-1,1-1s1,0.447,1,1v19
		C23.25,28.053,22.802,28.5,22.25,28.5z"/>
	<path style="fill:#E6E6E6;" d="M28.25,28.5c-0.552,0-1-0.447-1-1v-19c0-0.553,0.448-1,1-1s1,0.447,1,1v19
		C29.25,28.053,28.802,28.5,28.25,28.5z"/>
	<path style="fill:#E6E6E6;" d="M7.686,50.5c-0.081,0-0.148,0.072-0.14,0.152C7.758,52.756,9.527,54.5,11.8,54.5h24.9
		c2.273,0,4.042-1.744,4.254-3.848c0.008-0.081-0.059-0.152-0.14-0.152H7.686z"/>
	<path style="fill:#546A79;" d="M45.25,7.5h-7c-1.657,0-3,1.343-3,3v0c0,1.657,1.343,3,3,3h5.259c0.962,0,1.741,0.78,1.741,1.741
		V24.5c0,1.657,1.343,3,3,3h0c1.657,0,3-1.343,3-3v-11v0C51.25,10.186,48.564,7.5,45.25,7.5L45.25,7.5z"/>
</g>
<g>
</g>
<g>
</g>
<g>
</g>
<g>
</g>
<g>
</g>
<g>
</g>
<g>
</g>
<g>
</g>
<g>
</g>
<g>
</g>
<g>
</g>
<g>
</g>
<g>
</g>
<g>
</g>
<g>
</g>
</svg>
