<?xml version="1.0" encoding="iso-8859-1"?>
<!-- Generator: Adobe Illustrator 18.0.0, SVG Export Plug-In . SVG Version: 6.00 Build 0)  -->
<!DOCTYPE svg PUBLIC "-//W3C//DTD SVG 1.1//EN" "http://www.w3.org/Graphics/SVG/1.1/DTD/svg11.dtd">
<svg version="1.1" id="Capa_1" xmlns="http://www.w3.org/2000/svg" xmlns:xlink="http://www.w3.org/1999/xlink" x="0px" y="0px"
	 viewBox="0 0 44.951 44.951" style="enable-background:new 0 0 44.951 44.951;" xml:space="preserve">
<g>
	<path style="fill:#D2D5D7;" d="M37.976,12.951h-31c-1.1,0-2-0.9-2-2V7.122c0-1.1,0.9-2,2-2h31c1.1,0,2,0.9,2,2v3.829
		C39.976,12.051,39.076,12.951,37.976,12.951z"/>
	<path style="fill:#E6E6E6;" d="M36.561,5.122H8.39V1.707C8.39,0.764,9.155,0,10.098,0l24.756,1.707
		c0.943,0,1.707,0.764,1.707,1.707V5.122z"/>
	<path style="fill:#659C35;" d="M7.976,12.951l2.998,30.293c0,0.939,0.768,1.707,1.707,1.707h19.634
		c0.939,0,1.707-0.768,1.707-1.707l2.998-30.293H7.976z"/>
	<g>
		<path style="fill:#E6E6E6;" d="M15.691,23.951c1.558-2.07,4.028-3.415,6.818-3.415c2.79,0,5.26,1.345,6.818,3.415l6.695-1.195
			l0.999-9.805H7.976l0.999,9.805L15.691,23.951z"/>
		<path style="fill:#E6E6E6;" d="M29.326,31.951c-1.558,2.07-4.028,3.415-6.818,3.415s-5.26-1.345-6.818-3.415L9.974,33
			l0.999,10.244c0,0.939,0.768,1.707,1.707,1.707h19.634c0.939,0,1.707-0.768,1.707-1.707L35.022,33L29.326,31.951z"/>
	</g>
	<ellipse style="fill:#FFFFFF;" cx="22.476" cy="28" rx="6.5" ry="5.778"/>
</g>
<g>
</g>
<g>
</g>
<g>
</g>
<g>
</g>
<g>
</g>
<g>
</g>
<g>
</g>
<g>
</g>
<g>
</g>
<g>
</g>
<g>
</g>
<g>
</g>
<g>
</g>
<g>
</g>
<g>
</g>
</svg>
