<?xml version="1.0" encoding="iso-8859-1"?>
<!-- Generator: Adobe Illustrator 18.0.0, SVG Export Plug-In . SVG Version: 6.00 Build 0)  -->
<!DOCTYPE svg PUBLIC "-//W3C//DTD SVG 1.1//EN" "http://www.w3.org/Graphics/SVG/1.1/DTD/svg11.dtd">
<svg version="1.1" id="Capa_1" xmlns="http://www.w3.org/2000/svg" xmlns:xlink="http://www.w3.org/1999/xlink" x="0px" y="0px"
	 viewBox="0 0 54 54" style="enable-background:new 0 0 54 54;" xml:space="preserve">
<g>
	<path style="fill:#E6E6E6;" d="M41,10H13c-1.1,0-2-0.9-2-2V7c0-1.1,0.9-2,2-2h28c1.1,0,2,0.9,2,2v1C43,9.1,42.1,10,41,10z"/>
	<polygon style="fill:#D2D5D7;" points="16,5 16,0 20,0 23,5 	"/>
	<g>
		<polygon style="fill:#E6E6E6;" points="41,25 42,20 12,20 13,25 		"/>
		<polygon style="fill:#E6E6E6;" points="14.941,45 16,54 39,54 40,45 		"/>
	</g>
	<polygon style="fill:#F75B57;" points="42,45 13,45 11,25 43,25 	"/>
	<ellipse style="fill:#F9DA49;" cx="27" cy="35" rx="9" ry="6"/>
	<path style="fill:#D2D5D7;" d="M43,20H11c-1.1,0-2-0.9-2-2v-6c0-1.1,0.9-2,2-2h32c1.1,0,2,0.9,2,2v6C45,19.1,44.1,20,43,20z"/>
</g>
<g>
</g>
<g>
</g>
<g>
</g>
<g>
</g>
<g>
</g>
<g>
</g>
<g>
</g>
<g>
</g>
<g>
</g>
<g>
</g>
<g>
</g>
<g>
</g>
<g>
</g>
<g>
</g>
<g>
</g>
</svg>
