<?xml version="1.0" encoding="iso-8859-1"?>
<!-- Generator: Adobe Illustrator 18.0.0, SVG Export Plug-In . SVG Version: 6.00 Build 0)  -->
<!DOCTYPE svg PUBLIC "-//W3C//DTD SVG 1.1//EN" "http://www.w3.org/Graphics/SVG/1.1/DTD/svg11.dtd">
<svg version="1.1" id="Capa_1" xmlns="http://www.w3.org/2000/svg" xmlns:xlink="http://www.w3.org/1999/xlink" x="0px" y="0px"
	 viewBox="0 0 51 51" style="enable-background:new 0 0 51 51;" xml:space="preserve">
<g>
	<path style="fill:#D2D5D7;" d="M25,38.062c-0.415,0-0.802-0.26-0.945-0.674c-0.181-0.521,0.097-1.091,0.619-1.271
		C26.582,35.458,27,34.771,27,34.562s-0.418-0.896-2.326-1.555c-0.522-0.181-0.8-0.75-0.619-1.271
		c0.181-0.522,0.753-0.798,1.271-0.619C28.362,32.166,29,33.569,29,34.562s-0.638,2.396-3.674,3.445
		C25.219,38.044,25.108,38.062,25,38.062z"/>
	<path style="fill:#D2D5D7;" d="M25,28.062c-0.415,0-0.802-0.26-0.945-0.674c-0.181-0.521,0.097-1.091,0.619-1.271
		C26.582,25.458,27,24.771,27,24.562s-0.418-0.896-2.326-1.555c-0.522-0.181-0.8-0.75-0.619-1.271
		c0.181-0.522,0.753-0.797,1.271-0.619C28.362,22.166,29,23.569,29,24.562s-0.638,2.396-3.674,3.445
		C25.219,28.044,25.108,28.062,25,28.062z"/>
	<path style="fill:#D2D5D7;" d="M25,33.062c-0.108,0-0.219-0.018-0.326-0.055C21.638,31.959,21,30.555,21,29.562
		s0.638-2.396,3.674-3.445c0.518-0.181,1.09,0.097,1.271,0.619c0.181,0.521-0.097,1.091-0.619,1.271
		C23.418,28.667,23,29.353,23,29.562s0.418,0.896,2.326,1.555c0.522,0.181,0.8,0.75,0.619,1.271
		C25.802,32.802,25.415,33.062,25,33.062z"/>
	<path style="fill:#D2D5D7;" d="M26.408,48.997c-0.175,0-0.353-0.046-0.513-0.143c-0.475-0.283-0.628-0.897-0.344-1.371
		c0.732-1.224,0.982-2.442,0.668-3.26c-0.218-0.567-0.713-0.961-1.512-1.205c-0.528-0.16-0.825-0.72-0.664-1.248
		c0.16-0.528,0.717-0.827,1.248-0.664c1.752,0.533,2.486,1.6,2.794,2.399c0.542,1.408,0.244,3.232-0.819,5.005
		C27.079,48.824,26.748,48.997,26.408,48.997z"/>
	<path style="fill:#D2D5D7;" d="M25,43.062c-0.108,0-0.219-0.018-0.326-0.055C21.638,41.959,21,40.555,21,39.562
		s0.638-2.396,3.674-3.445c0.518-0.181,1.09,0.097,1.271,0.619c0.181,0.521-0.097,1.091-0.619,1.271
		C23.418,38.667,23,39.353,23,39.562s0.418,0.896,2.326,1.555c0.522,0.181,0.8,0.75,0.619,1.271
		C25.802,42.802,25.415,43.062,25,43.062z"/>
	<path style="fill:#6A3311;" d="M45.5,14.062l-4.579,1.242c-2.575,0.698-5.201,1.213-7.858,1.458
		c-4.345,0.402-8.713,0.465-13.065,0.19c-4.289-0.272-8.523-1.12-12.644-2.341L5.5,14.062c-3.025,0-5.5-1.475-5.5-4.5v0
		c0-3.025,2.475-4.5,5.5-4.5l1.855-0.549c4.121-1.221,8.354-2.069,12.644-2.341c3.417-0.216,6.844-0.224,10.261-0.022
		c4.068,0.24,8.092,0.974,12.024,2.04L45.5,5.062c3.025,0,5.5,1.475,5.5,4.5v0C51,12.587,48.525,14.062,45.5,14.062z"/>
	<path style="fill:#D2D5D7;" d="M25,23.062c-0.553,0-1-0.447-1-1v-5.065c0-0.553,0.447-1,1-1s1,0.447,1,1v5.065
		C26,22.615,25.553,23.062,25,23.062z"/>
	<g>
		<path style="fill:#874F31;" d="M22.01,2.929c0.029,0.204,0.715,4.528,6.121,5.139c0,0,0,0,0.001,0c0.109,0,6.764,0.279,6.868,7.98
			c0.003,0.187-0.06,0.353-0.147,0.504c1.484-0.204,2.956-0.486,4.414-0.832c-0.017-0.019-0.042-0.026-0.058-0.047
			C33.52,8.292,38.244,3.404,38.292,3.356c0.036-0.036,0.082-0.052,0.122-0.081c-2.689-0.562-5.41-0.964-8.154-1.126
			c-2.981-0.176-5.969-0.183-8.952-0.04C21.671,2.219,21.956,2.529,22.01,2.929z"/>
		<path style="fill:#874F31;" d="M39.712,4.764c-0.158,0.164-3.492,3.754,1.08,9.688c0.192,0.25,0.234,0.558,0.165,0.842l3.12-0.846
			C44.028,14.329,44,14.199,44,14.062v-9c0-0.137,0.028-0.267,0.078-0.386l-1.794-0.487c-0.802-0.218-1.611-0.411-2.421-0.6
			C40.069,3.967,40.029,4.443,39.712,4.764z"/>
		<path style="fill:#874F31;" d="M5,5.077C2.207,5.233,0,6.705,0,9.562c0,2.856,2.207,4.329,5,4.485V5.077z"/>
		<path style="fill:#874F31;" d="M8.043,14.77c0.125-0.407,0.256-1.113,0.396-1.861c0.602-3.234,1.19-5.768,2.805-6.514
			c0.471-0.218,1.229-0.365,2.164,0.173c0.457,0.261,1.081,0.523,1.467,0.294c0.758-0.454,1.059-2.518,1.022-3.771
			c-0.005-0.18,0.051-0.341,0.13-0.489c-2.931,0.421-5.829,1.068-8.672,1.91L6.904,4.646C6.962,4.773,7,4.912,7,5.062v9
			c0,0.15-0.037,0.288-0.096,0.416l0.451,0.134c0.227,0.067,0.458,0.121,0.686,0.186C8.043,14.788,8.04,14.779,8.043,14.77z"/>
		<path style="fill:#874F31;" d="M33,16.076c-0.079-5.863-4.798-6.011-4.998-6.014c-5.704-0.64-7.702-4.773-7.975-6.871
			c-0.062-0.476,0.23-0.899,0.664-1.053c-0.231,0.013-0.462,0.019-0.693,0.033c-0.792,0.05-1.579,0.14-2.367,0.228
			c0.153,0.169,0.257,0.385,0.265,0.631c0.021,0.714,0.028,4.332-1.993,5.545c-0.67,0.403-1.821,0.685-3.49-0.273
			c-0.089-0.05-0.245-0.129-0.331-0.092c-0.805,0.372-1.416,3.66-1.678,5.064c-0.153,0.821-0.286,1.531-0.438,2.044
			c1.613,0.409,3.243,0.743,4.883,1.016c-0.007-0.099-0.013-0.199,0.011-0.302c0.258-1.073,0.891-1.992,1.782-2.588
			c0.916-0.612,1.994-0.813,3.033-0.563c0.732,0.176,1.765,0.554,2.521,1.359c0.732,0.778,1.002,1.784,0.793,2.841
			c3.359,0.093,6.723-0.011,10.073-0.321c0.07-0.006,0.14-0.018,0.21-0.025C33.11,16.563,33.004,16.334,33,16.076z"/>
		<path style="fill:#874F31;" d="M46,5.077v8.969c2.793-0.156,5-1.628,5-4.485S48.793,5.233,46,5.077z"/>
		<path style="fill:#874F31;" d="M21.027,16.763c0.11-0.46,0.02-0.826-0.287-1.152c-0.327-0.347-0.87-0.625-1.53-0.783
			c-0.496-0.118-1.009-0.019-1.457,0.28c-0.472,0.315-0.808,0.81-0.947,1.392c-0.012,0.051-0.044,0.089-0.063,0.136
			c1.081,0.14,2.166,0.248,3.255,0.317c0.34,0.021,0.681,0.027,1.021,0.045C21.019,16.919,21.008,16.842,21.027,16.763z"/>
	</g>
</g>
<g>
</g>
<g>
</g>
<g>
</g>
<g>
</g>
<g>
</g>
<g>
</g>
<g>
</g>
<g>
</g>
<g>
</g>
<g>
</g>
<g>
</g>
<g>
</g>
<g>
</g>
<g>
</g>
<g>
</g>
</svg>
