<?xml version="1.0" encoding="iso-8859-1"?>
<!-- Generator: Adobe Illustrator 18.0.0, SVG Export Plug-In . SVG Version: 6.00 Build 0)  -->
<!DOCTYPE svg PUBLIC "-//W3C//DTD SVG 1.1//EN" "http://www.w3.org/Graphics/SVG/1.1/DTD/svg11.dtd">
<svg version="1.1" id="Capa_1" xmlns="http://www.w3.org/2000/svg" xmlns:xlink="http://www.w3.org/1999/xlink" x="0px" y="0px"
	 viewBox="0 0 59 59" style="enable-background:new 0 0 59 59;" xml:space="preserve">
<g>
	<path style="fill:#6A3311;" d="M58,58c-0.256,0-0.512-0.098-0.707-0.293L41.736,42.15c-0.391-0.391-0.391-1.023,0-1.414
		s1.023-0.391,1.414,0l15.557,15.557c0.391,0.391,0.391,1.023,0,1.414C58.512,57.902,58.256,58,58,58z"/>
	<path style="fill:#EEAF4B;" d="M43.151,40.737l-1.414,1.414c-1.945,1.945-5.127,1.945-7.071,0L6.381,13.866
		c-1.945-1.945-1.945-5.127,0-7.071l1-1c1.945-1.945,4.834-1.652,6.778,0.293l28.284,28.284
		C44.388,36.317,45.095,38.792,43.151,40.737z"/>
	<path style="fill:#DC9628;" d="M31.341,34.125c-0.256,0-0.512-0.098-0.707-0.293l-5.65-5.649c-0.391-0.391-0.391-1.023,0-1.414
		s1.023-0.391,1.414,0l5.65,5.649c0.391,0.391,0.391,1.023,0,1.414C31.853,34.027,31.597,34.125,31.341,34.125z"/>
	<path style="fill:#DC9628;" d="M21.341,19.476c-0.256,0-0.512-0.098-0.707-0.293l-3.463-3.463c-0.391-0.391-0.391-1.023,0-1.414
		s1.023-0.391,1.414,0l3.463,3.463c0.391,0.391,0.391,1.023,0,1.414C21.853,19.378,21.597,19.476,21.341,19.476z"/>
	<path style="fill:#DC9628;" d="M15.914,14.049c-0.256,0-0.512-0.098-0.707-0.293l-1.224-1.224c-0.391-0.391-0.391-1.023,0-1.414
		s1.023-0.391,1.414,0l1.224,1.224c0.391,0.391,0.391,1.023,0,1.414C16.426,13.951,16.17,14.049,15.914,14.049z"/>
	<path style="fill:#DC9628;" d="M6.381,6.795l1-1c0.36-0.36,0.759-0.618,1.171-0.828L6.961,1.466
		C6.662,0.809,5.713,0.858,5.484,1.543L4.807,3.574C4.744,3.763,4.613,3.921,4.44,4.017L0.409,6.256
		c-0.665,0.37-0.48,1.373,0.273,1.48l4.631,0.661C5.556,7.815,5.909,7.268,6.381,6.795z"/>
</g>
<g>
</g>
<g>
</g>
<g>
</g>
<g>
</g>
<g>
</g>
<g>
</g>
<g>
</g>
<g>
</g>
<g>
</g>
<g>
</g>
<g>
</g>
<g>
</g>
<g>
</g>
<g>
</g>
<g>
</g>
</svg>
