<?xml version="1.0" encoding="iso-8859-1"?>
<!-- Generator: Adobe Illustrator 18.0.0, SVG Export Plug-In . SVG Version: 6.00 Build 0)  -->
<!DOCTYPE svg PUBLIC "-//W3C//DTD SVG 1.1//EN" "http://www.w3.org/Graphics/SVG/1.1/DTD/svg11.dtd">
<svg version="1.1" id="Capa_1" xmlns="http://www.w3.org/2000/svg" xmlns:xlink="http://www.w3.org/1999/xlink" x="0px" y="0px"
	 viewBox="0 0 57 57" style="enable-background:new 0 0 57 57;" xml:space="preserve">
<g>
	<path style="fill:#436B1C;" d="M38.588,42.338c-0.194-1.163-0.358-2.329-0.503-3.497c0.145-0.057,0.287-0.127,0.42-0.221
		c0.903-0.637,1.118-1.885,0.482-2.787c-0.317-0.45-0.787-0.729-1.289-0.817c-0.085-1.085-0.153-2.17-0.196-3.257
		c0.181-0.06,0.358-0.138,0.522-0.254c0.903-0.637,1.118-1.884,0.482-2.787c-0.269-0.382-0.65-0.632-1.066-0.756
		c0.005-1.012,0.023-2.025,0.064-3.036c0.246-0.056,0.486-0.159,0.705-0.313c0.903-0.637,1.118-1.885,0.482-2.787
		c-0.242-0.343-0.573-0.586-0.939-0.721c0.091-1.05,0.198-2.1,0.328-3.147c0.909-0.188,1.593-0.993,1.593-1.958
		c0-0.758-0.427-1.41-1.049-1.749c0.158-0.933,0.33-1.865,0.519-2.793c1.064-0.046,1.914-0.916,1.914-1.991
		c0-0.842-0.521-1.559-1.258-1.854C39.882,3.284,36.685,0,31.988,0c-2.465,0-4.683,1.328-6.496,2.991
		c-0.333-0.249-0.743-0.401-1.191-0.401c-1.105,0-2,0.895-2,2c0,0.528,0.208,1.004,0.542,1.361
		c-0.622,0.825-1.132,1.592-1.509,2.204C21.097,8.056,20.835,8,20.561,8c-1.105,0-2,0.895-2,2c0,0.715,0.378,1.337,0.942,1.691
		c-0.307,0.745-0.574,1.521-0.809,2.322C18.65,14.01,18.607,14,18.561,14c-1.105,0-2,0.895-2,2c0,0.849,0.531,1.57,1.278,1.86
		c-0.164,1.04-0.285,2.103-0.369,3.18c-0.236,0.058-0.466,0.156-0.677,0.304c-0.903,0.637-1.118,1.884-0.482,2.787
		c0.256,0.364,0.614,0.61,1.006,0.739c-0.006,1.033,0.015,2.065,0.058,3.092c-0.202,0.06-0.4,0.145-0.583,0.273
		c-0.903,0.637-1.118,1.885-0.482,2.787c0.325,0.46,0.809,0.739,1.324,0.82c0.103,1.115,0.227,2.206,0.364,3.265
		c-0.168,0.06-0.333,0.134-0.486,0.242c-0.903,0.637-1.118,1.884-0.482,2.787c0.37,0.525,0.948,0.81,1.544,0.837
		c0.17,1.01,0.346,1.961,0.52,2.846c-0.215,0.101-0.417,0.237-0.591,0.418c-0.766,0.796-0.742,2.062,0.054,2.828
		c0.38,0.365,0.867,0.546,1.355,0.553c0.376,1.595,0.649,2.564,0.679,2.656c0.062,0.186,0.128,0.363,0.192,0.544
		c-0.032,0.029-0.067,0.051-0.097,0.083c-0.766,0.796-0.742,2.062,0.054,2.828c0.444,0.428,1.034,0.6,1.603,0.538
		C24.08,55.244,26.488,57,30.061,57c4.703,0,8.636-3.463,9.375-7.965c0.144-0.879,0.077-1.78-0.094-2.655l-0.032-0.166
		c0.288-0.1,0.559-0.259,0.785-0.494c0.766-0.796,0.742-2.062-0.054-2.828C39.636,42.503,39.109,42.32,38.588,42.338z"/>
	<path style="fill:#659C35;" d="M30.421,9c-0.552,0-1-0.447-1-1c0-0.207-0.168-0.375-0.375-0.375S28.671,7.793,28.671,8
		c0,0.553-0.448,1-1,1s-1-0.447-1-1c0-1.31,1.065-2.375,2.375-2.375S31.421,6.69,31.421,8C31.421,8.552,30.973,9,30.421,9z"/>
	<path style="fill:#659C35;" d="M34.311,15.375c-0.552,0-1-0.447-1-1c0-0.207-0.168-0.375-0.375-0.375s-0.375,0.168-0.375,0.375
		c0,0.553-0.448,1-1,1c-0.552,0-1-0.447-1-1c0-1.31,1.065-2.375,2.375-2.375c1.31,0,2.375,1.065,2.375,2.375
		C35.311,14.927,34.864,15.375,34.311,15.375z"/>
	<path style="fill:#659C35;" d="M24.871,32.333c-0.552,0-1-0.447-1-1c0-0.207-0.168-0.375-0.375-0.375s-0.375,0.168-0.375,0.375
		c0,0.553-0.448,1-1,1s-1-0.447-1-1c0-1.31,1.065-2.375,2.375-2.375s2.375,1.065,2.375,2.375
		C25.871,31.885,25.424,32.333,24.871,32.333z"/>
	<path style="fill:#659C35;" d="M33.561,50.375c-0.552,0-1-0.447-1-1c0-0.207-0.168-0.375-0.375-0.375
		c-0.207,0-0.375,0.168-0.375,0.375c0,0.553-0.448,1-1,1s-1-0.447-1-1c0-1.31,1.065-2.375,2.375-2.375
		c1.31,0,2.375,1.065,2.375,2.375C34.561,49.927,34.114,50.375,33.561,50.375z"/>
	<path style="fill:#659C35;" d="M33.311,26c-0.552,0-1-0.447-1-1c0-0.207-0.168-0.375-0.375-0.375c-0.207,0-0.375,0.168-0.375,0.375
		c0,0.553-0.448,1-1,1s-1-0.447-1-1c0-1.31,1.065-2.375,2.375-2.375c1.31,0,2.375,1.065,2.375,2.375
		C34.311,25.552,33.864,26,33.311,26z"/>
	<path style="fill:#659C35;" d="M27.246,44.002c-0.552,0-1-0.447-1-1c0-0.207-0.168-0.375-0.375-0.375s-0.375,0.168-0.375,0.375
		c0,0.553-0.448,1-1,1s-1-0.447-1-1c0-1.31,1.065-2.375,2.375-2.375s2.375,1.065,2.375,2.375
		C28.246,43.554,27.799,44.002,27.246,44.002z"/>
	<path style="fill:#659C35;" d="M27.311,20.375c-0.552,0-1-0.447-1-1c0-0.207-0.168-0.375-0.375-0.375s-0.375,0.168-0.375,0.375
		c0,0.553-0.448,1-1,1s-1-0.447-1-1c0-1.31,1.065-2.375,2.375-2.375s2.375,1.065,2.375,2.375
		C28.311,19.927,27.864,20.375,27.311,20.375z"/>
	<path style="fill:#659C35;" d="M33.561,36c-0.552,0-1-0.447-1-1c0-0.207-0.168-0.375-0.375-0.375c-0.207,0-0.375,0.168-0.375,0.375
		c0,0.553-0.448,1-1,1s-1-0.447-1-1c0-1.31,1.065-2.375,2.375-2.375c1.31,0,2.375,1.065,2.375,2.375
		C34.561,35.552,34.114,36,33.561,36z"/>
</g>
<g>
</g>
<g>
</g>
<g>
</g>
<g>
</g>
<g>
</g>
<g>
</g>
<g>
</g>
<g>
</g>
<g>
</g>
<g>
</g>
<g>
</g>
<g>
</g>
<g>
</g>
<g>
</g>
<g>
</g>
</svg>
