<?xml version="1.0" encoding="iso-8859-1"?>
<!-- Generator: Adobe Illustrator 18.0.0, SVG Export Plug-In . SVG Version: 6.00 Build 0)  -->
<!DOCTYPE svg PUBLIC "-//W3C//DTD SVG 1.1//EN" "http://www.w3.org/Graphics/SVG/1.1/DTD/svg11.dtd">
<svg version="1.1" id="Capa_1" xmlns="http://www.w3.org/2000/svg" xmlns:xlink="http://www.w3.org/1999/xlink" x="0px" y="0px"
	 viewBox="0 0 50.382 50.382" style="enable-background:new 0 0 50.382 50.382;" xml:space="preserve">
<g>
	<path style="fill:#ED3F32;" d="M18.303,7.976C18.303,3.567,21.361,0,25.14,0l1.139,0c3.779,0,6.837,3.567,6.837,7.976
		c0,4.09-3.316,7.406-7.406,7.406S18.303,12.066,18.303,7.976z"/>
	<path style="fill:#FFFFFF;" d="M29.19,5.676c-1.816,0-3.293-1.478-3.293-3.293c0-0.553,0.448-1,1-1s1,0.447,1,1
		c0,0.713,0.58,1.293,1.293,1.293c0.552,0,1,0.447,1,1S29.742,5.676,29.19,5.676z"/>
	<path style="fill:#F4C44E;" d="M1.615,30.347c-0.693,0.402-0.991,1.253-0.788,2.028l0.117,0.446
		c1.031,3.934,2.699,7.66,4.925,11.036c1.949,2.955,4.838,5.2,8.209,6.28c0.472,0.151,0.865,0.246,1.113,0.246h20
		c0.25,0,0.65-0.097,1.129-0.252c3.363-1.087,6.249-3.327,8.195-6.278c2.224-3.373,3.89-7.095,4.921-11.026l0.12-0.458
		c0.203-0.773-0.093-1.621-0.783-2.023c-2.303-1.343-5.207-1.283-7.456,0.18c-0.671,0.436-1.562,0.45-2.23,0.011
		c-2.346-1.542-5.412-1.539-7.755,0.009c-0.671,0.444-1.509,0.444-2.18,0c-2.35-1.553-5.427-1.551-7.775,0.004
		c-0.668,0.442-1.503,0.445-2.172,0.005c-2.386-1.568-5.518-1.563-7.898,0.016c-0.656,0.435-1.477,0.431-2.133-0.003
		C6.902,29.065,3.951,28.991,1.615,30.347z"/>
	<path style="fill:#F4E6D0;" d="M39.633,19.509c0.356-0.804,0.557-1.691,0.557-2.626c0-3.59-2.91-6.5-6.5-6.5
		c-0.287,0-0.665,0.053-1.025,0.119c-1.034,2.845-3.753,4.881-6.955,4.881c-3.203,0-5.924-2.038-6.956-4.884
		c-0.378-0.064-0.772-0.116-1.063-0.116c-3.59,0-6.5,2.91-6.5,6.5c0,0.896,0.181,1.749,0.509,2.525
		c-4.741,0.256-8.509,4.171-8.509,8.975c0,0.431,0.041,0.851,0.099,1.265c2.393-0.662,5.067-0.07,6.951,1.786
		c2.778-2.736,7.273-2.736,10.051,0c2.75-2.736,7.2-2.736,9.949,0c2.75-2.736,7.2-2.736,9.95,0c1.871-1.852,4.524-2.446,6.901-1.79
		c0.058-0.413,0.099-0.832,0.099-1.262C47.19,23.904,43.916,20.201,39.633,19.509z"/>
</g>
<g>
</g>
<g>
</g>
<g>
</g>
<g>
</g>
<g>
</g>
<g>
</g>
<g>
</g>
<g>
</g>
<g>
</g>
<g>
</g>
<g>
</g>
<g>
</g>
<g>
</g>
<g>
</g>
<g>
</g>
</svg>
