<?xml version="1.0" encoding="iso-8859-1"?>
<!-- Generator: Adobe Illustrator 18.0.0, SVG Export Plug-In . SVG Version: 6.00 Build 0)  -->
<!DOCTYPE svg PUBLIC "-//W3C//DTD SVG 1.1//EN" "http://www.w3.org/Graphics/SVG/1.1/DTD/svg11.dtd">
<svg version="1.1" id="Capa_1" xmlns="http://www.w3.org/2000/svg" xmlns:xlink="http://www.w3.org/1999/xlink" x="0px" y="0px"
	 viewBox="0 0 50.382 50.382" style="enable-background:new 0 0 50.382 50.382;" xml:space="preserve">
<g>
	<path style="fill:#FBD490;" d="M0.191,31.434l9.263,17.032c0.444,1.154,1.553,1.916,2.79,1.916h25.894
		c1.237,0,2.346-0.762,2.79-1.916l9.263-17.032c-2.764-2.736-7.236-2.736-10,0c-2.75-2.736-7.2-2.736-9.949,0
		c-2.75-2.736-7.2-2.736-9.949,0c-2.778-2.736-7.273-2.736-10.051,0C7.464,28.698,2.969,28.698,0.191,31.434z"/>
	<path style="fill:#F9F2E8;" d="M39.634,19.509c0.356-0.804,0.557-1.691,0.557-2.626c0-3.59-2.91-6.5-6.5-6.5
		c-0.287,0-0.665,0.053-1.025,0.119l0,0c0.287-0.789,0.451-1.637,0.451-2.525C33.117,3.567,30.059,0,26.281,0h-1.139
		c-3.779,0-6.837,3.567-6.837,7.976c0,0.887,0.164,1.734,0.45,2.522c-0.378-0.064-0.772-0.116-1.063-0.116c-3.59,0-6.5,2.91-6.5,6.5
		c0,0.896,0.181,1.749,0.509,2.525c-4.741,0.256-8.509,4.171-8.509,8.975c0,0.431,0.041,0.851,0.099,1.265
		c2.393-0.662,5.067-0.07,6.951,1.786c2.778-2.736,7.273-2.736,10.051,0c2.75-2.736,7.2-2.736,9.949,0c2.75-2.736,7.2-2.736,9.949,0
		c1.871-1.852,4.524-2.446,6.901-1.79c0.058-0.413,0.099-0.832,0.099-1.262C47.191,23.904,43.917,20.2,39.634,19.509z"/>
	<path style="fill:#D8A65D;" d="M14.191,47.383c-0.44,0-0.843-0.292-0.964-0.737l-3-11c-0.145-0.532,0.169-1.082,0.702-1.228
		c0.53-0.15,1.082,0.169,1.228,0.702l3,11c0.145,0.532-0.169,1.082-0.702,1.228C14.366,47.372,14.278,47.383,14.191,47.383z"/>
	<path style="fill:#D8A65D;" d="M36.192,47.382c-0.087,0-0.175-0.011-0.264-0.035c-0.533-0.146-0.847-0.695-0.702-1.228l3-10.999
		c0.146-0.533,0.693-0.85,1.228-0.702c0.533,0.146,0.847,0.695,0.702,1.228l-3,10.999C37.034,47.09,36.632,47.382,36.192,47.382z"/>
	<path style="fill:#D8A65D;" d="M29.192,47.382c-0.03,0-0.061-0.001-0.091-0.004c-0.55-0.05-0.956-0.536-0.906-1.087l1-10.999
		c0.05-0.55,0.535-0.956,1.086-0.905c0.55,0.05,0.956,0.537,0.906,1.087l-1,10.999C30.14,46.991,29.704,47.382,29.192,47.382z"/>
	<path style="fill:#D8A65D;" d="M21.19,47.382c-0.512,0-0.948-0.391-0.995-0.909l-1-10.999c-0.05-0.55,0.355-1.037,0.906-1.087
		c0.556-0.049,1.036,0.355,1.086,0.905l1,10.999c0.05,0.551-0.355,1.037-0.906,1.087C21.251,47.381,21.22,47.382,21.19,47.382z"/>
	<path style="fill:#A4E869;" d="M26.532,19.895c-0.441,0-0.844-0.293-0.965-0.739c-0.144-0.532,0.171-1.082,0.704-1.226l4.316-1.168
		c0.534-0.149,1.083,0.17,1.227,0.704c0.144,0.532-0.171,1.082-0.704,1.226l-4.316,1.168C26.707,19.884,26.619,19.895,26.532,19.895
		z"/>
	<path style="fill:#E53384;" d="M13.191,25.607c-0.104,0-0.211-0.017-0.316-0.052l-3-1c-0.524-0.174-0.807-0.74-0.632-1.265
		c0.175-0.523,0.74-0.808,1.265-0.632l3,1c0.524,0.174,0.807,0.74,0.632,1.265C14,25.343,13.61,25.607,13.191,25.607z"/>
	<path style="fill:#ED7161;" d="M20.817,22.794c-0.02,0-0.04-0.001-0.061-0.002c-0.551-0.032-0.972-0.506-0.938-1.058l0.084-1.412
		c0.032-0.552,0.497-0.958,1.058-0.938c0.551,0.032,0.972,0.506,0.938,1.058l-0.084,1.412
		C21.782,22.385,21.342,22.794,20.817,22.794z"/>
	<path style="fill:#ED3F32;" d="M39.191,27.383c-0.256,0-0.512-0.098-0.707-0.293l-1-1c-0.391-0.391-0.391-1.023,0-1.414
		s1.023-0.391,1.414,0l1,1c0.391,0.391,0.391,1.023,0,1.414C39.703,27.285,39.447,27.383,39.191,27.383z"/>
	<path style="fill:#F9D70B;" d="M29.691,27.382c-0.256,0-0.512-0.098-0.707-0.293l-1-1c-0.391-0.391-0.391-1.023,0-1.414
		s1.023-0.391,1.414,0l1,1c0.391,0.391,0.391,1.023,0,1.414C30.203,27.284,29.947,27.382,29.691,27.382z"/>
	<path style="fill:#6F58A8;" d="M27.004,10.065c-0.448,0-0.855-0.303-0.969-0.758l-1-4c-0.134-0.535,0.192-1.078,0.728-1.212
		c0.534-0.134,1.079,0.19,1.213,0.728l1,4c0.134,0.535-0.192,1.078-0.728,1.212C27.166,10.056,27.085,10.065,27.004,10.065z"/>
	<path style="fill:#3DABEF;" d="M22.191,15.61c-0.256,0-0.512-0.098-0.707-0.293l-1-1c-0.391-0.391-0.391-1.023,0-1.414
		s1.023-0.391,1.414,0l1,1c0.391,0.391,0.391,1.023,0,1.414C22.703,15.513,22.447,15.61,22.191,15.61z"/>
</g>
<g>
</g>
<g>
</g>
<g>
</g>
<g>
</g>
<g>
</g>
<g>
</g>
<g>
</g>
<g>
</g>
<g>
</g>
<g>
</g>
<g>
</g>
<g>
</g>
<g>
</g>
<g>
</g>
<g>
</g>
</svg>
