<?xml version="1.0" encoding="iso-8859-1"?>
<!-- Generator: Adobe Illustrator 18.0.0, SVG Export Plug-In . SVG Version: 6.00 Build 0)  -->
<!DOCTYPE svg PUBLIC "-//W3C//DTD SVG 1.1//EN" "http://www.w3.org/Graphics/SVG/1.1/DTD/svg11.dtd">
<svg version="1.1" id="Capa_1" xmlns="http://www.w3.org/2000/svg" xmlns:xlink="http://www.w3.org/1999/xlink" x="0px" y="0px"
	 viewBox="0 0 52.25 52.25" style="enable-background:new 0 0 52.25 52.25;" xml:space="preserve">
<g>
	<g>
		<path style="fill:#DAE7EF;" d="M22.251,24.708c0,0-0.068,2.359,3.089,5.03c8.051,6.814,5.094,21.935-4.397,22.012H16.25h-0.216
			h-4.693C1.851,51.674-1.106,36.552,6.945,29.738c3.157-2.672,3.089-5.03,3.089-5.03H22.251z"/>
		<path style="fill:#BBD7EA;" d="M16.251,52.25h-4.909c-3.914-0.031-7.16-2.568-8.687-6.787c-1.701-4.7-1.185-11.745,3.967-16.106
			c2.903-2.457,2.912-4.617,2.912-4.639l-0.006-0.505l0.506-0.005h12.732l-0.015,0.512c0,0.063,0.037,2.204,2.911,4.637
			c5.152,4.361,5.668,11.406,3.967,16.106c-1.526,4.219-4.771,6.756-8.683,6.787H16.251z M10.487,25.208
			c-0.148,0.893-0.756,2.827-3.219,4.912c-4.787,4.052-5.26,10.617-3.673,15.003c1.398,3.865,4.224,6.099,7.75,6.127h9.598
			c3.522-0.028,6.348-2.262,7.746-6.127c1.587-4.386,1.115-10.951-3.673-15.003c-2.462-2.085-3.069-4.02-3.218-4.912H10.487z"/>
	</g>
	<path style="fill:#38454F;" d="M12.165,24.708h-2.131c-1.1,0-2-0.9-2-2v0c0-1.1,0.9-2,2-2h12c1.1,0,2,0.9,2,2v0c0,1.1-0.9,2-2,2
		h-4.753H12.165z"/>
	<g>
		<path style="fill:#DAE7EF;" d="M44.83,9.114C44.82,9.105,44.81,9.096,44.8,9.087c-1.147-1.038-0.836-2.85,0.401-3.78
			c0.487-0.366,0.803-0.947,0.803-1.599v-1c0-1.1-0.9-2-2-2h-11c-1.1,0-2,0.9-2,2v1c0,0.665,0.33,1.254,0.835,1.616
			c1.157,0.83,1.624,2.426,0.702,3.511c-0.087,0.102-0.184,0.2-0.29,0.292c-2.108,1.815-5.247,3.823-5.247,8.581v13.753
			c4.155,5.186,3.785,13.124,0.122,17.371c0.41,1.644,1.892,2.876,3.658,2.876h15.438c2.079,0,3.781-1.701,3.781-3.781V17.708
			C50.004,12.936,46.904,10.934,44.83,9.114z"/>
		<path style="fill:#BBD7EA;" d="M46.222,52.208H30.785c-1.962,0-3.666-1.339-4.145-3.255l-0.063-0.251l0.169-0.196
			c3.323-3.853,4.063-11.495-0.134-16.732l-0.109-0.137V17.708c0-4.471,2.607-6.626,4.702-8.358
			c0.248-0.205,0.489-0.404,0.719-0.602c0.087-0.075,0.165-0.154,0.236-0.238c0.364-0.429,0.395-0.901,0.354-1.222
			c-0.072-0.593-0.435-1.175-0.968-1.558c-0.654-0.469-1.044-1.225-1.044-2.022v-1c0-1.379,1.121-2.5,2.5-2.5h11
			c1.379,0,2.5,1.121,2.5,2.5v1c0,0.78-0.375,1.527-1.003,1.998c-0.542,0.408-0.884,1.033-0.912,1.672
			c-0.024,0.522,0.17,0.998,0.546,1.338l-0.304,0.398l0.33-0.376c0.23,0.203,0.475,0.408,0.726,0.619
			c2.057,1.729,4.617,3.883,4.617,8.351v30.22C50.504,50.288,48.583,52.208,46.222,52.208z M27.679,48.949
			c0.442,1.342,1.687,2.259,3.105,2.259h15.438c1.81,0,3.281-1.472,3.281-3.28v-30.22c0-4.002-2.264-5.906-4.261-7.586
			c-0.257-0.215-0.506-0.425-0.742-0.632l-0.006-0.006l0.336-0.37l-0.348,0.359c-0.621-0.561-0.932-1.315-0.894-2.141
			c0.042-0.935,0.532-1.841,1.311-2.426c0.384-0.288,0.604-0.726,0.604-1.199v-1c0-0.827-0.673-1.5-1.5-1.5h-11
			c-0.827,0-1.5,0.673-1.5,1.5v1c0,0.477,0.234,0.929,0.627,1.21c0.757,0.543,1.271,1.384,1.378,2.248
			c0.09,0.734-0.118,1.441-0.587,1.993c-0.105,0.122-0.219,0.238-0.345,0.347c-0.234,0.201-0.48,0.405-0.734,0.615
			c-2.033,1.681-4.339,3.587-4.339,7.587v13.579C31.419,36.318,31.49,44.294,27.679,48.949z"/>
	</g>
	<path style="fill:#FFFFFF;" d="M27.914,13.75c-0.551,1.075-0.911,2.359-0.911,3.958v13.753c4.155,5.187,3.785,13.124,0.122,17.371
		c0.41,1.644,1.892,2.876,3.658,2.876h15.438c2.079,0,3.781-1.701,3.781-3.781V17.708c0-1.6-0.353-2.883-0.894-3.958H27.914z"/>
	<rect x="38.506" y="18.665" style="fill:#ABCBDD;" width="12" height="26.171"/>
	<path style="fill:#ABCBDD;" d="M12.463,33.75H3.274c-1.911,3.804-1.972,8.402-0.513,12h9.702c1.1,0,2-0.9,2-2v-8
		C14.463,34.65,13.563,33.75,12.463,33.75z"/>
	<path style="fill:#BBD7EA;" d="M46.222,52.208H30.785c-1.962,0-3.666-1.339-4.145-3.255l-0.063-0.251l0.169-0.196
		c3.323-3.853,4.063-11.495-0.134-16.732l-0.109-0.137V17.708c0-4.471,2.607-6.626,4.702-8.358c0.248-0.205,0.489-0.404,0.719-0.602
		c0.087-0.075,0.165-0.154,0.236-0.238c0.364-0.429,0.395-0.901,0.354-1.222c-0.072-0.593-0.435-1.175-0.968-1.558
		c-0.654-0.469-1.044-1.225-1.044-2.022v-1c0-1.379,1.121-2.5,2.5-2.5h11c1.379,0,2.5,1.121,2.5,2.5v1
		c0,0.78-0.375,1.527-1.003,1.998c-0.542,0.408-0.884,1.033-0.912,1.672c-0.024,0.522,0.17,0.998,0.546,1.338l-0.304,0.398
		l0.33-0.376c0.23,0.203,0.475,0.408,0.726,0.619c2.057,1.729,4.617,3.883,4.617,8.351v30.22
		C50.504,50.288,48.583,52.208,46.222,52.208z M27.679,48.949c0.442,1.342,1.687,2.259,3.105,2.259h15.438
		c1.81,0,3.281-1.472,3.281-3.28v-30.22c0-4.002-2.264-5.906-4.261-7.586c-0.257-0.215-0.506-0.425-0.742-0.632l-0.006-0.006
		l0.336-0.37l-0.348,0.359c-0.621-0.561-0.932-1.315-0.894-2.141c0.042-0.935,0.532-1.841,1.311-2.426
		c0.384-0.288,0.604-0.726,0.604-1.199v-1c0-0.827-0.673-1.5-1.5-1.5h-11c-0.827,0-1.5,0.673-1.5,1.5v1
		c0,0.477,0.234,0.929,0.627,1.21c0.757,0.543,1.271,1.384,1.378,2.248c0.09,0.734-0.118,1.441-0.587,1.993
		c-0.105,0.122-0.219,0.238-0.345,0.347c-0.234,0.201-0.48,0.405-0.734,0.615c-2.033,1.681-4.339,3.587-4.339,7.587v13.579
		C31.419,36.318,31.49,44.294,27.679,48.949z"/>
	<path style="fill:#38454F;" d="M31.984,4.75h0.02c-1.306,0-2.375-1.069-2.375-2.375v0C29.629,1.069,30.697,0,32.004,0h13.125
		c1.306,0,2.375,1.069,2.375,2.375v0c0,1.306-1.069,2.375-2.375,2.375h-7.069H31.984z"/>
</g>
<g>
</g>
<g>
</g>
<g>
</g>
<g>
</g>
<g>
</g>
<g>
</g>
<g>
</g>
<g>
</g>
<g>
</g>
<g>
</g>
<g>
</g>
<g>
</g>
<g>
</g>
<g>
</g>
<g>
</g>
</svg>
