<?xml version="1.0" encoding="iso-8859-1"?>
<!-- Generator: Adobe Illustrator 18.0.0, SVG Export Plug-In . SVG Version: 6.00 Build 0)  -->
<!DOCTYPE svg PUBLIC "-//W3C//DTD SVG 1.1//EN" "http://www.w3.org/Graphics/SVG/1.1/DTD/svg11.dtd">
<svg version="1.1" id="Capa_1" xmlns="http://www.w3.org/2000/svg" xmlns:xlink="http://www.w3.org/1999/xlink" x="0px" y="0px"
	 viewBox="0 0 55 55" style="enable-background:new 0 0 55 55;" xml:space="preserve">
<g>
	<path style="fill:#E6E6E6;" d="M47.966,46.5H7.034c-1.825,0-3.538-0.882-4.599-2.367l-2.26-3.165c-0.439-0.615,0-1.469,0.756-1.469
		H54.07c0.755,0,1.195,0.854,0.756,1.469l-2.26,3.165C51.504,45.618,49.791,46.5,47.966,46.5z"/>
	<path style="fill:#F4C44E;" d="M2,39.5c0-13.807,11.193-25,25-25s25,11.193,25,25H2z"/>
	<path style="fill:#F4C44E;" d="M31.447,15.896l-0.825-0.124c-2.394-0.361-4.85-0.361-7.243,0l-0.825,0.124l-0.27-0.79
		C22.093,14.549,22,14.023,22,13.5c0-2.757,2.243-5,5-5s5,2.243,5,5c0,0.523-0.093,1.049-0.283,1.606L31.447,15.896z M27,13.5
		c0.996,0,2,0.058,2.994,0.172C29.998,13.614,30,13.557,30,13.5c0-1.654-1.346-3-3-3s-3,1.346-3,3c0,0.057,0.002,0.114,0.006,0.172
		C25,13.558,26.004,13.5,27,13.5z"/>
	<path style="fill:#FFFFFF;" d="M22.345,20.013c-0.457,0-0.87-0.315-0.975-0.78c-0.122-0.539,0.217-1.074,0.756-1.195
		c1.582-0.356,3.217-0.537,4.86-0.537C27.557,17.472,28,17.944,28,18.501c0,0.552-0.448,0.999-1,0.999h0c-0.004,0-0.009,0-0.013,0
		c-1.496,0-2.982,0.164-4.421,0.488C22.492,20.005,22.418,20.013,22.345,20.013z"/>
	<path style="fill:#FFFFFF;" d="M7.001,36.5c-0.06,0-0.12-0.005-0.18-0.017c-0.543-0.099-0.904-0.619-0.805-1.163
		c1.142-6.26,4.931-11.838,10.134-14.921c0.476-0.282,1.088-0.125,1.37,0.351s0.125,1.089-0.351,1.37
		c-4.713,2.792-8.147,7.861-9.186,13.56C7.896,36.162,7.475,36.5,7.001,36.5z"/>
</g>
<g>
</g>
<g>
</g>
<g>
</g>
<g>
</g>
<g>
</g>
<g>
</g>
<g>
</g>
<g>
</g>
<g>
</g>
<g>
</g>
<g>
</g>
<g>
</g>
<g>
</g>
<g>
</g>
<g>
</g>
</svg>
