<?xml version="1.0" encoding="iso-8859-1"?>
<!-- Generator: Adobe Illustrator 18.0.0, SVG Export Plug-In . SVG Version: 6.00 Build 0)  -->
<!DOCTYPE svg PUBLIC "-//W3C//DTD SVG 1.1//EN" "http://www.w3.org/Graphics/SVG/1.1/DTD/svg11.dtd">
<svg version="1.1" id="Capa_1" xmlns="http://www.w3.org/2000/svg" xmlns:xlink="http://www.w3.org/1999/xlink" x="0px" y="0px"
	 viewBox="0 0 47.77 47.77" style="enable-background:new 0 0 47.77 47.77;" xml:space="preserve">
<g>
	<g>
		<path style="fill:#D2D5D7;" d="M7.699,29.037c-1.406-1.621-2.612-3.461-3.539-5.518c0,0-0.036-0.08-0.054-0.121
			c-0.181-0.402-0.154-0.883,0.049-1.425c-2.407,0.868-3.812,1.911-3.812,3.034c0,1.771,3.493,3.343,8.903,4.342
			C8.711,29.251,8.195,29.147,7.699,29.037z"/>
	</g>
	<path style="fill:#FBD490;" d="M45.426,4.926c0,0-0.036-0.08-0.054-0.121c-0.954-2.117-7.247-1.457-15.291,1.301
		c3.826,1.787,7.258,3.699,10.037,5.544c-3.292,2.424-7.875,5.062-13.135,7.432c-6.688,3.013-12.975,4.922-17.282,5.43
		c-0.514-0.183-0.99-0.373-1.41-0.571c-0.985-1.362-1.801-2.831-2.459-4.366c-1.484,1.561-2.142,2.899-1.725,3.823
		c0.018,0.04,0.054,0.121,0.054,0.121c0.927,2.057,2.133,3.897,3.539,5.518c4.026,0.889,9.386,1.433,15.275,1.433
		c8.785,0,16.396-1.209,20.146-2.975C47.71,21.144,48.876,12.584,45.426,4.926z"/>
	<g>
		<path style="fill:#E6E6E6;" d="M43.119,27.495c-3.75,1.766-11.36,2.975-20.146,2.975c-5.169,0-9.93-0.419-13.74-1.123
			c-0.464-0.086-0.908-0.177-1.343-0.271c-0.062-0.013-0.131-0.025-0.192-0.039c-0.001-0.001-0.002-0.003-0.003-0.004
			c-4.514-0.998-7.353-2.431-7.353-4.025c0,0.044,0,0.132,0,0.132c0,12.498,10.132,22.63,22.631,22.63s22.631-10.132,22.631-22.63
			c0,0,0-0.088,0-0.132c0-0.352-0.143-0.695-0.406-1.029C44.611,25.206,43.921,26.386,43.119,27.495z"/>
	</g>
	<g>
		<path style="fill:#FAF5E5;" d="M45.426,4.926c0,0-0.036-0.08-0.054-0.121c-0.155-0.344-0.45-0.614-0.871-0.815
			c0.421,0.2,0.717,0.471,0.871,0.815c1.239,2.751-6.994,9.143-18.389,14.277C15.589,24.217,5.347,26.149,4.106,23.4
			c0.018,0.041,0.054,0.12,0.054,0.12c0.927,2.057,2.133,3.897,3.539,5.518c4.026,0.889,9.386,1.433,15.275,1.433
			c8.785,0,16.396-1.209,20.146-2.975C47.71,21.144,48.876,12.584,45.426,4.926z"/>
	</g>
	<g>
		<path style="fill:#E6E6E6;" d="M9.701,24.513c4.307-0.508,10.594-2.417,17.282-5.43c5.26-2.37,9.843-5.008,13.135-7.432
			c-3.059-2.031-6.906-4.146-11.203-6.082C17.52,0.434,7.277-1.498,6.038,1.252C6.02,1.292,5.984,1.373,5.984,1.373
			C2.533,9.03,3.699,17.59,8.29,23.942C8.711,24.14,9.187,24.329,9.701,24.513z"/>
	</g>
	<g>
		<path style="fill:#D2D5D7;" d="M24.427,15.529c1.834,0.827,3.638,1.569,5.38,2.223c4.075-2.002,7.624-4.122,10.311-6.102
			c-3.059-2.031-6.906-4.146-11.203-6.082C17.52,0.434,7.277-1.499,6.038,1.252C4.799,4.003,13.032,10.395,24.427,15.529z"/>
	</g>
</g>
<g>
</g>
<g>
</g>
<g>
</g>
<g>
</g>
<g>
</g>
<g>
</g>
<g>
</g>
<g>
</g>
<g>
</g>
<g>
</g>
<g>
</g>
<g>
</g>
<g>
</g>
<g>
</g>
<g>
</g>
</svg>
