<?xml version="1.0" encoding="iso-8859-1"?>
<!-- Generator: Adobe Illustrator 18.0.0, SVG Export Plug-In . SVG Version: 6.00 Build 0)  -->
<!DOCTYPE svg PUBLIC "-//W3C//DTD SVG 1.1//EN" "http://www.w3.org/Graphics/SVG/1.1/DTD/svg11.dtd">
<svg version="1.1" id="Capa_1" xmlns="http://www.w3.org/2000/svg" xmlns:xlink="http://www.w3.org/1999/xlink" x="0px" y="0px"
	 viewBox="0 0 53.325 53.325" style="enable-background:new 0 0 53.325 53.325;" xml:space="preserve">
<g>
	<path style="fill:#FAF5E5;" d="M42.325,34.005c0-7.456-14.103-13.5-27.88-13.5c-19.078,0-19.12,26.966-0.948,26.966
		c0.32,0,0.635,0.034,0.948,0.034C28.222,47.505,42.325,41.461,42.325,34.005z"/>
	<path style="fill:#EACBA2;" d="M39.825,5.505c-5.415,0-10.082,7.44-12.233,16.79c8.36,2.329,14.733,6.699,14.733,11.71
		c0,4.29-4.673,8.109-11.262,10.582c7.734,6.59,22.229,3.073,22.229-10.254c0-0.32,0.034-0.635,0.034-0.948
		C53.325,19.608,47.281,5.505,39.825,5.505z"/>
	<path style="fill:#FFFFFF;" d="M4.339,34.506c-0.017,0-0.033,0-0.049-0.001c-0.552-0.026-0.978-0.495-0.951-1.047
		c0.164-3.393,1.771-6.405,4.41-8.267c0.451-0.317,1.074-0.21,1.394,0.241c0.318,0.451,0.21,1.075-0.241,1.394
		c-2.132,1.503-3.431,3.955-3.564,6.728C5.311,34.089,4.869,34.506,4.339,34.506z"/>
	<path style="fill:#FFFFFF;" d="M11.324,25.599c-0.437,0-0.838-0.288-0.962-0.729c-0.149-0.531,0.16-1.084,0.692-1.233
		c1.122-0.315,2.34-0.476,3.62-0.476c0.553,0,1,0.447,1,1s-0.447,1-1,1c-1.097,0-2.133,0.135-3.079,0.401
		C11.506,25.587,11.414,25.599,11.324,25.599z"/>
	<path style="fill:#FAF5E5;" d="M47.325,20.505c-0.432,0-0.83-0.281-0.959-0.716c-0.521-1.755-1.251-3.349-2.17-4.735
		c-0.306-0.461-0.18-1.081,0.28-1.386c0.461-0.309,1.08-0.18,1.386,0.28c1.029,1.553,1.845,3.326,2.422,5.272
		c0.157,0.529-0.146,1.086-0.675,1.243C47.515,20.492,47.419,20.505,47.325,20.505z"/>
	<path style="fill:#FAF5E5;" d="M42.325,12.409c-0.231,0-0.464-0.08-0.653-0.243c-1.47-1.267-2.674-1.716-2.686-1.721
		c-0.518-0.188-0.786-0.761-0.6-1.279c0.187-0.517,0.756-0.786,1.273-0.604c0.063,0.022,1.543,0.559,3.318,2.09
		c0.418,0.36,0.465,0.991,0.104,1.41C42.885,12.292,42.606,12.409,42.325,12.409z"/>
</g>
<g>
</g>
<g>
</g>
<g>
</g>
<g>
</g>
<g>
</g>
<g>
</g>
<g>
</g>
<g>
</g>
<g>
</g>
<g>
</g>
<g>
</g>
<g>
</g>
<g>
</g>
<g>
</g>
<g>
</g>
</svg>
