<?xml version="1.0" encoding="iso-8859-1"?>
<!-- Generator: Adobe Illustrator 18.0.0, SVG Export Plug-In . SVG Version: 6.00 Build 0)  -->
<!DOCTYPE svg PUBLIC "-//W3C//DTD SVG 1.1//EN" "http://www.w3.org/Graphics/SVG/1.1/DTD/svg11.dtd">
<svg version="1.1" id="Capa_1" xmlns="http://www.w3.org/2000/svg" xmlns:xlink="http://www.w3.org/1999/xlink" x="0px" y="0px"
	 viewBox="0 0 53 53" style="enable-background:new 0 0 53 53;" xml:space="preserve">
<g>
	<path style="fill:#8F7589;" d="M49,33c0,18.25-13.954,20-25,20S4,44.046,4,33s8.954-20,20-20S49,17.063,49,33z"/>
	<path style="fill:#6A3311;" d="M29.639,14.91c-0.012,0-0.024,0-0.037-0.001c-0.552-0.02-0.983-0.483-0.963-1.035
		c0.106-2.906,1.115-5.613,2.841-7.622c1.781-2.074,4.116-3.174,6.557-3.076C38.588,3.195,39.02,3.659,39,4.212
		c-0.021,0.552-0.461,1.01-1.036,0.962c-1.839-0.057-3.591,0.779-4.967,2.381c-1.432,1.667-2.27,3.937-2.359,6.392
		C30.618,14.486,30.174,14.91,29.639,14.91z"/>
	<path style="fill:#436B1C;" d="M30.397,8.794l-0.41-2.756c-0.433-2.91-2.718-5.195-5.628-5.628L21.603,0l0.41,2.756
		c0.433,2.91,2.718,5.195,5.628,5.628L30.397,8.794z"/>
	<path style="fill:#583E68;" d="M42.178,39.743c-0.082,0-0.164-0.01-0.246-0.03c-0.535-0.136-0.86-0.68-0.725-1.215
		c0.799-3.16,0.813-6.445,0.041-9.501c-0.135-0.536,0.189-1.079,0.725-1.215c0.542-0.133,1.08,0.19,1.215,0.725
		c0.853,3.377,0.838,7.001-0.041,10.481C43.032,39.441,42.625,39.743,42.178,39.743z"/>
	<path style="fill:#583E68;" d="M40.309,24.998c-0.348,0-0.686-0.182-0.871-0.506c-0.493-0.868-1.062-1.699-1.69-2.471
		c-0.349-0.429-0.284-1.059,0.144-1.407c0.428-0.35,1.058-0.284,1.407,0.144c0.699,0.858,1.331,1.782,1.878,2.746
		c0.272,0.48,0.104,1.091-0.375,1.363C40.646,24.956,40.477,24.998,40.309,24.998z"/>
	<circle style="fill:#FDF0D7;" cx="21" cy="33" r="17"/>
	<path style="fill:#D13834;" d="M21,39.879c-0.552,0-1-0.447-1-1V27.122c0-0.553,0.448-1,1-1s1,0.447,1,1v11.757
		C22,39.431,21.552,39.879,21,39.879z"/>
	<path style="fill:#D13834;" d="M16.843,38.157c-0.256,0-0.512-0.098-0.707-0.293c-0.391-0.391-0.391-1.023,0-1.414l8.313-8.313
		c0.391-0.391,1.023-0.391,1.414,0s0.391,1.023,0,1.414l-8.313,8.313C17.355,38.059,17.099,38.157,16.843,38.157z"/>
	<path style="fill:#D13834;" d="M26.878,34H15.121c-0.552,0-1-0.447-1-1s0.448-1,1-1h11.757c0.552,0,1,0.447,1,1
		S27.431,34,26.878,34z"/>
	<path style="fill:#D13834;" d="M25.157,38.157c-0.256,0-0.512-0.098-0.707-0.293l-8.313-8.313c-0.391-0.391-0.391-1.023,0-1.414
		s1.023-0.391,1.414,0l8.313,8.313c0.391,0.391,0.391,1.023,0,1.414C25.668,38.059,25.413,38.157,25.157,38.157z"/>
	<circle style="fill:#F58265;" cx="26" cy="22" r="1"/>
	<circle style="fill:#F58265;" cx="32" cy="28" r="1"/>
	<circle style="fill:#F58265;" cx="32" cy="38" r="1"/>
	<circle style="fill:#F58265;" cx="26" cy="44" r="1"/>
	<circle style="fill:#F58265;" cx="24" cy="40" r="1"/>
	<circle style="fill:#F58265;" cx="28" cy="36" r="1"/>
	<circle style="fill:#F58265;" cx="28" cy="30" r="1"/>
	<circle style="fill:#F58265;" cx="24" cy="26" r="1"/>
	<circle style="fill:#F58265;" cx="18" cy="26" r="1"/>
	<circle style="fill:#F58265;" cx="14" cy="30" r="1"/>
	<circle style="fill:#F58265;" cx="14" cy="36" r="1"/>
	<circle style="fill:#F58265;" cx="18" cy="40" r="1"/>
	<circle style="fill:#F58265;" cx="16" cy="44" r="1"/>
	<circle style="fill:#F58265;" cx="10" cy="38" r="1"/>
	<circle style="fill:#F58265;" cx="10" cy="28" r="1"/>
	<circle style="fill:#F58265;" cx="16" cy="22" r="1"/>
	<circle style="fill:#F58265;" cx="12" cy="24" r="1"/>
	<circle style="fill:#F58265;" cx="30" cy="24" r="1"/>
	<circle style="fill:#F58265;" cx="12" cy="42" r="1"/>
	<circle style="fill:#F58265;" cx="29" cy="41" r="1"/>
	<circle style="fill:#F58265;" cx="21" cy="45" r="1"/>
	<circle style="fill:#F58265;" cx="21" cy="21" r="1"/>
	<circle style="fill:#F58265;" cx="33" cy="33" r="1"/>
	<circle style="fill:#F58265;" cx="9" cy="33" r="1"/>
</g>
<g>
</g>
<g>
</g>
<g>
</g>
<g>
</g>
<g>
</g>
<g>
</g>
<g>
</g>
<g>
</g>
<g>
</g>
<g>
</g>
<g>
</g>
<g>
</g>
<g>
</g>
<g>
</g>
<g>
</g>
</svg>
