<?xml version="1.0" encoding="iso-8859-1"?>
<!-- Generator: Adobe Illustrator 18.0.0, SVG Export Plug-In . SVG Version: 6.00 Build 0)  -->
<!DOCTYPE svg PUBLIC "-//W3C//DTD SVG 1.1//EN" "http://www.w3.org/Graphics/SVG/1.1/DTD/svg11.dtd">
<svg version="1.1" id="Capa_1" xmlns="http://www.w3.org/2000/svg" xmlns:xlink="http://www.w3.org/1999/xlink" x="0px" y="0px"
	 viewBox="0 0 58 58" style="enable-background:new 0 0 58 58;" xml:space="preserve">
<g>
	<path style="fill:#D2D5D7;" d="M29,31c-0.552,0-1-0.447-1-1V1c0-0.553,0.448-1,1-1s1,0.447,1,1v29C30,30.553,29.552,31,29,31z"/>
	<path style="fill:#D2D5D7;" d="M29,19c-2.757,0-5-2.243-5-5V1c0-0.553,0.448-1,1-1s1,0.447,1,1v13c0,1.654,1.346,3,3,3s3-1.346,3-3
		V1c0-0.553,0.448-1,1-1s1,0.447,1,1v13C34,16.757,31.757,19,29,19z"/>
	<path style="fill:#A46F3E;" d="M29,58L29,58c-1.65,0-3-1.35-3-3V33c0-1.65,1.35-3,3-3h0c1.65,0,3,1.35,3,3v22
		C32,56.65,30.65,58,29,58z"/>
	<path style="fill:#D2D5D7;" d="M29,36L29,36c-0.55,0-1-0.45-1-1v0c0-0.55,0.45-1,1-1h0c0.55,0,1,0.45,1,1v0
		C30,35.55,29.55,36,29,36z"/>
	<path style="fill:#D2D5D7;" d="M29,40L29,40c-0.55,0-1-0.45-1-1v0c0-0.55,0.45-1,1-1h0c0.55,0,1,0.45,1,1v0
		C30,39.55,29.55,40,29,40z"/>
</g>
<g>
</g>
<g>
</g>
<g>
</g>
<g>
</g>
<g>
</g>
<g>
</g>
<g>
</g>
<g>
</g>
<g>
</g>
<g>
</g>
<g>
</g>
<g>
</g>
<g>
</g>
<g>
</g>
<g>
</g>
</svg>
