<?xml version="1.0" encoding="iso-8859-1"?>
<!-- Generator: Adobe Illustrator 18.0.0, SVG Export Plug-In . SVG Version: 6.00 Build 0)  -->
<!DOCTYPE svg PUBLIC "-//W3C//DTD SVG 1.1//EN" "http://www.w3.org/Graphics/SVG/1.1/DTD/svg11.dtd">
<svg version="1.1" id="Capa_1" xmlns="http://www.w3.org/2000/svg" xmlns:xlink="http://www.w3.org/1999/xlink" x="0px" y="0px"
	 viewBox="0 0 59.207 59.207" style="enable-background:new 0 0 59.207 59.207;" xml:space="preserve">
<g>
	<g>
		<path style="fill:#00D7EC;" d="M39.491,8.35L38.4,11.197c0.519,0.586,0.996,1.21,1.425,1.868l1.532-4.001L39.491,8.35z"/>
	</g>
	<path style="fill:#FAF5E5;" d="M41.052,17.795c0.244-1.118,0.125-2.337-0.48-3.479c-2.685-5.068-8.013-8.521-14.148-8.521
		s-11.463,3.453-14.148,8.521c-0.605,1.142-0.724,2.361-0.48,3.479H41.052z"/>
	
		<rect x="40.01" y="6.707" transform="matrix(0.7071 0.7071 -0.7071 0.7071 17.5827 -27.0342)" style="fill:#00D7EC;" width="2.828" height="2"/>
	
		<rect x="42.01" y="4.707" transform="matrix(0.7071 0.7071 -0.7071 0.7071 16.7542 -29.0342)" style="fill:#00D7EC;" width="2.828" height="2"/>
	
		<rect x="44.01" y="2.707" transform="matrix(0.7071 0.7071 -0.7071 0.7071 15.9258 -31.0342)" style="fill:#00D7EC;" width="2.828" height="2"/>
	
		<rect x="46.01" y="0.707" transform="matrix(0.7071 0.7071 -0.7071 0.7071 15.0974 -33.0342)" style="fill:#00D7EC;" width="2.828" height="2"/>
	<path style="fill:#3DABEF;" d="M38.202,11.729l-2.493,6.571h2.141l1.778-4.703C39.198,12.939,38.721,12.316,38.202,11.729z"/>
	<g>
		<path style="fill:#A46F3E;" d="M32.259,58.707H20.59c-1.832,0-3.401-1.312-3.725-3.116l-6.277-36.884
			c-0.085-0.475,0.28-0.912,0.763-0.912h30.146c0.483,0,0.849,0.437,0.763,0.912l-6.277,36.884
			C35.66,57.395,34.091,58.707,32.259,58.707z"/>
		<path style="fill:#8E5B32;" d="M32.259,59.207H20.591c-2.076,0-3.851-1.483-4.218-3.527l-6.277-36.889
			c-0.066-0.367,0.034-0.748,0.277-1.038c0.243-0.291,0.6-0.458,0.979-0.458h30.146c0.379,0,0.735,0.167,0.979,0.458
			c0.243,0.29,0.344,0.671,0.276,1.043l-6.275,36.879C36.109,57.724,34.335,59.207,32.259,59.207z M11.351,18.295
			c-0.112,0-0.181,0.062-0.211,0.099c-0.031,0.037-0.079,0.115-0.06,0.225l6.277,36.889c0.28,1.563,1.641,2.7,3.232,2.7h11.668
			c1.592,0,2.952-1.138,3.233-2.705l6.275-36.879c0.021-0.114-0.027-0.192-0.059-0.229c-0.03-0.037-0.099-0.099-0.211-0.099H11.351z
			"/>
	</g>
	<path style="fill:#CC9669;" d="M23.792,39.887L21.6,41.935c-0.804,0.751-2.076,0.708-2.827-0.096l-2.048-2.192
		c-0.751-0.804-0.708-2.076,0.096-2.827l2.192-2.048c0.804-0.751,2.076-0.708,2.827,0.096l2.048,2.192
		C24.639,37.864,24.596,39.136,23.792,39.887z"/>
	<path style="fill:#E0AB85;" d="M29.792,32.123L27.6,34.171c-0.804,0.751-2.076,0.708-2.827-0.096l-2.048-2.192
		c-0.751-0.804-0.708-2.076,0.096-2.827l2.192-2.048c0.804-0.751,2.076-0.708,2.827,0.096l2.048,2.192
		C30.639,30.1,30.596,31.372,29.792,32.123z"/>
	<path style="fill:#DBB59C;" d="M21.792,27.123L19.6,29.171c-0.804,0.751-2.076,0.708-2.827-0.096l-2.048-2.192
		c-0.751-0.804-0.708-2.076,0.096-2.827l2.192-2.048c0.804-0.751,2.076-0.708,2.827,0.096l2.048,2.192
		C22.639,25.1,22.596,26.372,21.792,27.123z"/>
	<path style="fill:#DBB59C;" d="M32.792,53.123L30.6,55.171c-0.804,0.751-2.076,0.708-2.827-0.096l-2.048-2.192
		c-0.751-0.804-0.708-2.076,0.096-2.827l2.192-2.048c0.804-0.751,2.076-0.708,2.827,0.096l2.048,2.192
		C33.639,51.1,33.596,52.372,32.792,53.123z"/>
	<polygon style="fill:#915D33;" points="35.709,18.301 21.491,55.35 23.358,56.064 37.85,18.301 	"/>
	<circle style="fill:#6A3311;" cx="30.425" cy="35.379" r="1"/>
	<circle style="fill:#6A3311;" cx="32.425" cy="40.379" r="1"/>
	<circle style="fill:#CC9669;" cx="35.425" cy="45.379" r="1"/>
	<circle style="fill:#E0AB85;" cx="27.425" cy="42.379" r="1"/>
	<circle style="fill:#E0AB85;" cx="34.425" cy="34.379" r="1"/>
	<circle style="fill:#6A3311;" cx="19.425" cy="48.472" r="1"/>
	<circle style="fill:#E0AB85;" cx="21.425" cy="54.472" r="1"/>
	<g>
		<path style="fill:#FAF5E5;" d="M16.466,15.015c0,0,3.079-5.85,11.185-5.725"/>
		<path style="fill:#FFFFFF;" d="M16.466,16.016c-0.157,0-0.316-0.037-0.465-0.115c-0.488-0.257-0.677-0.861-0.419-1.351
			c0.136-0.258,3.394-6.262,11.811-6.262c0.091,0,0.183,0.001,0.275,0.002c0.552,0.009,0.993,0.463,0.984,1.016
			c-0.009,0.547-0.455,0.984-1,0.984c-0.07,0.005-0.168-0.001-0.253-0.002c-7.23,0-10.021,5.141-10.048,5.193
			C17.173,15.821,16.825,16.016,16.466,16.016z"/>
	</g>
</g>
<g>
</g>
<g>
</g>
<g>
</g>
<g>
</g>
<g>
</g>
<g>
</g>
<g>
</g>
<g>
</g>
<g>
</g>
<g>
</g>
<g>
</g>
<g>
</g>
<g>
</g>
<g>
</g>
<g>
</g>
</svg>
