<?xml version="1.0" encoding="iso-8859-1"?>
<!-- Generator: Adobe Illustrator 18.0.0, SVG Export Plug-In . SVG Version: 6.00 Build 0)  -->
<!DOCTYPE svg PUBLIC "-//W3C//DTD SVG 1.1//EN" "http://www.w3.org/Graphics/SVG/1.1/DTD/svg11.dtd">
<svg version="1.1" id="Capa_1" xmlns="http://www.w3.org/2000/svg" xmlns:xlink="http://www.w3.org/1999/xlink" x="0px" y="0px"
	 viewBox="0 0 51.5 51.5" style="enable-background:new 0 0 51.5 51.5;" xml:space="preserve">
<g>
	<path style="fill:#FAB900;" d="M25.746,23.726c0.763,0,1.632-0.114,2.537-0.33V0h-5v23.414
		C24.161,23.618,25.004,23.726,25.746,23.726z"/>
	<path style="fill:#FDEB08;" d="M33.283,21.182V5h-5v18C29.972,22.598,31.784,22.232,33.283,21.182z"/>
	<path style="fill:#E09A0A;" d="M35.498,19.068c0.69-0.962,1.675-1.648,2.785-1.965V9h-5v12
		C34.158,20.388,34.928,19.864,35.498,19.068z"/>
	<path style="fill:#FDEB08;" d="M39.664,16.902h2.859c0.267,0,0.518,0.05,0.76,0.122V12h-5v5.103
		C38.728,16.976,39.19,16.902,39.664,16.902z"/>
	<path style="fill:#FDEB08;" d="M23.283,23V5h-5v16.231C19.79,22.271,21.601,22.609,23.283,23z"/>
	<path style="fill:#F8B700;" d="M15.999,19.068c0.586,0.817,1.381,1.309,2.284,1.932V9h-5v8.124
		C14.364,17.45,15.324,18.125,15.999,19.068z"/>
	<path style="fill:#FDEB08;" d="M8.974,16.902h2.859c0.499,0,0.985,0.082,1.45,0.223V12h-5v4.999
		C8.504,16.941,8.733,16.902,8.974,16.902z"/>
	<path style="fill:#D32500;" d="M39.664,16.402c-1.643,0-3.191,0.786-4.139,2.128c-2.06,2.915-6.749,4.697-9.779,4.697
		s-7.714-1.781-9.774-4.697c-0.948-1.342-2.496-2.128-4.139-2.128H8.974c-1.662,0-2.653,1.453-2.653,3.132l0,0.175
		c-0.024,9.791,1.606,19.516,4.823,28.763l0.225,0.647c0.456,1.31,1.963,2.381,3.35,2.381h22.061c1.772,0,3.284-1.281,3.575-3.028
		l0,0c3.262-9.244,4.894-18.984,4.824-28.786l-0.001-0.152c0-1.679-0.991-3.132-2.653-3.132H39.664z"/>
	<path style="fill:#F55E30;" d="M42.524,21.798h-2.859c-1.643,0-3.191,0.786-4.139,2.128c-2.06,2.915-6.749,4.697-9.779,4.697
		s-7.714-1.781-9.774-4.697c-0.948-1.342-2.496-2.128-4.139-2.128H8.974c-1.358,0-2.257,0.975-2.545,2.245
		c0.395,8.32,1.973,16.548,4.715,24.428c0,0,8.654-1.972,14.64-1.972c5.978,0,14.534,2.188,14.57,1.972
		c2.771-7.854,4.353-16.068,4.728-24.372C44.808,22.801,43.902,21.798,42.524,21.798z"/>
	<ellipse style="fill:#FAC84D;" cx="26.283" cy="37.5" rx="7" ry="5"/>
</g>
<g>
</g>
<g>
</g>
<g>
</g>
<g>
</g>
<g>
</g>
<g>
</g>
<g>
</g>
<g>
</g>
<g>
</g>
<g>
</g>
<g>
</g>
<g>
</g>
<g>
</g>
<g>
</g>
<g>
</g>
</svg>
