<?xml version="1.0" encoding="iso-8859-1"?>
<!-- Generator: Adobe Illustrator 18.0.0, SVG Export Plug-In . SVG Version: 6.00 Build 0)  -->
<!DOCTYPE svg PUBLIC "-//W3C//DTD SVG 1.1//EN" "http://www.w3.org/Graphics/SVG/1.1/DTD/svg11.dtd">
<svg version="1.1" id="Capa_1" xmlns="http://www.w3.org/2000/svg" xmlns:xlink="http://www.w3.org/1999/xlink" x="0px" y="0px"
	 viewBox="0 0 51.808 51.808" style="enable-background:new 0 0 51.808 51.808;" xml:space="preserve">
<g>
	<g>
		<ellipse style="fill:#DAE7EF;" cx="28.414" cy="48.808" rx="11" ry="2.5"/>
		<path style="fill:#BBD7EA;" d="M28.414,51.808c-3.978,0-11.5-0.627-11.5-3s7.522-3,11.5-3s11.5,0.627,11.5,3
			S32.392,51.808,28.414,51.808z M28.414,46.808c-6.794,0-10.5,1.321-10.5,2s3.706,2,10.5,2s10.5-1.321,10.5-2
			S35.208,46.808,28.414,46.808z"/>
	</g>
	<g>
		<line style="fill:#DAE7EF;" x1="28.414" y1="33.449" x2="28.414" y2="48.449"/>
		<path style="fill:#BBD7EA;" d="M28.414,49.449c-0.552,0-1-0.447-1-1v-15c0-0.553,0.448-1,1-1s1,0.447,1,1v15
			C29.414,49.001,28.967,49.449,28.414,49.449z"/>
	</g>
	<path style="fill:#A4E869;" d="M9.414,9.308c0,1.454,2.847,2.572,7.244,3.253c0.479-0.983,0.756-2.083,0.756-3.25
		c0-4.108-3.33-7.438-7.438-7.438c-4.108,0-7.437,3.33-7.437,7.438c0,4.108,3.33,7.438,7.437,7.438c1.109,0,2.157-0.249,3.102-0.684
		C10.919,12.982,9.414,10.432,9.414,9.308z"/>
	<g>
		<path style="fill:#DAE7EF;" d="M27.914,4.308c-4.378,0-8.394,0.464-11.562,1.187c0.67,1.117,1.062,2.419,1.062,3.815
			c0,1.167-0.276,2.267-0.756,3.25c-4.1-0.635-6.85-1.65-7.203-2.963c0.008,0.05,0.008,0.092,0.021,0.145
			c0.009,0.041,0.02,0.083,0.032,0.126c0.042,0.155,0.095,0.321,0.165,0.503c0.006,0.015,0.009,0.028,0.016,0.043
			c0.08,0.203,0.18,0.424,0.292,0.657c0.023,0.047,0.047,0.096,0.071,0.144c0.11,0.222,0.23,0.453,0.366,0.698
			c0.01,0.019,0.019,0.036,0.03,0.054c0.153,0.276,0.323,0.566,0.505,0.868c0.019,0.032,0.039,0.064,0.059,0.096
			c0.18,0.296,0.37,0.601,0.574,0.917c0.006,0.009,0.011,0.017,0.017,0.026c0.443,0.688,0.94,1.422,1.478,2.189l0,0
			c3.746,5.345,9.467,12.295,12.76,16.213c1.334,1.587,3.781,1.559,5.076-0.06c4.945-6.183,15.5-19.75,15.5-22.908
			C46.414,6.823,38.132,4.308,27.914,4.308z"/>
		<path style="fill:#BBD7EA;" d="M28.352,33.949c-1.12,0-2.173-0.49-2.896-1.35c-3.146-3.742-8.99-10.829-12.787-16.248
			c-0.542-0.773-1.042-1.512-1.488-2.205c-0.223-0.347-0.417-0.655-0.598-0.955c0-0.001-0.059-0.097-0.06-0.097
			c-0.185-0.308-0.357-0.603-0.514-0.882c-0.169-0.309-0.292-0.546-0.406-0.772l-0.074-0.152c-0.117-0.243-0.222-0.476-0.307-0.688
			C9.129,10.352,9.071,10.17,9.025,10L8.988,9.853C8.984,9.834,8.968,9.728,8.966,9.708c-0.028-0.26,0.145-0.525,0.402-0.573
			C9.623,9.086,9.87,9.216,9.938,9.468c0.1,0.37,0.86,1.629,6.423,2.539c0.367-0.861,0.553-1.767,0.553-2.697
			c0-1.247-0.343-2.478-0.991-3.558c-0.083-0.137-0.094-0.306-0.031-0.453s0.192-0.256,0.349-0.291
			c3.388-0.774,7.534-1.2,11.673-1.2c9.176,0,19,2.21,19,5.5c0,3.224-9.78,15.933-15.609,23.221c-0.71,0.888-1.769,1.405-2.905,1.42
			C28.384,33.949,28.368,33.949,28.352,33.949z M11.437,12.671c0.178,0.292,0.366,0.595,0.567,0.906
			c0.457,0.709,0.95,1.438,1.484,2.199c3.775,5.388,9.598,12.448,12.733,16.179c0.54,0.641,1.318,0.973,2.166,0.993
			c0.835-0.011,1.614-0.392,2.136-1.045c9.637-12.048,15.391-20.495,15.391-22.596c0-1.791-7.179-4.5-18-4.5
			c-3.807,0-7.613,0.365-10.805,1.034c0.528,1.081,0.805,2.268,0.805,3.468c0,1.205-0.271,2.373-0.807,3.47
			c-0.096,0.197-0.304,0.309-0.526,0.275c-2.605-0.403-4.555-0.933-5.835-1.581c0.035,0.065,0.071,0.131,0.108,0.198
			c0.179,0.323,0.346,0.608,0.525,0.904l-0.37,0.354L11.437,12.671z"/>
	</g>
	<path style="fill:#F9EA80;" d="M40.106,20.204c0,1.162-5.754,2.104-11.691,2.104s-12.299-0.942-12.299-2.104
		c0-1.162,6.362-1.896,12.299-1.896S40.106,19.042,40.106,20.204z"/>
	<g>
		<path style="fill:#F2E69C;" d="M28.356,22.308c-5.116,0-10.538-0.7-11.942-1.637c3.276,4.283,6.965,8.75,9.366,11.606
			c1.334,1.587,3.781,1.559,5.076-0.06c2.282-2.854,5.758-7.28,8.841-11.53C38.383,21.616,33.443,22.308,28.356,22.308z"/>
	</g>
	<path style="fill:#FBD490;" d="M39.338,12.535c1.015-0.161,1.95-0.344,2.777-0.551l2.962-4.422
		c-0.484-0.318-1.08-0.625-1.794-0.916L39.338,12.535z"/>
	<g>
		<path style="fill:#B0D9EA;" d="M39.338,12.535L27.81,29.746c-0.307,0.459-0.184,1.08,0.274,1.388
			c0.171,0.114,0.364,0.169,0.556,0.169c0.322,0,0.639-0.155,0.832-0.443l12.643-18.876C41.288,12.191,40.353,12.374,39.338,12.535z
			"/>
	</g>
	<g>
		<g>
			<path style="fill:#DAE7EF;" d="M27.914,4.308c-4.378,0-8.394,0.464-11.562,1.187c0.67,1.117,1.062,2.419,1.062,3.815
				c0,1.167-0.276,2.267-0.756,3.25c3.12,0.483,7.015,0.747,11.256,0.747c10.217,0,18.5-1.515,18.5-4S38.132,4.308,27.914,4.308z"/>
			<path style="fill:#BBD7EA;" d="M27.914,13.808c-4.228,0-8.146-0.261-11.332-0.753c-0.157-0.024-0.293-0.122-0.367-0.263
				c-0.074-0.141-0.076-0.308-0.006-0.45c0.468-0.96,0.705-1.98,0.705-3.032c0-1.247-0.343-2.478-0.991-3.558
				c-0.083-0.137-0.094-0.306-0.031-0.453s0.192-0.256,0.349-0.291c3.388-0.774,7.534-1.2,11.673-1.2c9.176,0,19,2.21,19,5.5
				C46.914,12.629,36.679,13.808,27.914,13.808z M17.379,12.161c3.015,0.424,6.64,0.646,10.536,0.646c11.267,0,18-1.779,18-3.5
				c0-1.791-7.179-4.5-18-4.5c-3.807,0-7.613,0.365-10.805,1.034c0.528,1.081,0.805,2.268,0.805,3.468
				C17.914,10.291,17.735,11.247,17.379,12.161z"/>
		</g>
	</g>
	<path style="fill:#FBD490;" d="M48.825,0.169c-0.458-0.307-1.081-0.186-1.388,0.274l-4.259,6.359c0.673,0.13,1.31,0.429,1.82,0.877
		l4.101-6.123C49.407,1.098,49.284,0.477,48.825,0.169z"/>
	<g>
		<polygon style="fill:#F9D70B;" points="37.428,18.982 37.428,18.982 37.428,18.982 		"/>
		<path style="fill:#F9D70B;" d="M33.868,20.67l-6.057,9.076c-0.307,0.459-0.184,1.08,0.274,1.388
			c0.171,0.114,0.364,0.169,0.556,0.169c0.322,0,0.639-0.155,0.832-0.443l6.993-10.473C35.664,20.5,34.789,20.596,33.868,20.67z"/>
		<polygon style="fill:#F9D70B;" points="35.237,18.659 35.237,18.659 35.237,18.659 		"/>
	</g>
	<path style="fill:#FBD490;" d="M42.533,11.36l2.935-4.401c-0.466-0.303-1.064-0.607-1.804-0.901l-3.948,5.914
		C40.79,11.789,41.727,11.583,42.533,11.36z"/>
</g>
<g>
</g>
<g>
</g>
<g>
</g>
<g>
</g>
<g>
</g>
<g>
</g>
<g>
</g>
<g>
</g>
<g>
</g>
<g>
</g>
<g>
</g>
<g>
</g>
<g>
</g>
<g>
</g>
<g>
</g>
</svg>
