<?xml version="1.0" encoding="iso-8859-1"?>
<!-- Generator: Adobe Illustrator 18.0.0, SVG Export Plug-In . SVG Version: 6.00 Build 0)  -->
<!DOCTYPE svg PUBLIC "-//W3C//DTD SVG 1.1//EN" "http://www.w3.org/Graphics/SVG/1.1/DTD/svg11.dtd">
<svg version="1.1" id="Capa_1" xmlns="http://www.w3.org/2000/svg" xmlns:xlink="http://www.w3.org/1999/xlink" x="0px" y="0px"
	 viewBox="0 0 55 55" style="enable-background:new 0 0 55 55;" xml:space="preserve">
<g>
	<g>
		<ellipse style="fill:#DAE7EF;" cx="27.5" cy="52" rx="11" ry="2.5"/>
		<path style="fill:#BBD7EA;" d="M27.5,55C23.522,55,16,54.373,16,52s7.522-3,11.5-3S39,49.627,39,52S31.478,55,27.5,55z M27.5,50
			C20.706,50,17,51.321,17,52s3.706,2,10.5,2S38,52.679,38,52S34.294,50,27.5,50z"/>
	</g>
	<g>
		<line style="fill:#DAE7EF;" x1="27.5" y1="40.5" x2="27.5" y2="51.5"/>
		<path style="fill:#BBD7EA;" d="M27.5,52.5c-0.552,0-1-0.447-1-1v-11c0-0.553,0.448-1,1-1s1,0.447,1,1v11
			C28.5,52.053,28.052,52.5,27.5,52.5z"/>
	</g>
	<g>
		<path style="fill:#DAE7EF;" d="M36.5,3.5c0,1.657-4.582,3-9,3s-9-1.343-9-3s4.582-3,9-3S36.5,1.843,36.5,3.5z"/>
		<path style="fill:#BBD7EA;" d="M27.5,7C23.517,7,18,5.784,18,3.5S23.517,0,27.5,0S37,1.216,37,3.5S31.483,7,27.5,7z M27.5,1
			C23.002,1,19,2.398,19,3.5S23.002,6,27.5,6S36,4.602,36,3.5S31.998,1,27.5,1z"/>
	</g>
	<g>
		<path style="fill:#DAE7EF;" d="M27.5,6.5c-4.418,0-9-1.343-9-3c0,0,1,37,9,37s9-37,9-37C36.5,5.157,31.918,6.5,27.5,6.5z"/>
		<path style="fill:#BBD7EA;" d="M27.5,41c-8.21,0-9.385-33.334-9.499-37.431C18,3.546,18,3.523,18,3.5
			c0-0.273,0.22-0.496,0.493-0.5c0.002,0,0.005,0,0.007,0c0.271,0,0.493,0.216,0.5,0.486c0,0.015,0,0.029,0.001,0.044
			C19.074,4.628,23.043,6,27.5,6s8.426-1.372,8.499-2.47C36,3.516,36,3.501,36,3.486C36.007,3.216,36.229,3,36.5,3
			c0.002,0,0.004,0,0.007,0C36.78,3.004,37,3.227,37,3.5c0,0.023,0,0.046-0.001,0.069C36.885,7.666,35.71,41,27.5,41z M19.054,5.104
			C19.488,16.181,21.642,40,27.5,40c5.859,0,8.012-23.819,8.446-34.896C34.152,6.349,30.415,7,27.5,7S20.848,6.349,19.054,5.104z"/>
	</g>
	<path style="fill:#FBD490;" d="M35.397,18.175c0,1.454-4.02,2.632-7.897,2.632s-7.897-1.179-7.897-2.632
		c0-1.454,4.02-2.632,7.897-2.632S35.397,16.722,35.397,18.175z"/>
	<g>
		<path style="fill:#F4D8AB;" d="M27.488,20.56c-3.641,0-7.402-1.034-7.924-2.365C20.698,28.583,22.983,40.5,27.496,40.5
			c4.524,0,6.808-11.969,7.94-22.372C35.018,19.492,31.19,20.56,27.488,20.56z"/>
	</g>
	<circle style="fill:#FFFFFF;" cx="24.5" cy="26.5" r="1"/>
	<circle style="fill:#FFFFFF;" cx="27.5" cy="33.5" r="1"/>
	<circle style="fill:#FFFFFF;" cx="30" cy="28" r="1.5"/>
</g>
<g>
</g>
<g>
</g>
<g>
</g>
<g>
</g>
<g>
</g>
<g>
</g>
<g>
</g>
<g>
</g>
<g>
</g>
<g>
</g>
<g>
</g>
<g>
</g>
<g>
</g>
<g>
</g>
<g>
</g>
</svg>
