<?xml version="1.0" encoding="iso-8859-1"?>
<!-- Generator: Adobe Illustrator 18.0.0, SVG Export Plug-In . SVG Version: 6.00 Build 0)  -->
<!DOCTYPE svg PUBLIC "-//W3C//DTD SVG 1.1//EN" "http://www.w3.org/Graphics/SVG/1.1/DTD/svg11.dtd">
<svg version="1.1" id="Capa_1" xmlns="http://www.w3.org/2000/svg" xmlns:xlink="http://www.w3.org/1999/xlink" x="0px" y="0px"
	 viewBox="0 0 41 41" style="enable-background:new 0 0 41 41;" xml:space="preserve">
<g>
	<path style="fill:#231F20;" d="M14.078,27.051c-0.035,0-0.07-0.001-0.105-0.002c-0.802-0.027-1.544-0.364-2.09-0.948l-3.205-3.43
		c-1.13-1.209-1.065-3.111,0.144-4.24l3.43-3.204c1.208-1.13,3.11-1.064,4.24,0.144l3.205,3.43c1.13,1.209,1.065,3.111-0.144,4.24
		l-3.43,3.204C15.564,26.767,14.842,27.051,14.078,27.051z M14.299,16.419c-0.245,0-0.49,0.089-0.683,0.269l-3.43,3.204
		c-0.403,0.377-0.424,1.011-0.048,1.414l3.205,3.43c0.181,0.193,0.429,0.306,0.697,0.314c0.27,0.008,0.522-0.086,0.716-0.267
		l3.431-3.204c0.403-0.377,0.424-1.011,0.048-1.414l-3.205-3.43C14.833,16.525,14.567,16.419,14.299,16.419z M18.87,22.31h0.01
		H18.87z"/>
	<g>
		<ellipse style="fill:#DAE7EF;" cx="20.5" cy="2.5" rx="17" ry="2"/>
		<path style="fill:#BBD7EA;" d="M20.5,5C17.578,5,3,4.88,3,2.5S17.578,0,20.5,0S38,0.12,38,2.5S23.422,5,20.5,5z M4.121,2.5
			C5.247,3.165,11.159,4,20.5,4s15.253-0.835,16.379-1.5C35.753,1.835,29.841,1,20.5,1S5.247,1.835,4.121,2.5z M37.034,2.623h0.01
			H37.034z"/>
	</g>
	<g>
		<path style="fill:#DAE7EF;" d="M20.5,4.5c-9.389,0-17-0.343-17-2l3,36c0,1.104,7.925,2,14,2s14-0.896,14-2l3-36
			C37.5,4.157,29.889,4.5,20.5,4.5z"/>
		<path style="fill:#BBD7EA;" d="M20.5,41c-3.053,0-6.546-0.221-9.344-0.59C6,39.729,6,38.93,6,38.5L3.013,2.681
			C3.004,2.621,3,2.562,3,2.5C3,2.232,3.211,2.012,3.479,2c0.259-0.006,0.497,0.191,0.519,0.458l0.007,0.088
			C4.12,3.019,6.095,4,20.5,4s16.381-0.981,16.494-1.454l0.008-0.088C37.024,2.191,37.263,2.004,37.521,2
			C37.789,2.012,38,2.232,38,2.5c0,0.062-0.004,0.121-0.014,0.181l-2.988,35.861C35,38.93,35,39.729,29.844,40.41
			C27.046,40.779,23.553,41,20.5,41z M6.994,38.403C7.743,39.116,14.139,40,20.5,40c6.366,0,12.768-0.886,13.508-1.598L36.892,3.78
			C35.064,4.566,30.567,5,20.5,5S5.936,4.566,4.108,3.78L6.994,38.403z M34.004,38.455C34.001,38.469,34,38.483,34,38.5
			L34.004,38.455z M6.997,38.443l0.001,0.015C6.999,38.454,6.998,38.448,6.997,38.443z"/>
	</g>
	<path style="fill:#FFFFFF;" d="M29.593,19.825l-3.43,3.205c-0.804,0.751-2.076,0.708-2.827-0.096l-3.205-3.43
		c-0.751-0.804-0.708-2.076,0.096-2.827l3.43-3.205c0.804-0.751,2.076-0.708,2.827,0.096l3.205,3.43
		C30.44,17.802,30.397,19.074,29.593,19.825z"/>
	<path style="fill:#CC6329;" d="M20.582,19.5c-8.046,0-14.578-0.703-15.636-1.614c-0.054-0.015-0.116-0.03-0.167-0.045l1.338,16.053
		c2.469,0.868,9.065,1.493,14.384,1.493s11.914-0.625,14.384-1.493l1.338-16.053c-0.042,0.012-0.092,0.024-0.135,0.037
		C35.08,18.793,28.654,19.5,20.582,19.5z"/>
	<g>
		<path style="fill:#AD5123;" d="M28.782,16.03l0.907,0.971c0.548,0.586,0.668,1.421,0.384,2.121
			c3.766-0.342,6.167-0.883,6.167-1.493C36.239,16.951,33.285,16.359,28.782,16.03z"/>
	</g>
	<g>
		<path style="fill:#AD5123;" d="M12.901,15.99c-4.861,0.32-8.123,0.933-8.123,1.639c0,0.535,1.888,1.016,4.916,1.357L12.901,15.99z
			"/>
		<path style="fill:#AD5123;" d="M15.53,15.854c0.08,0.063,0.16,0.125,0.231,0.202l3.205,3.43c0.001,0.001,0.002,0.003,0.003,0.004
			c0.383,0.005,0.766,0.009,1.158,0.011c-0.745-0.804-0.7-2.071,0.101-2.82l0.986-0.921c-0.211-0.001-0.418-0.004-0.631-0.004
			C18.809,15.755,17.115,15.791,15.53,15.854z"/>
	</g>
	<path style="fill:#FFFFFF;" d="M18.869,22.309l-3.43,3.205c-0.804,0.751-2.076,0.708-2.827-0.096l-3.205-3.43
		c-0.751-0.804-0.708-2.076,0.096-2.827l3.43-3.205c0.804-0.751,2.076-0.708,2.827,0.096l3.205,3.43
		C19.716,20.286,19.673,21.558,18.869,22.309z"/>
	<g>
		<path style="fill:#E28759;" d="M9.739,18.941l-0.235,0.22c-0.804,0.751-0.847,2.023-0.096,2.827l3.205,3.43
			c0.751,0.804,2.023,0.847,2.827,0.096l3.43-3.205c0.802-0.749,0.846-2.017,0.1-2.821C15.406,19.441,12.203,19.241,9.739,18.941z"
			/>
	</g>
	<path style="fill:#E28759;" d="M26.498,28.519l-3.43,3.205c-0.804,0.751-2.076,0.708-2.827-0.096l-3.205-3.43
		c-0.751-0.804-0.708-2.076,0.096-2.827l3.43-3.205c0.804-0.751,2.076-0.708,2.827,0.096l3.205,3.43
		C27.345,26.496,27.301,27.769,26.498,28.519z"/>
</g>
<g>
</g>
<g>
</g>
<g>
</g>
<g>
</g>
<g>
</g>
<g>
</g>
<g>
</g>
<g>
</g>
<g>
</g>
<g>
</g>
<g>
</g>
<g>
</g>
<g>
</g>
<g>
</g>
<g>
</g>
</svg>
