<?xml version="1.0" encoding="iso-8859-1"?>
<!-- Generator: Adobe Illustrator 18.0.0, SVG Export Plug-In . SVG Version: 6.00 Build 0)  -->
<!DOCTYPE svg PUBLIC "-//W3C//DTD SVG 1.1//EN" "http://www.w3.org/Graphics/SVG/1.1/DTD/svg11.dtd">
<svg version="1.1" id="Capa_1" xmlns="http://www.w3.org/2000/svg" xmlns:xlink="http://www.w3.org/1999/xlink" x="0px" y="0px"
	 viewBox="0 0 50 50" style="enable-background:new 0 0 50 50;" xml:space="preserve">
<g>
	<g>
		<path style="fill:#DAE7EF;" d="M31.985,49.5H18.014C8.52,49.5,8.985,2.37,8.985,2.37c0-2.493,32.029-2.493,32.029,0
			C41.014,2.37,41.52,49.5,31.985,49.5z"/>
		<path style="fill:#BBD7EA;" d="M31.985,50H18.014c-0.977,0-1.892-0.424-2.719-1.26C8.181,41.557,8.469,3.962,8.485,2.365
			C8.485,0.309,18.832,0,24.999,0s16.515,0.309,16.515,2.37c0.017,1.59,0.338,39.154-6.792,46.361C33.89,49.573,32.969,50,31.985,50
			z M24.999,1C15.031,1,9.911,1.856,9.46,2.464c0.021,0.298-0.277,38.683,6.545,45.573C16.647,48.685,17.305,49,18.014,49h13.971
			c0.717,0,1.379-0.318,2.026-0.972c6.839-6.913,6.507-45.267,6.503-45.653C40.087,1.856,34.968,1,24.999,1z"/>
	</g>
	<path style="fill:#BBD7EA;" d="M40.405,18.775c-0.031,0.031-0.062,0.062-0.093,0.093c-2.734,2.693-4.568,2.68-7.271-0.024
		c-2.786,2.786-5.077,2.807-7.811,0.073c-2.786,2.786-5.077,2.807-7.811,0.073c-2.786,2.786-5.077,2.519-7.811-0.215l-0.182,0.109
		C10.199,32.47,12.307,49.5,18.014,49.5h13.971c5.721,0,7.826-16.962,8.596-30.534L40.405,18.775z"/>
	<circle style="fill:#FFFFFF;" cx="28.254" cy="26.775" r="1"/>
	<circle style="fill:#FFFFFF;" cx="30.254" cy="31.775" r="1"/>
	<circle style="fill:#FFFFFF;" cx="33.254" cy="36.775" r="1"/>
	<circle style="fill:#FFFFFF;" cx="25.254" cy="33.775" r="1"/>
	<circle style="fill:#FFFFFF;" cx="32.254" cy="25.775" r="1"/>
	<path style="fill:#8AB6CE;" d="M21.622,31.283l-2.192,2.048c-0.804,0.751-2.076,0.708-2.827-0.096l-2.048-2.192
		c-0.751-0.804-0.708-2.076,0.096-2.827l2.192-2.048c0.804-0.751,2.076-0.708,2.827,0.096l2.048,2.192
		C22.469,29.26,22.425,30.532,21.622,31.283z"/>
	<path style="fill:#8AB6CE;" d="M30.622,44.518l-2.192,2.048c-0.804,0.751-2.076,0.708-2.827-0.096l-2.048-2.192
		c-0.751-0.804-0.708-2.076,0.096-2.827l2.192-2.048c0.804-0.751,2.076-0.708,2.827,0.096l2.048,2.192
		C31.469,42.495,31.425,43.767,30.622,44.518z"/>
	<circle style="fill:#FFFFFF;" cx="17.254" cy="39.867" r="1"/>
	<circle style="fill:#FFFFFF;" cx="19.254" cy="45.867" r="1"/>
</g>
<g>
</g>
<g>
</g>
<g>
</g>
<g>
</g>
<g>
</g>
<g>
</g>
<g>
</g>
<g>
</g>
<g>
</g>
<g>
</g>
<g>
</g>
<g>
</g>
<g>
</g>
<g>
</g>
<g>
</g>
</svg>
