<?xml version="1.0" encoding="iso-8859-1"?>
<!-- Generator: Adobe Illustrator 18.0.0, SVG Export Plug-In . SVG Version: 6.00 Build 0)  -->
<!DOCTYPE svg PUBLIC "-//W3C//DTD SVG 1.1//EN" "http://www.w3.org/Graphics/SVG/1.1/DTD/svg11.dtd">
<svg version="1.1" id="Capa_1" xmlns="http://www.w3.org/2000/svg" xmlns:xlink="http://www.w3.org/1999/xlink" x="0px" y="0px"
	 viewBox="0 0 45 45" style="enable-background:new 0 0 45 45;" xml:space="preserve">
<g>
	<g>
		<line style="fill:#DAE7EF;" x1="22" y1="25.5" x2="22" y2="41.5"/>
		<path style="fill:#BBD7EA;" d="M22,42.5c-0.552,0-1-0.447-1-1v-16c0-0.553,0.448-1,1-1s1,0.447,1,1v16
			C23,42.053,22.552,42.5,22,42.5z"/>
	</g>
	<g>
		<path style="fill:#DAE7EF;" d="M37.784,5.656L37.784,5.656c-0.321-0.882-0.999-1.555-1.831-1.9C35.974,3.837,36,3.918,36,4
			c0,1.933-6.044,3.5-13.5,3.5S9,5.933,9,4c0-0.082,0.026-0.163,0.047-0.244c-0.833,0.344-1.51,1.017-1.831,1.899v0
			c-1.25,3.438-1.162,7.265,0.438,10.554c2.676,5.5,8.318,9.29,14.845,9.29s12.169-3.79,14.845-9.29
			C38.946,12.921,39.034,9.094,37.784,5.656z"/>
		<path style="fill:#BBD7EA;" d="M22.5,26c-6.562,0-12.422-3.668-15.295-9.571C5.591,13.111,5.423,9.122,6.746,5.485
			c0.358-0.986,1.127-1.785,2.11-2.19c0.176-0.071,0.377-0.039,0.521,0.086C9.52,3.507,9.579,3.702,9.53,3.887l-0.031,0.12
			C9.5,5.253,14.446,7,22.5,7s13-1.747,13-3c0-0.001-0.03-0.112-0.03-0.113c-0.049-0.185,0.01-0.38,0.153-0.506
			c0.143-0.125,0.346-0.157,0.521-0.086c0.982,0.405,1.752,1.204,2.11,2.19l0,0c1.323,3.638,1.156,7.626-0.458,10.943
			C34.922,22.332,29.061,26,22.5,26z M8.617,4.573c-0.423,0.319-0.75,0.754-0.931,1.254c-1.231,3.384-1.078,7.089,0.418,10.164
			C10.807,21.548,16.324,25,22.5,25c6.176,0,11.692-3.452,14.396-9.009c1.497-3.075,1.649-6.779,0.418-10.164l0,0
			c-0.182-0.5-0.508-0.935-0.932-1.254C35.437,6.825,28.931,8,22.5,8S9.563,6.826,8.617,4.573z"/>
	</g>
	<g>
		<ellipse style="fill:#DAE7EF;" cx="22" cy="42" rx="11" ry="2.5"/>
		<path style="fill:#BBD7EA;" d="M22,45c-3.978,0-11.5-0.627-11.5-3s7.522-3,11.5-3s11.5,0.627,11.5,3S25.977,45,22,45z M22,40
			c-6.794,0-10.5,1.321-10.5,2s3.706,2,10.5,2s10.5-1.321,10.5-2S28.794,40,22,40z"/>
	</g>
	<g>
		<ellipse style="fill:#DAE7EF;" cx="22.5" cy="4" rx="13.5" ry="3.5"/>
		<path style="fill:#BBD7EA;" d="M22.5,8c-6.957,0-14-1.374-14-4s7.043-4,14-4s14,1.374,14,4S29.457,8,22.5,8z M22.5,1
			c-8.054,0-13,1.747-13,3s4.946,3,13,3s13-1.747,13-3S30.554,1,22.5,1z"/>
	</g>
	<ellipse style="fill:#894C3F;" cx="22.5" cy="14.628" rx="15.482" ry="4.014"/>
	<g>
		<path style="fill:#6A3311;" d="M22.5,18.642c-7.509,0-13.766-1.386-15.18-3.225c0.108,0.266,0.208,0.534,0.334,0.793
			c2.676,5.5,8.318,9.29,14.845,9.29s12.169-3.79,14.845-9.29c0.126-0.26,0.227-0.527,0.334-0.793
			C36.266,17.256,30.009,18.642,22.5,18.642z"/>
	</g>
	<circle style="fill:#994530;" cx="26.667" cy="21.771" r="1"/>
	<circle style="fill:#994530;" cx="17.852" cy="21.334" r="1"/>
</g>
<g>
</g>
<g>
</g>
<g>
</g>
<g>
</g>
<g>
</g>
<g>
</g>
<g>
</g>
<g>
</g>
<g>
</g>
<g>
</g>
<g>
</g>
<g>
</g>
<g>
</g>
<g>
</g>
<g>
</g>
</svg>
