<?xml version="1.0" encoding="iso-8859-1"?>
<!-- Generator: Adobe Illustrator 18.0.0, SVG Export Plug-In . SVG Version: 6.00 Build 0)  -->
<!DOCTYPE svg PUBLIC "-//W3C//DTD SVG 1.1//EN" "http://www.w3.org/Graphics/SVG/1.1/DTD/svg11.dtd">
<svg version="1.1" id="Capa_1" xmlns="http://www.w3.org/2000/svg" xmlns:xlink="http://www.w3.org/1999/xlink" x="0px" y="0px"
	 viewBox="0 0 54.081 54.081" style="enable-background:new 0 0 54.081 54.081;" xml:space="preserve">
<g>
	<g>
		<path style="fill:#F9D70B;" d="M43.815,10.162l-1.954,0.54c-2.292,0.341-4.091,2.141-4.432,4.432l-0.54,1.954l1.954-0.54
			c2.292-0.341,4.091-2.141,4.432-4.432L43.815,10.162z"/>
		<path style="fill:#EEAF4B;" d="M35.456,18.521l0.993-3.598c0.429-2.694,2.508-4.773,5.202-5.201l3.597-0.994l-0.994,3.598
			c-0.428,2.694-2.507,4.773-5.201,5.201L35.456,18.521z M42.381,11.596l-0.374,0.096c-1.869,0.277-3.312,1.721-3.59,3.59
			l-0.096,0.373l0.374-0.096c1.869-0.277,3.312-1.721,3.59-3.59L42.381,11.596z"/>
	</g>
	<g>
		<path style="fill:#F9D70B;" d="M32.529,7.362l-1,1.763c-1.379,1.862-1.379,4.406,0,6.268l1,1.763l1-1.763
			c1.379-1.862,1.379-4.406,0-6.268L32.529,7.362z"/>
		<path style="fill:#EEAF4B;" d="M32.529,19.183l-1.841-3.245c-1.603-2.208-1.603-5.149,0-7.356l1.841-3.247l1.841,3.247
			c1.602,2.207,1.602,5.148,0,7.356L32.529,19.183z M32.529,9.389l-0.197,0.332c-1.125,1.518-1.125,3.559,0,5.078l0.196,0.331
			l0.196-0.331c1.125-1.52,1.125-3.561,0-5.078L32.529,9.389z"/>
	</g>
	<g>
		<path style="fill:#F9D70B;" d="M46.566,21.399l-1.763-1c-1.862-1.379-4.406-1.379-6.268,0l-1.763,1l1.763,1
			c1.862,1.379,4.406,1.379,6.268,0L46.566,21.399z"/>
		<path style="fill:#EEAF4B;" d="M41.669,24.442c-1.287,0-2.574-0.4-3.678-1.202l-3.246-1.841l3.246-1.841
			c2.209-1.604,5.149-1.604,7.356,0l3.247,1.841l-3.247,1.841C44.243,24.042,42.956,24.442,41.669,24.442z M38.798,21.399
			l0.332,0.196c1.519,1.125,3.56,1.125,5.077,0l0.332-0.196l-0.332-0.196c-1.518-1.127-3.558-1.127-5.077,0L38.798,21.399z"/>
	</g>
	<g>
		<path style="fill:#F9D70B;" d="M26.165,13.726l-1,1.763c-1.379,1.862-1.379,4.406,0,6.268l1,1.763l1-1.763
			c1.379-1.862,1.379-4.406,0-6.268L26.165,13.726z"/>
		<path style="fill:#EEAF4B;" d="M26.165,25.548l-1.841-3.247c-1.602-2.208-1.602-5.147,0-7.355l1.841-3.247l1.841,3.247
			c1.603,2.208,1.603,5.147,0,7.355L26.165,25.548z M26.165,15.753l-0.196,0.332c-1.125,1.518-1.125,3.559,0,5.076l0.196,0.332
			l0.197-0.332c1.125-1.518,1.125-3.559,0-5.076L26.165,15.753z"/>
	</g>
	<g>
		<path style="fill:#F9D70B;" d="M40.202,27.763l-1.763-1c-1.862-1.379-4.406-1.379-6.268,0l-1.763,1l1.763,1
			c1.862,1.379,4.406,1.379,6.268,0L40.202,27.763z"/>
		<path style="fill:#EEAF4B;" d="M35.305,30.806c-1.288,0-2.574-0.4-3.679-1.202l-3.246-1.841l3.246-1.841
			c2.208-1.602,5.148-1.602,7.356,0l3.245,1.841l-3.245,1.841C37.879,30.405,36.592,30.806,35.305,30.806z M32.435,27.763
			l0.332,0.196c1.519,1.125,3.559,1.127,5.078,0l0.332-0.196l-0.332-0.196c-1.519-1.125-3.56-1.124-5.078,0L32.435,27.763z"/>
	</g>
	<g>
		<path style="fill:#F9D70B;" d="M19.801,20.09l-1,1.763c-1.379,1.862-1.379,4.406,0,6.268l1,1.763l1-1.763
			c1.379-1.862,1.379-4.406,0-6.268L19.801,20.09z"/>
		<path style="fill:#EEAF4B;" d="M19.801,31.912l-1.841-3.247c-1.603-2.207-1.603-5.148,0-7.356l1.841-3.245l1.841,3.245
			c1.602,2.209,1.602,5.149,0,7.356L19.801,31.912z M19.801,22.116l-0.196,0.331c-1.125,1.52-1.125,3.561,0,5.078l0.197,0.332
			l0.196-0.332c1.125-1.518,1.125-3.559,0-5.078L19.801,22.116z"/>
	</g>
	<g>
		<path style="fill:#F9D70B;" d="M33.838,34.127l-1.763-1c-1.862-1.379-4.406-1.379-6.268,0l-1.763,1l1.763,1
			c1.862,1.379,4.406,1.379,6.268,0L33.838,34.127z"/>
		<path style="fill:#EEAF4B;" d="M28.941,37.17c-1.287,0-2.574-0.401-3.678-1.202l-3.246-1.841l3.246-1.841
			c2.208-1.601,5.147-1.603,7.356,0l3.246,1.841l-3.246,1.841C31.515,36.769,30.228,37.17,28.941,37.17z M26.071,34.127l0.332,0.196
			c1.52,1.126,3.56,1.125,5.078,0l0.332-0.196l-0.332-0.196c-1.518-1.124-3.559-1.126-5.078,0L26.071,34.127z"/>
	</g>
	<g>
		<path style="fill:#F9D70B;" d="M13.437,26.454l-1,1.763c-1.379,1.862-1.379,4.406,0,6.268l1,1.763l1-1.763
			c1.379-1.862,1.379-4.406,0-6.268L13.437,26.454z"/>
		<path style="fill:#EEAF4B;" d="M13.437,38.274l-1.841-3.245c-1.602-2.208-1.602-5.148,0-7.356l1.841-3.245l1.841,3.245
			c1.603,2.208,1.603,5.148,0,7.356L13.437,38.274z M13.437,28.48l-0.196,0.331c-1.125,1.52-1.125,3.56,0,5.079l0.196,0.331
			l0.196-0.331c1.125-1.52,1.125-3.56,0-5.079L13.437,28.48z"/>
	</g>
	<g>
		<path style="fill:#F9D70B;" d="M27.474,40.491l-1.763-1c-1.862-1.379-4.406-1.379-6.268,0l-1.763,1l1.763,1
			c1.862,1.379,4.406,1.379,6.268,0L27.474,40.491z"/>
		<path style="fill:#EEAF4B;" d="M22.577,43.534c-1.287,0-2.574-0.4-3.678-1.202l-3.246-1.841l3.246-1.841
			c2.209-1.604,5.148-1.604,7.357,0l3.246,1.841l-3.246,1.841C25.151,43.134,23.864,43.534,22.577,43.534z M19.707,40.491
			l0.332,0.196c1.519,1.125,3.56,1.125,5.078,0l0.332-0.196l-0.332-0.196c-1.519-1.127-3.56-1.127-5.078,0L19.707,40.491z"/>
	</g>
	<g>
		<path style="fill:#F9D70B;" d="M7.073,32.818l-1,1.763c-1.379,1.862-1.379,4.406,0,6.268l1,1.763l1-1.763
			c1.379-1.862,1.379-4.406,0-6.268L7.073,32.818z"/>
		<path style="fill:#EEAF4B;" d="M7.073,44.64l-1.841-3.247c-1.603-2.208-1.603-5.147,0-7.355l1.841-3.247l1.841,3.247
			c1.603,2.208,1.603,5.147,0,7.355L7.073,44.64z M7.073,34.845l-0.197,0.332c-1.125,1.518-1.125,3.559,0,5.076l0.197,0.332
			l0.197-0.332c1.125-1.518,1.125-3.559,0-5.076L7.073,34.845z"/>
	</g>
	<g>
		<path style="fill:#F9D70B;" d="M21.11,46.855l-1.763-1c-1.862-1.379-4.406-1.379-6.268,0l-1.763,1l1.763,1
			c1.862,1.379,4.406,1.379,6.268,0L21.11,46.855z"/>
		<path style="fill:#EEAF4B;" d="M16.213,49.897c-1.287,0-2.574-0.4-3.678-1.202l-3.246-1.841l3.246-1.841
			c2.209-1.602,5.149-1.601,7.356,0l3.246,1.841l-3.246,1.841C18.787,49.497,17.5,49.897,16.213,49.897z M13.343,46.854l0.332,0.196
			c1.518,1.126,3.559,1.128,5.078,0l0.332-0.196l-0.332-0.196c-1.519-1.125-3.559-1.124-5.078,0L13.343,46.854z"/>
	</g>
	<g>
		<line style="fill:#F9D70B;" x1="36.719" y1="17.209" x2="1" y2="52.928"/>
		<path style="fill:#EEAF4B;" d="M1,53.928c-0.256,0-0.512-0.098-0.707-0.293c-0.391-0.391-0.391-1.023,0-1.414l35.719-35.719
			c0.391-0.391,1.023-0.391,1.414,0s0.391,1.023,0,1.414L1.707,53.635C1.512,53.83,1.256,53.928,1,53.928z"/>
	</g>
	<g>
		<line style="fill:#F9D70B;" x1="36.111" y1="6.81" x2="41.767" y2="1.154"/>
		<path style="fill:#EEAF4B;" d="M36.11,7.811c-0.256,0-0.512-0.098-0.707-0.293c-0.391-0.391-0.391-1.023,0-1.414l5.657-5.657
			c0.391-0.391,1.023-0.391,1.414,0s0.391,1.023,0,1.414l-5.657,5.657C36.622,7.713,36.366,7.811,36.11,7.811z"/>
	</g>
	<g>
		<line style="fill:#F9D70B;" x1="40.353" y1="8.225" x2="47.424" y2="1.154"/>
		<path style="fill:#EEAF4B;" d="M40.353,9.225c-0.256,0-0.512-0.098-0.707-0.293c-0.391-0.391-0.391-1.023,0-1.414l7.071-7.071
			c0.391-0.391,1.023-0.391,1.414,0s0.391,1.023,0,1.414L41.06,8.932C40.865,9.127,40.609,9.225,40.353,9.225z"/>
	</g>
	<g>
		<line style="fill:#F9D70B;" x1="46.01" y1="13.882" x2="53.081" y2="6.81"/>
		<path style="fill:#EEAF4B;" d="M46.01,14.882c-0.256,0-0.512-0.098-0.707-0.293c-0.391-0.391-0.391-1.023,0-1.414l7.071-7.071
			c0.391-0.391,1.023-0.391,1.414,0s0.391,1.023,0,1.414l-7.071,7.071C46.521,14.784,46.266,14.882,46.01,14.882z"/>
	</g>
	<g>
		<line style="fill:#F9D70B;" x1="46.717" y1="7.518" x2="53.081" y2="1.154"/>
		<path style="fill:#EEAF4B;" d="M46.717,8.518c-0.256,0-0.512-0.098-0.707-0.293c-0.391-0.391-0.391-1.023,0-1.414l6.364-6.364
			c0.391-0.391,1.023-0.391,1.414,0s0.391,1.023,0,1.414l-6.364,6.364C47.229,8.42,46.973,8.518,46.717,8.518z"/>
	</g>
	<g>
		<line style="fill:#F9D70B;" x1="47.424" y1="18.124" x2="53.081" y2="12.467"/>
		<path style="fill:#EEAF4B;" d="M47.424,19.124c-0.256,0-0.512-0.098-0.707-0.293c-0.391-0.391-0.391-1.023,0-1.414l5.657-5.656
			c0.391-0.391,1.023-0.391,1.414,0s0.391,1.023,0,1.414l-5.657,5.656C47.936,19.026,47.68,19.124,47.424,19.124z"/>
	</g>
</g>
<g>
</g>
<g>
</g>
<g>
</g>
<g>
</g>
<g>
</g>
<g>
</g>
<g>
</g>
<g>
</g>
<g>
</g>
<g>
</g>
<g>
</g>
<g>
</g>
<g>
</g>
<g>
</g>
<g>
</g>
</svg>
