<?xml version="1.0" encoding="iso-8859-1"?>
<!-- Generator: Adobe Illustrator 18.0.0, SVG Export Plug-In . SVG Version: 6.00 Build 0)  -->
<!DOCTYPE svg PUBLIC "-//W3C//DTD SVG 1.1//EN" "http://www.w3.org/Graphics/SVG/1.1/DTD/svg11.dtd">
<svg version="1.1" id="Capa_1" xmlns="http://www.w3.org/2000/svg" xmlns:xlink="http://www.w3.org/1999/xlink" x="0px" y="0px"
	 viewBox="0 0 54 54" style="enable-background:new 0 0 54 54;" xml:space="preserve">
<g>
	<path style="fill:#E6E6E6;" d="M40.009,54H13.991c-2.135,0-3.801-1.846-3.583-3.97L14,15h26l3.593,35.03
		C43.811,52.154,42.144,54,40.009,54z"/>
	<path style="fill:#D2D5D7;" d="M14.025,54h25.951c2.147,0,3.817-1.866,3.58-4v0H10.444v0C10.207,52.134,11.878,54,14.025,54z"/>
	<path style="fill:#D2D5D7;" d="M39,17H15c-1.657,0-3-1.343-3-3v0c0-1.657,1.343-3,3-3h24c1.657,0,3,1.343,3,3v0
		C42,15.657,40.657,17,39,17z"/>
	<path style="fill:#D2D5D7;" d="M40.962,14H13.038l0.181-1.154C14.381,5.402,20.177,0,27,0s12.619,5.402,13.781,12.846L40.962,14z
		 M15.421,12h23.158C37.192,6.14,32.479,2,27,2S16.808,6.14,15.421,12z"/>
	<path style="fill:#D2D5D7;" d="M21,23c-0.256,0-0.512-0.098-0.707-0.293L19,21.414l-1.293,1.293c-0.391,0.391-1.023,0.391-1.414,0
		s-0.391-1.023,0-1.414L19,18.586l2.707,2.707c0.391,0.391,0.391,1.023,0,1.414C21.512,22.902,21.256,23,21,23z"/>
	<path style="fill:#D2D5D7;" d="M29,23c-0.256,0-0.512-0.098-0.707-0.293L27,21.414l-1.293,1.293c-0.391,0.391-1.023,0.391-1.414,0
		s-0.391-1.023,0-1.414L27,18.586l2.707,2.707c0.391,0.391,0.391,1.023,0,1.414C29.512,22.902,29.256,23,29,23z"/>
	<path style="fill:#D2D5D7;" d="M37,23c-0.256,0-0.512-0.098-0.707-0.293L35,21.414l-1.293,1.293c-0.391,0.391-1.023,0.391-1.414,0
		s-0.391-1.023,0-1.414L35,18.586l2.707,2.707c0.391,0.391,0.391,1.023,0,1.414C37.512,22.902,37.256,23,37,23z"/>
	<path style="fill:#D2D5D7;" d="M21,35c-0.256,0-0.512-0.098-0.707-0.293L19,33.414l-1.293,1.293c-0.391,0.391-1.023,0.391-1.414,0
		s-0.391-1.023,0-1.414L19,30.586l2.707,2.707c0.391,0.391,0.391,1.023,0,1.414C21.512,34.902,21.256,35,21,35z"/>
	<path style="fill:#D2D5D7;" d="M29,35c-0.256,0-0.512-0.098-0.707-0.293L27,33.414l-1.293,1.293c-0.391,0.391-1.023,0.391-1.414,0
		s-0.391-1.023,0-1.414L27,30.586l2.707,2.707c0.391,0.391,0.391,1.023,0,1.414C29.512,34.902,29.256,35,29,35z"/>
	<path style="fill:#D2D5D7;" d="M37,35c-0.256,0-0.512-0.098-0.707-0.293L35,33.414l-1.293,1.293c-0.391,0.391-1.023,0.391-1.414,0
		s-0.391-1.023,0-1.414L35,30.586l2.707,2.707c0.391,0.391,0.391,1.023,0,1.414C37.512,34.902,37.256,35,37,35z"/>
	<path style="fill:#D2D5D7;" d="M21,47c-0.256,0-0.512-0.098-0.707-0.293L19,45.414l-1.293,1.293c-0.391,0.391-1.023,0.391-1.414,0
		s-0.391-1.023,0-1.414L19,42.586l2.707,2.707c0.391,0.391,0.391,1.023,0,1.414C21.512,46.902,21.256,47,21,47z"/>
	<path style="fill:#D2D5D7;" d="M29,47c-0.256,0-0.512-0.098-0.707-0.293L27,45.414l-1.293,1.293c-0.391,0.391-1.023,0.391-1.414,0
		s-0.391-1.023,0-1.414L27,42.586l2.707,2.707c0.391,0.391,0.391,1.023,0,1.414C29.512,46.902,29.256,47,29,47z"/>
	<path style="fill:#D2D5D7;" d="M37,47c-0.256,0-0.512-0.098-0.707-0.293L35,45.414l-1.293,1.293c-0.391,0.391-1.023,0.391-1.414,0
		s-0.391-1.023,0-1.414L35,42.586l2.707,2.707c0.391,0.391,0.391,1.023,0,1.414C37.512,46.902,37.256,47,37,47z"/>
	<path style="fill:#D2D5D7;" d="M25,29c-0.256,0-0.512-0.098-0.707-0.293L23,27.414l-1.293,1.293c-0.391,0.391-1.023,0.391-1.414,0
		s-0.391-1.023,0-1.414L23,24.586l2.707,2.707c0.391,0.391,0.391,1.023,0,1.414C25.512,28.902,25.256,29,25,29z"/>
	<path style="fill:#D2D5D7;" d="M33,29c-0.256,0-0.512-0.098-0.707-0.293L31,27.414l-1.293,1.293c-0.391,0.391-1.023,0.391-1.414,0
		s-0.391-1.023,0-1.414L31,24.586l2.707,2.707c0.391,0.391,0.391,1.023,0,1.414C33.512,28.902,33.256,29,33,29z"/>
	<path style="fill:#D2D5D7;" d="M17,41c-0.256,0-0.512-0.098-0.707-0.293L15,39.414l-1.293,1.293c-0.391,0.391-1.023,0.391-1.414,0
		s-0.391-1.023,0-1.414L15,36.586l2.707,2.707c0.391,0.391,0.391,1.023,0,1.414C17.512,40.902,17.256,41,17,41z"/>
	<path style="fill:#D2D5D7;" d="M41,41c-0.256,0-0.512-0.098-0.707-0.293L39,39.414l-1.293,1.293c-0.391,0.391-1.023,0.391-1.414,0
		s-0.391-1.023,0-1.414L39,36.586l2.707,2.707c0.391,0.391,0.391,1.023,0,1.414C41.512,40.902,41.256,41,41,41z"/>
	<path style="fill:#D2D5D7;" d="M25,41c-0.256,0-0.512-0.098-0.707-0.293L23,39.414l-1.293,1.293c-0.391,0.391-1.023,0.391-1.414,0
		s-0.391-1.023,0-1.414L23,36.586l2.707,2.707c0.391,0.391,0.391,1.023,0,1.414C25.512,40.902,25.256,41,25,41z"/>
	<path style="fill:#D2D5D7;" d="M33,41c-0.256,0-0.512-0.098-0.707-0.293L31,39.414l-1.293,1.293c-0.391,0.391-1.023,0.391-1.414,0
		s-0.391-1.023,0-1.414L31,36.586l2.707,2.707c0.391,0.391,0.391,1.023,0,1.414C33.512,40.902,33.256,41,33,41z"/>
	<path style="fill:#D2D5D7;" d="M41.21,26.796L39,24.586l-2.707,2.707c-0.391,0.391-0.391,1.023,0,1.414s1.023,0.391,1.414,0
		L39,27.414l1.293,1.293C40.488,28.902,40.744,29,41,29c0.147,0,0.29-0.041,0.425-0.106L41.21,26.796z"/>
	<path style="fill:#D2D5D7;" d="M16.293,28.707C16.488,28.902,16.744,29,17,29s0.512-0.098,0.707-0.293
		c0.391-0.391,0.391-1.023,0-1.414L15,24.586l-2.21,2.21l-0.215,2.099c0.371,0.177,0.825,0.12,1.132-0.187L15,27.414L16.293,28.707z
		"/>
</g>
<g>
</g>
<g>
</g>
<g>
</g>
<g>
</g>
<g>
</g>
<g>
</g>
<g>
</g>
<g>
</g>
<g>
</g>
<g>
</g>
<g>
</g>
<g>
</g>
<g>
</g>
<g>
</g>
<g>
</g>
</svg>
