<?xml version="1.0" encoding="iso-8859-1"?>
<!-- Generator: Adobe Illustrator 18.0.0, SVG Export Plug-In . SVG Version: 6.00 Build 0)  -->
<!DOCTYPE svg PUBLIC "-//W3C//DTD SVG 1.1//EN" "http://www.w3.org/Graphics/SVG/1.1/DTD/svg11.dtd">
<svg version="1.1" id="Capa_1" xmlns="http://www.w3.org/2000/svg" xmlns:xlink="http://www.w3.org/1999/xlink" x="0px" y="0px"
	 viewBox="0 0 58 58" style="enable-background:new 0 0 58 58;" xml:space="preserve">
<g>
	<path style="fill:#874F31;" d="M49.868,52H49l-2.871-19.141C46.061,32.407,46.411,32,46.868,32h0c1.317,0,2.578-0.78,2.978-2.035
		C50.502,27.911,48.963,26,47,26H11.132c-1.458,0-2.799,0.982-3.075,2.414C7.689,30.318,9,32,11,32h0.099
		c0.474,0,0.837,0.422,0.767,0.891L9,52H8.132c-1.451,0-2.789,0.972-3.071,2.395C4.68,56.307,6.152,58,8,58h42
		c1.848,0,3.32-1.693,2.94-3.605C52.657,52.972,51.32,52,49.868,52z"/>
	<path style="fill:#EFE8D5;" d="M29,11c-8.837,0-16,6.164-16,15h32C45,17.164,37.837,11,29,11z"/>
	<path style="fill:#D2D5D7;" d="M29,12c-0.553,0-1-0.447-1-1c0-1.559,0.484-3,4-3h13.5c0.941,0,2.231,0,2.489-0.152
		C47.978,7.814,48,7.509,48,7c0-0.553,0.447-1,1-1s1,0.447,1,1c0,3-1.41,3-4.5,3H32c-2,0-2,0.293-2,1C30,11.553,29.553,12,29,12z"/>
	<circle style="fill:#4C312C;" cx="48.5" cy="3.5" r="3.5"/>
	<g>
		<polygon style="fill:#AF765D;" points="14.875,45 14,52 44,52 43.125,45 		"/>
		<polygon style="fill:#AF765D;" points="42.875,43 42,36 16,36 15.125,43 		"/>
	</g>
	<path style="fill:#D2D5D7;" d="M31,40.292h-5c-0.553,0-1-0.447-1-1s0.447-1,1-1h5c0.553,0,1,0.447,1,1S31.553,40.292,31,40.292z"/>
	<path style="fill:#D2D5D7;" d="M31,49.5h-5c-0.553,0-1-0.447-1-1s0.447-1,1-1h5c0.553,0,1,0.447,1,1S31.553,49.5,31,49.5z"/>
	<path style="fill:#FFFFFF;" d="M18.999,20.616c-0.138,0-0.277-0.028-0.411-0.089c-0.503-0.228-0.727-0.819-0.499-1.323
		c0.542-1.2,1.376-2.214,2.479-3.015c0.449-0.326,1.072-0.225,1.397,0.222c0.324,0.447,0.225,1.073-0.222,1.397
		c-0.818,0.594-1.435,1.34-1.832,2.22C19.744,20.397,19.38,20.616,18.999,20.616z"/>
	<path style="fill:#FFFFFF;" d="M25.999,16.207c-0.488,0-0.915-0.357-0.988-0.854c-0.081-0.547,0.297-1.055,0.843-1.136
		C26.831,14.073,27.89,14,29,14c0.553,0,1,0.447,1,1s-0.447,1-1,1c-1.013,0-1.973,0.066-2.854,0.196
		C26.097,16.203,26.048,16.207,25.999,16.207z"/>
	<path style="fill:#A46F3E;" d="M36,33h-6c-0.553,0-1-0.447-1-1s0.447-1,1-1h6c0.553,0,1,0.447,1,1S36.553,33,36,33z"/>
	<path style="fill:#A46F3E;" d="M42,33h-2c-0.553,0-1-0.447-1-1s0.447-1,1-1h2c0.553,0,1,0.447,1,1S42.553,33,42,33z"/>
</g>
<g>
</g>
<g>
</g>
<g>
</g>
<g>
</g>
<g>
</g>
<g>
</g>
<g>
</g>
<g>
</g>
<g>
</g>
<g>
</g>
<g>
</g>
<g>
</g>
<g>
</g>
<g>
</g>
<g>
</g>
</svg>
