<?xml version="1.0" encoding="iso-8859-1"?>
<!-- Generator: Adobe Illustrator 18.0.0, SVG Export Plug-In . SVG Version: 6.00 Build 0)  -->
<!DOCTYPE svg PUBLIC "-//W3C//DTD SVG 1.1//EN" "http://www.w3.org/Graphics/SVG/1.1/DTD/svg11.dtd">
<svg version="1.1" id="Capa_1" xmlns="http://www.w3.org/2000/svg" xmlns:xlink="http://www.w3.org/1999/xlink" x="0px" y="0px"
	 viewBox="0 0 50.027 50.027" style="enable-background:new 0 0 50.027 50.027;" xml:space="preserve">
<g>
	<g>
		<path style="fill:#773F3A;" d="M38.966,42.77c0.612-0.438,1.204-0.916,1.753-1.465c0.637-0.637,1.192-1.325,1.68-2.046
			l2.389,1.086c0.767-0.987,1.269-1.726,1.269-1.726c1.888-3.667,1.76-7.676-1.494-10.929L24.057,7.184
			c-4.472-4.472-11.791-4.472-16.263,0s-4.472,11.791,0,16.263l20.506,20.506c3.287,3.287,7.344,3.384,11.041,1.434L38.966,42.77z"
			/>
		<path style="fill:#773F3A;" d="M34.522,47.675c-2.54,0-4.931-1.016-6.93-3.015L7.086,24.155c-4.873-4.874-4.873-12.804,0-17.678
			c4.873-4.873,12.805-4.873,17.678,0l20.506,20.507c3.315,3.314,3.927,7.723,1.676,12.094l-0.062,0.104
			c-0.021,0.031-0.529,0.777-1.308,1.778l-0.484,0.623l-2.359-1.073c-0.408,0.539-0.846,1.042-1.307,1.503
			c-0.413,0.413-0.869,0.811-1.386,1.207l0.39,2.725l-0.623,0.329C38.026,47.211,36.24,47.675,34.522,47.675z M15.925,4.822
			c-2.689,0-5.378,1.022-7.425,3.069c-4.093,4.094-4.093,10.756,0,14.85l20.507,20.506c3.343,3.344,7.018,2.565,9.24,1.563
			l-0.357-2.5l0.495-0.354c0.634-0.453,1.166-0.897,1.627-1.358c0.563-0.563,1.087-1.201,1.559-1.899l0.473-0.699l2.433,1.105
			c0.373-0.499,0.632-0.87,0.721-0.998c1.818-3.579,1.344-7.025-1.341-9.709L23.35,7.891C21.303,5.845,18.613,4.822,15.925,4.822z"
			/>
	</g>
	<path style="fill:#965E5E;" d="M7.793,7.184c0.452-0.452,0.94-0.846,1.444-1.207L8.481,0.682C8.373-0.071,7.37-0.256,7,0.409
		L4.761,4.44C4.665,4.613,4.507,4.744,4.318,4.807L2.287,5.484C1.602,5.712,1.552,6.662,2.209,6.96l4.2,1.909
		C6.811,8.276,7.269,7.709,7.793,7.184z"/>
	<path style="fill:#965E5E;" d="M40.719,41.305c-0.549,0.549-1.141,1.027-1.753,1.465l0.918,6.428
		c0.131,0.914,1.348,1.139,1.797,0.332l2.718-4.893c0.117-0.211,0.309-0.37,0.538-0.446l2.466-0.822
		c0.831-0.277,0.892-1.43,0.094-1.792l-5.099-2.317C41.911,39.98,41.356,40.668,40.719,41.305z"/>
	<path style="fill:#965E5E;" d="M8.583,25.237c-0.012,0-0.024,0-0.036-0.001c-0.552-0.019-0.983-0.482-0.964-1.034
		C8.059,10.543,18.849,6.972,24.664,6.972c0.065,0,0.131,0,0.195,0.001c0.552,0.008,0.992,0.461,0.985,1.013
		c-0.007,0.548-0.454,0.987-1,0.987c-0.017-0.001-0.033,0-0.062,0c-1.089,0-14.679,0.307-15.202,15.299
		C9.562,24.812,9.119,25.237,8.583,25.237z"/>
	<path style="fill:#965E5E;" d="M14.947,31.601c-0.012,0-0.023,0-0.036-0.001c-0.552-0.019-0.983-0.481-0.964-1.034
		c0.476-13.658,11.266-17.229,17.081-17.229c0.065,0,0.131,0,0.195,0.001c0.552,0.008,0.992,0.461,0.985,1.013
		s-0.46,0.997-1.012,0.987c-0.6,0.012-14.719,0.011-15.252,15.299C15.927,31.176,15.483,31.601,14.947,31.601z"/>
	<path style="fill:#965E5E;" d="M21.311,37.964c-0.012,0-0.023,0-0.036-0.001c-0.552-0.019-0.983-0.481-0.964-1.034
		c0.48-13.813,11.547-17.322,17.276-17.228c0.552,0.008,0.992,0.461,0.985,1.013c-0.007,0.548-0.454,0.987-1,0.987
		c-0.015,0.001-0.033,0-0.062,0c-1.091,0-14.68,0.307-15.202,15.298C22.291,37.54,21.848,37.964,21.311,37.964z"/>
	<path style="fill:#965E5E;" d="M27.675,44.329c-0.012,0-0.024,0-0.036-0.001c-0.552-0.019-0.983-0.482-0.964-1.034
		c0.477-13.658,11.266-17.229,17.081-17.229c0.065,0,0.131,0,0.195,0.001c0.552,0.008,0.992,0.461,0.985,1.013
		c-0.007,0.548-0.454,0.987-1,0.987c-0.015,0.001-0.033,0-0.062,0c-1.089,0-14.679,0.307-15.202,15.299
		C28.654,43.904,28.211,44.329,27.675,44.329z"/>
	<path style="fill:#965E5E;" d="M8.526,15.321c-0.277,0-0.554-0.115-0.752-0.34c-0.146-0.168-0.274-0.307-0.388-0.43
		c-0.554-0.6-0.859-0.961-1.222-1.994c-0.184-0.521,0.091-1.092,0.612-1.274c0.52-0.186,1.092,0.09,1.274,0.612
		c0.243,0.691,0.362,0.82,0.805,1.301c0.123,0.133,0.262,0.283,0.422,0.465c0.364,0.416,0.323,1.048-0.092,1.412
		C8.996,15.239,8.761,15.321,8.526,15.321z"/>
	<path style="fill:#965E5E;" d="M14.818,21.574c-0.256,0-0.512-0.098-0.707-0.293l-2.48-2.481c-0.391-0.391-0.391-1.023,0-1.414
		s1.023-0.391,1.414,0l2.48,2.481c0.391,0.391,0.391,1.023,0,1.414C15.33,21.476,15.074,21.574,14.818,21.574z"/>
	<path style="fill:#965E5E;" d="M21.231,27.987c-0.256,0-0.512-0.098-0.707-0.293l-2.583-2.584c-0.391-0.391-0.391-1.023,0-1.414
		s1.023-0.391,1.414,0l2.583,2.584c0.391,0.391,0.391,1.023,0,1.414C21.743,27.889,21.487,27.987,21.231,27.987z"/>
	<path style="fill:#965E5E;" d="M27.769,34.525c-0.256,0-0.512-0.098-0.707-0.293l-2.451-2.451c-0.391-0.391-0.391-1.023,0-1.414
		s1.023-0.391,1.414,0l2.451,2.451c0.391,0.391,0.391,1.023,0,1.414C28.281,34.427,28.025,34.525,27.769,34.525z"/>
	<path style="fill:#965E5E;" d="M36.303,42.445c-0.193,0-0.39-0.056-0.562-0.173c-1.53-1.042-3.088-2.344-4.76-3.979
		c-0.395-0.386-0.401-1.02-0.016-1.414c0.388-0.395,1.021-0.402,1.414-0.016c1.587,1.553,3.055,2.781,4.486,3.755
		c0.457,0.312,0.575,0.934,0.265,1.39C36.936,42.291,36.623,42.445,36.303,42.445z"/>
	<path style="fill:#965E5E;" d="M14.297,9.717c-0.258,0-0.516-0.1-0.711-0.297l-0.177-0.18c-0.574-0.585-0.769-0.782-1.458-1.072
		c-0.51-0.214-0.749-0.8-0.535-1.309c0.213-0.511,0.803-0.751,1.309-0.535c1.062,0.445,1.479,0.871,2.111,1.515l0.172,0.175
		C15.396,8.408,15.392,9.041,15,9.428C14.805,9.622,14.551,9.717,14.297,9.717z"/>
	<path style="fill:#965E5E;" d="M20.502,15.966c-0.256,0-0.512-0.098-0.707-0.293l-2.739-2.74c-0.391-0.391-0.391-1.023,0-1.414
		s1.023-0.391,1.414,0l2.739,2.74c0.391,0.391,0.391,1.023,0,1.414C21.014,15.869,20.758,15.966,20.502,15.966z"/>
	<path style="fill:#965E5E;" d="M26.738,22.202c-0.256,0-0.512-0.098-0.707-0.293l-2.471-2.471c-0.391-0.391-0.391-1.023,0-1.414
		s1.023-0.391,1.414,0l2.471,2.471c0.391,0.391,0.391,1.023,0,1.414C27.25,22.104,26.994,22.202,26.738,22.202z"/>
	<path style="fill:#965E5E;" d="M33.096,28.56c-0.256,0-0.512-0.098-0.707-0.293l-2.469-2.469c-0.391-0.391-0.391-1.023,0-1.414
		s1.023-0.391,1.414,0l2.469,2.469c0.391,0.391,0.391,1.023,0,1.414C33.607,28.462,33.351,28.56,33.096,28.56z"/>
	<path style="fill:#965E5E;" d="M41.218,37.459c-0.335,0-0.662-0.168-0.852-0.474c-1.083-1.75-2.521-3.297-3.914-4.709
		c-0.388-0.393-0.384-1.026,0.01-1.414c0.392-0.388,1.024-0.384,1.414,0.01c1.476,1.494,3.004,3.143,4.191,5.061
		c0.29,0.47,0.146,1.086-0.324,1.377C41.579,37.412,41.397,37.459,41.218,37.459z"/>
</g>
<g>
</g>
<g>
</g>
<g>
</g>
<g>
</g>
<g>
</g>
<g>
</g>
<g>
</g>
<g>
</g>
<g>
</g>
<g>
</g>
<g>
</g>
<g>
</g>
<g>
</g>
<g>
</g>
<g>
</g>
</svg>
