<?xml version="1.0" encoding="iso-8859-1"?>
<!-- Generator: Adobe Illustrator 18.0.0, SVG Export Plug-In . SVG Version: 6.00 Build 0)  -->
<!DOCTYPE svg PUBLIC "-//W3C//DTD SVG 1.1//EN" "http://www.w3.org/Graphics/SVG/1.1/DTD/svg11.dtd">
<svg version="1.1" id="Capa_1" xmlns="http://www.w3.org/2000/svg" xmlns:xlink="http://www.w3.org/1999/xlink" x="0px" y="0px"
	 viewBox="0 0 55 55" style="enable-background:new 0 0 55 55;" xml:space="preserve">
<g>
	<path style="fill:#B85133;" d="M51,33.646H3c-1.1,0-2-0.9-2-2v0c0-1.1,0.9-2,2-2h48c1.1,0,2,0.9,2,2v0
		C53,32.746,52.1,33.646,51,33.646z"/>
	<path style="fill:#B85133;" d="M50,25.646H2c-1.1,0-2-0.9-2-2v0c0-1.1,0.9-2,2-2h48c1.1,0,2,0.9,2,2v0
		C52,24.746,51.1,25.646,50,25.646z"/>
	<path style="fill:#6A3311;" d="M53,29.646H4c-1.1,0-2-0.9-2-2v0c0-1.1,0.9-2,2-2h49c1.1,0,2,0.9,2,2v0
		C55,28.746,54.1,29.646,53,29.646z"/>
	<path style="fill:#88C057;" d="M5.444,17.354v3.664v0.002c0,1.519,1.231,2.75,2.75,2.75c1.278,0,2.352-0.872,2.661-2.053
		c0.026-0.098,0.153-0.098,0.178,0c0.309,1.181,1.383,2.053,2.661,2.053s2.352-0.872,2.661-2.053c0.026-0.098,0.153-0.098,0.178,0
		c0.309,1.181,1.383,2.053,2.661,2.053c1.278,0,2.352-0.872,2.661-2.053c0.026-0.098,0.153-0.098,0.178,0
		c0.309,1.181,1.383,2.053,2.661,2.053c1.278,0,2.352-0.872,2.661-2.053c0.026-0.098,0.153-0.098,0.178,0
		c0.309,1.181,1.383,2.053,2.661,2.053c1.278,0,2.352-0.872,2.661-2.053c0.026-0.098,0.153-0.098,0.178,0
		c0.309,1.181,1.383,2.053,2.661,2.053s2.352-0.872,2.661-2.053c0.026-0.098,0.153-0.098,0.178,0
		c0.309,1.181,1.383,2.053,2.661,2.053s2.352-0.872,2.661-2.053c0.026-0.098,0.153-0.098,0.178,0
		c0.309,1.181,1.383,2.053,2.661,2.053c1.519,0,2.75-1.231,2.75-2.75v-0.002v-3.664H5.444z"/>
	<path style="fill:#659C35;" d="M49,37.646v-3.664v-0.002c0-1.519-1.231-2.75-2.75-2.75c-1.278,0-2.352,0.872-2.661,2.053
		c-0.026,0.098-0.153,0.098-0.178,0c-0.309-1.181-1.383-2.053-2.661-2.053s-2.352,0.872-2.661,2.053
		c-0.026,0.098-0.153,0.098-0.178,0c-0.309-1.181-1.383-2.053-2.661-2.053s-2.352,0.872-2.661,2.053
		c-0.026,0.098-0.153,0.098-0.178,0c-0.309-1.181-1.383-2.053-2.661-2.053s-2.352,0.872-2.661,2.053
		c-0.026,0.098-0.153,0.098-0.178,0c-0.309-1.181-1.383-2.053-2.661-2.053s-2.352,0.872-2.661,2.053
		c-0.026,0.098-0.153,0.098-0.178,0c-0.309-1.181-1.383-2.053-2.661-2.053s-2.352,0.872-2.661,2.053
		c-0.026,0.098-0.153,0.098-0.178,0c-0.309-1.181-1.383-2.053-2.661-2.053s-2.352,0.872-2.661,2.053
		c-0.026,0.098-0.153,0.098-0.178,0c-0.309-1.181-1.383-2.053-2.661-2.053c-1.519,0-2.75,1.231-2.75,2.75v0.002v3.664H49z"/>
	<path style="fill:#D99F4C;" d="M27.444,7.354h11c8.236,0,11.942,5.996,13.318,9.134c0.714,1.629-0.238,3.594-1.999,3.84
		c-0.124,0.017-0.242,0.026-0.352,0.026H27.444H5.478c-0.11,0-0.228-0.009-0.352-0.026c-1.761-0.246-2.713-2.211-1.999-3.84
		c1.375-3.138,5.081-9.134,13.318-9.134H27.444z"/>
	<path style="fill:#EFDFA0;" d="M37.443,17.354c-0.19,0-0.383-0.055-0.554-0.168l-3-2c-0.459-0.307-0.583-0.927-0.277-1.387
		c0.306-0.46,0.927-0.583,1.387-0.277l3,2c0.459,0.307,0.583,0.927,0.277,1.387C38.083,17.198,37.766,17.354,37.443,17.354z"/>
	<path style="fill:#EFDFA0;" d="M23.443,13.354c-0.15,0-0.303-0.034-0.446-0.105c-0.494-0.247-0.694-0.848-0.447-1.342l1-2
		c0.247-0.494,0.846-0.694,1.342-0.447c0.494,0.247,0.694,0.848,0.447,1.342l-1,2C24.163,13.152,23.81,13.354,23.443,13.354z"/>
	<path style="fill:#EFDFA0;" d="M12.443,16.354c-0.15,0-0.303-0.034-0.446-0.105c-0.494-0.247-0.694-0.848-0.447-1.342l1-2
		c0.247-0.493,0.847-0.692,1.342-0.447c0.494,0.247,0.694,0.848,0.447,1.342l-1,2C13.163,16.152,12.81,16.354,12.443,16.354z"/>
	<path style="fill:#D99F4C;" d="M49,34.646h-3.966h-4h-14H5.068c-1.1,0-2,0.9-2,2c0,0,1.81,11,12.966,11h11h11
		c11.156,0,12.966-11,12.966-11C51,35.546,50.1,34.646,49,34.646z"/>
	<path style="fill:#EFDFA0;" d="M15.033,41.646c-0.19,0-0.383-0.055-0.554-0.168l-3-2c-0.459-0.307-0.583-0.927-0.277-1.387
		c0.306-0.459,0.926-0.584,1.387-0.277l3,2c0.459,0.307,0.583,0.927,0.277,1.387C15.673,41.49,15.356,41.646,15.033,41.646z"/>
	<path style="fill:#EFDFA0;" d="M26.035,43.646c-0.367,0-0.72-0.202-0.896-0.553l-1-2c-0.247-0.494-0.047-1.095,0.447-1.342
		c0.495-0.247,1.095-0.047,1.342,0.447l1,2c0.247,0.494,0.047,1.095-0.447,1.342C26.338,43.612,26.185,43.646,26.035,43.646z"/>
	<path style="fill:#EFDFA0;" d="M33.033,41.645c-0.15,0-0.303-0.034-0.446-0.105c-0.494-0.247-0.694-0.848-0.447-1.342l1-2
		c0.247-0.493,0.846-0.692,1.342-0.447c0.494,0.247,0.694,0.848,0.447,1.342l-1,2C33.753,41.443,33.4,41.645,33.033,41.645z"/>
</g>
<g>
</g>
<g>
</g>
<g>
</g>
<g>
</g>
<g>
</g>
<g>
</g>
<g>
</g>
<g>
</g>
<g>
</g>
<g>
</g>
<g>
</g>
<g>
</g>
<g>
</g>
<g>
</g>
<g>
</g>
</svg>
