<?xml version="1.0" encoding="iso-8859-1"?>
<!-- Generator: Adobe Illustrator 18.0.0, SVG Export Plug-In . SVG Version: 6.00 Build 0)  -->
<!DOCTYPE svg PUBLIC "-//W3C//DTD SVG 1.1//EN" "http://www.w3.org/Graphics/SVG/1.1/DTD/svg11.dtd">
<svg version="1.1" id="Capa_1" xmlns="http://www.w3.org/2000/svg" xmlns:xlink="http://www.w3.org/1999/xlink" x="0px" y="0px"
	 viewBox="0 0 48.527 48.527" style="enable-background:new 0 0 48.527 48.527;" xml:space="preserve">
<g>
	<g>
		<path style="fill:#698A25;" d="M47.11,33.655c3.156-8.4,0.519-17.266-7.282-25.067C31.932,0.692,22.944-1.918,14.454,1.42
			c5.694,8.791,11.379,7.84,11.379,7.84c-6.539,7.697-3.867,14.728-3.424,15.752c1.024,0.443,8.055,3.115,15.752-3.424
			C38.161,21.587,37.127,27.74,47.11,33.655z"/>
	</g>
	<path style="fill:#914D2B;" d="M38.161,21.587c-7.697,6.539-14.728,3.867-15.752,3.424c-0.443-1.024-3.115-8.055,3.424-15.752
		c0,0-4.646,0.752-9.743-5.589c-2.553,1.1-5.051,2.823-7.433,5.205C-0.764,18.297-1.971,40.49,2.971,45.432
		c5.348,5.483,27.135,3.735,36.557-5.687c2.439-2.439,4.178-4.999,5.273-7.615C37.324,26.729,38.161,21.587,38.161,21.587z"/>
	<path style="fill:#AF7E56;" d="M7.023,47.631c-2.172,0-3.832-0.539-4.855-1.589c-0.386-0.396-0.378-1.028,0.018-1.414
		c0.395-0.385,1.027-0.378,1.414,0.018c0.809,0.829,2.597,1.155,4.923,0.896c5.285-0.592,12.553-4.145,15.565-9.063
		c0.288-0.47,0.902-0.618,1.375-0.33c0.471,0.288,0.619,0.904,0.33,1.375c-3.457,5.645-11.364,9.368-17.048,10.006
		C8.14,47.597,7.565,47.631,7.023,47.631z"/>
	<path style="fill:#AF7E56;" d="M2.551,46.013c-0.252,0-0.504-0.095-0.698-0.284c-1.312-1.279-1.826-3.553-1.486-6.576
		c0.637-5.685,4.36-13.591,10.006-17.049c0.472-0.289,1.087-0.14,1.375,0.33c0.289,0.471,0.141,1.087-0.33,1.375
		c-4.919,3.013-8.471,10.28-9.063,15.566c-0.26,2.319,0.066,4.113,0.896,4.922c0.396,0.386,0.403,1.019,0.018,1.414
		C3.071,45.913,2.811,46.013,2.551,46.013z"/>
	<path style="fill:#AF7E56;" d="M2.907,46.353c-0.258,0-0.518-0.097-0.716-0.287c-0.47-0.451-0.68-1.132-0.623-2.024
		c0.205-3.23,4.109-9.887,8.375-13.052c0.442-0.329,1.068-0.237,1.398,0.207c0.329,0.443,0.236,1.069-0.207,1.398
		c-4.806,3.566-8.15,10.901-7.53,12.062c0.398,0.383,0.397,0.999,0.015,1.397C3.426,46.254,3.167,46.353,2.907,46.353z"/>
</g>
<g>
</g>
<g>
</g>
<g>
</g>
<g>
</g>
<g>
</g>
<g>
</g>
<g>
</g>
<g>
</g>
<g>
</g>
<g>
</g>
<g>
</g>
<g>
</g>
<g>
</g>
<g>
</g>
<g>
</g>
</svg>
