<?xml version="1.0" encoding="iso-8859-1"?>
<!-- Generator: Adobe Illustrator 18.0.0, SVG Export Plug-In . SVG Version: 6.00 Build 0)  -->
<!DOCTYPE svg PUBLIC "-//W3C//DTD SVG 1.1//EN" "http://www.w3.org/Graphics/SVG/1.1/DTD/svg11.dtd">
<svg version="1.1" id="Capa_1" xmlns="http://www.w3.org/2000/svg" xmlns:xlink="http://www.w3.org/1999/xlink" x="0px" y="0px"
	 viewBox="0 0 54 54" style="enable-background:new 0 0 54 54;" xml:space="preserve">
<g>
	<circle cx="34.065" cy="21" r="1"/>
	<path style="fill:#E6E6E6;" d="M12.335,18.058l1.354,2.256c0.597,0.994,1.922,1.254,2.85,0.558l1.343-1.008
		c0.779-0.584,1.868-0.506,2.556,0.182l0.533,0.533c0.841,0.841,2.233,0.743,2.947-0.209l0.409-0.545
		c0.782-1.043,2.347-1.043,3.129,0l0.051,0.067c0.824,1.099,2.495,1.028,3.223-0.137l1.933-3.093c0.859-1.374,2.92-1.167,3.489,0.35
		l0.682,1.819c0.542,1.446,2.469,1.722,3.395,0.487l0.074-0.099c0.623-0.83,1.786-1.029,2.649-0.454l2.073,1.382
		c1.3,0.866,3.04-0.065,3.04-1.627v-1.421c0-7.952-9.978-5.665-9.978-9.978V6.652h0.066c1.793,0,3.26-1.467,3.26-3.26V3.26
		c0-1.793-1.467-3.26-3.26-3.26H15.847c-1.793,0-3.26,1.467-3.26,3.26v0.132c0,1.793,1.467,3.26,3.26,3.26h0.066v0.468
		c0,4.313-9.978,2.026-9.978,9.978v1.749l3.997-1.599C10.823,16.892,11.841,17.235,12.335,18.058z"/>
	<path style="fill:#F9DA49;" d="M45.025,20.147l-2.073-1.382c-0.863-0.576-2.026-0.377-2.649,0.454l-0.074,0.099
		c-0.927,1.236-2.853,0.96-3.395-0.487l-0.682-1.819c-0.569-1.517-2.63-1.724-3.489-0.35l-1.933,3.093
		c-0.728,1.165-2.398,1.236-3.223,0.137l-0.051-0.068c-0.782-1.043-2.347-1.043-3.129,0l-0.409,0.545
		c-0.714,0.952-2.106,1.051-2.947,0.209l-0.533-0.533c-0.688-0.688-1.777-0.766-2.556-0.182l-1.344,1.008
		c-0.928,0.696-2.253,0.436-2.85-0.558l-1.354-2.256c-0.494-0.823-1.512-1.166-2.403-0.809l-1.78,0.712v26.744
		c0,5.133,4.161,9.295,9.295,9.295H27h9.553c5.133,0,9.295-4.161,9.295-9.295V20.444C45.568,20.406,45.287,20.322,45.025,20.147z"/>
	<path style="fill:#D2D5D7;" d="M35.086,7.652H25.065c-0.552,0-1-0.447-1-1s0.448-1,1-1h10.021c0.552,0,1,0.447,1,1
		S35.638,7.652,35.086,7.652z"/>
	<path style="fill:#D2D5D7;" d="M21.07,7.652h-2.806c-0.552,0-1-0.447-1-1s0.448-1,1-1h2.806c0.552,0,1,0.447,1,1
		S21.622,7.652,21.07,7.652z"/>
	<circle style="fill:#ED8F20;" cx="17.264" cy="28.609" r="1"/>
	<circle style="fill:#ED8F20;" cx="17.28" cy="33.609" r="1"/>
	<circle style="fill:#ED8F20;" cx="21.466" cy="29.195" r="1"/>
	<circle style="fill:#ED8F20;" cx="14.065" cy="44" r="1"/>
	<circle style="fill:#ED8F20;" cx="20.065" cy="49" r="1"/>
	<circle style="fill:#ED8F20;" cx="15.065" cy="49" r="1"/>
	<circle style="fill:#ED8F20;" cx="13.065" cy="37" r="1"/>
	<circle style="fill:#ED8F20;" cx="16.065" cy="39" r="1"/>
	<circle style="fill:#ED8F20;" cx="13.065" cy="32" r="1"/>
	<circle style="fill:#ED8F20;" cx="13.065" cy="26" r="1"/>
	<circle style="fill:#ED8F20;" cx="32.065" cy="25" r="1"/>
	<circle style="fill:#ED8F20;" cx="27.065" cy="26" r="1"/>
	<circle style="fill:#ED8F20;" cx="18.065" cy="24" r="1"/>
	<circle style="fill:#ED8F20;" cx="37.065" cy="24" r="1"/>
	<circle style="fill:#ED8F20;" cx="42.065" cy="22" r="1"/>
	<circle style="fill:#ED8F20;" cx="40.065" cy="28" r="1"/>
	<circle style="fill:#ED8F20;" cx="23.453" cy="25.189" r="1"/>
	<polygon style="fill:#F9EA80;" points="19.073,42.133 20.583,36.583 26.132,35.074 30.173,39.114 28.663,44.664 23.114,46.173 	"/>
	<polygon style="fill:#EEAF4B;" points="26.126,35.059 27.636,29.509 33.185,28 37.225,32.04 35.716,37.59 30.166,39.099 	"/>
	<polygon style="fill:#EDBC64;" points="28.64,44.64 30.149,39.09 35.699,37.581 39.739,41.621 38.23,47.171 32.68,48.68 	"/>
</g>
<g>
</g>
<g>
</g>
<g>
</g>
<g>
</g>
<g>
</g>
<g>
</g>
<g>
</g>
<g>
</g>
<g>
</g>
<g>
</g>
<g>
</g>
<g>
</g>
<g>
</g>
<g>
</g>
<g>
</g>
</svg>
