<?xml version="1.0" encoding="iso-8859-1"?>
<!-- Generator: Adobe Illustrator 18.0.0, SVG Export Plug-In . SVG Version: 6.00 Build 0)  -->
<!DOCTYPE svg PUBLIC "-//W3C//DTD SVG 1.1//EN" "http://www.w3.org/Graphics/SVG/1.1/DTD/svg11.dtd">
<svg version="1.1" id="Capa_1" xmlns="http://www.w3.org/2000/svg" xmlns:xlink="http://www.w3.org/1999/xlink" x="0px" y="0px"
	 viewBox="0 0 55.933 55.933" style="enable-background:new 0 0 55.933 55.933;" xml:space="preserve">
<g>
	<path style="fill:#DAE7EF;" d="M36.586,16.355v-0.422h1c1.1,0,2-0.9,2-2v-2c0-0.594-0.267-1.123-0.682-1.49l-5.147-0.51H15.586
		c-1.1,0-2,0.9-2,2v2c0,1.1,0.9,2,2,2h1v0.422c0,3.89-7,1.828-7,9v22.194c0,4.63,3.753,8.383,8.383,8.383h8.617h8.617
		c4.63,0,8.383-3.753,8.383-8.383V25.355C43.586,18.183,36.586,20.245,36.586,16.355z"/>
	<path style="fill:#FBD490;" d="M45.761,3.414l-19.17,19.17l-2.828-2.828l19.17-19.17c0.781-0.781,2.047-0.781,2.828,0v0
		C46.542,1.367,46.542,2.633,45.761,3.414z"/>
	<path style="fill:#F9DA49;" d="M17.969,55.933h8.617h8.617c4.63,0,8.383-3.753,8.383-8.383V37.313
		c-4.188,3.227-6.986,3.618-11.174,0.391c-4.188-3.227-7.225-3.904-11.413-0.677c-4.188,3.227-7.225,3.904-11.413,0.677v9.845
		C9.586,52.179,13.339,55.933,17.969,55.933z"/>
	<circle style="fill:#EEAF4B;" cx="30.586" cy="47.933" r="1"/>
	<path style="fill:#FBD490;" d="M24.382,30.622L24.382,30.622c-0.972,0.972-2.563,0.972-3.536,0l-4.95-4.95
		c-0.972-0.972-0.972-2.563,0-3.536l0,0c0.972-0.972,2.563-0.972,3.536,0l4.95,4.95C25.354,28.059,25.354,29.65,24.382,30.622z"/>
	<path style="fill:#EEAF4B;" d="M19.786,33.097L19.786,33.097c-0.972,0.972-2.563,0.972-3.536,0l-2.828-2.828
		c-0.972-0.972-0.972-2.563,0-3.536l0,0c0.972-0.972,2.563-0.972,3.536,0l2.828,2.828C20.758,30.534,20.758,32.125,19.786,33.097z"
		/>
	<path style="fill:#EEAF4B;" d="M26.776,26.106L26.776,26.106c-0.972,0.972-2.563,0.972-3.536,0l-2.828-2.828
		c-0.972-0.972-0.972-2.563,0-3.536l0,0c0.972-0.972,2.563-0.972,3.536,0l2.828,2.828C27.749,23.543,27.749,25.134,26.776,26.106z"
		/>
	<circle style="fill:#EEAF4B;" cx="27.586" cy="51.933" r="1"/>
	<circle style="fill:#EEAF4B;" cx="33.586" cy="50.933" r="1"/>
	<circle style="fill:#EEAF4B;" cx="37.586" cy="48.933" r="1"/>
	<polygon style="fill:#EEAF4B;" points="15.468,49.869 14.35,47.933 15.468,45.996 17.704,45.996 18.822,47.933 17.704,49.869 	"/>
	<polygon style="fill:#EEAF4B;" points="21.468,45.806 20.35,43.869 21.468,41.933 23.704,41.933 24.822,43.869 23.704,45.806 	"/>
</g>
<g>
</g>
<g>
</g>
<g>
</g>
<g>
</g>
<g>
</g>
<g>
</g>
<g>
</g>
<g>
</g>
<g>
</g>
<g>
</g>
<g>
</g>
<g>
</g>
<g>
</g>
<g>
</g>
<g>
</g>
</svg>
