<?xml version="1.0" encoding="iso-8859-1"?>
<!-- Generator: Adobe Illustrator 18.0.0, SVG Export Plug-In . SVG Version: 6.00 Build 0)  -->
<!DOCTYPE svg PUBLIC "-//W3C//DTD SVG 1.1//EN" "http://www.w3.org/Graphics/SVG/1.1/DTD/svg11.dtd">
<svg version="1.1" id="Capa_1" xmlns="http://www.w3.org/2000/svg" xmlns:xlink="http://www.w3.org/1999/xlink" x="0px" y="0px"
	 viewBox="0 0 58.175 58.175" style="enable-background:new 0 0 58.175 58.175;" xml:space="preserve">
<g>
	<path style="fill:#D99F4C;" d="M17.222,17.309L27.406,7.125c10.329-10.329,17.99-6.02,17.99-6.02
		c0.598,0.598,0.255,1.921-0.764,2.94L24.295,24.382L3.957,44.72c-1.018,1.018-2.341,1.362-2.94,0.764c0,0-4.309-7.66,6.02-17.99
		L17.222,17.309z"/>
	<path style="fill:#D99F4C;" d="M41.31,39.898l-10.07,10.07c-10.213,10.213-17.854,5.884-17.854,5.884
		c-0.598-0.598-0.264-1.912,0.743-2.919l20.108-20.108l20.108-20.108c1.007-1.007,2.321-1.341,2.919-0.743
		c0,0,4.328,7.642-5.884,17.854L41.31,39.898z"/>
	<path style="fill:#6A3311;" d="M56.078,11.326l-44.84,44.84c-2.562,2.562-6.755,2.562-9.317,0l0,0
		c-2.562-2.562-2.562-6.755,0-9.317l44.84-44.84c2.562-2.562,6.755-2.562,9.317,0l0,0C58.641,4.571,58.641,8.764,56.078,11.326z"/>
	<circle style="fill:#EFDFA0;" cx="46.282" cy="26.588" r="1.5"/>
	<circle style="fill:#EFDFA0;" cx="31.282" cy="43.588" r="1.5"/>
	<circle style="fill:#EFDFA0;" cx="42.782" cy="34.088" r="1"/>
	<circle style="fill:#EFDFA0;" cx="22.782" cy="50.088" r="1"/>
	<circle style="fill:#EFDFA0;" cx="52.782" cy="22.088" r="1"/>
	<circle style="fill:#EFDFA0;" cx="35.782" cy="36.088" r="1"/>
	<circle style="fill:#EFDFA0;" cx="29.782" cy="10.088" r="1.5"/>
	<circle style="fill:#EFDFA0;" cx="14.782" cy="27.088" r="1.5"/>
	<circle style="fill:#EFDFA0;" cx="26.282" cy="17.588" r="1"/>
	<circle style="fill:#EFDFA0;" cx="6.282" cy="33.588" r="1"/>
	<circle style="fill:#EFDFA0;" cx="36.282" cy="5.588" r="1"/>
	<circle style="fill:#EFDFA0;" cx="19.282" cy="19.588" r="1"/>
	<path style="fill:#F9D70B;" d="M2.768,53.32c-0.553,0-1-0.447-1-1c0-1.721,1.4-3.121,3.121-3.121c0.618,0,1.121-0.503,1.121-1.121
		c0-1.721,1.4-3.121,3.121-3.121c0.619,0,1.122-0.503,1.122-1.122c0-1.721,1.4-3.121,3.121-3.121c0.618,0,1.121-0.503,1.121-1.121
		c0-1.721,1.4-3.121,3.121-3.121c0.619,0,1.122-0.503,1.122-1.122c0-1.721,1.4-3.121,3.121-3.121c0.618,0,1.121-0.503,1.121-1.121
		c0-1.721,1.4-3.121,3.121-3.121c0.619,0,1.122-0.503,1.122-1.122c0-1.721,1.4-3.121,3.121-3.121c0.618,0,1.121-0.503,1.121-1.121
		c0-1.721,1.4-3.121,3.121-3.121c0.618,0,1.121-0.503,1.121-1.121c0-1.722,1.4-3.122,3.122-3.122c0.618,0,1.121-0.503,1.121-1.121
		c0-1.721,1.4-3.121,3.121-3.121c0.618,0,1.121-0.503,1.121-1.121c0-1.722,1.4-3.122,3.122-3.122c0.618,0,1.121-0.503,1.121-1.121
		c0-1.721,1.4-3.121,3.121-3.121c0.553,0,1,0.447,1,1s-0.447,1-1,1c-0.618,0-1.121,0.503-1.121,1.121c0,1.721-1.4,3.121-3.121,3.121
		c-0.619,0-1.122,0.503-1.122,1.122c0,1.721-1.4,3.121-3.121,3.121c-0.618,0-1.121,0.503-1.121,1.121c0,1.721-1.4,3.121-3.121,3.121
		c-0.619,0-1.122,0.503-1.122,1.122c0,1.721-1.4,3.121-3.121,3.121c-0.618,0-1.121,0.503-1.121,1.121c0,1.721-1.4,3.121-3.121,3.121
		c-0.618,0-1.121,0.503-1.121,1.121c0,1.722-1.4,3.122-3.122,3.122c-0.618,0-1.121,0.503-1.121,1.121c0,1.721-1.4,3.121-3.121,3.121
		c-0.618,0-1.121,0.503-1.121,1.121c0,1.722-1.4,3.122-3.122,3.122c-0.618,0-1.121,0.503-1.121,1.121c0,1.721-1.4,3.121-3.121,3.121
		c-0.618,0-1.121,0.503-1.121,1.121c0,1.722-1.4,3.122-3.122,3.122c-0.618,0-1.121,0.503-1.121,1.121c0,1.721-1.4,3.121-3.121,3.121
		c-0.618,0-1.121,0.503-1.121,1.121C3.768,52.873,3.32,53.32,2.768,53.32z"/>
	<path style="fill:#ED3F32;" d="M5.662,56.216c-0.553,0-1-0.447-1-1c0-1.721,1.4-3.121,3.122-3.121c0.618,0,1.121-0.503,1.121-1.122
		c0-1.721,1.4-3.121,3.121-3.121c0.618,0,1.121-0.503,1.121-1.121c0-1.721,1.4-3.121,3.122-3.121c0.618,0,1.121-0.503,1.121-1.121
		c0-1.722,1.4-3.122,3.121-3.122c0.618,0,1.121-0.503,1.121-1.121c0-1.721,1.4-3.121,3.122-3.121c0.618,0,1.121-0.503,1.121-1.121
		c0-1.722,1.4-3.122,3.121-3.122c0.618,0,1.121-0.503,1.121-1.121c0-1.721,1.4-3.121,3.121-3.121c0.619,0,1.122-0.503,1.122-1.121
		c0-1.722,1.4-3.122,3.121-3.122c0.618,0,1.121-0.503,1.121-1.121c0-1.721,1.4-3.121,3.121-3.121c0.619,0,1.122-0.503,1.122-1.121
		c0-1.721,1.4-3.121,3.121-3.121c0.618,0,1.121-0.503,1.121-1.122c0-1.721,1.4-3.121,3.121-3.121c0.619,0,1.122-0.503,1.122-1.121
		c0-1.721,1.4-3.121,3.121-3.121c0.553,0,1,0.447,1,1s-0.447,1-1,1c-0.618,0-1.121,0.503-1.121,1.121c0,1.721-1.4,3.121-3.122,3.121
		c-0.618,0-1.121,0.503-1.121,1.121c0,1.722-1.4,3.122-3.121,3.122c-0.618,0-1.121,0.503-1.121,1.121c0,1.721-1.4,3.121-3.122,3.121
		c-0.618,0-1.121,0.503-1.121,1.121c0,1.721-1.4,3.121-3.121,3.121c-0.618,0-1.121,0.503-1.121,1.122c0,1.721-1.4,3.121-3.122,3.121
		c-0.618,0-1.121,0.503-1.121,1.121c0,1.721-1.4,3.121-3.121,3.121c-0.618,0-1.121,0.503-1.121,1.122c0,1.721-1.4,3.121-3.121,3.121
		c-0.619,0-1.122,0.503-1.122,1.121c0,1.721-1.4,3.121-3.121,3.121c-0.618,0-1.121,0.503-1.121,1.122c0,1.721-1.4,3.121-3.121,3.121
		c-0.619,0-1.122,0.503-1.122,1.121c0,1.721-1.4,3.121-3.121,3.121c-0.618,0-1.121,0.503-1.121,1.121c0,1.722-1.4,3.122-3.121,3.122
		c-0.619,0-1.122,0.503-1.122,1.121C6.662,55.768,6.215,56.216,5.662,56.216z"/>
</g>
<g>
</g>
<g>
</g>
<g>
</g>
<g>
</g>
<g>
</g>
<g>
</g>
<g>
</g>
<g>
</g>
<g>
</g>
<g>
</g>
<g>
</g>
<g>
</g>
<g>
</g>
<g>
</g>
<g>
</g>
</svg>
