<?xml version="1.0" encoding="iso-8859-1"?>
<!-- Generator: Adobe Illustrator 18.0.0, SVG Export Plug-In . SVG Version: 6.00 Build 0)  -->
<!DOCTYPE svg PUBLIC "-//W3C//DTD SVG 1.1//EN" "http://www.w3.org/Graphics/SVG/1.1/DTD/svg11.dtd">
<svg version="1.1" id="Capa_1" xmlns="http://www.w3.org/2000/svg" xmlns:xlink="http://www.w3.org/1999/xlink" x="0px" y="0px"
	 viewBox="0 0 57.24 57.24" style="enable-background:new 0 0 57.24 57.24;" xml:space="preserve">
<g>
	<path style="fill:#E7A33E;" d="M53.43,14.539l-2.121-2.121c-1.701-1.7-4.181-2.135-6.308-1.355V21.5c0,1.925-1.575,3.5-3.5,3.5
		c-0.978,0-1.863-0.409-2.5-1.062V26.5c0,1.375-1.125,2.5-2.5,2.5S34,27.875,34,26.5v-3.403
		c-6.541,7.244-13.759,13.859-21.582,19.727c-2.333,2.333-2.333,6.152,0,8.485l2.121,2.121c2.333,2.333,6.152,2.333,8.485,0
		c11.259-8.444,21.291-18.412,29.806-29.617l0.599-0.788C55.763,20.691,55.763,16.872,53.43,14.539z"/>
	<g>
		<path style="fill:#E7A33E;" d="M42.387,6.697c-2.668-1.505-6.111-1.128-8.384,1.144c-0.921,0.921-1.528,2.035-1.826,3.212
			c-0.209,0.824-0.855,1.47-1.679,1.679c-1.177,0.298-2.291,0.905-3.212,1.826c-0.921,0.921-1.528,2.035-1.826,3.212
			c-0.209,0.824-0.855,1.47-1.679,1.679c-1.177,0.298-2.291,0.905-3.212,1.826c-0.921,0.921-1.528,2.035-1.826,3.212
			c-0.209,0.824-0.855,1.47-1.679,1.679c-1.177,0.298-2.291,0.905-3.212,1.826s-1.528,2.035-1.826,3.212
			c-0.209,0.824-0.855,1.47-1.679,1.679c-1.177,0.298-2.291,0.905-3.212,1.826C4.885,36.959,4.49,40.354,5.94,43.01
			C19.364,32.259,31.587,20.086,42.387,6.697z"/>
	</g>
	<path style="fill:#231F20;" d="M5.013,53.389c-0.292,0-0.581-0.127-0.778-0.372c-1.905-2.358-0.797-4.669,0.055-5.562
		c0.381-0.401,1.015-0.414,1.414-0.033c0.397,0.38,0.414,1.008,0.039,1.408c-0.208,0.228-1.167,1.424,0.049,2.931
		c0.347,0.43,0.28,1.059-0.149,1.406C5.456,53.316,5.233,53.389,5.013,53.389z"/>
	<path style="fill:#231F20;" d="M48.146,6.012c-0.292,0-0.581-0.127-0.779-0.372c-0.347-0.43-0.28-1.06,0.15-1.406
		c2.36-1.903,4.669-0.796,5.561,0.055c0.399,0.382,0.415,1.015,0.033,1.414c-0.38,0.397-1.008,0.413-1.408,0.039
		c-0.227-0.207-1.422-1.168-2.931,0.049C48.589,5.939,48.367,6.012,48.146,6.012z"/>
	<path style="fill:#E2D8BF;" d="M19.154,44.903c-0.552,0-1-0.447-1-1v-1.414c0-0.553,0.448-1,1-1s1,0.447,1,1v1.414
		C20.154,44.456,19.707,44.903,19.154,44.903z"/>
	<path style="fill:#E2D8BF;" d="M16.326,50.56c-0.552,0-1-0.447-1-1v-1.414c0-0.553,0.448-1,1-1s1,0.447,1,1v1.414
		C17.326,50.112,16.878,50.56,16.326,50.56z"/>
	<path style="fill:#E2D8BF;" d="M21.983,50.56c-0.552,0-1-0.447-1-1v-1.414c0-0.553,0.448-1,1-1s1,0.447,1,1v1.414
		C22.983,50.112,22.535,50.56,21.983,50.56z"/>
	<path style="fill:#E2D8BF;" d="M23.397,43.489c-0.552,0-1-0.447-1-1v-1.415c0-0.553,0.448-1,1-1s1,0.447,1,1v1.415
		C24.397,43.042,23.949,43.489,23.397,43.489z"/>
	<path style="fill:#E2D8BF;" d="M26.933,38.539c-0.552,0-1-0.447-1-1v-1.414c0-0.553,0.448-1,1-1s1,0.447,1,1v1.414
		C27.933,38.092,27.485,38.539,26.933,38.539z"/>
	<path style="fill:#E2D8BF;" d="M28.347,45.61c-0.552,0-1-0.447-1-1v-1.414c0-0.553,0.448-1,1-1s1,0.447,1,1v1.414
		C29.347,45.163,28.899,45.61,28.347,45.61z"/>
	<path style="fill:#E2D8BF;" d="M31.175,39.953c-0.552,0-1-0.447-1-1v-1.414c0-0.553,0.448-1,1-1s1,0.447,1,1v1.414
		C32.175,39.506,31.728,39.953,31.175,39.953z"/>
	<path style="fill:#E2D8BF;" d="M32.589,34.297c-0.552,0-1-0.447-1-1v-1.415c0-0.553,0.448-1,1-1s1,0.447,1,1v1.415
		C33.589,33.85,33.142,34.297,32.589,34.297z"/>
	<path style="fill:#E2D8BF;" d="M36.832,38.539c-0.552,0-1-0.447-1-1v-1.414c0-0.553,0.448-1,1-1s1,0.447,1,1v1.414
		C37.832,38.092,37.384,38.539,36.832,38.539z"/>
	<path style="fill:#E2D8BF;" d="M49.56,22.982c-0.552,0-1-0.447-1-1v-1.414c0-0.553,0.448-1,1-1s1,0.447,1,1v1.414
		C50.56,22.535,50.112,22.982,49.56,22.982z"/>
	<path style="fill:#E2D8BF;" d="M48.146,17.326c-0.552,0-1-0.447-1-1v-1.415c0-0.553,0.448-1,1-1s1,0.447,1,1v1.415
		C49.146,16.879,48.698,17.326,48.146,17.326z"/>
	<path style="fill:#A35A2D;" d="M55.49,2.457L54.783,1.75c-2.333-2.333-6.152-2.333-8.485,0l-1.836,2.342
		C32.065,19.909,17.714,34.09,1.75,46.298c-2.333,2.333-2.333,6.152,0,8.485l0.707,0.707c2.333,2.333,6.152,2.333,8.485,0
		c1.068-0.816,2.127-1.643,3.18-2.477l-1.705-1.705c-0.292-0.292-0.547-0.606-0.766-0.939c-0.656-0.997-0.984-2.15-0.984-3.304
		c0-1.538,0.583-3.076,1.75-4.243c1.604-1.203,3.176-2.446,4.729-3.71c0.227-0.185,0.456-0.366,0.682-0.552
		c1.418-1.168,2.809-2.368,4.183-3.587c0.355-0.315,0.711-0.63,1.063-0.949c1.277-1.153,2.532-2.33,3.768-3.526
		c0.424-0.411,0.844-0.826,1.263-1.242c1.176-1.164,2.337-2.343,3.475-3.545c0.816-0.863,1.623-1.735,2.42-2.616V26.5
		c0,1.375,1.125,2.5,2.5,2.5s2.5-1.125,2.5-2.5v-2.562C39.637,24.591,40.522,25,41.5,25c1.925,0,3.5-1.575,3.5-3.5V11.062
		c1.978-0.725,4.253-0.385,5.931,1.031c0.108,0.077,0.228,0.176,0.377,0.324c0,0,0.001,0.001,0.001,0.001l1.691,1.691
		c0.218-0.275,0.439-0.547,0.656-0.823l1.836-2.342C57.824,8.609,57.824,4.791,55.49,2.457z"/>
	<path style="fill:#FFEE76;" d="M40,15.166c-0.23,0-0.462-0.079-0.65-0.241c-0.419-0.359-0.468-0.99-0.108-1.41l1-1.166
		c0.36-0.419,0.992-0.467,1.41-0.107c0.419,0.359,0.468,0.99,0.108,1.41l-1,1.166C40.562,15.048,40.281,15.166,40,15.166z"/>
	<path style="fill:#FFEE76;" d="M33.371,24c-0.484,0-0.97-0.166-1.366-0.507c-0.881-0.755-0.983-2.08-0.228-2.961l6.214-7.249
		c0.757-0.882,2.082-0.983,2.963-0.228c0.881,0.755,0.983,2.08,0.228,2.961l-6.214,7.249C34.552,23.752,33.963,24,33.371,24z"/>
	<path style="fill:#FFEE76;" d="M41.5,25L41.5,25c-1.925,0-3.5-1.575-3.5-3.5v-10C38,9.575,39.575,8,41.5,8h0
		c1.925,0,3.5,1.575,3.5,3.5v10C45,23.425,43.425,25,41.5,25z"/>
	<path style="fill:#FFEE76;" d="M36.5,29L36.5,29c-1.375,0-2.5-1.125-2.5-2.5v-7c0-1.375,1.125-2.5,2.5-2.5h0
		c1.375,0,2.5,1.125,2.5,2.5v7C39,27.875,37.875,29,36.5,29z"/>
</g>
<g>
</g>
<g>
</g>
<g>
</g>
<g>
</g>
<g>
</g>
<g>
</g>
<g>
</g>
<g>
</g>
<g>
</g>
<g>
</g>
<g>
</g>
<g>
</g>
<g>
</g>
<g>
</g>
<g>
</g>
</svg>
