<?xml version="1.0" encoding="iso-8859-1"?>
<!-- Generator: Adobe Illustrator 18.0.0, SVG Export Plug-In . SVG Version: 6.00 Build 0)  -->
<!DOCTYPE svg PUBLIC "-//W3C//DTD SVG 1.1//EN" "http://www.w3.org/Graphics/SVG/1.1/DTD/svg11.dtd">
<svg version="1.1" id="Capa_1" xmlns="http://www.w3.org/2000/svg" xmlns:xlink="http://www.w3.org/1999/xlink" x="0px" y="0px"
	 viewBox="0 0 57.103 57.103" style="enable-background:new 0 0 57.103 57.103;" xml:space="preserve">
<g>
	<circle style="fill:#79E09B;" cx="20.552" cy="20" r="8"/>
	<path style="fill:#F75B57;" d="M29.052,0c-5.799,0-10.5,4.701-10.5,10.5c0,0.588,0.06,1.161,0.153,1.723
		C19.299,12.082,19.915,12,20.552,12c4.418,0,8,3.582,8,8c0,0.33-0.026,0.652-0.065,0.971C28.675,20.982,28.861,21,29.052,21
		c5.799,0,10.5-4.701,10.5-10.5C39.552,4.701,34.851,0,29.052,0z"/>
	<g>
		<path style="fill:#00D7EC;" d="M39.478,11.705C38.879,16.935,34.443,21,29.052,21c-0.191,0-0.377-0.018-0.565-0.029
			c-0.072,0.596-0.212,1.169-0.408,1.717C29.533,24.692,31.887,26,34.552,26c4.418,0,8-3.582,8-8
			C42.552,15.442,41.346,13.169,39.478,11.705z"/>
	</g>
	<path style="fill:#FBD490;" d="M34.552,26c-2.52,0-4.752-1.178-6.218-3H27.94c-1.19,2.925-4.036,5-7.388,5
		c-0.149,0-0.295-0.014-0.443-0.022l9.112,29.126L40.405,23.44C38.945,25.011,36.866,26,34.552,26z"/>
	<g>
		
			<rect x="35.179" y="26.544" transform="matrix(0.7071 -0.7071 0.7071 0.7071 -8.8803 33.6481)" style="fill:#EEAF4B;" width="2" height="2"/>
		
			<rect x="28.108" y="25.13" transform="matrix(0.7071 0.7071 -0.7071 0.7071 27.0022 -12.9292)" style="fill:#EEAF4B;" width="2" height="2"/>
		
			<rect x="30.936" y="27.958" transform="matrix(-0.7071 0.7071 -0.7071 -0.7071 74.9957 26.8543)" style="fill:#EEAF4B;" width="2" height="2"/>
		
			<rect x="33.765" y="30.787" transform="matrix(-0.707 -0.7072 0.7072 -0.707 36.8669 78.8461)" style="fill:#EEAF4B;" width="2" height="2"/>
		
			<rect x="26.694" y="29.373" transform="matrix(-0.7071 0.7071 -0.7071 -0.7071 68.7529 32.2685)" style="fill:#EEAF4B;" width="2" height="2"/>
		
			<rect x="29.522" y="32.201" transform="matrix(0.7071 0.7071 -0.7071 0.7071 32.4184 -11.8581)" style="fill:#EEAF4B;" width="2" height="2"/>
		
			<rect x="32.351" y="35.029" transform="matrix(-0.7071 -0.7071 0.7071 -0.7071 31.4586 85.0886)" style="fill:#EEAF4B;" width="2" height="2"/>
		
			<rect x="22.451" y="30.787" transform="matrix(0.7071 0.7071 -0.7071 0.7071 29.3437 -7.2727)" style="fill:#EEAF4B;" width="2" height="2"/>
		
			<rect x="25.28" y="33.615" transform="matrix(0.7071 -0.7071 0.7071 0.7071 -16.7793 28.7192)" style="fill:#EEAF4B;" width="2" height="2"/>
		
			<rect x="28.108" y="36.444" transform="matrix(0.7071 0.7071 -0.7071 0.7071 35.0022 -9.6155)" style="fill:#EEAF4B;" width="2" height="2"/>
		
			<rect x="30.937" y="39.272" transform="matrix(-0.7071 -0.7071 0.7071 -0.7071 26.0424 91.3313)" style="fill:#EEAF4B;" width="2" height="2"/>
		
			<rect x="23.865" y="37.858" transform="matrix(0.7071 0.7071 -0.7071 0.7071 34.7595 -6.2013)" style="fill:#EEAF4B;" width="2" height="2"/>
		
			<rect x="26.694" y="40.686" transform="matrix(-0.7071 0.7071 -0.7071 -0.7071 76.7525 51.5826)" style="fill:#EEAF4B;" width="2" height="2"/>
		
			<rect x="29.522" y="43.515" transform="matrix(-0.7071 -0.7071 0.7071 -0.7071 20.6304 97.5744)" style="fill:#EEAF4B;" width="2" height="2"/>
		
			<rect x="28.108" y="47.757" transform="matrix(-0.7071 -0.7071 0.7071 -0.7071 15.2163 103.8171)" style="fill:#EEAF4B;" width="2" height="2"/>
		<polygon style="fill:#EEAF4B;" points="26.117,47.18 26.28,47.343 27.694,45.929 26.28,44.515 25.52,45.274 		"/>
		<path style="fill:#EEAF4B;" d="M20.802,30.193l1.235-1.235l-0.996-0.996C20.877,27.972,20.718,28,20.552,28
			c-0.124,0-0.245-0.01-0.366-0.019l-0.057,0.057L20.802,30.193z"/>
		<path style="fill:#EEAF4B;" d="M26.28,27.544l-1.07-1.07c-0.484,0.352-1.01,0.642-1.567,0.879l-0.191,0.191l1.414,1.414
			L26.28,27.544z"/>
	</g>
	<g>
		<path style="fill:#E3E82A;" d="M38.052,2c-0.808,0-1.579,0.154-2.292,0.424c2.316,1.926,3.792,4.828,3.792,8.076
			c0,0.409-0.025,0.811-0.072,1.207c0.806,0.632,1.478,1.421,1.993,2.312c1.847-1.145,3.078-3.186,3.078-5.519
			C44.552,4.91,41.642,2,38.052,2z"/>
		<path style="fill:#E3E82A;" d="M38.921,14.045c-0.106,0.292-0.222,0.58-0.352,0.86C38.698,14.625,38.816,14.338,38.921,14.045z"/>
		<path style="fill:#E3E82A;" d="M39.433,11.98c-0.038,0.261-0.077,0.521-0.134,0.775C39.355,12.5,39.396,12.241,39.433,11.98z"/>
		<path style="fill:#E3E82A;" d="M39.225,13.042c-0.069,0.272-0.143,0.541-0.232,0.804C39.081,13.583,39.157,13.314,39.225,13.042z"
			/>
	</g>
</g>
<g>
</g>
<g>
</g>
<g>
</g>
<g>
</g>
<g>
</g>
<g>
</g>
<g>
</g>
<g>
</g>
<g>
</g>
<g>
</g>
<g>
</g>
<g>
</g>
<g>
</g>
<g>
</g>
<g>
</g>
</svg>
