<?xml version="1.0" encoding="iso-8859-1"?>
<!-- Generator: Adobe Illustrator 18.0.0, SVG Export Plug-In . SVG Version: 6.00 Build 0)  -->
<!DOCTYPE svg PUBLIC "-//W3C//DTD SVG 1.1//EN" "http://www.w3.org/Graphics/SVG/1.1/DTD/svg11.dtd">
<svg version="1.1" id="Capa_1" xmlns="http://www.w3.org/2000/svg" xmlns:xlink="http://www.w3.org/1999/xlink" x="0px" y="0px"
	 viewBox="0 0 59 59" style="enable-background:new 0 0 59 59;" xml:space="preserve">
<g>
	<path style="fill:#FBD490;" d="M36.215,26.426h-0.29C35.538,28.332,34.35,29,32.927,29s-2.611-0.668-2.998-2.574h-0.29
		C29.252,28.332,28.064,29,26.642,29c-1.423,0-2.611-0.668-2.998-2.574h-0.29C22.967,28.332,21.779,29,20.356,29
		c-1.401,0-2.573-0.648-2.979-2.486c-0.125,0.035-0.245,0.081-0.357,0.139c-0.201,0.805-0.557,1.367-1.02,1.736
		c0.007,0.202,0.042,0.408,0.121,0.612l5.031,15l6.025,15l6.025-15l5.031-15c0.016-0.043,0.023-0.085,0.032-0.128
		C37.278,28.614,36.512,27.885,36.215,26.426z"/>
	<g>
		
			<rect x="33.586" y="30.908" transform="matrix(0.7071 -0.7071 0.7071 0.7071 -12.4326 33.7995)" style="fill:#EEAF4B;" width="2" height="2"/>
		
			<rect x="26.515" y="29.494" transform="matrix(0.7071 0.7071 -0.7071 0.7071 29.6213 -10.5244)" style="fill:#EEAF4B;" width="2" height="2"/>
		
			<rect x="29.343" y="32.322" transform="matrix(-0.7071 0.7071 -0.7071 -0.7071 75.3613 35.4309)" style="fill:#EEAF4B;" width="2" height="2"/>
		
			<rect x="32.172" y="35.151" transform="matrix(-0.707 -0.7072 0.7072 -0.707 31.0608 85.1689)" style="fill:#EEAF4B;" width="2" height="2"/>
		
			<rect x="22.272" y="30.908" transform="matrix(0.7071 0.7071 -0.7071 0.7071 29.3786 -7.1101)" style="fill:#EEAF4B;" width="2" height="2"/>
		
			<rect x="25.1" y="33.737" transform="matrix(-0.7071 0.7071 -0.7071 -0.7071 69.1185 40.8451)" style="fill:#EEAF4B;" width="2" height="2"/>
		
			<rect x="27.929" y="36.565" transform="matrix(0.7071 0.7071 -0.7071 0.7071 35.0376 -9.453)" style="fill:#EEAF4B;" width="2" height="2"/>
		
			<rect x="30.757" y="39.393" transform="matrix(-0.7071 -0.7071 0.7071 -0.7071 25.6529 91.412)" style="fill:#EEAF4B;" width="2" height="2"/>
		
			<rect x="18.029" y="32.322" transform="matrix(0.7071 -0.7071 0.7071 0.7071 -17.9893 23.2173)" style="fill:#EEAF4B;" width="2" height="2"/>
		
			<rect x="20.858" y="35.151" transform="matrix(0.7071 0.7071 -0.7071 0.7071 31.9627 -4.868)" style="fill:#EEAF4B;" width="2" height="2"/>
		
			<rect x="23.686" y="37.979" transform="matrix(0.7071 -0.7071 0.7071 0.7071 -20.3316 28.8706)" style="fill:#EEAF4B;" width="2" height="2"/>
		
			<rect x="26.515" y="40.808" transform="matrix(0.7071 0.7071 -0.7071 0.7071 37.6213 -7.2107)" style="fill:#EEAF4B;" width="2" height="2"/>
		
			<rect x="29.343" y="43.636" transform="matrix(-0.7071 -0.7071 0.7071 -0.7071 20.2366 97.6545)" style="fill:#EEAF4B;" width="2" height="2"/>
		
			<rect x="22.272" y="42.222" transform="matrix(0.7071 0.7071 -0.7071 0.7071 37.3786 -3.7964)" style="fill:#EEAF4B;" width="2" height="2"/>
		
			<rect x="25.1" y="45.05" transform="matrix(-0.7071 0.7071 -0.7071 -0.7071 77.1181 60.1592)" style="fill:#EEAF4B;" width="2" height="2"/>
		
			<rect x="27.929" y="47.879" transform="matrix(-0.7071 -0.7071 0.7071 -0.7071 14.8247 103.8978)" style="fill:#EEAF4B;" width="2" height="2"/>
		
			<rect x="26.515" y="52.121" transform="matrix(-0.7071 -0.7071 0.7071 -0.7071 9.4105 110.1404)" style="fill:#EEAF4B;" width="2" height="2"/>
		<polygon style="fill:#EEAF4B;" points="23.952,50.973 24.686,51.707 26.1,50.293 24.686,48.879 23.562,50.003 		"/>
	</g>
	<path style="fill:#4C312C;" d="M31,15.325v4.662c0,1.375-1.125,2.5-2.5,2.5s-2.5-1.125-2.5-2.5v-5.449
		c-5.053,0.502-9,4.764-9,9.949c0,0.716,0.078,1.413,0.222,2.087c0.052-0.019,0.101-0.045,0.155-0.06
		C17.783,28.352,18.955,29,20.356,29c1.423,0,2.61-0.668,2.998-2.574h0.29C24.031,28.332,25.219,29,26.642,29
		c1.423,0,2.61-0.668,2.998-2.574h0.29C30.317,28.332,31.505,29,32.927,29c1.423,0,2.611-0.668,2.998-2.574h0.29
		c0.08,0.392,0.196,0.728,0.339,1.02C36.843,26.511,37,25.518,37,24.487C37,20.388,34.53,16.869,31,15.325z"/>
	
		<rect x="29.308" y="4.5" transform="matrix(0.7071 -0.7071 0.7071 0.7071 6.0944 27.7132)" style="fill:#4C312C;" width="14.385" height="4"/>
	<path style="fill:#FFF5BB;" d="M32.828,13L30,10.172l4.857-4.857C33.026,2.987,30.191,1.487,27,1.487c-5.523,0-10,4.477-10,10
		c0,2.485,0.912,4.753,2.411,6.502c1.63-1.902,3.956-3.19,6.589-3.451v5.449c0,1.375,1.125,2.5,2.5,2.5s2.5-1.125,2.5-2.5v-4.662
		c1.391,0.608,2.614,1.527,3.589,2.663C36.089,16.24,37,13.972,37,11.487c0-0.816-0.109-1.606-0.293-2.366L32.828,13z"/>
	
		<rect x="31.712" y="8.357" transform="matrix(0.7047 0.7095 -0.7095 0.7047 16.5815 -21.1291)" style="fill:#A46F3E;" width="3.927" height="2"/>
	
		<rect x="34.435" y="5.622" transform="matrix(0.705 0.7092 -0.7092 0.705 15.4345 -23.8612)" style="fill:#A46F3E;" width="3.927" height="2"/>
	
		<rect x="37.429" y="2.616" transform="matrix(0.7049 0.7093 -0.7093 0.7049 14.1913 -26.8755)" style="fill:#A46F3E;" width="3.926" height="2"/>
</g>
<g>
</g>
<g>
</g>
<g>
</g>
<g>
</g>
<g>
</g>
<g>
</g>
<g>
</g>
<g>
</g>
<g>
</g>
<g>
</g>
<g>
</g>
<g>
</g>
<g>
</g>
<g>
</g>
<g>
</g>
</svg>
