<?xml version="1.0" encoding="iso-8859-1"?>
<!-- Generator: Adobe Illustrator 18.0.0, SVG Export Plug-In . SVG Version: 6.00 Build 0)  -->
<!DOCTYPE svg PUBLIC "-//W3C//DTD SVG 1.1//EN" "http://www.w3.org/Graphics/SVG/1.1/DTD/svg11.dtd">
<svg version="1.1" id="Capa_1" xmlns="http://www.w3.org/2000/svg" xmlns:xlink="http://www.w3.org/1999/xlink" x="0px" y="0px"
	 viewBox="0 0 52.678 52.678" style="enable-background:new 0 0 52.678 52.678;" xml:space="preserve">
<g>
	<path style="fill:#F2ECD3;" d="M26.339,0C13.165,0,10.625,11.211,10.625,14.97c0,3.038,1.407,5.5,3.143,5.5s3.143-0.962,3.143-4
		c0,3.038,1.407,4,3.143,4c1.736,0,3.143-0.962,3.143-4c0,3.038,1.407,4,3.143,4s3.143-0.962,3.143-4c0,3.038,1.407,4,3.143,4
		c1.736,0,3.143-0.962,3.143-4c0,3.038,1.407,4,3.143,4s3.143-2.462,3.143-5.5C42.053,10.661,39.539,0,26.339,0z"/>
	<path style="fill:#FBD490;" d="M35.913,17.104h-0.29c-0.387,1.906-1.575,2.574-2.998,2.574c-1.423,0-2.611-0.668-2.998-2.574h-0.29
		c-0.387,1.906-1.575,2.574-2.998,2.574c-1.423,0-2.611-0.668-2.998-2.574h-0.29c-0.387,1.906-1.575,2.574-2.998,2.574
		c-1.401,0-2.573-0.648-2.979-2.486c-0.125,0.035-0.245,0.081-0.357,0.139c-0.201,0.805-0.557,1.367-1.02,1.736
		c0.007,0.202,0.042,0.408,0.121,0.612l5.031,15l6.025,18l6.025-18l5.031-15c0.016-0.043,0.023-0.085,0.032-0.128
		C36.976,19.292,36.209,18.563,35.913,17.104z"/>
	<g>
		
			<rect x="32.595" y="22.037" transform="matrix(0.7071 -0.7071 0.7071 0.7071 -6.45 30.5011)" style="fill:#EEAF4B;" width="2" height="2"/>
		
			<rect x="25.524" y="20.623" transform="matrix(0.7071 0.7071 -0.7071 0.7071 23.0582 -12.4223)" style="fill:#EEAF4B;" width="2" height="2"/>
		
			<rect x="28.353" y="23.451" transform="matrix(-0.7071 0.7071 -0.7071 -0.7071 67.3977 20.9867)" style="fill:#EEAF4B;" width="2" height="2"/>
		
			<rect x="31.181" y="26.279" transform="matrix(-0.707 -0.7072 0.7072 -0.707 35.6435 69.3247)" style="fill:#EEAF4B;" width="2" height="2"/>
		
			<rect x="21.282" y="22.037" transform="matrix(0.7071 0.7071 -0.7071 0.7071 22.8156 -9.0081)" style="fill:#EEAF4B;" width="2" height="2"/>
		
			<rect x="24.11" y="24.865" transform="matrix(-0.7071 0.7071 -0.7071 -0.7071 61.1549 26.4009)" style="fill:#EEAF4B;" width="2" height="2"/>
		
			<rect x="26.938" y="27.694" transform="matrix(0.7071 0.7071 -0.7071 0.7071 28.4742 -11.3512)" style="fill:#EEAF4B;" width="2" height="2"/>
		
			<rect x="29.767" y="30.522" transform="matrix(-0.7071 -0.7071 0.7071 -0.7071 30.2347 75.5671)" style="fill:#EEAF4B;" width="2" height="2"/>
		
			<rect x="19.867" y="26.279" transform="matrix(0.7071 0.7071 -0.7071 0.7071 25.3999 -6.7657)" style="fill:#EEAF4B;" width="2" height="2"/>
		
			<rect x="22.696" y="29.108" transform="matrix(0.7071 -0.7071 0.7071 0.7071 -14.349 25.5722)" style="fill:#EEAF4B;" width="2" height="2"/>
		
			<rect x="25.524" y="31.936" transform="matrix(0.7071 0.7071 -0.7071 0.7071 31.0582 -9.1086)" style="fill:#EEAF4B;" width="2" height="2"/>
		
			<rect x="28.353" y="34.765" transform="matrix(-0.7071 -0.7071 0.7071 -0.7071 24.8187 81.8098)" style="fill:#EEAF4B;" width="2" height="2"/>
		
			<rect x="21.282" y="33.35" transform="matrix(0.7071 0.7071 -0.7071 0.7071 30.8156 -5.6944)" style="fill:#EEAF4B;" width="2" height="2"/>
		
			<rect x="24.11" y="36.179" transform="matrix(-0.7071 0.7071 -0.7071 -0.7071 69.1545 45.7149)" style="fill:#EEAF4B;" width="2" height="2"/>
		
			<rect x="26.939" y="39.008" transform="matrix(-0.7071 -0.7071 0.7071 -0.7071 19.4065 88.0528)" style="fill:#EEAF4B;" width="2" height="2"/>
		
			<rect x="25.524" y="43.25" transform="matrix(-0.7071 -0.7071 0.7071 -0.7071 13.9923 94.2955)" style="fill:#EEAF4B;" width="2" height="2"/>
		<polygon style="fill:#EEAF4B;" points="17.819,25.646 18.039,25.865 19.453,24.451 18.039,23.037 17.219,23.856 		"/>
		<polygon style="fill:#EEAF4B;" points="23.696,40.007 22.899,40.804 23.52,42.661 23.696,42.836 25.11,41.422 		"/>
	</g>
	<path style="fill:#9777A8;" d="M21.18,8.332c-0.189,0-0.381-0.054-0.551-0.166c-0.46-0.305-0.587-0.925-0.282-1.386l1.821-2.753
		c0.305-0.461,0.924-0.588,1.386-0.282c0.46,0.305,0.587,0.925,0.282,1.386l-1.821,2.753C21.822,8.175,21.504,8.332,21.18,8.332z"/>
	<path style="fill:#00D7EC;" d="M35.083,14c-0.256,0-0.512-0.098-0.707-0.293l-2.795-2.796c-0.391-0.391-0.391-1.023,0-1.414
		s1.023-0.391,1.414,0l2.795,2.796c0.391,0.391,0.391,1.023,0,1.414C35.594,13.903,35.339,14,35.083,14z"/>
	<path style="fill:#E22F37;" d="M24.925,13.907c-0.422,0-0.813-0.269-0.951-0.691c-0.17-0.524,0.117-1.089,0.642-1.26l2.762-0.897
		c0.527-0.17,1.09,0.118,1.26,0.643s-0.117,1.089-0.642,1.26l-2.762,0.897C25.132,13.891,25.027,13.907,24.925,13.907z"/>
	<path style="fill:#F1B501;" d="M21.214,12.027c-0.152,0-0.306-0.034-0.451-0.108l-1.855-0.94c-0.493-0.249-0.689-0.851-0.44-1.344
		c0.25-0.492,0.85-0.692,1.344-0.439l1.855,0.94c0.493,0.249,0.689,0.851,0.44,1.344C21.93,11.827,21.579,12.027,21.214,12.027z"/>
	<path style="fill:#79E09B;" d="M28.569,8.401c-0.365,0-0.717-0.2-0.893-0.548l-0.94-1.855c-0.25-0.493-0.053-1.095,0.44-1.344
		c0.493-0.253,1.095-0.053,1.344,0.439l0.94,1.855c0.25,0.493,0.053,1.095-0.44,1.344C28.875,8.367,28.721,8.401,28.569,8.401z"/>
</g>
<g>
</g>
<g>
</g>
<g>
</g>
<g>
</g>
<g>
</g>
<g>
</g>
<g>
</g>
<g>
</g>
<g>
</g>
<g>
</g>
<g>
</g>
<g>
</g>
<g>
</g>
<g>
</g>
<g>
</g>
</svg>
