<?xml version="1.0" encoding="iso-8859-1"?>
<!-- Generator: Adobe Illustrator 18.0.0, SVG Export Plug-In . SVG Version: 6.00 Build 0)  -->
<!DOCTYPE svg PUBLIC "-//W3C//DTD SVG 1.1//EN" "http://www.w3.org/Graphics/SVG/1.1/DTD/svg11.dtd">
<svg version="1.1" id="Capa_1" xmlns="http://www.w3.org/2000/svg" xmlns:xlink="http://www.w3.org/1999/xlink" x="0px" y="0px"
	 viewBox="0 0 55 55" style="enable-background:new 0 0 55 55;" xml:space="preserve">
<g>
	<g>
		<path style="fill:#FBD490;" d="M28.742,54h-3c-1.1,0-2-0.9-2-2V38h7v14C30.742,53.1,29.842,54,28.742,54z"/>
		<path style="fill:#FBD490;" d="M28.742,55h-3c-1.654,0-3-1.346-3-3V37h9v15C31.742,53.654,30.396,55,28.742,55z M24.742,39v13
			c0,0.552,0.449,1,1,1h3c0.551,0,1-0.448,1-1V39H24.742z"/>
	</g>
	<path style="fill:#EEAF4B;" d="M30.716,52.315c-0.11,0-0.222-0.018-0.332-0.057c-0.249-0.087-0.59-0.167-0.967-0.257
		c-1.44-0.346-3.232-0.774-3.833-2.061c-0.196-0.42-0.339-1.104,0.095-1.975c0.104-0.211,0.332-0.727,0.178-0.967
		c-0.253-0.396-1.383-0.577-2.082-0.563c-0.557,0.058-1.014-0.415-1.031-0.966c-0.019-0.551,0.412-1.013,0.962-1.032
		c0.474-0.023,2.864-0.024,3.832,1.478c0.359,0.558,0.639,1.521-0.069,2.941c-0.083,0.166-0.074,0.234-0.074,0.234
		c0.079,0.264,0.917,0.589,2.488,0.965c0.455,0.109,0.865,0.21,1.165,0.315c0.521,0.183,0.795,0.754,0.612,1.274
		C31.515,52.059,31.129,52.315,30.716,52.315z"/>
	<path style="fill:#EEAF4B;" d="M30.742,46c-2.309,0-4.187-1.771-4.187-3.947s1.878-3.947,4.187-3.947c0.552,0,1,0.447,1,1
		s-0.448,1-1,1c-1.206,0-2.187,0.874-2.187,1.947S29.536,44,30.742,44c0.552,0,1,0.447,1,1S31.294,46,30.742,46z"/>
	<path style="fill:#EF771D;" d="M36.22,20.67c-0.184,0.073-0.365,0.152-0.563,0.201c-2.333,0.578-4.693-0.844-5.271-3.177
		c-0.539-2.173,0.67-4.35,2.722-5.108c-0.895-0.436-1.604-1.237-1.862-2.279c-0.463-1.866,0.675-3.754,2.542-4.217
		c0.169-0.042,0.337-0.056,0.505-0.072l-0.009-0.069C33.835,2.545,30.933,0,27.5,0c-3.433,0-6.335,2.545-6.783,5.949l-3.96,30.097
		C16.621,37.081,17.427,38,18.471,38h18.059c1.044,0,1.85-0.919,1.714-1.954L36.22,20.67z"/>
</g>
<g>
</g>
<g>
</g>
<g>
</g>
<g>
</g>
<g>
</g>
<g>
</g>
<g>
</g>
<g>
</g>
<g>
</g>
<g>
</g>
<g>
</g>
<g>
</g>
<g>
</g>
<g>
</g>
<g>
</g>
</svg>
