<?xml version="1.0" encoding="iso-8859-1"?>
<!-- Generator: Adobe Illustrator 18.0.0, SVG Export Plug-In . SVG Version: 6.00 Build 0)  -->
<!DOCTYPE svg PUBLIC "-//W3C//DTD SVG 1.1//EN" "http://www.w3.org/Graphics/SVG/1.1/DTD/svg11.dtd">
<svg version="1.1" id="Capa_1" xmlns="http://www.w3.org/2000/svg" xmlns:xlink="http://www.w3.org/1999/xlink" x="0px" y="0px"
	 viewBox="0 0 57.528 57.528" style="enable-background:new 0 0 57.528 57.528;" xml:space="preserve">
<g>
	<g>
		<path style="fill:#FBD490;" d="M29.435,40.029l-0.281,0.159c-0.091,0.05-0.187,0.079-0.28,0.119
			c-1.393,0.862-3.234,0.436-4.11-0.944v15.164c0,1.1,0.9,2,2,2h4c1.1,0,2-0.9,2-2V38.38L29.435,40.029z"/>
		<path style="fill:#FBD490;" d="M30.764,57.528h-4c-1.654,0-3-1.346-3-3V35.92l1.845,2.907c0.583,0.922,1.813,1.204,2.739,0.63
			l0.643-0.324l4.773-2.364v17.76C33.764,56.182,32.418,57.528,30.764,57.528z M25.764,41.45v13.078c0,0.552,0.448,1,1,1h4
			c0.552,0,1-0.448,1-1V39.991l-2.115,1.066c-0.11,0.063-0.219,0.107-0.327,0.148C28.241,41.875,26.906,41.928,25.764,41.45z"/>
	</g>
	<path style="fill:#EEAF4B;" d="M32.786,56.205c-0.086,0-0.173-0.011-0.26-0.034c-1.267-0.339-6.228-2.372-5.516-5.428
		c0.185-0.791-1.427-2.04-2.66-2.638c-0.497-0.24-0.705-0.838-0.465-1.335c0.239-0.497,0.839-0.705,1.333-0.467
		c0.449,0.217,4.37,2.19,3.739,4.894c-0.228,0.976,2.386,2.586,4.086,3.042c0.533,0.143,0.85,0.691,0.707,1.225
		C33.631,55.911,33.227,56.205,32.786,56.205z"/>
	<path style="fill:#EEAF4B;" d="M32.785,49.584c-2.523,0-4.5-1.537-4.5-3.5s1.977-3.5,4.5-3.5c0.553,0,1,0.447,1,1s-0.447,1-1,1
		c-1.474,0-2.5,0.79-2.5,1.5s1.026,1.5,2.5,1.5c0.553,0,1,0.447,1,1S33.337,49.584,32.785,49.584z"/>
	<path style="fill:#4C312C;" d="M17.137,9.779L17.137,9.779c-0.871-1.401-0.437-3.261,0.965-4.132l10.489-5.198
		c1.401-0.871,3.261-0.437,4.132,0.965v0c0.871,1.401,0.437,3.261-0.965,4.132l-10.489,5.198
		C19.868,11.615,18.008,11.18,17.137,9.779z"/>
	<path style="fill:#6A3311;" d="M24.589,39.341L24.589,39.341c-0.871-1.401-0.437-3.261,0.965-4.132l10.489-5.198
		c1.401-0.871,3.261-0.437,4.132,0.965v0c0.871,1.401,0.437,3.261-0.965,4.132l-10.489,5.198
		C27.319,41.176,25.46,40.742,24.589,39.341z"/>
	<path style="fill:#6A3311;" d="M17.006,16.362L17.006,16.362c-0.825-1.429-0.331-3.273,1.098-4.098l18.09-9.001
		c1.429-0.825,3.273-0.331,4.098,1.098v0c0.825,1.429,0.331,3.273-1.098,4.098l-18.09,9.001
		C19.675,18.285,17.831,17.791,17.006,16.362z"/>
	<path style="fill:#4C312C;" d="M17.006,23.025L17.006,23.025c-0.825-1.429-0.331-3.273,1.098-4.098l18.09-9.001
		c1.429-0.825,3.273-0.331,4.098,1.098v0c0.825,1.429,0.331,3.273-1.098,4.098l-18.09,9.001
		C19.675,24.948,17.831,24.454,17.006,23.025z"/>
	<path style="fill:#6A3311;" d="M17.006,29.703L17.006,29.703c-0.825-1.429-0.331-3.273,1.098-4.098l18.09-9.001
		c1.429-0.825,3.273-0.331,4.098,1.098v0c0.825,1.429,0.331,3.273-1.098,4.098L21.104,30.8
		C19.675,31.625,17.831,31.131,17.006,29.703z"/>
	<path style="fill:#4C312C;" d="M17.145,36.288L17.145,36.288c-0.825-1.429-0.331-3.273,1.098-4.098l18.18-9.001
		c1.429-0.825,3.273-0.331,4.098,1.098l0,0c0.825,1.429,0.331,3.273-1.098,4.098l-18.18,9.001
		C19.815,38.211,17.97,37.717,17.145,36.288z"/>
	<path style="fill:#E22F37;" d="M20.608,15.406c-0.367,0-0.72-0.202-0.896-0.553c-0.247-0.494-0.047-1.095,0.447-1.342l2-1
		c0.494-0.245,1.094-0.047,1.342,0.447c0.247,0.494,0.047,1.095-0.447,1.342l-2,1C20.911,15.372,20.758,15.406,20.608,15.406z"/>
	<path style="fill:#6F58A8;" d="M35.608,21.406c-0.367,0-0.72-0.202-0.896-0.553c-0.247-0.494-0.047-1.095,0.447-1.342l2-1
		c0.493-0.246,1.094-0.048,1.342,0.447c0.247,0.494,0.047,1.095-0.447,1.342l-2,1C35.911,21.372,35.758,21.406,35.608,21.406z"/>
	<path style="fill:#79E09B;" d="M35.608,34.406c-0.367,0-0.72-0.202-0.896-0.553c-0.247-0.494-0.047-1.095,0.447-1.342l2-1
		c0.493-0.246,1.094-0.047,1.342,0.447c0.247,0.494,0.047,1.095-0.447,1.342l-2,1C35.911,34.372,35.758,34.406,35.608,34.406z"/>
	<path style="fill:#F9D70B;" d="M27.608,5.406c-0.367,0-0.72-0.202-0.896-0.553c-0.247-0.494-0.047-1.095,0.447-1.342l2-1
		c0.494-0.245,1.094-0.047,1.342,0.447c0.247,0.494,0.047,1.095-0.447,1.342l-2,1C27.911,5.372,27.758,5.406,27.608,5.406z"/>
</g>
<g>
</g>
<g>
</g>
<g>
</g>
<g>
</g>
<g>
</g>
<g>
</g>
<g>
</g>
<g>
</g>
<g>
</g>
<g>
</g>
<g>
</g>
<g>
</g>
<g>
</g>
<g>
</g>
<g>
</g>
</svg>
