<?xml version="1.0" encoding="iso-8859-1"?>
<!-- Generator: Adobe Illustrator 18.0.0, SVG Export Plug-In . SVG Version: 6.00 Build 0)  -->
<!DOCTYPE svg PUBLIC "-//W3C//DTD SVG 1.1//EN" "http://www.w3.org/Graphics/SVG/1.1/DTD/svg11.dtd">
<svg version="1.1" id="Capa_1" xmlns="http://www.w3.org/2000/svg" xmlns:xlink="http://www.w3.org/1999/xlink" x="0px" y="0px"
	 viewBox="0 0 57.007 57.007" style="enable-background:new 0 0 57.007 57.007;" xml:space="preserve">
<g>
	<g>
		<g>
			<path style="fill:#FBD490;" d="M28.788,56.007h-1c-1.1,0-2-0.9-2-2v-8h5v8C30.788,55.107,29.888,56.007,28.788,56.007z"/>
			<path style="fill:#FBD490;" d="M28.788,57.007h-1c-1.654,0-3-1.346-3-3v-9h7v9C31.788,55.661,30.442,57.007,28.788,57.007z
				 M26.788,47.007v7c0,0.552,0.449,1,1,1h1c0.551,0,1-0.448,1-1v-7H26.788z"/>
		</g>
		<g>
			<path style="fill:#F4E6D0;" d="M14.813,39.98v2.094c0,2.168,1.757,3.925,3.925,3.925h19.531c2.168,0,3.925-1.757,3.925-3.925
				V39.98H14.813z"/>
		</g>
		<path style="fill:#4C312C;" d="M36.349,20.949c-1.026-2.543,0.066-5.391,2.425-6.663c-1.16-0.375-2.158-1.225-2.65-2.444
			c-0.881-2.184,0.175-4.67,2.359-5.551c0.514-0.208,1.045-0.299,1.568-0.302C37.7,2.393,33.644,0,29.051,0h-1.095
			c-7.229,0-13.143,5.914-13.143,13.143V39.98h27.381V24.208C39.773,24.625,37.306,23.32,36.349,20.949z"/>
	</g>
	<path style="fill:#F96C7E;" d="M20.194,8c-0.256,0-0.512-0.098-0.707-0.293c-0.391-0.391-0.391-1.023,0-1.414l1-1
		c0.391-0.391,1.023-0.391,1.414,0s0.391,1.023,0,1.414l-1,1C20.706,7.902,20.45,8,20.194,8z"/>
	<path style="fill:#79E09B;" d="M28.193,4.822c-0.201,0-0.404-0.061-0.581-0.187l-1.151-0.822c-0.449-0.321-0.553-0.945-0.232-1.395
		c0.32-0.45,0.945-0.555,1.395-0.232l1.151,0.822c0.449,0.321,0.553,0.945,0.232,1.395C28.813,4.677,28.505,4.822,28.193,4.822z"/>
	<path style="fill:#F96C7E;" d="M28.503,12.394c-0.125,0-0.253-0.023-0.376-0.074l-1.31-0.533c-0.512-0.208-0.757-0.791-0.549-1.303
		s0.79-0.761,1.303-0.549l1.31,0.533c0.512,0.208,0.757,0.791,0.549,1.303C29.272,12.158,28.898,12.394,28.503,12.394z"/>
	<path style="fill:#79E09B;" d="M33.228,18c-0.073,0-0.147-0.008-0.221-0.024c-0.539-0.121-0.877-0.656-0.756-1.195l0.311-1.38
		c0.122-0.538,0.661-0.876,1.195-0.756c0.539,0.121,0.877,0.656,0.756,1.195l-0.311,1.38C34.098,17.685,33.685,18,33.228,18z"/>
	<path style="fill:#F96C7E;" d="M18.193,31.035c-0.541,0-0.986-0.432-0.999-0.976c-0.014-0.552,0.422-1.011,0.975-1.024L19.583,29
		c0.563-0.023,1.011,0.424,1.024,0.976c0.014,0.552-0.422,1.011-0.975,1.024l-1.414,0.035
		C18.211,31.035,18.202,31.035,18.193,31.035z"/>
	<path style="fill:#79E09B;" d="M28.195,29c-0.073,0-0.147-0.008-0.221-0.024c-0.539-0.121-0.877-0.656-0.756-1.195l0.311-1.38
		c0.122-0.539,0.659-0.875,1.195-0.756c0.539,0.121,0.877,0.656,0.756,1.195l-0.311,1.38C29.065,28.685,28.652,29,28.195,29z"/>
	<path style="fill:#79E09B;" d="M19.869,25.789c-0.242,0-0.485-0.088-0.677-0.265l-1.04-0.958c-0.406-0.374-0.432-1.007-0.058-1.413
		c0.374-0.406,1.006-0.432,1.413-0.058l1.04,0.958c0.406,0.374,0.432,1.007,0.058,1.413C20.407,25.681,20.139,25.789,19.869,25.789z
		"/>
	<path style="fill:#F96C7E;" d="M26.677,21.958c-0.116,0-0.235-0.021-0.35-0.063l-1.325-0.495c-0.517-0.193-0.78-0.77-0.586-1.286
		c0.193-0.518,0.77-0.778,1.287-0.587l1.325,0.495c0.517,0.193,0.78,0.77,0.586,1.286C27.464,21.71,27.083,21.958,26.677,21.958z"/>
	<path style="fill:#79E09B;" d="M20.195,17.389c-0.063,0-0.127-0.006-0.192-0.019c-0.542-0.105-0.896-0.63-0.791-1.172l0.27-1.389
		c0.105-0.542,0.63-0.9,1.172-0.791c0.542,0.105,0.896,0.63,0.791,1.172l-0.27,1.389C21.083,17.058,20.664,17.389,20.195,17.389z"/>
	<path style="fill:#F96C7E;" d="M36.193,28c-0.125,0-0.251-0.023-0.374-0.072l-1.312-0.529c-0.512-0.207-0.76-0.79-0.553-1.302
		c0.207-0.513,0.79-0.756,1.301-0.554l1.312,0.529c0.512,0.207,0.76,0.79,0.553,1.302C36.964,27.764,36.589,28,36.193,28z"/>
	<path style="fill:#F96C7E;" d="M38.072,32.833c-0.539,0-0.984-0.43-0.999-0.972c-0.016-0.552,0.419-1.013,0.971-1.028l1.414-0.04
		c0.552,0.014,1.013,0.42,1.028,0.972c0.016,0.552-0.419,1.013-0.971,1.028l-1.414,0.04C38.091,32.833,38.082,32.833,38.072,32.833z
		"/>
	<path style="fill:#79E09B;" d="M29.965,35.885c-0.158,0-0.317-0.037-0.467-0.116l-1.25-0.661c-0.488-0.258-0.674-0.863-0.416-1.352
		c0.257-0.488,0.861-0.675,1.352-0.416l1.25,0.661c0.488,0.258,0.674,0.863,0.416,1.352C30.67,35.691,30.324,35.885,29.965,35.885z"
		/>
	<path style="fill:#79E09B;" d="M38.873,38.999c-0.241,0-0.482-0.087-0.674-0.262l-1.043-0.954
		c-0.408-0.373-0.436-1.006-0.063-1.413c0.372-0.408,1.004-0.437,1.413-0.063l1.043,0.954c0.408,0.373,0.436,1.006,0.063,1.413
		C39.414,38.89,39.144,38.999,38.873,38.999z"/>
	<path style="fill:#79E09B;" d="M20.458,37.892c-0.321,0-0.637-0.154-0.83-0.44l-0.791-1.172c-0.309-0.458-0.188-1.079,0.269-1.389
		c0.458-0.309,1.08-0.188,1.388,0.27l0.791,1.172c0.309,0.458,0.188,1.079-0.269,1.389C20.845,37.836,20.65,37.892,20.458,37.892z"
		/>
</g>
<g>
</g>
<g>
</g>
<g>
</g>
<g>
</g>
<g>
</g>
<g>
</g>
<g>
</g>
<g>
</g>
<g>
</g>
<g>
</g>
<g>
</g>
<g>
</g>
<g>
</g>
<g>
</g>
<g>
</g>
</svg>
