<?xml version="1.0" encoding="iso-8859-1"?>
<!-- Generator: Adobe Illustrator 18.0.0, SVG Export Plug-In . SVG Version: 6.00 Build 0)  -->
<!DOCTYPE svg PUBLIC "-//W3C//DTD SVG 1.1//EN" "http://www.w3.org/Graphics/SVG/1.1/DTD/svg11.dtd">
<svg version="1.1" id="Capa_1" xmlns="http://www.w3.org/2000/svg" xmlns:xlink="http://www.w3.org/1999/xlink" x="0px" y="0px"
	 viewBox="0 0 57.007 57.007" style="enable-background:new 0 0 57.007 57.007;" xml:space="preserve">
<g>
	<g>
		<path style="fill:#FBD490;" d="M28.979,56.007h-1c-1.1,0-2-0.9-2-2v-8h5v8C30.979,55.107,30.079,56.007,28.979,56.007z"/>
		<path style="fill:#FBD490;" d="M28.979,57.007h-1c-1.654,0-3-1.346-3-3v-9h7v9C31.979,55.661,30.633,57.007,28.979,57.007z
			 M26.979,47.007v7c0,0.552,0.448,1,1,1h1c0.552,0,1-0.448,1-1v-7H26.979z"/>
	</g>
	<path style="fill:#6F58A8;" d="M42.003,13.143C42.003,5.914,36.171,0,29.043,0h-1.08c-7.128,0-12.96,5.914-12.96,13.143v28.932
		c0,2.168,1.733,3.925,3.87,3.925h19.259c2.138,0,3.87-1.757,3.87-3.925V13.143z"/>
	<path style="fill:#D85C81;" d="M15.003,15.206v4.222c0.019-0.017,0.043-0.022,0.061-0.04l18.53-18.53
		c-1.088-0.418-2.24-0.695-3.442-0.8L15.003,15.206z"/>
	<path style="fill:#D85C81;" d="M15.003,34.145c0.019-0.017,0.043-0.022,0.061-0.04L41.02,8.148
		c-0.398-0.973-0.914-1.882-1.52-2.722L15.003,29.923V34.145z"/>
	<path style="fill:#D85C81;" d="M42.003,17.64l-26.44,26.44c0.531,0.899,1.398,1.565,2.433,1.809l24.008-24.008V17.64z"/>
	<polygon style="fill:#D85C81;" points="32.082,46 42.003,36.078 42.003,31.836 27.839,46 	"/>
</g>
<g>
</g>
<g>
</g>
<g>
</g>
<g>
</g>
<g>
</g>
<g>
</g>
<g>
</g>
<g>
</g>
<g>
</g>
<g>
</g>
<g>
</g>
<g>
</g>
<g>
</g>
<g>
</g>
<g>
</g>
</svg>
