<?xml version="1.0" encoding="iso-8859-1"?>
<!-- Generator: Adobe Illustrator 18.0.0, SVG Export Plug-In . SVG Version: 6.00 Build 0)  -->
<!DOCTYPE svg PUBLIC "-//W3C//DTD SVG 1.1//EN" "http://www.w3.org/Graphics/SVG/1.1/DTD/svg11.dtd">
<svg version="1.1" id="Capa_1" xmlns="http://www.w3.org/2000/svg" xmlns:xlink="http://www.w3.org/1999/xlink" x="0px" y="0px"
	 viewBox="0 0 57.007 57.007" style="enable-background:new 0 0 57.007 57.007;" xml:space="preserve">
<g>
	<g>
		<path style="fill:#FBD490;" d="M28.788,56.007h-1c-1.1,0-2-0.9-2-2v-8h5v8C30.788,55.107,29.888,56.007,28.788,56.007z"/>
		<path style="fill:#FBD490;" d="M28.789,57.007h-1c-1.654,0-3-1.346-3-3v-9h7v9C31.789,55.661,30.443,57.007,28.789,57.007z
			 M26.789,47.007v7c0,0.552,0.448,1,1,1h1c0.552,0,1-0.448,1-1v-7H26.789z"/>
	</g>
	<path style="fill:#F96C7E;" d="M42.194,13.143C42.194,5.914,36.28,0,29.051,0h-1.095c-7.229,0-13.143,5.914-13.143,13.143v28.932
		c0,2.168,1.757,3.925,3.925,3.925h19.531c2.168,0,3.925-1.757,3.925-3.925V13.143z"/>
	<path style="fill:#F7B7C2;" d="M34.061,28.48c-2.063,0-3.74-1.678-3.74-3.74v-4.933c0-0.553,0.447-1,1-1s1,0.447,1,1v4.933
		c0,0.96,0.78,1.74,1.74,1.74s1.74-0.78,1.74-1.74v-4.933c0-0.553,0.447-1,1-1s1,0.447,1,1v4.933
		C37.801,26.803,36.123,28.48,34.061,28.48z"/>
	<path style="fill:#F7B7C2;" d="M24.541,40.038c-2.063,0-3.74-1.678-3.74-3.74v-2.74c0-0.553,0.447-1,1-1s1,0.447,1,1v2.74
		c0,0.96,0.78,1.74,1.74,1.74s1.741-0.78,1.741-1.74v-2.74c0-0.553,0.447-1,1-1s1,0.447,1,1v2.74
		C28.283,38.36,26.604,40.038,24.541,40.038z"/>
	<path style="fill:#F7B7C2;" d="M24.119,17.48c-2.063,0-3.74-1.678-3.74-3.74V11c0-0.553,0.447-1,1-1s1,0.447,1,1v2.74
		c0,0.96,0.78,1.74,1.74,1.74s1.74-0.78,1.74-1.74V11c0-0.553,0.447-1,1-1s1,0.447,1,1v2.74
		C27.859,15.803,26.181,17.48,24.119,17.48z"/>
</g>
<g>
</g>
<g>
</g>
<g>
</g>
<g>
</g>
<g>
</g>
<g>
</g>
<g>
</g>
<g>
</g>
<g>
</g>
<g>
</g>
<g>
</g>
<g>
</g>
<g>
</g>
<g>
</g>
<g>
</g>
</svg>
