<?xml version="1.0" encoding="iso-8859-1"?>
<!-- Generator: Adobe Illustrator 18.0.0, SVG Export Plug-In . SVG Version: 6.00 Build 0)  -->
<!DOCTYPE svg PUBLIC "-//W3C//DTD SVG 1.1//EN" "http://www.w3.org/Graphics/SVG/1.1/DTD/svg11.dtd">
<svg version="1.1" id="Capa_1" xmlns="http://www.w3.org/2000/svg" xmlns:xlink="http://www.w3.org/1999/xlink" x="0px" y="0px"
	 viewBox="0 0 59 59" style="enable-background:new 0 0 59 59;" xml:space="preserve">
<g>
	<g>
		<path style="fill:#FBD490;" d="M25,42v14c0,1.1,0.9,2,2,2h4c1.1,0,2-0.9,2-2V42H25z"/>
		<path style="fill:#FBD490;" d="M31,59h-4c-1.654,0-3-1.346-3-3V41h10v15C34,57.654,32.654,59,31,59z M26,43v13
			c0,0.552,0.448,1,1,1h4c0.552,0,1-0.448,1-1V43H26z"/>
	</g>
	<path style="fill:#EEAF4B;" d="M33.001,57.5c-0.086,0-0.174-0.011-0.261-0.034c-1.266-0.341-6.227-2.376-5.514-5.429
		c0.183-0.785-1.457-2.057-2.66-2.636c-0.498-0.24-0.707-0.837-0.468-1.335c0.241-0.496,0.839-0.706,1.335-0.468
		c0.449,0.217,4.371,2.19,3.74,4.894c-0.228,0.975,2.386,2.585,4.086,3.042c0.533,0.144,0.85,0.692,0.706,1.226
		C33.846,57.206,33.441,57.5,33.001,57.5z"/>
	<path style="fill:#EEAF4B;" d="M33,49c-2.523,0-4.5-1.537-4.5-3.5S30.477,42,33,42c0.553,0,1,0.447,1,1s-0.447,1-1,1
		c-1.474,0-2.5,0.79-2.5,1.5S31.526,47,33,47c0.553,0,1,0.447,1,1S33.553,49,33,49z"/>
	<path style="fill:#F4E6D0;" d="M38,22L38,22c-2.2,0-4-1.8-4-4v-2c0-2.2-1.8-4-4-4s-4,1.8-4,4v9c0,2.2-1.8,4-4,4h-1
		c-2.2,0-4-1.8-4-4v13c0,2.2,1.8,4,4,4h17c2.2,0,4-1.8,4-4V18C42,20.2,40.2,22,38,22z"/>
	<g>
		<path style="fill:#A46F3E;" d="M33.126,0h-7.252C20.993,0,17,3.993,17,8.874V25c0,2.2,1.8,4,4,4h1c2.2,0,4-1.8,4-4v-8.811
			c0-2.086,1.514-3.958,3.59-4.168C31.972,11.78,34,13.665,34,16v2c0,2.2,1.8,4,4,4l0,0c2.2,0,4-1.8,4-4V8.874
			C42,3.993,38.007,0,33.126,0z"/>
	</g>
</g>
<g>
</g>
<g>
</g>
<g>
</g>
<g>
</g>
<g>
</g>
<g>
</g>
<g>
</g>
<g>
</g>
<g>
</g>
<g>
</g>
<g>
</g>
<g>
</g>
<g>
</g>
<g>
</g>
<g>
</g>
</svg>
