<?xml version="1.0" encoding="iso-8859-1"?>
<!-- Generator: Adobe Illustrator 18.0.0, SVG Export Plug-In . SVG Version: 6.00 Build 0)  -->
<!DOCTYPE svg PUBLIC "-//W3C//DTD SVG 1.1//EN" "http://www.w3.org/Graphics/SVG/1.1/DTD/svg11.dtd">
<svg version="1.1" id="Capa_1" xmlns="http://www.w3.org/2000/svg" xmlns:xlink="http://www.w3.org/1999/xlink" x="0px" y="0px"
	 viewBox="0 0 59 59" style="enable-background:new 0 0 59 59;" xml:space="preserve">
<g>
	<g>
		<path style="fill:#FBD490;" d="M25.5,42v14c0,1.1,0.9,2,2,2h4c1.1,0,2-0.9,2-2V42H25.5z"/>
		<path style="fill:#FBD490;" d="M31.5,59h-4c-1.654,0-3-1.346-3-3V41h10v15C34.5,57.654,33.154,59,31.5,59z M26.5,43v13
			c0,0.552,0.448,1,1,1h4c0.552,0,1-0.448,1-1V43H26.5z"/>
	</g>
	<path style="fill:#EEAF4B;" d="M33.501,57.5c-0.086,0-0.174-0.011-0.261-0.034c-1.266-0.341-6.227-2.376-5.514-5.429
		c0.183-0.785-1.457-2.057-2.66-2.636c-0.498-0.24-0.707-0.837-0.468-1.335c0.241-0.496,0.839-0.706,1.335-0.468
		c0.449,0.217,4.371,2.19,3.74,4.894c-0.228,0.975,2.386,2.585,4.086,3.042c0.533,0.144,0.85,0.692,0.706,1.226
		C34.346,57.206,33.941,57.5,33.501,57.5z"/>
	<path style="fill:#EEAF4B;" d="M33.5,49c-2.523,0-4.5-1.537-4.5-3.5s1.977-3.5,4.5-3.5c0.553,0,1,0.447,1,1s-0.447,1-1,1
		c-1.474,0-2.5,0.79-2.5,1.5s1.026,1.5,2.5,1.5c0.553,0,1,0.447,1,1S34.053,49,33.5,49z"/>
	<path style="fill:#F9D70B;" d="M39.5,42h-20l5-38c0-2.2,1.8-4,4-4h2c2.2,0,4,1.8,4,4L39.5,42z"/>
	<path style="fill:#F9EA80;" d="M32.003,22.038c-1.376,0-2.496-1.12-2.496-2.496v-2.694c0-0.553,0.447-1,1-1s1,0.447,1,1v2.694
		c0,0.269,0.228,0.496,0.496,0.496c0.27,0,0.497-0.228,0.497-0.496v-2.694c0-0.553,0.447-1,1-1s1,0.447,1,1v2.694
		C34.5,20.918,33.38,22.038,32.003,22.038z"/>
	<path style="fill:#F9EA80;" d="M26.805,30.038c-1.377,0-2.497-1.12-2.497-2.496v-1.497c0-0.553,0.447-1,1-1s1,0.447,1,1v1.497
		c0,0.269,0.228,0.496,0.497,0.496c0.269,0,0.496-0.228,0.496-0.496v-1.497c0-0.553,0.447-1,1-1s1,0.447,1,1v1.497
		C29.301,28.918,28.181,30.038,26.805,30.038z"/>
	<path style="fill:#F9EA80;" d="M32.997,37.038c-1.377,0-2.497-1.12-2.497-2.496v-1.497c0-0.553,0.447-1,1-1s1,0.447,1,1v1.497
		c0,0.269,0.228,0.496,0.497,0.496c0.269,0,0.496-0.228,0.496-0.496v-1.497c0-0.553,0.447-1,1-1s1,0.447,1,1v1.497
		C35.493,35.918,34.373,37.038,32.997,37.038z"/>
	<path style="fill:#F9EA80;" d="M27.997,11.993c-1.377,0-2.497-1.12-2.497-2.496V8c0-0.553,0.447-1,1-1s1,0.447,1,1v1.497
		c0,0.269,0.228,0.496,0.497,0.496c0.269,0,0.496-0.228,0.496-0.496V8c0-0.553,0.447-1,1-1s1,0.447,1,1v1.497
		C30.493,10.873,29.373,11.993,27.997,11.993z"/>
</g>
<g>
</g>
<g>
</g>
<g>
</g>
<g>
</g>
<g>
</g>
<g>
</g>
<g>
</g>
<g>
</g>
<g>
</g>
<g>
</g>
<g>
</g>
<g>
</g>
<g>
</g>
<g>
</g>
<g>
</g>
</svg>
