<?xml version="1.0" encoding="iso-8859-1"?>
<!-- Generator: Adobe Illustrator 18.0.0, SVG Export Plug-In . SVG Version: 6.00 Build 0)  -->
<!DOCTYPE svg PUBLIC "-//W3C//DTD SVG 1.1//EN" "http://www.w3.org/Graphics/SVG/1.1/DTD/svg11.dtd">
<svg version="1.1" id="Capa_1" xmlns="http://www.w3.org/2000/svg" xmlns:xlink="http://www.w3.org/1999/xlink" x="0px" y="0px"
	 viewBox="0 0 59 59" style="enable-background:new 0 0 59 59;" xml:space="preserve">
<g>
	<g>
		<path style="fill:#FBD490;" d="M31.5,58h-4c-1.1,0-2-0.9-2-2V39h8v17C33.5,57.1,32.6,58,31.5,58z"/>
		<path style="fill:#FBD490;" d="M31.5,59h-4c-1.654,0-3-1.346-3-3V38h10v18C34.5,57.654,33.154,59,31.5,59z M26.5,40v16
			c0,0.552,0.449,1,1,1h4c0.551,0,1-0.448,1-1V40H26.5z"/>
	</g>
	<path style="fill:#EEAF4B;" d="M33.5,57c-0.115,0-0.232-0.02-0.347-0.062c-1.662-0.614-6.039-3.397-5.439-6.929
		c0.292-1.721-1.956-3.64-2.766-4.176c-0.461-0.305-0.587-0.926-0.282-1.386c0.304-0.462,0.925-0.588,1.386-0.282
		c0.172,0.114,4.203,2.824,3.634,6.178c-0.335,1.976,2.764,4.202,4.161,4.718c0.518,0.191,0.783,0.767,0.591,1.285
		C34.289,56.75,33.907,57,33.5,57z"/>
	<path style="fill:#EEAF4B;" d="M33,49c-1.962,0-3.5-1.977-3.5-4.5S31.038,40,33,40c0.552,0,1,0.447,1,1s-0.448,1-1,1
		c-0.709,0-1.5,1.026-1.5,2.5S32.291,47,33,47c0.552,0,1,0.447,1,1S33.552,49,33,49z"/>
	<path style="fill:#FFEACB;" d="M29.5,0c-7.15,0-13,5.85-13,13v1.957v20.53c0,1.94,1.573,3.513,3.513,3.513h18.974
		c1.94,0,3.513-1.573,3.513-3.513v-20.53V13C42.5,5.85,36.65,0,29.5,0z"/>
	<path style="fill:#6F58A8;" d="M21.5,9c-0.256,0-0.512-0.098-0.707-0.293c-0.391-0.391-0.391-1.023,0-1.414l3.536-3.535
		l3.535,3.535c0.391,0.391,0.391,1.023,0,1.414s-1.023,0.391-1.414,0l-2.121-2.121l-2.122,2.121C22.012,8.902,21.756,9,21.5,9z"/>
	<path style="fill:#F96C7E;" d="M38.5,26.828c-0.256,0-0.512-0.098-0.707-0.293l-2.122-2.121l-2.121,2.121
		c-0.391,0.391-1.023,0.391-1.414,0s-0.391-1.023,0-1.414l3.535-3.535l3.536,3.535c0.391,0.391,0.391,1.023,0,1.414
		C39.012,26.73,38.756,26.828,38.5,26.828z"/>
	<path style="fill:#ED3F32;" d="M27.501,22.113c-0.075,0-0.15-0.008-0.226-0.025l-4.823-1.113c-0.538-0.124-0.874-0.661-0.75-1.199
		c0.125-0.539,0.664-0.874,1.2-0.75l4.823,1.113c0.538,0.124,0.874,0.661,0.75,1.199C28.368,21.801,27.956,22.113,27.501,22.113z"/>
	<path style="fill:#79E09B;" d="M24,36c-1.93,0-3.5-1.57-3.5-3.5S22.07,29,24,29s3.5,1.57,3.5,3.5S25.93,36,24,36z M24,31
		c-0.827,0-1.5,0.673-1.5,1.5S23.173,34,24,34s1.5-0.673,1.5-1.5S24.827,31,24,31z"/>
	<path style="fill:#00D7EC;" d="M34,15.5c-0.256,0-0.512-0.098-0.707-0.293c-0.391-0.391-0.391-1.023,0-1.414l3.5-3.5
		c0.391-0.391,1.023-0.391,1.414,0s0.391,1.023,0,1.414l-3.5,3.5C34.512,15.402,34.256,15.5,34,15.5z"/>
</g>
<g>
</g>
<g>
</g>
<g>
</g>
<g>
</g>
<g>
</g>
<g>
</g>
<g>
</g>
<g>
</g>
<g>
</g>
<g>
</g>
<g>
</g>
<g>
</g>
<g>
</g>
<g>
</g>
<g>
</g>
</svg>
