<?xml version="1.0" encoding="iso-8859-1"?>
<!-- Generator: Adobe Illustrator 18.0.0, SVG Export Plug-In . SVG Version: 6.00 Build 0)  -->
<!DOCTYPE svg PUBLIC "-//W3C//DTD SVG 1.1//EN" "http://www.w3.org/Graphics/SVG/1.1/DTD/svg11.dtd">
<svg version="1.1" id="Capa_1" xmlns="http://www.w3.org/2000/svg" xmlns:xlink="http://www.w3.org/1999/xlink" x="0px" y="0px"
	 viewBox="0 0 56 56" style="enable-background:new 0 0 56 56;" xml:space="preserve">
<g>
	<path style="fill:#D2D5D7;" d="M27.194,11.638c-0.028,0-0.056-0.001-0.084-0.004c-0.55-0.046-0.959-0.529-0.913-1.079l0.443-5.289
		l-7.095-3.362c-0.499-0.236-0.712-0.832-0.476-1.331c0.237-0.5,0.834-0.712,1.332-0.476l7.721,3.658
		c0.376,0.178,0.603,0.571,0.568,0.986l-0.501,5.979C28.146,11.243,27.709,11.638,27.194,11.638z"/>
	<g>
		<path style="fill:#ED3F32;" d="M22.149,14.841c0.719-1.862,2.358-3.256,4.358-3.648c-0.424-2.048-2.237-3.587-4.411-3.587
			c-2.488,0-4.505,2.017-4.505,4.505c0,0.689,0.159,1.34,0.436,1.924c0.411-0.123,0.845-0.191,1.296-0.191
			c1.106,0,2.116,0.402,2.899,1.065C22.197,14.886,22.174,14.862,22.149,14.841z"/>
	</g>
	<path style="fill:#9777A8;" d="M33.387,7.809c-2.117,0-3.888,1.462-4.37,3.43c2.064,0.495,3.703,2.073,4.283,4.103
		c0.825-0.919,2.018-1.5,3.349-1.5c0.318,0,0.628,0.034,0.927,0.097c0.197-0.505,0.316-1.05,0.316-1.626
		C37.892,9.825,35.875,7.809,33.387,7.809z"/>
	<path style="fill:#EF771D;" d="M23.811,18c-0.178-2.325-2.116-4.158-4.487-4.158s-4.31,1.833-4.487,4.158H23.811z"/>
	<path style="fill:#00D7EC;" d="M23.808,18h9.625c0.06-0.338,0.097-0.684,0.097-1.04c0-3.253-2.637-5.891-5.891-5.891
		c-2.505,0-4.639,1.566-5.491,3.771C23.087,15.598,23.71,16.725,23.808,18z"/>
	<path style="fill:#E3E82A;" d="M33.429,18h7.707c-0.178-2.325-2.116-4.158-4.487-4.158c-1.332,0-2.525,0.581-3.349,1.5
		c0.147,0.515,0.231,1.057,0.231,1.619C33.53,17.317,33.489,17.662,33.429,18z"/>
	<path style="fill:#E6E6E6;" d="M36.694,56h-17c-1.782,0-2.674-2.154-1.414-3.414l0,0C18.655,52.211,19.164,52,19.694,52h17
		c0.53,0,1.039,0.211,1.414,0.586l0,0C39.368,53.846,38.476,56,36.694,56z"/>
	<g>
		<path style="fill:#DAE7EF;" d="M42,18H28H14C12.5,23.167,17,27,17,27c2.415,2.574,4.6,4.987,6.139,7.419
			c-0.902,1.116-1.444,2.534-1.444,4.081c0,2.427,1.332,4.539,3.303,5.655c-0.269,0.944-0.363,2.088-0.668,3.235
			c-0.152,0.571-0.157,1.138-0.049,1.67H22.4c-0.825,0-1.5,0.675-1.5,1.5s0.675,1.5,1.5,1.5h11c0.825,0,1.5-0.675,1.5-1.5
			s-0.675-1.5-1.5-1.5h-1.811c0.094-0.468,0.111-0.959,0.002-1.462c-0.251-1.156-0.25-2.315-0.538-3.268
			c2.155-1.059,3.641-3.268,3.641-5.831c0-1.668-0.634-3.185-1.667-4.335c1.528-2.346,3.643-4.68,5.974-7.165
			C39.001,27,43.5,23.167,42,18z M28.194,36c1.381,0,2.5,1.119,2.5,2.5s-1.119,2.5-2.5,2.5c-1.381,0-2.5-1.119-2.5-2.5
			S26.813,36,28.194,36z"/>
		<path style="fill:#BBD7EA;" d="M33.4,52.561h-11c-1.103,0-2-0.897-2-2s0.897-2,2-2h1.312c-0.024-0.436,0.02-0.871,0.134-1.299
			c0.147-0.554,0.245-1.114,0.339-1.656c0.074-0.423,0.144-0.829,0.235-1.216c-1.999-1.282-3.226-3.505-3.226-5.891
			c0-1.472,0.471-2.916,1.334-4.104c-1.535-2.346-3.664-4.676-5.893-7.054c-0.153-0.126-4.687-4.066-3.115-9.481l0.104-0.36h28.751
			l0.104,0.36c1.572,5.415-2.961,9.355-3.155,9.521c-2.014,2.151-4.138,4.471-5.673,6.747c0.997,1.242,1.542,2.78,1.542,4.372
			c0,2.548-1.353,4.846-3.558,6.089c0.101,0.451,0.158,0.926,0.217,1.421c0.058,0.487,0.119,0.991,0.226,1.483
			c0.075,0.346,0.101,0.703,0.078,1.068H33.4c1.103,0,2,0.897,2,2S34.503,52.561,33.4,52.561z M22.4,49.561c-0.551,0-1,0.448-1,1
			s0.449,1,1,1h11c0.551,0,1-0.448,1-1s-0.449-1-1-1h-2.422l0.121-0.599c0.09-0.444,0.091-0.856,0.004-1.258
			c-0.117-0.538-0.18-1.066-0.241-1.576c-0.072-0.601-0.14-1.167-0.286-1.653l-0.123-0.406l0.38-0.188
			c2.074-1.019,3.362-3.081,3.362-5.382c0-1.475-0.546-2.896-1.539-4.001l-0.256-0.285l0.209-0.321
			c1.592-2.444,3.851-4.914,6.027-7.234c0.081-0.073,4.064-3.55,2.979-8.158H14.385c-1.09,4.622,2.897,8.084,2.938,8.119
			c2.397,2.552,4.644,5.016,6.237,7.533l0.192,0.303l-0.226,0.279c-0.872,1.078-1.333,2.381-1.333,3.766
			c0,2.154,1.168,4.155,3.049,5.22l0.342,0.194l-0.107,0.378c-0.127,0.445-0.215,0.951-0.308,1.486
			c-0.098,0.563-0.2,1.145-0.358,1.741c-0.126,0.475-0.141,0.96-0.042,1.442l0.121,0.6H22.4z M28.194,41.5c-1.654,0-3-1.346-3-3
			s1.346-3,3-3s3,1.346,3,3S29.848,41.5,28.194,41.5z M28.194,36.5c-1.103,0-2,0.897-2,2s0.897,2,2,2s2-0.897,2-2
			S29.297,36.5,28.194,36.5z"/>
	</g>
</g>
<g>
</g>
<g>
</g>
<g>
</g>
<g>
</g>
<g>
</g>
<g>
</g>
<g>
</g>
<g>
</g>
<g>
</g>
<g>
</g>
<g>
</g>
<g>
</g>
<g>
</g>
<g>
</g>
<g>
</g>
</svg>
