<?xml version="1.0" encoding="iso-8859-1"?>
<!-- Generator: Adobe Illustrator 18.0.0, SVG Export Plug-In . SVG Version: 6.00 Build 0)  -->
<!DOCTYPE svg PUBLIC "-//W3C//DTD SVG 1.1//EN" "http://www.w3.org/Graphics/SVG/1.1/DTD/svg11.dtd">
<svg version="1.1" id="Capa_1" xmlns="http://www.w3.org/2000/svg" xmlns:xlink="http://www.w3.org/1999/xlink" x="0px" y="0px"
	 viewBox="0 0 53.917 53.917" style="enable-background:new 0 0 53.917 53.917;" xml:space="preserve">
<g>
	<g>
		<path style="fill:#F75B57;" d="M44.983,16.564l-2.073-1.382c-0.863-0.576-2.026-0.377-2.649,0.454l-0.074,0.099
			c-0.927,1.236-2.853,0.96-3.395-0.487l-0.682-1.819c-0.569-1.517-2.63-1.724-3.489-0.35l-1.933,3.093
			c-0.728,1.165-2.398,1.236-3.223,0.137l-0.051-0.068c-0.782-1.043-2.347-1.043-3.129,0l-0.409,0.545
			c-0.714,0.952-2.106,1.051-2.947,0.209l-0.533-0.533c-0.688-0.688-1.777-0.766-2.556-0.182l-1.344,1.008
			c-0.928,0.696-2.253,0.436-2.85-0.558l-1.354-2.256c-0.494-0.823-1.512-1.166-2.403-0.809l-1.78,0.712v29.744
			c0,5.133,4.161,9.295,9.295,9.295h9.553h9.553c5.133,0,9.295-4.161,9.295-9.295V16.861C45.526,16.823,45.246,16.739,44.983,16.564
			z"/>
		<path style="fill:#E24040;" d="M36.511,53.917H17.405c-5.401,0-9.795-4.394-9.795-9.795V14.039l2.094-0.837
			c1.124-0.452,2.394-0.022,3.018,1.017l1.354,2.256c0.215,0.357,0.559,0.599,0.968,0.679c0.411,0.08,0.819-0.013,1.153-0.264
			l1.344-1.008c0.969-0.728,2.349-0.632,3.209,0.229l0.533,0.533c0.298,0.298,0.708,0.457,1.132,0.422
			c0.421-0.029,0.808-0.24,1.062-0.578l0.409-0.545c0.468-0.624,1.184-0.982,1.964-0.982s1.496,0.358,1.964,0.982
			c0.343,0.457,0.791,0.674,1.276,0.647c0.487-0.021,0.915-0.27,1.173-0.682l1.933-3.094c0.499-0.798,1.395-1.234,2.327-1.142
			c0.937,0.094,1.724,0.699,2.054,1.58l0.682,1.819c0.189,0.506,0.622,0.854,1.157,0.93c0.53,0.075,1.046-0.135,1.371-0.566
			l0.073-0.099c0.783-1.044,2.244-1.294,3.327-0.57l2.073,1.382c0.172,0.115,0.367,0.184,0.613,0.218l0.433,0.059v27.697
			C46.306,49.523,41.912,53.917,36.511,53.917z M8.61,14.716v29.405c0,4.85,3.945,8.795,8.795,8.795h19.106
			c4.85,0,8.795-3.945,8.795-8.795V17.263c-0.218-0.066-0.416-0.16-0.6-0.283l-2.073-1.382c-0.644-0.429-1.508-0.279-1.972,0.337
			l-0.073,0.099c-0.548,0.729-1.414,1.085-2.313,0.958c-0.902-0.129-1.631-0.716-1.951-1.568l-0.682-1.819
			c-0.199-0.53-0.654-0.881-1.218-0.938c-0.559-0.057-1.079,0.196-1.379,0.677l-1.933,3.094c-0.429,0.688-1.169,1.117-1.978,1.151
			c-0.811,0.05-1.583-0.332-2.068-0.979c-0.656-0.875-1.824-0.808-2.379-0.067l-0.409,0.545c-0.427,0.57-1.08,0.926-1.791,0.977
			c-0.708,0.049-1.407-0.21-1.91-0.713l-0.533-0.533c-0.508-0.507-1.327-0.567-1.902-0.135l-1.344,1.008
			c-0.556,0.415-1.265,0.579-1.945,0.444c-0.681-0.133-1.276-0.551-1.633-1.146l-1.354-2.256c-0.369-0.615-1.121-0.869-1.789-0.603
			L8.61,14.716z"/>
	</g>
	<path style="fill:#F4BDBD;" d="M37.888,24.14h0.451c-1.966,0-3.816-0.817-5.251-2.166c-0.991-0.932-2.094-1.629-3.271-2.061
		c-0.739,0.325-1.637,0.175-2.224-0.47c-0.16-0.01-0.319-0.026-0.481-0.026c-2.205,0-4.256,0.94-5.975,2.557
		c-1.435,1.349-3.285,2.166-5.251,2.166h0.272c-1.724,0-3.135,1.417-3.135,3.149v13.402c0,1.732,1.411,3.149,3.135,3.149h-0.465
		c2.003,0,3.885,0.845,5.326,2.242c1.742,1.689,3.836,2.677,6.093,2.677c2.257,0,4.351-0.988,6.093-2.677
		c1.441-1.397,3.324-2.242,5.326-2.242h-0.644c1.724,0,3.135-1.417,3.135-3.149V27.288C41.024,25.557,39.613,24.14,37.888,24.14z"/>
	<path style="fill:#FBD490;" d="M13.098,17.068l1.279,2.132c0.564,0.94,1.817,1.185,2.694,0.528l1.27-0.952
		c0.736-0.552,1.765-0.479,2.416,0.172l0.503,0.503c0.795,0.795,2.111,0.702,2.785-0.198l0.386-0.515
		c0.739-0.986,2.218-0.986,2.957,0l0.048,0.064c0.779,1.039,2.358,0.972,3.046-0.129l1.827-2.923
		c0.812-1.299,2.76-1.103,3.298,0.331l0.645,1.719c0.513,1.367,2.333,1.628,3.209,0.46l0.07-0.094
		c0.589-0.785,1.688-0.973,2.504-0.429l1.959,1.306c1.228,0.819,2.873-0.062,2.873-1.538v-1.343c0-7.516-9.431-5.355-9.431-9.431
		V5.671H37.5c1.695,0,3.081-0.77,3.081-2.465V3.081C40.581,1.386,39.194,0,37.5,0H16.417c-1.695,0-3.081,1.386-3.081,3.081v0.125
		c0,1.695,1.386,2.465,3.081,2.465h0.063V6.73c0,4.076-9.431,1.915-9.431,9.431v1.653l3.778-1.511
		C11.669,15.966,12.631,16.29,13.098,17.068z"/>
	<path style="fill:#EEAF4B;" d="M26.024,6.429c-0.552,0-1-0.447-1-1s0.448-1,1-1c1.836,0,2.917-0.003,3.997-0.006
		c1.082-0.004,2.164-0.007,4.003-0.007c0.552,0,1,0.447,1,1s-0.448,1-1,1c-1.836,0-2.917,0.003-3.997,0.006
		C28.944,6.426,27.862,6.429,26.024,6.429z"/>
	<path style="fill:#EEAF4B;" d="M22.024,6.417h-2c-0.552,0-1-0.447-1-1s0.448-1,1-1h2c0.552,0,1,0.447,1,1
		S22.576,6.417,22.024,6.417z"/>
	<path style="fill:#ED3F32;" d="M32.595,37.49c0,3.09-3.697,6.948-5.696,6.926c-1.824,0-5.696-3.837-5.696-6.926
		c0-3.09,2.219-4.795,5.696-4.795S32.595,34.401,32.595,37.49z"/>
	<path style="fill:#88C057;" d="M27.078,33.227c-0.552,0-1-0.447-1-1c0-3.602,2.93-6.532,6.531-6.532c0.552,0,1,0.447,1,1
		s-0.448,1-1,1c-2.499,0-4.531,2.033-4.531,4.532C28.078,32.78,27.63,33.227,27.078,33.227z"/>
	<path style="fill:#659C35;" d="M27.078,33.227c-0.552,0-1-0.447-1-1c0-2.499-2.033-4.532-4.531-4.532c-0.552,0-1-0.447-1-1
		s0.448-1,1-1c3.602,0,6.531,2.931,6.531,6.532C28.078,32.78,27.63,33.227,27.078,33.227z"/>
	<path style="fill:#D13834;" d="M25.024,38.417c-0.26,0-0.52-0.101-0.71-0.29c-0.18-0.19-0.29-0.45-0.29-0.71s0.11-0.521,0.29-0.71
		c0.38-0.37,1.05-0.37,1.42,0c0.18,0.189,0.29,0.45,0.29,0.71s-0.11,0.52-0.29,0.71C25.544,38.306,25.283,38.417,25.024,38.417z"/>
	<path style="fill:#D13834;" d="M29.024,38.417c-0.26,0-0.52-0.11-0.71-0.29c-0.18-0.19-0.29-0.45-0.29-0.71s0.11-0.521,0.29-0.71
		c0.37-0.37,1.05-0.37,1.42,0c0.18,0.189,0.29,0.45,0.29,0.71s-0.11,0.52-0.29,0.71C29.544,38.306,29.283,38.417,29.024,38.417z"/>
	<path style="fill:#D13834;" d="M27.024,41.417c-0.26,0-0.52-0.11-0.71-0.29c-0.18-0.19-0.29-0.45-0.29-0.71s0.11-0.521,0.29-0.71
		c0.37-0.37,1.05-0.37,1.42,0c0.18,0.189,0.29,0.45,0.29,0.71s-0.11,0.52-0.29,0.71C27.544,41.306,27.283,41.417,27.024,41.417z"/>
</g>
<g>
</g>
<g>
</g>
<g>
</g>
<g>
</g>
<g>
</g>
<g>
</g>
<g>
</g>
<g>
</g>
<g>
</g>
<g>
</g>
<g>
</g>
<g>
</g>
<g>
</g>
<g>
</g>
<g>
</g>
</svg>
