<?xml version="1.0" encoding="iso-8859-1"?>
<!-- Generator: Adobe Illustrator 18.0.0, SVG Export Plug-In . SVG Version: 6.00 Build 0)  -->
<!DOCTYPE svg PUBLIC "-//W3C//DTD SVG 1.1//EN" "http://www.w3.org/Graphics/SVG/1.1/DTD/svg11.dtd">
<svg version="1.1" id="Capa_1" xmlns="http://www.w3.org/2000/svg" xmlns:xlink="http://www.w3.org/1999/xlink" x="0px" y="0px"
	 viewBox="0 0 52 52" style="enable-background:new 0 0 52 52;" xml:space="preserve">
<g>
	<path style="fill:#583E68;" d="M42.258,18.172l-1.87-1.246c-0.779-0.519-1.828-0.34-2.389,0.409l-0.067,0.089
		c-0.836,1.115-2.573,0.866-3.063-0.439l-0.615-1.641c-0.513-1.368-2.373-1.555-3.147-0.315l-1.744,2.79
		c-0.657,1.051-2.163,1.115-2.907,0.123l-0.046-0.061c-0.705-0.941-2.117-0.941-2.822,0l-0.369,0.492
		c-0.644,0.859-1.899,0.948-2.658,0.189l-0.48-0.48c-0.621-0.621-1.603-0.69-2.305-0.164l-1.212,0.909
		c-0.837,0.628-2.032,0.393-2.571-0.504l-1.221-2.035c-0.445-0.742-1.364-1.052-2.167-0.73L9,16.2v27.417
		C9,48.247,12.753,52,17.383,52H26h8.617C39.247,52,43,48.247,43,43.617V18.44C42.747,18.405,42.494,18.33,42.258,18.172z"/>
	<path style="fill:#6F58A8;" d="M19.795,44.437c-0.618,1.638-3.056,4.082-4.694,3.465c-1.638-0.618-1.855-4.063-1.237-5.701
		c0.618-1.638,2.446-2.465,4.084-1.847S20.413,42.8,19.795,44.437z"/>
	<path style="fill:#6F58A8;" d="M24.695,31.254c1.058,1.395,1.829,4.76,0.435,5.818s-4.427-0.593-5.485-1.987
		c-1.058-1.395-0.785-3.383,0.61-4.44C21.649,29.587,23.637,29.86,24.695,31.254z"/>
	<path style="fill:#6F58A8;" d="M35.775,30.341c-0.647,1.627-3.128,4.027-4.754,3.381c-1.627-0.647-1.782-4.096-1.136-5.722
		c0.647-1.627,2.489-2.421,4.116-1.774C35.627,26.872,36.422,28.714,35.775,30.341z"/>
	<path style="fill:#6F58A8;" d="M43,32.297c-2.131-0.779-4.58,0.032-5.787,2.051c-1.366,2.285-1.969,7.502,0.316,8.868
		c1.436,0.858,3.669-0.009,5.471-1.338V32.297z"/>
	<path style="fill:#6F58A8;" d="M9,27.133v8.636c1.015,0.76,2.125,1.193,3.04,0.854c2.034-0.754,2.328-5.024,1.573-7.058
		C12.913,27.674,10.912,26.664,9,27.133z"/>
	<path style="fill:#6F58A8;" d="M35.346,51.963c0.475-2.217-0.483-5.471-1.684-7.055c-1.609-2.121-4.633-2.537-6.754-0.928
		c-2.121,1.609-2.537,4.633-0.928,6.754c0.318,0.419,0.755,0.852,1.264,1.266h7.372C34.863,52,35.105,51.984,35.346,51.963z"/>
	<path style="fill:#F9EA80;" d="M12.773,16.288l1.221,2.035c0.538,0.897,1.734,1.131,2.571,0.504l1.212-0.909
		c0.702-0.527,1.685-0.457,2.305,0.164l0.48,0.48c0.759,0.759,2.014,0.67,2.658-0.189l0.369-0.492c0.705-0.941,2.116-0.941,2.822,0
		l0.046,0.061c0.743,0.991,2.25,0.927,2.907-0.123l1.744-2.79c0.775-1.239,2.634-1.053,3.147,0.315l0.615,1.641
		c0.489,1.304,2.227,1.553,3.062,0.439l0.067-0.089c0.562-0.749,1.61-0.929,2.389-0.409l1.87,1.246
		C43.43,18.953,45,18.113,45,16.704v-1.282c0-7.172-9-5.11-9-9V6h0.06C37.677,6,39,4.677,39,3.06V2.94C39,1.323,37.677,0,36.06,0
		H15.94C14.323,0,13,1.323,13,2.94V3.06C13,4.677,14.323,6,15.94,6H16v0.422c0,3.89-9,1.828-9,9V17l3.605-1.442
		C11.409,15.236,12.327,15.546,12.773,16.288z"/>
	<path style="fill:#F4C44E;" d="M33.75,7h-8.499c-0.552,0-1-0.447-1-1s0.448-1,1-1h8.499c0.552,0,1,0.447,1,1S34.302,7,33.75,7z"/>
	<path style="fill:#F4C44E;" d="M20.715,7h-2.38c-0.552,0-1-0.447-1-1s0.448-1,1-1h2.38c0.552,0,1,0.447,1,1S21.267,7,20.715,7z"/>
</g>
<g>
</g>
<g>
</g>
<g>
</g>
<g>
</g>
<g>
</g>
<g>
</g>
<g>
</g>
<g>
</g>
<g>
</g>
<g>
</g>
<g>
</g>
<g>
</g>
<g>
</g>
<g>
</g>
<g>
</g>
</svg>
