<?xml version="1.0" encoding="iso-8859-1"?>
<!-- Generator: Adobe Illustrator 18.0.0, SVG Export Plug-In . SVG Version: 6.00 Build 0)  -->
<!DOCTYPE svg PUBLIC "-//W3C//DTD SVG 1.1//EN" "http://www.w3.org/Graphics/SVG/1.1/DTD/svg11.dtd">
<svg version="1.1" id="Capa_1" xmlns="http://www.w3.org/2000/svg" xmlns:xlink="http://www.w3.org/1999/xlink" x="0px" y="0px"
	 viewBox="0 0 58 58" style="enable-background:new 0 0 58 58;" xml:space="preserve">
<g>
	<path style="fill:#D2D5D7;" d="M29,30.723c-0.68,0-1.346-0.06-2-0.154V56c0,1.1,0.9,2,2,2s2-0.9,2-2V30.569
		C30.346,30.663,29.68,30.723,29,30.723z"/>
	<polygon style="fill:#88C057;" points="31,53 27,55 27,53 31,51 	"/>
	<polygon style="fill:#FFFFFF;" points="31,51 27,53 27,51 31,49 	"/>
	<polygon style="fill:#88C057;" points="31,49 27,51 27,49 31,47 	"/>
	<polygon style="fill:#FFFFFF;" points="31,47 27,49 27,47 31,45 	"/>
	<polygon style="fill:#88C057;" points="31,45 27,47 27,45 31,43 	"/>
	<polygon style="fill:#FFFFFF;" points="31,43 27,45 27,43 31,41 	"/>
	<polygon style="fill:#88C057;" points="31,41 27,43 27,41 31,39 	"/>
	<polygon style="fill:#88C057;" points="31,37 27,39 27,37 31,35 	"/>
	<polygon style="fill:#FFFFFF;" points="31,39 27,41 27,39 31,37 	"/>
	<g>
		<circle style="fill:#ED3F32;" cx="29" cy="17" r="16"/>
		<path style="fill:#FFFFFF;" d="M29,34c-9.374,0-17-7.626-17-17S19.626,0,29,0s17,7.626,17,17S38.374,34,29,34z M29,2
			c-8.271,0-15,6.729-15,15s6.729,15,15,15s15-6.729,15-15S37.271,2,29,2z"/>
	</g>
	<path style="fill:#FFFFFF;" d="M29.823,29.995c-4.408,0.001-8.699-2.289-11.052-6.376c-1.383-2.403-1.747-5.201-1.025-7.879
		s2.442-4.913,4.846-6.297c1.969-1.132,4.263-1.43,6.454-0.84c2.193,0.591,4.025,2.001,5.159,3.97
		c0.933,1.622,1.179,3.51,0.692,5.316c-0.487,1.807-1.648,3.314-3.27,4.248c-1.344,0.772-2.906,0.976-4.404,0.573
		c-1.497-0.404-2.747-1.366-3.52-2.709c-0.646-1.121-0.815-2.427-0.479-3.676c0.337-1.249,1.14-2.292,2.261-2.938
		c1.949-1.12,4.444-0.446,5.563,1.5c0.461,0.801,0.582,1.733,0.342,2.626c-0.241,0.892-0.814,1.637-1.616,2.098
		c-0.686,0.396-1.485,0.5-2.251,0.293c-0.766-0.206-1.404-0.698-1.8-1.386c-0.275-0.479-0.11-1.09,0.369-1.365
		c0.479-0.274,1.09-0.11,1.365,0.369c0.128,0.224,0.336,0.384,0.586,0.45c0.245,0.066,0.509,0.033,0.733-0.095
		c0.339-0.195,0.58-0.509,0.682-0.886c0.102-0.376,0.051-0.769-0.144-1.106c-0.571-0.992-1.844-1.337-2.832-0.764
		c-0.658,0.378-1.13,0.99-1.327,1.724c-0.198,0.733-0.098,1.499,0.28,2.157c0.507,0.881,1.326,1.511,2.308,1.775
		s2.006,0.131,2.886-0.375c1.159-0.667,1.988-1.745,2.336-3.035c0.348-1.291,0.172-2.64-0.494-3.798
		c-0.867-1.507-2.269-2.585-3.946-3.037c-1.677-0.451-3.431-0.223-4.936,0.643c-1.94,1.117-3.33,2.922-3.913,5.084
		c-0.582,2.161-0.288,4.42,0.829,6.36c1.429,2.483,3.738,4.262,6.505,5.007c2.767,0.748,5.657,0.369,8.141-1.06
		c6.537-3.762,8.925-12.877,5.108-19.507c-0.275-0.479-0.11-1.09,0.368-1.366c0.479-0.273,1.091-0.11,1.366,0.368
		c2.06,3.58,2.609,8.064,1.508,12.304c-1.107,4.262-3.787,7.883-7.353,9.936C34.154,29.45,31.975,29.995,29.823,29.995z"/>
</g>
<g>
</g>
<g>
</g>
<g>
</g>
<g>
</g>
<g>
</g>
<g>
</g>
<g>
</g>
<g>
</g>
<g>
</g>
<g>
</g>
<g>
</g>
<g>
</g>
<g>
</g>
<g>
</g>
<g>
</g>
</svg>
