<?xml version="1.0" encoding="iso-8859-1"?>
<!-- Generator: Adobe Illustrator 18.0.0, SVG Export Plug-In . SVG Version: 6.00 Build 0)  -->
<!DOCTYPE svg PUBLIC "-//W3C//DTD SVG 1.1//EN" "http://www.w3.org/Graphics/SVG/1.1/DTD/svg11.dtd">
<svg version="1.1" id="Capa_1" xmlns="http://www.w3.org/2000/svg" xmlns:xlink="http://www.w3.org/1999/xlink" x="0px" y="0px"
	 viewBox="0 0 60 60" style="enable-background:new 0 0 60 60;" xml:space="preserve">
<g>
	<path style="fill:#C56458;" d="M40.5,13h-36c-2.2,0-4,1.8-4,4s1.8,4,4,4h3c-2.2,0-4,1.8-4,4s1.8,4,4,4h3c-2.2,0-4,1.8-4,4
		s1.8,4,4,4h3c-2.2,0-4,1.8-4,4s1.8,4,4,4h4c-2.2,0-4,1.8-4,4s1.8,4,4,4h9c2.2,0,4-1.8,4-4s-1.8-4-4-4h4c2.2,0,4-1.8,4-4s-1.8-4-4-4
		h3c2.2,0,4-1.8,4-4s-1.8-4-4-4h3c2.2,0,4-1.8,4-4s-1.8-4-4-4h4c2.2,0,4-1.8,4-4S42.7,13,40.5,13z"/>
	<path style="fill:#A5A5A5;" d="M21.5,60c-0.552,0-1-0.447-1-1v-2c0-0.553,0.448-1,1-1s1,0.447,1,1v2C22.5,59.553,22.052,60,21.5,60
		z"/>
	<path style="fill:#7A3726;" d="M21.5,14c-0.552,0-1-0.447-1-1v-3c0-0.553,0.448-1,1-1s1,0.447,1,1v3C22.5,13.553,22.052,14,21.5,14
		z"/>
	<path style="fill:#7A3726;" d="M21.5,5c-0.552,0-1-0.447-1-1V1c0-0.553,0.448-1,1-1s1,0.447,1,1v3C22.5,4.553,22.052,5,21.5,5z"/>
	<circle style="fill:#ED3F32;" cx="21.5" cy="7" r="3"/>
	<path style="fill:#A5A5A5;" d="M33.5,57h-24c-2.209,0-4-1.791-4-4v0h32v0C37.5,55.209,35.709,57,33.5,57z"/>
	<path style="fill:#D2D5D7;" d="M56.5,47h-8V7c0-2.209,1.791-4,4-4h0c2.209,0,4,1.791,4,4V47z"/>
	<path style="fill:#A5A5A5;" d="M58.5,48h-12c-0.552,0-1-0.447-1-1s0.448-1,1-1h12c0.552,0,1,0.447,1,1S59.052,48,58.5,48z"/>
	<rect x="50.5" y="47" style="fill:#A5A5A5;" width="4" height="9"/>
	<path style="fill:#A5A5A5;" d="M55,59h-5c-0.828,0-1.5-0.672-1.5-1.5l0,0c0-0.828,0.672-1.5,1.5-1.5h5c0.828,0,1.5,0.672,1.5,1.5
		l0,0C56.5,58.328,55.828,59,55,59z"/>
	<path style="fill:#A5A5A5;" d="M52.5,22c-0.552,0-1-0.447-1-1V7c0-0.553,0.448-1,1-1s1,0.447,1,1v14C53.5,21.553,53.052,22,52.5,22
		z"/>
	<path style="fill:#7A3726;" d="M25.5,22h-19c-0.552,0-1-0.447-1-1s0.448-1,1-1h19c0.552,0,1,0.447,1,1S26.052,22,25.5,22z"/>
	<path style="fill:#7A3726;" d="M37.5,22h-5c-0.552,0-1-0.447-1-1s0.448-1,1-1h5c0.552,0,1,0.447,1,1S38.052,22,37.5,22z"/>
	<path style="fill:#7A3726;" d="M14.5,30h-5c-0.552,0-1-0.447-1-1s0.448-1,1-1h5c0.552,0,1,0.447,1,1S15.052,30,14.5,30z"/>
	<path style="fill:#7A3726;" d="M35.5,30h-17c-0.552,0-1-0.447-1-1s0.448-1,1-1h17c0.552,0,1,0.447,1,1S36.052,30,35.5,30z"/>
	<path style="fill:#7A3726;" d="M24.5,38h-13c-0.552,0-1-0.447-1-1s0.448-1,1-1h13c0.552,0,1,0.447,1,1S25.052,38,24.5,38z"/>
	<path style="fill:#7A3726;" d="M32.5,38h-4c-0.552,0-1-0.447-1-1s0.448-1,1-1h4c0.552,0,1,0.447,1,1S33.052,38,32.5,38z"/>
	<path style="fill:#7A3726;" d="M17.5,46h-3c-0.552,0-1-0.447-1-1s0.448-1,1-1h3c0.552,0,1,0.447,1,1S18.052,46,17.5,46z"/>
	<path style="fill:#7A3726;" d="M27.5,46h-6c-0.552,0-1-0.447-1-1s0.448-1,1-1h6c0.552,0,1,0.447,1,1S28.052,46,27.5,46z"/>
</g>
<g>
</g>
<g>
</g>
<g>
</g>
<g>
</g>
<g>
</g>
<g>
</g>
<g>
</g>
<g>
</g>
<g>
</g>
<g>
</g>
<g>
</g>
<g>
</g>
<g>
</g>
<g>
</g>
<g>
</g>
</svg>
