<?xml version="1.0" encoding="iso-8859-1"?>
<!-- Generator: Adobe Illustrator 18.0.0, SVG Export Plug-In . SVG Version: 6.00 Build 0)  -->
<!DOCTYPE svg PUBLIC "-//W3C//DTD SVG 1.1//EN" "http://www.w3.org/Graphics/SVG/1.1/DTD/svg11.dtd">
<svg version="1.1" id="Capa_1" xmlns="http://www.w3.org/2000/svg" xmlns:xlink="http://www.w3.org/1999/xlink" x="0px" y="0px"
	 viewBox="0 0 58 58" style="enable-background:new 0 0 58 58;" xml:space="preserve">
<g>
	<path style="fill:#D2D5D7;" d="M29,31c-0.552,0-1-0.447-1-1v-3c0-0.553,0.448-1,1-1s1,0.447,1,1v3C30,30.552,29.552,31,29,31z"/>
	<path style="fill:#A46F3E;" d="M29,58L29,58c-1.65,0-3-1.35-3-3V33c0-1.65,1.35-3,3-3h0c1.65,0,3,1.35,3,3v22
		C32,56.65,30.65,58,29,58z"/>
	<path style="fill:#D2D5D7;" d="M29,36L29,36c-0.55,0-1-0.45-1-1l0,0c0-0.55,0.45-1,1-1h0c0.55,0,1,0.45,1,1l0,0
		C30,35.55,29.55,36,29,36z"/>
	<path style="fill:#D2D5D7;" d="M29,40L29,40c-0.55,0-1-0.45-1-1l0,0c0-0.55,0.45-1,1-1h0c0.55,0,1,0.45,1,1l0,0
		C30,39.55,29.55,40,29,40z"/>
	<path style="fill:#D2D5D7;" d="M29,27L29,27c-3.3,0-6-2.7-6-6V6c0-3.3,2.7-6,6-6h0c3.3,0,6,2.7,6,6v15C35,24.3,32.3,27,29,27z"/>
</g>
<g>
</g>
<g>
</g>
<g>
</g>
<g>
</g>
<g>
</g>
<g>
</g>
<g>
</g>
<g>
</g>
<g>
</g>
<g>
</g>
<g>
</g>
<g>
</g>
<g>
</g>
<g>
</g>
<g>
</g>
</svg>
