<?xml version="1.0" encoding="iso-8859-1"?>
<!-- Generator: Adobe Illustrator 18.0.0, SVG Export Plug-In . SVG Version: 6.00 Build 0)  -->
<!DOCTYPE svg PUBLIC "-//W3C//DTD SVG 1.1//EN" "http://www.w3.org/Graphics/SVG/1.1/DTD/svg11.dtd">
<svg version="1.1" id="Capa_1" xmlns="http://www.w3.org/2000/svg" xmlns:xlink="http://www.w3.org/1999/xlink" x="0px" y="0px"
	 viewBox="0 0 53.79 53.79" style="enable-background:new 0 0 53.79 53.79;" xml:space="preserve">
<g>
	<path style="fill:#A46F3E;" d="M53.729,5.657c0,0-0.067-1.789-1.968-3.689l-0.001,0.001c0,0-1.891-1.998-3.689-1.968
		c0,0-10.386,4.464-18.077,18.077c0,0,0.067,1.789,1.968,3.689l0.001-0.001c0,0,1.891,1.998,3.689,1.968
		C35.652,23.734,46.037,19.27,53.729,5.657z"/>
	<g>
		<line style="fill:#D2D5D7;" x1="22.778" y1="30.084" x2="30.807" y2="22.055"/>
		<path style="fill:#D2D5D7;" d="M22.778,31.084c-0.256,0-0.512-0.098-0.707-0.293c-0.391-0.391-0.391-1.023,0-1.414l8.028-8.028
			c0.391-0.391,1.023-0.391,1.414,0s0.391,1.023,0,1.414l-8.028,8.028C23.29,30.986,23.034,31.084,22.778,31.084z"/>
	</g>
	<path style="fill:#E6E6E6;" d="M22.153,26.5l5.198,5.198c2.265,2.265,2.265,5.972,0,8.237L16.267,51.019
		c-3.695,3.695-9.74,3.695-13.435,0l0,0c-3.695-3.695-3.695-9.74,0-13.435L13.916,26.5C16.181,24.235,19.888,24.235,22.153,26.5z"/>
	<path style="fill:#FFFFFF;" d="M5.838,49.614c-0.267,0-0.533-0.106-0.729-0.316c-3.007-3.207-2.717-7.757,0.705-11.063
		c0.396-0.384,1.03-0.373,1.414,0.023c0.384,0.397,0.373,1.03-0.024,1.414c-2.629,2.541-2.885,5.859-0.636,8.259
		c0.378,0.402,0.357,1.035-0.045,1.413C6.329,49.524,6.083,49.614,5.838,49.614z"/>
	<g>
		<line style="fill:#D2D5D7;" x1="23.389" y1="32.301" x2="25.357" y2="30.333"/>
		<path style="fill:#D2D5D7;" d="M25.047,29.393c-0.144,0.047-0.282,0.118-0.397,0.233l-1.967,1.968
			c-0.391,0.391-0.391,1.023,0,1.414c0.195,0.195,0.451,0.293,0.707,0.293s0.512-0.098,0.707-0.293l1.967-1.968
			c0.115-0.115,0.185-0.252,0.233-0.397L25.047,29.393z"/>
	</g>
	<g>
		<line style="fill:#D2D5D7;" x1="20.561" y1="29.472" x2="22.529" y2="27.505"/>
		<path style="fill:#D2D5D7;" d="M22.218,26.565c-0.144,0.047-0.282,0.118-0.397,0.233l-1.968,1.968
			c-0.391,0.391-0.391,1.023,0,1.414c0.195,0.195,0.451,0.293,0.707,0.293s0.512-0.098,0.707-0.293l1.968-1.968
			c0.115-0.115,0.185-0.252,0.233-0.397L22.218,26.565z"/>
	</g>
	<g>
		<path style="fill:#C18757;" d="M48.498,2.401c-0.392-0.39-1.024-0.39-1.414,0.001l-2.329,2.33c-0.391,0.391-0.391,1.023,0,1.414
			c0.195,0.195,0.451,0.293,0.707,0.293s0.512-0.098,0.707-0.293l2.33-2.33C48.889,3.424,48.889,2.792,48.498,2.401z"/>
		<path style="fill:#C18757;" d="M43.654,8.66c0.391-0.391,0.391-1.023,0-1.414s-1.023-0.391-1.414,0l-6.614,6.614
			c-0.391,0.391-0.391,1.023,0,1.414c0.195,0.195,0.451,0.293,0.707,0.293s0.512-0.098,0.707-0.293L43.654,8.66z"/>
		<path style="fill:#C18757;" d="M39.033,16.11l-2.366,2.366c-0.39,0.391-0.39,1.024,0,1.414c0.195,0.195,0.451,0.293,0.707,0.293
			s0.512-0.098,0.708-0.293l2.366-2.366c0.39-0.391,0.39-1.024,0-1.414C40.057,15.719,39.423,15.719,39.033,16.11z"/>
		<path style="fill:#C18757;" d="M46.683,8.461l-4.821,4.821c-0.391,0.391-0.391,1.023,0,1.414c0.195,0.195,0.451,0.293,0.707,0.293
			s0.512-0.098,0.707-0.293l4.821-4.821c0.391-0.391,0.391-1.023,0-1.414S47.073,8.07,46.683,8.461z"/>
		<path style="fill:#C18757;" d="M33.376,16.11l-2.604,2.604c-0.391,0.391-0.391,1.023,0,1.414c0.195,0.195,0.451,0.293,0.707,0.293
			s0.512-0.098,0.707-0.293l2.604-2.604c0.391-0.391,0.391-1.023,0-1.414S33.767,15.719,33.376,16.11z"/>
		<path style="fill:#C18757;" d="M51.536,5.021c-0.391-0.391-1.024-0.391-1.414,0l-1.189,1.189c-0.391,0.391-0.391,1.023,0,1.414
			c0.195,0.195,0.451,0.293,0.707,0.293s0.512-0.098,0.707-0.293l1.189-1.189C51.926,6.045,51.926,5.412,51.536,5.021z"/>
	</g>
</g>
<g>
</g>
<g>
</g>
<g>
</g>
<g>
</g>
<g>
</g>
<g>
</g>
<g>
</g>
<g>
</g>
<g>
</g>
<g>
</g>
<g>
</g>
<g>
</g>
<g>
</g>
<g>
</g>
<g>
</g>
</svg>
