<?xml version="1.0" encoding="iso-8859-1"?>
<!-- Generator: Adobe Illustrator 18.0.0, SVG Export Plug-In . SVG Version: 6.00 Build 0)  -->
<!DOCTYPE svg PUBLIC "-//W3C//DTD SVG 1.1//EN" "http://www.w3.org/Graphics/SVG/1.1/DTD/svg11.dtd">
<svg version="1.1" id="Capa_1" xmlns="http://www.w3.org/2000/svg" xmlns:xlink="http://www.w3.org/1999/xlink" x="0px" y="0px"
	 viewBox="0 0 54.264 54.264" style="enable-background:new 0 0 54.264 54.264;" xml:space="preserve">
<g>
	<path style="fill:#A46F3E;" d="M32.051,25.37c0,0,4.991-0.346,9.472-3.666c0,0,5.465-4.594,8.451-9.612
		c0,0,0.719-1.881,3.624-1.302c0,0,2.437-1.668-2.011-6.117L49.264,2.35L29.148,22.467L32.051,25.37z"/>
	<path style="fill:#D2D5D7;" d="M36.948,30.267C20.837,46.378,8.262,53.513,0,51.615l29.148-29.148L36.948,30.267z"/>
	<circle style="fill:#D2D5D7;" cx="35.951" cy="20.414" r="1.5"/>
	<circle style="fill:#D2D5D7;" cx="47.951" cy="8.414" r="1.5"/>
	<path style="fill:#E6E6E6;" d="M33.759,27.192C19.374,40.978,13.572,44.486,4.467,47.148L1.614,50
		c11.375-2.942,17.194-5.709,33.529-21.365L33.759,27.192z"/>
</g>
<g>
</g>
<g>
</g>
<g>
</g>
<g>
</g>
<g>
</g>
<g>
</g>
<g>
</g>
<g>
</g>
<g>
</g>
<g>
</g>
<g>
</g>
<g>
</g>
<g>
</g>
<g>
</g>
<g>
</g>
</svg>
