<?xml version="1.0" encoding="iso-8859-1"?>
<!-- Generator: Adobe Illustrator 18.0.0, SVG Export Plug-In . SVG Version: 6.00 Build 0)  -->
<!DOCTYPE svg PUBLIC "-//W3C//DTD SVG 1.1//EN" "http://www.w3.org/Graphics/SVG/1.1/DTD/svg11.dtd">
<svg version="1.1" id="Capa_1" xmlns="http://www.w3.org/2000/svg" xmlns:xlink="http://www.w3.org/1999/xlink" x="0px" y="0px"
	 viewBox="0 0 57 57" style="enable-background:new 0 0 57 57;" xml:space="preserve">
<g>
	<path style="fill:#D2D5D7;" d="M28.995,30c3.078-3.078,3-9.268,3-17s0.542-13-6-13v31L28.995,30z"/>
	<path style="fill:#A46F3E;" d="M27.995,57L27.995,57c-1.65,0-3-1.35-3-3V32c0-1.65,1.35-3,3-3h0c1.65,0,3,1.35,3,3v22
		C30.995,55.65,29.645,57,27.995,57z"/>
	<path style="fill:#D2D5D7;" d="M27.995,35L27.995,35c-0.55,0-1-0.45-1-1l0,0c0-0.55,0.45-1,1-1h0c0.55,0,1,0.45,1,1l0,0
		C28.995,34.55,28.545,35,27.995,35z"/>
	<path style="fill:#D2D5D7;" d="M27.995,39L27.995,39c-0.55,0-1-0.45-1-1l0,0c0-0.55,0.45-1,1-1h0c0.55,0,1,0.45,1,1l0,0
		C28.995,38.55,28.545,39,27.995,39z"/>
</g>
<g>
</g>
<g>
</g>
<g>
</g>
<g>
</g>
<g>
</g>
<g>
</g>
<g>
</g>
<g>
</g>
<g>
</g>
<g>
</g>
<g>
</g>
<g>
</g>
<g>
</g>
<g>
</g>
<g>
</g>
</svg>
