<?xml version="1.0" encoding="iso-8859-1"?>
<!-- Generator: Adobe Illustrator 18.0.0, SVG Export Plug-In . SVG Version: 6.00 Build 0)  -->
<!DOCTYPE svg PUBLIC "-//W3C//DTD SVG 1.1//EN" "http://www.w3.org/Graphics/SVG/1.1/DTD/svg11.dtd">
<svg version="1.1" id="Capa_1" xmlns="http://www.w3.org/2000/svg" xmlns:xlink="http://www.w3.org/1999/xlink" x="0px" y="0px"
	 viewBox="0 0 58 58" style="enable-background:new 0 0 58 58;" xml:space="preserve">
<g>
	<rect y="6.699" style="fill:#546A79;" width="5" height="8"/>
	<rect x="11" y="6.699" style="fill:#546A79;" width="15" height="8"/>
	<rect x="32" y="6.699" style="fill:#546A79;" width="14" height="8"/>
	<rect x="52" y="6.699" style="fill:#546A79;" width="6" height="8"/>
	<path style="fill:#A46F3E;" d="M11,19.699H5v-15c0-1.657,1.343-3,3-3h0c1.657,0,3,1.343,3,3V19.699z"/>
	<path style="fill:#A46F3E;" d="M32,20.699h-6v-16c0-1.657,1.343-3,3-3h0c1.657,0,3,1.343,3,3V20.699z"/>
	<path style="fill:#D2D5D7;" d="M16.454,52.699H3v-33h13.454c0.854,0,1.546,0.692,1.546,1.546v29.907
		C18,52.007,17.308,52.699,16.454,52.699z"/>
	<path style="fill:#D2D5D7;" d="M30,55.699L30,55.699l-4-5v-30h10v0.768C36,39.116,33.959,46.462,30,55.699z"/>
	<path style="fill:#FFFFFF;" d="M29,29.699c-0.553,0-1-0.447-1-1v-5c0-0.553,0.447-1,1-1s1,0.447,1,1v5
		C30,29.252,29.553,29.699,29,29.699z"/>
	<path style="fill:#FFFFFF;" d="M6,29.699c-0.553,0-1-0.447-1-1v-5c0-0.553,0.447-1,1-1s1,0.447,1,1v5
		C7,29.252,6.553,29.699,6,29.699z"/>
	<path style="fill:#A46F3E;" d="M52,19.699h-6v-15c0-1.657,1.343-3,3-3h0c1.657,0,3,1.343,3,3V19.699z"/>
	<path style="fill:#D2D5D7;" d="M50,56.301L50,56.301L50,56.301c-3.252-4.553-5-10.008-5-15.602v-21h9v0
		C54,26.19,50,29.801,50,56.301z"/>
	<rect x="13" y="19.699" style="fill:#E6E6E6;" width="2" height="33"/>
	<path style="fill:#FFFFFF;" d="M48,29.699c-0.553,0-1-0.447-1-1v-5c0-0.553,0.447-1,1-1s1,0.447,1,1v5
		C49,29.252,48.553,29.699,48,29.699z"/>
</g>
<g>
</g>
<g>
</g>
<g>
</g>
<g>
</g>
<g>
</g>
<g>
</g>
<g>
</g>
<g>
</g>
<g>
</g>
<g>
</g>
<g>
</g>
<g>
</g>
<g>
</g>
<g>
</g>
<g>
</g>
</svg>
