<?xml version="1.0" encoding="iso-8859-1"?>
<!-- Generator: Adobe Illustrator 18.0.0, SVG Export Plug-In . SVG Version: 6.00 Build 0)  -->
<!DOCTYPE svg PUBLIC "-//W3C//DTD SVG 1.1//EN" "http://www.w3.org/Graphics/SVG/1.1/DTD/svg11.dtd">
<svg version="1.1" id="Capa_1" xmlns="http://www.w3.org/2000/svg" xmlns:xlink="http://www.w3.org/1999/xlink" x="0px" y="0px"
	 viewBox="0 0 54 54" style="enable-background:new 0 0 54 54;" xml:space="preserve">
<g>
	
		<rect x="26.427" y="19.683" transform="matrix(0.7071 0.7071 -0.7071 0.7071 27.2187 -11.4469)" style="fill:#D2D5D7;" width="2" height="14.899"/>
	<path style="fill:#E6E6E6;" d="M20.961,29.746c1.757,1.757,8.132,12.374,0.354,20.153c-7.793,7.793-19.102,2.111-20.86,0.354
		s1.762-8.126,7.425-13.789S19.203,27.989,20.961,29.746z"/>
	<path style="fill:#D2D5D7;" d="M20.961,29.746c1.757,1.757-1.055,7.419-6.718,13.081S2.212,52.01,0.455,50.252
		s1.762-8.126,7.425-13.789S19.203,27.989,20.961,29.746z"/>
	<path style="fill:#FFFFFF;" d="M12.283,51.329c-0.458,0-0.922-0.026-1.39-0.08c-0.548-0.063-0.942-0.559-0.879-1.107
		s0.562-0.945,1.108-0.879c2.719,0.312,5.363-0.525,7.07-2.241c0.391-0.392,1.023-0.394,1.415-0.004
		c0.391,0.39,0.393,1.023,0.003,1.414C17.743,50.307,15.127,51.329,12.283,51.329z"/>
	<path style="fill:#A46F3E;" d="M54,5.756c0,0-0.067-1.789-1.968-3.689l-0.001,0.001c0,0-1.891-1.998-3.689-1.968
		c0,0-10.386,4.464-18.077,18.077c0,0,0.067,1.789,1.968,3.689l0.001-0.001c0,0,1.891,1.998,3.689,1.968
		C35.923,23.833,46.308,19.37,54,5.756z"/>
	<g>
		<path style="fill:#C18757;" d="M48.769,2.502c-0.391-0.391-1.024-0.391-1.415,0l-2.33,2.33c-0.391,0.39-0.391,1.023,0,1.414
			c0.195,0.195,0.452,0.293,0.708,0.293s0.512-0.098,0.707-0.293l2.331-2.33C49.16,3.525,49.16,2.891,48.769,2.502z"/>
		<path style="fill:#C18757;" d="M43.925,8.759c0.391-0.391,0.391-1.023,0-1.414s-1.023-0.391-1.414,0l-6.614,6.614
			c-0.391,0.391-0.391,1.023,0,1.414c0.195,0.195,0.451,0.293,0.707,0.293s0.512-0.098,0.707-0.293L43.925,8.759z"/>
		<path style="fill:#C18757;" d="M39.304,16.21l-2.367,2.366c-0.39,0.391-0.39,1.024,0,1.414c0.195,0.195,0.451,0.293,0.707,0.293
			s0.512-0.098,0.708-0.293l2.366-2.366c0.391-0.391,0.391-1.023,0-1.414C40.328,15.819,39.695,15.819,39.304,16.21z"/>
		<path style="fill:#C18757;" d="M46.954,8.56l-4.821,4.821c-0.391,0.391-0.391,1.023,0,1.414c0.195,0.195,0.451,0.293,0.707,0.293
			s0.512-0.098,0.707-0.293l4.821-4.821c0.391-0.391,0.391-1.023,0-1.414S47.344,8.17,46.954,8.56z"/>
		<path style="fill:#C18757;" d="M33.647,16.21l-2.604,2.604c-0.391,0.391-0.391,1.023,0,1.414c0.195,0.195,0.451,0.293,0.707,0.293
			s0.512-0.098,0.707-0.293l2.604-2.604c0.391-0.391,0.391-1.023,0-1.414C34.67,15.819,34.038,15.819,33.647,16.21z"/>
		<path style="fill:#C18757;" d="M51.807,5.121c-0.391-0.391-1.024-0.391-1.414,0L49.204,6.31c-0.391,0.391-0.391,1.023,0,1.414
			c0.195,0.195,0.451,0.293,0.707,0.293s0.512-0.098,0.707-0.293l1.189-1.189C52.197,6.144,52.197,5.511,51.807,5.121z"/>
	</g>
</g>
<g>
</g>
<g>
</g>
<g>
</g>
<g>
</g>
<g>
</g>
<g>
</g>
<g>
</g>
<g>
</g>
<g>
</g>
<g>
</g>
<g>
</g>
<g>
</g>
<g>
</g>
<g>
</g>
<g>
</g>
</svg>
