<?xml version="1.0" encoding="iso-8859-1"?>
<!-- Generator: Adobe Illustrator 18.0.0, SVG Export Plug-In . SVG Version: 6.00 Build 0)  -->
<!DOCTYPE svg PUBLIC "-//W3C//DTD SVG 1.1//EN" "http://www.w3.org/Graphics/SVG/1.1/DTD/svg11.dtd">
<svg version="1.1" id="Capa_1" xmlns="http://www.w3.org/2000/svg" xmlns:xlink="http://www.w3.org/1999/xlink" x="0px" y="0px"
	 viewBox="0 0 50 50" style="enable-background:new 0 0 50 50;" xml:space="preserve">
<g>
	<path style="fill:#F9D70B;" d="M28.925,0v42c11.598,0,21-9.402,21-21S40.523,0,28.925,0z"/>
	<path style="fill:#F1B501;" d="M8.075,29.377c0,2.209-1.791,4-4,4s-4-1.791-4-4c0-1.588,2.068-5.718,3.23-7.913
		c0.327-0.618,1.213-0.618,1.54,0C6.007,23.659,8.075,27.788,8.075,29.377z"/>
	<path style="fill:#F9DA49;" d="M22.075,46c0,2.209-1.791,4-4,4s-4-1.791-4-4c0-1.588,2.068-5.718,3.23-7.913
		c0.327-0.618,1.213-0.618,1.54,0C20.007,40.282,22.075,44.412,22.075,46z"/>
	<path style="fill:#F1B501;" d="M28.925,7.776C20.735,2.054,9.385,2.83,2.075,10.14l26.849,26.849V7.776z"/>
	<path style="fill:#F9DA49;" d="M28.925,12.949c-6.641-6.619-17.389-6.613-24.021,0.019l24.021,24.021V12.949z"/>
	<path style="fill:#F9EA80;" d="M28.925,12.949c-0.232-0.232-0.481-0.436-0.723-0.651L17.925,22.575V8.037
		c-0.132-0.008-0.264-0.014-0.396-0.019h-1.218c-0.129,0.005-0.257,0.011-0.386,0.019v15.952l1,0.999h0v0l1,1h10.97v-2h-9.556
		l9.585-9.586V12.949z"/>
	<path style="fill:#F1B501;" d="M28.925,0v42c11.598,0,21-9.402,21-21S40.523,0,28.925,0z"/>
	<path style="fill:#F9EA80;" d="M28.925,4v34c9.389,0,17-7.611,17-17S38.313,4,28.925,4z"/>
	<path style="fill:#F9DA49;" d="M41.619,9.72c-0.086-0.097-0.173-0.193-0.261-0.288l-0.865-0.865
		c-0.095-0.088-0.191-0.175-0.287-0.261l-11.28,11.28V21l0,0l0,0v1.413l11.28,11.28c0.098-0.087,0.194-0.174,0.29-0.263l0.861-0.861
		c0.089-0.096,0.177-0.192,0.264-0.29L31.339,22h14.535c0.019-0.333,0.05-0.662,0.05-1c0-0.338-0.031-0.667-0.05-1H31.339
		L41.619,9.72z"/>
</g>
<g>
</g>
<g>
</g>
<g>
</g>
<g>
</g>
<g>
</g>
<g>
</g>
<g>
</g>
<g>
</g>
<g>
</g>
<g>
</g>
<g>
</g>
<g>
</g>
<g>
</g>
<g>
</g>
<g>
</g>
</svg>
