<?xml version="1.0" encoding="iso-8859-1"?>
<!-- Generator: Adobe Illustrator 18.0.0, SVG Export Plug-In . SVG Version: 6.00 Build 0)  -->
<!DOCTYPE svg PUBLIC "-//W3C//DTD SVG 1.1//EN" "http://www.w3.org/Graphics/SVG/1.1/DTD/svg11.dtd">
<svg version="1.1" id="Capa_1" xmlns="http://www.w3.org/2000/svg" xmlns:xlink="http://www.w3.org/1999/xlink" x="0px" y="0px"
	 viewBox="0 0 56 56" style="enable-background:new 0 0 56 56;" xml:space="preserve">
<g>
	
		<ellipse transform="matrix(0.7071 0.7071 -0.7071 0.7071 21.4085 -27.5116)" style="fill:#C56458;" cx="43.914" cy="12.087" rx="16" ry="6"/>
	<path style="fill:#FBD490;" d="M42.499,13.501c-2.382-2.382-4.048-4.645-5.12-6.486c-0.557-0.955,0.507-2.019,1.463-1.463
		c1.84,1.072,4.104,2.738,6.486,5.12c2.382,2.382,4.048,4.645,5.12,6.486c0.557,0.955-0.507,2.019-1.463,1.463
		C47.145,17.548,44.881,15.883,42.499,13.501z"/>
	<path style="fill:#773F3A;" d="M39.671,16.329C33.423,10.081,30.257,3.116,32.6,0.773c-8.396,8.396-17.562,27.693-11.314,33.941
		S46.831,31.796,55.227,23.4C52.884,25.743,45.919,22.578,39.671,16.329z"/>
	<path style="fill:#FBD490;" d="M22.693,35.751c-0.52-0.283-0.993-0.624-1.406-1.037c-0.546-0.546-0.967-1.196-1.288-1.925
		l-6.872,6.872c-2.341,2.341-5.573,3.552-8.876,3.347c-0.383-0.024-0.782,0.007-1.19,0.1c-1.444,0.33-2.619,1.5-2.951,2.944
		C-0.493,48.673,1.482,51,4,51c0.05,0,0.096-0.013,0.146-0.015c-0.288,1.095-0.288,2.303,1.317,3.883
		c0.716,0.705,1.657,1.16,2.661,1.13C10.276,55.933,12,54.168,12,52c0-0.015,0-0.03,0-0.045c-0.037-3.305,1.015-6.526,3.352-8.863
		L22.693,35.751z"/>
	<path style="fill:#994530;" d="M38.31,21.667c-0.194,0-0.391-0.057-0.563-0.175c-1.036-0.708-2.057-1.563-3.034-2.539
		s-1.832-1.998-2.54-3.034c-0.414-0.606-1.098-0.953-1.848-0.916c-0.746,0.032-1.407,0.435-1.77,1.077
		c-0.633,1.125-1.181,2.261-1.628,3.377c-0.205,0.512-0.786,0.761-1.3,0.557c-0.513-0.206-0.762-0.788-0.556-1.301
		c0.479-1.197,1.065-2.413,1.742-3.613c0.703-1.25,1.984-2.033,3.425-2.095c1.448-0.063,2.779,0.604,3.585,1.785
		c0.629,0.922,1.426,1.872,2.302,2.749c0.89,0.889,1.814,1.663,2.749,2.303c0.456,0.312,0.573,0.934,0.261,1.39
		C38.943,21.514,38.629,21.667,38.31,21.667z"/>
	<path style="fill:#994530;" d="M27.91,33.292c-1.571,0.001-2.938-0.401-3.906-1.37C23.09,31.008,22.628,29.687,22.63,28
		c0.001-0.553,0.448-0.999,1-0.999c0,0,0.001,0,0.001,0c0.552,0.001,1,0.449,0.999,1.002c-0.001,1.138,0.263,1.98,0.788,2.505
		c1.574,1.574,6.136,0.727,11.091-2.063c0.483-0.273,1.091-0.101,1.362,0.381c0.271,0.48,0.1,1.091-0.381,1.361
		C34.433,31.909,30.822,33.292,27.91,33.292z"/>
</g>
<g>
</g>
<g>
</g>
<g>
</g>
<g>
</g>
<g>
</g>
<g>
</g>
<g>
</g>
<g>
</g>
<g>
</g>
<g>
</g>
<g>
</g>
<g>
</g>
<g>
</g>
<g>
</g>
<g>
</g>
</svg>
