<?xml version="1.0" encoding="iso-8859-1"?>
<!-- Generator: Adobe Illustrator 18.0.0, SVG Export Plug-In . SVG Version: 6.00 Build 0)  -->
<!DOCTYPE svg PUBLIC "-//W3C//DTD SVG 1.1//EN" "http://www.w3.org/Graphics/SVG/1.1/DTD/svg11.dtd">
<svg version="1.1" id="Capa_1" xmlns="http://www.w3.org/2000/svg" xmlns:xlink="http://www.w3.org/1999/xlink" x="0px" y="0px"
	 viewBox="0 0 53.655 53.655" style="enable-background:new 0 0 53.655 53.655;" xml:space="preserve">
<g>
	<path style="fill:#E6E6E6;" d="M53,5.814c-0.53-0.797-1.26-1.311-2.057-1.572c-0.499-0.163-0.876-0.54-1.039-1.039
		c-0.261-0.798-0.775-1.528-1.572-2.058c-1.42-0.944-3.364-0.86-4.694,0.207c-1.059,0.849-1.555,2.086-1.496,3.304
		c0.066,1.375-0.332,2.732-1.306,3.705l-8.431,8.431c-0.062,0.062-0.112,0.131-0.169,0.197l-0.877,2.924
		c0.052,0.326,0.147,0.647,0.302,0.952c0.011,0.022,0.028,0.037,0.04,0.059l2.283-0.761v2.542c1.15,0.28,2.413-0.005,3.307-0.899
		l8.496-8.496c0.974-0.974,2.33-1.372,3.706-1.306c1.218,0.058,2.456-0.437,3.304-1.497C53.86,9.177,53.944,7.234,53,5.814z"/>
	<path style="fill:#BFBFBF;" d="M47.342,5.88l-0.744-0.668c0.859-0.959,2.089-1.522,3.373-1.548l0.02,1
		C48.983,4.684,48.018,5.127,47.342,5.88z"/>
	<g>
		<path style="fill:#EEAF4B;" d="M33.981,24.164v-4l-3,1l1.902-6.34c-1.38,0.021-2.754,0.542-3.802,1.59
			c-4.132,4.132-9.603,6.534-15.411,7.178c-3.14,0.348-6.187,1.732-8.586,4.155c-5.3,5.352-5.494,14.16-0.42,19.726
			c5.547,6.086,14.984,6.25,20.741,0.493c2.149-2.149,3.471-4.809,3.969-7.589c1.049-5.857,4.075-11.179,8.283-15.387
			c0.256-0.256,0.47-0.536,0.664-0.825H33.981z"/>
		<path style="fill:#EEAF4B;" d="M15.282,53.164c-0.123,0-0.245-0.001-0.368-0.004c-4.229-0.098-8.131-1.879-10.988-5.014
			c-5.404-5.929-5.203-15.396,0.448-21.104c2.458-2.482,5.721-4.062,9.188-4.446c5.83-0.646,10.952-3.028,14.813-6.891
			c1.189-1.188,2.785-1.856,4.494-1.882l1.365-0.021l-1.741,5.803l2.488-0.83v4.388h5.215l-1.043,1.557
			c-0.261,0.389-0.511,0.698-0.788,0.976c-4.259,4.259-7.027,9.396-8.006,14.856c-0.553,3.088-2.021,5.896-4.246,8.12
			C23.209,51.577,19.375,53.164,15.282,53.164z M31.464,16.073c-0.628,0.218-1.2,0.572-1.676,1.047
			c-4.186,4.187-9.721,6.768-16.007,7.465c-3.057,0.339-5.818,1.676-7.986,3.865C0.88,33.413,0.705,41.645,5.404,46.799
			c2.485,2.728,5.88,4.276,9.556,4.361c3.707,0.091,7.138-1.3,9.739-3.901c1.935-1.935,3.211-4.375,3.691-7.06
			c0.984-5.489,3.642-10.664,7.71-15.035h-3.119v-3.612l-3.512,1.17L31.464,16.073z"/>
	</g>
	<path style="fill:#FBD490;" d="M25.317,41.671c-0.144,0-0.289-0.031-0.428-0.097c-0.499-0.236-0.712-0.833-0.475-1.332
		c0.461-0.972,0.789-1.995,0.976-3.042c0.096-0.544,0.605-0.91,1.16-0.809c0.543,0.097,0.905,0.616,0.809,1.16
		c-0.218,1.222-0.601,2.415-1.138,3.548C26.05,41.46,25.692,41.671,25.317,41.671z"/>
	<path style="fill:#FBD490;" d="M14.31,49.835c-0.48,0-0.904-0.347-0.985-0.836c-0.091-0.544,0.277-1.06,0.822-1.15
		c3.313-0.553,6.435-2.352,8.565-4.936c0.35-0.426,0.981-0.487,1.407-0.136c0.427,0.352,0.487,0.981,0.136,1.407
		c-2.433,2.951-5.998,5.006-9.78,5.637C14.419,49.831,14.365,49.835,14.31,49.835z"/>
	<circle style="fill:#FBD490;" cx="10.981" cy="30.164" r="2"/>
</g>
<g>
</g>
<g>
</g>
<g>
</g>
<g>
</g>
<g>
</g>
<g>
</g>
<g>
</g>
<g>
</g>
<g>
</g>
<g>
</g>
<g>
</g>
<g>
</g>
<g>
</g>
<g>
</g>
<g>
</g>
</svg>
