<?xml version="1.0" encoding="iso-8859-1"?>
<!-- Generator: Adobe Illustrator 18.0.0, SVG Export Plug-In . SVG Version: 6.00 Build 0)  -->
<!DOCTYPE svg PUBLIC "-//W3C//DTD SVG 1.1//EN" "http://www.w3.org/Graphics/SVG/1.1/DTD/svg11.dtd">
<svg version="1.1" id="Capa_1" xmlns="http://www.w3.org/2000/svg" xmlns:xlink="http://www.w3.org/1999/xlink" x="0px" y="0px"
	 viewBox="0 0 58 58" style="enable-background:new 0 0 58 58;" xml:space="preserve">
<g>
	<path style="fill:#FBD490;" d="M53.602,41.434c1.726,4.509-2.279,9.556-9.602,9.556s-11.327-5.047-9.602-9.556
		c1.269-3.316,5.445-5.424,9.602-5.424S52.332,38.117,53.602,41.434z"/>
	<path style="fill:#FBD490;" d="M15.5,58L15.5,58C9.175,58,4,52.825,4,46.5v0C4,40.175,9.175,35,15.5,35h0
		C21.825,35,27,40.175,27,46.5v0C27,52.825,21.825,58,15.5,58z"/>
	<path style="fill:#ED7161;" d="M16.168,55.392c-2.354,0-4.708-0.896-6.5-2.688c-1.427-1.427-2.213-3.323-2.213-5.341
		s0.786-3.915,2.213-5.341c1.179-1.18,2.746-1.829,4.414-1.829c1.667,0,3.234,0.649,4.414,1.829c2.024,2.024,2.024,5.319,0,7.346
		c-1.697,1.697-4.46,1.697-6.159,0c-0.696-0.696-1.079-1.621-1.079-2.605s0.383-1.909,1.079-2.605c0.391-0.391,1.023-0.391,1.414,0
		s0.391,1.023,0,1.414c-0.318,0.318-0.493,0.741-0.493,1.191s0.175,0.873,0.493,1.191c0.918,0.918,2.413,0.916,3.331,0
		c1.245-1.246,1.245-3.272,0-4.518c-0.802-0.802-1.867-1.243-3-1.243c-1.134,0-2.198,0.441-3,1.243
		c-1.049,1.049-1.627,2.443-1.627,3.927s0.578,2.878,1.627,3.927c2.806,2.805,7.367,2.803,10.171,0
		c3.628-3.628,3.646-9.975,0.04-13.582c-0.391-0.391-0.391-1.023,0-1.414s1.023-0.391,1.414,0c2.091,2.091,3.283,5.083,3.272,8.209
		c-0.012,3.118-1.219,6.107-3.313,8.201C20.875,54.495,18.521,55.392,16.168,55.392z"/>
	<path style="fill:#DC9628;" d="M53.913,44.372C53.417,47.885,49.742,50.99,44,50.99c-5.97,0-9.706-3.356-9.957-7.038
		c-0.014,0.014-0.026,0.029-0.04,0.042L34,48c0.275,3.668,4.05,7,10,7s9.725-3.332,10-7v-3.601
		C53.971,44.391,53.942,44.38,53.913,44.372z"/>
	<path style="fill:#DC9628;" d="M15.5,0C9.175,0,4,5.175,4,11.5v35C4,40.175,9.175,35,15.5,35S27,40.175,27,46.5v-35
		C27,5.175,21.825,0,15.5,0z"/>
	<path style="fill:#F4C44E;" d="M24.972,14.996c-0.317,0-0.63-0.15-0.824-0.432C22.176,11.706,18.942,10,15.5,10
		c-1.483,0-2.919,0.307-4.267,0.912c-0.508,0.225-1.097,0.001-1.322-0.502C9.685,9.906,9.91,9.314,10.413,9.088
		C12.021,8.366,13.731,8,15.5,8c4.1,0,7.948,2.029,10.294,5.428c0.313,0.455,0.199,1.078-0.255,1.392
		C25.365,14.938,25.167,14.996,24.972,14.996z"/>
	<path style="fill:#F4C44E;" d="M24.972,20.996c-0.317,0-0.63-0.15-0.824-0.432C22.176,17.706,18.942,16,15.5,16
		c-1.483,0-2.919,0.307-4.267,0.912c-0.508,0.226-1.097,0-1.322-0.502c-0.227-0.504-0.001-1.096,0.502-1.322
		C12.021,14.366,13.731,14,15.5,14c4.1,0,7.948,2.029,10.294,5.428c0.313,0.455,0.199,1.078-0.255,1.392
		C25.365,20.938,25.167,20.996,24.972,20.996z"/>
	<path style="fill:#F4C44E;" d="M24.972,26.996c-0.317,0-0.63-0.15-0.824-0.432C22.176,23.706,18.942,22,15.5,22
		c-1.483,0-2.919,0.307-4.267,0.912c-0.508,0.224-1.097,0-1.322-0.502c-0.227-0.504-0.001-1.096,0.502-1.322
		C12.021,20.366,13.731,20,15.5,20c4.1,0,7.948,2.029,10.294,5.428c0.313,0.455,0.199,1.078-0.255,1.392
		C25.365,26.938,25.167,26.996,24.972,26.996z"/>
	<path style="fill:#ED7161;" d="M51.047,42.228c-0.173-1.484-1.131-2.846-2.628-3.734c-1.995-1.187-4.822-1.182-6.72,0.013
		c-0.962,0.604-1.547,1.517-1.605,2.501c-0.057,0.968,0.385,1.882,1.244,2.576c1.5,1.211,3.938,1.21,5.437-0.001
		c0.429-0.348,0.495-0.978,0.147-1.406c-0.349-0.429-0.978-0.496-1.406-0.148c-0.752,0.606-2.17,0.605-2.922-0.001
		c-0.242-0.195-0.526-0.511-0.503-0.901c0.02-0.332,0.265-0.669,0.673-0.926c1.258-0.79,3.292-0.783,4.634,0.013
		c0.957,0.568,1.563,1.388,1.663,2.248c0.086,0.732-0.207,1.446-0.847,2.064c-2.516,2.432-7.339,2.439-9.735,0.016
		c-0.99-1.001-1.413-2.168-1.225-3.374c0.22-1.402,1.257-2.711,2.774-3.501c0.428-0.223,0.607-0.709,0.48-1.156
		c-1.871,0.538-3.555,1.492-4.74,2.771c-0.235,0.506-0.405,1.034-0.49,1.576c-0.287,1.832,0.345,3.64,1.778,5.09
		c1.581,1.599,3.899,2.398,6.234,2.398c2.326,0,4.669-0.794,6.313-2.383C50.692,44.91,51.205,43.584,51.047,42.228z"/>
</g>
<g>
</g>
<g>
</g>
<g>
</g>
<g>
</g>
<g>
</g>
<g>
</g>
<g>
</g>
<g>
</g>
<g>
</g>
<g>
</g>
<g>
</g>
<g>
</g>
<g>
</g>
<g>
</g>
<g>
</g>
</svg>
