<?xml version="1.0" encoding="iso-8859-1"?>
<!-- Generator: Adobe Illustrator 18.0.0, SVG Export Plug-In . SVG Version: 6.00 Build 0)  -->
<!DOCTYPE svg PUBLIC "-//W3C//DTD SVG 1.1//EN" "http://www.w3.org/Graphics/SVG/1.1/DTD/svg11.dtd">
<svg version="1.1" id="Capa_1" xmlns="http://www.w3.org/2000/svg" xmlns:xlink="http://www.w3.org/1999/xlink" x="0px" y="0px"
	 viewBox="0 0 52.017 52.017" style="enable-background:new 0 0 52.017 52.017;" xml:space="preserve">
<g>
	<g>
		<path style="fill:#DAE7EF;" d="M41.835,8.923c-0.01-0.009-0.021-0.018-0.031-0.027c-1.147-1.038-0.837-2.85,0.401-3.78
			c0.487-0.365,0.803-0.947,0.803-1.599v-1c0-1.1-0.9-2-2-2h-11c-1.1,0-2,0.9-2,2v1c0,0.666,0.33,1.254,0.835,1.616
			c1.157,0.83,1.624,2.426,0.702,3.511c-0.087,0.103-0.184,0.2-0.29,0.292c-0.994,0.856-2.214,1.758-3.229,2.968
			c1.118,1.355,1.982,3.097,1.982,5.613v30.219c0,1.433-0.817,2.671-2,3.312c0.534,0.289,1.134,0.469,1.781,0.469h15.438
			c2.079,0,3.781-1.701,3.781-3.781V17.517C47.008,12.744,43.909,10.743,41.835,8.923z"/>
		<path style="fill:#BBD7EA;" d="M43.228,52.017H27.789c-0.691,0-1.371-0.178-2.019-0.529l-0.812-0.439l0.812-0.439
			c1.072-0.581,1.738-1.682,1.738-2.873V17.517c0-2.068-0.594-3.751-1.868-5.295L25.376,11.9l0.268-0.318
			c0.814-0.97,1.756-1.75,2.587-2.439c0.241-0.199,0.476-0.394,0.699-0.586c0.085-0.074,0.164-0.153,0.236-0.237
			c0.365-0.43,0.395-0.902,0.355-1.223c-0.073-0.593-0.435-1.175-0.969-1.558c-0.653-0.47-1.043-1.226-1.043-2.022v-1
			c0-1.379,1.122-2.5,2.5-2.5h11c1.378,0,2.5,1.121,2.5,2.5v1c0,0.78-0.375,1.527-1.002,1.998c-0.542,0.408-0.883,1.032-0.913,1.671
			c-0.024,0.522,0.17,0.998,0.547,1.339l-0.305,0.398l0.33-0.376c0.23,0.202,0.474,0.407,0.724,0.617
			c2.058,1.73,4.619,3.884,4.619,8.353v30.219C47.508,50.096,45.588,52.017,43.228,52.017z M27.054,50.926
			c0.243,0.061,0.489,0.091,0.735,0.091h15.439c1.809,0,3.28-1.472,3.28-3.281V17.517c0-4.003-2.265-5.907-4.263-7.587
			c-0.256-0.215-0.504-0.424-0.74-0.631l-0.015-0.014l0.338-0.368l-0.35,0.358c-0.612-0.555-0.923-1.31-0.885-2.136
			c0.042-0.933,0.533-1.84,1.311-2.424c0.383-0.288,0.603-0.726,0.603-1.199v-1c0-0.827-0.673-1.5-1.5-1.5h-11
			c-0.827,0-1.5,0.673-1.5,1.5v1c0,0.476,0.234,0.929,0.626,1.21c0.757,0.543,1.272,1.384,1.378,2.248
			c0.09,0.734-0.119,1.441-0.587,1.993c-0.104,0.121-0.218,0.237-0.343,0.346c-0.229,0.197-0.469,0.396-0.715,0.6
			c-0.74,0.613-1.503,1.245-2.192,2.006c1.232,1.628,1.833,3.463,1.833,5.598v30.219C28.508,48.967,27.968,50.122,27.054,50.926z"/>
	</g>
	<path style="fill:#FFFFFF;" d="M43.228,51.017c1.809,0,3.28-1.472,3.28-3.281V17.564c-1.808,0.591-3.522,0.908-5.178,0.908
		c-1.178,0-2.33-0.147-3.478-0.44c-1.289-0.328-2.501-0.775-3.674-1.207c-1.968-0.725-3.848-1.405-5.902-1.472
		c0.153,0.687,0.232,1.405,0.232,2.163v30.219c0,1.231-0.541,2.387-1.455,3.19c0.243,0.061,0.489,0.091,0.735,0.091H43.228z"/>
	<path style="fill:#FAF5E5;" d="M41.783,5.517h-12.55c-1.1,0-2-0.9-2-2V2c0-1.1,0.9-2,2-2h12.55c1.1,0,2,0.9,2,2v1.517
		C43.783,4.617,42.883,5.517,41.783,5.517z"/>
	<rect x="33.878" y="20.517" style="fill:#BBD7EA;" width="13.621" height="21.917"/>
	<g>
		<path style="fill:#DAE7EF;" d="M22.835,8.923c-0.01-0.009-0.021-0.018-0.031-0.027c-1.147-1.038-0.837-2.85,0.401-3.78
			c0.487-0.366,0.803-0.947,0.803-1.599v-1c0-1.1-0.9-2-2-2h-11c-1.1,0-2,0.9-2,2v1c0,0.665,0.33,1.254,0.835,1.616
			c1.157,0.83,1.624,2.426,0.702,3.511c-0.087,0.102-0.184,0.2-0.29,0.292c-2.108,1.815-5.247,3.823-5.247,8.581v30.219
			c0,2.079,1.701,3.781,3.781,3.781h15.438c2.079,0,3.781-1.701,3.781-3.781V17.517C28.008,12.744,24.909,10.743,22.835,8.923z"/>
		<path style="fill:#BBD7EA;" d="M24.228,52.017H8.789c-2.36,0-4.281-1.92-4.281-4.28v-30.22c0-4.47,2.607-6.625,4.701-8.357
			c0.249-0.205,0.49-0.405,0.72-0.603c0.085-0.074,0.164-0.153,0.236-0.237c0.365-0.43,0.395-0.902,0.355-1.223
			c-0.073-0.593-0.435-1.175-0.969-1.558c-0.653-0.47-1.043-1.226-1.043-2.022v-1c0-1.379,1.122-2.5,2.5-2.5h11
			c1.378,0,2.5,1.121,2.5,2.5v1c0,0.78-0.375,1.527-1.002,1.998c-0.542,0.408-0.884,1.033-0.913,1.672
			c-0.024,0.522,0.17,0.997,0.547,1.338l-0.305,0.398l0.33-0.376c0.23,0.203,0.474,0.407,0.725,0.618
			c2.058,1.729,4.618,3.883,4.618,8.352v30.22C28.508,50.097,26.588,52.017,24.228,52.017z M11.008,1.017
			c-0.827,0-1.5,0.673-1.5,1.5v1c0,0.476,0.234,0.929,0.626,1.21c0.757,0.543,1.272,1.384,1.378,2.248
			c0.09,0.734-0.119,1.441-0.587,1.993c-0.104,0.121-0.218,0.237-0.343,0.346C10.348,9.516,10.101,9.72,9.847,9.93
			c-2.033,1.682-4.338,3.588-4.338,7.587v30.22c0,1.809,1.472,3.28,3.281,3.28h15.438c1.809,0,3.281-1.472,3.281-3.28v-30.22
			c0-4.003-2.264-5.906-4.262-7.586c-0.256-0.216-0.505-0.425-0.741-0.632l-0.014-0.014l0.338-0.368l-0.35,0.358
			c-0.612-0.554-0.923-1.309-0.885-2.135c0.042-0.934,0.533-1.84,1.311-2.425c0.383-0.288,0.603-0.726,0.603-1.199v-1
			c0-0.827-0.673-1.5-1.5-1.5H11.008z"/>
	</g>
	<path style="fill:#8CC9EA;" d="M43.5,25.517c-0.552,0-1,0.447-1,1s0.448,1,1,1h4v-2H43.5z"/>
	<path style="fill:#8CC9EA;" d="M47.5,31.517h-6c-0.552,0-1,0.447-1,1c0,0.553,0.448,1,1,1h6V31.517z"/>
	<path style="fill:#FAF5E5;" d="M22.996,5.658H10.021c-1.1,0-2-0.9-2-2V2c0-1.1,0.9-2,2-2h12.975c1.1,0,2,0.9,2,2v1.658
		C24.996,4.758,24.096,5.658,22.996,5.658z"/>
	<path style="fill:#8CC9EA;" d="M43.5,35.517c-0.552,0-1,0.447-1,1s0.448,1,1,1h4v-2H43.5z"/>
	<path style="fill:#FFFFFF;" d="M8.789,51.017h15.438c1.809,0,3.281-1.472,3.281-3.28V24.319c-3.605-1.425-6.394-1.274-10.738,0.578
		c-2.164,0.922-4.02,1.387-5.91,1.387c-1.669,0-3.393-0.4-5.353-1.132v22.585C5.508,49.545,6.98,51.017,8.789,51.017z"/>
</g>
<g>
</g>
<g>
</g>
<g>
</g>
<g>
</g>
<g>
</g>
<g>
</g>
<g>
</g>
<g>
</g>
<g>
</g>
<g>
</g>
<g>
</g>
<g>
</g>
<g>
</g>
<g>
</g>
<g>
</g>
</svg>
