<?xml version="1.0" encoding="iso-8859-1"?>
<!-- Generator: Adobe Illustrator 18.0.0, SVG Export Plug-In . SVG Version: 6.00 Build 0)  -->
<!DOCTYPE svg PUBLIC "-//W3C//DTD SVG 1.1//EN" "http://www.w3.org/Graphics/SVG/1.1/DTD/svg11.dtd">
<svg version="1.1" id="Capa_1" xmlns="http://www.w3.org/2000/svg" xmlns:xlink="http://www.w3.org/1999/xlink" x="0px" y="0px"
	 viewBox="0 0 56 56" style="enable-background:new 0 0 56 56;" xml:space="preserve">
<g>
	<path style="fill:#BBD7EA;" d="M46.377,39h-8.956l3.812-25h5.145c1.654,0,3,1.346,3,3v19C49.377,37.654,48.032,39,46.377,39z
		 M39.749,37h6.628c0.552,0,1-0.448,1-1V17c0-0.552-0.448-1-1-1h-3.426L39.749,37z"/>
	<g>
		<path style="fill:#DAE7EF;" d="M33.299,45h-15.63c-1.914,0-3.562-1.351-3.937-3.228L11.377,19l-3.91-5.865
			C6.574,11.795,7.535,10,9.145,10h29.753c1.888,0,3.388,1.588,3.281,3.473l-3.935,26.856C38.094,42.951,35.925,45,33.299,45z"/>
		<path style="fill:#BBD7EA;" d="M33.299,45.5h-15.63c-2.146,0-4.008-1.526-4.428-3.63l-2.349-22.695l-3.842-5.763
			c-0.523-0.785-0.57-1.751-0.125-2.583S8.201,9.5,9.145,9.5h29.754c1.052,0,2.029,0.421,2.752,1.186
			c0.723,0.766,1.087,1.766,1.027,2.816L38.74,40.401C38.579,43.241,36.187,45.5,33.299,45.5z M9.145,10.5
			c-0.569,0-1.068,0.3-1.337,0.801c-0.269,0.502-0.24,1.084,0.075,1.557l3.979,5.968l2.367,22.896
			c0.32,1.591,1.771,2.779,3.44,2.779h15.63c2.358,0,4.312-1.845,4.446-4.199l3.938-26.899c0.04-0.729-0.229-1.466-0.761-2.028
			c-0.531-0.563-1.251-0.873-2.024-0.873H9.145z"/>
	</g>
	<path style="fill:#D2D5D7;" d="M41.377,56h-32v-9c0-1.1,0.9-2,2-2h28c1.1,0,2,0.9,2,2V56z"/>
	<path style="fill:#38454F;" d="M38.377,10h-26V7c0-1.1,0.9-2,2-2h22c1.1,0,2,0.9,2,2V10z"/>
	<path style="fill:#546A79;" d="M33.377,5h-16V2c0-1.1,0.9-2,2-2h12c1.1,0,2,0.9,2,2V5z"/>
	<circle style="fill:#FAF5E5;" cx="15.877" cy="50.5" r="2.5"/>
	<circle style="fill:#FAF5E5;" cx="34.877" cy="50.5" r="2.5"/>
	<path style="fill:#38454F;" d="M23.377,54c-0.553,0-1-0.447-1-1v-5c0-0.553,0.447-1,1-1s1,0.447,1,1v5
		C24.377,53.553,23.93,54,23.377,54z"/>
	<path style="fill:#38454F;" d="M27.377,54c-0.553,0-1-0.447-1-1v-5c0-0.553,0.447-1,1-1s1,0.447,1,1v5
		C28.377,53.553,27.93,54,27.377,54z"/>
	<path style="fill:#BBD7EA;" d="M21.377,24h-4c-0.553,0-1-0.447-1-1s0.447-1,1-1h4c0.553,0,1,0.447,1,1S21.93,24,21.377,24z"/>
	<path style="fill:#BBD7EA;" d="M19.377,28h-2c-0.553,0-1-0.447-1-1s0.447-1,1-1h2c0.553,0,1,0.447,1,1S19.93,28,19.377,28z"/>
	<path style="fill:#BBD7EA;" d="M21.377,40h-4c-0.553,0-1-0.447-1-1s0.447-1,1-1h4c0.553,0,1,0.447,1,1S21.93,40,21.377,40z"/>
	<path style="fill:#BBD7EA;" d="M21.377,32h-4c-0.553,0-1-0.447-1-1s0.447-1,1-1h4c0.553,0,1,0.447,1,1S21.93,32,21.377,32z"/>
	<path style="fill:#BBD7EA;" d="M19.377,36h-2c-0.553,0-1-0.447-1-1s0.447-1,1-1h2c0.553,0,1,0.447,1,1S19.93,36,19.377,36z"/>
</g>
<g>
</g>
<g>
</g>
<g>
</g>
<g>
</g>
<g>
</g>
<g>
</g>
<g>
</g>
<g>
</g>
<g>
</g>
<g>
</g>
<g>
</g>
<g>
</g>
<g>
</g>
<g>
</g>
<g>
</g>
</svg>
