<?xml version="1.0" encoding="iso-8859-1"?>
<!-- Generator: Adobe Illustrator 18.0.0, SVG Export Plug-In . SVG Version: 6.00 Build 0)  -->
<!DOCTYPE svg PUBLIC "-//W3C//DTD SVG 1.1//EN" "http://www.w3.org/Graphics/SVG/1.1/DTD/svg11.dtd">
<svg version="1.1" id="Capa_1" xmlns="http://www.w3.org/2000/svg" xmlns:xlink="http://www.w3.org/1999/xlink" x="0px" y="0px"
	 viewBox="0 0 41.043 41.043" style="enable-background:new 0 0 41.043 41.043;" xml:space="preserve">
<g>
	<path style="fill:#E6E6E6;" d="M14.754,40.048h4.839c1.706,0,3.317-0.752,4.448-2.028c12.702-14.335,8.336-37.026,6.927-37.026
		H14.754h3.333H1.874c-1.409,0-5.775,22.691,6.927,37.026c1.131,1.277,2.742,2.028,4.448,2.028h4.839"/>
	<path style="fill:#E6E6E6;" d="M29.074,34.155c-0.46,0-0.928-0.04-1.402-0.122c-0.544-0.094-0.91-0.61-0.816-1.155
		c0.093-0.544,0.607-0.911,1.155-0.815c5.164,0.891,8.611-5.073,10.118-10.949c1.191-4.641,1.219-7.749,0.083-9.503
		c-0.985-1.521-2.85-2.114-5.541-2.577c-0.544-0.094-0.91-0.61-0.816-1.155c0.093-0.544,0.61-0.91,1.155-0.815
		c2.526,0.435,5.35,1.097,6.881,3.461c1.476,2.279,1.531,5.803,0.175,11.088C38.019,29.589,33.971,34.155,29.074,34.155z"/>
	<path style="fill:#E6E6E6;" d="M14.754,40.048h4.839c1.706,0,3.317-0.752,4.448-2.028c12.702-14.335,8.336-37.026,6.927-37.026
		H14.754h3.333H1.874c-1.409,0-5.775,22.691,6.927,37.026c1.131,1.277,2.742,2.028,4.448,2.028h4.839"/>
	<path style="fill:#FFFFFF;" d="M12.394,36.021c-0.312,0-0.619-0.146-0.814-0.418c-4.138-5.785-6.694-12.3-7.392-18.837
		c-0.059-0.55,0.339-1.042,0.888-1.101c0.541-0.056,1.042,0.339,1.1,0.888c0.662,6.196,3.093,12.381,7.031,17.886
		c0.321,0.449,0.217,1.074-0.232,1.396C12.798,35.96,12.595,36.021,12.394,36.021z"/>
	<path style="fill:#FFFFFF;" d="M5.239,10.624c-0.045,0-0.09-0.003-0.136-0.009c-0.547-0.074-0.931-0.578-0.857-1.125
		c0.241-1.776,0.609-3.615,1.667-5.039c0.33-0.441,0.957-0.534,1.399-0.206c0.443,0.33,0.535,0.956,0.206,1.399
		c-0.827,1.112-1.1,2.707-1.29,4.113C6.16,10.26,5.731,10.624,5.239,10.624z"/>
</g>
<g>
</g>
<g>
</g>
<g>
</g>
<g>
</g>
<g>
</g>
<g>
</g>
<g>
</g>
<g>
</g>
<g>
</g>
<g>
</g>
<g>
</g>
<g>
</g>
<g>
</g>
<g>
</g>
<g>
</g>
</svg>
