<?xml version="1.0" encoding="iso-8859-1"?>
<!-- Generator: Adobe Illustrator 18.0.0, SVG Export Plug-In . SVG Version: 6.00 Build 0)  -->
<!DOCTYPE svg PUBLIC "-//W3C//DTD SVG 1.1//EN" "http://www.w3.org/Graphics/SVG/1.1/DTD/svg11.dtd">
<svg version="1.1" id="Capa_1" xmlns="http://www.w3.org/2000/svg" xmlns:xlink="http://www.w3.org/1999/xlink" x="0px" y="0px"
	 viewBox="0 0 52.287 52.287" style="enable-background:new 0 0 52.287 52.287;" xml:space="preserve">
<g>
	<path style="fill:#E6E6E6;" d="M34.462,43.251c-3.676-3.977-3.828-12.16-3.686-15.892c0.04-1.057-0.802-1.933-1.86-1.933h0h-5.149
		h0c-1.058,0-1.9,0.876-1.86,1.933c0.142,3.733-0.01,11.916-3.686,15.892c0,0-4.027,4.121,0.761,6.898
		c0.273,0.158,0.593,0.232,0.908,0.232h3.877h5.149h3.877c0.315,0,0.635-0.074,0.908-0.232
		C38.49,47.372,34.462,43.251,34.462,43.251z"/>
	<path style="fill:#D2D5D7;" d="M39.81,28.614L39.81,28.614c-9.043-1.573-18.289-1.573-27.332,0l0,0C5.615,28.614,0,22.999,0,16.137
		v0c0.693-5.249,4.308-9.655,12.478-12.478l0,0c8.961-2.338,18.371-2.338,27.332,0l0,0c8.962,2.426,12.131,6.982,12.478,12.478v0
		C52.287,22.999,46.672,28.614,39.81,28.614z"/>
	<path style="fill:#D2D5D7;" d="M18.09,8.716c-0.489,0-0.917-0.359-0.989-0.858c-0.078-0.546,0.302-1.053,0.849-1.132
		c2.077-0.298,4.284-0.441,6.572-0.414c0.553,0.006,0.996,0.458,0.99,1.01c-0.006,0.549-0.452,0.99-1,0.99c-0.003,0-0.007,0-0.01,0
		c-2.188-0.027-4.292,0.111-6.27,0.395C18.185,8.713,18.137,8.716,18.09,8.716z"/>
	<path style="fill:#D2D5D7;" d="M5.657,19.232c-0.533,0-0.976-0.421-0.998-0.959C4.45,13.225,8.02,9.196,14.206,7.498
		c0.53-0.148,1.083,0.165,1.229,0.699c0.146,0.532-0.167,1.083-0.699,1.229c-2.509,0.689-8.319,2.923-8.078,8.766
		c0.022,0.552-0.406,1.018-0.958,1.04C5.686,19.232,5.672,19.232,5.657,19.232z"/>
</g>
<g>
</g>
<g>
</g>
<g>
</g>
<g>
</g>
<g>
</g>
<g>
</g>
<g>
</g>
<g>
</g>
<g>
</g>
<g>
</g>
<g>
</g>
<g>
</g>
<g>
</g>
<g>
</g>
<g>
</g>
</svg>
