<?xml version="1.0" encoding="iso-8859-1"?>
<!-- Generator: Adobe Illustrator 18.0.0, SVG Export Plug-In . SVG Version: 6.00 Build 0)  -->
<!DOCTYPE svg PUBLIC "-//W3C//DTD SVG 1.1//EN" "http://www.w3.org/Graphics/SVG/1.1/DTD/svg11.dtd">
<svg version="1.1" id="Capa_1" xmlns="http://www.w3.org/2000/svg" xmlns:xlink="http://www.w3.org/1999/xlink" x="0px" y="0px"
	 viewBox="0 0 46.198 46.198" style="enable-background:new 0 0 46.198 46.198;" xml:space="preserve">
<g>
	<path style="fill:#D7CC56;" d="M12.455,0.51c-2.405,0.981-4.517,2.563-6.136,4.594c-1.36,2.007-1.431,3.604-0.704,4.898l0,0
		c1.153,1.541,3.358,1.857,4.898,0.704c0.619-0.656,2.019-1.711,2.066-1.652c0.659,0.814,2.001,2.677,1.844,4.187
		c0,0-0.211,1.602,1.33,1.421c0.088-0.01,0.172-0.048,0.243-0.101l0.87-0.652l1.156-0.865l0.87-0.652
		c0.071-0.053,0.13-0.123,0.165-0.205c0.608-1.428-0.989-1.677-0.989-1.677c-1.494-0.275-2.903-2.086-3.499-2.948
		c-0.041-0.06,1.309-1.059,2.079-1.451c1.541-1.153,1.857-3.358,0.704-4.898l0,0C16.352,0.038,14.875-0.452,12.455,0.51z"/>
	<path style="fill:#F9EA80;" d="M34.656,4.278c-2.19-1.797-4.803-3.002-7.592-3.5c-2.631-0.262-4.199,0.499-5.063,1.868l0,0
		c-0.879,1.906-0.038,4.185,1.868,5.063c0.95,0.253,2.689,1.048,2.658,1.124c-0.438,1.055-1.529,3.308-3.059,3.942
		c0,0-1.646,0.629-0.672,2.013c0.056,0.079,0.135,0.14,0.223,0.181l1.077,0.496l1.43,0.659l1.077,0.496
		c0.088,0.04,0.186,0.061,0.282,0.052c1.686-0.158,1.095-1.819,1.095-1.819c-0.512-1.575,0.494-3.868,1.011-4.886
		c0.036-0.071,1.696,0.705,2.471,1.24c1.906,0.879,4.185,0.038,5.063-1.868l0,0C37.131,7.771,36.834,6.1,34.656,4.278z"/>
	<path style="fill:#D7CC56;" d="M41.133,14.742c-2.586-0.242-5.19,0.183-7.565,1.235c-2.134,1.15-2.935,2.533-2.89,4.017l0,0
		c0.31,1.899,2.118,3.2,4.017,2.89c0.852-0.296,2.581-0.583,2.596-0.509c0.208,1.027,0.536,3.298-0.302,4.565
		c0,0-0.928,1.323,0.522,1.875c0.083,0.031,0.175,0.037,0.262,0.023l1.073-0.175l1.425-0.233l1.073-0.175
		c0.087-0.014,0.172-0.049,0.241-0.105c1.2-0.985-0.101-1.944-0.101-1.944c-1.197-0.934-1.609-3.192-1.738-4.232
		c-0.009-0.072,1.65-0.334,2.514-0.325c1.899-0.31,3.2-2.118,2.89-4.017l0,0C44.806,16.126,43.723,15.009,41.133,14.742z"/>
	<path style="fill:#D7CC56;" d="M9.762,32.368c-2.304,1.199-4.261,2.969-5.685,5.141c-1.169,2.124-1.092,3.72-0.249,4.942l0,0
		c1.291,1.428,3.515,1.539,4.942,0.249c0.555-0.71,1.852-1.89,1.905-1.836c0.732,0.75,2.239,2.481,2.222,3.999
		c0,0-0.063,1.615,1.456,1.292c0.087-0.018,0.167-0.063,0.233-0.123l0.806-0.729l1.071-0.968l0.806-0.729
		c0.066-0.059,0.118-0.135,0.145-0.219c0.474-1.478-1.139-1.578-1.139-1.578c-1.513-0.136-3.083-1.809-3.756-2.613
		c-0.047-0.056,1.205-1.176,1.936-1.637c1.428-1.291,1.539-3.515,0.249-4.942l0,0C13.598,31.539,12.082,31.187,9.762,32.368z"/>
	<path style="fill:#D7CC56;" d="M23.937,20.186c2.405,0.981,4.517,2.563,6.136,4.594c1.36,2.007,1.431,3.604,0.704,4.898l0,0
		c-1.153,1.541-3.358,1.857-4.898,0.704c-0.619-0.656-2.019-1.711-2.066-1.652c-0.659,0.814-2.001,2.677-1.844,4.187
		c0,0,0.212,1.602-1.33,1.421c-0.088-0.01-0.172-0.048-0.243-0.101l-0.87-0.652L18.37,32.72l-0.87-0.652
		c-0.071-0.053-0.13-0.123-0.165-0.205c-0.608-1.428,0.989-1.677,0.989-1.677c1.494-0.275,2.903-2.086,3.499-2.948
		c0.041-0.06-1.309-1.059-2.079-1.451c-1.541-1.153-1.857-3.358-0.704-4.898l0,0C20.041,19.715,21.518,19.225,23.937,20.186z"/>
	<path style="fill:#F9EA80;" d="M2.591,19.698c1.623-1.332,3.561-2.225,5.628-2.595c1.95-0.194,3.113,0.37,3.754,1.385l0,0
		c0.652,1.413,0.028,3.103-1.385,3.754c-0.705,0.187-1.994,0.777-1.97,0.833c0.325,0.782,1.133,2.453,2.268,2.923
		c0,0,1.221,0.466,0.498,1.493c-0.041,0.058-0.1,0.104-0.165,0.134l-0.798,0.368l-1.06,0.489L8.563,28.85
		c-0.065,0.03-0.138,0.045-0.209,0.038c-1.25-0.117-0.812-1.348-0.812-1.348c0.38-1.168-0.366-2.867-0.75-3.623
		c-0.027-0.053-1.257,0.523-1.832,0.919c-1.413,0.652-3.103,0.028-3.754-1.385l0,0C0.756,22.288,0.976,21.049,2.591,19.698z"/>
	<path style="fill:#F9EA80;" d="M33.8,32.815c2.086,0.243,4.074,1.017,5.776,2.248c1.494,1.268,1.896,2.497,1.611,3.663l0,0
		c-0.564,1.45-2.213,2.175-3.663,1.611c-0.624-0.377-1.944-0.895-1.968-0.839c-0.337,0.777-0.978,2.519-0.528,3.661
		c0,0,0.512,1.202-0.728,1.395c-0.071,0.011-0.144,0-0.211-0.026l-0.819-0.319l-1.088-0.423l-0.819-0.319
		c-0.067-0.026-0.128-0.068-0.173-0.124c-0.784-0.981,0.406-1.52,0.406-1.52c1.104-0.538,1.809-2.255,2.086-3.055
		c0.019-0.056-1.249-0.542-1.934-0.68c-1.45-0.564-2.175-2.213-1.611-3.663l0,0C30.662,33.292,31.707,32.59,33.8,32.815z"/>
</g>
<g>
</g>
<g>
</g>
<g>
</g>
<g>
</g>
<g>
</g>
<g>
</g>
<g>
</g>
<g>
</g>
<g>
</g>
<g>
</g>
<g>
</g>
<g>
</g>
<g>
</g>
<g>
</g>
<g>
</g>
</svg>
