<?xml version="1.0" encoding="iso-8859-1"?>
<!-- Generator: Adobe Illustrator 18.0.0, SVG Export Plug-In . SVG Version: 6.00 Build 0)  -->
<!DOCTYPE svg PUBLIC "-//W3C//DTD SVG 1.1//EN" "http://www.w3.org/Graphics/SVG/1.1/DTD/svg11.dtd">
<svg version="1.1" id="Capa_1" xmlns="http://www.w3.org/2000/svg" xmlns:xlink="http://www.w3.org/1999/xlink" x="0px" y="0px"
	 viewBox="0 0 46 46" style="enable-background:new 0 0 46 46;" xml:space="preserve">
<g>
	<path style="fill:#F9DA49;" d="M33,6.422V6c1.1,0,2-0.9,2-2V2c0-1.1-0.9-2-2-2h-9h-3h-9c-1.1,0-2,0.9-2,2v2c0,1.1,0.9,2,2,2h1
		v0.422c0,3.89-7,1.828-7,9v22.194C6,42.247,9.753,46,14.383,46H23h8.617C36.247,46,40,42.247,40,37.617V15.422
		C40,8.25,33,10.313,33,6.422z"/>
	<path style="fill:#38454F;" d="M33,0h-9h-3h-9c-1.1,0-2,0.9-2,2v2c0,1.1,0.9,2,2,2h9h3h9c1.1,0,2-0.9,2-2V2C35,0.9,34.1,0,33,0z"/>
	<rect x="6" y="17" style="fill:#F9EA80;" width="34" height="21"/>
	<path style="fill:#DC9628;" d="M18.5,35c-4.136,0-7.5-3.364-7.5-7.5s3.364-7.5,7.5-7.5c0.553,0,1,0.447,1,1s-0.447,1-1,1
		c-3.032,0-5.5,2.468-5.5,5.5s2.468,5.5,5.5,5.5c0.553,0,1,0.447,1,1S19.053,35,18.5,35z"/>
	<path style="fill:#DC9628;" d="M27.5,35c-0.553,0-1-0.447-1-1s0.447-1,1-1c3.032,0,5.5-2.468,5.5-5.5S30.532,22,27.5,22
		c-0.553,0-1-0.447-1-1s0.447-1,1-1c4.136,0,7.5,3.364,7.5,7.5S31.636,35,27.5,35z"/>
</g>
<g>
</g>
<g>
</g>
<g>
</g>
<g>
</g>
<g>
</g>
<g>
</g>
<g>
</g>
<g>
</g>
<g>
</g>
<g>
</g>
<g>
</g>
<g>
</g>
<g>
</g>
<g>
</g>
<g>
</g>
</svg>
