<?xml version="1.0" encoding="iso-8859-1"?>
<!-- Generator: Adobe Illustrator 18.0.0, SVG Export Plug-In . SVG Version: 6.00 Build 0)  -->
<!DOCTYPE svg PUBLIC "-//W3C//DTD SVG 1.1//EN" "http://www.w3.org/Graphics/SVG/1.1/DTD/svg11.dtd">
<svg version="1.1" id="Capa_1" xmlns="http://www.w3.org/2000/svg" xmlns:xlink="http://www.w3.org/1999/xlink" x="0px" y="0px"
	 viewBox="0 0 55.171 55.171" style="enable-background:new 0 0 55.171 55.171;" xml:space="preserve">
<g>
	<path style="fill:#F1B501;" d="M10.328,7.986l1.417,1.629c1.401,2.111,3.872,2.715,6.089,1.489l2.009-0.791l-1.417-1.629
		c-1.401-2.111-3.872-2.715-6.089-1.489L10.328,7.986z"/>
	<path style="fill:#F1B501;" d="M13.143,18.249l2.138,0.296c2.443,0.671,4.703-0.499,5.567-2.88l0.994-1.917l-2.138-0.296
		c-2.443-0.671-4.703,0.499-5.567,2.88L13.143,18.249z"/>
	<path style="fill:#F1B501;" d="M19.96,23.868l2.017-0.771c2.464-0.59,3.881-2.703,3.491-5.206l-0.053-2.158l-2.017,0.771
		c-2.464,0.59-3.881,2.703-3.491,5.206L19.96,23.868z"/>
	<path style="fill:#F1B501;" d="M23.239,26.907l2.154-0.144c2.528,0.16,4.504-1.444,4.866-3.951l0.584-2.078l-2.154,0.144
		c-2.528-0.16-4.504,1.444-4.866,3.951L23.239,26.907z"/>
	<path style="fill:#F1B501;" d="M23.843,31.922l2.104,0.485c2.374,0.885,4.729-0.078,5.802-2.374l1.16-1.821l-2.104-0.485
		c-2.374-0.885-4.729,0.078-5.802,2.374L23.843,31.922z"/>
	<path style="fill:#F1B501;" d="M22.182,37.982l1.944,0.938c2.119,1.388,4.629,0.969,6.183-1.032l1.534-1.519l-1.944-0.938
		c-2.119-1.388-4.629-0.969-6.183,1.032L22.182,37.982z"/>
	<path style="fill:#F1B501;" d="M22.84,0l-1.041,1.891C20.3,3.934,20.585,6.462,22.5,8.12l1.435,1.613l1.041-1.891
		c1.499-2.042,1.215-4.571-0.701-6.229L22.84,0z"/>
	<path style="fill:#F1B501;" d="M32.775,2.989l-1.907,1.013c-2.373,0.888-3.519,3.16-2.825,5.596l0.318,2.135l1.907-1.013
		c2.373-0.888,3.519-3.16,2.825-5.596L32.775,2.989z"/>
	<path style="fill:#F1B501;" d="M39.843,10.001L37.69,9.843c-2.481-0.512-4.661,0.8-5.371,3.232l-0.868,1.976l2.153,0.158
		c2.481,0.512,4.661-0.8,5.371-3.232L39.843,10.001z"/>
	<path style="fill:#F1B501;" d="M43.658,16.899l-2.077-0.589c-2.327-1.002-4.727-0.156-5.912,2.083l-1.249,1.761l2.077,0.589
		c2.327,1.002,4.727,0.156,5.912-2.083L43.658,16.899z"/>
	<path style="fill:#F1B501;" d="M44.843,24.438l-1.719-1.306c-1.801-1.781-4.344-1.869-6.265-0.217l-1.805,1.184l1.719,1.306
		c1.801,1.781,4.344,1.869,6.265,0.217L44.843,24.438z"/>
	<path style="fill:#F1B501;" d="M44.714,32.62l-1.357-1.679c-1.324-2.16-3.772-2.853-6.032-1.706l-2.036,0.719l1.357,1.679
		c1.324,2.16,3.772,2.853,6.032,1.706L44.714,32.62z"/>
	<path style="fill:#F1B501;" d="M42.459,41.733l-0.588-2.077c-0.368-2.507-2.346-4.107-4.874-3.941l-2.154-0.14l0.588,2.077
		c0.368,2.507,2.346,4.107,4.874,3.941L42.459,41.733z"/>
	<path style="fill:#F1B501;" d="M38.659,49.733l0.1-2.156c0.445-2.494-0.925-4.638-3.375-5.282l-1.999-0.815l-0.1,2.156
		c-0.445,2.494,0.925,4.638,3.375,5.282L38.659,49.733z"/>
	<path style="fill:#F4C44E;" d="M12.679,55.171c-0.471,0-0.89-0.333-0.981-0.813c-0.104-0.543,0.253-1.066,0.795-1.17
		c12.534-2.393,20.825-12.461,20.631-25.056c-0.115-7.478-4.78-14.09-11.607-16.454c-0.522-0.182-0.799-0.751-0.618-1.272
		c0.182-0.522,0.75-0.799,1.272-0.618c7.619,2.64,12.825,9.999,12.953,18.313c0.21,13.6-8.734,24.471-22.256,27.052
		C12.804,55.165,12.741,55.171,12.679,55.171z"/>
</g>
<g>
</g>
<g>
</g>
<g>
</g>
<g>
</g>
<g>
</g>
<g>
</g>
<g>
</g>
<g>
</g>
<g>
</g>
<g>
</g>
<g>
</g>
<g>
</g>
<g>
</g>
<g>
</g>
<g>
</g>
</svg>
