<?xml version="1.0" encoding="iso-8859-1"?>
<!-- Generator: Adobe Illustrator 18.0.0, SVG Export Plug-In . SVG Version: 6.00 Build 0)  -->
<!DOCTYPE svg PUBLIC "-//W3C//DTD SVG 1.1//EN" "http://www.w3.org/Graphics/SVG/1.1/DTD/svg11.dtd">
<svg version="1.1" id="Capa_1" xmlns="http://www.w3.org/2000/svg" xmlns:xlink="http://www.w3.org/1999/xlink" x="0px" y="0px"
	 viewBox="0 0 53.501 53.501" style="enable-background:new 0 0 53.501 53.501;" xml:space="preserve">
<g>
	<path style="fill:#F9D70B;" d="M52.501,32.753c-0.553,0-1-0.447-1-1v-4c0-0.553,0.447-1,1-1s1,0.447,1,1v4
		C53.501,32.306,53.053,32.753,52.501,32.753z"/>
	<path style="fill:#F9D70B;" d="M52.501,38.753c-0.553,0-1-0.447-1-1v-2c0-0.553,0.447-1,1-1s1,0.447,1,1v2
		C53.501,38.306,53.053,38.753,52.501,38.753z"/>
	<path style="fill:#F9D70B;" d="M52.501,43.753c-0.553,0-1-0.447-1-1v-1c0-0.553,0.447-1,1-1s1,0.447,1,1v1
		C53.501,43.306,53.053,43.753,52.501,43.753z"/>
	<path style="fill:#F9D70B;" d="M52.501,47.749c-0.26,0-0.521-0.1-0.71-0.29c-0.181-0.18-0.29-0.439-0.29-0.71
		c0-0.26,0.109-0.52,0.3-0.71c0.35-0.359,1.04-0.37,1.41,0.01c0.18,0.181,0.29,0.44,0.29,0.7c0,0.271-0.11,0.53-0.29,0.71
		C53.02,47.65,52.76,47.749,52.501,47.749z"/>
	<g>
		<path style="fill:#DAE7EF;" d="M50.11,23.295l2.121-2.121l-7.778-7.778l-4.95-4.95l-3.308-3.308
			c-4.048-4.048-10.59-4.593-14.999-0.942c-5.06,4.189-5.322,11.734-0.785,16.271l2.828,2.828l-0.393,0.393
			c-5.932-3.362-13.66-2.377-18.519,2.989c-5.115,5.65-5.102,14.501,0.028,20.137c5.804,6.376,15.685,6.55,21.712,0.523
			c4.877-4.877,5.679-12.27,2.435-17.992l6.101-6.101c4.221-4.221,11.079-4.312,15.33-0.122
			C49.994,23.179,50.052,23.236,50.11,23.295z M27.912,21.452c-0.237,0.237-0.62,0.237-0.857,0l-3.814-3.814
			c-2.944-2.944-2.713-7.878,0.693-10.509c2.815-2.175,6.863-1.733,9.378,0.782l3.642,3.642c0.237,0.237,0.237,0.62,0,0.857
			L27.912,21.452z"/>
		<path style="fill:#BBD7EA;" d="M15.473,52.23c-0.126,0-0.251-0.001-0.377-0.004c-4.275-0.101-8.221-1.903-11.109-5.075
			c-5.305-5.827-5.317-14.968-0.029-20.81c4.597-5.076,11.786-6.516,17.904-3.718l-1.804-1.804
			c-2.281-2.281-3.502-5.442-3.351-8.675c0.154-3.275,1.635-6.235,4.17-8.334c4.51-3.732,11.394-3.304,15.672,0.974l16.39,16.389
			l-2.832,2.832l-0.466-0.472c-4.084-4.024-10.646-3.972-14.682,0.063l-5.836,5.836c3.2,5.986,2.114,13.441-2.701,18.257
			C23.486,50.626,19.61,52.23,15.473,52.23z M15.43,22.218c-3.977,0-7.885,1.651-10.73,4.795
			c-4.947,5.464-4.936,14.014,0.027,19.464c2.702,2.969,6.394,4.655,10.393,4.749c4.029,0.097,7.765-1.412,10.596-4.243
			c4.589-4.589,5.557-11.74,2.354-17.392l-0.188-0.331l6.371-6.37c4.362-4.363,11.42-4.477,15.854-0.299l1.418-1.418L35.842,5.491
			C31.924,1.574,25.634,1.174,21.515,4.58c-2.315,1.918-3.668,4.621-3.809,7.611c-0.139,2.951,0.977,5.839,3.059,7.921l3.184,3.183
			l-1.018,1.015l-0.33-0.188C20.339,22.84,17.871,22.218,15.43,22.218z M27.483,22.128c-0.283,0-0.566-0.106-0.781-0.321
			l-3.814-3.815c-1.522-1.521-2.316-3.63-2.179-5.785c0.138-2.151,1.202-4.146,2.92-5.473c2.962-2.29,7.277-1.936,10.037,0.823
			l3.642,3.643c0.209,0.208,0.324,0.486,0.324,0.782c0,0.295-0.115,0.573-0.325,0.782l-9.042,9.043
			C28.049,22.022,27.766,22.128,27.483,22.128z M28.097,6.226c-1.371,0-2.729,0.427-3.857,1.299
			c-1.513,1.169-2.412,2.854-2.533,4.745c-0.119,1.868,0.568,3.696,1.888,5.015l3.813,3.814c0.04,0.04,0.106,0.042,0.15,0
			l9.042-9.043v-0.149l-3.642-3.643C31.612,6.917,29.843,6.226,28.097,6.226z"/>
	</g>
	<path style="fill:#FFFFFF;" d="M14.048,46.523c-2.805,0-5.441-1.092-7.425-3.075c-0.391-0.391-0.391-1.023,0-1.414
		s1.023-0.391,1.414,0c3.314,3.315,8.706,3.313,12.021,0c0.391-0.391,1.023-0.391,1.414,0s0.391,1.023,0,1.414
		C19.489,45.431,16.852,46.523,14.048,46.523z"/>
</g>
<g>
</g>
<g>
</g>
<g>
</g>
<g>
</g>
<g>
</g>
<g>
</g>
<g>
</g>
<g>
</g>
<g>
</g>
<g>
</g>
<g>
</g>
<g>
</g>
<g>
</g>
<g>
</g>
<g>
</g>
</svg>
