<?xml version="1.0" encoding="iso-8859-1"?>
<!-- Generator: Adobe Illustrator 18.0.0, SVG Export Plug-In . SVG Version: 6.00 Build 0)  -->
<!DOCTYPE svg PUBLIC "-//W3C//DTD SVG 1.1//EN" "http://www.w3.org/Graphics/SVG/1.1/DTD/svg11.dtd">
<svg version="1.1" id="Capa_1" xmlns="http://www.w3.org/2000/svg" xmlns:xlink="http://www.w3.org/1999/xlink" x="0px" y="0px"
	 viewBox="0 0 53.308 53.308" style="enable-background:new 0 0 53.308 53.308;" xml:space="preserve">
<g>
	<path style="fill:#436B1C;" d="M39.685,3.179c-7.524,0-13.623,6.099-13.623,13.623c0,2.243,0.552,4.353,1.512,6.219
		c1.496-0.565,3.11-0.888,4.804-0.888c5.281,0,9.851,3.011,12.111,7.404c5.15-1.944,8.819-6.905,8.819-12.735
		C53.308,9.278,47.208,3.179,39.685,3.179z"/>
	<g>
		<path style="fill:#D13834;" d="M40.308,11.579c-1.657,0-3-0.94-3-2.1s1.343-2.1,3-2.1s3,0.94,3,2.1"/>
		<path style="fill:#659C35;" d="M40.308,12.579c-2.243,0-4-1.361-4-3.1s1.757-3.1,4-3.1s4,1.362,4,3.1c0,0.552-0.447,1-1,1
			s-1-0.448-1-1c0-0.52-0.855-1.1-2-1.1s-2,0.581-2,1.1c0,0.519,0.855,1.1,2,1.1c0.553,0,1,0.448,1,1S40.86,12.579,40.308,12.579z"
			/>
	</g>
	<path style="fill:#659C35;" d="M18.754,35.756c0-5.652,3.443-10.499,8.345-12.561c-0.927-6.622-6.598-11.723-13.475-11.723
		C6.099,11.471,0,17.57,0,25.094c0,7.524,6.099,13.623,13.623,13.623c1.872,0,3.655-0.379,5.279-1.062
		C18.814,37.033,18.754,36.402,18.754,35.756z"/>
	<g>
		<path style="fill:#ED3F32;" d="M14.308,20.979c-1.657,0-3-0.94-3-2.1s1.343-2.1,3-2.1s3,0.94,3,2.1"/>
		<path style="fill:#436B1C;" d="M14.308,21.979c-2.243,0-4-1.362-4-3.1s1.757-3.1,4-3.1s4,1.362,4,3.1c0,0.552-0.447,1-1,1
			s-1-0.448-1-1c0-0.52-0.855-1.1-2-1.1s-2,0.581-2,1.1s0.855,1.1,2,1.1c0.553,0,1,0.448,1,1S14.86,21.979,14.308,21.979z"/>
	</g>
	<circle style="fill:#88C057;" cx="32.577" cy="35.756" r="14.373"/>
	<path style="fill:#A4E869;" d="M23.611,40.217c-0.412,0-0.798-0.257-0.942-0.667c-0.403-1.14-0.607-2.333-0.607-3.548
		c0-0.552,0.447-1,1-1s1,0.448,1,1c0,0.987,0.166,1.957,0.492,2.882c0.185,0.521-0.089,1.092-0.609,1.276
		C23.834,40.199,23.722,40.217,23.611,40.217z"/>
	<path style="fill:#A4E869;" d="M32.683,46.625c-3.072,0-5.993-1.331-8.015-3.653c-0.363-0.417-0.319-1.048,0.097-1.411
		c0.415-0.362,1.049-0.321,1.411,0.097c1.642,1.885,4.014,2.966,6.507,2.966c0.001,0,0.001,0,0.001,0c0.553,0,1.001,0.448,1.001,1
		s-0.447,1-1,1C32.685,46.625,32.684,46.625,32.683,46.625z"/>
	<g>
		<path style="fill:#ED3F32;" d="M33.308,30.579c-1.657,0-3-0.94-3-2.1s1.343-2.1,3-2.1c1.657,0,3,0.94,3,2.1"/>
		<path style="fill:#659C35;" d="M33.308,31.579c-2.243,0-4-1.361-4-3.1s1.757-3.1,4-3.1s4,1.362,4,3.1c0,0.552-0.447,1-1,1
			s-1-0.448-1-1c0-0.52-0.855-1.1-2-1.1s-2,0.581-2,1.1c0,0.519,0.855,1.1,2,1.1c0.553,0,1,0.448,1,1S33.86,31.579,33.308,31.579z"
			/>
	</g>
</g>
<g>
</g>
<g>
</g>
<g>
</g>
<g>
</g>
<g>
</g>
<g>
</g>
<g>
</g>
<g>
</g>
<g>
</g>
<g>
</g>
<g>
</g>
<g>
</g>
<g>
</g>
<g>
</g>
<g>
</g>
</svg>
