<?xml version="1.0" encoding="iso-8859-1"?>
<!-- Generator: Adobe Illustrator 18.0.0, SVG Export Plug-In . SVG Version: 6.00 Build 0)  -->
<!DOCTYPE svg PUBLIC "-//W3C//DTD SVG 1.1//EN" "http://www.w3.org/Graphics/SVG/1.1/DTD/svg11.dtd">
<svg version="1.1" id="Capa_1" xmlns="http://www.w3.org/2000/svg" xmlns:xlink="http://www.w3.org/1999/xlink" x="0px" y="0px"
	 viewBox="0 0 55.6 55.6" style="enable-background:new 0 0 55.6 55.6;" xml:space="preserve">
<g>
	<path style="fill:#A5A5A5;" d="M24.1,54.2c-0.256,0-0.512-0.098-0.707-0.293c-0.391-0.391-0.391-1.023,0-1.414l4.2-4.2
		c0.391-0.391,1.023-0.391,1.414,0s0.391,1.023,0,1.414l-4.2,4.2C24.612,54.102,24.356,54.2,24.1,54.2z"/>
	<path style="fill:#A5A5A5;" d="M28.3,55.6c-0.553,0-1-0.448-1-1V49c0-0.552,0.447-1,1-1s1,0.448,1,1v5.6
		C29.3,55.152,28.853,55.6,28.3,55.6z"/>
	<path style="fill:#A5A5A5;" d="M32.5,54.2c-0.256,0-0.512-0.098-0.707-0.293l-4.2-4.2c-0.391-0.391-0.391-1.023,0-1.414
		s1.023-0.391,1.414,0l4.2,4.2c0.391,0.391,0.391,1.023,0,1.414C33.012,54.102,32.756,54.2,32.5,54.2z"/>
	<path style="fill:#A5A5A5;" d="M35.301,51.4c-0.065,0-0.131-0.006-0.197-0.02l-7-1.4c-0.541-0.108-0.893-0.635-0.784-1.177
		c0.107-0.541,0.628-0.894,1.177-0.784l7,1.4c0.541,0.108,0.893,0.635,0.784,1.177C36.186,51.071,35.768,51.4,35.301,51.4z"/>
	<path style="fill:#A5A5A5;" d="M21.299,51.167c-0.48,0-0.904-0.347-0.985-0.835c-0.091-0.545,0.277-1.06,0.822-1.151l7-1.167
		c0.547-0.092,1.061,0.277,1.15,0.822c0.091,0.545-0.277,1.06-0.822,1.151l-7,1.167C21.409,51.162,21.354,51.167,21.299,51.167z"/>
	<path style="fill:#E9D3EA;" d="M29.3,6.076V0l-4,2v4.157C14.369,7.425,5.933,16.879,6.312,28.236
		c0.366,10.957,9.166,20.038,20.108,20.721C38.92,49.737,49.3,39.831,49.3,27.5C49.3,16.132,40.471,6.849,29.3,6.076z"/>
	<path style="fill:#9777A8;" d="M28.3,50.203c-0.103,0-0.207-0.016-0.311-0.05c-6.107-1.993-11.777-7.503-14.442-14.04
		c-2.516-6.167-2.23-12.764,0.803-18.576c0.256-0.489,0.856-0.68,1.35-0.424c0.489,0.256,0.679,0.86,0.424,1.349
		c-3.533,6.771-2.344,12.925-0.725,16.896c2.453,6.015,7.639,11.076,13.212,12.894c0.524,0.171,0.812,0.736,0.641,1.261
		C29.114,49.935,28.721,50.203,28.3,50.203z"/>
	<path style="fill:#9777A8;" d="M28.3,50.203c-0.421,0-0.813-0.268-0.951-0.69c-0.171-0.525,0.116-1.089,0.641-1.261
		c5.573-1.818,10.759-6.879,13.212-12.894c1.619-3.971,2.809-10.125-0.725-16.896c-0.255-0.489-0.065-1.093,0.424-1.349
		c0.492-0.256,1.095-0.065,1.35,0.424c3.033,5.812,3.318,12.409,0.803,18.576c-2.665,6.536-8.335,12.047-14.442,14.04
		C28.507,50.187,28.403,50.203,28.3,50.203z"/>
	<path style="fill:#9777A8;" d="M28.798,50.203c-0.169,0-0.34-0.042-0.497-0.133c-6.508-3.739-11.477-21.408-7.641-34.354
		c0.156-0.529,0.713-0.83,1.243-0.675c0.529,0.157,0.831,0.713,0.675,1.243c-3.802,12.831,1.498,29.052,6.719,32.051
		c0.479,0.275,0.645,0.886,0.369,1.365C29.482,50.023,29.145,50.203,28.798,50.203z"/>
	<path style="fill:#9777A8;" d="M27.802,50.203c-0.347,0-0.684-0.18-0.868-0.502c-0.275-0.479-0.109-1.09,0.369-1.365
		c5.221-2.999,10.521-19.22,6.719-32.051c-0.156-0.53,0.146-1.086,0.675-1.243c0.53-0.156,1.087,0.146,1.243,0.675
		c3.836,12.946-1.133,30.615-7.641,34.354C28.142,50.16,27.971,50.203,27.802,50.203z"/>
	<path style="fill:#9777A8;" d="M28.3,50c-0.553,0-1-0.448-1-1V12c0-0.552,0.447-1,1-1s1,0.448,1,1v37
		C29.3,49.552,28.853,50,28.3,50z"/>
</g>
<g>
</g>
<g>
</g>
<g>
</g>
<g>
</g>
<g>
</g>
<g>
</g>
<g>
</g>
<g>
</g>
<g>
</g>
<g>
</g>
<g>
</g>
<g>
</g>
<g>
</g>
<g>
</g>
<g>
</g>
</svg>
