<?xml version="1.0" encoding="iso-8859-1"?>
<!-- Generator: Adobe Illustrator 18.0.0, SVG Export Plug-In . SVG Version: 6.00 Build 0)  -->
<!DOCTYPE svg PUBLIC "-//W3C//DTD SVG 1.1//EN" "http://www.w3.org/Graphics/SVG/1.1/DTD/svg11.dtd">
<svg version="1.1" id="Capa_1" xmlns="http://www.w3.org/2000/svg" xmlns:xlink="http://www.w3.org/1999/xlink" x="0px" y="0px"
	 viewBox="0 0 56 56" style="enable-background:new 0 0 56 56;" xml:space="preserve">
<g>
	<path style="fill:#A46F3E;" d="M23.8,51.93c-0.256,0-0.512-0.098-0.707-0.293c-0.391-0.391-0.391-1.023,0-1.414l4.2-4.2
		c0.391-0.391,1.023-0.391,1.414,0s0.391,1.023,0,1.414l-4.2,4.2C24.312,51.832,24.056,51.93,23.8,51.93z"/>
	<path style="fill:#A46F3E;" d="M28,53.33c-0.552,0-1-0.448-1-1v-5.6c0-0.552,0.448-1,1-1s1,0.448,1,1v5.6
		C29,52.882,28.552,53.33,28,53.33z"/>
	<path style="fill:#A46F3E;" d="M32.2,51.93c-0.256,0-0.512-0.098-0.707-0.293l-4.2-4.2c-0.391-0.391-0.391-1.023,0-1.414
		s1.023-0.391,1.414,0l4.2,4.2c0.391,0.391,0.391,1.023,0,1.414C32.712,51.832,32.456,51.93,32.2,51.93z"/>
	<path style="fill:#A46F3E;" d="M35.001,49.129c-0.065,0-0.131-0.006-0.197-0.02l-7-1.4c-0.542-0.108-0.893-0.635-0.784-1.177
		c0.108-0.541,0.633-0.893,1.177-0.784l7,1.4c0.542,0.108,0.893,0.635,0.784,1.177C35.886,48.801,35.468,49.129,35.001,49.129z"/>
	<path style="fill:#A46F3E;" d="M20.999,49.013c-0.48,0-0.904-0.347-0.985-0.835c-0.091-0.545,0.277-1.06,0.822-1.151l7-1.167
		c0.549-0.092,1.06,0.278,1.151,0.822c0.091,0.545-0.277,1.06-0.822,1.151l-7,1.167C21.109,49.008,21.053,49.013,20.999,49.013z"/>
	<path style="fill:#962F34;" d="M46.745,21.529C33.337,14.354,31,2.67,31,2.67h-3h-3c0,0-2.337,11.683-15.745,18.859
		C3.573,24.275,0,28.249,0,32.67c0,7.557,10.431,13.428,24,14.468c3.11,0.238,4.853,0.246,8,0.067c14.053-0.802,24-6.793,24-14.535
		C56,28.249,52.427,24.275,46.745,21.529z"/>
	<path style="fill:#7C2832;" d="M28.643,47.389C36.548,45.868,44.457,39.478,45,31.755c0.188-2.667-0.479-5.583-3-8
		c-2.864-2.745-2.658-2.464-4.17-3.976c-3.759-3.759-6.367-8.556-7.83-12.713c-1.78-5.057-2.22-5.057-4,0
		c-1.463,4.157-4.072,8.954-7.83,12.713c-1.512,1.512-1.306,1.23-4.17,3.976c-2.521,2.417-3.188,5.333-3,8
		c0.543,7.722,8.452,14.113,16.357,15.634H28.643z"/>
	<path style="fill:#A0444D;" d="M28.236,47.33c3.263-0.812,6.528-6.28,6.752-14.096c0.077-2.699-0.198-5.651-1.238-8.097
		c-1.182-2.779-1.097-2.494-1.721-4.024c-0.572-1.401-1.065-2.945-1.49-4.547c-4.566-17.193-0.569-17.193-5.135,0
		c-0.425,1.602-0.919,3.146-1.49,4.547c-0.624,1.53-0.539,1.245-1.721,4.024c-1.041,2.446-1.316,5.398-1.238,8.097
		c0.224,7.816,3.489,13.284,6.752,14.096H28.236z"/>
</g>
<g>
</g>
<g>
</g>
<g>
</g>
<g>
</g>
<g>
</g>
<g>
</g>
<g>
</g>
<g>
</g>
<g>
</g>
<g>
</g>
<g>
</g>
<g>
</g>
<g>
</g>
<g>
</g>
<g>
</g>
</svg>
