<?xml version="1.0" encoding="iso-8859-1"?>
<!-- Generator: Adobe Illustrator 18.0.0, SVG Export Plug-In . SVG Version: 6.00 Build 0)  -->
<!DOCTYPE svg PUBLIC "-//W3C//DTD SVG 1.1//EN" "http://www.w3.org/Graphics/SVG/1.1/DTD/svg11.dtd">
<svg version="1.1" id="Capa_1" xmlns="http://www.w3.org/2000/svg" xmlns:xlink="http://www.w3.org/1999/xlink" x="0px" y="0px"
	 viewBox="0 0 53.669 53.669" style="enable-background:new 0 0 53.669 53.669;" xml:space="preserve">
<g>
	<path style="fill:#546A79;" d="M28.324,31.929l-2.569-2.569c-0.462-0.462-0.462-1.211,0-1.674L48.551,4.89
		c1.167-1.167,3.076-1.167,4.243,0l0,0c1.167,1.167,1.167,3.076,0,4.243L29.997,31.929C29.535,32.392,28.786,32.392,28.324,31.929z"
		/>
	<path style="fill:#FAF5E5;" d="M35.92,33.848L23.828,21.756c-0.369-0.369-0.967-0.37-1.338-0.002L0,44.089l0,0
		c7.42,7.42,19.45,7.42,26.87,0l9.044-8.895C36.29,34.825,36.292,34.22,35.92,33.848z"/>
	<polygon style="fill:#7092A0;" points="45.21,16.717 46.79,15.136 40.426,13.015 38.846,14.596 	"/>
	<polygon style="fill:#7092A0;" points="42.244,19.682 43.825,18.102 37.461,15.98 35.881,17.561 	"/>
</g>
<g>
</g>
<g>
</g>
<g>
</g>
<g>
</g>
<g>
</g>
<g>
</g>
<g>
</g>
<g>
</g>
<g>
</g>
<g>
</g>
<g>
</g>
<g>
</g>
<g>
</g>
<g>
</g>
<g>
</g>
</svg>
