<?xml version="1.0" encoding="iso-8859-1"?>
<!-- Generator: Adobe Illustrator 18.0.0, SVG Export Plug-In . SVG Version: 6.00 Build 0)  -->
<!DOCTYPE svg PUBLIC "-//W3C//DTD SVG 1.1//EN" "http://www.w3.org/Graphics/SVG/1.1/DTD/svg11.dtd">
<svg version="1.1" id="Capa_1" xmlns="http://www.w3.org/2000/svg" xmlns:xlink="http://www.w3.org/1999/xlink" x="0px" y="0px"
	 viewBox="0 0 56.365 56.365" style="enable-background:new 0 0 56.365 56.365;" xml:space="preserve">
<g>
	<path style="fill:#D75A4A;" d="M31.238,13.731c-1.541,1.541-5.104,1.827-5.978,0.93c-0.808-0.808-0.611-4.437,0.93-5.978
		c1.541-1.541,3.375-1.408,4.915,0.133S32.779,12.191,31.238,13.731z"/>
	<rect x="7.365" y="50.354" style="fill:#C9C9C9;" width="41" height="2.814"/>
	<path style="fill:#E6E6E6;" d="M51.254,50.354H4.365c-0.169,0-0.33-0.067-0.45-0.186l-3.728-4.914
		c-0.401-0.401-0.117-1.086,0.45-1.086h55.091c0.595,0,0.864,0.744,0.407,1.125l-4.474,4.914
		C51.547,50.302,51.403,50.354,51.254,50.354z"/>
	<path style="fill:#231F20;" d="M20.365,42.168c-2.206,0-4-1.794-4-4s1.794-4,4-4s4,1.794,4,4S22.571,42.168,20.365,42.168z
		 M20.365,36.168c-1.103,0-2,0.897-2,2s0.897,2,2,2s2-0.897,2-2S21.468,36.168,20.365,36.168z"/>
	<path style="fill:#231F20;" d="M20.365,42.168c-2.206,0-4-1.794-4-4s1.794-4,4-4s4,1.794,4,4S22.571,42.168,20.365,42.168z
		 M20.365,36.168c-1.103,0-2,0.897-2,2s0.897,2,2,2s2-0.897,2-2S21.468,36.168,20.365,36.168z"/>
	<g>
		<path style="fill:#EEAF4B;" d="M17.365,28.167v-4h-9.5c-1.375,0-2.5,1.125-2.5,2.5s1.125,2.5,2.5,2.5h9.685
			C17.438,28.853,17.365,28.519,17.365,28.167z"/>
		<path style="fill:#EEAF4B;" d="M48.865,24.167H29.18c-0.416,1.16-1.517,2-2.815,2s-2.399-0.84-2.815-2h-0.185v4
			c0,0.352-0.073,0.686-0.185,1h25.685c1.375,0,2.5-1.125,2.5-2.5S50.24,24.167,48.865,24.167z"/>
	</g>
	<g>
		<path style="fill:#FBD490;" d="M17.365,20.167c0,1.65-1.35,3-3,3s-3-1.35-3-3v-1h-3.5c-1.375,0-2.5,1.125-2.5,2.5
			s1.125,2.5,2.5,2.5h9.5V20.167z"/>
		<path style="fill:#FBD490;" d="M48.865,19.167h-19.5v4c0,0.352-0.073,0.686-0.185,1h19.685c1.375,0,2.5-1.125,2.5-2.5
			S50.24,19.167,48.865,19.167z"/>
	</g>
	<path style="fill:#FBD490;" d="M48.865,29.167H23.18c-0.416,1.16-1.517,2-2.815,2s-2.399-0.84-2.815-2H7.865
		c-1.375,0-2.5,1.125-2.5,2.5c0,1.375,1.125,2.5,2.5,2.5h41c1.375,0,2.5-1.125,2.5-2.5C51.365,30.292,50.24,29.167,48.865,29.167z"
		/>
	<path style="fill:#EEAF4B;" d="M48.865,34.167h-41c-1.375,0-2.5,1.125-2.5,2.5s1.125,2.5,2.5,2.5h9.684
		c-0.112-0.314-0.184-0.647-0.184-1c0-1.657,1.343-3,3-3s3,1.343,3,3c0,0.353-0.072,0.686-0.184,1h25.684c1.375,0,2.5-1.125,2.5-2.5
		S50.24,34.167,48.865,34.167z"/>
	<path style="fill:#FBD490;" d="M48.865,39.167H23.182c-0.413,1.163-1.512,2-2.816,2s-2.403-0.837-2.816-2H7.865
		c-1.375,0-2.5,1.125-2.5,2.5s1.125,2.5,2.5,2.5h41c1.375,0,2.5-1.125,2.5-2.5S50.24,39.167,48.865,39.167z"/>
	<path style="fill:#7A3726;" d="M50.365,15.167h-44v4h5v1c0,1.65,1.35,3,3,3s3-1.35,3-3v8c0,1.65,1.35,3,3,3s3-1.35,3-3v-5
		c0,1.65,1.35,3,3,3s3-1.35,3-3v-4h21V15.167z"/>
	<path style="fill:#88C057;" d="M36.365,10.1c-0.256,0-0.512-0.098-0.707-0.293c-0.961-0.961-2.527-0.961-3.488,0
		c-0.391,0.391-1.023,0.391-1.414,0s-0.391-1.023,0-1.414c1.742-1.742,4.574-1.742,6.316,0c0.391,0.391,0.391,1.023,0,1.414
		C36.877,10.003,36.621,10.1,36.365,10.1z"/>
	<path style="fill:#659C35;" d="M31.313,10.1c-0.256,0-0.512-0.098-0.707-0.293c-0.391-0.391-0.391-1.024,0-1.414
		c0.467-0.467,0.724-1.086,0.724-1.744s-0.257-1.277-0.724-1.744c-0.391-0.39-0.391-1.023,0-1.414s1.023-0.391,1.414,0
		c0.845,0.844,1.31,1.966,1.31,3.158s-0.465,2.314-1.31,3.158C31.824,10.003,31.568,10.1,31.313,10.1z"/>
	<circle style="fill:#7A3726;" cx="20.365" cy="38.167" r="3"/>
</g>
<g>
</g>
<g>
</g>
<g>
</g>
<g>
</g>
<g>
</g>
<g>
</g>
<g>
</g>
<g>
</g>
<g>
</g>
<g>
</g>
<g>
</g>
<g>
</g>
<g>
</g>
<g>
</g>
<g>
</g>
</svg>
