<?xml version="1.0" encoding="iso-8859-1"?>
<!-- Generator: Adobe Illustrator 18.0.0, SVG Export Plug-In . SVG Version: 6.00 Build 0)  -->
<!DOCTYPE svg PUBLIC "-//W3C//DTD SVG 1.1//EN" "http://www.w3.org/Graphics/SVG/1.1/DTD/svg11.dtd">
<svg version="1.1" id="Capa_1" xmlns="http://www.w3.org/2000/svg" xmlns:xlink="http://www.w3.org/1999/xlink" x="0px" y="0px"
	 viewBox="0 0 59 59" style="enable-background:new 0 0 59 59;" xml:space="preserve">
<g>
	<path style="fill:#A46F3E;" d="M40.921,47.766c0.473-0.645,0.695-1.485,0.519-2.371C41.157,43.972,39.82,43,38.368,43H20.632
		c-1.451,0-2.789,0.972-3.071,2.395c-0.176,0.886,0.046,1.725,0.519,2.371c0.541,0.739,0.541,1.729,0,2.468
		c-0.473,0.645-0.694,1.484-0.519,2.37C17.843,54.028,19.18,55,20.631,55h17.737c1.451,0,2.789-0.972,3.071-2.395
		c0.176-0.886-0.046-1.725-0.519-2.37C40.38,49.495,40.38,48.505,40.921,47.766z"/>
	<path style="fill:#6A3311;" d="M38.5,55h-18c-1.425,0-2.622-1.009-2.923-2.347c-0.04,0.142-0.077,0.285-0.077,0.431V59h24v-5.916
		c0-0.146-0.037-0.289-0.077-0.431C41.122,53.991,39.925,55,38.5,55z"/>
	<path style="fill:#6A3311;" d="M41.5,16c0-0.745-0.535-1.449-1.47-2.084C38.928,15.188,37.305,16,35.5,16h-12
		c-1.805,0-3.428-0.812-4.53-2.084C18.035,14.551,17.5,15.255,17.5,16v1.375c0,1.66,0.384,3.291,1.052,4.81
		c2.628,5.971,2.583,10.792,0.015,16.609c-0.676,1.531-1.067,3.172-1.067,4.846V44c0,0.281,0.099,0.554,0.244,0.822
		C18.204,43.753,19.268,43,20.5,43h18c1.232,0,2.296,0.753,2.756,1.822C41.401,44.554,41.5,44.281,41.5,44v-0.353
		c0-1.678-0.394-3.323-1.073-4.858c-2.565-5.798-2.607-10.617,0.025-16.609c0.666-1.516,1.047-3.143,1.047-4.799V16z"/>
	<path style="fill:#6A3311;" d="M32.5,5h-6V0h6V5z M28.5,3h2V2h-2V3z"/>
	<path style="fill:#A46F3E;" d="M35.5,16h-12c-3.3,0-6-2.7-6-6v0c0-3.3,2.7-6,6-6h12c3.3,0,6,2.7,6,6v0C41.5,13.3,38.8,16,35.5,16z"
		/>
	<line style="fill:#FAF5E5;" x1="18.5" y1="49" x2="22.5" y2="49"/>
	<path style="fill:#6A3311;" d="M40.773,49.945c-0.31-0.6-0.31-1.29,0-1.89C40.684,48.029,40.597,48,40.5,48h-10
		c-0.552,0-1,0.447-1,1s0.448,1,1,1h10C40.597,50,40.684,49.97,40.773,49.945z"/>
	<path style="fill:#6A3311;" d="M18.5,50h4c0.552,0,1-0.447,1-1s-0.448-1-1-1h-4c-0.097,0-0.184,0.029-0.273,0.055
		c0.31,0.599,0.31,1.29,0,1.89C18.316,49.97,18.403,50,18.5,50z"/>
	<path style="fill:#A46F3E;" d="M27.5,35h-2V24h5c2.206,0,4,1.794,4,4s-1.794,4-4,4h-3V35z M27.5,30h3c1.103,0,2-0.897,2-2
		s-0.897-2-2-2h-3V30z"/>
</g>
<g>
</g>
<g>
</g>
<g>
</g>
<g>
</g>
<g>
</g>
<g>
</g>
<g>
</g>
<g>
</g>
<g>
</g>
<g>
</g>
<g>
</g>
<g>
</g>
<g>
</g>
<g>
</g>
<g>
</g>
</svg>
