<?xml version="1.0" encoding="iso-8859-1"?>
<!-- Generator: Adobe Illustrator 18.0.0, SVG Export Plug-In . SVG Version: 6.00 Build 0)  -->
<!DOCTYPE svg PUBLIC "-//W3C//DTD SVG 1.1//EN" "http://www.w3.org/Graphics/SVG/1.1/DTD/svg11.dtd">
<svg version="1.1" id="Capa_1" xmlns="http://www.w3.org/2000/svg" xmlns:xlink="http://www.w3.org/1999/xlink" x="0px" y="0px"
	 viewBox="0 0 52 52" style="enable-background:new 0 0 52 52;" xml:space="preserve">
<g>
	<path style="fill:#6A3311;" d="M35.24,0c-3.156,0.642-5.657,1.965-7.431,3.992c-1.384,1.581-2.101,3.33-2.47,4.87
		c1.162-0.049,2.329-0.059,3.482-0.06c0.3-0.873,0.766-1.787,1.493-2.618c1.167-1.334,2.829-2.262,4.951-2.79
		C35.292,2.261,35.306,1.117,35.24,0z"/>
	<path style="fill:#A4E869;" d="M26,52L26,52c-6.05,0-11-4.95-11-11V19c0-6.05,4.95-11,11-11h0c6.05,0,11,4.95,11,11v22
		C37,47.05,32.05,52,26,52z"/>
	<path style="fill:#E3E82A;" d="M39,8c-2.43,0-4.674,0.808-6.5,2.156C35.22,12.163,37,15.38,37,19v22c0,3.62-1.78,6.837-4.5,8.844
		C34.326,51.192,36.57,52,39,52c6.05,0,9-4.95,9-11l2-22C50,12.95,45.05,8,39,8z"/>
	<path style="fill:#88C057;" d="M13,8c2.43,0,4.674,0.808,6.5,2.156C16.78,12.163,15,15.38,15,19v22c0,3.62,1.78,6.837,4.5,8.844
		C17.674,51.192,15.43,52,13,52c-6.05,0-9-4.95-9-11L2,19C2,12.95,6.95,8,13,8z"/>
</g>
<g>
</g>
<g>
</g>
<g>
</g>
<g>
</g>
<g>
</g>
<g>
</g>
<g>
</g>
<g>
</g>
<g>
</g>
<g>
</g>
<g>
</g>
<g>
</g>
<g>
</g>
<g>
</g>
<g>
</g>
</svg>
