<?xml version="1.0" encoding="iso-8859-1"?>
<!-- Generator: Adobe Illustrator 18.0.0, SVG Export Plug-In . SVG Version: 6.00 Build 0)  -->
<!DOCTYPE svg PUBLIC "-//W3C//DTD SVG 1.1//EN" "http://www.w3.org/Graphics/SVG/1.1/DTD/svg11.dtd">
<svg version="1.1" id="Capa_1" xmlns="http://www.w3.org/2000/svg" xmlns:xlink="http://www.w3.org/1999/xlink" x="0px" y="0px"
	 viewBox="0 0 56.5 56.5" style="enable-background:new 0 0 56.5 56.5;" xml:space="preserve">
<g>
	<g>
		<path style="fill:#DAE7EF;" d="M42.75,7.422V7c1.1,0,2-0.9,2-2V3c0-1.1-0.9-2-2-2h-9h-12h-9c-1.1,0-2,0.9-2,2v2c0,1.1,0.9,2,2,2h1
			v0.422c0,3.89-7,1.828-7,9v31.194c0,4.63,3.753,8.383,8.383,8.383h8.617h17.617c4.63,0,8.383-3.753,8.383-8.383V16.422
			C49.75,9.25,42.75,11.313,42.75,7.422z"/>
		<path style="fill:#BBD7EA;" d="M41.366,56.5H15.134c-4.898,0-8.884-3.985-8.884-8.884V16.423c0-4.451,2.541-5.62,4.582-6.559
			c1.513-0.695,2.382-1.155,2.417-2.364H12.75c-1.379,0-2.5-1.121-2.5-2.5V3c0-1.379,1.121-2.5,2.5-2.5h30
			c1.379,0,2.5,1.121,2.5,2.5v2c0,1.207-0.86,2.218-2,2.45c0.013,1.247,0.885,1.709,2.418,2.414
			c2.041,0.938,4.582,2.107,4.582,6.559v31.193C50.25,52.515,46.265,56.5,41.366,56.5z M12.75,1.5c-0.827,0-1.5,0.673-1.5,1.5v2
			c0,0.827,0.673,1.5,1.5,1.5h1.5v0.923c0,1.97-1.525,2.672-3,3.35c-1.967,0.904-4,1.84-4,5.65v31.193
			c0,4.347,3.537,7.884,7.884,7.884h26.232c4.347,0,7.884-3.537,7.884-7.884V16.423c0-3.811-2.033-4.746-4-5.65
			c-1.475-0.678-3-1.38-3-3.35V6.5h0.5c0.827,0,1.5-0.673,1.5-1.5V3c0-0.827-0.673-1.5-1.5-1.5H12.75z"/>
	</g>
	<path style="fill:#546A79;" d="M43.632,0h-9.529H21.397h-9.529C10.703,0,9.75,0.953,9.75,2.118v3.765C9.75,7.047,10.703,8,11.868,8
		h9.529h12.706h9.529c1.165,0,2.118-0.953,2.118-2.118V2.118C45.75,0.953,44.797,0,43.632,0z"/>
	<ellipse style="fill:#88C057;" cx="17.25" cy="46.5" rx="7.5" ry="6.5"/>
	<ellipse style="fill:#A4E869;" cx="29.25" cy="43" rx="4.5" ry="4"/>
	<ellipse style="fill:#436B1C;" cx="27.75" cy="50.5" rx="3" ry="2.5"/>
	<ellipse style="fill:#88C057;" cx="40.75" cy="37.571" rx="6" ry="5.571"/>
	<path style="fill:#659C35;" d="M41.75,52h-5c-2.2,0-4-1.8-4-4v0c0-2.2,1.8-4,4-4h5c2.2,0,4,1.8,4,4v0C45.75,50.2,43.95,52,41.75,52
		z"/>
	<ellipse style="fill:#A4E869;" cx="39.75" cy="20.5" rx="7" ry="10.5"/>
	<path style="fill:#659C35;" d="M16.75,28L16.75,28c-2.2,0-4-1.8-4-4v-7c0-2.2,1.8-4,4-4h0c2.2,0,4,1.8,4,4v7
		C20.75,26.2,18.95,28,16.75,28z"/>
	<ellipse style="fill:#88C057;" cx="26.75" cy="23.5" rx="5" ry="4.5"/>
	<circle style="fill:#659C35;" cx="28.75" cy="14" r="4"/>
	<path style="fill:#436B1C;" d="M30.036,38.429H13.464c-2.593,0-4.714-2.121-4.714-4.714v0c0-2.593,2.121-4.714,4.714-4.714h16.571
		c2.593,0,4.714,2.121,4.714,4.714v0C34.75,36.307,32.629,38.429,30.036,38.429z"/>
</g>
<g>
</g>
<g>
</g>
<g>
</g>
<g>
</g>
<g>
</g>
<g>
</g>
<g>
</g>
<g>
</g>
<g>
</g>
<g>
</g>
<g>
</g>
<g>
</g>
<g>
</g>
<g>
</g>
<g>
</g>
</svg>
