<?xml version="1.0" encoding="iso-8859-1"?>
<!-- Generator: Adobe Illustrator 18.0.0, SVG Export Plug-In . SVG Version: 6.00 Build 0)  -->
<!DOCTYPE svg PUBLIC "-//W3C//DTD SVG 1.1//EN" "http://www.w3.org/Graphics/SVG/1.1/DTD/svg11.dtd">
<svg version="1.1" id="Capa_1" xmlns="http://www.w3.org/2000/svg" xmlns:xlink="http://www.w3.org/1999/xlink" x="0px" y="0px"
	 viewBox="0 0 56.976 56.976" style="enable-background:new 0 0 56.976 56.976;" xml:space="preserve">
<g>
	<path style="fill:#FED070;" d="M29.657,29.059l22.927,12.995c0.284-0.775,0.38-1.792,0.271-3.23
		c-0.142-1.869-0.663-3.358,0.393-4.902c0.764-1.12,3.72-4.111,3.72-5.443c0-1.331-2.956-4.322-3.72-5.441
		c-1.056-1.545-0.535-3.035-0.393-4.903c0.496-6.512-2.749-3.279-6.746-7.276c-3.996-3.997-0.763-7.241-7.275-6.745
		c-1.869,0.142-3.358,0.663-4.904-0.393C32.811,2.955,29.819,0,28.488,0c-1.332,0-4.323,2.955-5.442,3.72
		c-1.544,1.056-3.034,0.535-4.903,0.392c-6.511-0.497-3.278,2.748-7.276,6.746c-3.997,3.997-7.241,0.764-6.746,7.275
		c0.143,1.87,0.664,3.359-0.392,4.903c-0.765,1.118-3.72,4.11-3.72,5.442c0,1.331,2.955,4.323,3.72,5.443
		c1.056,1.544,0.535,3.034,0.392,4.903c-0.495,6.511,2.749,3.278,6.746,7.274c3.997,3.997,0.765,7.242,7.276,6.746
		c1.869-0.142,3.359-0.664,4.903,0.393c1.119,0.765,4.111,3.719,5.441,3.72c1.332,0,4.324-2.956,5.443-3.72
		c1.506-1.03,2.962-0.563,4.766-0.405L29.657,29.059z"/>
	<path style="fill:#FFF1C6;" d="M47.694,37.866c1.346-2.77,2.101-5.881,2.101-9.167c0-11.602-9.404-21.006-21.005-21.006
		c-11.602,0-21.006,9.404-21.006,21.006s9.404,21.006,21.006,21.006c2.836,0,5.539-0.562,8.009-1.581l0.079-0.074l-7.22-18.99
		l17.098,9.691L47.694,37.866z"/>
	<path style="fill:#EEAF4B;" d="M29.228,12.356c-2.341,2.341-2.341,6.131,0,8.472"/>
	<path style="fill:#EEAF4B;" d="M29.228,20.829c2.341-2.341,2.341-6.131,0-8.472"/>
	<path style="fill:#EEAF4B;" d="M29.228,37.067c-2.341,2.341-2.341,6.131,0,8.471"/>
	<path style="fill:#EEAF4B;" d="M29.228,45.539c2.341-2.34,2.341-6.13,0-8.471"/>
	<path style="fill:#EEAF4B;" d="M45.82,28.947c-2.342-2.341-6.131-2.341-8.472,0"/>
	<path style="fill:#EEAF4B;" d="M37.348,28.947c2.341,2.341,6.13,2.341,8.472,0"/>
	<path style="fill:#EEAF4B;" d="M21.109,28.947c-2.341-2.341-6.13-2.341-8.471,0"/>
	<path style="fill:#EEAF4B;" d="M12.638,28.947c2.341,2.341,6.13,2.341,8.471,0"/>
	<path style="fill:#EEAF4B;" d="M40.96,17.215c-3.31,0-5.99,2.68-5.99,5.99"/>
	<path style="fill:#EEAF4B;" d="M34.97,23.205c3.311,0,5.99-2.68,5.99-5.99"/>
	<path style="fill:#EEAF4B;" d="M23.487,34.689c-3.311-0.001-5.99,2.679-5.99,5.989"/>
	<path style="fill:#EEAF4B;" d="M17.498,40.678c3.31,0,5.99-2.679,5.99-5.989"/>
	<path style="fill:#EEAF4B;" d="M23.488,23.205c0-3.31-2.679-5.99-5.99-5.99"/>
	<path style="fill:#EEAF4B;" d="M17.498,17.215c0,3.312,2.679,5.99,5.99,5.99"/>
	<path style="fill:#FFF1C6;" d="M36.387,36.804l9.149,20.172c0,0,6.193-1.855,9.014-9.052L36.387,36.804z"/>
	<path style="fill:#FED070;" d="M44.068,53.739c3.926-0.162,7.076-3.637,7.079-7.899l-1.449-0.887
		c-0.323,0.166-0.551,0.492-0.551,0.881c0,3.265-2.405,5.92-5.362,5.92c-0.202,0-0.379,0.075-0.537,0.178L44.068,53.739z"/>
</g>
<g>
</g>
<g>
</g>
<g>
</g>
<g>
</g>
<g>
</g>
<g>
</g>
<g>
</g>
<g>
</g>
<g>
</g>
<g>
</g>
<g>
</g>
<g>
</g>
<g>
</g>
<g>
</g>
<g>
</g>
</svg>
