<?xml version="1.0" encoding="iso-8859-1"?>
<!-- Generator: Adobe Illustrator 18.0.0, SVG Export Plug-In . SVG Version: 6.00 Build 0)  -->
<!DOCTYPE svg PUBLIC "-//W3C//DTD SVG 1.1//EN" "http://www.w3.org/Graphics/SVG/1.1/DTD/svg11.dtd">
<svg version="1.1" id="Capa_1" xmlns="http://www.w3.org/2000/svg" xmlns:xlink="http://www.w3.org/1999/xlink" x="0px" y="0px"
	 viewBox="0 0 54.515 54.515" style="enable-background:new 0 0 54.515 54.515;" xml:space="preserve">
<g>
	<path style="fill:#FBD490;" d="M48.471,32.899c-3.846-0.017-6.957-2.247-6.957-4.998c0,2.761-3.134,5-7,5s-7-2.239-7-5
		c0,2.761-3.134,5-7,5s-7-2.239-7-5c0,2.761-3.134,5-7,5H6.438l2.501,2.397c1.67,1.6,2.139,2.387,3.583,4.195
		c2.197,2.752,4.554,4.408,8.163,4.408h13.584c3.608,0,5.965-1.656,8.163-4.408c1.443-1.808,1.912-2.595,3.583-4.195l2.501-2.397
		h-0.077C48.449,32.901,48.46,32.899,48.471,32.899z"/>
	<g>
		<path style="fill:#F9F2E8;" d="M48.515,32.901c-0.015,0-0.029-0.002-0.043-0.002c-0.011,0-0.022,0.002-0.033,0.002H48.515z"/>
		<path style="fill:#F9F2E8;" d="M54.515,26.747c0-1.304-0.963-2.432-2.622-3.389C51.96,23.049,52,22.73,52,22.401
			c0-2.485-2.015-4.5-4.5-4.5c-1.055,0-2.012,0.378-2.78,0.986c-0.624-1.737-2.269-2.986-4.22-2.986
			c-1.212,0-2.307,0.485-3.117,1.264c-0.778-1.347-2.216-2.264-3.883-2.264c-0.182,0-0.358,0.022-0.535,0.044l0.321-0.27
			l-2.576-3.06l-2.821,2.375C27.6,13.937,27.305,13.901,27,13.901c-1.568,0-2.95,0.736-3.866,1.865
			c-0.742-0.539-1.647-0.865-2.634-0.865c-1.667,0-3.106,0.917-3.883,2.264c-0.809-0.779-1.904-1.264-3.117-1.264
			c-1.566,0-2.925,0.812-3.727,2.028l-5.225-1.932l-1.175,3.176C2.529,19.991,2,21.132,2,22.401c0,0.431,0.08,0.839,0.193,1.233
			C0.799,24.531,0,25.567,0,26.747c0,3.399,2.882,6.154,6.438,6.154h0.077c3.866,0,7-2.239,7-5c0,2.761,3.134,5,7,5s7-2.239,7-5
			c0,2.761,3.134,5,7,5s7-2.239,7-5c0,2.751,3.111,4.981,6.957,4.998C52.009,32.882,54.515,30.135,54.515,26.747z"/>
	</g>
	<path style="fill:#A4E869;" d="M19.418,26.699c-0.213,0-0.422-0.068-0.595-0.196l-3.215-2.38c-0.444-0.328-0.538-0.955-0.209-1.398
		l2.379-3.215c0.328-0.443,0.954-0.54,1.398-0.209l3.215,2.379c0.444,0.328,0.538,0.954,0.209,1.398l-2.379,3.216
		c-0.157,0.213-0.394,0.355-0.656,0.395C19.517,26.695,19.467,26.699,19.418,26.699z M17.602,23.11l1.607,1.189l1.189-1.607
		l-1.607-1.189L17.602,23.11z"/>
	<path style="fill:#6F58A8;" d="M48.368,28.051c-0.064,0-0.131-0.006-0.196-0.02l-3.923-0.783c-0.542-0.108-0.894-0.635-0.785-1.176
		l0.783-3.923c0.107-0.541,0.636-0.897,1.176-0.785l3.923,0.783c0.542,0.108,0.894,0.635,0.785,1.176l-0.783,3.923
		C49.253,27.722,48.835,28.051,48.368,28.051z M45.621,25.483l1.961,0.392l0.392-1.961l-1.961-0.392L45.621,25.483z"/>
	<path style="fill:#3DABEF;" d="M8.023,24.552c-0.115,0-0.232-0.02-0.347-0.063l-5.516-2.04C1.912,22.358,1.71,22.171,1.6,21.93
		c-0.111-0.241-0.122-0.517-0.029-0.765l2.04-5.515c0.19-0.519,0.768-0.784,1.284-0.591l5.516,2.039
		c0.249,0.092,0.451,0.278,0.562,0.52c0.111,0.241,0.122,0.516,0.029,0.765l-2.04,5.516C8.813,24.303,8.43,24.552,8.023,24.552z
		 M3.793,20.921l3.64,1.346l1.346-3.64l-3.64-1.346L3.793,20.921z"/>
	<path style="fill:#659C35;" d="M33.82,30.166c-0.436,0-0.837-0.288-0.961-0.729l-1.087-3.85c-0.15-0.531,0.158-1.084,0.69-1.233
		l3.85-1.087c0.527-0.153,1.083,0.158,1.233,0.69l1.087,3.85c0.15,0.531-0.158,1.084-0.69,1.233l-3.85,1.087
		C34.002,30.155,33.911,30.166,33.82,30.166z M33.969,26.007l0.543,1.925l1.925-0.543l-0.543-1.925L33.969,26.007z"/>
	<path style="fill:#ED3F32;" d="M30.227,18.25c-0.285,0-0.568-0.121-0.766-0.356l-2.575-3.06c-0.356-0.422-0.302-1.053,0.12-1.408
		l3.06-2.576c0.204-0.171,0.46-0.259,0.73-0.231c0.264,0.022,0.509,0.149,0.679,0.353l2.576,3.061
		c0.171,0.202,0.255,0.465,0.231,0.729c-0.022,0.264-0.149,0.509-0.353,0.68l-3.061,2.575C30.682,18.173,30.453,18.25,30.227,18.25z
		 M29.06,14.312l1.287,1.529l1.53-1.287l-1.288-1.53L29.06,14.312z"/>
</g>
<g>
</g>
<g>
</g>
<g>
</g>
<g>
</g>
<g>
</g>
<g>
</g>
<g>
</g>
<g>
</g>
<g>
</g>
<g>
</g>
<g>
</g>
<g>
</g>
<g>
</g>
<g>
</g>
<g>
</g>
</svg>
