<?xml version="1.0" encoding="iso-8859-1"?>
<!-- Generator: Adobe Illustrator 18.0.0, SVG Export Plug-In . SVG Version: 6.00 Build 0)  -->
<!DOCTYPE svg PUBLIC "-//W3C//DTD SVG 1.1//EN" "http://www.w3.org/Graphics/SVG/1.1/DTD/svg11.dtd">
<svg version="1.1" id="Capa_1" xmlns="http://www.w3.org/2000/svg" xmlns:xlink="http://www.w3.org/1999/xlink" x="0px" y="0px"
	 viewBox="0 0 54.515 54.515" style="enable-background:new 0 0 54.515 54.515;" xml:space="preserve">
<g>
	<path style="fill:#EEAF4B;" d="M32.268,47.757c3.608,0,6.965-1.656,9.163-4.408c1.443-1.808,2.912-3.595,4.583-5.195l2.501-2.397
		h-0.077c3.555,0,6.077-2.755,6.077-6.154s-2.882-6.154-6.438-6.154c0-10.876-9.223-16.692-20.601-16.692S6.438,12.574,6.438,23.45
		C2.882,23.45,0,26.205,0,29.603s2.882,6.154,6.438,6.154l2.501,2.397c1.67,1.6,3.139,3.387,4.583,5.195
		c2.197,2.752,5.554,4.408,9.163,4.408H32.268z"/>
	<path style="fill:#FBD490;" d="M6.438,35.757C2.882,35.757,0,33.002,0,29.603s2.882-6.154,6.438-6.154
		c0-10.876,9.661-16.692,21.038-16.692s20.601,5.817,20.601,16.692c3.555,0,6.438,2.755,6.438,6.154s-2.521,6.154-6.077,6.154
		l0.077,0c-3.866,0-7-2.239-7-5c0,2.761-3.134,5-7,5s-7-2.239-7-5c0,2.761-3.134,5-7,5s-7-2.239-7-5c0,2.761-3.134,5-7,5"/>
	<path style="fill:#DC9628;" d="M27.501,44.757c-5.062,0-6.276-0.366-8.943-1.376c-0.517-0.196-0.776-0.773-0.581-1.29
		c0.197-0.517,0.773-0.774,1.29-0.581c2.616,0.992,3.493,1.323,10.234,1.231c0.56-0.013,1.006,0.434,1.014,0.986
		c0.008,0.552-0.434,1.006-0.986,1.014C28.79,44.751,28.116,44.757,27.501,44.757z"/>
	<path style="fill:#DC9628;" d="M16.397,40.946c-0.278,0-0.556-0.116-0.754-0.343c-0.533-0.612-1.055-1.277-1.549-1.979
		c-0.318-0.451-0.21-1.075,0.241-1.394c0.45-0.317,1.074-0.21,1.394,0.241c0.455,0.645,0.934,1.256,1.422,1.816
		c0.363,0.416,0.319,1.048-0.097,1.411C16.865,40.865,16.631,40.946,16.397,40.946z"/>
	<path style="fill:#E2B266;" d="M30.515,20.757c0,2.209-1.343,4-3,4s-3-1.791-3-4s1.343-8,3-8S30.515,18.548,30.515,20.757z"/>
	<path style="fill:#E2B266;" d="M41.275,20.463c0.648,1.525-0.062,3.286-1.586,3.935c-1.525,0.649-3.286-0.062-3.935-1.586
		s-1.112-6.047,0.412-6.696C37.69,15.468,40.626,18.939,41.275,20.463z"/>
	<path style="fill:#E2B266;" d="M13.755,20.463c-0.649,1.525,0.062,3.286,1.586,3.935c1.525,0.649,3.286-0.062,3.935-1.586
		c0.649-1.525,1.112-6.047-0.412-6.696C17.339,15.468,14.403,18.939,13.755,20.463z"/>
</g>
<g>
</g>
<g>
</g>
<g>
</g>
<g>
</g>
<g>
</g>
<g>
</g>
<g>
</g>
<g>
</g>
<g>
</g>
<g>
</g>
<g>
</g>
<g>
</g>
<g>
</g>
<g>
</g>
<g>
</g>
</svg>
