<?xml version="1.0" encoding="iso-8859-1"?>
<!-- Generator: Adobe Illustrator 18.0.0, SVG Export Plug-In . SVG Version: 6.00 Build 0)  -->
<!DOCTYPE svg PUBLIC "-//W3C//DTD SVG 1.1//EN" "http://www.w3.org/Graphics/SVG/1.1/DTD/svg11.dtd">
<svg version="1.1" id="Capa_1" xmlns="http://www.w3.org/2000/svg" xmlns:xlink="http://www.w3.org/1999/xlink" x="0px" y="0px"
	 viewBox="0 0 50.77 50.77" style="enable-background:new 0 0 50.77 50.77;" xml:space="preserve">
<g>
	<path style="fill:#EDD194;" d="M23.982,5.735c-4.776,2.118-9.308,5.111-13.141,8.933c-0.025,0.025-0.05,0.05-0.075,0.075
		c-2.495,2.493-4.764,5.21-6.696,8.065l0,0c-6.988,11.984-2.986,23.296-2.398,25.571l0,0l0,0
		c2.275,0.588,21.131-16.61,23.624-19.106c2.495-2.493,4.764-5.21,6.696-8.065l0,0C38.981,9.223,39.342,2.275,38.754,0l0,0l0,0
		C37.421,0.07,29.386,3.339,23.982,5.735z"/>
	<g>
		<g>
			<path style="fill:#AEBB00;" d="M44.376,12.427c0.284-1.787,1.847-5.351,2.387-6.522c0.683-1.482,1.078-4.227-2.639-2.642
				c-2.218,0.946-4.208,2.081-5.585,2.252c-0.526,2.643-1.641,6.127-3.752,10.474C38.665,14.105,41.855,13.016,44.376,12.427z"/>
		</g>
	</g>
	<path style="fill:#F4DDA4;" d="M36.103,39.929c3.822-3.833,6.815-8.365,8.933-13.141c2.396-5.404,5.664-13.439,5.735-14.772l0,0
		c-1.921-0.497-7.188-0.3-15.992,3.975c-0.788,1.622-1.698,3.351-2.786,5.216l0,0c-1.933,2.855-4.201,5.572-6.696,8.065
		c-2.276,2.278-18.18,16.8-22.667,18.868c-0.197,0.428-0.289,0.759-0.237,0.957l0,0c2.275,0.588,13.586,4.591,25.571-2.398
		c2.855-1.933,5.572-4.201,8.065-6.696C36.053,39.979,36.078,39.954,36.103,39.929z"/>
	<path style="fill:#CCA672;" d="M15.491,18.27c-0.25,0-0.5-0.093-0.693-0.279c-0.398-0.383-0.41-1.016-0.027-1.414
		c2.345-2.437,4.986-4.46,7.85-6.012c0.486-0.262,1.093-0.083,1.356,0.402c0.263,0.485,0.083,1.093-0.403,1.355
		c-2.683,1.454-5.16,3.353-7.361,5.641C16.015,18.167,15.753,18.27,15.491,18.27z"/>
	<path style="fill:#CCA672;" d="M28.368,9.653c-0.356,0-0.701-0.19-0.881-0.525c-0.262-0.486-0.08-1.093,0.406-1.355l0.21-0.113
		c0.815-0.439,1.658-0.895,2.543-1.246c0.513-0.201,1.095,0.049,1.298,0.561c0.204,0.514-0.047,1.095-0.561,1.299
		c-0.776,0.308-1.531,0.715-2.331,1.146l-0.212,0.115C28.69,9.615,28.528,9.653,28.368,9.653z"/>
	<path style="fill:#CCA672;" d="M4.531,41.763c-0.331,0-0.654-0.164-0.845-0.463c-1.321-2.077-0.343-6.96-0.133-7.918
		c0.119-0.54,0.654-0.88,1.19-0.763c0.54,0.117,0.881,0.65,0.764,1.19c-0.447,2.049-0.784,5.394-0.133,6.416
		c0.296,0.467,0.159,1.085-0.307,1.381C4.9,41.712,4.714,41.763,4.531,41.763z"/>
</g>
<g>
</g>
<g>
</g>
<g>
</g>
<g>
</g>
<g>
</g>
<g>
</g>
<g>
</g>
<g>
</g>
<g>
</g>
<g>
</g>
<g>
</g>
<g>
</g>
<g>
</g>
<g>
</g>
<g>
</g>
</svg>
