<?xml version="1.0" encoding="iso-8859-1"?>
<!-- Generator: Adobe Illustrator 18.0.0, SVG Export Plug-In . SVG Version: 6.00 Build 0)  -->
<!DOCTYPE svg PUBLIC "-//W3C//DTD SVG 1.1//EN" "http://www.w3.org/Graphics/SVG/1.1/DTD/svg11.dtd">
<svg version="1.1" id="Capa_1" xmlns="http://www.w3.org/2000/svg" xmlns:xlink="http://www.w3.org/1999/xlink" x="0px" y="0px"
	 viewBox="0 0 51.594 51.594" style="enable-background:new 0 0 51.594 51.594;" xml:space="preserve">
<g>
	
		<rect x="28.521" y="17.575" transform="matrix(0.7071 0.7071 -0.7071 0.7071 24.3421 -14.3732)" style="fill:#D2D5D7;" width="2" height="9.243"/>
	<path style="fill:#546A79;" d="M35.233,21.024l-4.243-4.243L46.821,0.95c0.706-0.706,1.863-0.706,2.569,0l1.674,1.674
		c0.706,0.706,0.706,1.863,0,2.569L35.233,21.024z"/>
	<circle style="fill:#E6E6E6;" cx="14" cy="37.173" r="14"/>
	<path style="fill:#D2D5D7;" d="M14,42.171c-1.28,0-2.561-0.487-3.535-1.462c-1.949-1.949-1.949-5.122,0-7.071l0,0
		c1.949-1.949,5.122-1.949,7.071,0s1.949,5.122,0,7.071C16.561,41.684,15.281,42.171,14,42.171z M11.879,35.052
		c-1.169,1.17-1.169,3.073,0,4.243c1.17,1.17,3.073,1.169,4.243,0c1.169-1.17,1.169-3.073,0-4.243
		C14.95,33.881,13.048,33.882,11.879,35.052L11.879,35.052z"/>
	<path style="fill:#D2D5D7;" d="M30.218,35.666c-0.53-3.738-2.226-7.129-4.903-9.807c-2.678-2.677-6.068-4.373-9.804-4.903
		l0.281-1.98c4.168,0.593,7.95,2.483,10.937,5.47s4.878,6.77,5.47,10.939L30.218,35.666z"/>
	<polygon style="fill:#6B8DA0;" points="43.871,12.386 45.451,10.806 39.087,8.684 37.507,10.265 	"/>
	<polygon style="fill:#6B8DA0;" points="40.45,15.807 42.031,14.226 35.667,12.105 34.087,13.685 	"/>
</g>
<g>
</g>
<g>
</g>
<g>
</g>
<g>
</g>
<g>
</g>
<g>
</g>
<g>
</g>
<g>
</g>
<g>
</g>
<g>
</g>
<g>
</g>
<g>
</g>
<g>
</g>
<g>
</g>
<g>
</g>
</svg>
