<?xml version="1.0" encoding="iso-8859-1"?>
<!-- Generator: Adobe Illustrator 18.0.0, SVG Export Plug-In . SVG Version: 6.00 Build 0)  -->
<!DOCTYPE svg PUBLIC "-//W3C//DTD SVG 1.1//EN" "http://www.w3.org/Graphics/SVG/1.1/DTD/svg11.dtd">
<svg version="1.1" id="Capa_1" xmlns="http://www.w3.org/2000/svg" xmlns:xlink="http://www.w3.org/1999/xlink" x="0px" y="0px"
	 viewBox="0 0 56 56" style="enable-background:new 0 0 56 56;" xml:space="preserve">
<g>
	<path style="fill:#D8CBAB;" d="M55.846,45.844l-7.749-19.933c-0.057-0.241-0.272-0.412-0.52-0.412H8.423
		c-0.248,0-0.463,0.17-0.52,0.412L0.154,45.844C0.075,46.179,0.33,46.5,0.674,46.5h21.928c0.259,0,0.466,0.19,0.524,0.443
		C23.588,48.97,25.583,50.5,28,50.5s4.412-1.53,4.874-3.557c0.058-0.253,0.265-0.443,0.524-0.443h21.928
		C55.67,46.5,55.925,46.179,55.846,45.844z"/>
	<path style="fill:#FAF5E5;" d="M33.429,46.5c-0.277,0-0.498,0.203-0.562,0.473C32.392,48.985,30.405,50.5,28,50.5
		s-4.392-1.515-4.867-3.527c-0.064-0.27-0.285-0.473-0.562-0.473H0.253C0.113,46.5,0,46.613,0,46.753v6.158
		C0,53.236,0.264,53.5,0.589,53.5h54.822c0.325,0,0.589-0.264,0.589-0.589v-6.283c0-0.071-0.057-0.128-0.128-0.128H33.429z"/>
	<g>
		<path style="fill:#FAF8D2;" d="M9.486,46.5h12.625h0.46c0.277,0,0.498,0.203,0.562,0.473C23.608,48.985,25.595,50.5,28,50.5
			s4.392-1.515,4.867-3.527c0.064-0.27,0.285-0.473,0.562-0.473h0.46h12.625c3.427-2.075,5.486-6.099,5.486-9
			c0-6.627-10.745-12-24-12s-24,5.373-24,12C4,40.401,6.059,44.425,9.486,46.5z"/>
	</g>
	<path style="fill:#FAF5E5;" d="M53,2.5H3v3h22.071C25.025,5.662,25,5.829,25,6c0,1.381,1.567,2.5,3.5,2.5S32,7.381,32,6
		c0-0.171-0.025-0.338-0.071-0.5H53V2.5z"/>
	<path style="fill:#E8DFC5;" d="M31.929,5.5C31.975,5.662,32,5.829,32,6c0,1.381-1.567,2.5-3.5,2.5S25,7.381,25,6
		c0-0.171,0.025-0.338,0.071-0.5H3.948l4.545,20H48.07L53,5.5H31.929z"/>
	<ellipse style="fill:#CD6E61;" cx="13" cy="40.5" rx="3" ry="2"/>
	<ellipse style="fill:#773F3A;" cx="16" cy="32.5" rx="3" ry="2"/>
	<ellipse style="fill:#CD6E61;" cx="26" cy="30.5" rx="3" ry="2"/>
	<ellipse style="fill:#773F3A;" cx="36" cy="31.5" rx="3" ry="2"/>
	<ellipse style="fill:#CD6E61;" cx="45" cy="35.5" rx="3" ry="2"/>
	<ellipse style="fill:#CD6E61;" cx="39" cy="41.5" rx="3" ry="2"/>
	<ellipse style="fill:#773F3A;" cx="28" cy="43.5" rx="3" ry="2"/>
	<path style="fill:#88C057;" d="M18.312,43.5c-0.068,0-0.137-0.007-0.207-0.021c-0.541-0.113-0.887-0.644-0.773-1.185
		c0.15-0.716,0.771-1.215,1.471-1.243c0.257-0.525,0.792-0.867,1.378-0.878c0.223-0.318,0.622-0.494,1.025-0.405
		c0.541,0.113,0.887,0.644,0.773,1.185c-0.15,0.716-0.771,1.215-1.471,1.243c-0.257,0.525-0.792,0.867-1.378,0.878
		C18.945,43.337,18.641,43.5,18.312,43.5z"/>
	<path style="fill:#88C057;" d="M9.001,38.5c-0.068,0-0.137-0.007-0.207-0.021c-0.541-0.113-0.887-0.644-0.773-1.185
		c0.15-0.716,0.771-1.215,1.471-1.243c0.257-0.525,0.792-0.867,1.378-0.878c0.223-0.318,0.621-0.49,1.025-0.405
		c0.541,0.113,0.887,0.644,0.773,1.185c-0.15,0.716-0.771,1.215-1.471,1.243c-0.257,0.525-0.792,0.867-1.378,0.878
		C9.635,38.337,9.33,38.5,9.001,38.5z"/>
	<path style="fill:#88C057;" d="M32.593,40.068c-0.255,0-0.507-0.063-0.739-0.188c-0.253-0.136-0.459-0.334-0.603-0.574
		c-0.276,0.008-0.558-0.05-0.811-0.186c-0.263-0.141-0.476-0.35-0.62-0.603c-0.386-0.043-0.728-0.31-0.847-0.705
		c-0.16-0.528,0.139-1.086,0.667-1.246c0.399-0.123,0.825-0.08,1.195,0.119c0.253,0.136,0.46,0.334,0.604,0.574
		c0.584-0.004,1.14,0.281,1.431,0.788c0.386,0.043,0.728,0.31,0.847,0.705c0.16,0.528-0.139,1.086-0.667,1.246
		C32.899,40.046,32.746,40.068,32.593,40.068z M33.008,38.37c0,0.001,0.001,0.002,0.001,0.002S33.009,38.371,33.008,38.37z
		 M31.058,37.325c-0.001,0-0.002,0.001-0.003,0.001C31.056,37.326,31.057,37.325,31.058,37.325z"/>
	<path style="fill:#88C057;" d="M28.999,32.5c-0.162,0-0.325-0.039-0.477-0.122c-0.485-0.264-0.665-0.871-0.4-1.356
		c0.349-0.642,1.085-0.939,1.766-0.77c0.397-0.429,1.007-0.603,1.572-0.446c0.306-0.24,0.737-0.29,1.1-0.093
		c0.484,0.265,0.663,0.872,0.398,1.357c-0.35,0.642-1.088,0.943-1.764,0.768c-0.19,0.206-0.433,0.358-0.708,0.44
		c-0.287,0.084-0.584,0.086-0.865,0.007C29.443,32.425,29.223,32.5,28.999,32.5z M29.662,30.566
		C29.661,30.567,29.661,30.567,29.662,30.566C29.661,30.567,29.661,30.567,29.662,30.566z M30.243,30.392
		c0.001,0,0.002,0.001,0.003,0.002C30.245,30.393,30.244,30.392,30.243,30.392z M31.782,29.937c0.001,0,0.002,0.001,0.003,0.002
		C31.785,29.938,31.783,29.937,31.782,29.937z"/>
	<path style="fill:#88C057;" d="M41.957,39.936c-0.231,0-0.457-0.051-0.663-0.148c-0.341,0.187-0.773,0.166-1.098-0.09
		c-0.435-0.34-0.512-0.969-0.171-1.403c0.258-0.33,0.63-0.54,1.046-0.59c0.284-0.036,0.567,0.009,0.824,0.122
		c0.221-0.171,0.485-0.28,0.77-0.314c0.296-0.036,0.59,0.013,0.854,0.136c0.342-0.187,0.774-0.165,1.099,0.09
		c0.435,0.341,0.511,0.97,0.169,1.404c-0.451,0.574-1.226,0.749-1.868,0.467c-0.222,0.172-0.487,0.281-0.773,0.315
		C42.083,39.932,42.02,39.936,41.957,39.936z M43.194,39.334C43.193,39.335,43.193,39.335,43.194,39.334
		C43.193,39.335,43.193,39.335,43.194,39.334z M42.223,38.023c0.001,0.001,0.002,0.002,0.003,0.003
		C42.225,38.025,42.224,38.024,42.223,38.023z"/>
	<path style="fill:#88C057;" d="M23.833,37.068c-0.255,0-0.507-0.063-0.739-0.188c-0.253-0.136-0.459-0.334-0.603-0.574
		c-0.277,0.008-0.557-0.05-0.811-0.186c-0.263-0.141-0.476-0.35-0.62-0.603c-0.386-0.043-0.728-0.31-0.847-0.705
		c-0.16-0.528,0.139-1.086,0.667-1.246c0.399-0.123,0.825-0.08,1.195,0.119c0.253,0.136,0.46,0.334,0.604,0.574
		c0.582,0.013,1.14,0.28,1.431,0.788c0.386,0.043,0.728,0.31,0.847,0.705c0.16,0.528-0.139,1.086-0.667,1.246
		C24.14,37.046,23.986,37.068,23.833,37.068z M24.249,35.37c0,0.001,0.001,0.002,0.001,0.002S24.25,35.371,24.249,35.37z
		 M22.299,34.325c-0.001,0-0.002,0.001-0.003,0.001C22.297,34.326,22.298,34.325,22.299,34.325z"/>
	<path style="fill:#FBD490;" d="M28,25.5c-13.255,0-24,5.373-24,12c0,2.901,2.059,6.925,5.486,9h2.77
		c-0.804-0.571-1.539-1.229-2.172-2h-0.007C7.515,42.721,6,39.617,6,37.5c0-2.373,2.159-4.814,5.924-6.697
		C16.185,28.673,21.894,27.5,28,27.5s11.815,1.173,16.076,3.303C47.841,32.686,50,35.127,50,37.5c0,2.037-1.413,4.975-3.8,6.78
		c-0.007,0.01-0.014,0.021-0.021,0.031c-0.326,0.461-0.704,0.975-1.158,1.333c-0.39,0.307-0.774,0.592-1.171,0.856h2.664
		c3.427-2.075,5.486-6.099,5.486-9C52,30.873,41.255,25.5,28,25.5z"/>
	<path style="fill:#FFFFFF;" d="M23.943,23.695c-0.256,0-0.512-0.098-0.707-0.293c-0.87-0.87-1.35-2.026-1.35-3.256
		s0.479-2.386,1.35-3.256c1.015-1.016,1.015-2.668,0-3.684c-0.391-0.391-0.391-1.023,0-1.414s1.023-0.391,1.414,0
		c1.795,1.795,1.795,4.717,0,6.512c-0.492,0.492-0.764,1.146-0.764,1.842s0.271,1.35,0.764,1.842c0.391,0.391,0.391,1.023,0,1.414
		C24.455,23.598,24.199,23.695,23.943,23.695z"/>
	<path style="fill:#FFFFFF;" d="M13.057,23.695c-0.256,0-0.512-0.098-0.707-0.293c-0.87-0.87-1.35-2.026-1.35-3.256
		s0.479-2.386,1.35-3.256c1.015-1.016,1.015-2.668,0-3.684c-0.391-0.391-0.391-1.023,0-1.414s1.023-0.391,1.414,0
		c1.795,1.795,1.795,4.717,0,6.512C13.271,18.797,13,19.451,13,20.146s0.271,1.35,0.764,1.842c0.391,0.391,0.391,1.023,0,1.414
		C13.568,23.598,13.312,23.695,13.057,23.695z"/>
	<path style="fill:#FFFFFF;" d="M18.943,20.695c-0.256,0-0.512-0.098-0.707-0.293c-0.87-0.87-1.35-2.026-1.35-3.256
		s0.479-2.386,1.35-3.256c1.015-1.016,1.015-2.668,0-3.684c-0.391-0.391-0.391-1.023,0-1.414s1.023-0.391,1.414,0
		c1.795,1.795,1.795,4.717,0,6.512c-0.492,0.492-0.764,1.146-0.764,1.842s0.271,1.35,0.764,1.842c0.391,0.391,0.391,1.023,0,1.414
		C19.455,20.598,19.199,20.695,18.943,20.695z"/>
</g>
<g>
</g>
<g>
</g>
<g>
</g>
<g>
</g>
<g>
</g>
<g>
</g>
<g>
</g>
<g>
</g>
<g>
</g>
<g>
</g>
<g>
</g>
<g>
</g>
<g>
</g>
<g>
</g>
<g>
</g>
</svg>
