<?xml version="1.0" encoding="iso-8859-1"?>
<!-- Generator: Adobe Illustrator 18.0.0, SVG Export Plug-In . SVG Version: 6.00 Build 0)  -->
<!DOCTYPE svg PUBLIC "-//W3C//DTD SVG 1.1//EN" "http://www.w3.org/Graphics/SVG/1.1/DTD/svg11.dtd">
<svg version="1.1" id="Capa_1" xmlns="http://www.w3.org/2000/svg" xmlns:xlink="http://www.w3.org/1999/xlink" x="0px" y="0px"
	 viewBox="0 0 55.277 55.277" style="enable-background:new 0 0 55.277 55.277;" xml:space="preserve">
<g>
	<path style="fill:#D2D5D7;" d="M27.638,28c-0.68,0-1.346-0.06-2-0.154v25.431c0,1.1,0.9,2,2,2s2-0.9,2-2V27.846
		C28.984,27.94,28.319,28,27.638,28z"/>
	<path style="fill:#FBD490;" d="M41.485,12.035C40.527,5.236,34.702,0,27.638,0S14.75,5.236,13.792,12.035
		c-1.762,0.178-3.154,1.658-3.154,3.465c0,1.925,1.575,3.5,3.5,3.5h0.436c2.015,5.259,7.096,9,13.064,9s11.05-3.741,13.064-9h0.436
		c1.925,0,3.5-1.575,3.5-3.5C44.638,13.694,43.246,12.213,41.485,12.035z"/>
	<path style="fill:#EEAF4B;" d="M17.638,20h-3.5c-2.481,0-4.5-2.019-4.5-4.5s2.019-4.5,4.5-4.5h2.5c0.553,0,1,0.447,1,1
		s-0.447,1-1,1h-2.5c-1.379,0-2.5,1.121-2.5,2.5s1.121,2.5,2.5,2.5h3.5c0.553,0,1,0.447,1,1S18.191,20,17.638,20z"/>
	<path style="fill:#EEAF4B;" d="M41.138,20h-4.5c-0.553,0-1-0.447-1-1s0.447-1,1-1h4.5c1.379,0,2.5-1.121,2.5-2.5
		s-1.121-2.5-2.5-2.5h-1.5c-0.553,0-1-0.447-1-1s0.447-1,1-1h1.5c2.481,0,4.5,2.019,4.5,4.5S43.62,20,41.138,20z"/>
	<polygon style="fill:#ED3F32;" points="29.638,48 25.638,50 25.638,48 29.638,46 	"/>
	<polygon style="fill:#FFFFFF;" points="29.638,46 25.638,48 25.638,46 29.638,44 	"/>
	<polygon style="fill:#ED3F32;" points="29.638,44 25.638,46 25.638,44 29.638,42 	"/>
	<polygon style="fill:#FFFFFF;" points="29.638,42 25.638,44 25.638,42 29.638,40 	"/>
	<polygon style="fill:#ED3F32;" points="29.638,40 25.638,42 25.638,40 29.638,38 	"/>
	<polygon style="fill:#FFFFFF;" points="29.638,38 25.638,40 25.638,38 29.638,36 	"/>
	<polygon style="fill:#ED3F32;" points="29.638,36 25.638,38 25.638,36 29.638,34 	"/>
	<polygon style="fill:#FFFFFF;" points="29.638,34 25.638,36 25.638,34 29.638,32 	"/>
</g>
<g>
</g>
<g>
</g>
<g>
</g>
<g>
</g>
<g>
</g>
<g>
</g>
<g>
</g>
<g>
</g>
<g>
</g>
<g>
</g>
<g>
</g>
<g>
</g>
<g>
</g>
<g>
</g>
<g>
</g>
</svg>
