<?xml version="1.0" encoding="iso-8859-1"?>
<!-- Generator: Adobe Illustrator 18.0.0, SVG Export Plug-In . SVG Version: 6.00 Build 0)  -->
<!DOCTYPE svg PUBLIC "-//W3C//DTD SVG 1.1//EN" "http://www.w3.org/Graphics/SVG/1.1/DTD/svg11.dtd">
<svg version="1.1" id="Capa_1" xmlns="http://www.w3.org/2000/svg" xmlns:xlink="http://www.w3.org/1999/xlink" x="0px" y="0px"
	 viewBox="0 0 57 57" style="enable-background:new 0 0 57 57;" xml:space="preserve">
<g>
	<path style="fill:#D2D5D7;" d="M54,28.399h-5v-6h5c1.654,0,3,1.346,3,3S55.654,28.399,54,28.399z M51,26.399h3c0.551,0,1-0.448,1-1
		s-0.449-1-1-1h-3V26.399z"/>
	<path style="fill:#D2D5D7;" d="M8,28.399H3c-1.654,0-3-1.346-3-3s1.346-3,3-3h5V28.399z M3,24.399c-0.551,0-1,0.448-1,1
		s0.449,1,1,1h3v-2H3z"/>
	<path style="fill:#E6E6E6;" d="M51.197,15.26c0,0-3.612-3.861-5.197-3.861H33.191c-1.038-1.792-2.971-3-5.191-3
		s-4.153,1.208-5.191,3H11c-1.584,0-5.197,3.861-5.197,3.861c-0.296,0.501,0.059,1.139,0.634,1.139h15.911
		c0.825,2.329,3.04,4,5.651,4s4.827-1.671,5.651-4h16.911C51.137,16.399,51.493,15.761,51.197,15.26z"/>
	<path style="fill:#D2D5D7;" d="M51.684,16.399H33.651c-0.825,2.329-3.04,4-5.651,4s-4.827-1.671-5.651-4H5.316
		c-0.572,0-0.925,0.627-0.631,1.12l1.631,2.733C6.764,21.003,7,21.861,7,22.736v25.664c0,2.873,2.316,5.201,5.172,5.201h32.656
		c2.857,0,5.172-2.329,5.172-5.201V22.736c0-0.875,0.236-1.733,0.684-2.482l1.631-2.734C52.609,17.027,52.256,16.399,51.684,16.399z
		"/>
	<path style="fill:#E6E6E6;" d="M39,12.399h-6.385L32.326,11.9C31.432,10.357,29.774,9.399,28,9.399s-3.432,0.958-4.326,2.501
		l-0.289,0.499H17v-3c0-3.309,2.691-6,6-6h10c3.309,0,6,2.691,6,6V12.399z M33.738,10.399H37v-1c0-2.206-1.794-4-4-4H23
		c-2.206,0-4,1.794-4,4v1h3.262c1.302-1.864,3.45-3,5.738-3S32.436,8.535,33.738,10.399z"/>
	<circle style="fill:#FFFFFF;" cx="28" cy="14.399" r="6"/>
	<path style="fill:#FFFFFF;" d="M20,50.399H10c-0.552,0-1-0.447-1-1s0.448-1,1-1h10c0.552,0,1,0.447,1,1S20.552,50.399,20,50.399z"
		/>
	<path style="fill:#FFFFFF;" d="M17,46.399h-7c-0.552,0-1-0.447-1-1s0.448-1,1-1h7c0.552,0,1,0.447,1,1S17.552,46.399,17,46.399z"/>
	
		<rect x="28.5" y="10.778" transform="matrix(0.7071 0.7071 -0.7071 0.7071 17.7615 -17.0815)" style="fill:#38454F;" width="2" height="4.243"/>
	<path style="fill:#FFFFFF;" d="M15,42.399h-5c-0.552,0-1-0.447-1-1s0.448-1,1-1h5c0.552,0,1,0.447,1,1S15.552,42.399,15,42.399z"/>
</g>
<g>
</g>
<g>
</g>
<g>
</g>
<g>
</g>
<g>
</g>
<g>
</g>
<g>
</g>
<g>
</g>
<g>
</g>
<g>
</g>
<g>
</g>
<g>
</g>
<g>
</g>
<g>
</g>
<g>
</g>
</svg>
