<?xml version="1.0" encoding="iso-8859-1"?>
<!-- Generator: Adobe Illustrator 18.0.0, SVG Export Plug-In . SVG Version: 6.00 Build 0)  -->
<!DOCTYPE svg PUBLIC "-//W3C//DTD SVG 1.1//EN" "http://www.w3.org/Graphics/SVG/1.1/DTD/svg11.dtd">
<svg version="1.1" id="Capa_1" xmlns="http://www.w3.org/2000/svg" xmlns:xlink="http://www.w3.org/1999/xlink" x="0px" y="0px"
	 viewBox="0 0 57 57" style="enable-background:new 0 0 57 57;" xml:space="preserve">
<g>
	<path style="fill:#D2D5D7;" d="M44.828,46H12.172C9.316,46,7,43.671,7,40.799V28.336c0-0.875-0.236-1.733-0.684-2.482l-1.631-2.733
		C4.391,22.627,4.744,22,5.316,22h46.367c0.572,0,0.925,0.627,0.631,1.121l-1.631,2.734C50.236,26.604,50,27.462,50,28.336v12.462
		C50,43.671,47.684,46,44.828,46z"/>
	<path style="fill:#E6E6E6;" d="M11,17h35c1.585,0,5.197,3.861,5.197,3.861C51.493,21.362,51.137,22,50.562,22H6.438
		c-0.575,0-0.93-0.638-0.634-1.139C5.803,20.861,9.416,17,11,17z"/>
	<path style="fill:#E6E6E6;" d="M35.5,18h-15v-1c0-3.309,2.691-6,6-6h3c3.309,0,6,2.691,6,6V18z M22.626,16h10.747
		c-0.445-1.724-2.013-3-3.874-3h-3C24.64,13,23.072,14.276,22.626,16z"/>
	<path style="fill:#D2D5D7;" d="M54,34h-5v-6h5c1.654,0,3,1.346,3,3S55.654,34,54,34z M51,32h3c0.551,0,1-0.448,1-1s-0.449-1-1-1h-3
		V32z"/>
	<path style="fill:#D2D5D7;" d="M8,34H3c-1.654,0-3-1.346-3-3s1.346-3,3-3h5V34z M3,30c-0.551,0-1,0.448-1,1s0.449,1,1,1h3v-2H3z"/>
	<path style="fill:#FFFFFF;" d="M21,42H11c-0.552,0-1-0.447-1-1s0.448-1,1-1h10c0.552,0,1,0.447,1,1S21.552,42,21,42z"/>
	<path style="fill:#FFFFFF;" d="M18,38h-7c-0.552,0-1-0.447-1-1s0.448-1,1-1h7c0.552,0,1,0.447,1,1S18.552,38,18,38z"/>
	<path style="fill:#FFFFFF;" d="M16,34h-5c-0.552,0-1-0.447-1-1s0.448-1,1-1h5c0.552,0,1,0.447,1,1S16.552,34,16,34z"/>
</g>
<g>
</g>
<g>
</g>
<g>
</g>
<g>
</g>
<g>
</g>
<g>
</g>
<g>
</g>
<g>
</g>
<g>
</g>
<g>
</g>
<g>
</g>
<g>
</g>
<g>
</g>
<g>
</g>
<g>
</g>
</svg>
