<?xml version="1.0" encoding="iso-8859-1"?>
<!-- Generator: Adobe Illustrator 18.0.0, SVG Export Plug-In . SVG Version: 6.00 Build 0)  -->
<!DOCTYPE svg PUBLIC "-//W3C//DTD SVG 1.1//EN" "http://www.w3.org/Graphics/SVG/1.1/DTD/svg11.dtd">
<svg version="1.1" id="Capa_1" xmlns="http://www.w3.org/2000/svg" xmlns:xlink="http://www.w3.org/1999/xlink" x="0px" y="0px"
	 viewBox="0 0 49 49" style="enable-background:new 0 0 49 49;" xml:space="preserve">
<g>
	<path style="fill:#E6E6E6;" d="M36.186,48.5H12.814C9.051,48.5,6,45.449,6,41.686V12.5h37v29.186
		C43,45.449,39.949,48.5,36.186,48.5z"/>
	<rect y="11.5" style="fill:#D2D5D7;" width="49" height="2"/>
	<path style="fill:#D2D5D7;" d="M43,9.5H6v0c0-2.209,1.791-4,4-4h29C41.209,5.5,43,7.291,43,9.5L43,9.5z"/>
	<path style="fill:#D2D5D7;" d="M30,6.5H19v-1c0-2.757,2.243-5,5-5h1c2.757,0,5,2.243,5,5V6.5z M21.171,4.5h6.657
		c-0.413-1.164-1.525-2-2.829-2h-1C22.696,2.5,21.584,3.336,21.171,4.5z"/>
	<path style="fill:#D2D5D7;" d="M6,41.5v0.186c0,3.763,3.051,6.814,6.814,6.814h23.372c3.763,0,6.814-3.051,6.814-6.814V41.5H6z"/>
	<path style="fill:#FFFFFF;" d="M19,38.5H9c-0.552,0-1-0.447-1-1s0.448-1,1-1h10c0.552,0,1,0.447,1,1S19.552,38.5,19,38.5z"/>
	<path style="fill:#FFFFFF;" d="M16,34.5H9c-0.552,0-1-0.447-1-1s0.448-1,1-1h7c0.552,0,1,0.447,1,1S16.552,34.5,16,34.5z"/>
	<path style="fill:#FFFFFF;" d="M14,30.5H9c-0.552,0-1-0.447-1-1s0.448-1,1-1h5c0.552,0,1,0.447,1,1S14.552,30.5,14,30.5z"/>
</g>
<g>
</g>
<g>
</g>
<g>
</g>
<g>
</g>
<g>
</g>
<g>
</g>
<g>
</g>
<g>
</g>
<g>
</g>
<g>
</g>
<g>
</g>
<g>
</g>
<g>
</g>
<g>
</g>
<g>
</g>
</svg>
