<?xml version="1.0" encoding="iso-8859-1"?>
<!-- Generator: Adobe Illustrator 18.0.0, SVG Export Plug-In . SVG Version: 6.00 Build 0)  -->
<!DOCTYPE svg PUBLIC "-//W3C//DTD SVG 1.1//EN" "http://www.w3.org/Graphics/SVG/1.1/DTD/svg11.dtd">
<svg version="1.1" id="Capa_1" xmlns="http://www.w3.org/2000/svg" xmlns:xlink="http://www.w3.org/1999/xlink" x="0px" y="0px"
	 viewBox="0 0 53 53" style="enable-background:new 0 0 53 53;" xml:space="preserve">
<g>
	<circle style="fill:#D2D5D7;" cx="26.5" cy="26.5" r="26.5"/>
	<circle style="fill:#F2F2F2;" cx="26.5" cy="26.5" r="23.5"/>
	
		<ellipse transform="matrix(0.915 -0.4036 0.4036 0.915 -6.7659 6.5992)" style="fill:#F9D70B;" cx="12.274" cy="19.352" rx="5.175" ry="5.75"/>
	
		<ellipse transform="matrix(0.915 -0.4036 0.4036 0.915 -5.1443 14.2657)" style="fill:#F9DA49;" cx="31.274" cy="19.338" rx="5.175" ry="5.75"/>
	
		<ellipse transform="matrix(0.915 -0.4036 0.4036 0.915 -10.1828 9.0053)" style="fill:#EEAF4B;" cx="16.274" cy="28.662" rx="5.175" ry="5.75"/>
	<path style="fill:#ED3F32;" d="M24.063,33.644c-0.289,0-0.576-0.125-0.774-0.365c-0.35-0.428-0.288-1.058,0.139-1.408l6.878-5.644
		c0.429-0.351,1.058-0.287,1.408,0.139c0.35,0.428,0.288,1.058-0.139,1.408l-6.878,5.644C24.511,33.569,24.286,33.644,24.063,33.644
		z"/>
	<path style="fill:#436B1C;" d="M24.001,37.575c-0.289,0-0.576-0.125-0.774-0.365c-0.35-0.428-0.288-1.058,0.139-1.408l6.878-5.644
		c0.429-0.35,1.058-0.286,1.408,0.139c0.35,0.428,0.288,1.058-0.139,1.408l-6.878,5.644C24.448,37.501,24.224,37.575,24.001,37.575z
		"/>
	<path style="fill:#88C057;" d="M29.834,36.67c-0.289,0-0.576-0.125-0.774-0.365c-0.35-0.428-0.288-1.058,0.139-1.408l5.896-4.838
		c0.429-0.35,1.057-0.286,1.408,0.139c0.35,0.428,0.288,1.058-0.139,1.408l-5.896,4.838C30.281,36.596,30.057,36.67,29.834,36.67z"
		/>
	<path style="fill:#A4E869;" d="M27.807,42.214c-0.289,0-0.576-0.125-0.774-0.365c-0.35-0.428-0.288-1.058,0.139-1.408l6.878-5.644
		c0.429-0.351,1.058-0.287,1.408,0.139c0.35,0.428,0.288,1.058-0.139,1.408l-6.878,5.644C28.254,42.14,28.029,42.214,27.807,42.214z
		"/>
	<path style="fill:#EEAF4B;" d="M26.539,21.427c-1.277-2.896-0.206-6.172,2.391-7.336c-1.326-2.796-4.411-4.145-6.977-3.014
		c-2.615,1.153-3.696,4.444-2.414,7.349c1.282,2.906,4.44,4.326,7.055,3.173c0.008-0.004,0.015-0.01,0.023-0.014
		C26.593,21.532,26.563,21.481,26.539,21.427z"/>
</g>
<g>
</g>
<g>
</g>
<g>
</g>
<g>
</g>
<g>
</g>
<g>
</g>
<g>
</g>
<g>
</g>
<g>
</g>
<g>
</g>
<g>
</g>
<g>
</g>
<g>
</g>
<g>
</g>
<g>
</g>
</svg>
