<?xml version="1.0" encoding="iso-8859-1"?>
<!-- Generator: Adobe Illustrator 18.0.0, SVG Export Plug-In . SVG Version: 6.00 Build 0)  -->
<!DOCTYPE svg PUBLIC "-//W3C//DTD SVG 1.1//EN" "http://www.w3.org/Graphics/SVG/1.1/DTD/svg11.dtd">
<svg version="1.1" id="Capa_1" xmlns="http://www.w3.org/2000/svg" xmlns:xlink="http://www.w3.org/1999/xlink" x="0px" y="0px"
	 viewBox="0 0 56.948 56.948" style="enable-background:new 0 0 56.948 56.948;" xml:space="preserve">
<g>
	<path style="fill:#875832;" d="M51.361,45.496L29,23.135l3.965-3.965l22.361,22.361c1.101,1.08,1.101,2.831,0.021,3.911
		l-0.054,0.054C54.213,46.576,52.462,46.576,51.361,45.496z"/>
	<path style="fill:#A46F3E;" d="M43.477,11.156c-2.522-0.352-8.393-1.708-12.477,2l-2,2l-1.433-1.071
		c-2.304-1.72-4.992-2.896-7.845-3.253c-1.941-0.243-3.69-0.098-6.059,0.324C5.735,12.568,0,19.17,0,27.156
		c0,4.73,1.749,9.052,4.619,12.381l0.024,0.02l-1.968,1.973c-1.08,1.101-1.08,2.852,0,3.932l0.054,0.054
		c1.08,1.08,2.831,1.08,3.911-0.021l2.277-2.268l0.006,0.006c2.925,1.84,6.374,2.922,10.078,2.922h18.108
		c4.162,0,8.126-1.279,11.412-3.501l-4.234-4.234c-1.979,1.104-4.317,2.735-9.286,2.735H22c-5.344,0-6.803-1.496-8.619-2.381
		l15.63-15.63L29,23.135l3.965-3.965l0.011,0.01l0.011-0.01c6.28-7.139,18.367-1.307,18.005,8.477
		c-0.012,0.338-0.038,0.678-0.077,1.021c-0.257,2.266-1.122,4.319-2.403,6.05l4.167,4.167c1.842-2.229,3.205-4.876,3.875-7.839
		C58.772,21.242,51.25,12.239,43.477,11.156z M8.898,35.258c-1.512-1.834-2.528-4.086-2.812-6.591
		C6.048,28.333,6.023,28,6.01,27.671c-0.375-9.67,11.138-15.058,18.572-8.863L25,19.156L8.898,35.258z"/>
	<path style="fill:#FBD490;" d="M3,25.57c-0.552,0-1-0.447-1-1v-1.414c0-0.553,0.448-1,1-1s1,0.447,1,1v1.414
		C4,25.123,3.552,25.57,3,25.57z"/>
	<path style="fill:#FBD490;" d="M3.567,33.009c-0.214,0-0.429-0.068-0.611-0.209c-0.437-0.338-0.517-0.966-0.179-1.402l0.865-1.119
		c0.338-0.438,0.967-0.516,1.403-0.18c0.437,0.338,0.517,0.966,0.179,1.402L4.358,32.62C4.162,32.875,3.866,33.009,3.567,33.009z"/>
	<path style="fill:#FBD490;" d="M6.134,43.156c-0.214,0-0.429-0.068-0.611-0.209c-0.437-0.338-0.517-0.966-0.179-1.403l0.865-1.118
		c0.339-0.436,0.967-0.515,1.403-0.179c0.437,0.338,0.517,0.966,0.179,1.403l-0.865,1.118C6.729,43.022,6.433,43.156,6.134,43.156z"
		/>
	<path style="fill:#FBD490;" d="M18.138,44.661c-0.03,0-0.061-0.001-0.091-0.004l-1.408-0.128c-0.55-0.05-0.956-0.536-0.906-1.087
		c0.05-0.549,0.535-0.953,1.086-0.905l1.408,0.128c0.55,0.05,0.956,0.536,0.906,1.087C19.085,44.27,18.649,44.661,18.138,44.661z"/>
	<path style="fill:#FBD490;" d="M41.822,43.918c-0.342,0-0.675-0.176-0.862-0.491l-0.234-0.396
		c-0.281-0.476-0.124-1.089,0.352-1.369c0.476-0.281,1.089-0.123,1.37,0.352l0.234,0.396c0.281,0.476,0.124,1.089-0.352,1.369
		C42.17,43.873,41.995,43.918,41.822,43.918z"/>
	<path style="fill:#FBD490;" d="M29.235,44.551c-0.342,0-0.674-0.175-0.861-0.49l-0.234-0.395c-0.281-0.475-0.125-1.088,0.351-1.37
		c0.475-0.281,1.088-0.125,1.37,0.351l0.234,0.395c0.281,0.475,0.125,1.088-0.351,1.37C29.584,44.506,29.408,44.551,29.235,44.551z"
		/>
	<path style="fill:#FBD490;" d="M28.235,21.551c-0.342,0-0.674-0.175-0.861-0.49l-0.234-0.395c-0.281-0.475-0.125-1.088,0.351-1.37
		c0.475-0.281,1.088-0.125,1.37,0.351l0.234,0.395c0.281,0.475,0.125,1.088-0.351,1.37C28.584,21.506,28.408,21.551,28.235,21.551z"
		/>
	<path style="fill:#FBD490;" d="M22.001,15.156c-0.342,0-0.674-0.175-0.861-0.49l-0.234-0.395c-0.281-0.475-0.125-1.088,0.351-1.37
		c0.475-0.281,1.088-0.124,1.37,0.351l0.234,0.395c0.281,0.475,0.125,1.088-0.351,1.37C22.35,15.111,22.174,15.156,22.001,15.156z"
		/>
	<path style="fill:#FBD490;" d="M10.766,16.157c-0.171,0-0.345-0.044-0.504-0.137c-0.477-0.279-0.637-0.892-0.358-1.368l0.232-0.396
		c0.279-0.478,0.891-0.639,1.368-0.358c0.477,0.279,0.637,0.892,0.358,1.368l-0.232,0.396C11.444,15.98,11.11,16.157,10.766,16.157z
		"/>
	<path style="fill:#FBD490;" d="M18.235,30.551c-0.342,0-0.674-0.175-0.861-0.49l-0.234-0.395c-0.281-0.475-0.125-1.088,0.351-1.37
		c0.474-0.281,1.089-0.125,1.37,0.351l0.234,0.395c0.281,0.475,0.125,1.088-0.351,1.37C18.584,30.506,18.408,30.551,18.235,30.551z"
		/>
	<path style="fill:#FBD490;" d="M11.823,37.18c-0.088,0-0.177-0.012-0.266-0.036c-0.532-0.146-0.846-0.696-0.699-1.229l0.122-0.442
		c0.146-0.533,0.697-0.848,1.229-0.699c0.532,0.146,0.846,0.696,0.699,1.229l-0.122,0.442C12.665,36.889,12.262,37.18,11.823,37.18z
		"/>
	<path style="fill:#FBD490;" d="M22.879,26.156c-0.088,0-0.177-0.012-0.266-0.036c-0.532-0.146-0.846-0.696-0.699-1.229l0.122-0.442
		c0.146-0.533,0.696-0.847,1.229-0.699c0.532,0.146,0.846,0.696,0.699,1.229l-0.122,0.442
		C23.721,25.865,23.318,26.156,22.879,26.156z"/>
	<path style="fill:#FBD490;" d="M35,26.599c-0.088,0-0.177-0.012-0.266-0.036c-0.532-0.146-0.846-0.696-0.699-1.229l0.122-0.442
		c0.146-0.533,0.698-0.845,1.229-0.699c0.532,0.146,0.846,0.696,0.699,1.229l-0.122,0.442C35.842,26.308,35.439,26.599,35,26.599z"
		/>
	<path style="fill:#FBD490;" d="M41.746,33.058c-0.332,0-0.656-0.165-0.847-0.466c-0.295-0.467-0.155-1.085,0.312-1.38l0.388-0.245
		c0.467-0.293,1.085-0.154,1.379,0.312c0.295,0.467,0.155,1.085-0.312,1.38l-0.388,0.245C42.113,33.008,41.929,33.058,41.746,33.058
		z"/>
	<path style="fill:#FBD490;" d="M49.169,39.94c-0.008,0-0.016,0-0.024,0l-0.458-0.011c-0.552-0.014-0.989-0.472-0.976-1.023
		c0.013-0.552,0.447-0.983,1.023-0.977l0.458,0.011c0.552,0.014,0.989,0.472,0.976,1.023C50.155,39.508,49.71,39.94,49.169,39.94z"
		/>
	<path style="fill:#FBD490;" d="M53.365,31.347c-0.309,0-0.613-0.143-0.809-0.41l-0.27-0.37c-0.326-0.446-0.228-1.072,0.218-1.397
		c0.447-0.326,1.072-0.227,1.397,0.218l0.27,0.37c0.325,0.446,0.228,1.072-0.219,1.397C53.776,31.284,53.569,31.347,53.365,31.347z"
		/>
	<path style="fill:#FBD490;" d="M53.271,24.156c-0.309,0-0.614-0.143-0.81-0.412l-0.27-0.371c-0.325-0.446-0.227-1.071,0.22-1.396
		c0.447-0.323,1.072-0.227,1.397,0.221l0.27,0.371c0.325,0.446,0.227,1.071-0.22,1.396C53.681,24.094,53.475,24.156,53.271,24.156z"
		/>
	<path style="fill:#FBD490;" d="M47.459,16.167c-0.008,0-0.016,0-0.024,0l-0.458-0.011c-0.552-0.014-0.989-0.472-0.976-1.023
		c0.013-0.552,0.475-0.968,1.023-0.977l0.458,0.011c0.552,0.014,0.989,0.472,0.976,1.023C48.445,15.734,48,16.167,47.459,16.167z"/>
	<path style="fill:#FBD490;" d="M36.898,14.603c-0.074,0-0.15-0.008-0.226-0.025c-0.538-0.124-0.874-0.661-0.75-1.199l0.103-0.447
		c0.125-0.538,0.659-0.872,1.199-0.75c0.538,0.124,0.874,0.661,0.75,1.199l-0.103,0.447C37.765,14.291,37.353,14.603,36.898,14.603z
		"/>
</g>
<g>
</g>
<g>
</g>
<g>
</g>
<g>
</g>
<g>
</g>
<g>
</g>
<g>
</g>
<g>
</g>
<g>
</g>
<g>
</g>
<g>
</g>
<g>
</g>
<g>
</g>
<g>
</g>
<g>
</g>
</svg>
