<?xml version="1.0" encoding="iso-8859-1"?>
<!-- Generator: Adobe Illustrator 18.0.0, SVG Export Plug-In . SVG Version: 6.00 Build 0)  -->
<!DOCTYPE svg PUBLIC "-//W3C//DTD SVG 1.1//EN" "http://www.w3.org/Graphics/SVG/1.1/DTD/svg11.dtd">
<svg version="1.1" id="Capa_1" xmlns="http://www.w3.org/2000/svg" xmlns:xlink="http://www.w3.org/1999/xlink" x="0px" y="0px"
	 viewBox="0 0 55.575 55.575" style="enable-background:new 0 0 55.575 55.575;" xml:space="preserve">
<g>
	<path style="fill:#A46F3E;" d="M26.394,10.313c0.493,0.214,0.974,0.456,1.431,0.746c0.549-0.349,1.135-0.624,1.736-0.862
		C29.566,7,30.838,4.768,31.661,3.663c0.164-0.22-0.05-0.504-0.315-0.431c-2.025,0.552-4.212,0.083-5.636-0.38
		c-0.267-0.087-0.466,0.222-0.3,0.448C26.817,5.217,26.617,8.575,26.394,10.313z"/>
	<path style="fill:#EF771D;" d="M43.709,9.488c-1.913,0-3.741,0.572-5.351,1.571c-1.538-0.999-3.325-1.571-5.237-1.571
		s-3.72,0.572-5.294,1.571c-1.575-0.999-3.382-1.571-5.294-1.571c-1.913,0-3.699,0.572-5.237,1.571
		c-1.611-0.999-3.439-1.571-5.351-1.571c-18.846,2.509-13.346,42.125,2.354,43.25c1.629,0,3.148-0.417,4.468-1.151
		c1.373,0.735,2.922,1.151,4.551,1.151c1.629,0,3.164-0.417,4.51-1.151c1.346,0.735,2.88,1.151,4.51,1.151
		c1.629,0,3.179-0.417,4.551-1.151c1.319,0.735,2.839,1.151,4.468,1.151C59.284,52.738,60.472,7.3,43.709,9.488z"/>
	<g>
		<path style="fill:#F79959;" d="M43.476,23.023c0.02,0.001,0.038,0.002,0.058,0.002c0.526,0,0.968-0.411,0.997-0.943
			c0.215-3.811-1.077-7.493-3.545-10.104c-0.512-0.542-1.064-1.023-1.648-1.443c-0.333,0.162-0.664,0.328-0.981,0.525
			c-1.538-0.999-3.325-1.571-5.237-1.571c-1.913,0-3.72,0.572-5.294,1.571c-0.261-0.166-0.537-0.301-0.81-0.442
			c-0.544,0.401-1.062,0.853-1.542,1.362c-2.468,2.611-3.76,6.294-3.544,10.104l0.22,3.901c0.029,0.532,0.471,0.943,0.997,0.943
			c0.019,0,0.038-0.001,0.058-0.002c0.551-0.03,0.973-0.503,0.941-1.055l-0.22-3.901c-0.184-3.263,0.91-6.403,3.001-8.616
			c1.71-1.81,3.945-2.816,6.304-2.857c2.359,0.041,4.593,1.048,6.303,2.856c2.091,2.213,3.186,5.354,3.002,8.617
			C42.503,22.521,42.925,22.993,43.476,23.023z"/>
		<path style="fill:#F79959;" d="M22.531,9.488c-1.913,0-3.699,0.572-5.237,1.571c-0.317-0.197-0.65-0.363-0.983-0.526
			c-1.251,0.895-2.355,2.049-3.221,3.446c-0.291,0.469-0.146,1.085,0.323,1.376c0.164,0.103,0.346,0.15,0.525,0.15
			c0.335,0,0.662-0.168,0.851-0.474c1.791-2.889,4.612-4.545,7.742-4.545c0.527,0,0.946-0.41,0.985-0.926
			C23.19,9.527,22.865,9.488,22.531,9.488z"/>
		<path style="fill:#F79959;" d="M43.937,32.605c0.031-0.552-0.391-1.024-0.941-1.055c-0.537-0.023-1.024,0.39-1.055,0.941
			l-0.581,10.308c-0.272,4.819-4.167,8.749-8.752,8.922c-3.604-0.169-6.68-2.6-7.904-6.3c-0.173-0.524-0.741-0.814-1.263-0.636
			c-0.524,0.173-0.81,0.738-0.636,1.263c0.827,2.501,2.361,4.523,4.32,5.867c0.236-0.105,0.474-0.205,0.699-0.328
			c1.346,0.735,2.88,1.151,4.51,1.151c1.629,0,3.179-0.417,4.551-1.151c0.335,0.187,0.683,0.352,1.042,0.496
			c3.054-1.915,5.209-5.308,5.427-9.17L43.937,32.605z"/>
		<path style="fill:#F79959;" d="M24.303,52.675c-0.034-0.522-0.457-0.938-0.987-0.938c-4.719,0-8.784-4.01-9.063-8.938
			l-0.507-8.997c-0.03-0.551-0.497-0.977-1.055-0.941c-0.551,0.03-0.973,0.503-0.941,1.055l0.507,8.997
			c0.218,3.869,2.386,7.261,5.449,9.175c0.365-0.145,0.72-0.312,1.06-0.501c1.373,0.735,2.922,1.151,4.551,1.151
			C23.65,52.738,23.977,52.709,24.303,52.675z"/>
	</g>
</g>
<g>
</g>
<g>
</g>
<g>
</g>
<g>
</g>
<g>
</g>
<g>
</g>
<g>
</g>
<g>
</g>
<g>
</g>
<g>
</g>
<g>
</g>
<g>
</g>
<g>
</g>
<g>
</g>
<g>
</g>
</svg>
