<?xml version="1.0" encoding="iso-8859-1"?>
<!-- Generator: Adobe Illustrator 18.0.0, SVG Export Plug-In . SVG Version: 6.00 Build 0)  -->
<!DOCTYPE svg PUBLIC "-//W3C//DTD SVG 1.1//EN" "http://www.w3.org/Graphics/SVG/1.1/DTD/svg11.dtd">
<svg version="1.1" id="Capa_1" xmlns="http://www.w3.org/2000/svg" xmlns:xlink="http://www.w3.org/1999/xlink" x="0px" y="0px"
	 viewBox="0 0 49.803 49.803" style="enable-background:new 0 0 49.803 49.803;" xml:space="preserve">
<g>
	<path style="fill:#C69063;" d="M33.409,20.582c-0.11,0-0.222-0.018-0.332-0.057c-0.521-0.183-0.795-0.754-0.612-1.274L38.97,0.737
		c0.183-0.521,0.753-0.8,1.275-0.612c0.521,0.183,0.795,0.754,0.612,1.274l-6.505,18.514C34.208,20.325,33.821,20.582,33.409,20.582
		z"/>
	<path style="fill:#E6E6E6;" d="M23.954,49.737h6.744c0.992,0,1.604-1.083,1.092-1.932l-0.01-0.017
		c-0.709-1.177-0.847-2.657-0.215-3.877c0.552-1.066,1.449-1.946,2.579-2.486c7.719-3.686,13.193-7.804,13.762-16.206
		c0.054-0.796-0.572-1.481-1.37-1.481H23.954H1.374c-0.798,0-1.424,0.685-1.37,1.481c0.569,8.401,6.042,12.52,13.762,16.206
		c1.129,0.539,2.027,1.42,2.579,2.486c0.632,1.22,0.494,2.7-0.215,3.877l-0.01,0.017c-0.512,0.85,0.1,1.932,1.092,1.932H23.954z"/>
	<path style="fill:#659C35;" d="M16.604,13.192c-0.776-1.277-3.305-4.498-5.866-5.336c0,0-2.362,5.61,1.115,8.969
		c0.035,0.034,0.069,0.067,0.104,0.099C14.456,19.259,18.38,16.115,16.604,13.192z"/>
	<path style="fill:#FAF5E5;" d="M42.785,22.966c-0.61,0.008-0.907-0.742-0.457-1.154h0c0.481-0.44,0.106-1.237-0.54-1.147
		c-0.604,0.084-0.993-0.622-0.598-1.087c0.422-0.497-0.05-1.241-0.68-1.071c-0.589,0.159-1.063-0.493-0.729-1.004
		c0.356-0.546-0.205-1.225-0.808-0.977c-0.564,0.232-1.116-0.356-0.849-0.905c0.285-0.586-0.357-1.189-0.924-0.868h0
		c-0.531,0.301-1.152-0.213-0.956-0.791c0.209-0.617-0.504-1.135-1.026-0.745c-0.489,0.365-1.17-0.067-1.048-0.665
		c0.13-0.639-0.642-1.063-1.111-0.611c-0.439,0.423-1.169,0.08-1.123-0.528c0.049-0.65-0.77-0.975-1.179-0.467
		c-0.383,0.475-1.15,0.226-1.18-0.384c-0.033-0.651-0.886-0.87-1.228-0.315c-0.32,0.519-1.112,0.368-1.219-0.233
		c-0.114-0.642-0.988-0.752-1.258-0.159c-0.253,0.555-1.057,0.504-1.239-0.078c-0.194-0.623-1.075-0.623-1.268,0
		c-0.181,0.583-0.986,0.633-1.238,0.078c-0.27-0.594-1.144-0.483-1.258,0.159c-0.107,0.601-0.899,0.752-1.219,0.233
		c-0.342-0.555-1.196-0.336-1.228,0.315c-0.031,0.609-0.797,0.858-1.18,0.384c-0.409-0.508-1.228-0.183-1.179,0.467
		c0.02,0.262-0.108,0.469-0.29,0.593c0.36,0.466,0.649,0.884,0.834,1.187c1.777,2.923-2.148,6.067-4.647,3.731
		c-0.034-0.032-0.069-0.065-0.104-0.099c-0.675-0.652-1.125-1.389-1.42-2.153c-0.435,0.024-0.785,0.489-0.561,0.949
		c0.267,0.549-0.285,1.136-0.849,0.905c-0.603-0.248-1.165,0.431-0.808,0.977c0.333,0.511-0.141,1.163-0.729,1.004
		c-0.629-0.17-1.101,0.574-0.68,1.071c0.395,0.465,0.006,1.172-0.598,1.087c-0.646-0.09-1.021,0.707-0.54,1.147
		c0.45,0.412,0.153,1.162-0.457,1.154c-0.454-0.006-0.716,0.398-0.658,0.771h38.892C43.501,23.364,43.239,22.96,42.785,22.966z"/>
	<path style="fill:#ED7161;" d="M22.954,16.737c-0.256,0-0.512-0.098-0.707-0.293c-0.391-0.391-0.391-1.023,0-1.414l1-1
		c0.391-0.391,1.023-0.391,1.414,0s0.391,1.023,0,1.414l-1,1C23.466,16.639,23.21,16.737,22.954,16.737z"/>
	<path style="fill:#C69063;" d="M35.193,21.48c-0.204,0-0.41-0.063-0.588-0.192c-0.446-0.325-0.544-0.95-0.219-1.396l13.61-18.671
		c0.325-0.446,0.951-0.545,1.397-0.219c0.446,0.325,0.544,0.95,0.219,1.396l-13.61,18.671C35.806,21.338,35.501,21.48,35.193,21.48z
		"/>
	<path style="fill:#ED7161;" d="M19.954,19.737c-0.256,0-0.512-0.098-0.707-0.293l-1-1c-0.391-0.391-0.391-1.023,0-1.414
		s1.023-0.391,1.414,0l1,1c0.391,0.391,0.391,1.023,0,1.414C20.466,19.639,20.21,19.737,19.954,19.737z"/>
	<path style="fill:#ED7161;" d="M23.954,21.737c-0.256,0-0.512-0.098-0.707-0.293c-0.391-0.391-0.391-1.023,0-1.414l1-1
		c0.391-0.391,1.023-0.391,1.414,0s0.391,1.023,0,1.414l-1,1C24.466,21.639,24.21,21.737,23.954,21.737z"/>
	<path style="fill:#ED7161;" d="M28.954,17.737c-0.256,0-0.512-0.098-0.707-0.293l-1-1c-0.391-0.391-0.391-1.023,0-1.414
		s1.023-0.391,1.414,0l1,1c0.391,0.391,0.391,1.023,0,1.414C29.466,17.639,29.21,17.737,28.954,17.737z"/>
	<path style="fill:#ED7161;" d="M28.954,21.737c-0.256,0-0.512-0.098-0.707-0.293c-0.391-0.391-0.391-1.023,0-1.414l1-1
		c0.391-0.391,1.023-0.391,1.414,0s0.391,1.023,0,1.414l-1,1C29.466,21.639,29.21,21.737,28.954,21.737z"/>
	<path style="fill:#ED7161;" d="M10.954,21.737c-0.256,0-0.512-0.098-0.707-0.293c-0.391-0.391-0.391-1.023,0-1.414l1-1
		c0.391-0.391,1.023-0.391,1.414,0s0.391,1.023,0,1.414l-1,1C11.466,21.639,11.21,21.737,10.954,21.737z"/>
	<path style="fill:#ED7161;" d="M16.954,21.737h-1c-0.552,0-1-0.447-1-1s0.448-1,1-1h1c0.552,0,1,0.447,1,1
		S17.507,21.737,16.954,21.737z"/>
	<path style="fill:#FFFFFF;" d="M20.116,40.773c-0.12,0-0.242-0.021-0.36-0.067c-4.102-1.582-7.202-3.315-9.755-5.454
		c-0.423-0.354-0.479-0.985-0.125-1.409c0.355-0.423,0.985-0.479,1.409-0.124c2.38,1.993,5.3,3.621,9.191,5.122
		c0.515,0.198,0.772,0.777,0.573,1.293C20.896,40.53,20.518,40.773,20.116,40.773z"/>
	<path style="fill:#FFFFFF;" d="M8.016,32.759c-0.301,0-0.598-0.135-0.795-0.393c-0.726-0.949-1.327-1.971-1.789-3.036
		c-0.219-0.507,0.014-1.096,0.521-1.315c0.506-0.22,1.095,0.014,1.315,0.521c0.396,0.917,0.915,1.797,1.542,2.616
		c0.335,0.438,0.251,1.066-0.187,1.401C8.442,32.691,8.228,32.759,8.016,32.759z"/>
</g>
<g>
</g>
<g>
</g>
<g>
</g>
<g>
</g>
<g>
</g>
<g>
</g>
<g>
</g>
<g>
</g>
<g>
</g>
<g>
</g>
<g>
</g>
<g>
</g>
<g>
</g>
<g>
</g>
<g>
</g>
</svg>
