<?xml version="1.0" encoding="iso-8859-1"?>
<!-- Generator: Adobe Illustrator 18.0.0, SVG Export Plug-In . SVG Version: 6.00 Build 0)  -->
<!DOCTYPE svg PUBLIC "-//W3C//DTD SVG 1.1//EN" "http://www.w3.org/Graphics/SVG/1.1/DTD/svg11.dtd">
<svg version="1.1" id="Capa_1" xmlns="http://www.w3.org/2000/svg" xmlns:xlink="http://www.w3.org/1999/xlink" x="0px" y="0px"
	 viewBox="0 0 56.633 56.633" style="enable-background:new 0 0 56.633 56.633;" xml:space="preserve">
<g>
	<path style="fill:#FBD490;" d="M49.554,18.195L18.382,49.783c-0.778,0.778-2.051,0.778-2.828,0l-9-8.417
		c-0.778-0.778-0.778-2.051,0-2.828l32-31.588c0.778-0.778,2.051-0.778,2.828,0l8.172,8.417
		C50.332,16.145,50.332,17.417,49.554,18.195z"/>
	<path style="fill:#FBD490;" d="M50.557,1.039l-6.045,9.065l2.121,2.121l8.96-6.15c1.385-1.385,1.385-3.652,0-5.037
		C54.209-0.346,51.943-0.346,50.557,1.039z"/>
	<path style="fill:#FBD490;" d="M6.076,55.594l6.15-8.96l-2.121-2.121l-9.065,6.045c-1.385,1.385-1.385,3.652,0,5.037
		C2.424,56.979,4.69,56.979,6.076,55.594z"/>
	<g>
		<path style="fill:#D8B177;" d="M17.261,33.66c-0.391-0.391-1.023-0.391-1.414,0l-5,5c-0.391,0.391-0.391,1.023,0,1.414
			c0.195,0.195,0.451,0.293,0.707,0.293s0.512-0.098,0.707-0.293l5-5C17.651,34.683,17.651,34.05,17.261,33.66z"/>
		<path style="fill:#D8B177;" d="M23.261,33.66c-0.391-0.391-1.023-0.391-1.414,0l-8,8c-0.391,0.391-0.391,1.023,0,1.414
			c0.195,0.195,0.451,0.293,0.707,0.293s0.512-0.098,0.707-0.293l8-8C23.651,34.683,23.651,34.05,23.261,33.66z"/>
		<path style="fill:#D8B177;" d="M29.261,33.66c-0.391-0.391-1.023-0.391-1.414,0l-11,11c-0.391,0.391-0.391,1.023,0,1.414
			c0.195,0.195,0.451,0.293,0.707,0.293s0.512-0.098,0.707-0.293l11-11C29.651,34.683,29.651,34.05,29.261,33.66z"/>
	</g>
</g>
<g>
</g>
<g>
</g>
<g>
</g>
<g>
</g>
<g>
</g>
<g>
</g>
<g>
</g>
<g>
</g>
<g>
</g>
<g>
</g>
<g>
</g>
<g>
</g>
<g>
</g>
<g>
</g>
<g>
</g>
</svg>
