<?xml version="1.0" encoding="iso-8859-1"?>
<!-- Generator: Adobe Illustrator 18.0.0, SVG Export Plug-In . SVG Version: 6.00 Build 0)  -->
<!DOCTYPE svg PUBLIC "-//W3C//DTD SVG 1.1//EN" "http://www.w3.org/Graphics/SVG/1.1/DTD/svg11.dtd">
<svg version="1.1" id="Capa_1" xmlns="http://www.w3.org/2000/svg" xmlns:xlink="http://www.w3.org/1999/xlink" x="0px" y="0px"
	 viewBox="0 0 55.384 55.384" style="enable-background:new 0 0 55.384 55.384;" xml:space="preserve">
<g>
	<path style="fill:#965E5E;" d="M5.384,17.192c0-0.639,0.066-1.263,0.168-1.874l-4.279-3.209c-0.609-0.457-1.449,0.122-1.24,0.854
		l1.267,4.433c0.055,0.191,0.036,0.396-0.053,0.573l-0.958,1.915c-0.323,0.646,0.313,1.352,0.989,1.099l4.32-1.62
		C5.461,18.658,5.384,17.934,5.384,17.192z"/>
	<path style="fill:#773F3A;" d="M45.884,28.692h-29c-6.325,0-11.5-5.175-11.5-11.5v0c0-6.325,5.175-11.5,11.5-11.5h29
		c6.325,0,9.5,5.175,9.5,11.5v0C55.384,23.517,52.209,28.692,45.884,28.692z"/>
	<path style="fill:#C56458;" d="M55.384,17.192c0,6.351-3.149,11.5-9.5,11.5s-9.5-5.149-9.5-11.5s3.149-11.5,9.5-11.5
		S55.384,10.841,55.384,17.192z"/>
	<g>
		<path style="fill:#CBA598;" d="M47.274,17.593c-0.431,0.008-0.785,0.418-0.785,0.916s0.355,0.882,0.785,0.858
			c0.423-0.023,0.76-0.433,0.76-0.915C48.034,17.97,47.697,17.585,47.274,17.593z"/>
		<path style="fill:#CBA598;" d="M41.177,19.706c-0.548,0.03-1,0.511-1,1.074s0.452,0.977,1,0.926
			c0.537-0.05,0.964-0.529,0.964-1.072S41.714,19.676,41.177,19.706z"/>
		<path style="fill:#CBA598;" d="M41.177,12.706c0.537,0.04,0.964-0.368,0.964-0.911c0-0.542-0.427-1.03-0.964-1.089
			c-0.548-0.061-1,0.345-1,0.907S40.629,12.666,41.177,12.706z"/>
		<path style="fill:#CBA598;" d="M48.771,21.862c-0.404,0.045-0.737,0.473-0.737,0.955s0.333,0.824,0.737,0.764
			c0.397-0.059,0.714-0.485,0.714-0.952C49.485,22.162,49.168,21.818,48.771,21.862z"/>
		<path style="fill:#CBA598;" d="M44.838,21.367c-0.96,0.089-1.766,1.028-1.766,2.094c0,1.066,0.806,1.795,1.766,1.635
			c0.925-0.154,1.65-1.082,1.65-2.078C46.489,22.022,45.763,21.281,44.838,21.367z"/>
		<path style="fill:#CBA598;" d="M45.677,12.123c0.895,0.083,1.597-0.646,1.597-1.626c0-0.98-0.702-1.891-1.597-2.04
			c-0.928-0.155-1.707,0.564-1.707,1.612C43.97,11.116,44.749,12.037,45.677,12.123z"/>
		<path style="fill:#CBA598;" d="M41.177,16.706c0,1.104,0.865,1.968,1.895,1.93c0.991-0.037,1.766-0.9,1.766-1.93
			c0-1.03-0.776-1.893-1.766-1.93C42.042,14.738,41.177,15.601,41.177,16.706z"/>
		<path style="fill:#CBA598;" d="M49.131,12.443c-0.599-0.055-1.096,0.485-1.096,1.208s0.497,1.328,1.096,1.35
			c0.584,0.022,1.047-0.521,1.047-1.211S49.715,12.497,49.131,12.443z"/>
	</g>
	<path style="fill:#C56458;" d="M17.814,46.329c-7.664,0-12.283-3.363-9.974-8.239c1.579-3.333,5.674-4.622,9.974-4.622
		s8.395,1.289,9.974,4.622C30.097,42.965,25.477,46.329,17.814,46.329z"/>
	<g>
		<path style="fill:#CBA598;" d="M16.015,39.842c-0.501,0-0.939,0.31-0.98,0.704c-0.042,0.409,0.356,0.751,0.89,0.751
			c0.534,0,0.975-0.342,0.983-0.751C16.916,40.152,16.516,39.842,16.015,39.842z"/>
		<path style="fill:#CBA598;" d="M15.463,36.388c0.027-0.264-0.285-0.473-0.697-0.473s-0.784,0.209-0.833,0.473
			c-0.05,0.272,0.26,0.499,0.693,0.499S15.435,36.66,15.463,36.388z"/>
		<path style="fill:#CBA598;" d="M21.698,36.887c0.434,0,0.725-0.226,0.652-0.498c-0.071-0.264-0.46-0.473-0.872-0.473
			s-0.707,0.209-0.658,0.473C20.87,36.66,21.264,36.887,21.698,36.887z"/>
		<path style="fill:#CBA598;" d="M12.314,41.304c-0.534,0-1.076,0.353-1.215,0.802c-0.144,0.467,0.198,0.859,0.771,0.859
			s1.125-0.392,1.231-0.859C13.202,41.656,12.848,41.304,12.314,41.304z"/>
		<path style="fill:#CBA598;" d="M12.127,37.413c-0.892,0-1.789,0.496-2.015,1.144c-0.242,0.691,0.363,1.286,1.365,1.286
			s1.925-0.595,2.053-1.286C13.65,37.909,13.019,37.413,12.127,37.413z"/>
		<path style="fill:#CBA598;" d="M25.739,39.18c-0.269-0.687-1.218-1.211-2.135-1.211s-1.542,0.525-1.386,1.211
			c0.166,0.734,1.148,1.367,2.183,1.367S26.026,39.914,25.739,39.18z"/>
		<path style="fill:#CBA598;" d="M17.759,36.388c-0.845,0-1.558,0.445-1.594,1.024c-0.038,0.616,0.695,1.144,1.639,1.144
			c0.944,0,1.655-0.528,1.591-1.144C19.335,36.833,18.604,36.388,17.759,36.388z"/>
		<path style="fill:#CBA598;" d="M21.246,41.298c-0.802,0-1.396,0.533-1.325,1.224c0.075,0.733,0.861,1.359,1.751,1.359
			c0.89,0,1.469-0.626,1.303-1.359C22.818,41.83,22.048,41.298,21.246,41.298z"/>
	</g>
	<path style="fill:#AF564F;" d="M17.814,46.329c-5.291,0-9.129-1.605-10.239-4.202c-1.589,4.508,2.935,7.565,10.239,7.565
		s11.828-3.058,10.239-7.565C26.942,44.724,23.105,46.329,17.814,46.329z"/>
	<path style="fill:#965E5E;" d="M34.311,12.692H15.853c-0.553,0-1-0.447-1-1s0.447-1,1-1h18.458c0.553,0,1,0.447,1,1
		S34.863,12.692,34.311,12.692z"/>
	<path style="fill:#965E5E;" d="M36.048,9.692H25.853c-0.553,0-1-0.447-1-1s0.447-1,1-1h10.195c0.553,0,1,0.447,1,1
		S36.601,9.692,36.048,9.692z"/>
	<path style="fill:#965E5E;" d="M34.327,23.692H23.111c-0.553,0-1-0.447-1-1s0.447-1,1-1h11.216c0.553,0,1,0.447,1,1
		S34.88,23.692,34.327,23.692z"/>
	<path style="fill:#965E5E;" d="M36.048,26.692H25.962c-0.553,0-1-0.447-1-1s0.447-1,1-1h10.086c0.553,0,1,0.447,1,1
		S36.601,26.692,36.048,26.692z"/>
</g>
<g>
</g>
<g>
</g>
<g>
</g>
<g>
</g>
<g>
</g>
<g>
</g>
<g>
</g>
<g>
</g>
<g>
</g>
<g>
</g>
<g>
</g>
<g>
</g>
<g>
</g>
<g>
</g>
<g>
</g>
</svg>
