<?xml version="1.0" encoding="iso-8859-1"?>
<!-- Generator: Adobe Illustrator 18.0.0, SVG Export Plug-In . SVG Version: 6.00 Build 0)  -->
<!DOCTYPE svg PUBLIC "-//W3C//DTD SVG 1.1//EN" "http://www.w3.org/Graphics/SVG/1.1/DTD/svg11.dtd">
<svg version="1.1" id="Capa_1" xmlns="http://www.w3.org/2000/svg" xmlns:xlink="http://www.w3.org/1999/xlink" x="0px" y="0px"
	 viewBox="0 0 49 49" style="enable-background:new 0 0 49 49;" xml:space="preserve">
<g>
	<path style="fill:#6A3311;" d="M46.5,40.153h-44c-1.375,0-2.5-1.125-2.5-2.5v0c0-1.375,1.125-2.5,2.5-2.5h44
		c1.375,0,2.5,1.125,2.5,2.5v0C49,39.028,47.875,40.153,46.5,40.153z"/>
	<path style="fill:#A8431A;" d="M46.5,36.153h-44c-1.375,0-2.5-1.125-2.5-2.5v0c0-1.375,1.125-2.5,2.5-2.5h44
		c1.375,0,2.5,1.125,2.5,2.5v0C49,35.028,47.875,36.153,46.5,36.153z"/>
	<path style="fill:#ED3F32;" d="M6.5,29.153c-2.75,0-2.384-1.008-2.5-2c-2.642,0.501-4,2.004-4,3.5c0,1.933,3.134,3.5,7,3.5
		s7-1.567,7-3.5c0-0.538-0.25-1.045-0.683-1.5H6.5z"/>
	<path style="fill:#F9EA80;" d="M13.298,29.153c0.437,0.456,0.702,0.961,0.702,1.5c0,0.816-0.563,1.565-1.5,2.16
		c1.282,0.815,3.266,1.34,5.5,1.34c3.866,0,7-1.567,7-3.5c0-0.538-0.25-1.045-0.683-1.5H13.298z"/>
	<rect x="3" y="23.153" style="fill:#D28F1B;" width="42" height="6"/>
	<polygon style="fill:#FDE3AA;" points="45,23.153 3,23.153 24,2.153 	"/>
	<path style="fill:#F9EA80;" d="M45,28.692v0.46h-9.207c-0.117,0.056-0.226,0.114-0.332,0.174C35.799,29.736,36,30.181,36,30.653
		c0,0.712-0.428,1.374-1.159,1.927c1.184,0.937,3.498,1.573,6.159,1.573c3.866,0,7-1.343,7-3C48,30.134,46.812,29.235,45,28.692z"/>
	<path style="fill:#ED3F32;" d="M24.305,29.153c0.437,0.455,0.695,0.961,0.695,1.5c0,0.658-0.369,1.27-1,1.796
		c1.223,1.019,3.449,1.704,6,1.704c3.866,0,7-1.567,7-3.5c0-0.538-0.25-1.045-0.683-1.5H24.305z"/>
	<circle style="fill:#D28F1B;" cx="34" cy="19.153" r="1"/>
	<circle style="fill:#D28F1B;" cx="23" cy="10.153" r="1"/>
	<circle style="fill:#D28F1B;" cx="14" cy="19.153" r="1"/>
	<circle style="fill:#D28F1B;" cx="27" cy="16.153" r="1"/>
	<circle style="fill:#D28F1B;" cx="21" cy="17.153" r="1"/>
	<rect x="1.224" y="40.153" style="fill:#FDE3AA;" width="45.776" height="6.695"/>
	<circle style="fill:#D28F1B;" cx="31" cy="42.153" r="1"/>
	<circle style="fill:#D28F1B;" cx="39" cy="44.153" r="1"/>
	<circle style="fill:#D28F1B;" cx="7" cy="44.153" r="1"/>
	<circle style="fill:#D28F1B;" cx="24" cy="44.153" r="1"/>
	<circle style="fill:#D28F1B;" cx="15" cy="42.153" r="1"/>
</g>
<g>
</g>
<g>
</g>
<g>
</g>
<g>
</g>
<g>
</g>
<g>
</g>
<g>
</g>
<g>
</g>
<g>
</g>
<g>
</g>
<g>
</g>
<g>
</g>
<g>
</g>
<g>
</g>
<g>
</g>
</svg>
