<?xml version="1.0" encoding="iso-8859-1"?>
<!-- Generator: Adobe Illustrator 18.0.0, SVG Export Plug-In . SVG Version: 6.00 Build 0)  -->
<!DOCTYPE svg PUBLIC "-//W3C//DTD SVG 1.1//EN" "http://www.w3.org/Graphics/SVG/1.1/DTD/svg11.dtd">
<svg version="1.1" id="Capa_1" xmlns="http://www.w3.org/2000/svg" xmlns:xlink="http://www.w3.org/1999/xlink" x="0px" y="0px"
	 viewBox="0 0 48.053 48.053" style="enable-background:new 0 0 48.053 48.053;" xml:space="preserve">
<g>
	<path style="fill:#A46F3E;" d="M35.882,10.725c-0.029,5.421-1.169,11.11-7.605,17.546c-6.277,6.277-12.012,7.572-17.368,7.626
		c-0.457-0.055-1.419,0.013-1.419,0.013c-1.146,0.158-2.253,0.672-3.134,1.553c-2.095,2.095-2.141,5.458-0.147,7.615
		c0,0,0.503,0.488,0.69,0.633c6.43,5.24,19.501,1.406,29.863-8.955s14.195-23.433,8.955-29.863c-0.145-0.188-0.633-0.69-0.633-0.69
		c-2.157-1.993-5.52-1.948-7.615,0.147C36.273,7.548,35.744,9.16,35.882,10.725z"/>
	<path style="fill:#BF8555;" d="M22.53,38.795c-0.384,0-0.75-0.222-0.915-0.595c-0.224-0.505,0.004-1.096,0.509-1.319
		c8.983-3.98,15.645-12.437,16.577-21.043c0.06-0.549,0.556-0.955,1.102-0.887c0.55,0.06,0.946,0.553,0.887,1.102
		c-1.022,9.438-7.991,18.33-17.755,22.656C22.802,38.768,22.665,38.795,22.53,38.795z"/>
	<path style="fill:#BF8555;" d="M14.942,40.635c-0.539,0-0.983-0.429-0.999-0.972c-0.016-0.552,0.419-1.012,0.972-1.028
		c1.286-0.036,2.606-0.233,3.923-0.584c0.529-0.142,1.081,0.174,1.224,0.708c0.143,0.533-0.175,1.082-0.708,1.224
		c-1.467,0.392-2.94,0.61-4.382,0.652C14.962,40.635,14.952,40.635,14.942,40.635z"/>
	<path style="fill:#BF8555;" d="M5.322,38.949l-4.05-3.037c-0.609-0.456-1.449,0.122-1.24,0.854l1.267,4.433
		c0.055,0.191,0.035,0.395-0.053,0.573l-0.958,1.915c-0.323,0.646,0.313,1.352,0.989,1.099l3.853-1.445
		C4.578,41.921,4.651,40.329,5.322,38.949z"/>
	<path style="fill:#BF8555;" d="M38.942,5.329l-3.037-4.05c-0.456-0.609,0.122-1.449,0.854-1.24l4.433,1.267
		c0.191,0.055,0.395,0.035,0.573-0.053l1.915-0.958c0.646-0.323,1.352,0.313,1.099,0.989l-1.445,3.853
		C41.914,4.585,40.321,4.658,38.942,5.329z"/>
</g>
<g>
</g>
<g>
</g>
<g>
</g>
<g>
</g>
<g>
</g>
<g>
</g>
<g>
</g>
<g>
</g>
<g>
</g>
<g>
</g>
<g>
</g>
<g>
</g>
<g>
</g>
<g>
</g>
<g>
</g>
</svg>
