<?xml version="1.0" encoding="iso-8859-1"?>
<!-- Generator: Adobe Illustrator 18.0.0, SVG Export Plug-In . SVG Version: 6.00 Build 0)  -->
<!DOCTYPE svg PUBLIC "-//W3C//DTD SVG 1.1//EN" "http://www.w3.org/Graphics/SVG/1.1/DTD/svg11.dtd">
<svg version="1.1" id="Capa_1" xmlns="http://www.w3.org/2000/svg" xmlns:xlink="http://www.w3.org/1999/xlink" x="0px" y="0px"
	 viewBox="0 0 56 56" style="enable-background:new 0 0 56 56;" xml:space="preserve">
<g>
	<path style="fill:#E6E6E6;" d="M50,0c0,7.456-9.85,15-22,15S6,7.456,6,0H50z"/>
	<path style="fill:#A5A5A5;" d="M27.969,19c2.163,0,4.203,0.506,6.031,1.384V14.37C32.092,14.774,30.081,15,28,15
		s-4.092-0.226-6-0.63v5.984C23.812,19.495,25.83,19,27.969,19z"/>
	<path style="fill:#D2D5D7;" d="M12,56c-0.553,0-1-0.447-1-1s0.447-1,1-1c1.654,0,3-1.346,3-3c0-0.553,0.447-1,1-1s1,0.447,1,1
		C17,53.757,14.757,56,12,56z"/>
	<path style="fill:#D2D5D7;" d="M45,56c-2.757,0-5-2.243-5-5c0-0.553,0.447-1,1-1s1,0.447,1,1c0,1.654,1.346,3,3,3
		c0.553,0,1,0.447,1,1S45.553,56,45,56z"/>
	<path style="fill:#38454F;" d="M40.026,40c-2.423,4.145-6.909,6.938-12.057,6.938S18.335,44.145,15.912,40h-5.054
		c-1.982,0-3.361,1.969-2.684,3.831L10.781,51h35.438l2.607-7.169C49.503,41.969,48.124,40,46.142,40H40.026z"/>
	<path style="fill:#FFFFFF;" d="M26.989,11c-2.746,0-5.275-0.422-7.519-1.254c-0.518-0.192-0.782-0.768-0.59-1.285
		s0.768-0.784,1.285-0.59C22.186,8.62,24.481,9,26.989,9C26.993,9,26.996,9,27,9l0,0c0.552,0,1,0.447,1,1c0,0.552-0.447,1-1,1
		C26.997,11,26.993,11,26.989,11z"/>
	<path style="fill:#FFFFFF;" d="M16.447,7.861c-0.236,0-0.474-0.083-0.664-0.252C14.669,6.621,14.036,5.349,14,4.027
		C13.985,3.475,14.421,3.016,14.973,3C15.507,3.02,15.985,3.42,16,3.973c0.021,0.763,0.415,1.523,1.111,2.141
		c0.413,0.366,0.45,0.999,0.084,1.412C16.998,7.748,16.723,7.861,16.447,7.861z"/>
	<circle style="fill:#E6E6E6;" cx="27.969" cy="32.969" r="13.969"/>
	<g>
		<circle style="fill:#DAE7EF;" cx="27.969" cy="32.969" r="13.969"/>
		<path style="fill:#BBD7EA;" d="M27.969,47.438c-7.979,0-14.469-6.49-14.469-14.469S19.99,18.5,27.969,18.5
			s14.469,6.49,14.469,14.469S35.947,47.438,27.969,47.438z M27.969,19.5c-7.427,0-13.469,6.042-13.469,13.469
			s6.042,13.469,13.469,13.469s13.469-6.042,13.469-13.469S35.396,19.5,27.969,19.5z"/>
	</g>
	<path style="fill:#ED3F32;" d="M30.047,34.384L30.047,34.384c-1.683,0-3.047-1.364-3.047-3.047v0c0-1.338,5.566-4.187,7.846-5.298
		c0.32-0.156,0.655,0.179,0.499,0.499C34.234,28.818,31.385,34.384,30.047,34.384z"/>
	<path style="fill:#FFFFFF;" d="M28,24h-1c-0.553,0-1-0.447-1-1s0.447-1,1-1h1c0.553,0,1,0.447,1,1S28.553,24,28,24z"/>
	<path style="fill:#FFFFFF;" d="M28,43h-1c-0.553,0-1-0.447-1-1s0.447-1,1-1h1c0.553,0,1,0.447,1,1S28.553,43,28,43z"/>
	<path style="fill:#FFFFFF;" d="M19,33h-1c-0.553,0-1-0.447-1-1s0.447-1,1-1h1c0.553,0,1,0.447,1,1S19.553,33,19,33z"/>
	<path style="fill:#FFFFFF;" d="M38,33h-1c-0.553,0-1-0.447-1-1s0.447-1,1-1h1c0.553,0,1,0.447,1,1S38.553,33,38,33z"/>
</g>
<g>
</g>
<g>
</g>
<g>
</g>
<g>
</g>
<g>
</g>
<g>
</g>
<g>
</g>
<g>
</g>
<g>
</g>
<g>
</g>
<g>
</g>
<g>
</g>
<g>
</g>
<g>
</g>
<g>
</g>
</svg>
