<?xml version="1.0" encoding="iso-8859-1"?>
<!-- Generator: Adobe Illustrator 18.0.0, SVG Export Plug-In . SVG Version: 6.00 Build 0)  -->
<!DOCTYPE svg PUBLIC "-//W3C//DTD SVG 1.1//EN" "http://www.w3.org/Graphics/SVG/1.1/DTD/svg11.dtd">
<svg version="1.1" id="Capa_1" xmlns="http://www.w3.org/2000/svg" xmlns:xlink="http://www.w3.org/1999/xlink" x="0px" y="0px"
	 viewBox="0 0 49.513 49.513" style="enable-background:new 0 0 49.513 49.513;" xml:space="preserve">
<g>
	<path style="fill:#2D1E1C;" d="M21.472,33.696c0.559-1.426,1.214-2.821,1.977-4.159c1.222-2.149,2.685-4.159,4.356-5.937
		c3.186-2.879,6.168-4.619,8.685-5.658c0.08-0.513,0.153-1.026,0.205-1.54v0C36.888,6.503,33.225,1.377,31.826,0h0
		c-1.953,0.2-8.017,1.909-14.058,9.752c-1.326,2.049-2.408,4.288-3.226,6.62c-0.821,2.332-1.377,4.755-1.624,7.183
		c-0.192,9.898,5.789,8.425,7.187,9.803v0h0C20.491,33.318,20.945,33.477,21.472,33.696z"/>
	<g>
		<path style="fill:#564442;" d="M20.901,36.314c0.255-0.884,0.566-1.756,0.905-2.619l0,0.001c-0.527-0.219-0.981-0.377-1.365-0.338
			h0v0c-1.399-1.377-7.38,0.095-7.187-9.803c0.246-2.428,0.803-4.851,1.624-7.183c0.451-1.287,0.991-2.541,1.599-3.754
			c-3.1-2.458-5.725-3.325-6.892-3.528l0,0C8.092,10.366,4.08,15.224,3.58,25.111l0,0c0.076,2.44,0.462,4.896,1.118,7.279
			c0.653,2.384,1.575,4.693,2.755,6.829v0c5.478,8.246,9.556,3.63,11.49,3.966h0c0.406-0.348,1.138-0.461,1.996-0.641
			C20.452,41.128,20.328,39.156,20.901,36.314z"/>
	</g>
	<path style="fill:#56413E;" d="M35.653,28.789l3.873-11.849c-2.961,0.722-7.131,2.511-11.721,6.659
		c-1.671,1.779-3.135,3.789-4.356,5.937c-1.224,2.148-2.205,4.432-2.881,6.777c-1.957,9.705,4.19,9.324,5.321,10.929h0
		c1.957,0.152,4.769,5.633,12.114-1.005v0c1.671-1.779,3.135-3.788,4.356-5.937c1.224-2.148,2.205-4.432,2.881-6.777v0
		c1.094-5.425,0.736-9.596,0.01-12.502L35.653,28.789z"/>
	<path style="fill:#F9EA80;" d="M35.653,28.789l8.256-6.682c-0.498-1.887-1.164-3.139-1.585-3.738v0
		c-0.645-0.05-1.824-0.008-3.386,0.373L35.653,28.789z"/>
</g>
<g>
</g>
<g>
</g>
<g>
</g>
<g>
</g>
<g>
</g>
<g>
</g>
<g>
</g>
<g>
</g>
<g>
</g>
<g>
</g>
<g>
</g>
<g>
</g>
<g>
</g>
<g>
</g>
<g>
</g>
</svg>
