<?xml version="1.0" encoding="iso-8859-1"?>
<!-- Generator: Adobe Illustrator 18.0.0, SVG Export Plug-In . SVG Version: 6.00 Build 0)  -->
<!DOCTYPE svg PUBLIC "-//W3C//DTD SVG 1.1//EN" "http://www.w3.org/Graphics/SVG/1.1/DTD/svg11.dtd">
<svg version="1.1" id="Capa_1" xmlns="http://www.w3.org/2000/svg" xmlns:xlink="http://www.w3.org/1999/xlink" x="0px" y="0px"
	 viewBox="0 0 51.994 51.994" style="enable-background:new 0 0 51.994 51.994;" xml:space="preserve">
<g>
	<path style="fill:#E06B65;" d="M5.684,7.912l13.998-6.774c0,0,10.174-3.035,10.623,4.841c0,0,1.476,8.599-7.606,9.191
		c-7.27,0.474-14.513-4.119-17.113-5.971C5.133,8.877,5.189,8.151,5.684,7.912z"/>
	<path style="fill:#4C312C;" d="M23.027,5.489c-0.034,0.551-0.479,0.969-0.994,0.933c-0.515-0.036-0.906-0.512-0.872-1.063
		c0.034-0.551,0.479-0.969,0.994-0.933C22.67,4.462,23.061,4.938,23.027,5.489z"/>
	<path style="fill:#ED8680;" d="M12.522,9.765c-0.023,0-0.047-0.001-0.07-0.002C5.62,9.286,0.481,5.41,0.753,0.938
		c0.034-0.551,0.516-0.96,1.059-0.938c0.552,0.033,0.971,0.508,0.938,1.059c-0.197,3.25,4.31,6.321,9.842,6.707
		c0.551,0.039,0.967,0.517,0.929,1.067C13.482,9.361,13.043,9.765,12.522,9.765z"/>
	<path style="fill:#D3605E;" d="M40.848,3.715L29.58,1.938c-0.474-0.101-0.943-0.063-1.385,0.064
		c0.955,0.826,1.627,2.083,1.735,3.976c0,0,0.584,3.419-1.26,6.094c-0.758,1.499-2.183,2.89-4.855,3.398
		c0.084,0.088,0.166,0.178,0.26,0.256l3.373,4.123c1.11,1.357,2.894,2.016,4.602,1.624c8.898-2.043,11.057-13.283,11.057-13.283
		C43.834,6.271,42.747,4.118,40.848,3.715z"/>
	<path style="fill:#E06B65;" d="M49.153,14.196L42.939,9.26c-0.074,0.159-0.155,0.329-0.244,0.509
		c-0.897,2.95-3.442,9.194-9.3,11.304l1.223,4.01c0.896,1.722,3.105,2.018,4.428,0.594l10.49-6.902
		C50.786,17.43,50.602,15.228,49.153,14.196z"/>
	<path style="fill:#EA847D;" d="M51.054,27.196l-3.594-7.055l-8.412,5.535c-0.978,1.053-2.439,1.16-3.497,0.451l-0.537,2.25
		c-0.095,1.681,1.364,2.918,2.923,2.481l11.432-0.115C50.841,30.33,51.651,28.624,51.054,27.196z"/>
	<path style="fill:#F2968F;" d="M48.104,30.755l-9.97,0.1l-1.967,2.281c-0.709,1.198-0.145,2.691,1.131,2.993l8.508,2.014
		c1.205,0.285,2.433-0.645,2.553-1.934l-0.185-4.702C48.199,31.245,48.172,30.991,48.104,30.755z"/>
	<path style="fill:#ED7161;" d="M24.368,23.196c-0.553,0-1-0.447-1-1s0.447-1,1-1c2.206,0,4-1.794,4-4c0-0.553,0.447-1,1-1
		s1,0.447,1,1C30.368,20.505,27.677,23.196,24.368,23.196z"/>
	<path style="fill:#ED7161;" d="M26.368,27.196c-0.553,0-1-0.447-1-1s0.447-1,1-1c3.309,0,6-2.691,6-6c0-0.553,0.447-1,1-1
		s1,0.447,1,1C34.368,23.607,30.779,27.196,26.368,27.196z"/>
	<path style="fill:#F4A7A4;" d="M45.807,38.145l-8.508-2.014c-0.109-0.026-0.206-0.072-0.305-0.114
		c-2.087,0.718-4.668,1.327-6.525,1.43c-1.683,0.093-2.778,2.197-1.624,3.043c0.967,0.709,4.609-0.22,6.171-0.114
		c1.053,0.072,1.562,1.011,1.02,2.004c-0.974,1.784-4.041,6.241-3.291,8.754c0.412,1.381,2.7,1.027,3.399-0.538
		c1.175-2.627,4.556-6.54,8.008-10.626c0.16-0.189,0.934-0.998,1.683-1.822C45.825,38.146,45.816,38.147,45.807,38.145z"/>
</g>
<g>
</g>
<g>
</g>
<g>
</g>
<g>
</g>
<g>
</g>
<g>
</g>
<g>
</g>
<g>
</g>
<g>
</g>
<g>
</g>
<g>
</g>
<g>
</g>
<g>
</g>
<g>
</g>
<g>
</g>
</svg>
