<?xml version="1.0" encoding="iso-8859-1"?>
<!-- Generator: Adobe Illustrator 18.0.0, SVG Export Plug-In . SVG Version: 6.00 Build 0)  -->
<!DOCTYPE svg PUBLIC "-//W3C//DTD SVG 1.1//EN" "http://www.w3.org/Graphics/SVG/1.1/DTD/svg11.dtd">
<svg version="1.1" id="Capa_1" xmlns="http://www.w3.org/2000/svg" xmlns:xlink="http://www.w3.org/1999/xlink" x="0px" y="0px"
	 viewBox="0 0 56.801 56.801" style="enable-background:new 0 0 56.801 56.801;" xml:space="preserve">
<g>
	
		<rect x="27.46" y="19.169" transform="matrix(0.7071 0.7071 -0.7071 0.7071 28.158 -11.9137)" style="fill:#D2D5D7;" width="2" height="17.728"/>
	<circle style="fill:#D2D5D7;" cx="14.033" cy="43.801" r="13"/>
	<path style="fill:#E6E6E6;" d="M14.033,53.8c-0.552,0-1-0.447-1-1v-2c0-0.553,0.448-1,1-1s1,0.447,1,1v2
		C15.033,53.353,14.585,53.8,14.033,53.8z"/>
	<path style="fill:#E6E6E6;" d="M14.033,37.8c-0.552,0-1-0.447-1-1v-2c0-0.553,0.448-1,1-1s1,0.447,1,1v2
		C15.033,37.353,14.585,37.8,14.033,37.8z"/>
	<path style="fill:#E6E6E6;" d="M12.619,43.386c-0.256,0-0.512-0.098-0.707-0.293l-0.708-0.707c-0.391-0.39-0.391-1.023,0-1.414
		c0.391-0.391,1.024-0.391,1.415,0l0.708,0.707c0.391,0.39,0.391,1.023,0,1.414C13.131,43.289,12.875,43.386,12.619,43.386z"/>
	<path style="fill:#E6E6E6;" d="M16.154,46.922c-0.256,0-0.512-0.098-0.707-0.293l-0.707-0.707c-0.391-0.391-0.391-1.023,0-1.414
		s1.023-0.391,1.414,0l0.707,0.707c0.391,0.391,0.391,1.023,0,1.414C16.666,46.825,16.41,46.922,16.154,46.922z"/>
	<path style="fill:#E6E6E6;" d="M7.033,44.8h-2c-0.552,0-1-0.447-1-1s0.448-1,1-1h2c0.552,0,1,0.447,1,1S7.585,44.8,7.033,44.8z"/>
	<path style="fill:#E6E6E6;" d="M23.033,44.8h-2c-0.552,0-1-0.447-1-1s0.448-1,1-1h2c0.552,0,1,0.447,1,1S23.585,44.8,23.033,44.8z"
		/>
	<path style="fill:#E6E6E6;" d="M7.669,51.165c-0.256,0-0.512-0.098-0.707-0.293c-0.391-0.391-0.391-1.023,0-1.414l1.414-1.414
		c0.391-0.391,1.023-0.391,1.414,0s0.391,1.023,0,1.414l-1.414,1.414C8.181,51.067,7.925,51.165,7.669,51.165z"/>
	<path style="fill:#E6E6E6;" d="M18.983,39.851c-0.256,0-0.512-0.098-0.707-0.293c-0.391-0.391-0.391-1.023,0-1.414l1.414-1.414
		c0.391-0.391,1.023-0.391,1.414,0s0.391,1.023,0,1.414l-1.414,1.414C19.495,39.754,19.239,39.851,18.983,39.851z"/>
	<path style="fill:#E6E6E6;" d="M9.083,39.851c-0.256,0-0.512-0.098-0.707-0.293l-1.414-1.414c-0.391-0.391-0.391-1.023,0-1.414
		s1.023-0.391,1.414,0l1.414,1.414c0.391,0.391,0.391,1.023,0,1.414C9.595,39.754,9.339,39.851,9.083,39.851z"/>
	<path style="fill:#E6E6E6;" d="M20.397,51.165c-0.256,0-0.512-0.098-0.707-0.293l-1.414-1.414c-0.391-0.391-0.391-1.023,0-1.414
		s1.023-0.391,1.414,0l1.414,1.414c0.391,0.391,0.391,1.023,0,1.414C20.909,51.067,20.653,51.165,20.397,51.165z"/>
	<path style="fill:#E6E6E6;" d="M15.447,43.386c-0.256,0-0.512-0.098-0.707-0.293c-0.391-0.391-0.391-1.023,0-1.414l0.707-0.707
		c0.391-0.391,1.023-0.391,1.414,0s0.391,1.023,0,1.414l-0.707,0.707C15.959,43.289,15.703,43.386,15.447,43.386z"/>
	<path style="fill:#E6E6E6;" d="M11.911,46.922c-0.256,0-0.512-0.098-0.708-0.293c-0.39-0.391-0.39-1.024,0-1.414l0.708-0.707
		c0.391-0.391,1.024-0.391,1.415,0c0.39,0.391,0.39,1.024,0,1.414l-0.708,0.707C12.423,46.825,12.167,46.922,11.911,46.922z"/>
	<path style="fill:#A46F3E;" d="M55.768,5.657c0,0-0.067-1.789-1.968-3.689L53.8,1.968c0,0-1.891-1.998-3.689-1.968
		c0,0-10.386,4.464-18.077,18.077c0,0,0.067,1.789,1.968,3.689l0.001-0.001c0,0,1.891,1.998,3.689,1.968
		C37.691,23.734,48.076,19.27,55.768,5.657z"/>
	<g>
		<path style="fill:#C18757;" d="M50.537,2.402c-0.391-0.391-1.024-0.391-1.415,0l-2.33,2.33c-0.391,0.39-0.391,1.023,0,1.414
			c0.195,0.195,0.452,0.293,0.708,0.293s0.512-0.098,0.707-0.293l2.331-2.33C50.928,3.425,50.928,2.792,50.537,2.402z"/>
		<path style="fill:#C18757;" d="M45.693,8.66c0.391-0.391,0.391-1.023,0-1.414s-1.023-0.391-1.414,0l-6.614,6.614
			c-0.391,0.391-0.391,1.023,0,1.414c0.195,0.195,0.451,0.293,0.707,0.293s0.512-0.098,0.707-0.293L45.693,8.66z"/>
		<path style="fill:#C18757;" d="M41.071,16.11l-2.366,2.366c-0.391,0.391-0.391,1.023,0,1.414c0.195,0.195,0.451,0.293,0.707,0.293
			s0.512-0.098,0.707-0.293l2.367-2.366c0.39-0.391,0.39-1.024,0-1.414C42.095,15.719,41.462,15.719,41.071,16.11z"/>
		<path style="fill:#C18757;" d="M48.722,8.461L43.9,13.282c-0.391,0.391-0.391,1.023,0,1.414c0.195,0.195,0.451,0.293,0.707,0.293
			s0.512-0.098,0.707-0.293l4.821-4.821c0.391-0.391,0.391-1.023,0-1.414S49.112,8.07,48.722,8.461z"/>
		<path style="fill:#C18757;" d="M35.415,16.11l-2.604,2.604c-0.391,0.391-0.391,1.023,0,1.414c0.195,0.195,0.451,0.293,0.707,0.293
			s0.512-0.098,0.707-0.293l2.604-2.604c0.391-0.391,0.391-1.023,0-1.414S35.806,15.719,35.415,16.11z"/>
		<path style="fill:#C18757;" d="M53.575,5.021c-0.391-0.391-1.023-0.391-1.414,0l-1.189,1.189c-0.391,0.391-0.391,1.023,0,1.414
			c0.195,0.195,0.451,0.293,0.707,0.293s0.512-0.098,0.707-0.293l1.189-1.189C53.965,6.045,53.965,5.412,53.575,5.021z"/>
	</g>
</g>
<g>
</g>
<g>
</g>
<g>
</g>
<g>
</g>
<g>
</g>
<g>
</g>
<g>
</g>
<g>
</g>
<g>
</g>
<g>
</g>
<g>
</g>
<g>
</g>
<g>
</g>
<g>
</g>
<g>
</g>
</svg>
