<?xml version="1.0" encoding="iso-8859-1"?>
<!-- Generator: Adobe Illustrator 18.0.0, SVG Export Plug-In . SVG Version: 6.00 Build 0)  -->
<!DOCTYPE svg PUBLIC "-//W3C//DTD SVG 1.1//EN" "http://www.w3.org/Graphics/SVG/1.1/DTD/svg11.dtd">
<svg version="1.1" id="Capa_1" xmlns="http://www.w3.org/2000/svg" xmlns:xlink="http://www.w3.org/1999/xlink" x="0px" y="0px"
	 viewBox="0 0 57.32 57.32" style="enable-background:new 0 0 57.32 57.32;" xml:space="preserve">
<g>
	<path style="fill:#E6E6E6;" d="M37.944,57.32h-19c-0.552,0-1-0.447-1-1s0.448-1,1-1h19c0.552,0,1,0.447,1,1
		S38.496,57.32,37.944,57.32z"/>
	<g>
		<path style="fill:#DAE7EF;" d="M40.167,25.319c-3.493,0-6.41-2.444-7.148-5.714c-1.318,1.265-3.103,2.047-5.074,2.047
			s-3.757-0.782-5.074-2.047c-0.738,3.27-3.655,5.714-7.148,5.714c-0.269,0-0.533-0.016-0.794-0.045
			c0.974,1.889,2.322,3.045,2.322,3.045c7.146,7.616,12.294,13.823,4.569,23.271c-0.564,0.69-0.054,1.729,0.838,1.729h5.593h5.593
			c0.892,0,1.402-1.039,0.838-1.729c-7.724-9.449-2.577-15.655,4.569-23.271c0,0,1.399-1.195,2.377-3.146
			C41.156,25.268,40.667,25.319,40.167,25.319z"/>
		<path style="fill:#BBD7EA;" d="M33.844,53.82H22.657c-0.613,0-1.158-0.346-1.422-0.902c-0.26-0.548-0.184-1.178,0.197-1.644
			c7.239-8.854,3.112-14.449-4.547-22.612c-0.019-0.012-1.394-1.203-2.401-3.157l-0.426-0.827l0.924,0.101
			c0.244,0.026,0.49,0.042,0.741,0.042c3.214,0,5.952-2.189,6.66-5.324l0.195-0.864l0.639,0.614c1.281,1.229,2.96,1.907,4.729,1.907
			s3.447-0.678,4.728-1.907l0.639-0.614l0.195,0.864c0.708,3.135,3.447,5.324,6.66,5.324c0.457,0,0.915-0.046,1.362-0.137
			l1.006-0.203l-0.46,0.917c-1.012,2.019-2.438,3.252-2.499,3.303c-7.618,8.124-11.746,13.72-4.507,22.574
			c0.381,0.466,0.457,1.096,0.197,1.644C35.002,53.474,34.457,53.82,33.844,53.82z M15.817,25.819
			c0.834,1.317,1.748,2.112,1.759,2.122c6.384,6.801,12.946,13.794,4.63,23.966c-0.136,0.167-0.162,0.385-0.067,0.583
			c0.098,0.206,0.292,0.33,0.518,0.33h11.187c0.227,0,0.42-0.124,0.518-0.33c0.094-0.198,0.069-0.416-0.067-0.583
			c-8.316-10.172-1.754-17.166,4.592-23.929c0.044-0.041,0.973-0.848,1.813-2.177c-3.587,0.245-6.832-1.967-7.949-5.302
			c-1.372,1.071-3.05,1.653-4.806,1.653c-1.756,0-3.434-0.582-4.806-1.653C22.086,23.64,19.187,25.78,15.817,25.819z"/>
	</g>
	<path style="fill:#9777A8;" d="M37.959,8.749c-0.082,0-0.165-0.01-0.247-0.031c-0.535-0.136-0.859-0.68-0.723-1.216l1.479-5.814
		c0.103-0.403,0.445-0.701,0.86-0.747l8.493-0.936c0.549-0.055,1.043,0.336,1.104,0.885s-0.335,1.043-0.885,1.104l-7.804,0.859
		l-1.309,5.144C38.812,8.448,38.406,8.749,37.959,8.749z"/>
	<path style="fill:#FFF5BB;" d="M43.765,11.6c0.04-0.311,0.068-0.626,0.068-0.948c0-4.05-3.283-7.333-7.333-7.333
		c-2.834,0-5.287,1.61-6.508,3.962c-0.65-0.189-1.336-0.295-2.047-0.295c-0.711,0-1.397,0.106-2.047,0.295
		c-1.221-2.352-3.675-3.962-6.508-3.962c-4.05,0-7.333,3.283-7.333,7.333c0,0.322,0.028,0.637,0.068,0.948
		c-2.228,1.258-3.735,3.644-3.735,6.386c0,4.05,3.283,7.333,7.333,7.333c3.493,0,6.41-2.444,7.148-5.714
		c1.318,1.265,3.103,2.047,5.074,2.047s3.757-0.782,5.074-2.047c0.738,3.27,3.655,5.714,7.148,5.714c4.05,0,7.333-3.283,7.333-7.333
		C47.5,15.245,45.993,12.859,43.765,11.6z"/>
	<path style="fill:#F96C7E;" d="M14.625,16.684c-0.22,0-0.442-0.072-0.626-0.221c-1.893-1.523-2.978-3.771-2.978-6.165
		c0-4.399,3.66-7.979,8.158-7.979c4.498,0,8.158,3.579,8.158,7.979c0,1.572-0.467,3.093-1.35,4.398
		c-0.31,0.457-0.931,0.577-1.389,0.268c-0.457-0.31-0.577-0.931-0.268-1.389c0.658-0.973,1.006-2.106,1.006-3.277
		c0-3.297-2.762-5.979-6.158-5.979s-6.158,2.682-6.158,5.979c0,1.786,0.813,3.465,2.232,4.606c0.43,0.347,0.499,0.976,0.152,1.406
		C15.207,16.556,14.917,16.684,14.625,16.684z"/>
	<path style="fill:#FFF5BB;" d="M35.122,13.407c3.049-3.672,8.992-3.186,11.412,0.913"/>
</g>
<g>
</g>
<g>
</g>
<g>
</g>
<g>
</g>
<g>
</g>
<g>
</g>
<g>
</g>
<g>
</g>
<g>
</g>
<g>
</g>
<g>
</g>
<g>
</g>
<g>
</g>
<g>
</g>
<g>
</g>
</svg>
