<?xml version="1.0" encoding="iso-8859-1"?>
<!-- Generator: Adobe Illustrator 18.0.0, SVG Export Plug-In . SVG Version: 6.00 Build 0)  -->
<!DOCTYPE svg PUBLIC "-//W3C//DTD SVG 1.1//EN" "http://www.w3.org/Graphics/SVG/1.1/DTD/svg11.dtd">
<svg version="1.1" id="Capa_1" xmlns="http://www.w3.org/2000/svg" xmlns:xlink="http://www.w3.org/1999/xlink" x="0px" y="0px"
	 viewBox="0 0 57 57" style="enable-background:new 0 0 57 57;" xml:space="preserve">
<g>
	<path style="fill:#D2D5D7;" d="M28.5,30c-0.553,0-1-0.447-1-1v-5.258c0-0.553,0.447-1,1-1s1,0.447,1,1V29
		C29.5,29.552,29.053,30,28.5,30z"/>
	<path style="fill:#A46F3E;" d="M28.5,57L28.5,57c-1.65,0-3-1.35-3-3V32c0-1.65,1.35-3,3-3h0c1.65,0,3,1.35,3,3v22
		C31.5,55.65,30.15,57,28.5,57z"/>
	<path style="fill:#D2D5D7;" d="M28.5,35L28.5,35c-0.55,0-1-0.45-1-1l0,0c0-0.55,0.45-1,1-1h0c0.55,0,1,0.45,1,1l0,0
		C29.5,34.55,29.05,35,28.5,35z"/>
	<path style="fill:#D2D5D7;" d="M28.5,39L28.5,39c-0.55,0-1-0.45-1-1l0,0c0-0.55,0.45-1,1-1h0c0.55,0,1,0.45,1,1l0,0
		C29.5,38.55,29.05,39,28.5,39z"/>
	<path style="fill:#D2D5D7;" d="M33.067,25h-9.135c-0.825,0-1.528-0.6-1.659-1.415l-3.462-21.64C18.648,0.925,19.436,0,20.47,0
		h16.06c1.034,0,1.822,0.925,1.659,1.945l-3.462,21.64C34.596,24.4,33.893,25,33.067,25z"/>
	<path style="fill:#A5A5A5;" d="M28.5,21c-0.553,0-1-0.447-1-1V5c0-0.553,0.447-1,1-1s1,0.447,1,1v15C29.5,20.552,29.053,21,28.5,21
		z"/>
	<path style="fill:#A5A5A5;" d="M31.543,20.939c-0.042,0-0.085-0.003-0.129-0.008c-0.548-0.071-0.935-0.572-0.864-1.12l1.915-14.878
		c0.071-0.547,0.563-0.924,1.12-0.864c0.548,0.071,0.935,0.572,0.864,1.12l-1.915,14.878C32.469,20.571,32.039,20.939,31.543,20.939
		z"/>
	<path style="fill:#A5A5A5;" d="M25.499,20.939c-0.496,0-0.926-0.368-0.991-0.872L22.592,5.189c-0.07-0.548,0.316-1.049,0.864-1.12
		c0.566-0.062,1.049,0.317,1.12,0.864l1.916,14.878c0.07,0.548-0.316,1.049-0.864,1.12C25.584,20.936,25.541,20.939,25.499,20.939z"
		/>
</g>
<g>
</g>
<g>
</g>
<g>
</g>
<g>
</g>
<g>
</g>
<g>
</g>
<g>
</g>
<g>
</g>
<g>
</g>
<g>
</g>
<g>
</g>
<g>
</g>
<g>
</g>
<g>
</g>
<g>
</g>
</svg>
