<?xml version="1.0" encoding="iso-8859-1"?>
<!-- Generator: Adobe Illustrator 18.0.0, SVG Export Plug-In . SVG Version: 6.00 Build 0)  -->
<!DOCTYPE svg PUBLIC "-//W3C//DTD SVG 1.1//EN" "http://www.w3.org/Graphics/SVG/1.1/DTD/svg11.dtd">
<svg version="1.1" id="Capa_1" xmlns="http://www.w3.org/2000/svg" xmlns:xlink="http://www.w3.org/1999/xlink" x="0px" y="0px"
	 viewBox="0 0 55.801 55.801" style="enable-background:new 0 0 55.801 55.801;" xml:space="preserve">
<g>
	
		<rect x="29.727" y="20.197" transform="matrix(0.7071 0.7071 -0.7071 0.7071 26.947 -14.2929)" style="fill:#D2D5D7;" width="2" height="10.369"/>
	<path style="fill:#D2D5D7;" d="M23.079,24.544l8.485,8.485c0.458,0.458,0.557,1.165,0.243,1.732l-0.851,1.532
		c-1.428,2.571-2.478,5.66-4.558,7.74L15.591,54.839c-1.282,1.282-3.361,1.282-4.643,0l-9.7-9.7c-1.282-1.282-1.282-3.361,0-4.643
		L12.056,29.69c2.08-2.08,5.189-3.109,7.76-4.538l1.532-0.851C21.914,23.987,22.621,24.085,23.079,24.544z"/>
	<path style="fill:#E6E6E6;" d="M14.036,50.323c-0.256,0-0.512-0.098-0.707-0.293c-0.391-0.391-0.391-1.023,0-1.414L25.29,36.655
		c0.391-0.391,1.023-0.391,1.414,0s0.391,1.023,0,1.414L14.743,50.03C14.548,50.225,14.292,50.323,14.036,50.323z"/>
	<path style="fill:#E6E6E6;" d="M10.5,46.788c-0.256,0-0.512-0.098-0.707-0.293c-0.391-0.391-0.391-1.023,0-1.414l13.961-13.962
		c0.391-0.391,1.023-0.391,1.414,0s0.391,1.023,0,1.414L11.207,46.495C11.012,46.69,10.756,46.788,10.5,46.788z"/>
	<path style="fill:#E6E6E6;" d="M6.965,43.252c-0.256,0-0.512-0.098-0.707-0.293c-0.391-0.391-0.391-1.023,0-1.414l11.961-11.961
		c0.391-0.391,1.023-0.391,1.414,0s0.391,1.023,0,1.414L7.672,42.959C7.476,43.154,7.22,43.252,6.965,43.252z"/>
	<path style="fill:#A46F3E;" d="M55.514,5.657c0,0-0.067-1.789-1.968-3.689l-0.001,0.001c0,0-1.891-1.998-3.689-1.968
		c0,0-10.386,4.464-18.077,18.077c0,0,0.067,1.789,1.968,3.689l0.001-0.001c0,0,1.891,1.998,3.689,1.968
		C37.437,23.734,47.822,19.27,55.514,5.657z"/>
	<g>
		<path style="fill:#C18757;" d="M50.283,2.402c-0.391-0.391-1.024-0.391-1.415,0l-2.33,2.33c-0.391,0.39-0.391,1.023,0,1.414
			c0.195,0.195,0.452,0.293,0.708,0.293s0.512-0.098,0.707-0.293l2.331-2.33C50.674,3.425,50.674,2.792,50.283,2.402z"/>
		<path style="fill:#C18757;" d="M45.439,8.66c0.391-0.391,0.391-1.023,0-1.414s-1.023-0.391-1.414,0l-6.614,6.614
			c-0.391,0.391-0.391,1.023,0,1.414c0.195,0.195,0.451,0.293,0.707,0.293s0.512-0.098,0.707-0.293L45.439,8.66z"/>
		<path style="fill:#C18757;" d="M40.818,16.11l-2.367,2.366c-0.39,0.391-0.39,1.024,0,1.414c0.195,0.195,0.451,0.293,0.707,0.293
			s0.512-0.098,0.708-0.293l2.366-2.366c0.391-0.391,0.391-1.023,0-1.414S41.209,15.719,40.818,16.11z"/>
		<path style="fill:#C18757;" d="M48.468,8.461l-4.821,4.821c-0.391,0.391-0.391,1.023,0,1.414c0.195,0.195,0.451,0.293,0.707,0.293
			s0.512-0.098,0.707-0.293l4.821-4.821c0.391-0.391,0.391-1.023,0-1.414S48.858,8.07,48.468,8.461z"/>
		<path style="fill:#C18757;" d="M35.161,16.11l-2.604,2.604c-0.391,0.391-0.391,1.023,0,1.414c0.195,0.195,0.451,0.293,0.707,0.293
			s0.512-0.098,0.707-0.293l2.604-2.604c0.391-0.391,0.391-1.023,0-1.414S35.552,15.719,35.161,16.11z"/>
		<path style="fill:#C18757;" d="M53.321,5.021c-0.391-0.391-1.024-0.391-1.414,0l-1.189,1.189c-0.391,0.391-0.391,1.023,0,1.414
			c0.195,0.195,0.451,0.293,0.707,0.293s0.512-0.098,0.707-0.293l1.189-1.189C53.711,6.045,53.711,5.412,53.321,5.021z"/>
	</g>
</g>
<g>
</g>
<g>
</g>
<g>
</g>
<g>
</g>
<g>
</g>
<g>
</g>
<g>
</g>
<g>
</g>
<g>
</g>
<g>
</g>
<g>
</g>
<g>
</g>
<g>
</g>
<g>
</g>
<g>
</g>
</svg>
