<?xml version="1.0" encoding="iso-8859-1"?>
<!-- Generator: Adobe Illustrator 18.0.0, SVG Export Plug-In . SVG Version: 6.00 Build 0)  -->
<!DOCTYPE svg PUBLIC "-//W3C//DTD SVG 1.1//EN" "http://www.w3.org/Graphics/SVG/1.1/DTD/svg11.dtd">
<svg version="1.1" id="Capa_1" xmlns="http://www.w3.org/2000/svg" xmlns:xlink="http://www.w3.org/1999/xlink" x="0px" y="0px"
	 viewBox="0 0 40.228 40.228" style="enable-background:new 0 0 40.228 40.228;" xml:space="preserve">
<g>
	<g>
		<path style="fill:#DAE7EF;" d="M28.502,12.364c0,0-1.833,6.056,5,6s11.75,15.944-6,16H12.725c-17.75-0.056-12.833-16.056-6-16
			s5-6,5-6H28.502z"/>
		<path style="fill:#BBD7EA;" d="M27.504,34.864H12.726C5.361,34.84,2.284,32.156,1.001,29.907
			c-1.427-2.499-1.322-5.743,0.273-8.467c1.314-2.242,3.336-3.576,5.416-3.576c0.044,0,0.086,0,0.129,0
			c1.891,0,3.219-0.494,3.95-1.471c1.164-1.555,0.484-3.861,0.478-3.885l-0.195-0.645h18.121l-0.192,0.644
			c-0.007,0.023-0.681,2.344,0.48,3.89c0.742,0.989,2.134,1.478,4.037,1.467c0.013,0,0.026,0,0.039,0
			c2.08,0,4.102,1.334,5.415,3.576c1.597,2.724,1.701,5.968,0.274,8.468C37.943,32.156,34.867,34.84,27.504,34.864z M6.691,18.864
			c-1.721,0-3.421,1.149-4.553,3.082c-1.109,1.894-1.763,4.849-0.269,7.466c1.153,2.019,3.973,4.431,10.858,4.452h14.774
			c6.884-0.021,9.703-2.434,10.856-4.452c1.494-2.617,0.841-5.572-0.269-7.466c-1.133-1.932-2.832-3.082-4.553-3.082
			c-0.039,0-0.085,0-0.128,0c-2.224,0-3.821-0.629-4.752-1.871c-1.049-1.401-0.938-3.188-0.777-4.129H12.348
			c0.16,0.941,0.271,2.728-0.777,4.129c-0.944,1.26-2.6,1.865-4.849,1.871C6.711,18.864,6.7,18.864,6.691,18.864z"/>
	</g>
	<path style="fill:#DC9628;" d="M26.431,34.364H12.398c-3.653,0-4.408-1.957-2.673-4.352c1.659-2.289,4.365-7.725,6-9.99
		c2.485-3.443,6.288-3.569,9-0.222c1.567,1.934,4.295,7.006,5.916,9.011C33.11,31.867,31.219,34.364,26.431,34.364z"/>
	<circle style="fill:#FBD490;" cx="20.725" cy="22.364" r="1"/>
	<circle style="fill:#FBD490;" cx="17.725" cy="25.364" r="1"/>
	<circle style="fill:#FBD490;" cx="22.725" cy="27.364" r="1"/>
	<path style="fill:#D2D5D7;" d="M32.725,12.364h-26c-1.1,0-2-0.9-2-2v-3c0-1.1,0.9-2,2-2h26c1.1,0,2,0.9,2,2v3
		C34.725,11.464,33.825,12.364,32.725,12.364z"/>
</g>
<g>
</g>
<g>
</g>
<g>
</g>
<g>
</g>
<g>
</g>
<g>
</g>
<g>
</g>
<g>
</g>
<g>
</g>
<g>
</g>
<g>
</g>
<g>
</g>
<g>
</g>
<g>
</g>
<g>
</g>
</svg>
