<?xml version="1.0" encoding="iso-8859-1"?>
<!-- Generator: Adobe Illustrator 18.0.0, SVG Export Plug-In . SVG Version: 6.00 Build 0)  -->
<!DOCTYPE svg PUBLIC "-//W3C//DTD SVG 1.1//EN" "http://www.w3.org/Graphics/SVG/1.1/DTD/svg11.dtd">
<svg version="1.1" id="Capa_1" xmlns="http://www.w3.org/2000/svg" xmlns:xlink="http://www.w3.org/1999/xlink" x="0px" y="0px"
	 viewBox="0 0 57 57" style="enable-background:new 0 0 57 57;" xml:space="preserve">
<g>
	<path style="fill:#D2D5D7;" d="M28.5,30c-0.552,0-1-0.447-1-1v-9c0-0.553,0.448-1,1-1s1,0.447,1,1v9C29.5,29.552,29.052,30,28.5,30
		z"/>
	<ellipse style="fill:#E6E6E6;" cx="28.5" cy="10" rx="6" ry="10"/>
	<path style="fill:#A46F3E;" d="M28.5,57L28.5,57c-1.65,0-3-1.35-3-3V32c0-1.65,1.35-3,3-3h0c1.65,0,3,1.35,3,3v22
		C31.5,55.65,30.15,57,28.5,57z"/>
	<path style="fill:#D2D5D7;" d="M28.5,35L28.5,35c-0.55,0-1-0.45-1-1l0,0c0-0.55,0.45-1,1-1h0c0.55,0,1,0.45,1,1l0,0
		C29.5,34.55,29.05,35,28.5,35z"/>
	<path style="fill:#D2D5D7;" d="M28.5,39L28.5,39c-0.55,0-1-0.45-1-1l0,0c0-0.55,0.45-1,1-1h0c0.55,0,1,0.45,1,1l0,0
		C29.5,38.55,29.05,39,28.5,39z"/>
</g>
<g>
</g>
<g>
</g>
<g>
</g>
<g>
</g>
<g>
</g>
<g>
</g>
<g>
</g>
<g>
</g>
<g>
</g>
<g>
</g>
<g>
</g>
<g>
</g>
<g>
</g>
<g>
</g>
<g>
</g>
</svg>
