<?xml version="1.0" encoding="iso-8859-1"?>
<!-- Generator: Adobe Illustrator 18.0.0, SVG Export Plug-In . SVG Version: 6.00 Build 0)  -->
<!DOCTYPE svg PUBLIC "-//W3C//DTD SVG 1.1//EN" "http://www.w3.org/Graphics/SVG/1.1/DTD/svg11.dtd">
<svg version="1.1" id="Capa_1" xmlns="http://www.w3.org/2000/svg" xmlns:xlink="http://www.w3.org/1999/xlink" x="0px" y="0px"
	 viewBox="0 0 60 60" style="enable-background:new 0 0 60 60;" xml:space="preserve">
<g>
	<path style="fill:#E6E6E6;" d="M47.68,50.5H12.32c-1.342,0-2.492-0.962-2.728-2.284L5,22.5h50l-4.592,25.716
		C50.172,49.538,49.022,50.5,47.68,50.5z"/>
	<path style="fill:#D2D5D7;" d="M53,22.5H7l8.178-8.178c0.526-0.526,1.24-0.822,1.985-0.822h25.675c0.744,0,1.458,0.296,1.985,0.822
		L53,22.5z"/>
	<path style="fill:#D2D5D7;" d="M34,15.5h-8v-2c0-2.206,1.794-4,4-4s4,1.794,4,4V15.5z M28,13.5h4c0-1.103-0.897-2-2-2
		S28,12.397,28,13.5z"/>
	<path style="fill:#D2D5D7;" d="M53.848,34.633l-1.982-0.266C52.488,29.735,55.833,26.5,60,26.5v2
		C56.863,28.5,54.333,31.022,53.848,34.633z"/>
	<path style="fill:#D2D5D7;" d="M6.151,34.625C5.696,31.019,3.167,28.5,0,28.5v-2c4.138,0,7.56,3.312,8.135,7.875L6.151,34.625z"/>
	<path style="fill:#FFFFFF;" d="M22,46.5H12c-0.552,0-1-0.447-1-1s0.448-1,1-1h10c0.552,0,1,0.447,1,1S22.552,46.5,22,46.5z"/>
	<path style="fill:#FFFFFF;" d="M18,42.5h-7c-0.552,0-1-0.447-1-1s0.448-1,1-1h7c0.552,0,1,0.447,1,1S18.552,42.5,18,42.5z"/>
	<path style="fill:#FFFFFF;" d="M15,38.5h-5c-0.552,0-1-0.447-1-1s0.448-1,1-1h5c0.552,0,1,0.447,1,1S15.552,38.5,15,38.5z"/>
	<polygon style="fill:#E6E6E6;" points="12,17.5 48,17.5 46,15.5 14,15.5 	"/>
	<polygon style="fill:#E6E6E6;" points="9,20.5 51,20.5 49,18.5 11,18.5 	"/>
</g>
<g>
</g>
<g>
</g>
<g>
</g>
<g>
</g>
<g>
</g>
<g>
</g>
<g>
</g>
<g>
</g>
<g>
</g>
<g>
</g>
<g>
</g>
<g>
</g>
<g>
</g>
<g>
</g>
<g>
</g>
</svg>
