<?xml version="1.0" encoding="iso-8859-1"?>
<!-- Generator: Adobe Illustrator 18.0.0, SVG Export Plug-In . SVG Version: 6.00 Build 0)  -->
<!DOCTYPE svg PUBLIC "-//W3C//DTD SVG 1.1//EN" "http://www.w3.org/Graphics/SVG/1.1/DTD/svg11.dtd">
<svg version="1.1" id="Capa_1" xmlns="http://www.w3.org/2000/svg" xmlns:xlink="http://www.w3.org/1999/xlink" x="0px" y="0px"
	 viewBox="0 0 59 59" style="enable-background:new 0 0 59 59;" xml:space="preserve">
<g>
	<path style="fill:#E6E6E6;" d="M54.946,14.911c0-3.396-11.405-6.149-25.473-6.149S4,11.515,4,14.911c0,0.05,0,0.149,0,0.149
		c0,14.068,11.405,25.473,25.473,25.473S54.946,29.128,54.946,15.06C54.946,15.06,54.946,14.961,54.946,14.911z"/>
	<ellipse style="fill:#D2D5D7;" cx="29.473" cy="14.911" rx="25.473" ry="6.149"/>
	<path style="fill:#E6E6E6;" d="M21.935,48.359c0,1.037,3.507,1.878,7.834,1.878s7.834-0.841,7.834-1.878c0-0.015,0-0.045,0-0.045
		c0-4.297-3.507-7.781-7.834-7.781s-7.834,3.484-7.834,7.781C21.935,48.314,21.935,48.344,21.935,48.359z"/>
	<circle style="fill:#D2D5D7;" cx="13" cy="24.533" r="1"/>
	<circle style="fill:#D2D5D7;" cx="17" cy="26.533" r="1"/>
	<circle style="fill:#D2D5D7;" cx="22" cy="28.533" r="1"/>
	<circle style="fill:#D2D5D7;" cx="10" cy="27.533" r="1"/>
	<circle style="fill:#D2D5D7;" cx="14" cy="29.533" r="1"/>
	<circle style="fill:#D2D5D7;" cx="18" cy="32.533" r="1"/>
	<circle style="fill:#D2D5D7;" cx="23" cy="33.533" r="1"/>
	<circle style="fill:#D2D5D7;" cx="27" cy="29.533" r="1"/>
	<circle style="fill:#D2D5D7;" cx="28" cy="34.533" r="1"/>
	<circle style="fill:#D2D5D7;" cx="50" cy="22.533" r="1"/>
	<circle style="fill:#D2D5D7;" cx="46" cy="24.533" r="1"/>
	<circle style="fill:#D2D5D7;" cx="42" cy="26.533" r="1"/>
	<circle style="fill:#D2D5D7;" cx="37" cy="28.533" r="1"/>
	<circle style="fill:#D2D5D7;" cx="49" cy="27.533" r="1"/>
	<circle style="fill:#D2D5D7;" cx="45" cy="29.533" r="1"/>
	<circle style="fill:#D2D5D7;" cx="41" cy="32.533" r="1"/>
	<circle style="fill:#D2D5D7;" cx="37" cy="33.533" r="1"/>
	<circle style="fill:#D2D5D7;" cx="32" cy="29.533" r="1"/>
	<circle style="fill:#D2D5D7;" cx="17" cy="22.533" r="1"/>
	<circle style="fill:#D2D5D7;" cx="22" cy="24.533" r="1"/>
	<circle style="fill:#D2D5D7;" cx="9" cy="22.533" r="1"/>
	<circle style="fill:#D2D5D7;" cx="27" cy="24.533" r="1"/>
	<circle style="fill:#D2D5D7;" cx="42" cy="22.533" r="1"/>
	<circle style="fill:#D2D5D7;" cx="37" cy="24.533" r="1"/>
	<circle style="fill:#D2D5D7;" cx="32" cy="24.533" r="1"/>
	<circle style="fill:#D2D5D7;" cx="33" cy="34.533" r="1"/>
	<circle style="fill:#D2D5D7;" cx="15" cy="34.533" r="1"/>
	<circle style="fill:#D2D5D7;" cx="20" cy="37.533" r="1"/>
	<circle style="fill:#D2D5D7;" cx="25" cy="38.533" r="1"/>
	<circle style="fill:#D2D5D7;" cx="44" cy="34.533" r="1"/>
	<circle style="fill:#D2D5D7;" cx="40" cy="36.533" r="1"/>
	<circle style="fill:#D2D5D7;" cx="35" cy="38.533" r="1"/>
	<circle style="fill:#D2D5D7;" cx="30" cy="38.533" r="1"/>
	<path style="fill:#D2D5D7;" d="M5.018,31.323c-0.982,0-1.909-0.231-2.688-0.698C1.267,29.987,0,28.632,0,25.795
		c0-7.906,0-8.552,2.49-9.647c0.297-0.13,0.643-0.281,1.046-0.497c0.488-0.26,1.094-0.077,1.354,0.41
		c0.261,0.487,0.076,1.094-0.41,1.354c-0.457,0.244-0.849,0.417-1.185,0.564C2,18.549,2,18.549,2,25.795
		c0,1.525,0.457,2.573,1.358,3.113c1.055,0.633,2.693,0.531,4.17-0.258c0.487-0.26,1.094-0.077,1.354,0.41
		c0.261,0.487,0.076,1.094-0.41,1.354C7.341,31.019,6.143,31.323,5.018,31.323z"/>
	<path style="fill:#D2D5D7;" d="M53.982,31.323c-1.125,0-2.323-0.304-3.454-0.908c-0.486-0.26-0.671-0.866-0.41-1.354
		c0.26-0.487,0.866-0.67,1.354-0.41c1.478,0.788,3.114,0.89,4.17,0.258C56.543,28.369,57,27.321,57,25.795
		c0-7.246,0-7.246-1.295-7.816c-0.336-0.147-0.728-0.32-1.185-0.564c-0.486-0.26-0.671-0.866-0.41-1.354
		c0.26-0.487,0.866-0.67,1.354-0.41c0.403,0.216,0.749,0.367,1.046,0.497C59,17.244,59,17.889,59,25.795
		c0,2.837-1.267,4.191-2.33,4.829C55.892,31.091,54.965,31.323,53.982,31.323z"/>
</g>
<g>
</g>
<g>
</g>
<g>
</g>
<g>
</g>
<g>
</g>
<g>
</g>
<g>
</g>
<g>
</g>
<g>
</g>
<g>
</g>
<g>
</g>
<g>
</g>
<g>
</g>
<g>
</g>
<g>
</g>
</svg>
