<?xml version="1.0" encoding="iso-8859-1"?>
<!-- Generator: Adobe Illustrator 18.0.0, SVG Export Plug-In . SVG Version: 6.00 Build 0)  -->
<!DOCTYPE svg PUBLIC "-//W3C//DTD SVG 1.1//EN" "http://www.w3.org/Graphics/SVG/1.1/DTD/svg11.dtd">
<svg version="1.1" id="Capa_1" xmlns="http://www.w3.org/2000/svg" xmlns:xlink="http://www.w3.org/1999/xlink" x="0px" y="0px"
	 viewBox="0 0 56.832 56.832" style="enable-background:new 0 0 56.832 56.832;" xml:space="preserve">
<g>
	<path style="fill:#455560;" d="M7.001,31.345c1.112-1.898,3.893-1.898,5.005,0l2.847,4.858l2.847,4.858
		c1.112,1.898-0.278,4.271-2.503,4.271H9.504H3.81c-2.225,0-3.615-2.373-2.503-4.271l2.847-4.858L7.001,31.345z"/>
	<rect x="1.916" y="46.832" style="fill:#A46F3E;" width="54" height="5"/>
	<rect x="5.916" y="51.832" style="fill:#4C312C;" width="4" height="5"/>
	<rect x="47.916" y="51.832" style="fill:#4C312C;" width="4" height="5"/>
	<path style="fill:#38454F;" d="M28.916,45.332L28.916,45.332c-4.4,0-8-3.6-8-8v-1c0-4.4,3.6-8,8-8h0c4.4,0,8,3.6,8,8v1
		C36.916,41.732,33.316,45.332,28.916,45.332z"/>
	<path style="fill:#455560;" d="M53.916,45.332h-12c-1.1,0-2-0.9-2-2v-13c0-1.1,0.9-2,2-2h12c1.1,0,2,0.9,2,2v13
		C55.916,44.432,55.016,45.332,53.916,45.332z"/>
	<path style="fill:#FAF5E5;" d="M8.503,34.799c0.445-0.759,1.558-0.759,2.003,0l2.278,5.824c0.445,0.759-0.111,1.709-1.001,1.709
		H9.504H7.226c-0.89,0-1.446-0.949-1.001-1.709L8.503,34.799z"/>
	<ellipse style="fill:#FAF5E5;" cx="28.916" cy="36.832" rx="4" ry="4.5"/>
	<ellipse style="fill:#ED7161;" cx="28.916" cy="36.832" rx="2" ry="1.5"/>
	<path style="fill:#FAF5E5;" d="M51.916,42.332h-8c-0.55,0-1-0.45-1-1v-9c0-0.55,0.45-1,1-1h8c0.55,0,1,0.45,1,1v9
		C52.916,41.882,52.466,42.332,51.916,42.332z"/>
	<path style="fill:#F1B501;" d="M45.916,36.332c-0.256,0-0.512-0.098-0.707-0.293c-0.391-0.391-0.391-1.023,0-1.414l1-1
		c0.391-0.391,1.023-0.391,1.414,0s0.391,1.023,0,1.414l-1,1C46.428,36.234,46.172,36.332,45.916,36.332z"/>
	<path style="fill:#ED7161;" d="M46.916,40.332c-0.256,0-0.512-0.098-0.707-0.293l-1-1c-0.391-0.391-0.391-1.023,0-1.414
		s1.023-0.391,1.414,0l1,1c0.391,0.391,0.391,1.023,0,1.414C47.428,40.234,47.172,40.332,46.916,40.332z"/>
	<path style="fill:#88C057;" d="M48.916,38.332c-0.256,0-0.512-0.098-0.707-0.293c-0.391-0.391-0.391-1.023,0-1.414l1-1
		c0.391-0.391,1.023-0.391,1.414,0s0.391,1.023,0,1.414l-1,1C49.428,38.234,49.172,38.332,48.916,38.332z"/>
	
		<rect x="31.916" y="-8.801" transform="matrix(0.5547 0.8321 -0.8321 0.5547 25.3344 -21.6737)" style="fill:#A46F3E;" width="2" height="43.267"/>
	
		<rect x="33.224" y="-6.112" transform="matrix(0.2916 0.9565 -0.9565 0.2916 39.0891 -21.7411)" style="fill:#C69063;" width="1.999" height="43.267"/>
</g>
<g>
</g>
<g>
</g>
<g>
</g>
<g>
</g>
<g>
</g>
<g>
</g>
<g>
</g>
<g>
</g>
<g>
</g>
<g>
</g>
<g>
</g>
<g>
</g>
<g>
</g>
<g>
</g>
<g>
</g>
</svg>
