<?xml version="1.0" encoding="iso-8859-1"?>
<!-- Generator: Adobe Illustrator 18.0.0, SVG Export Plug-In . SVG Version: 6.00 Build 0)  -->
<!DOCTYPE svg PUBLIC "-//W3C//DTD SVG 1.1//EN" "http://www.w3.org/Graphics/SVG/1.1/DTD/svg11.dtd">
<svg version="1.1" id="Capa_1" xmlns="http://www.w3.org/2000/svg" xmlns:xlink="http://www.w3.org/1999/xlink" x="0px" y="0px"
	 viewBox="0 0 48 48" style="enable-background:new 0 0 48 48;" xml:space="preserve">
<g>
	<path style="fill:#E6E6E6;" d="M21.737,28H3.263c-2.226,0-3.797-2.227-3.093-4.384l0,0C1.459,19.665,2.922,17,7,17h11
		c4.078,0,5.541,2.665,6.83,6.616l0,0C25.534,25.773,23.962,28,21.737,28z"/>
	<path style="fill:#455560;" d="M24.959,25.149C24.735,26.713,23.428,28,21.737,28H3.263c-1.691,0-2.998-1.287-3.222-2.851
		C0.019,25.154,0,25.17,0,25.199v16.558C0,44.652,2.348,47,5.243,47h14.513C22.652,47,25,44.652,25,41.757V25.199
		C25,25.17,24.981,25.154,24.959,25.149z"/>
	<ellipse style="fill:#D75A4A;" cx="12.5" cy="22.5" rx="5.5" ry="2.5"/>
	<path style="fill:#E6E6E6;" d="M33.737,12H15.263c-2.226,0-3.797-2.227-3.093-4.384l0,0C13.459,3.665,14.922,1,19,1h11
		c4.078,0,5.541,2.665,6.83,6.616l0,0C37.534,9.773,35.962,12,33.737,12z"/>
	<ellipse style="fill:#D75A4A;" cx="24.5" cy="6.5" rx="5.5" ry="2.5"/>
	<path style="fill:#E6E6E6;" d="M47.83,23.616L47.83,23.616C46.541,19.665,43.078,17,39,17H27c-3.248,0-1.836,1.695-3,4.381
		c0.297,0.685,0.568,1.432,0.83,2.235v0c0.419,1.283,0.02,2.58-0.83,3.429C24.579,27.624,25.362,28,26.263,28h18.474
		C46.962,28,48.534,25.773,47.83,23.616z"/>
	<g>
		<path style="fill:#38454F;" d="M47.959,25.149C47.735,26.713,46.428,28,44.737,28H26.263c-0.454,0-0.878-0.099-1.263-0.265v14.021
			c0,1.145-0.377,2.196-1,3.059C24.952,46.133,26.493,47,28.243,47h14.513C45.652,47,48,44.652,48,41.756V25.199
			C48,25.17,47.981,25.154,47.959,25.149z"/>
	</g>
	<path style="fill:#38454F;" d="M18,17c3.248,0,4.836,1.695,6,4.381C25.164,18.695,23.752,17,27,17h10V9.199
		c0-0.028-0.019-0.044-0.041-0.05C36.735,10.713,35.428,12,33.737,12H15.263c-1.691,0-2.998-1.287-3.222-2.851
		C12.019,9.154,12,9.17,12,9.199V17H18z"/>
	<ellipse style="fill:#D75A4A;" cx="35.5" cy="22.5" rx="5.5" ry="2.5"/>
	<path style="fill:#546A79;" d="M5,44c-0.552,0-1-0.447-1-1v-6c0-0.553,0.448-1,1-1s1,0.447,1,1v6C6,43.553,5.552,44,5,44z"/>
	<path style="fill:#546A79;" d="M5,34.997c-0.552,0-1-0.447-1-1V31c0-0.553,0.448-1,1-1s1,0.447,1,1v2.997
		C6,34.55,5.552,34.997,5,34.997z"/>
	<path style="fill:#546A79;" d="M30,44c-0.552,0-1-0.447-1-1v-6c0-0.553,0.448-1,1-1s1,0.447,1,1v6C31,43.553,30.552,44,30,44z"/>
	<path style="fill:#546A79;" d="M30,34.997c-0.552,0-1-0.447-1-1V31c0-0.553,0.448-1,1-1s1,0.447,1,1v2.997
		C31,34.55,30.552,34.997,30,34.997z"/>
</g>
<g>
</g>
<g>
</g>
<g>
</g>
<g>
</g>
<g>
</g>
<g>
</g>
<g>
</g>
<g>
</g>
<g>
</g>
<g>
</g>
<g>
</g>
<g>
</g>
<g>
</g>
<g>
</g>
<g>
</g>
</svg>
