<?xml version="1.0" encoding="iso-8859-1"?>
<!-- Generator: Adobe Illustrator 18.0.0, SVG Export Plug-In . SVG Version: 6.00 Build 0)  -->
<!DOCTYPE svg PUBLIC "-//W3C//DTD SVG 1.1//EN" "http://www.w3.org/Graphics/SVG/1.1/DTD/svg11.dtd">
<svg version="1.1" id="Capa_1" xmlns="http://www.w3.org/2000/svg" xmlns:xlink="http://www.w3.org/1999/xlink" x="0px" y="0px"
	 viewBox="0 0 53.483 53.483" style="enable-background:new 0 0 53.483 53.483;" xml:space="preserve">
<g>
	<path style="fill:#FBD490;" d="M8.587,11.172C-3.81,23.569,2.236,39.223,11.495,53.16l41.988-41.988
		C41.085-1.226,20.985-1.226,8.587,11.172z"/>
	<path style="fill:#ED7161;" d="M20.236,7.724c-0.397,0-0.772-0.237-0.929-0.629l-2-5c-0.205-0.513,0.044-1.095,0.557-1.3
		c0.515-0.204,1.095,0.044,1.3,0.558l2,5c0.205,0.513-0.044,1.095-0.557,1.3C20.485,7.701,20.36,7.724,20.236,7.724z"/>
	<path style="fill:#659C35;" d="M35.567,7.831c-0.082,0-0.166-0.01-0.249-0.031c-0.535-0.138-0.857-0.683-0.72-1.218l1.338-5.216
		c0.138-0.534,0.681-0.856,1.217-0.72c0.535,0.138,0.857,0.683,0.72,1.218L36.536,7.08C36.419,7.531,36.013,7.831,35.567,7.831z"/>
	<path style="fill:#ED7161;" d="M19.236,9.724c-0.256,0-0.512-0.098-0.707-0.293c-0.391-0.391-0.391-1.023,0-1.414l5-5
		c0.391-0.391,1.023-0.391,1.414,0s0.391,1.023,0,1.414l-5,5C19.747,9.626,19.492,9.724,19.236,9.724z"/>
	<path style="fill:#ED7161;" d="M12.236,13.724h-6c-0.552,0-1-0.447-1-1s0.448-1,1-1h6c0.552,0,1,0.447,1,1
		S12.788,13.724,12.236,13.724z"/>
	<path style="fill:#659C35;" d="M46.237,9.724c-0.367,0-0.72-0.202-0.896-0.553c-0.247-0.494-0.047-1.095,0.447-1.342l2-1
		c0.495-0.247,1.095-0.047,1.342,0.447s0.047,1.095-0.447,1.342l-2,1C46.539,9.689,46.387,9.724,46.237,9.724z"/>
	<path style="fill:#E6E6E6;" d="M1.236,42.724c-0.419,0-0.809-0.265-0.949-0.684c-0.175-0.524,0.108-1.091,0.632-1.265l3-1
		c0.526-0.177,1.091,0.108,1.265,0.632c0.175,0.524-0.108,1.091-0.632,1.265l-3,1C1.447,42.707,1.34,42.724,1.236,42.724z"/>
	<path style="fill:#ED7161;" d="M3.235,29.724c-0.15,0-0.303-0.034-0.446-0.105l-2-1c-0.494-0.247-0.694-0.848-0.447-1.342
		c0.247-0.493,0.846-0.692,1.342-0.447l2,1c0.494,0.247,0.694,0.848,0.447,1.342C3.955,29.521,3.602,29.724,3.235,29.724z"/>
	<path style="fill:#E6E6E6;" d="M8.236,52.724c-0.256,0-0.512-0.098-0.707-0.293c-0.391-0.391-0.391-1.023,0-1.414l1-1
		c0.391-0.391,1.023-0.391,1.414,0s0.391,1.023,0,1.414l-1,1C8.747,52.626,8.492,52.724,8.236,52.724z"/>
	<path style="fill:#659C35;" d="M15.716,11.043c-1.255,0-2.299-0.916-2.501-2.114c-0.095,0.454-0.497,0.795-0.979,0.795
		c-0.552,0-1-0.447-1-1c0-2.206,1.794-4,4-4c1.875,0,3.4,1.525,3.4,3.399C18.636,9.733,17.326,11.043,15.716,11.043z M14.18,7.507
		c0.552,0,1,0.447,1,1c0,0.296,0.241,0.536,0.536,0.536c0.507,0,0.92-0.413,0.92-0.92c0-0.771-0.628-1.399-1.4-1.399
		c-0.779,0-1.455,0.447-1.785,1.099C13.633,7.628,13.892,7.507,14.18,7.507z"/>
	<path style="fill:#7A3726;" d="M5.736,21.724c-1.93,0-3.5-1.57-3.5-3.5s1.57-3.5,3.5-3.5s3.5,1.57,3.5,3.5
		S7.665,21.724,5.736,21.724z M5.736,16.724c-0.827,0-1.5,0.673-1.5,1.5s0.673,1.5,1.5,1.5s1.5-0.673,1.5-1.5
		S6.563,16.724,5.736,16.724z"/>
	<path style="fill:#7A3726;" d="M27.736,7.724c-1.93,0-3.5-1.57-3.5-3.5s1.57-3.5,3.5-3.5s3.5,1.57,3.5,3.5
		S29.665,7.724,27.736,7.724z M27.736,2.724c-0.827,0-1.5,0.673-1.5,1.5s0.673,1.5,1.5,1.5s1.5-0.673,1.5-1.5
		S28.563,2.724,27.736,2.724z"/>
	<path style="fill:#659C35;" d="M2.235,36.724c-0.15,0-0.303-0.034-0.447-0.105c-1.595-0.799-2.245-2.746-1.447-4.342
		c0.688-1.376,2.365-1.936,3.741-1.248c0.581,0.29,1.014,0.79,1.22,1.406S5.461,33.71,5.17,34.29
		c-0.247,0.494-0.848,0.692-1.342,0.447c-0.494-0.248-0.694-0.849-0.446-1.342c0.069-0.139,0.044-0.266,0.023-0.329
		c-0.021-0.063-0.077-0.18-0.216-0.249c-0.391-0.197-0.864-0.036-1.058,0.354c-0.305,0.609-0.057,1.354,0.553,1.658
		c0.494,0.247,0.694,0.849,0.446,1.342C2.955,36.521,2.601,36.724,2.235,36.724z"/>
	<path style="fill:#659C35;" d="M5.636,50.323c-1.257,0-2.28-1.022-2.28-2.28c0-0.553,0.448-1,1-1s1,0.447,1,1
		c0,0.154,0.125,0.28,0.28,0.28c0.331,0,0.6-0.269,0.6-0.6c0-0.552-0.449-1-1-1c-0.552,0-1-0.447-1-1s0.448-1,1-1
		c1.654,0,3,1.346,3,3C8.236,49.157,7.069,50.323,5.636,50.323z"/>
	<path style="fill:#7A3726;" d="M41.236,8.724c-0.256,0-0.512-0.098-0.707-0.293c-1.493-1.492-1.493-3.922,0-5.414
		c1.272-1.271,3.342-1.271,4.614,0c0.531,0.53,0.823,1.235,0.823,1.986S45.674,6.46,45.143,6.99
		c-0.804,0.803-2.033,0.932-2.972,0.38c0.134,0.356,0.058,0.773-0.229,1.061C41.747,8.626,41.492,8.724,41.236,8.724z M42.836,4.062
		c-0.324,0-0.647,0.123-0.893,0.369c-0.426,0.427-0.598,1.013-0.514,1.567c0.046-0.154,0.13-0.3,0.251-0.422
		c0.391-0.391,1.024-0.391,1.415,0c0.174,0.173,0.459,0.175,0.634,0c0.153-0.153,0.237-0.356,0.237-0.573
		c0-0.216-0.084-0.419-0.237-0.571C43.483,4.185,43.159,4.062,42.836,4.062z"/>
	<path style="fill:#7A3726;" d="M49.636,13.323c-1.257,0-2.28-1.022-2.28-2.28c0-0.553,0.448-1,1-1s1,0.447,1,1
		c0,0.154,0.125,0.28,0.28,0.28c0.331,0,0.6-0.269,0.6-0.6c0-0.552-0.449-1-1-1c-0.552,0-1-0.447-1-1s0.448-1,1-1
		c1.654,0,3,1.346,3,3C52.236,12.157,51.069,13.323,49.636,13.323z"/>
	<path style="fill:#E6E6E6;" d="M31.156,7.724c-1.61,0-2.92-1.31-2.92-2.92c0-1.255,0.917-2.301,2.116-2.501
		c-0.455-0.095-0.796-0.497-0.796-0.979c0-0.553,0.448-1,1-1c2.206,0,4,1.794,4,4C34.556,6.198,33.03,7.724,31.156,7.724z
		 M31.454,2.537c0.195,0.183,0.317,0.442,0.317,0.73c0,0.553-0.448,1-1,1c-0.295,0-0.536,0.24-0.536,0.536
		c0,0.507,0.413,0.92,0.92,0.92c0.772,0,1.4-0.628,1.4-1.4C32.556,3.544,32.107,2.867,31.454,2.537z"/>
	<path style="fill:#EEAF4B;" d="M11.552,13.676c-10.887,10.887-10.887,28.539,0,39.426l39.426-39.426
		C40.092,2.788,22.44,2.788,11.552,13.676z"/>
	<circle style="fill:#FBD490;" cx="32.736" cy="19.223" r="1.5"/>
	<circle style="fill:#DC9628;" cx="6.736" cy="35.223" r="1.5"/>
	<circle style="fill:#DC9628;" cx="15.736" cy="24.223" r="2.5"/>
	<circle style="fill:#DC9628;" cx="26.736" cy="31.223" r="2.5"/>
	<circle style="fill:#DC9628;" cx="27.736" cy="11.223" r="2.5"/>
	<circle style="fill:#DC9628;" cx="15.736" cy="41.223" r="1.5"/>
	<circle style="fill:#FBD490;" cx="16.736" cy="16.223" r="1.5"/>
	<circle style="fill:#FBD490;" cx="8.736" cy="25.223" r="1.5"/>
	<circle style="fill:#FBD490;" cx="22.236" cy="21.723" r="1"/>
	<circle style="fill:#FBD490;" cx="14.236" cy="33.723" r="1"/>
	<circle style="fill:#FBD490;" cx="42.236" cy="14.723" r="1"/>
	<circle style="fill:#FBD490;" cx="20.236" cy="31.723" r="1"/>
	<circle style="fill:#FBD490;" cx="10.236" cy="42.723" r="1"/>
</g>
<g>
</g>
<g>
</g>
<g>
</g>
<g>
</g>
<g>
</g>
<g>
</g>
<g>
</g>
<g>
</g>
<g>
</g>
<g>
</g>
<g>
</g>
<g>
</g>
<g>
</g>
<g>
</g>
<g>
</g>
</svg>
