<?xml version="1.0" encoding="iso-8859-1"?>
<!-- Generator: Adobe Illustrator 18.0.0, SVG Export Plug-In . SVG Version: 6.00 Build 0)  -->
<!DOCTYPE svg PUBLIC "-//W3C//DTD SVG 1.1//EN" "http://www.w3.org/Graphics/SVG/1.1/DTD/svg11.dtd">
<svg version="1.1" id="Capa_1" xmlns="http://www.w3.org/2000/svg" xmlns:xlink="http://www.w3.org/1999/xlink" x="0px" y="0px"
	 viewBox="0 0 58 58" style="enable-background:new 0 0 58 58;" xml:space="preserve">
<g>
	<path style="fill:#D2D5D7;" d="M54,49.286c0,0-8.538,6.429-27,6.429S0,49.366,0,49.286H54z"/>
	<path style="fill:#D2D5D7;" d="M45,41.286c-0.552,0-1-0.447-1-1s0.448-1,1-1c6.001,0,10.453-3.728,10.953-9H47
		c-0.552,0-1-0.447-1-1s0.448-1,1-1h10c0.552,0,1,0.447,1,1C58,36.127,52.411,41.286,45,41.286z"/>
	<path style="fill:#E6E6E6;" d="M15.943,21.006c-0.256,0-0.512-0.098-0.707-0.293c-0.87-0.87-1.35-2.026-1.35-3.255
		c0-1.229,0.479-2.386,1.35-3.256C15.729,13.711,16,13.056,16,12.361s-0.271-1.35-0.764-1.842c-0.391-0.391-0.391-1.023,0-1.414
		c0.39-0.391,1.023-0.391,1.414,0c0.87,0.87,1.35,2.026,1.35,3.256s-0.479,2.386-1.35,3.256c-0.492,0.492-0.764,1.146-0.764,1.842
		c0,0.694,0.271,1.349,0.764,1.841c0.391,0.391,0.391,1.023,0,1.414C16.456,20.909,16.199,21.006,15.943,21.006z"/>
	<path style="fill:#E6E6E6;" d="M37.943,21.006c-0.256,0-0.512-0.098-0.707-0.293c-0.87-0.87-1.35-2.026-1.35-3.255
		c0-1.229,0.479-2.386,1.35-3.256C37.729,13.711,38,13.056,38,12.361s-0.271-1.35-0.764-1.842c-0.391-0.391-0.391-1.023,0-1.414
		c0.39-0.391,1.023-0.391,1.414,0c0.87,0.87,1.35,2.026,1.35,3.256s-0.479,2.386-1.35,3.256c-0.492,0.492-0.764,1.146-0.764,1.842
		c0,0.694,0.271,1.349,0.764,1.841c0.391,0.391,0.391,1.023,0,1.414C38.456,20.909,38.199,21.006,37.943,21.006z"/>
	<path style="fill:#E6E6E6;" d="M26.881,18.006c-0.256,0-0.512-0.098-0.707-0.293c-1.106-1.105-1.715-2.574-1.715-4.137
		s0.609-3.031,1.715-4.138c0.728-0.729,1.129-1.695,1.129-2.723c0-1.028-0.401-1.995-1.129-2.724c-0.391-0.391-0.391-1.023,0-1.414
		s1.023-0.391,1.414,0c1.106,1.106,1.715,2.575,1.715,4.138s-0.609,3.031-1.715,4.137c-0.728,0.729-1.129,1.695-1.129,2.724
		c0,1.027,0.401,1.994,1.129,2.723c0.391,0.391,0.391,1.023,0,1.414C27.394,17.909,27.137,18.006,26.881,18.006z"/>
	<path style="fill:#E6E6E6;" d="M16.438,49.286h21.123C44.646,45.026,48,36.484,48,26.286H6C6,36.484,9.354,45.026,16.438,49.286z"
		/>
	<path style="fill:#FBD490;" d="M20,36.286c-0.552,0-1-0.447-1-1v-10c0-0.553,0.448-1,1-1s1,0.447,1,1v10
		C21,35.838,20.552,36.286,20,36.286z"/>
	<rect x="15.4" y="33.286" style="fill:#F9D70B;" width="9.2" height="11.5"/>
	<rect x="15.4" y="40.286" style="fill:#EEAF4B;" width="9.2" height="4.5"/>
</g>
<g>
</g>
<g>
</g>
<g>
</g>
<g>
</g>
<g>
</g>
<g>
</g>
<g>
</g>
<g>
</g>
<g>
</g>
<g>
</g>
<g>
</g>
<g>
</g>
<g>
</g>
<g>
</g>
<g>
</g>
</svg>
