<?xml version="1.0" encoding="iso-8859-1"?>
<!-- Generator: Adobe Illustrator 18.0.0, SVG Export Plug-In . SVG Version: 6.00 Build 0)  -->
<!DOCTYPE svg PUBLIC "-//W3C//DTD SVG 1.1//EN" "http://www.w3.org/Graphics/SVG/1.1/DTD/svg11.dtd">
<svg version="1.1" id="Capa_1" xmlns="http://www.w3.org/2000/svg" xmlns:xlink="http://www.w3.org/1999/xlink" x="0px" y="0px"
	 viewBox="0 0 55 55" style="enable-background:new 0 0 55 55;" xml:space="preserve">
<g>
	<path style="fill:#D2D5D7;" d="M15,23c-4.963,0-9-4.037-9-9h2c0,3.859,3.141,7,7,7s7-3.141,7-7V9c0-4.963,4.037-9,9-9s9,4.037,9,9
		h-2c0-3.859-3.141-7-7-7s-7,3.141-7,7v5C24,18.963,19.963,23,15,23z"/>
	<path style="fill:#E6E6E6;" d="M53.786,25.424l-4.902-13.221C48.393,10.878,47.141,10,45.742,10H31.258
		c-1.399,0-2.651,0.878-3.142,2.203l-4.902,13.221C23.072,25.805,23,26.208,23,26.615v24.99C23,53.48,24.503,55,26.356,55h24.288
		C52.497,55,54,53.48,54,51.606v-24.99C54,26.208,53.928,25.805,53.786,25.424z M39,21c-1.657,0-3-1.343-3-3s1.343-3,3-3
		s3,1.343,3,3S40.657,21,39,21z"/>
	<path style="fill:#FBD490;" d="M9.453,18H4.547C2.588,18,1,16.412,1,14.453V6.547C1,4.588,2.588,3,4.547,3h4.905
		C11.412,3,13,4.588,13,6.547v7.905C13,16.412,11.412,18,9.453,18z"/>
	<path style="fill:#D2D5D7;" d="M39,22c-2.206,0-4-1.794-4-4s1.794-4,4-4s4,1.794,4,4S41.206,22,39,22z M39,16c-1.103,0-2,0.897-2,2
		s0.897,2,2,2s2-0.897,2-2S40.103,16,39,16z"/>
	<rect x="37.999" y="8.813" style="fill:#D2D5D7;" width="2" height="9.188"/>
	<polygon style="fill:#D2D5D7;" points="29.293,52.707 28,51.414 26.707,52.707 25.293,51.293 28,48.586 30.707,51.293 	"/>
	<polygon style="fill:#D2D5D7;" points="36.293,52.707 35,51.414 33.707,52.707 32.293,51.293 35,48.586 37.707,51.293 	"/>
	<polygon style="fill:#D2D5D7;" points="43.293,52.707 42,51.414 40.707,52.707 39.293,51.293 42,48.586 44.707,51.293 	"/>
	<polygon style="fill:#D2D5D7;" points="50.293,52.707 49,51.414 47.707,52.707 46.293,51.293 49,48.586 51.707,51.293 	"/>
	<polygon style="fill:#D2D5D7;" points="29.293,42.707 28,41.414 26.707,42.707 25.293,41.293 28,38.586 30.707,41.293 	"/>
	<polygon style="fill:#D2D5D7;" points="36.293,42.707 35,41.414 33.707,42.707 32.293,41.293 35,38.586 37.707,41.293 	"/>
	<polygon style="fill:#D2D5D7;" points="43.293,42.707 42,41.414 40.707,42.707 39.293,41.293 42,38.586 44.707,41.293 	"/>
	<polygon style="fill:#D2D5D7;" points="50.293,42.707 49,41.414 47.707,42.707 46.293,41.293 49,38.586 51.707,41.293 	"/>
	<polygon style="fill:#D2D5D7;" points="32.293,47.707 31,46.414 29.707,47.707 28.293,46.293 31,43.586 33.707,46.293 	"/>
	<polygon style="fill:#D2D5D7;" points="39.293,47.707 38,46.414 36.707,47.707 35.293,46.293 38,43.586 40.707,46.293 	"/>
	<polygon style="fill:#D2D5D7;" points="46.293,47.707 45,46.414 43.707,47.707 42.293,46.293 45,43.586 47.707,46.293 	"/>
	<polygon style="fill:#D2D5D7;" points="32.293,37.707 31,36.414 29.707,37.707 28.293,36.293 31,33.586 33.707,36.293 	"/>
	<polygon style="fill:#D2D5D7;" points="39.293,37.707 38,36.414 36.707,37.707 35.293,36.293 38,33.586 40.707,36.293 	"/>
	<polygon style="fill:#D2D5D7;" points="46.293,37.707 45,36.414 43.707,37.707 42.293,36.293 45,33.586 47.707,36.293 	"/>
	<polygon style="fill:#D2D5D7;" points="54,37 54,35.586 52,33.586 49.293,36.293 50.707,37.707 52,36.414 53.293,37.707 	"/>
	<polygon style="fill:#D2D5D7;" points="54,47 54,45.586 52,43.586 49.293,46.293 50.707,47.707 52,46.414 53.293,47.707 	"/>
	<polygon style="fill:#D2D5D7;" points="24,33.586 23,34.586 23,36 23.707,36.707 24,36.414 25.293,37.707 26.707,36.293 	"/>
	<polygon style="fill:#D2D5D7;" points="24,43.586 23,44.586 23,46 23.707,46.707 24,46.414 25.293,47.707 26.707,46.293 	"/>
</g>
<g>
</g>
<g>
</g>
<g>
</g>
<g>
</g>
<g>
</g>
<g>
</g>
<g>
</g>
<g>
</g>
<g>
</g>
<g>
</g>
<g>
</g>
<g>
</g>
<g>
</g>
<g>
</g>
<g>
</g>
</svg>
