<?xml version="1.0" encoding="iso-8859-1"?>
<!-- Generator: Adobe Illustrator 18.0.0, SVG Export Plug-In . SVG Version: 6.00 Build 0)  -->
<!DOCTYPE svg PUBLIC "-//W3C//DTD SVG 1.1//EN" "http://www.w3.org/Graphics/SVG/1.1/DTD/svg11.dtd">
<svg version="1.1" id="Capa_1" xmlns="http://www.w3.org/2000/svg" xmlns:xlink="http://www.w3.org/1999/xlink" x="0px" y="0px"
	 viewBox="0 0 55.472 55.472" style="enable-background:new 0 0 55.472 55.472;" xml:space="preserve">
<g>
	<path style="fill:#BBD7EA;" d="M45.968,36.377l-0.089-1.071c-0.478-5.729-2.825-11.41-6.439-15.589l-0.713-0.823l0.881-0.641
		c1.722-1.249,3.749-1.91,5.864-1.91c5.514,0,10,4.486,10,10c0,4.949-3.55,9.1-8.441,9.868L45.968,36.377z M41.689,19.301
		c3.238,4.1,5.403,9.348,6.065,14.702c3.369-0.988,5.718-4.06,5.718-7.66c0-4.411-3.589-8-8-8
		C44.14,18.343,42.85,18.671,41.689,19.301z"/>
	<g>
		<path style="fill:#DAE7EF;" d="M24.561,12.343c-6.025,0-11.49,2.97-15.518,7.471c-0.039,0.043-0.11,0.047-0.153,0.008L5.402,16.71
			c-0.934-0.834-2.412-1.106-3.54-0.492c-1.612,0.877-1.794,2.803-0.545,3.917l0,0c2.578,2.301,3.439,5.687,2.34,8.79
			c-0.973,2.746-1.508,5.65-1.508,8.56c0,4.864,1.498,9.365,4.042,13.065c1.751,2.547,4.884,4.078,8.233,4.078h20.274
			c3.349,0,6.482-1.53,8.233-4.078c2.544-3.701,4.042-8.201,4.042-13.065C46.972,24.862,36.938,12.343,24.561,12.343z"/>
		<path style="fill:#BBD7EA;" d="M34.697,55.129H14.424c-3.512,0-6.824-1.646-8.646-4.295C3.077,46.905,1.65,42.289,1.65,37.485
			c0-2.915,0.517-5.851,1.536-8.727c1.044-2.945,0.201-6.106-2.201-8.25c-0.721-0.643-1.072-1.538-0.966-2.458
			c0.109-0.948,0.694-1.775,1.604-2.271c1.273-0.692,2.965-0.464,4.112,0.558l3.197,2.854c4.366-4.741,9.902-7.349,15.628-7.349
			c12.205,0,22.911,11.982,22.911,25.643c0,4.805-1.428,9.42-4.13,13.349C41.521,53.483,38.208,55.129,34.697,55.129z M3.226,16.385
			c-0.396,0-0.786,0.089-1.124,0.273c-0.621,0.338-1.019,0.887-1.09,1.508c-0.068,0.592,0.164,1.174,0.639,1.597
			c2.711,2.419,3.66,5.994,2.479,9.33c-0.981,2.769-1.479,5.592-1.479,8.393c0,4.601,1.367,9.021,3.953,12.782
			c1.638,2.382,4.635,3.861,7.821,3.861h20.273c3.187,0,6.183-1.479,7.82-3.861c2.587-3.761,3.954-8.181,3.954-12.782
			c0-12.897-10.443-24.643-21.911-24.643c-5.552,0-10.93,2.595-15.145,7.305c-0.229,0.25-0.61,0.271-0.859,0.049l-3.487-3.113
			C4.557,16.626,3.88,16.385,3.226,16.385z"/>
	</g>
	<path style="fill:#38454F;" d="M24.472,9.343c-2.481,0-4.5-2.019-4.5-4.5s2.019-4.5,4.5-4.5s4.5,2.019,4.5,4.5
		S26.953,9.343,24.472,9.343z M24.472,2.343c-1.379,0-2.5,1.121-2.5,2.5s1.121,2.5,2.5,2.5s2.5-1.121,2.5-2.5
		S25.851,2.343,24.472,2.343z"/>
	<rect x="17.472" y="19.343" style="fill:#38454F;" width="14" height="27"/>
	<path style="fill:#38454F;" d="M24.472,20.343c-0.553,0-1-0.447-1-1V9.196c0-0.553,0.447-1,1-1s1,0.447,1,1v10.146
		C25.472,19.896,25.025,20.343,24.472,20.343z"/>
	<path style="fill:#FBD490;" d="M41.987,33.102c-2.345-2.345-6.14-2.345-8.485,0h-0.029c-2.345,2.345-6.14,2.345-8.485,0
		c-2.345-2.345-6.14-2.345-8.485,0h-0.029c-2.345,2.345-6.14,2.345-8.485,0c-1.383-1.383-3.269-1.928-5.066-1.68
		c-0.494,1.984-0.771,4.021-0.771,6.064c0,4.864,1.498,9.365,4.042,13.065c1.751,2.547,4.884,4.078,8.233,4.078h20.274
		c3.349,0,6.482-1.53,8.233-4.078c2.544-3.701,4.042-8.201,4.042-13.065c0-0.896-0.056-1.791-0.154-2.682
		C45.092,34.974,43.31,34.425,41.987,33.102z"/>
	<path style="fill:#BFA175;" d="M31.472,34.425c-2.164,0.872-4.73,0.432-6.485-1.323c-2.044-2.044-5.188-2.303-7.515-0.785v14.026
		h14V34.425z"/>
	<circle style="fill:#FFFFFF;" cx="24.472" cy="43.343" r="1"/>
	<circle style="fill:#FFFFFF;" cx="28.472" cy="37.343" r="1"/>
	<circle style="fill:#FFFFFF;" cx="20.472" cy="37.343" r="1"/>
	<circle style="fill:#FFFFFF;" cx="24.472" cy="37.343" r="1"/>
	<circle style="fill:#FFFFFF;" cx="26.472" cy="40.343" r="1"/>
	<circle style="fill:#FFFFFF;" cx="22.472" cy="40.343" r="1"/>
</g>
<g>
</g>
<g>
</g>
<g>
</g>
<g>
</g>
<g>
</g>
<g>
</g>
<g>
</g>
<g>
</g>
<g>
</g>
<g>
</g>
<g>
</g>
<g>
</g>
<g>
</g>
<g>
</g>
<g>
</g>
</svg>
