<?xml version="1.0" encoding="iso-8859-1"?>
<!-- Generator: Adobe Illustrator 18.0.0, SVG Export Plug-In . SVG Version: 6.00 Build 0)  -->
<!DOCTYPE svg PUBLIC "-//W3C//DTD SVG 1.1//EN" "http://www.w3.org/Graphics/SVG/1.1/DTD/svg11.dtd">
<svg version="1.1" id="Capa_1" xmlns="http://www.w3.org/2000/svg" xmlns:xlink="http://www.w3.org/1999/xlink" x="0px" y="0px"
	 viewBox="0 0 55.231 55.231" style="enable-background:new 0 0 55.231 55.231;" xml:space="preserve">
<g>
	<path style="fill:#E6E6E6;" d="M42.873,50.116c2.951,0,5.212-3.561,4.545-7.31c-2.312-13.001-11.248-22.69-21.919-22.69
		S5.893,29.804,3.581,42.805c-0.667,3.749,1.594,7.31,4.545,7.31H42.873z"/>
	<path style="fill:#38454F;" d="M42.935,30.914L49,23.116h-7l-2.448,3.427C40.794,27.84,41.928,29.306,42.935,30.914z"/>
	<path style="fill:#38454F;" d="M36.895,25.116c0.396,0,0.583-0.504,0.272-0.75c-3.402-2.697-7.395-4.25-11.667-4.25
		s-8.265,1.554-11.667,4.25c-0.311,0.246-0.124,0.75,0.272,0.75H36.895z"/>
	<path style="fill:#38454F;" d="M25.5,21.116c-2.481,0-4.5-2.019-4.5-4.5s2.019-4.5,4.5-4.5s4.5,2.019,4.5,4.5
		S27.981,21.116,25.5,21.116z M25.5,14.116c-1.379,0-2.5,1.121-2.5,2.5s1.121,2.5,2.5,2.5s2.5-1.121,2.5-2.5
		S26.879,14.116,25.5,14.116z"/>
	<path style="fill:#38454F;" d="M6.319,36.621l-0.945-0.457C2.06,34.562,0,31.285,0,27.616c0-5.238,4.262-9.5,9.5-9.5
		c3.026,0,5.9,1.47,7.687,3.932l0.65,0.896l-0.959,0.556c-4.264,2.471-7.867,6.787-10.148,12.155L6.319,36.621z M9.5,20.116
		c-4.136,0-7.5,3.364-7.5,7.5c0,2.548,1.259,4.855,3.344,6.235c2.271-4.879,5.602-8.885,9.524-11.46
		C13.465,20.951,11.525,20.116,9.5,20.116z"/>
	<g>
		<path style="fill:#E6E6E6;" d="M44.999,20.116c-0.196,0-0.395-0.058-0.568-0.178c-0.454-0.314-0.567-0.938-0.253-1.392
			l0.569-0.822c0.313-0.454,0.936-0.568,1.392-0.253c0.454,0.314,0.567,0.938,0.253,1.392l-0.569,0.822
			C45.628,19.965,45.316,20.116,44.999,20.116z"/>
		<path style="fill:#E6E6E6;" d="M47.383,16.673c-0.196,0-0.395-0.058-0.568-0.178c-0.454-0.314-0.567-0.938-0.253-1.392
			l1.209-1.747c0.314-0.454,0.936-0.567,1.392-0.253c0.454,0.314,0.567,0.938,0.253,1.392l-1.209,1.747
			C48.012,16.523,47.7,16.673,47.383,16.673z M50.406,12.305c-0.196,0-0.395-0.058-0.568-0.178
			c-0.454-0.314-0.567-0.938-0.253-1.392l1.209-1.747c0.314-0.453,0.937-0.568,1.392-0.253c0.454,0.314,0.567,0.938,0.253,1.392
			l-1.209,1.747C51.035,12.155,50.724,12.305,50.406,12.305z"/>
		<path style="fill:#E6E6E6;" d="M53.43,7.938c-0.196,0-0.395-0.058-0.568-0.178c-0.454-0.314-0.567-0.938-0.253-1.392l0.569-0.822
			c0.313-0.453,0.936-0.568,1.392-0.253c0.454,0.314,0.567,0.938,0.253,1.392l-0.569,0.822C54.059,7.787,53.747,7.938,53.43,7.938z"
			/>
	</g>
	<g>
		<path style="fill:#E6E6E6;" d="M48.999,20.116c-0.196,0-0.395-0.058-0.568-0.178c-0.454-0.314-0.567-0.938-0.253-1.392
			l0.569-0.822c0.314-0.454,0.937-0.568,1.392-0.253c0.454,0.314,0.567,0.938,0.253,1.392l-0.569,0.822
			C49.628,19.965,49.316,20.116,48.999,20.116z"/>
		<path style="fill:#E6E6E6;" d="M51.103,17.076c-0.196,0-0.395-0.058-0.568-0.178c-0.454-0.314-0.567-0.938-0.253-1.392
			l1.023-1.478c0.313-0.454,0.936-0.568,1.392-0.253c0.454,0.314,0.567,0.938,0.253,1.392l-1.023,1.478
			C51.731,16.926,51.42,17.076,51.103,17.076z"/>
		<path style="fill:#E6E6E6;" d="M53.66,13.382c-0.196,0-0.395-0.058-0.568-0.178c-0.454-0.314-0.567-0.938-0.253-1.392l0.569-0.822
			c0.314-0.454,0.937-0.567,1.392-0.253c0.454,0.314,0.567,0.938,0.253,1.392l-0.569,0.822
			C54.289,13.232,53.978,13.382,53.66,13.382z"/>
	</g>
</g>
<g>
</g>
<g>
</g>
<g>
</g>
<g>
</g>
<g>
</g>
<g>
</g>
<g>
</g>
<g>
</g>
<g>
</g>
<g>
</g>
<g>
</g>
<g>
</g>
<g>
</g>
<g>
</g>
<g>
</g>
</svg>
