<?xml version="1.0" encoding="iso-8859-1"?>
<!-- Generator: Adobe Illustrator 18.0.0, SVG Export Plug-In . SVG Version: 6.00 Build 0)  -->
<!DOCTYPE svg PUBLIC "-//W3C//DTD SVG 1.1//EN" "http://www.w3.org/Graphics/SVG/1.1/DTD/svg11.dtd">
<svg version="1.1" id="Capa_1" xmlns="http://www.w3.org/2000/svg" xmlns:xlink="http://www.w3.org/1999/xlink" x="0px" y="0px"
	 viewBox="0 0 55.967 55.967" style="enable-background:new 0 0 55.967 55.967;" xml:space="preserve">
<g>
	<path style="fill:#D2D5D7;" d="M27.983,28.967c-0.552,0-1-0.447-1-1v-9c0-0.553,0.448-1,1-1s1,0.447,1,1v9
		C28.983,28.52,28.536,28.967,27.983,28.967z"/>
	<path style="fill:#D2D5D7;" d="M34.765,8.798c0,4.859-3.037,12.757-6.782,12.757s-6.782-7.898-6.782-12.757S24.238,0,27.983,0
		S34.765,3.939,34.765,8.798z"/>
	<path style="fill:#A46F3E;" d="M27.983,55.967L27.983,55.967c-1.65,0-3-1.35-3-3v-22c0-1.65,1.35-3,3-3h0c1.65,0,3,1.35,3,3v22
		C30.983,54.617,29.633,55.967,27.983,55.967z"/>
	<path style="fill:#D2D5D7;" d="M27.983,33.967L27.983,33.967c-0.55,0-1-0.45-1-1l0,0c0-0.55,0.45-1,1-1h0c0.55,0,1,0.45,1,1l0,0
		C28.983,33.517,28.533,33.967,27.983,33.967z"/>
	<path style="fill:#D2D5D7;" d="M27.983,37.967L27.983,37.967c-0.55,0-1-0.45-1-1l0,0c0-0.55,0.45-1,1-1h0c0.55,0,1,0.45,1,1l0,0
		C28.983,37.517,28.533,37.967,27.983,37.967z"/>
</g>
<g>
</g>
<g>
</g>
<g>
</g>
<g>
</g>
<g>
</g>
<g>
</g>
<g>
</g>
<g>
</g>
<g>
</g>
<g>
</g>
<g>
</g>
<g>
</g>
<g>
</g>
<g>
</g>
<g>
</g>
</svg>
