<?xml version="1.0" encoding="iso-8859-1"?>
<!-- Generator: Adobe Illustrator 18.0.0, SVG Export Plug-In . SVG Version: 6.00 Build 0)  -->
<!DOCTYPE svg PUBLIC "-//W3C//DTD SVG 1.1//EN" "http://www.w3.org/Graphics/SVG/1.1/DTD/svg11.dtd">
<svg version="1.1" id="Capa_1" xmlns="http://www.w3.org/2000/svg" xmlns:xlink="http://www.w3.org/1999/xlink" x="0px" y="0px"
	 viewBox="0 0 53.19 53.19" style="enable-background:new 0 0 53.19 53.19;" xml:space="preserve">
<g>
	<path style="fill:#D2D5D7;" d="M7.537,18.791c-1.075,1.075-0.906,2.984,0.177,4.066c-1.082-1.082-2.991-1.252-4.066-0.177
		c-1.075,1.075-0.906,2.984,0.177,4.066c-0.822-0.822-2.287-1.08-3.344-0.613c-0.504,0.222-0.634,0.877-0.245,1.267l2.284,2.284
		l1.965,1.965c1.295,1.295,6.084,6.084,6.084,6.084l0,0c1.4-0.555,3.038-0.308,4.107,0.753c0.013,0.013,0.025,0.025,0.038,0.038
		c1.061,1.069,1.308,2.706,0.753,4.107l0,0c0,0,4.789,4.789,6.084,6.084l1.965,1.965l2.284,2.284
		c0.389,0.389,1.044,0.258,1.267-0.245c0.466-1.057,0.209-2.522-0.613-3.344c1.082,1.082,2.991,1.252,4.066,0.177
		c1.075-1.075,0.906-2.984-0.177-4.066c1.082,1.082,2.991,1.252,4.066,0.177c1.075-1.075,0.906-2.984-0.177-4.066
		c0.822,0.822,2.287,1.08,3.344,0.613c0.504-0.222,0.635-0.877,0.245-1.267l-2.284-2.284l-2.68-2.68
		c-1.429-1.429-2.59-3.104-3.426-4.944l0,0c-0.834-1.835-0.443-3.996,0.983-5.421L52.529,3.498c0.705-0.705,0.886-1.84,0.307-2.653
		c-0.735-1.032-2.193-1.119-3.05-0.262L27.585,22.785c-1.426,1.426-3.586,1.817-5.421,0.983l0,0
		c-1.84-0.836-3.514-1.997-4.944-3.426l-2.68-2.68l-2.284-2.284c-0.389-0.389-1.044-0.258-1.267,0.245
		c-0.466,1.057-0.209,2.522,0.613,3.344C10.521,17.886,8.612,17.717,7.537,18.791z"/>
	
		<rect x="28.028" y="35.671" transform="matrix(0.7071 0.7071 -0.7071 0.7071 39.7356 -7.5883)" style="fill:#E6E6E6;" width="2" height="17"/>
	
		<rect x="8.009" y="15.704" transform="matrix(0.7071 0.7071 -0.7071 0.7071 19.7432 0.7149)" style="fill:#E6E6E6;" width="2" height="16.971"/>
	
		<rect x="40.009" y="10.19" transform="matrix(0.707 0.7072 -0.7072 0.707 20.2231 -26.4309)" style="fill:#E6E6E6;" width="4" height="2"/>
</g>
<g>
</g>
<g>
</g>
<g>
</g>
<g>
</g>
<g>
</g>
<g>
</g>
<g>
</g>
<g>
</g>
<g>
</g>
<g>
</g>
<g>
</g>
<g>
</g>
<g>
</g>
<g>
</g>
<g>
</g>
</svg>
