<?xml version="1.0" encoding="iso-8859-1"?>
<!-- Generator: Adobe Illustrator 18.0.0, SVG Export Plug-In . SVG Version: 6.00 Build 0)  -->
<!DOCTYPE svg PUBLIC "-//W3C//DTD SVG 1.1//EN" "http://www.w3.org/Graphics/SVG/1.1/DTD/svg11.dtd">
<svg version="1.1" id="Capa_1" xmlns="http://www.w3.org/2000/svg" xmlns:xlink="http://www.w3.org/1999/xlink" x="0px" y="0px"
	 viewBox="0 0 57 57" style="enable-background:new 0 0 57 57;" xml:space="preserve">
<g>
	<path style="fill:#E6E6E6;" d="M33.438,57h-9.876c-2.302,0-4.226-1.752-4.441-4.044l-4.621-35l0,0c9.192,2.298,18.808,2.298,28,0
		l0,0l-4.621,35C37.664,55.248,35.74,57,33.438,57z"/>
	<path style="fill:#D2D5D7;" d="M20.893,7.956h15.213c1.446,0,2.745,0.88,3.282,2.222l3.111,7.778l0,0
		c-9.192,2.298-18.808,2.298-28,0l0,0l3.111-7.778C18.148,8.836,19.448,7.956,20.893,7.956z"/>
	<path style="fill:#E6E6E6;" d="M35.5,7.956h-14V2.213C21.5,0.991,22.491,0,23.713,0h9.574C34.509,0,35.5,0.991,35.5,2.213V7.956z"
		/>
	<path style="fill:#FFFFFF;" d="M25.802,53.499c-2.438-0.152-3.333-2.317-3.465-3.44l-1.333-9.992l0.992-0.133l1.333,10
		c0.013,0.105,0.327,2.429,2.535,2.567L25.802,53.499z"/>
</g>
<g>
</g>
<g>
</g>
<g>
</g>
<g>
</g>
<g>
</g>
<g>
</g>
<g>
</g>
<g>
</g>
<g>
</g>
<g>
</g>
<g>
</g>
<g>
</g>
<g>
</g>
<g>
</g>
<g>
</g>
</svg>
