<?xml version="1.0" encoding="iso-8859-1"?>
<!-- Generator: Adobe Illustrator 18.0.0, SVG Export Plug-In . SVG Version: 6.00 Build 0)  -->
<!DOCTYPE svg PUBLIC "-//W3C//DTD SVG 1.1//EN" "http://www.w3.org/Graphics/SVG/1.1/DTD/svg11.dtd">
<svg version="1.1" id="Capa_1" xmlns="http://www.w3.org/2000/svg" xmlns:xlink="http://www.w3.org/1999/xlink" x="0px" y="0px"
	 viewBox="0 0 55 55" style="enable-background:new 0 0 55 55;" xml:space="preserve">
<g>
	<path style="fill:#FBD490;" d="M50.681,14.671C49.622,8.1,44.524,3.117,37.935,2.17c-2.081-0.299-4.091-0.172-5.962,0.304
		c-4.289,1.092-8.774,1.091-13.063,0c-1.87-0.476-3.88-0.603-5.96-0.304C6.421,3.108,1.342,8.011,0.23,14.512
		c-0.878,5.132,0.824,9.892,4.019,13.206c2.207,2.289,3.528,5.285,3.528,8.465l0,11.392c0,2.991,2.424,5.415,5.415,5.415h24.051
		c2.991,0,5.415-2.424,5.415-5.415v-10.95c0-3.295,1.432-6.371,3.765-8.698C49.721,24.642,51.515,19.854,50.681,14.671z"/>
	<path style="fill:#D8AF6F;" d="M4.884,18.009c-0.256,0-0.512-0.098-0.707-0.293c-0.391-0.391-0.391-1.023,0-1.414l11-11
		c0.391-0.391,1.023-0.391,1.414,0s0.391,1.023,0,1.414l-11,11C5.396,17.911,5.14,18.009,4.884,18.009z"/>
	<path style="fill:#D8AF6F;" d="M7.384,25.509c-0.256,0-0.512-0.098-0.707-0.293c-0.391-0.391-0.391-1.023,0-1.414l15-15
		c0.391-0.391,1.023-0.391,1.414,0s0.391,1.023,0,1.414l-15,15C7.896,25.411,7.64,25.509,7.384,25.509z"/>
	<path style="fill:#D8AF6F;" d="M32.884,51.009c-0.256,0-0.512-0.098-0.707-0.293c-0.391-0.391-0.391-1.023,0-1.414l6-6
		c0.391-0.391,1.023-0.391,1.414,0s0.391,1.023,0,1.414l-6,6C33.396,50.911,33.14,51.009,32.884,51.009z"/>
	<path style="fill:#D8AF6F;" d="M23.884,50.009c-0.256,0-0.512-0.098-0.707-0.293c-0.391-0.391-0.391-1.023,0-1.414l15-15
		c0.391-0.391,1.023-0.391,1.414,0s0.391,1.023,0,1.414l-15,15C24.396,49.911,24.14,50.009,23.884,50.009z"/>
	<path style="fill:#D8AF6F;" d="M10.384,32.509c-0.256,0-0.512-0.098-0.707-0.293c-0.391-0.391-0.391-1.023,0-1.414l25-25
		c0.391-0.391,1.023-0.391,1.414,0s0.391,1.023,0,1.414l-25,25C10.896,32.411,10.64,32.509,10.384,32.509z"/>
	<path style="fill:#D8AF6F;" d="M10.884,43.009c-0.256,0-0.512-0.098-0.707-0.293c-0.391-0.391-0.391-1.023,0-1.414l32-32
		c0.391-0.391,1.023-0.391,1.414,0s0.391,1.023,0,1.414l-32,32C11.396,42.911,11.14,43.009,10.884,43.009z"/>
	<path style="fill:#D8AF6F;" d="M13.884,50.009c-0.256,0-0.512-0.098-0.707-0.293c-0.391-0.391-0.391-1.023,0-1.414l32-32
		c0.391-0.391,1.023-0.391,1.414,0c0.391,0.391,0.391,1.023,0,1.414l-32,32C14.396,49.911,14.14,50.009,13.884,50.009z"/>
	<g>
		<path style="fill:#A46F3E;" d="M54.797,14.671C53.738,8.1,48.64,3.117,42.051,2.17c-1.466-0.211-2.894-0.199-4.266-0.014
			c0.05,0.007,0.099,0.007,0.15,0.014C44.524,3.117,49.622,8.1,50.681,14.671c0.835,5.183-0.96,9.971-4.256,13.257
			c-2.333,2.326-3.765,5.403-3.765,8.698l0,10.95c0,2.991-2.424,5.415-5.415,5.415h4.116c2.991,0,5.415-2.424,5.415-5.415v-10.95
			c0-3.295,1.432-6.371,3.765-8.698C53.837,24.642,55.631,19.854,54.797,14.671z"/>
	</g>
</g>
<g>
</g>
<g>
</g>
<g>
</g>
<g>
</g>
<g>
</g>
<g>
</g>
<g>
</g>
<g>
</g>
<g>
</g>
<g>
</g>
<g>
</g>
<g>
</g>
<g>
</g>
<g>
</g>
<g>
</g>
</svg>
