<?xml version="1.0" encoding="iso-8859-1"?>
<!-- Generator: Adobe Illustrator 18.0.0, SVG Export Plug-In . SVG Version: 6.00 Build 0)  -->
<!DOCTYPE svg PUBLIC "-//W3C//DTD SVG 1.1//EN" "http://www.w3.org/Graphics/SVG/1.1/DTD/svg11.dtd">
<svg version="1.1" id="Capa_1" xmlns="http://www.w3.org/2000/svg" xmlns:xlink="http://www.w3.org/1999/xlink" x="0px" y="0px"
	 viewBox="0 0 53 53" style="enable-background:new 0 0 53 53;" xml:space="preserve">
<g>
	<g>
		<path style="fill:#DAE7EF;" d="M17.272,2.5c1.376,1.039,2.781,7.875,1.474,9c-2.108,1.815-5.247,4.242-5.247,9v23.791
			c0,4.515,3.694,8.209,8.209,8.209h9.582c4.515,0,8.209-3.694,8.209-8.209V20.5c0-4.772-3.099-7.193-5.173-9.013
			c-1.286-1.129-0.424-7.961,0.946-8.987"/>
		<path style="fill:#BBD7EA;" d="M31.291,53h-9.582C16.907,53,13,49.093,13,44.291V20.5c0-4.746,2.943-7.261,5.093-9.098
			l0.328-0.281c0.182-0.156,0.379-0.765,0.341-1.965c-0.084-2.59-1.079-5.721-1.791-6.257l0.604-0.799
			c1.227,0.927,2.114,4.778,2.187,7.023c0.046,1.416-0.179,2.316-0.688,2.755l-0.331,0.283C16.63,13.968,14,16.215,14,20.5v23.791
			C14,48.542,17.458,52,21.709,52h9.582C35.542,52,39,48.542,39,44.291V20.5c0-4.284-2.58-6.528-4.652-8.332l-0.351-0.305
			c-0.745-0.654-0.842-2.354-0.791-3.666c0.073-1.901,0.618-5.236,1.767-6.098l0.6,0.801c-0.564,0.423-1.269,2.794-1.367,5.335
			c-0.063,1.657,0.181,2.639,0.452,2.876l0.347,0.303C37.112,13.248,40,15.761,40,20.5v23.791C40,49.093,36.093,53,31.291,53z"/>
	</g>
	<g>
		<ellipse style="fill:#DAE7EF;" cx="26.272" cy="2.5" rx="9" ry="2"/>
		<path style="fill:#BBD7EA;" d="M26.272,5c-3.528,0-9.5-0.526-9.5-2.5s5.972-2.5,9.5-2.5s9.5,0.526,9.5,2.5S29.801,5,26.272,5z
			 M26.272,1c-5.303,0-8.353,0.982-8.501,1.509C17.92,3.018,20.97,4,26.272,4c5.273,0,8.319-0.972,8.498-1.5
			C34.592,1.972,31.546,1,26.272,1z"/>
	</g>
	<circle style="fill:#231F20;" cx="30.5" cy="45.59" r="1"/>
	<circle style="fill:#231F20;" cx="23" cy="47.09" r="1.5"/>
	<g>
		<path style="fill:#BBD7EA;" d="M31.858,27.976c-0.198,0.021-0.397,0.032-0.597,0.032c-2.578,0-5.208-1.756-7.644-5.114
			c-3.532-4.865-8.545-3.303-10.107-2.654c-0.002,0.088-0.011,0.171-0.011,0.26v23.791c0,4.515,3.694,8.209,8.209,8.209h9.582
			c4.515,0,8.209-3.694,8.209-8.209V23.428C36.719,27.024,33.388,27.814,31.858,27.976z"/>
	</g>
	<circle style="fill:#E4EEF4;" cx="19" cy="27" r="1.5"/>
	<circle style="fill:#E4EEF4;" cx="21.5" cy="38.59" r="1"/>
	<circle style="fill:#E4EEF4;" cx="27.5" cy="31.5" r="1"/>
	<circle style="fill:#E4EEF4;" cx="35" cy="38.09" r="1.5"/>
</g>
<g>
</g>
<g>
</g>
<g>
</g>
<g>
</g>
<g>
</g>
<g>
</g>
<g>
</g>
<g>
</g>
<g>
</g>
<g>
</g>
<g>
</g>
<g>
</g>
<g>
</g>
<g>
</g>
<g>
</g>
</svg>
