<?xml version="1.0" encoding="iso-8859-1"?>
<!-- Generator: Adobe Illustrator 18.0.0, SVG Export Plug-In . SVG Version: 6.00 Build 0)  -->
<!DOCTYPE svg PUBLIC "-//W3C//DTD SVG 1.1//EN" "http://www.w3.org/Graphics/SVG/1.1/DTD/svg11.dtd">
<svg version="1.1" id="Capa_1" xmlns="http://www.w3.org/2000/svg" xmlns:xlink="http://www.w3.org/1999/xlink" x="0px" y="0px"
	 viewBox="0 0 56.48 56.48" style="enable-background:new 0 0 56.48 56.48;" xml:space="preserve">
<g>
	<path style="fill:#D2D5D7;" d="M9.15,56.314c-2.493,0-4.862-0.846-6.582-2.562l0,0c-3.661-3.66-3.373-10.279,0.641-14.755
		c1.555-1.734,3.319-3.31,4.852-4.649c9.62-8.413,17.157-11.619,23.042-9.805l0.237,0.073l0.176,0.176
		c0.63,0.632,0.689,1.816,0.696,3.078l0.003,0.25c0.019,1.025-0.095,2.119-0.338,3.253c-0.419,1.95-1.196,3.99-2.375,6.238
		c-1.775,3.386-4.241,6.866-7.538,10.64c-1.339,1.533-2.914,3.3-4.647,4.854C14.943,55.233,11.968,56.314,9.15,56.314z
		 M3.982,52.338c2.923,2.914,8.303,2.592,11.998-0.722c1.65-1.479,3.177-3.192,4.478-4.682c3.192-3.653,5.571-7.007,7.272-10.252
		c1.094-2.086,1.811-3.96,2.191-5.729c0.211-0.983,0.31-1.924,0.293-2.796l-0.003-0.274c-0.001-0.301-0.006-1.115-0.099-1.542
		c-5.114-1.32-11.91,1.794-20.736,9.513c-1.487,1.301-3.199,2.827-4.68,4.479C1.382,44.031,1.06,49.415,3.982,52.338z"/>
	<path style="fill:#D2D5D7;" d="M4.829,54.563c-0.392,0-0.777-0.05-1.15-0.163c-0.685-0.207-1.218-0.64-1.543-1.25
		c-0.622-1.169-0.312-2.654-0.071-3.436c0.755-2.449,2.496-5.049,5.175-7.728c1.326-1.354,2.769-2.76,4.531-4.416
		c3.688-3.464,6.777-6.113,9.726-8.34l0.298-0.226c2.632-1.992,5.906-4.471,9.169-4.756l1.153-0.101l-0.068,1.156
		c-0.168,2.833-2.358,5.882-3.959,8.107l-0.104,0.145c-2.609,3.636-5.557,6.952-7.833,9.436c-1.93,2.104-3.757,4.007-5.586,5.815
		c-1.58,1.563-2.973,2.722-4.383,3.646C8.73,53.405,6.71,54.563,4.829,54.563z M29.793,26.511c-2.318,0.703-4.763,2.553-6.792,4.089
		l-0.3,0.227c-2.89,2.183-5.928,4.788-9.562,8.201c-1.741,1.638-3.165,3.024-4.479,4.366c-2.452,2.453-4.026,4.774-4.684,6.909
		c-0.247,0.8-0.275,1.53-0.075,1.907c0.053,0.099,0.137,0.209,0.356,0.275c1.013,0.303,2.637-0.27,4.83-1.706
		c1.296-0.848,2.59-1.927,4.072-3.394c1.806-1.786,3.61-3.665,5.518-5.745c2.238-2.442,5.135-5.7,7.683-9.25l0.104-0.146
		C27.647,30.601,29.184,28.463,29.793,26.511z"/>
	
		<rect x="33.408" y="17.321" transform="matrix(0.7071 0.7071 -0.7071 0.7071 25.5936 -17.903)" style="fill:#D2D5D7;" width="2" height="9.243"/>
	
		<rect x="16.032" y="19.79" transform="matrix(0.7071 0.7071 -0.7071 0.7071 32.7514 -0.5438)" style="fill:#D2D5D7;" width="2" height="38.945"/>
	<path style="fill:#A5A5A5;" d="M40.12,20.77l-4.243-4.243L51.708,0.697c0.706-0.706,1.863-0.706,2.569,0l1.674,1.674
		c0.706,0.706,0.706,1.863,0,2.569L40.12,20.77z"/>
	<g>
		<polygon style="fill:#E6E6E6;" points="45.853,15.036 47.349,13.54 40.986,11.419 39.49,12.915 		"/>
		<path style="fill:#E6E6E6;" d="M55.951,2.37l-1.674-1.674c-0.706-0.706-1.863-0.706-2.569,0l-9.142,9.142l6.364,2.121l7.021-7.021
			C56.657,4.233,56.657,3.077,55.951,2.37z"/>
		<polygon style="fill:#E6E6E6;" points="37.909,14.495 35.877,16.527 40.12,20.77 44.273,16.617 		"/>
	</g>
</g>
<g>
</g>
<g>
</g>
<g>
</g>
<g>
</g>
<g>
</g>
<g>
</g>
<g>
</g>
<g>
</g>
<g>
</g>
<g>
</g>
<g>
</g>
<g>
</g>
<g>
</g>
<g>
</g>
<g>
</g>
</svg>
