<?xml version="1.0" encoding="iso-8859-1"?>
<!-- Generator: Adobe Illustrator 18.0.0, SVG Export Plug-In . SVG Version: 6.00 Build 0)  -->
<!DOCTYPE svg PUBLIC "-//W3C//DTD SVG 1.1//EN" "http://www.w3.org/Graphics/SVG/1.1/DTD/svg11.dtd">
<svg version="1.1" id="Capa_1" xmlns="http://www.w3.org/2000/svg" xmlns:xlink="http://www.w3.org/1999/xlink" x="0px" y="0px"
	 viewBox="0 0 55.654 55.654" style="enable-background:new 0 0 55.654 55.654;" xml:space="preserve">
<g>
	<path style="fill:#FAF5E5;" d="M26.589,0.454L10.373,19.561c-0.328,0.386-0.398,0.929-0.18,1.387l16.219,33.974
		c0.463,0.97,1.84,0.978,2.315,0.014l16.728-33.97c0.23-0.466,0.156-1.025-0.186-1.416L28.538,0.439
		C28.02-0.152,27.098-0.145,26.589,0.454z"/>
	<path style="fill:#FFF5BB;" d="M28.538,0.439c-0.518-0.591-1.44-0.584-1.948,0.015L10.373,19.561
		c-0.197,0.232-0.289,0.522-0.293,0.815c4.003,3.6,10.463,5.94,17.754,5.94c7.283,0,13.736-2.334,17.74-5.927
		c-0.002-0.303-0.098-0.602-0.305-0.839L28.538,0.439z"/>
	<path style="fill:#88C057;" d="M27.834,26.316c5.717,0,10.917-1.442,14.828-3.799c-0.322-0.457-0.813-0.764-1.383-0.764
		c-0.28,0-0.59-0.338-0.59-0.644c0-1.067-0.793-1.932-1.771-1.932c-0.28,0-0.59-0.338-0.59-0.644c0-1.067-0.793-1.932-1.771-1.932
		c-0.28,0-0.59-0.338-0.59-0.644c0-1.067-0.793-1.932-1.771-1.932c-0.28,0-0.59-0.338-0.59-0.644c0-1.066-0.793-1.931-1.771-1.931
		c-0.28,0-0.59-0.338-0.59-0.644c0-0.963-0.648-1.754-1.493-1.901c-0.405-0.783-1.166-1.318-2.048-1.318
		c-0.883,0-1.644,0.535-2.049,1.318c-0.845,0.146-1.493,0.938-1.493,1.901c0,0.305-0.31,0.644-0.59,0.644
		c-0.978,0-1.771,0.865-1.771,1.931c0,0.306-0.31,0.644-0.59,0.644c-0.978,0-1.771,0.865-1.771,1.932c0,0.306-0.31,0.644-0.59,0.644
		c-0.978,0-1.771,0.865-1.771,1.932c0,0.305-0.31,0.644-0.59,0.644c-0.978,0-1.77,0.865-1.77,1.932c0,0.306-0.31,0.644-0.59,0.644
		c-0.525,0-0.991,0.254-1.314,0.65C16.749,24.828,22.025,26.316,27.834,26.316z"/>
	<g>
		<path style="fill:#D75A4A;" d="M31.596,15.422l-2.439-2.439c-0.889-0.889-2.329-0.889-3.218,0L23.5,15.422
			c-0.734,0.734-0.852,1.84-0.374,2.704c0.849-0.413,1.897-0.277,2.602,0.428l1.891,1.891l-0.548,0.548l2.439-2.439
			c0.674-0.674,1.663-0.834,2.49-0.487C32.441,17.211,32.313,16.139,31.596,15.422z"/>
		<path style="fill:#D75A4A;" d="M26.835,21.283c-0.065,0.09-0.118,0.185-0.168,0.282C26.717,21.468,26.773,21.374,26.835,21.283z"
			/>
	</g>
	<path style="fill:#F75B57;" d="M33.565,25.813l1.602-1.602c0.889-0.889,0.889-2.329,0-3.218l-2.439-2.439
		c-0.889-0.888-2.329-0.888-3.218,0l-2.439,2.439c-0.889,0.888-0.889,2.329,0,3.218l2.079,2.079
		C30.67,26.231,32.145,26.065,33.565,25.813z"/>
	<path style="fill:#EF857D;" d="M27.62,20.445l-1.891-1.891c-0.889-0.888-2.329-0.888-3.218,0l-2.439,2.439
		c-0.889,0.888-0.889,2.329,0,3.218l1.505,1.505c1.454,0.284,2.971,0.471,4.534,0.551l1.508-1.508l-0.548-0.548
		c-0.889-0.889-0.889-2.329,0-3.218L27.62,20.445z"/>
</g>
<g>
</g>
<g>
</g>
<g>
</g>
<g>
</g>
<g>
</g>
<g>
</g>
<g>
</g>
<g>
</g>
<g>
</g>
<g>
</g>
<g>
</g>
<g>
</g>
<g>
</g>
<g>
</g>
<g>
</g>
</svg>
